<?xml version="1.0" encoding="UTF-8" standalone="no"?>
<!DOCTYPE svg PUBLIC "-//W3C//DTD SVG 1.1//EN"
 "http://www.w3.org/Graphics/SVG/1.1/DTD/svg11.dtd">
<!-- Generated by graphviz version 2.36.0 (20140111.2315)
 -->
<!-- Title: apt&#45;pkg/acquire.h Pages: 1 -->
<svg width="643pt" height="84pt"
 viewBox="0.00 0.00 643.00 84.00" xmlns="http://www.w3.org/2000/svg" xmlns:xlink="http://www.w3.org/1999/xlink">
<g id="graph0" class="graph" transform="scale(1 1) rotate(0) translate(4 80)">
<title>apt&#45;pkg/acquire.h</title>
<polygon fill="white" stroke="none" points="-4,4 -4,-80 639,-80 639,4 -4,4"/>
<!-- Node1 -->
<g id="node1" class="node"><title>Node1</title>
<polygon fill="#bfbfbf" stroke="black" points="293,-56.5 293,-75.5 385,-75.5 385,-56.5 293,-56.5"/>
<text text-anchor="middle" x="339" y="-63.5" font-family="Helvetica,sans-Serif" font-size="10.00">apt&#45;pkg/acquire.h</text>
</g>
<!-- Node2 -->
<g id="node2" class="node"><title>Node2</title>
<polygon fill="white" stroke="#bfbfbf" points="0,-0.5 0,-19.5 92,-19.5 92,-0.5 0,-0.5"/>
<text text-anchor="middle" x="46" y="-7.5" font-family="Helvetica,sans-Serif" font-size="10.00">apt&#45;pkg/macros.h</text>
</g>
<!-- Node1&#45;&gt;Node2 -->
<g id="edge1" class="edge"><title>Node1&#45;&gt;Node2</title>
<path fill="none" stroke="midnightblue" d="M292.896,-56.5031C241.313,-46.9963 157.734,-31.5926 102.323,-21.3803"/>
<polygon fill="midnightblue" stroke="midnightblue" points="102.787,-17.907 92.3181,-19.5364 101.518,-24.791 102.787,-17.907"/>
</g>
<!-- Node3 -->
<g id="node3" class="node"><title>Node3</title>
<polygon fill="white" stroke="#bfbfbf" points="110.5,-0.5 110.5,-19.5 205.5,-19.5 205.5,-0.5 110.5,-0.5"/>
<text text-anchor="middle" x="158" y="-7.5" font-family="Helvetica,sans-Serif" font-size="10.00">apt&#45;pkg/weakptr.h</text>
</g>
<!-- Node1&#45;&gt;Node3 -->
<g id="edge2" class="edge"><title>Node1&#45;&gt;Node3</title>
<path fill="none" stroke="midnightblue" d="M310.32,-56.4435C279.473,-47.2406 230.272,-32.5617 196.171,-22.3879"/>
<polygon fill="midnightblue" stroke="midnightblue" points="197.129,-19.0215 186.546,-19.5164 195.128,-25.7293 197.129,-19.0215"/>
</g>
<!-- Node4 -->
<g id="node4" class="node"><title>Node4</title>
<polygon fill="white" stroke="#bfbfbf" points="224,-0.5 224,-19.5 268,-19.5 268,-0.5 224,-0.5"/>
<text text-anchor="middle" x="246" y="-7.5" font-family="Helvetica,sans-Serif" font-size="10.00">vector</text>
</g>
<!-- Node1&#45;&gt;Node4 -->
<g id="edge3" class="edge"><title>Node1&#45;&gt;Node4</title>
<path fill="none" stroke="midnightblue" d="M324.058,-56.324C309.415,-47.8215 286.866,-34.7288 269.762,-24.7975"/>
<polygon fill="midnightblue" stroke="midnightblue" points="271.31,-21.6491 260.905,-19.6545 267.795,-27.7027 271.31,-21.6491"/>
</g>
<!-- Node5 -->
<g id="node5" class="node"><title>Node5</title>
<polygon fill="white" stroke="#bfbfbf" points="286.5,-0.5 286.5,-19.5 327.5,-19.5 327.5,-0.5 286.5,-0.5"/>
<text text-anchor="middle" x="307" y="-7.5" font-family="Helvetica,sans-Serif" font-size="10.00">string</text>
</g>
<!-- Node1&#45;&gt;Node5 -->
<g id="edge4" class="edge"><title>Node1&#45;&gt;Node5</title>
<path fill="none" stroke="midnightblue" d="M333.716,-56.083C329.289,-48.6127 322.837,-37.7244 317.382,-28.5199"/>
<polygon fill="midnightblue" stroke="midnightblue" points="320.295,-26.5697 312.186,-19.7511 314.273,-30.1383 320.295,-26.5697"/>
</g>
<!-- Node6 -->
<g id="node6" class="node"><title>Node6</title>
<polygon fill="white" stroke="#bfbfbf" points="346,-0.5 346,-19.5 398,-19.5 398,-0.5 346,-0.5"/>
<text text-anchor="middle" x="372" y="-7.5" font-family="Helvetica,sans-Serif" font-size="10.00">stddef.h</text>
</g>
<!-- Node1&#45;&gt;Node6 -->
<g id="edge5" class="edge"><title>Node1&#45;&gt;Node6</title>
<path fill="none" stroke="midnightblue" d="M344.449,-56.083C349.014,-48.6127 355.668,-37.7244 361.293,-28.5199"/>
<polygon fill="midnightblue" stroke="midnightblue" points="364.424,-30.109 366.652,-19.7511 358.451,-26.4588 364.424,-30.109"/>
</g>
<!-- Node7 -->
<g id="node7" class="node"><title>Node7</title>
<polygon fill="white" stroke="#bfbfbf" points="416,-0.5 416,-19.5 478,-19.5 478,-0.5 416,-0.5"/>
<text text-anchor="middle" x="447" y="-7.5" font-family="Helvetica,sans-Serif" font-size="10.00">sys/time.h</text>
</g>
<!-- Node1&#45;&gt;Node7 -->
<g id="edge6" class="edge"><title>Node1&#45;&gt;Node7</title>
<path fill="none" stroke="midnightblue" d="M356.352,-56.324C373.672,-47.6641 400.515,-34.2424 420.502,-24.249"/>
<polygon fill="midnightblue" stroke="midnightblue" points="422.312,-27.2572 429.691,-19.6545 419.181,-20.9962 422.312,-27.2572"/>
</g>
<!-- Node8 -->
<g id="node8" class="node"><title>Node8</title>
<polygon fill="white" stroke="#bfbfbf" points="496,-0.5 496,-19.5 566,-19.5 566,-0.5 496,-0.5"/>
<text text-anchor="middle" x="531" y="-7.5" font-family="Helvetica,sans-Serif" font-size="10.00">sys/select.h</text>
</g>
<!-- Node1&#45;&gt;Node8 -->
<g id="edge7" class="edge"><title>Node1&#45;&gt;Node8</title>
<path fill="none" stroke="midnightblue" d="M369.423,-56.4435C402.285,-47.2011 454.785,-32.4356 490.974,-22.2572"/>
<polygon fill="midnightblue" stroke="midnightblue" points="492.04,-25.5932 500.719,-19.5164 490.145,-18.8547 492.04,-25.5932"/>
</g>
<!-- Node9 -->
<g id="node9" class="node"><title>Node9</title>
<polygon fill="white" stroke="#bfbfbf" points="584.5,-0.5 584.5,-19.5 635.5,-19.5 635.5,-0.5 584.5,-0.5"/>
<text text-anchor="middle" x="610" y="-7.5" font-family="Helvetica,sans-Serif" font-size="10.00">unistd.h</text>
</g>
<!-- Node1&#45;&gt;Node9 -->
<g id="edge8" class="edge"><title>Node1&#45;&gt;Node9</title>
<path fill="none" stroke="midnightblue" d="M385.304,-57.0642C430.874,-49.0546 502.655,-35.9066 574.322,-20.0318"/>
<polygon fill="midnightblue" stroke="midnightblue" points="575.434,-23.3697 584.431,-17.774 573.908,-16.538 575.434,-23.3697"/>
</g>
</g>
</svg>
