<?xml version="1.0" encoding="UTF-8" standalone="no"?>
<!DOCTYPE svg PUBLIC "-//W3C//DTD SVG 1.1//EN"
 "http://www.w3.org/Graphics/SVG/1.1/DTD/svg11.dtd">
<!-- Generated by graphviz version 2.36.0 (20140111.2315)
 -->
<!-- Title: apt&#45;pkg/acquire&#45;method.h Pages: 1 -->
<svg width="588pt" height="84pt"
 viewBox="0.00 0.00 588.00 84.00" xmlns="http://www.w3.org/2000/svg" xmlns:xlink="http://www.w3.org/1999/xlink">
<g id="graph0" class="graph" transform="scale(1 1) rotate(0) translate(4 80)">
<title>apt&#45;pkg/acquire&#45;method.h</title>
<polygon fill="white" stroke="none" points="-4,4 -4,-80 584,-80 584,4 -4,4"/>
<!-- Node1 -->
<g id="node1" class="node"><title>Node1</title>
<polygon fill="#bfbfbf" stroke="black" points="199.5,-56.5 199.5,-75.5 326.5,-75.5 326.5,-56.5 199.5,-56.5"/>
<text text-anchor="middle" x="263" y="-63.5" font-family="Helvetica,sans-Serif" font-size="10.00">apt&#45;pkg/acquire&#45;method.h</text>
</g>
<!-- Node2 -->
<g id="node2" class="node"><title>Node2</title>
<polygon fill="white" stroke="#bfbfbf" points="0,-0.5 0,-19.5 92,-19.5 92,-0.5 0,-0.5"/>
<text text-anchor="middle" x="46" y="-7.5" font-family="Helvetica,sans-Serif" font-size="10.00">apt&#45;pkg/macros.h</text>
</g>
<!-- Node1&#45;&gt;Node2 -->
<g id="edge1" class="edge"><title>Node1&#45;&gt;Node2</title>
<path fill="none" stroke="midnightblue" d="M228.616,-56.4435C191.078,-47.1024 130.869,-32.1194 89.9327,-21.9326"/>
<polygon fill="midnightblue" stroke="midnightblue" points="90.7727,-18.5349 80.2234,-19.5164 89.0823,-25.3278 90.7727,-18.5349"/>
</g>
<!-- Node3 -->
<g id="node3" class="node"><title>Node3</title>
<polygon fill="white" stroke="#bfbfbf" points="110,-0.5 110,-19.5 162,-19.5 162,-0.5 110,-0.5"/>
<text text-anchor="middle" x="136" y="-7.5" font-family="Helvetica,sans-Serif" font-size="10.00">stdarg.h</text>
</g>
<!-- Node1&#45;&gt;Node3 -->
<g id="edge2" class="edge"><title>Node1&#45;&gt;Node3</title>
<path fill="none" stroke="midnightblue" d="M242.876,-56.4435C221.976,-47.5566 189.065,-33.5632 165.284,-23.4514"/>
<polygon fill="midnightblue" stroke="midnightblue" points="166.602,-20.2085 156.029,-19.5164 163.862,-26.6504 166.602,-20.2085"/>
</g>
<!-- Node4 -->
<g id="node4" class="node"><title>Node4</title>
<polygon fill="white" stroke="#bfbfbf" points="180,-0.5 180,-19.5 224,-19.5 224,-0.5 180,-0.5"/>
<text text-anchor="middle" x="202" y="-7.5" font-family="Helvetica,sans-Serif" font-size="10.00">time.h</text>
</g>
<!-- Node1&#45;&gt;Node4 -->
<g id="edge3" class="edge"><title>Node1&#45;&gt;Node4</title>
<path fill="none" stroke="midnightblue" d="M253.199,-56.324C244.182,-48.3414 230.594,-36.3128 219.682,-26.6529"/>
<polygon fill="midnightblue" stroke="midnightblue" points="221.787,-23.8416 211.979,-19.8339 217.147,-29.083 221.787,-23.8416"/>
</g>
<!-- Node5 -->
<g id="node5" class="node"><title>Node5</title>
<polygon fill="white" stroke="#bfbfbf" points="242.5,-0.5 242.5,-19.5 283.5,-19.5 283.5,-0.5 242.5,-0.5"/>
<text text-anchor="middle" x="263" y="-7.5" font-family="Helvetica,sans-Serif" font-size="10.00">string</text>
</g>
<!-- Node1&#45;&gt;Node5 -->
<g id="edge4" class="edge"><title>Node1&#45;&gt;Node5</title>
<path fill="none" stroke="midnightblue" d="M263,-56.083C263,-49.0059 263,-38.8611 263,-29.9865"/>
<polygon fill="midnightblue" stroke="midnightblue" points="266.5,-29.751 263,-19.7511 259.5,-29.7511 266.5,-29.751"/>
</g>
<!-- Node6 -->
<g id="node6" class="node"><title>Node6</title>
<polygon fill="white" stroke="#bfbfbf" points="302,-0.5 302,-19.5 346,-19.5 346,-0.5 302,-0.5"/>
<text text-anchor="middle" x="324" y="-7.5" font-family="Helvetica,sans-Serif" font-size="10.00">vector</text>
</g>
<!-- Node1&#45;&gt;Node6 -->
<g id="edge5" class="edge"><title>Node1&#45;&gt;Node6</title>
<path fill="none" stroke="midnightblue" d="M272.801,-56.324C281.818,-48.3414 295.406,-36.3128 306.318,-26.6529"/>
<polygon fill="midnightblue" stroke="midnightblue" points="308.853,-29.083 314.021,-19.8339 304.213,-23.8416 308.853,-29.083"/>
</g>
<!-- Node7 -->
<g id="node7" class="node"><title>Node7</title>
<polygon fill="white" stroke="#bfbfbf" points="364,-0.5 364,-19.5 480,-19.5 480,-0.5 364,-0.5"/>
<text text-anchor="middle" x="422" y="-7.5" font-family="Helvetica,sans-Serif" font-size="10.00">apt&#45;pkg/configuration.h</text>
</g>
<!-- Node1&#45;&gt;Node7 -->
<g id="edge6" class="edge"><title>Node1&#45;&gt;Node7</title>
<path fill="none" stroke="midnightblue" d="M288.194,-56.4435C314.943,-47.3591 357.403,-32.9388 387.305,-22.7831"/>
<polygon fill="midnightblue" stroke="midnightblue" points="388.581,-26.0464 396.924,-19.5164 386.329,-19.4182 388.581,-26.0464"/>
</g>
<!-- Node8 -->
<g id="node8" class="node"><title>Node8</title>
<polygon fill="white" stroke="#bfbfbf" points="498,-0.5 498,-19.5 580,-19.5 580,-0.5 498,-0.5"/>
<text text-anchor="middle" x="539" y="-7.5" font-family="Helvetica,sans-Serif" font-size="10.00">apt&#45;pkg/strutl.h</text>
</g>
<!-- Node1&#45;&gt;Node8 -->
<g id="edge7" class="edge"><title>Node1&#45;&gt;Node8</title>
<path fill="none" stroke="midnightblue" d="M306.733,-56.4435C355.896,-46.8247 435.634,-31.2238 487.699,-21.0372"/>
<polygon fill="midnightblue" stroke="midnightblue" points="488.584,-24.4305 497.725,-19.0755 487.239,-17.5608 488.584,-24.4305"/>
</g>
</g>
</svg>
