<?xml version="1.0" encoding="UTF-8" standalone="no"?>
<!DOCTYPE svg PUBLIC "-//W3C//DTD SVG 1.1//EN"
 "http://www.w3.org/Graphics/SVG/1.1/DTD/svg11.dtd">
<!-- Generated by graphviz version 2.36.0 (20140111.2315)
 -->
<!-- Title: apt&#45;pkg/acquire.h Pages: 1 -->
<svg width="504pt" height="196pt"
 viewBox="0.00 0.00 504.00 196.00" xmlns="http://www.w3.org/2000/svg" xmlns:xlink="http://www.w3.org/1999/xlink">
<g id="graph0" class="graph" transform="scale(1 1) rotate(0) translate(4 192)">
<title>apt&#45;pkg/acquire.h</title>
<polygon fill="white" stroke="none" points="-4,4 -4,-192 500,-192 500,4 -4,4"/>
<!-- Node1 -->
<g id="node1" class="node"><title>Node1</title>
<polygon fill="#bfbfbf" stroke="black" points="213,-168.5 213,-187.5 305,-187.5 305,-168.5 213,-168.5"/>
<text text-anchor="middle" x="259" y="-175.5" font-family="Helvetica,sans-Serif" font-size="10.00">apt&#45;pkg/acquire.h</text>
</g>
<!-- Node2 -->
<g id="node2" class="node"><title>Node2</title>
<g id="a_node2"><a xlink:href="acquire-item_8h.xhtml" target="_top" xlink:title="apt&#45;pkg/acquire&#45;item.h">
<polygon fill="white" stroke="black" points="-0.5,-112.5 -0.5,-131.5 112.5,-131.5 112.5,-112.5 -0.5,-112.5"/>
<text text-anchor="middle" x="56" y="-119.5" font-family="Helvetica,sans-Serif" font-size="10.00">apt&#45;pkg/acquire&#45;item.h</text>
</a>
</g>
</g>
<!-- Node1&#45;&gt;Node2 -->
<g id="edge1" class="edge"><title>Node1&#45;&gt;Node2</title>
<path fill="none" stroke="midnightblue" d="M217.006,-165.829C178.677,-155.633 122.848,-140.782 88.0155,-131.516"/>
<polygon fill="midnightblue" stroke="midnightblue" points="216.27,-169.255 226.834,-168.444 218.07,-162.49 216.27,-169.255"/>
</g>
<!-- Node3 -->
<g id="node3" class="node"><title>Node3</title>
<g id="a_node3"><a xlink:href="acquire-worker_8h.xhtml" target="_top" xlink:title="apt&#45;pkg/acquire&#45;worker.h">
<polygon fill="white" stroke="black" points="131,-112.5 131,-131.5 255,-131.5 255,-112.5 131,-112.5"/>
<text text-anchor="middle" x="193" y="-119.5" font-family="Helvetica,sans-Serif" font-size="10.00">apt&#45;pkg/acquire&#45;worker.h</text>
</a>
</g>
</g>
<!-- Node1&#45;&gt;Node3 -->
<g id="edge2" class="edge"><title>Node1&#45;&gt;Node3</title>
<path fill="none" stroke="midnightblue" d="M240.446,-161.82C228.622,-152.145 213.714,-139.948 203.797,-131.834"/>
<polygon fill="midnightblue" stroke="midnightblue" points="238.44,-164.7 248.396,-168.324 242.873,-159.283 238.44,-164.7"/>
</g>
<!-- Node4 -->
<g id="node4" class="node"><title>Node4</title>
<g id="a_node4"><a xlink:href="algorithms_8h_source.xhtml" target="_top" xlink:title="apt&#45;pkg/algorithms.h">
<polygon fill="white" stroke="black" points="273.5,-112.5 273.5,-131.5 378.5,-131.5 378.5,-112.5 273.5,-112.5"/>
<text text-anchor="middle" x="326" y="-119.5" font-family="Helvetica,sans-Serif" font-size="10.00">apt&#45;pkg/algorithms.h</text>
</a>
</g>
</g>
<!-- Node1&#45;&gt;Node4 -->
<g id="edge3" class="edge"><title>Node1&#45;&gt;Node4</title>
<path fill="none" stroke="midnightblue" d="M277.835,-161.82C289.838,-152.145 304.972,-139.948 315.039,-131.834"/>
<polygon fill="midnightblue" stroke="midnightblue" points="275.354,-159.324 269.765,-168.324 279.747,-164.774 275.354,-159.324"/>
</g>
<!-- Node5 -->
<g id="node5" class="node"><title>Node5</title>
<g id="a_node5"><a xlink:href="cachefile_8h_source.xhtml" target="_top" xlink:title="apt&#45;pkg/cachefile.h">
<polygon fill="white" stroke="black" points="396.5,-112.5 396.5,-131.5 495.5,-131.5 495.5,-112.5 396.5,-112.5"/>
<text text-anchor="middle" x="446" y="-119.5" font-family="Helvetica,sans-Serif" font-size="10.00">apt&#45;pkg/cachefile.h</text>
</a>
</g>
</g>
<!-- Node1&#45;&gt;Node5 -->
<g id="edge4" class="edge"><title>Node1&#45;&gt;Node5</title>
<path fill="none" stroke="midnightblue" d="M298.59,-165.568C333.866,-155.381 384.694,-140.703 416.508,-131.516"/>
<polygon fill="midnightblue" stroke="midnightblue" points="297.267,-162.307 288.631,-168.444 299.209,-169.032 297.267,-162.307"/>
</g>
<!-- Node6 -->
<g id="node6" class="node"><title>Node6</title>
<g id="a_node6"><a xlink:href="cacheset_8h.xhtml" target="_top" xlink:title="apt&#45;pkg/cacheset.h">
<polygon fill="white" stroke="black" points="396,-56.5 396,-75.5 496,-75.5 496,-56.5 396,-56.5"/>
<text text-anchor="middle" x="446" y="-63.5" font-family="Helvetica,sans-Serif" font-size="10.00">apt&#45;pkg/cacheset.h</text>
</a>
</g>
</g>
<!-- Node5&#45;&gt;Node6 -->
<g id="edge5" class="edge"><title>Node5&#45;&gt;Node6</title>
<path fill="none" stroke="midnightblue" d="M446,-101.805C446,-92.9102 446,-82.7798 446,-75.7511"/>
<polygon fill="midnightblue" stroke="midnightblue" points="442.5,-102.083 446,-112.083 449.5,-102.083 442.5,-102.083"/>
</g>
<!-- Node7 -->
<g id="node7" class="node"><title>Node7</title>
<g id="a_node7"><a xlink:href="edsp_8h.xhtml" target="_top" xlink:title="apt&#45;pkg/edsp.h">
<polygon fill="white" stroke="black" points="405.5,-0.5 405.5,-19.5 486.5,-19.5 486.5,-0.5 405.5,-0.5"/>
<text text-anchor="middle" x="446" y="-7.5" font-family="Helvetica,sans-Serif" font-size="10.00">apt&#45;pkg/edsp.h</text>
</a>
</g>
</g>
<!-- Node6&#45;&gt;Node7 -->
<g id="edge6" class="edge"><title>Node6&#45;&gt;Node7</title>
<path fill="none" stroke="midnightblue" d="M446,-45.8045C446,-36.9102 446,-26.7798 446,-19.7511"/>
<polygon fill="midnightblue" stroke="midnightblue" points="442.5,-46.083 446,-56.083 449.5,-46.083 442.5,-46.083"/>
</g>
</g>
</svg>
