<?xml version="1.0" encoding="UTF-8" standalone="no"?>
<!DOCTYPE svg PUBLIC "-//W3C//DTD SVG 1.1//EN"
 "http://www.w3.org/Graphics/SVG/1.1/DTD/svg11.dtd">
<!-- Generated by graphviz version 2.36.0 (20140111.2315)
 -->
<!-- Title: apt&#45;pkg/cachefilter.h Pages: 1 -->
<svg width="463pt" height="196pt"
 viewBox="0.00 0.00 463.00 196.00" xmlns="http://www.w3.org/2000/svg" xmlns:xlink="http://www.w3.org/1999/xlink">
<g id="graph0" class="graph" transform="scale(1 1) rotate(0) translate(4 192)">
<title>apt&#45;pkg/cachefilter.h</title>
<polygon fill="white" stroke="none" points="-4,4 -4,-192 459,-192 459,4 -4,4"/>
<!-- Node1 -->
<g id="node1" class="node"><title>Node1</title>
<polygon fill="#bfbfbf" stroke="black" points="303.5,-168.5 303.5,-187.5 408.5,-187.5 408.5,-168.5 303.5,-168.5"/>
<text text-anchor="middle" x="356" y="-175.5" font-family="Helvetica,sans-Serif" font-size="10.00">apt&#45;pkg/cachefilter.h</text>
</g>
<!-- Node2 -->
<g id="node2" class="node"><title>Node2</title>
<g id="a_node2"><a xlink:href="pkgcache_8h.xhtml" target="_top" xlink:title="pkgCache &#45; Structure definitions for the cache file ">
<polygon fill="white" stroke="black" points="200,-112.5 200,-131.5 302,-131.5 302,-112.5 200,-112.5"/>
<text text-anchor="middle" x="251" y="-119.5" font-family="Helvetica,sans-Serif" font-size="10.00">apt&#45;pkg/pkgcache.h</text>
</a>
</g>
</g>
<!-- Node1&#45;&gt;Node2 -->
<g id="edge1" class="edge"><title>Node1&#45;&gt;Node2</title>
<path fill="none" stroke="midnightblue" d="M339.13,-168.324C322.291,-159.664 296.193,-146.242 276.762,-136.249"/>
<polygon fill="midnightblue" stroke="midnightblue" points="278.322,-133.116 267.828,-131.655 275.12,-139.341 278.322,-133.116"/>
</g>
<!-- Node5 -->
<g id="node5" class="node"><title>Node5</title>
<polygon fill="white" stroke="#bfbfbf" points="338.5,-0.5 338.5,-19.5 379.5,-19.5 379.5,-0.5 338.5,-0.5"/>
<text text-anchor="middle" x="359" y="-7.5" font-family="Helvetica,sans-Serif" font-size="10.00">string</text>
</g>
<!-- Node1&#45;&gt;Node5 -->
<g id="edge14" class="edge"><title>Node1&#45;&gt;Node5</title>
<path fill="none" stroke="midnightblue" d="M356.161,-168.075C356.634,-141.945 358.02,-65.2106 358.664,-29.577"/>
<polygon fill="midnightblue" stroke="midnightblue" points="362.164,-29.6298 358.845,-19.5681 355.165,-29.5032 362.164,-29.6298"/>
</g>
<!-- Node7 -->
<g id="node7" class="node"><title>Node7</title>
<g id="a_node7"><a xlink:href="cacheiterators_8h_source.xhtml" target="_top" xlink:title="apt&#45;pkg/cacheiterators.h">
<polygon fill="white" stroke="black" points="190,-56.5 190,-75.5 312,-75.5 312,-56.5 190,-56.5"/>
<text text-anchor="middle" x="251" y="-63.5" font-family="Helvetica,sans-Serif" font-size="10.00">apt&#45;pkg/cacheiterators.h</text>
</a>
</g>
</g>
<!-- Node1&#45;&gt;Node7 -->
<g id="edge13" class="edge"><title>Node1&#45;&gt;Node7</title>
<path fill="none" stroke="midnightblue" d="M351.071,-168.385C343.35,-155.321 327.471,-130.106 310,-112 298.88,-100.476 284.647,-89.5326 272.947,-81.3236"/>
<polygon fill="midnightblue" stroke="midnightblue" points="274.819,-78.3637 264.587,-75.6148 270.871,-84.1445 274.819,-78.3637"/>
</g>
<!-- Node11 -->
<g id="node11" class="node"><title>Node11</title>
<polygon fill="white" stroke="#bfbfbf" points="406.5,-112.5 406.5,-131.5 455.5,-131.5 455.5,-112.5 406.5,-112.5"/>
<text text-anchor="middle" x="431" y="-119.5" font-family="Helvetica,sans-Serif" font-size="10.00">regex.h</text>
</g>
<!-- Node1&#45;&gt;Node11 -->
<g id="edge15" class="edge"><title>Node1&#45;&gt;Node11</title>
<path fill="none" stroke="midnightblue" d="M368.05,-168.324C379.463,-160.107 396.831,-147.602 410.435,-137.807"/>
<polygon fill="midnightblue" stroke="midnightblue" points="412.66,-140.517 418.731,-131.834 408.57,-134.837 412.66,-140.517"/>
</g>
<!-- Node3 -->
<g id="node3" class="node"><title>Node3</title>
<polygon fill="white" stroke="#bfbfbf" points="84.5,-56.5 84.5,-75.5 171.5,-75.5 171.5,-56.5 84.5,-56.5"/>
<text text-anchor="middle" x="128" y="-63.5" font-family="Helvetica,sans-Serif" font-size="10.00">apt&#45;pkg/mmap.h</text>
</g>
<!-- Node2&#45;&gt;Node3 -->
<g id="edge2" class="edge"><title>Node2&#45;&gt;Node3</title>
<path fill="none" stroke="midnightblue" d="M231.51,-112.444C211.358,-103.596 179.677,-89.6875 156.669,-79.5865"/>
<polygon fill="midnightblue" stroke="midnightblue" points="157.962,-76.3316 147.399,-75.5164 155.148,-82.7411 157.962,-76.3316"/>
</g>
<!-- Node4 -->
<g id="node4" class="node"><title>Node4</title>
<polygon fill="white" stroke="#bfbfbf" points="0,-0.5 0,-19.5 92,-19.5 92,-0.5 0,-0.5"/>
<text text-anchor="middle" x="46" y="-7.5" font-family="Helvetica,sans-Serif" font-size="10.00">apt&#45;pkg/macros.h</text>
</g>
<!-- Node2&#45;&gt;Node4 -->
<g id="edge3" class="edge"><title>Node2&#45;&gt;Node4</title>
<path fill="none" stroke="midnightblue" d="M199.759,-118.726C137.03,-114.743 36.2423,-104.049 13,-76 0.599811,-61.0355 14.9504,-40.6355 28.4206,-26.7055"/>
<polygon fill="midnightblue" stroke="midnightblue" points="30.8947,-29.1817 35.638,-19.7079 26.0221,-24.156 30.8947,-29.1817"/>
</g>
<!-- Node2&#45;&gt;Node5 -->
<g id="edge4" class="edge"><title>Node2&#45;&gt;Node5</title>
<path fill="none" stroke="midnightblue" d="M269.049,-112.447C284.262,-104.575 305.904,-91.7487 321,-76 334.119,-62.3141 344.57,-43.2731 351.165,-29.3371"/>
<polygon fill="midnightblue" stroke="midnightblue" points="354.523,-30.4039 355.437,-19.8486 348.14,-27.53 354.523,-30.4039"/>
</g>
<!-- Node6 -->
<g id="node6" class="node"><title>Node6</title>
<polygon fill="white" stroke="#bfbfbf" points="22,-56.5 22,-75.5 66,-75.5 66,-56.5 22,-56.5"/>
<text text-anchor="middle" x="44" y="-63.5" font-family="Helvetica,sans-Serif" font-size="10.00">time.h</text>
</g>
<!-- Node2&#45;&gt;Node6 -->
<g id="edge5" class="edge"><title>Node2&#45;&gt;Node6</title>
<path fill="none" stroke="midnightblue" d="M216.183,-112.449C182.629,-104.131 130.197,-90.9306 76.0877,-76.2372"/>
<polygon fill="midnightblue" stroke="midnightblue" points="76.8953,-72.8297 66.3268,-73.5751 75.0535,-79.583 76.8953,-72.8297"/>
</g>
<!-- Node2&#45;&gt;Node7 -->
<g id="edge6" class="edge"><title>Node2&#45;&gt;Node7</title>
<path fill="none" stroke="midnightblue" d="M245.834,-112.083C244.324,-104.927 243.894,-94.6353 244.542,-85.6911"/>
<polygon fill="midnightblue" stroke="midnightblue" points="248.015,-86.1262 245.869,-75.7511 241.077,-85.2002 248.015,-86.1262"/>
</g>
<!-- Node7&#45;&gt;Node2 -->
<g id="edge7" class="edge"><title>Node7&#45;&gt;Node2</title>
<path fill="none" stroke="midnightblue" d="M256.131,-75.7511C257.657,-82.8579 258.104,-93.1357 257.472,-102.101"/>
<polygon fill="midnightblue" stroke="midnightblue" points="253.993,-101.713 256.166,-112.083 260.934,-102.622 253.993,-101.713"/>
</g>
<!-- Node7&#45;&gt;Node4 -->
<g id="edge8" class="edge"><title>Node7&#45;&gt;Node4</title>
<path fill="none" stroke="midnightblue" d="M218.517,-56.4435C183.28,-47.1616 126.896,-32.3093 88.2413,-22.127"/>
<polygon fill="midnightblue" stroke="midnightblue" points="88.8926,-18.6792 78.3309,-19.5164 87.1095,-25.4483 88.8926,-18.6792"/>
</g>
<!-- Node7&#45;&gt;Node5 -->
<g id="edge11" class="edge"><title>Node7&#45;&gt;Node5</title>
<path fill="none" stroke="midnightblue" d="M268.352,-56.324C285.672,-47.6641 312.515,-34.2424 332.502,-24.249"/>
<polygon fill="midnightblue" stroke="midnightblue" points="334.312,-27.2572 341.691,-19.6545 331.181,-20.9962 334.312,-27.2572"/>
</g>
<!-- Node8 -->
<g id="node8" class="node"><title>Node8</title>
<polygon fill="white" stroke="#bfbfbf" points="143.5,-0.5 143.5,-19.5 190.5,-19.5 190.5,-0.5 143.5,-0.5"/>
<text text-anchor="middle" x="167" y="-7.5" font-family="Helvetica,sans-Serif" font-size="10.00">iterator</text>
</g>
<!-- Node7&#45;&gt;Node8 -->
<g id="edge9" class="edge"><title>Node7&#45;&gt;Node8</title>
<path fill="none" stroke="midnightblue" d="M237.504,-56.324C224.4,-47.9002 204.288,-34.9709 188.893,-25.0741"/>
<polygon fill="midnightblue" stroke="midnightblue" points="190.767,-22.118 180.463,-19.6545 186.982,-28.0063 190.767,-22.118"/>
</g>
<!-- Node9 -->
<g id="node9" class="node"><title>Node9</title>
<polygon fill="white" stroke="#bfbfbf" points="208.5,-0.5 208.5,-19.5 253.5,-19.5 253.5,-0.5 208.5,-0.5"/>
<text text-anchor="middle" x="231" y="-7.5" font-family="Helvetica,sans-Serif" font-size="10.00">iosfwd</text>
</g>
<!-- Node7&#45;&gt;Node9 -->
<g id="edge10" class="edge"><title>Node7&#45;&gt;Node9</title>
<path fill="none" stroke="midnightblue" d="M247.697,-56.083C245.018,-48.8486 241.151,-38.4087 237.814,-29.3968"/>
<polygon fill="midnightblue" stroke="midnightblue" points="240.996,-27.9129 234.241,-19.7511 234.432,-30.3442 240.996,-27.9129"/>
</g>
<!-- Node10 -->
<g id="node10" class="node"><title>Node10</title>
<polygon fill="white" stroke="#bfbfbf" points="271.5,-0.5 271.5,-19.5 320.5,-19.5 320.5,-0.5 271.5,-0.5"/>
<text text-anchor="middle" x="296" y="-7.5" font-family="Helvetica,sans-Serif" font-size="10.00">string.h</text>
</g>
<!-- Node7&#45;&gt;Node10 -->
<g id="edge12" class="edge"><title>Node7&#45;&gt;Node10</title>
<path fill="none" stroke="midnightblue" d="M258.431,-56.083C264.853,-48.3768 274.306,-37.0333 282.122,-27.6531"/>
<polygon fill="midnightblue" stroke="midnightblue" points="284.994,-29.674 288.707,-19.7511 279.617,-25.1927 284.994,-29.674"/>
</g>
</g>
</svg>
