<?xml version="1.0" encoding="UTF-8" standalone="no"?>
<!DOCTYPE svg PUBLIC "-//W3C//DTD SVG 1.1//EN"
 "http://www.w3.org/Graphics/SVG/1.1/DTD/svg11.dtd">
<!-- Generated by graphviz version 2.36.0 (20140111.2315)
 -->
<!-- Title: debListParser Pages: 1 -->
<svg width="222pt" height="140pt"
 viewBox="0.00 0.00 222.00 140.00" xmlns="http://www.w3.org/2000/svg" xmlns:xlink="http://www.w3.org/1999/xlink">
<g id="graph0" class="graph" transform="scale(1 1) rotate(0) translate(4 136)">
<title>debListParser</title>
<polygon fill="white" stroke="none" points="-4,4 -4,-136 218,-136 218,4 -4,4"/>
<!-- Node1 -->
<g id="node1" class="node"><title>Node1</title>
<polygon fill="#bfbfbf" stroke="black" points="76.5,-56.5 76.5,-75.5 153.5,-75.5 153.5,-56.5 76.5,-56.5"/>
<text text-anchor="middle" x="115" y="-63.5" font-family="Helvetica,sans-Serif" font-size="10.00">debListParser</text>
</g>
<!-- Node3 -->
<g id="node3" class="node"><title>Node3</title>
<g id="a_node3"><a xlink:href="classdebTranslationsParser.xhtml" target="_top" xlink:title="debTranslationsParser">
<polygon fill="white" stroke="black" points="0,-0.5 0,-19.5 114,-19.5 114,-0.5 0,-0.5"/>
<text text-anchor="middle" x="57" y="-7.5" font-family="Helvetica,sans-Serif" font-size="10.00">debTranslationsParser</text>
</a>
</g>
</g>
<!-- Node1&#45;&gt;Node3 -->
<g id="edge2" class="edge"><title>Node1&#45;&gt;Node3</title>
<path fill="none" stroke="midnightblue" d="M98.0869,-49.2533C87.797,-39.6731 75.0343,-27.7906 66.4883,-19.8339"/>
<polygon fill="midnightblue" stroke="midnightblue" points="95.9774,-52.0714 105.681,-56.324 100.747,-46.9481 95.9774,-52.0714"/>
</g>
<!-- Node4 -->
<g id="node4" class="node"><title>Node4</title>
<g id="a_node4"><a xlink:href="classedspListParser.xhtml" target="_top" xlink:title="edspListParser">
<polygon fill="white" stroke="black" points="132,-0.5 132,-19.5 214,-19.5 214,-0.5 132,-0.5"/>
<text text-anchor="middle" x="173" y="-7.5" font-family="Helvetica,sans-Serif" font-size="10.00">edspListParser</text>
</a>
</g>
</g>
<!-- Node1&#45;&gt;Node4 -->
<g id="edge3" class="edge"><title>Node1&#45;&gt;Node4</title>
<path fill="none" stroke="midnightblue" d="M131.913,-49.2533C142.203,-39.6731 154.966,-27.7906 163.512,-19.8339"/>
<polygon fill="midnightblue" stroke="midnightblue" points="129.253,-46.9481 124.319,-56.324 134.023,-52.0714 129.253,-46.9481"/>
</g>
<!-- Node2 -->
<g id="node2" class="node"><title>Node2</title>
<g id="a_node2"><a xlink:href="classpkgCacheGenerator_1_1ListParser.xhtml" target="_top" xlink:title="ListParser">
<polygon fill="white" stroke="black" points="84.5,-112.5 84.5,-131.5 145.5,-131.5 145.5,-112.5 84.5,-112.5"/>
<text text-anchor="middle" x="115" y="-119.5" font-family="Helvetica,sans-Serif" font-size="10.00">ListParser</text>
</a>
</g>
</g>
<!-- Node2&#45;&gt;Node1 -->
<g id="edge1" class="edge"><title>Node2&#45;&gt;Node1</title>
<path fill="none" stroke="midnightblue" d="M115,-101.805C115,-92.9102 115,-82.7798 115,-75.7511"/>
<polygon fill="midnightblue" stroke="midnightblue" points="111.5,-102.083 115,-112.083 118.5,-102.083 111.5,-102.083"/>
</g>
</g>
</svg>
