<?xml version="1.0" encoding="UTF-8" standalone="no"?>
<!DOCTYPE svg PUBLIC "-//W3C//DTD SVG 1.1//EN"
 "http://www.w3.org/Graphics/SVG/1.1/DTD/svg11.dtd">
<!-- Generated by graphviz version 2.36.0 (20140111.2315)
 -->
<!-- Title: Vendor Pages: 1 -->
<svg width="215pt" height="244pt"
 viewBox="0.00 0.00 215.00 244.00" xmlns="http://www.w3.org/2000/svg" xmlns:xlink="http://www.w3.org/1999/xlink">
<g id="graph0" class="graph" transform="scale(1 1) rotate(0) translate(4 240)">
<title>Vendor</title>
<polygon fill="white" stroke="none" points="-4,4 -4,-240 211,-240 211,4 -4,4"/>
<!-- Node1 -->
<g id="node1" class="node"><title>Node1</title>
<polygon fill="#bfbfbf" stroke="black" points="50.5,-0.5 50.5,-19.5 97.5,-19.5 97.5,-0.5 50.5,-0.5"/>
<text text-anchor="middle" x="74" y="-7.5" font-family="Helvetica,sans-Serif" font-size="10.00">Vendor</text>
</g>
<!-- Node2 -->
<g id="node2" class="node"><title>Node2</title>
<polygon fill="white" stroke="#bfbfbf" points="100.5,-69 100.5,-99 207.5,-99 207.5,-69 100.5,-69"/>
<text text-anchor="start" x="108.5" y="-87" font-family="Helvetica,sans-Serif" font-size="10.00">map&lt; std::string, std</text>
<text text-anchor="middle" x="154" y="-76" font-family="Helvetica,sans-Serif" font-size="10.00">::string &gt;</text>
</g>
<!-- Node2&#45;&gt;Node1 -->
<g id="edge1" class="edge"><title>Node2&#45;&gt;Node1</title>
<path fill="none" stroke="#9a32cd" stroke-dasharray="5,2" d="M130.479,-61.8307C114.896,-47.8062 95.2695,-30.1426 83.7321,-19.7589"/>
<polygon fill="#9a32cd" stroke="#9a32cd" points="128.42,-64.687 138.195,-68.7751 133.103,-59.4839 128.42,-64.687"/>
<text text-anchor="middle" x="143.5" y="-41.5" font-family="Helvetica,sans-Serif" font-size="10.00"> Fingerprints</text>
</g>
<!-- Node3 -->
<g id="node3" class="node"><title>Node3</title>
<g id="a_node3"><a xlink:title="STL class. ">
<polygon fill="white" stroke="#bfbfbf" points="32.5,-158.5 32.5,-177.5 73.5,-177.5 73.5,-158.5 32.5,-158.5"/>
<text text-anchor="middle" x="53" y="-165.5" font-family="Helvetica,sans-Serif" font-size="10.00">string</text>
</a>
</g>
</g>
<!-- Node3&#45;&gt;Node1 -->
<g id="edge4" class="edge"><title>Node3&#45;&gt;Node1</title>
<path fill="none" stroke="#9a32cd" stroke-dasharray="5,2" d="M48.8157,-148.422C44.9977,-128.34 40.8134,-95.5125 47,-68 51.0839,-49.8387 61.6503,-30.6621 68.2887,-19.8273"/>
<polygon fill="#9a32cd" stroke="#9a32cd" points="45.4265,-149.316 50.8856,-158.396 52.2804,-147.893 45.4265,-149.316"/>
<text text-anchor="middle" x="69.5" y="-87" font-family="Helvetica,sans-Serif" font-size="10.00"> VendorID</text>
<text text-anchor="middle" x="69.5" y="-76" font-family="Helvetica,sans-Serif" font-size="10.00">Origin</text>
</g>
<!-- Node3&#45;&gt;Node2 -->
<g id="edge2" class="edge"><title>Node3&#45;&gt;Node2</title>
<path fill="none" stroke="#9a32cd" stroke-dasharray="5,2" d="M71.8221,-151.719C90.3659,-136.663 118.468,-113.848 136.53,-99.1839"/>
<polygon fill="#9a32cd" stroke="#9a32cd" points="69.3662,-149.204 63.8088,-158.225 73.7784,-154.639 69.3662,-149.204"/>
<text text-anchor="middle" x="132" y="-132" font-family="Helvetica,sans-Serif" font-size="10.00"> keys</text>
<text text-anchor="middle" x="132" y="-121" font-family="Helvetica,sans-Serif" font-size="10.00">elements</text>
</g>
<!-- Node4 -->
<g id="node4" class="node"><title>Node4</title>
<g id="a_node4"><a xlink:title="STL class. ">
<polygon fill="white" stroke="#bfbfbf" points="0,-216.5 0,-235.5 106,-235.5 106,-216.5 0,-216.5"/>
<text text-anchor="middle" x="53" y="-223.5" font-family="Helvetica,sans-Serif" font-size="10.00">basic_string&lt; char &gt;</text>
</a>
</g>
</g>
<!-- Node4&#45;&gt;Node3 -->
<g id="edge3" class="edge"><title>Node4&#45;&gt;Node3</title>
<path fill="none" stroke="midnightblue" d="M53,-205.953C53,-196.287 53,-185.031 53,-177.505"/>
<polygon fill="midnightblue" stroke="midnightblue" points="49.5001,-206.25 53,-216.25 56.5001,-206.25 49.5001,-206.25"/>
</g>
</g>
</svg>
