<?xml version="1.0" encoding="UTF-8" standalone="no"?>
<!DOCTYPE svg PUBLIC "-//W3C//DTD SVG 1.1//EN"
 "http://www.w3.org/Graphics/SVG/1.1/DTD/svg11.dtd">
<!-- Generated by graphviz version 2.36.0 (20140111.2315)
 -->
<!-- Title: pkgCache::DescIterator Pages: 1 -->
<svg width="142pt" height="164pt"
 viewBox="0.00 0.00 142.00 164.00" xmlns="http://www.w3.org/2000/svg" xmlns:xlink="http://www.w3.org/1999/xlink">
<g id="graph0" class="graph" transform="scale(1 1) rotate(0) translate(4 160)">
<title>pkgCache::DescIterator</title>
<polygon fill="white" stroke="none" points="-4,4 -4,-160 138,-160 138,4 -4,4"/>
<!-- Node1 -->
<g id="node1" class="node"><title>Node1</title>
<polygon fill="#bfbfbf" stroke="black" points="6.5,-0.5 6.5,-19.5 127.5,-19.5 127.5,-0.5 6.5,-0.5"/>
<text text-anchor="middle" x="67" y="-7.5" font-family="Helvetica,sans-Serif" font-size="10.00">pkgCache::DescIterator</text>
</g>
<!-- Node2 -->
<g id="node2" class="node"><title>Node2</title>
<g id="a_node2"><a xlink:href="classpkgCache_1_1Iterator.xhtml" target="_top" xlink:title="Iterator\&lt; Description,\l DescIterator \&gt;">
<polygon fill="white" stroke="black" points="12.5,-57 12.5,-87 121.5,-87 121.5,-57 12.5,-57"/>
<text text-anchor="start" x="20.5" y="-75" font-family="Helvetica,sans-Serif" font-size="10.00">Iterator&lt; Description,</text>
<text text-anchor="middle" x="67" y="-64" font-family="Helvetica,sans-Serif" font-size="10.00"> DescIterator &gt;</text>
</a>
</g>
</g>
<!-- Node2&#45;&gt;Node1 -->
<g id="edge1" class="edge"><title>Node2&#45;&gt;Node1</title>
<path fill="none" stroke="midnightblue" d="M67,-46.5858C67,-37.0743 67,-26.7864 67,-19.7305"/>
<polygon fill="midnightblue" stroke="midnightblue" points="63.5001,-46.7808 67,-56.7808 70.5001,-46.7809 63.5001,-46.7808"/>
</g>
<!-- Node3 -->
<g id="node3" class="node"><title>Node3</title>
<polygon fill="white" stroke="#bfbfbf" points="-0.5,-125 -0.5,-155 134.5,-155 134.5,-125 -0.5,-125"/>
<text text-anchor="start" x="7.5" y="-143" font-family="Helvetica,sans-Serif" font-size="10.00">iterator&lt; std::forward</text>
<text text-anchor="middle" x="67" y="-132" font-family="Helvetica,sans-Serif" font-size="10.00">_iterator_tag, Description &gt;</text>
</g>
<!-- Node3&#45;&gt;Node2 -->
<g id="edge2" class="edge"><title>Node3&#45;&gt;Node2</title>
<path fill="none" stroke="midnightblue" d="M67,-114.532C67,-105.361 67,-95.2449 67,-87.2931"/>
<polygon fill="midnightblue" stroke="midnightblue" points="63.5001,-114.679 67,-124.679 70.5001,-114.679 63.5001,-114.679"/>
</g>
</g>
</svg>
