<?xml version="1.0" encoding="UTF-8" standalone="no"?>
<!DOCTYPE svg PUBLIC "-//W3C//DTD SVG 1.1//EN"
 "http://www.w3.org/Graphics/SVG/1.1/DTD/svg11.dtd">
<!-- Generated by graphviz version 2.36.0 (20140111.2315)
 -->
<!-- Title: DynamicMMap Pages: 1 -->
<svg width="170pt" height="300pt"
 viewBox="0.00 0.00 170.00 300.00" xmlns="http://www.w3.org/2000/svg" xmlns:xlink="http://www.w3.org/1999/xlink">
<g id="graph0" class="graph" transform="scale(1 1) rotate(0) translate(4 296)">
<title>DynamicMMap</title>
<polygon fill="white" stroke="none" points="-4,4 -4,-296 166,-296 166,4 -4,4"/>
<!-- Node1 -->
<g id="node1" class="node"><title>Node1</title>
<polygon fill="#bfbfbf" stroke="black" points="44.5,-0.5 44.5,-19.5 127.5,-19.5 127.5,-0.5 44.5,-0.5"/>
<text text-anchor="middle" x="86" y="-7.5" font-family="Helvetica,sans-Serif" font-size="10.00">DynamicMMap</text>
</g>
<!-- Node2 -->
<g id="node2" class="node"><title>Node2</title>
<g id="a_node2"><a xlink:href="classMMap.xhtml" target="_top" xlink:title="MMap">
<polygon fill="white" stroke="black" points="64,-68.5 64,-87.5 108,-87.5 108,-68.5 64,-68.5"/>
<text text-anchor="middle" x="86" y="-75.5" font-family="Helvetica,sans-Serif" font-size="10.00">MMap</text>
</a>
</g>
</g>
<!-- Node2&#45;&gt;Node1 -->
<g id="edge1" class="edge"><title>Node2&#45;&gt;Node1</title>
<path fill="none" stroke="midnightblue" d="M86,-58.0413C86,-45.4724 86,-29.5631 86,-19.8411"/>
<polygon fill="midnightblue" stroke="midnightblue" points="82.5001,-58.3716 86,-68.3717 89.5001,-58.3717 82.5001,-58.3716"/>
</g>
<!-- Node3 -->
<g id="node3" class="node"><title>Node3</title>
<g id="a_node3"><a xlink:href="classFileFd.xhtml" target="_top" xlink:title="FileFd">
<polygon fill="white" stroke="black" points="31,-136.5 31,-155.5 75,-155.5 75,-136.5 31,-136.5"/>
<text text-anchor="middle" x="53" y="-143.5" font-family="Helvetica,sans-Serif" font-size="10.00">FileFd</text>
</a>
</g>
</g>
<!-- Node3&#45;&gt;Node1 -->
<g id="edge6" class="edge"><title>Node3&#45;&gt;Node1</title>
<path fill="none" stroke="#9a32cd" stroke-dasharray="5,2" d="M44.807,-126.547C38.9401,-110.663 33.177,-87.3189 40,-68 47.0297,-48.0958 64.2845,-30.038 75.5478,-19.8012"/>
<polygon fill="#9a32cd" stroke="#9a32cd" points="41.7262,-128.262 48.732,-136.21 48.2117,-125.628 41.7262,-128.262"/>
<text text-anchor="middle" x="47.5" y="-75.5" font-family="Helvetica,sans-Serif" font-size="10.00"> Fd</text>
</g>
<!-- Node3&#45;&gt;Node2 -->
<g id="edge2" class="edge"><title>Node3&#45;&gt;Node2</title>
<path fill="none" stroke="#9a32cd" stroke-dasharray="5,2" d="M61.907,-127.186C68.2739,-114.452 76.5696,-97.8607 81.5794,-87.8411"/>
<polygon fill="#9a32cd" stroke="#9a32cd" points="58.6559,-125.862 57.3142,-136.372 64.9169,-128.993 58.6559,-125.862"/>
<text text-anchor="middle" x="97.5" y="-109.5" font-family="Helvetica,sans-Serif" font-size="10.00"> SyncToFd</text>
</g>
<!-- Node4 -->
<g id="node4" class="node"><title>Node4</title>
<g id="a_node4"><a xlink:title="STL class. ">
<polygon fill="white" stroke="#bfbfbf" points="32.5,-214.5 32.5,-233.5 73.5,-233.5 73.5,-214.5 32.5,-214.5"/>
<text text-anchor="middle" x="53" y="-221.5" font-family="Helvetica,sans-Serif" font-size="10.00">string</text>
</a>
</g>
</g>
<!-- Node4&#45;&gt;Node3 -->
<g id="edge3" class="edge"><title>Node4&#45;&gt;Node3</title>
<path fill="none" stroke="#9a32cd" stroke-dasharray="5,2" d="M53,-204.224C53,-188.697 53,-167.358 53,-155.616"/>
<polygon fill="#9a32cd" stroke="#9a32cd" points="49.5001,-204.282 53,-214.282 56.5001,-204.282 49.5001,-204.282"/>
<text text-anchor="middle" x="99" y="-188" font-family="Helvetica,sans-Serif" font-size="10.00"> TemporaryFileName</text>
<text text-anchor="middle" x="99" y="-177" font-family="Helvetica,sans-Serif" font-size="10.00">FileName</text>
</g>
<!-- Node5 -->
<g id="node5" class="node"><title>Node5</title>
<g id="a_node5"><a xlink:title="STL class. ">
<polygon fill="white" stroke="#bfbfbf" points="0,-272.5 0,-291.5 106,-291.5 106,-272.5 0,-272.5"/>
<text text-anchor="middle" x="53" y="-279.5" font-family="Helvetica,sans-Serif" font-size="10.00">basic_string&lt; char &gt;</text>
</a>
</g>
</g>
<!-- Node5&#45;&gt;Node4 -->
<g id="edge4" class="edge"><title>Node5&#45;&gt;Node4</title>
<path fill="none" stroke="midnightblue" d="M53,-261.953C53,-252.287 53,-241.031 53,-233.505"/>
<polygon fill="midnightblue" stroke="midnightblue" points="49.5001,-262.25 53,-272.25 56.5001,-262.25 49.5001,-262.25"/>
</g>
<!-- Node6 -->
<g id="node6" class="node"><title>Node6</title>
<g id="a_node6"><a xlink:href="structDynamicMMap_1_1Pool.xhtml" target="_top" xlink:title="Pool">
<polygon fill="white" stroke="black" points="126,-68.5 126,-87.5 162,-87.5 162,-68.5 126,-68.5"/>
<text text-anchor="middle" x="144" y="-75.5" font-family="Helvetica,sans-Serif" font-size="10.00">Pool</text>
</a>
</g>
</g>
<!-- Node6&#45;&gt;Node1 -->
<g id="edge5" class="edge"><title>Node6&#45;&gt;Node1</title>
<path fill="none" stroke="#9a32cd" stroke-dasharray="5,2" d="M129.658,-60.68C118.319,-47.7768 102.923,-30.2575 93.7695,-19.8411"/>
<polygon fill="#9a32cd" stroke="#9a32cd" points="127.187,-63.1704 136.418,-68.3717 132.445,-58.5496 127.187,-63.1704"/>
<text text-anchor="middle" x="134" y="-41.5" font-family="Helvetica,sans-Serif" font-size="10.00"> Pools</text>
</g>
</g>
</svg>
