<?xml version="1.0" encoding="UTF-8" standalone="no"?>
<!DOCTYPE svg PUBLIC "-//W3C//DTD SVG 1.1//EN"
 "http://www.w3.org/Graphics/SVG/1.1/DTD/svg11.dtd">
<!-- Generated by graphviz version 2.36.0 (20140111.2315)
 -->
<!-- Title: pkgAcquire::Queue Pages: 1 -->
<svg width="771pt" height="558pt"
 viewBox="0.00 0.00 771.00 558.00" xmlns="http://www.w3.org/2000/svg" xmlns:xlink="http://www.w3.org/1999/xlink">
<g id="graph0" class="graph" transform="scale(1 1) rotate(0) translate(4 554)">
<title>pkgAcquire::Queue</title>
<polygon fill="white" stroke="none" points="-4,4 -4,-554 767,-554 767,4 -4,4"/>
<!-- Node1 -->
<g id="node1" class="node"><title>Node1</title>
<polygon fill="#bfbfbf" stroke="black" points="88,-394.5 88,-413.5 188,-413.5 188,-394.5 88,-394.5"/>
<text text-anchor="middle" x="138" y="-401.5" font-family="Helvetica,sans-Serif" font-size="10.00">pkgAcquire::Queue</text>
</g>
<!-- Node2 -->
<g id="node2" class="node"><title>Node2</title>
<g id="a_node2"><a xlink:href="classpkgAcquire.xhtml" target="_top" xlink:title="The core download scheduler. {{{. ">
<polygon fill="white" stroke="black" points="235.5,-297.5 235.5,-316.5 300.5,-316.5 300.5,-297.5 235.5,-297.5"/>
<text text-anchor="middle" x="268" y="-304.5" font-family="Helvetica,sans-Serif" font-size="10.00">pkgAcquire</text>
</a>
</g>
</g>
<!-- Node1&#45;&gt;Node2 -->
<g id="edge2" class="edge"><title>Node1&#45;&gt;Node2</title>
<path fill="none" stroke="#9a32cd" stroke-dasharray="5,2" d="M173.886,-390.529C182.839,-386.588 192.124,-381.734 200,-376 216.292,-364.139 215.799,-356.299 230,-342 238.983,-332.955 249.883,-323.328 257.702,-316.635"/>
<polygon fill="#9a32cd" stroke="#9a32cd" points="172.295,-387.399 164.384,-394.447 174.964,-393.871 172.295,-387.399"/>
<text text-anchor="middle" x="248.5" y="-356.5" font-family="Helvetica,sans-Serif" font-size="10.00"> Queues</text>
</g>
<!-- Node10 -->
<g id="node10" class="node"><title>Node10</title>
<g id="a_node10"><a xlink:href="classpkgAcquire_1_1Worker.xhtml" target="_top" xlink:title="A fetch subprocess. ">
<polygon fill="white" stroke="black" points="274,-1.5 274,-20.5 322,-20.5 322,-1.5 274,-1.5"/>
<text text-anchor="middle" x="298" y="-8.5" font-family="Helvetica,sans-Serif" font-size="10.00">Worker</text>
</a>
</g>
</g>
<!-- Node1&#45;&gt;Node10 -->
<g id="edge15" class="edge"><title>Node1&#45;&gt;Node10</title>
<path fill="none" stroke="#9a32cd" stroke-dasharray="5,2" d="M80.0658,-391.422C69.1357,-387.623 58.2463,-382.608 49,-376 18.6921,-354.342 0,-345.251 0,-308 0,-308 0,-308 0,-79 0,-22.9896 202.922,-13.7948 273.866,-12.2917"/>
<polygon fill="#9a32cd" stroke="#9a32cd" points="79.0511,-394.772 89.6413,-394.456 81.1661,-388.099 79.0511,-394.772"/>
<text text-anchor="middle" x="20" y="-181.5" font-family="Helvetica,sans-Serif" font-size="10.00"> OwnerQ</text>
</g>
<!-- Node2&#45;&gt;Node1 -->
<g id="edge1" class="edge"><title>Node2&#45;&gt;Node1</title>
<path fill="none" stroke="#9a32cd" stroke-dasharray="5,2" d="M225.234,-314.813C205.941,-319.692 183.956,-327.985 168,-342 151.862,-356.175 143.507,-381.026 140.026,-394.209"/>
<polygon fill="#9a32cd" stroke="#9a32cd" points="226.071,-318.212 235.032,-312.56 224.502,-311.39 226.071,-318.212"/>
<text text-anchor="middle" x="184" y="-356.5" font-family="Helvetica,sans-Serif" font-size="10.00"> Owner</text>
</g>
<!-- Node8 -->
<g id="node8" class="node"><title>Node8</title>
<g id="a_node8"><a xlink:href="classpkgAcquire_1_1Item.xhtml" target="_top" xlink:title="Represents the process by which a pkgAcquire object should {{{ retrieve a file or a collection of fil...">
<polygon fill="white" stroke="black" points="330,-215.5 330,-234.5 366,-234.5 366,-215.5 330,-215.5"/>
<text text-anchor="middle" x="348" y="-222.5" font-family="Helvetica,sans-Serif" font-size="10.00">Item</text>
</a>
</g>
</g>
<!-- Node2&#45;&gt;Node8 -->
<g id="edge11" class="edge"><title>Node2&#45;&gt;Node8</title>
<path fill="none" stroke="#9a32cd" stroke-dasharray="5,2" d="M278.971,-288.692C285.149,-279.63 293.349,-268.651 302,-260 311.831,-250.169 324.667,-240.922 334.28,-234.561"/>
<polygon fill="#9a32cd" stroke="#9a32cd" points="275.904,-286.986 273.33,-297.263 281.751,-290.834 275.904,-286.986"/>
<text text-anchor="middle" x="318" y="-263.5" font-family="Helvetica,sans-Serif" font-size="10.00"> Owner</text>
</g>
<!-- Node3 -->
<g id="node3" class="node"><title>Node3</title>
<g id="a_node3"><a xlink:href="structpkgAcquire_1_1MethodConfig.xhtml" target="_top" xlink:title="Information about the properties of a single acquire method. {{{. ">
<polygon fill="white" stroke="black" points="235.5,-394.5 235.5,-413.5 312.5,-413.5 312.5,-394.5 235.5,-394.5"/>
<text text-anchor="middle" x="274" y="-401.5" font-family="Helvetica,sans-Serif" font-size="10.00">MethodConfig</text>
</a>
</g>
</g>
<!-- Node3&#45;&gt;Node2 -->
<g id="edge3" class="edge"><title>Node3&#45;&gt;Node2</title>
<path fill="none" stroke="#9a32cd" stroke-dasharray="5,2" d="M272.814,-384.227C271.524,-363.793 269.516,-332.001 268.552,-316.746"/>
<polygon fill="#9a32cd" stroke="#9a32cd" points="269.323,-384.473 273.446,-394.233 276.309,-384.032 269.323,-384.473"/>
<text text-anchor="middle" x="291.5" y="-356.5" font-family="Helvetica,sans-Serif" font-size="10.00"> Configs</text>
</g>
<!-- Node3&#45;&gt;Node3 -->
<g id="edge4" class="edge"><title>Node3&#45;&gt;Node3</title>
<path fill="none" stroke="#9a32cd" stroke-dasharray="5,2" d="M322.872,-409.635C327.251,-408.456 330,-406.578 330,-404 330,-399.77 322.597,-397.423 312.735,-396.96"/>
<polygon fill="#9a32cd" stroke="#9a32cd" points="322.16,-406.2 312.735,-411.04 323.121,-413.134 322.16,-406.2"/>
<text text-anchor="middle" x="342.5" y="-401.5" font-family="Helvetica,sans-Serif" font-size="10.00"> Next</text>
</g>
<!-- Node3&#45;&gt;Node10 -->
<g id="edge16" class="edge"><title>Node3&#45;&gt;Node10</title>
<path fill="none" stroke="#9a32cd" stroke-dasharray="5,2" d="M225.093,-395.52C191.856,-389.936 153.035,-382.228 148,-376 138.5,-364.249 147.402,-357.099 148,-342 150.891,-268.94 147.652,-249.889 161,-178 170.139,-128.779 170.757,-114.85 193,-70 200.346,-55.1874 201.656,-49.7638 215,-40 232.427,-27.2478 256.059,-20.0276 273.649,-16.1259"/>
<polygon fill="#9a32cd" stroke="#9a32cd" points="224.75,-399.01 235.185,-397.18 225.886,-392.103 224.75,-399.01"/>
<text text-anchor="middle" x="177" y="-181.5" font-family="Helvetica,sans-Serif" font-size="10.00"> Config</text>
</g>
<!-- Node4 -->
<g id="node4" class="node"><title>Node4</title>
<g id="a_node4"><a xlink:title="STL class. ">
<polygon fill="white" stroke="#bfbfbf" points="438.5,-472.5 438.5,-491.5 479.5,-491.5 479.5,-472.5 438.5,-472.5"/>
<text text-anchor="middle" x="459" y="-479.5" font-family="Helvetica,sans-Serif" font-size="10.00">string</text>
</a>
</g>
</g>
<!-- Node4&#45;&gt;Node1 -->
<g id="edge30" class="edge"><title>Node4&#45;&gt;Node1</title>
<path fill="none" stroke="#9a32cd" stroke-dasharray="5,2" d="M428.099,-478.68C390.169,-475.361 324.097,-468.042 269,-454 228.058,-443.566 182.253,-424.679 157.11,-413.65"/>
<polygon fill="#9a32cd" stroke="#9a32cd" points="428.215,-482.202 438.472,-479.549 428.799,-475.226 428.215,-482.202"/>
<text text-anchor="middle" x="284" y="-440.5" font-family="Helvetica,sans-Serif" font-size="10.00"> Name</text>
</g>
<!-- Node4&#45;&gt;Node3 -->
<g id="edge5" class="edge"><title>Node4&#45;&gt;Node3</title>
<path fill="none" stroke="#9a32cd" stroke-dasharray="5,2" d="M428.224,-478.557C401.852,-475.514 363.422,-468.774 333,-454 312.159,-443.879 292.392,-424.88 281.868,-413.746"/>
<polygon fill="#9a32cd" stroke="#9a32cd" points="428.076,-482.061 438.385,-479.616 428.802,-475.099 428.076,-482.061"/>
<text text-anchor="middle" x="351.5" y="-446" font-family="Helvetica,sans-Serif" font-size="10.00"> Access</text>
<text text-anchor="middle" x="351.5" y="-435" font-family="Helvetica,sans-Serif" font-size="10.00">Version</text>
</g>
<!-- Node4&#45;&gt;Node8 -->
<g id="edge12" class="edge"><title>Node4&#45;&gt;Node8</title>
<path fill="none" stroke="#9a32cd" stroke-dasharray="5,2" d="M442.745,-464.612C430.598,-451.697 414.222,-432.791 403,-414 365.861,-351.811 352.448,-262.96 348.99,-234.867"/>
<polygon fill="#9a32cd" stroke="#9a32cd" points="440.564,-467.393 450.02,-472.172 445.608,-462.539 440.564,-467.393"/>
<text text-anchor="middle" x="408.5" y="-367.5" font-family="Helvetica,sans-Serif" font-size="10.00"> DestFile</text>
<text text-anchor="middle" x="408.5" y="-356.5" font-family="Helvetica,sans-Serif" font-size="10.00">ErrorText</text>
<text text-anchor="middle" x="408.5" y="-345.5" font-family="Helvetica,sans-Serif" font-size="10.00">UsedMirror</text>
</g>
<!-- Node4&#45;&gt;Node10 -->
<g id="edge24" class="edge"><title>Node4&#45;&gt;Node10</title>
<path fill="none" stroke="#9a32cd" stroke-dasharray="5,2" d="M489.939,-479.423C535.422,-475.252 615,-460.084 615,-405 615,-405 615,-405 615,-79 615,-19.1635 396.063,-12.5081 322.087,-11.9672"/>
<polygon fill="#9a32cd" stroke="#9a32cd" points="489.41,-475.954 479.716,-480.229 489.96,-482.932 489.41,-475.954"/>
<text text-anchor="middle" x="639" y="-233.5" font-family="Helvetica,sans-Serif" font-size="10.00"> OutQueue</text>
<text text-anchor="middle" x="639" y="-222.5" font-family="Helvetica,sans-Serif" font-size="10.00">Access</text>
<text text-anchor="middle" x="639" y="-211.5" font-family="Helvetica,sans-Serif" font-size="10.00">Status</text>
</g>
<!-- Node12 -->
<g id="node12" class="node"><title>Node12</title>
<g id="a_node12"><a xlink:href="structpkgAcquire_1_1ItemDesc.xhtml" target="_top" xlink:title="Represents a single download source from which an item should be downloaded. ">
<polygon fill="white" stroke="black" points="384.5,-134.5 384.5,-153.5 443.5,-153.5 443.5,-134.5 384.5,-134.5"/>
<text text-anchor="middle" x="414" y="-141.5" font-family="Helvetica,sans-Serif" font-size="10.00">ItemDesc</text>
</a>
</g>
</g>
<!-- Node4&#45;&gt;Node12 -->
<g id="edge20" class="edge"><title>Node4&#45;&gt;Node12</title>
<path fill="none" stroke="#9a32cd" stroke-dasharray="5,2" d="M477.475,-465.556C490.744,-453.179 507.549,-434.534 515,-414 518.032,-405.644 516.086,-402.822 515,-394 502.631,-293.528 438.661,-184.476 419.457,-153.581"/>
<polygon fill="#9a32cd" stroke="#9a32cd" points="474.92,-463.145 469.786,-472.413 479.579,-468.37 474.92,-463.145"/>
<text text-anchor="middle" x="525.5" y="-315.5" font-family="Helvetica,sans-Serif" font-size="10.00"> Description</text>
<text text-anchor="middle" x="525.5" y="-304.5" font-family="Helvetica,sans-Serif" font-size="10.00">URI</text>
<text text-anchor="middle" x="525.5" y="-293.5" font-family="Helvetica,sans-Serif" font-size="10.00">ShortDesc</text>
</g>
<!-- Node13 -->
<g id="node13" class="node"><title>Node13</title>
<polygon fill="white" stroke="#bfbfbf" points="634.5,-349.5 634.5,-368.5 739.5,-368.5 739.5,-349.5 634.5,-349.5"/>
<text text-anchor="middle" x="687" y="-356.5" font-family="Helvetica,sans-Serif" font-size="10.00">vector&lt; std::string &gt;</text>
</g>
<!-- Node4&#45;&gt;Node13 -->
<g id="edge27" class="edge"><title>Node4&#45;&gt;Node13</title>
<path fill="none" stroke="#9a32cd" stroke-dasharray="5,2" d="M489.629,-479.182C532.243,-476.146 606.704,-468.855 629,-454 660.757,-432.841 678.189,-387.777 684.377,-368.758"/>
<polygon fill="#9a32cd" stroke="#9a32cd" points="489.273,-475.698 479.532,-479.864 489.745,-482.682 489.273,-475.698"/>
<text text-anchor="middle" x="673.5" y="-440.5" font-family="Helvetica,sans-Serif" font-size="10.00"> elements</text>
</g>
<!-- Node5 -->
<g id="node5" class="node"><title>Node5</title>
<g id="a_node5"><a xlink:title="STL class. ">
<polygon fill="white" stroke="#bfbfbf" points="406,-530.5 406,-549.5 512,-549.5 512,-530.5 406,-530.5"/>
<text text-anchor="middle" x="459" y="-537.5" font-family="Helvetica,sans-Serif" font-size="10.00">basic_string&lt; char &gt;</text>
</a>
</g>
</g>
<!-- Node5&#45;&gt;Node4 -->
<g id="edge6" class="edge"><title>Node5&#45;&gt;Node4</title>
<path fill="none" stroke="midnightblue" d="M459,-519.953C459,-510.287 459,-499.031 459,-491.505"/>
<polygon fill="midnightblue" stroke="midnightblue" points="455.5,-520.25 459,-530.25 462.5,-520.25 455.5,-520.25"/>
</g>
<!-- Node6 -->
<g id="node6" class="node"><title>Node6</title>
<g id="a_node6"><a xlink:href="classpkgAcquireStatus.xhtml" target="_top" xlink:title="A monitor object for downloads controlled by the pkgAcquire class. {{{. ">
<polygon fill="white" stroke="black" points="412,-394.5 412,-413.5 506,-413.5 506,-394.5 412,-394.5"/>
<text text-anchor="middle" x="459" y="-401.5" font-family="Helvetica,sans-Serif" font-size="10.00">pkgAcquireStatus</text>
</a>
</g>
</g>
<!-- Node6&#45;&gt;Node2 -->
<g id="edge7" class="edge"><title>Node6&#45;&gt;Node2</title>
<path fill="none" stroke="#9a32cd" stroke-dasharray="5,2" d="M401.733,-397.072C382.07,-393.172 360.599,-386.709 343,-376 326.033,-365.676 328.525,-355.546 314,-342 303.687,-332.382 290.662,-322.973 281.106,-316.5"/>
<polygon fill="#9a32cd" stroke="#9a32cd" points="401.359,-400.561 411.821,-398.887 402.598,-393.671 401.359,-400.561"/>
<text text-anchor="middle" x="352.5" y="-356.5" font-family="Helvetica,sans-Serif" font-size="10.00"> Log</text>
</g>
<!-- Node6&#45;&gt;Node10 -->
<g id="edge25" class="edge"><title>Node6&#45;&gt;Node10</title>
<path fill="none" stroke="#9a32cd" stroke-dasharray="5,2" d="M465.607,-384.915C483.226,-336.405 530,-205.677 530,-185 530,-185 530,-185 530,-79 530,-36.133 381.955,-18.9982 322.39,-13.839"/>
<polygon fill="#9a32cd" stroke="#9a32cd" points="462.276,-383.833 462.142,-394.427 468.853,-386.228 462.276,-383.833"/>
<text text-anchor="middle" x="539.5" y="-181.5" font-family="Helvetica,sans-Serif" font-size="10.00"> Log</text>
</g>
<!-- Node7 -->
<g id="node7" class="node"><title>Node7</title>
<polygon fill="white" stroke="#bfbfbf" points="265.5,-129 265.5,-159 366.5,-159 366.5,-129 265.5,-129"/>
<text text-anchor="start" x="273.5" y="-147" font-family="Helvetica,sans-Serif" font-size="10.00">vector&lt; pkgAcquire</text>
<text text-anchor="middle" x="316" y="-136" font-family="Helvetica,sans-Serif" font-size="10.00">::Item * &gt;</text>
</g>
<!-- Node7&#45;&gt;Node2 -->
<g id="edge8" class="edge"><title>Node7&#45;&gt;Node2</title>
<path fill="none" stroke="#9a32cd" stroke-dasharray="5,2" d="M302.472,-167.946C300.822,-171.254 299.272,-174.668 298,-178 281.471,-221.285 272.292,-276.409 269.2,-297.379"/>
<polygon fill="#9a32cd" stroke="#9a32cd" points="305.599,-169.522 307.244,-159.056 299.431,-166.212 305.599,-169.522"/>
<text text-anchor="middle" x="302" y="-222.5" font-family="Helvetica,sans-Serif" font-size="10.00"> Items</text>
</g>
<!-- Node8&#45;&gt;Node7 -->
<g id="edge9" class="edge"><title>Node8&#45;&gt;Node7</title>
<path fill="none" stroke="#9a32cd" stroke-dasharray="5,2" d="M321.322,-209.49C314.405,-204.316 307.83,-197.799 304,-190 299.224,-180.275 302.736,-168.401 307.168,-159.293"/>
<polygon fill="#9a32cd" stroke="#9a32cd" points="319.82,-212.695 330.085,-215.319 323.697,-206.866 319.82,-212.695"/>
<text text-anchor="middle" x="325.5" y="-181.5" font-family="Helvetica,sans-Serif" font-size="10.00"> elements</text>
</g>
<!-- Node8&#45;&gt;Node12 -->
<g id="edge21" class="edge"><title>Node8&#45;&gt;Node12</title>
<path fill="none" stroke="#9a32cd" stroke-dasharray="5,2" d="M354.391,-205.648C358.071,-196.714 363.304,-186.168 370,-178 378.112,-168.105 389.787,-159.527 399.073,-153.599"/>
<polygon fill="#9a32cd" stroke="#9a32cd" points="351.059,-204.564 350.791,-215.155 357.606,-207.043 351.059,-204.564"/>
<text text-anchor="middle" x="386" y="-181.5" font-family="Helvetica,sans-Serif" font-size="10.00"> Owner</text>
</g>
<!-- Node9 -->
<g id="node9" class="node"><title>Node9</title>
<g id="a_node9"><a xlink:href="classWeakPointable.xhtml" target="_top" xlink:title="WeakPointable">
<polygon fill="white" stroke="black" points="376.5,-297.5 376.5,-316.5 459.5,-316.5 459.5,-297.5 376.5,-297.5"/>
<text text-anchor="middle" x="418" y="-304.5" font-family="Helvetica,sans-Serif" font-size="10.00">WeakPointable</text>
</a>
</g>
</g>
<!-- Node9&#45;&gt;Node8 -->
<g id="edge10" class="edge"><title>Node9&#45;&gt;Node8</title>
<path fill="none" stroke="midnightblue" d="M403.674,-289.628C389.129,-273.005 367.159,-247.896 355.65,-234.742"/>
<polygon fill="midnightblue" stroke="midnightblue" points="401.29,-292.218 410.509,-297.439 406.558,-287.608 401.29,-292.218"/>
</g>
<!-- Node9&#45;&gt;Node10 -->
<g id="edge14" class="edge"><title>Node9&#45;&gt;Node10</title>
<path fill="none" stroke="midnightblue" d="M427.822,-288.264C444.602,-255.475 474.863,-183.646 452,-128 431.098,-77.1285 410.593,-70.7577 365,-40 351.832,-31.1165 335.395,-24.1948 322.098,-19.4557"/>
<polygon fill="midnightblue" stroke="midnightblue" points="424.715,-286.651 423.121,-297.125 430.899,-289.932 424.715,-286.651"/>
</g>
<!-- Node9&#45;&gt;Node12 -->
<g id="edge19" class="edge"><title>Node9&#45;&gt;Node12</title>
<path fill="none" stroke="midnightblue" d="M417.531,-287.103C416.663,-252.196 414.841,-178.869 414.216,-153.699"/>
<polygon fill="midnightblue" stroke="midnightblue" points="414.038,-287.434 417.785,-297.344 421.035,-287.26 414.038,-287.434"/>
</g>
<!-- Node10&#45;&gt;Node1 -->
<g id="edge31" class="edge"><title>Node10&#45;&gt;Node1</title>
<path fill="none" stroke="#9a32cd" stroke-dasharray="5,2" d="M263.516,-14.6275C198.219,-20.5567 63,-37.8082 63,-79 63,-308 63,-308 63,-308 63,-347.085 102.592,-379.524 124.244,-394.342"/>
<polygon fill="#9a32cd" stroke="#9a32cd" points="264.076,-18.0921 273.736,-13.7403 263.471,-11.1183 264.076,-18.0921"/>
<text text-anchor="middle" x="83" y="-181.5" font-family="Helvetica,sans-Serif" font-size="10.00"> Workers</text>
</g>
<!-- Node10&#45;&gt;Node2 -->
<g id="edge13" class="edge"><title>Node10&#45;&gt;Node2</title>
<path fill="none" stroke="#9a32cd" stroke-dasharray="5,2" d="M264.04,-21.8405C238.182,-31.6617 207,-49.6001 207,-79 207,-226 207,-226 207,-226 207,-257.438 237.157,-284.217 255.063,-297.347"/>
<polygon fill="#9a32cd" stroke="#9a32cd" points="265.345,-25.0916 273.614,-18.4669 263.019,-18.4895 265.345,-25.0916"/>
<text text-anchor="middle" x="227" y="-141.5" font-family="Helvetica,sans-Serif" font-size="10.00"> Workers</text>
</g>
<!-- Node10&#45;&gt;Node10 -->
<g id="edge28" class="edge"><title>Node10&#45;&gt;Node10</title>
<path fill="none" stroke="#9a32cd" stroke-dasharray="5,2" d="M332.425,-16.6249C336.979,-15.6671 340,-13.7922 340,-11 340,-6.41797 331.864,-4.30594 322.17,-4.66391"/>
<polygon fill="#9a32cd" stroke="#9a32cd" points="331.904,-13.1525 322.17,-17.3361 332.388,-20.1358 331.904,-13.1525"/>
<text text-anchor="middle" x="367.5" y="-14" font-family="Helvetica,sans-Serif" font-size="10.00"> NextQueue</text>
<text text-anchor="middle" x="367.5" y="-3" font-family="Helvetica,sans-Serif" font-size="10.00">NextAcquire</text>
</g>
<!-- Node11 -->
<g id="node11" class="node"><title>Node11</title>
<g id="a_node11"><a xlink:href="structpkgAcquire_1_1Queue_1_1QItem.xhtml" target="_top" xlink:title="A single item placed in this queue. ">
<polygon fill="white" stroke="black" points="276,-70.5 276,-89.5 320,-89.5 320,-70.5 276,-70.5"/>
<text text-anchor="middle" x="298" y="-77.5" font-family="Helvetica,sans-Serif" font-size="10.00">QItem</text>
</a>
</g>
</g>
<!-- Node10&#45;&gt;Node11 -->
<g id="edge23" class="edge"><title>Node10&#45;&gt;Node11</title>
<path fill="none" stroke="#9a32cd" stroke-dasharray="5,2" d="M275.559,-27.1147C271.679,-30.8388 268.193,-35.1662 266,-40 260.644,-51.8039 272.176,-62.9945 282.86,-70.3357"/>
<polygon fill="#9a32cd" stroke="#9a32cd" points="277.804,-29.7999 283.267,-20.7221 273.335,-24.4117 277.804,-29.7999"/>
<text text-anchor="middle" x="283.5" y="-43.5" font-family="Helvetica,sans-Serif" font-size="10.00"> Worker</text>
</g>
<!-- Node11&#45;&gt;Node1 -->
<g id="edge29" class="edge"><title>Node11&#45;&gt;Node1</title>
<path fill="none" stroke="#9a32cd" stroke-dasharray="5,2" d="M266.292,-90.2784C242.623,-98.1012 210.165,-110.785 185,-128 159.575,-145.393 154.414,-152.59 137,-178 87.1284,-250.77 100.871,-290.601 123,-376 124.722,-382.644 128.472,-389.394 131.791,-394.483"/>
<polygon fill="#9a32cd" stroke="#9a32cd" points="267.39,-93.6019 275.85,-87.2243 265.26,-86.934 267.39,-93.6019"/>
<text text-anchor="middle" x="133" y="-222.5" font-family="Helvetica,sans-Serif" font-size="10.00"> Items</text>
</g>
<!-- Node11&#45;&gt;Node10 -->
<g id="edge17" class="edge"><title>Node11&#45;&gt;Node10</title>
<path fill="none" stroke="#9a32cd" stroke-dasharray="5,2" d="M303.514,-60.2363C304.129,-57.4951 304.657,-54.69 305,-52 306.391,-41.0904 303.488,-28.6233 301.007,-20.5481"/>
<polygon fill="#9a32cd" stroke="#9a32cd" points="300.075,-59.5497 300.912,-70.1114 306.844,-61.3331 300.075,-59.5497"/>
<text text-anchor="middle" x="333.5" y="-43.5" font-family="Helvetica,sans-Serif" font-size="10.00"> CurrentItem</text>
</g>
<!-- Node11&#45;&gt;Node11 -->
<g id="edge22" class="edge"><title>Node11&#45;&gt;Node11</title>
<path fill="none" stroke="#9a32cd" stroke-dasharray="5,2" d="M330.111,-84.6047C334.259,-83.8079 337,-82.2729 337,-80 337,-76.1719 329.224,-74.4373 320.051,-74.7961"/>
<polygon fill="#9a32cd" stroke="#9a32cd" points="329.825,-81.1155 320.051,-85.2039 330.241,-88.1031 329.825,-81.1155"/>
<text text-anchor="middle" x="349.5" y="-77.5" font-family="Helvetica,sans-Serif" font-size="10.00"> Next</text>
</g>
<!-- Node12&#45;&gt;Node11 -->
<g id="edge18" class="edge"><title>Node12&#45;&gt;Node11</title>
<path fill="none" stroke="midnightblue" d="M388.81,-129.536C366.076,-117.385 333.321,-99.8785 313.992,-89.5476"/>
<polygon fill="midnightblue" stroke="midnightblue" points="387.402,-132.752 397.871,-134.379 390.701,-126.579 387.402,-132.752"/>
</g>
<!-- Node13&#45;&gt;Node10 -->
<g id="edge26" class="edge"><title>Node13&#45;&gt;Node10</title>
<path fill="none" stroke="#9a32cd" stroke-dasharray="5,2" d="M688.304,-339.275C689.471,-320.885 691,-292.025 691,-267 691,-267 691,-267 691,-79 691,-46.4462 659.871,-50.3312 629,-40 571.986,-20.9199 388.279,-14.3462 322.069,-12.5636"/>
<polygon fill="#9a32cd" stroke="#9a32cd" points="684.797,-339.264 687.625,-349.474 691.782,-339.729 684.797,-339.264"/>
<text text-anchor="middle" x="727" y="-181.5" font-family="Helvetica,sans-Serif" font-size="10.00"> MessageQueue</text>
</g>
</g>
</svg>
