<?xml version="1.0" encoding="UTF-8" standalone="no"?>
<!DOCTYPE svg PUBLIC "-//W3C//DTD SVG 1.1//EN"
 "http://www.w3.org/Graphics/SVG/1.1/DTD/svg11.dtd">
<!-- Generated by graphviz version 2.36.0 (20140111.2315)
 -->
<!-- Title: pkgCache::VerIterator Pages: 1 -->
<svg width="1088pt" height="555pt"
 viewBox="0.00 0.00 1088.00 555.00" xmlns="http://www.w3.org/2000/svg" xmlns:xlink="http://www.w3.org/1999/xlink">
<g id="graph0" class="graph" transform="scale(1 1) rotate(0) translate(4 551)">
<title>pkgCache::VerIterator</title>
<polygon fill="white" stroke="none" points="-4,4 -4,-551 1084,-551 1084,4 -4,4"/>
<!-- Node1 -->
<g id="node1" class="node"><title>Node1</title>
<polygon fill="#bfbfbf" stroke="black" points="966.5,-257.5 966.5,-276.5 1079.5,-276.5 1079.5,-257.5 966.5,-257.5"/>
<text text-anchor="middle" x="1023" y="-264.5" font-family="Helvetica,sans-Serif" font-size="10.00">pkgCache::VerIterator</text>
</g>
<!-- Node2 -->
<g id="node2" class="node"><title>Node2</title>
<g id="a_node2"><a xlink:href="classpkgCache_1_1Iterator.xhtml" target="_top" xlink:title="Iterator\&lt; Version,\l VerIterator \&gt;">
<polygon fill="white" stroke="black" points="836,-252 836,-282 928,-282 928,-252 836,-252"/>
<text text-anchor="start" x="844" y="-270" font-family="Helvetica,sans-Serif" font-size="10.00">Iterator&lt; Version,</text>
<text text-anchor="middle" x="882" y="-259" font-family="Helvetica,sans-Serif" font-size="10.00"> VerIterator &gt;</text>
</a>
</g>
</g>
<!-- Node2&#45;&gt;Node1 -->
<g id="edge1" class="edge"><title>Node2&#45;&gt;Node1</title>
<path fill="none" stroke="midnightblue" d="M938.364,-267C947.593,-267 957.169,-267 966.403,-267"/>
<polygon fill="midnightblue" stroke="midnightblue" points="938.129,-263.5 928.129,-267 938.129,-270.5 938.129,-263.5"/>
</g>
<!-- Node3 -->
<g id="node3" class="node"><title>Node3</title>
<polygon fill="white" stroke="#bfbfbf" points="648.5,-296 648.5,-326 767.5,-326 767.5,-296 648.5,-296"/>
<text text-anchor="start" x="656.5" y="-314" font-family="Helvetica,sans-Serif" font-size="10.00">iterator&lt; std::forward</text>
<text text-anchor="middle" x="708" y="-303" font-family="Helvetica,sans-Serif" font-size="10.00">_iterator_tag, Version &gt;</text>
</g>
<!-- Node3&#45;&gt;Node2 -->
<g id="edge2" class="edge"><title>Node3&#45;&gt;Node2</title>
<path fill="none" stroke="midnightblue" d="M777.525,-293.47C797.141,-288.452 818.023,-283.11 835.854,-278.549"/>
<polygon fill="midnightblue" stroke="midnightblue" points="776.532,-290.112 767.712,-295.981 778.267,-296.893 776.532,-290.112"/>
</g>
<!-- Node4 -->
<g id="node4" class="node"><title>Node4</title>
<g id="a_node4"><a xlink:href="classpkgCache.xhtml" target="_top" xlink:title="pkgCache">
<polygon fill="white" stroke="black" points="677.5,-257.5 677.5,-276.5 738.5,-276.5 738.5,-257.5 677.5,-257.5"/>
<text text-anchor="middle" x="708" y="-264.5" font-family="Helvetica,sans-Serif" font-size="10.00">pkgCache</text>
</a>
</g>
</g>
<!-- Node4&#45;&gt;Node2 -->
<g id="edge3" class="edge"><title>Node4&#45;&gt;Node2</title>
<path fill="none" stroke="#9a32cd" stroke-dasharray="5,2" d="M748.801,-267C774.752,-267 808.685,-267 835.674,-267"/>
<polygon fill="#9a32cd" stroke="#9a32cd" points="748.568,-263.5 738.568,-267 748.568,-270.5 748.568,-263.5"/>
<text text-anchor="middle" x="802" y="-270" font-family="Helvetica,sans-Serif" font-size="10.00"> Owner</text>
</g>
<!-- Node5 -->
<g id="node5" class="node"><title>Node5</title>
<g id="a_node5"><a xlink:href="structpkgCache_1_1Dependency.xhtml" target="_top" xlink:title="information for a single dependency record ">
<polygon fill="white" stroke="black" points="464.5,-485.5 464.5,-504.5 535.5,-504.5 535.5,-485.5 464.5,-485.5"/>
<text text-anchor="middle" x="500" y="-492.5" font-family="Helvetica,sans-Serif" font-size="10.00">Dependency</text>
</a>
</g>
</g>
<!-- Node5&#45;&gt;Node4 -->
<g id="edge4" class="edge"><title>Node5&#45;&gt;Node4</title>
<path fill="none" stroke="#9a32cd" stroke-dasharray="5,2" d="M545.706,-499.949C573.963,-500.412 608.991,-495.601 630,-473 658.424,-442.423 621.827,-318.525 648,-286 655.151,-277.113 666.496,-272.328 677.335,-269.772"/>
<polygon fill="#9a32cd" stroke="#9a32cd" points="545.767,-496.449 535.64,-499.563 545.499,-503.444 545.767,-496.449"/>
<text text-anchor="middle" x="602" y="-502" font-family="Helvetica,sans-Serif" font-size="10.00"> DepP</text>
</g>
<!-- Node6 -->
<g id="node6" class="node"><title>Node6</title>
<g id="a_node6"><a xlink:href="structpkgCache_1_1Description.xhtml" target="_top" xlink:title="datamember of a linked list of available description for a version ">
<polygon fill="white" stroke="black" points="467,-447.5 467,-466.5 533,-466.5 533,-447.5 467,-447.5"/>
<text text-anchor="middle" x="500" y="-454.5" font-family="Helvetica,sans-Serif" font-size="10.00">Description</text>
</a>
</g>
</g>
<!-- Node6&#45;&gt;Node4 -->
<g id="edge5" class="edge"><title>Node6&#45;&gt;Node4</title>
<path fill="none" stroke="#9a32cd" stroke-dasharray="5,2" d="M543.411,-460.633C571.991,-460.587 608.302,-455.243 630,-432 674.614,-384.208 606.335,-336.384 648,-286 655.269,-277.21 666.634,-272.441 677.457,-269.871"/>
<polygon fill="#9a32cd" stroke="#9a32cd" points="543.34,-457.131 533.273,-460.433 543.202,-464.129 543.34,-457.131"/>
<text text-anchor="middle" x="602" y="-462" font-family="Helvetica,sans-Serif" font-size="10.00"> DescP</text>
</g>
<!-- Node7 -->
<g id="node7" class="node"><title>Node7</title>
<g id="a_node7"><a xlink:href="structpkgCache_1_1Header.xhtml" target="_top" xlink:title="Header">
<polygon fill="white" stroke="black" points="476,-409.5 476,-428.5 524,-428.5 524,-409.5 476,-409.5"/>
<text text-anchor="middle" x="500" y="-416.5" font-family="Helvetica,sans-Serif" font-size="10.00">Header</text>
</a>
</g>
</g>
<!-- Node7&#45;&gt;Node4 -->
<g id="edge6" class="edge"><title>Node7&#45;&gt;Node4</title>
<path fill="none" stroke="#9a32cd" stroke-dasharray="5,2" d="M534.229,-420.762C563.642,-420.393 605.583,-414.811 630,-389 661.936,-355.241 617.493,-321.056 648,-286 655.418,-277.476 666.676,-272.749 677.376,-270.137"/>
<polygon fill="#9a32cd" stroke="#9a32cd" points="534.04,-417.261 524.015,-420.691 533.99,-424.261 534.04,-417.261"/>
<text text-anchor="middle" x="602" y="-420" font-family="Helvetica,sans-Serif" font-size="10.00"> HeaderP</text>
</g>
<!-- Node8 -->
<g id="node8" class="node"><title>Node8</title>
<g id="a_node8"><a xlink:href="structDynamicMMap_1_1Pool.xhtml" target="_top" xlink:title="Pool">
<polygon fill="white" stroke="black" points="318,-409.5 318,-428.5 354,-428.5 354,-409.5 318,-409.5"/>
<text text-anchor="middle" x="336" y="-416.5" font-family="Helvetica,sans-Serif" font-size="10.00">Pool</text>
</a>
</g>
</g>
<!-- Node8&#45;&gt;Node7 -->
<g id="edge7" class="edge"><title>Node8&#45;&gt;Node7</title>
<path fill="none" stroke="#9a32cd" stroke-dasharray="5,2" d="M364.236,-419C395.589,-419 446.538,-419 475.988,-419"/>
<polygon fill="#9a32cd" stroke="#9a32cd" points="364.031,-415.5 354.031,-419 364.031,-422.5 364.031,-415.5"/>
<text text-anchor="middle" x="401" y="-422" font-family="Helvetica,sans-Serif" font-size="10.00"> Pools</text>
</g>
<!-- Node9 -->
<g id="node9" class="node"><title>Node9</title>
<g id="a_node9"><a xlink:href="structpkgCache_1_1PackageFile.xhtml" target="_top" xlink:title="stores information about the files used to generate the cache ">
<polygon fill="white" stroke="black" points="464.5,-371.5 464.5,-390.5 535.5,-390.5 535.5,-371.5 464.5,-371.5"/>
<text text-anchor="middle" x="500" y="-378.5" font-family="Helvetica,sans-Serif" font-size="10.00">PackageFile</text>
</a>
</g>
</g>
<!-- Node9&#45;&gt;Node4 -->
<g id="edge8" class="edge"><title>Node9&#45;&gt;Node4</title>
<path fill="none" stroke="#9a32cd" stroke-dasharray="5,2" d="M545.844,-379.086C573.461,-375.595 607.724,-366.749 630,-345 649.617,-325.848 628.765,-305.535 648,-286 655.777,-278.102 666.847,-273.484 677.301,-270.785"/>
<polygon fill="#9a32cd" stroke="#9a32cd" points="545.195,-375.636 535.624,-380.178 545.939,-382.596 545.195,-375.636"/>
<text text-anchor="middle" x="602" y="-377" font-family="Helvetica,sans-Serif" font-size="10.00"> PkgFileP</text>
</g>
<!-- Node10 -->
<g id="node10" class="node"><title>Node10</title>
<g id="a_node10"><a xlink:href="structpkgCache_1_1DescFile.xhtml" target="_top" xlink:title="associates a description with a Translation file ">
<polygon fill="white" stroke="black" points="472,-333.5 472,-352.5 528,-352.5 528,-333.5 472,-333.5"/>
<text text-anchor="middle" x="500" y="-340.5" font-family="Helvetica,sans-Serif" font-size="10.00">DescFile</text>
</a>
</g>
</g>
<!-- Node10&#45;&gt;Node4 -->
<g id="edge9" class="edge"><title>Node10&#45;&gt;Node4</title>
<path fill="none" stroke="#9a32cd" stroke-dasharray="5,2" d="M537.958,-338.568C565.114,-333.972 602.003,-324.833 630,-307 640.368,-300.396 637.764,-292.807 648,-286 656.781,-280.16 667.486,-276.007 677.354,-273.105"/>
<polygon fill="#9a32cd" stroke="#9a32cd" points="537.404,-335.112 528.065,-340.115 538.486,-342.028 537.404,-335.112"/>
<text text-anchor="middle" x="602" y="-333" font-family="Helvetica,sans-Serif" font-size="10.00"> DescFileP</text>
</g>
<!-- Node11 -->
<g id="node11" class="node"><title>Node11</title>
<g id="a_node11"><a xlink:href="structpkgCache_1_1StringItem.xhtml" target="_top" xlink:title="used for generating single instances of strings ">
<polygon fill="white" stroke="black" points="469,-295.5 469,-314.5 531,-314.5 531,-295.5 469,-295.5"/>
<text text-anchor="middle" x="500" y="-302.5" font-family="Helvetica,sans-Serif" font-size="10.00">StringItem</text>
</a>
</g>
</g>
<!-- Node11&#45;&gt;Node4 -->
<g id="edge10" class="edge"><title>Node11&#45;&gt;Node4</title>
<path fill="none" stroke="#9a32cd" stroke-dasharray="5,2" d="M541.035,-298.031C566.522,-293.553 600.222,-287.555 630,-282 645.664,-279.078 663.094,-275.694 677.404,-272.88"/>
<polygon fill="#9a32cd" stroke="#9a32cd" points="540.246,-294.616 531,-299.791 541.455,-301.511 540.246,-294.616"/>
<text text-anchor="middle" x="602" y="-295" font-family="Helvetica,sans-Serif" font-size="10.00"> StringItemP</text>
</g>
<!-- Node12 -->
<g id="node12" class="node"><title>Node12</title>
<g id="a_node12"><a xlink:href="structpkgCache_1_1Provides.xhtml" target="_top" xlink:title="handles virtual packages ">
<polygon fill="white" stroke="black" points="472.5,-257.5 472.5,-276.5 527.5,-276.5 527.5,-257.5 472.5,-257.5"/>
<text text-anchor="middle" x="500" y="-264.5" font-family="Helvetica,sans-Serif" font-size="10.00">Provides</text>
</a>
</g>
</g>
<!-- Node12&#45;&gt;Node4 -->
<g id="edge11" class="edge"><title>Node12&#45;&gt;Node4</title>
<path fill="none" stroke="#9a32cd" stroke-dasharray="5,2" d="M537.599,-267C577.431,-267 640.353,-267 677.261,-267"/>
<polygon fill="#9a32cd" stroke="#9a32cd" points="537.509,-263.5 527.509,-267 537.509,-270.5 537.509,-263.5"/>
<text text-anchor="middle" x="602" y="-270" font-family="Helvetica,sans-Serif" font-size="10.00"> ProvideP</text>
</g>
<!-- Node13 -->
<g id="node13" class="node"><title>Node13</title>
<g id="a_node13"><a xlink:title="STL class. ">
<polygon fill="white" stroke="#bfbfbf" points="144.5,-200.5 144.5,-219.5 185.5,-219.5 185.5,-200.5 144.5,-200.5"/>
<text text-anchor="middle" x="165" y="-207.5" font-family="Helvetica,sans-Serif" font-size="10.00">string</text>
</a>
</g>
</g>
<!-- Node13&#45;&gt;Node4 -->
<g id="edge12" class="edge"><title>Node13&#45;&gt;Node4</title>
<path fill="none" stroke="#9a32cd" stroke-dasharray="5,2" d="M195.697,-214.016C198.502,-214.362 201.303,-214.696 204,-215 360.143,-232.586 399.808,-230.856 556,-248 598.154,-252.627 646.805,-258.92 677.236,-262.972"/>
<polygon fill="#9a32cd" stroke="#9a32cd" points="196.07,-210.535 185.706,-212.735 195.179,-217.478 196.07,-210.535"/>
<text text-anchor="middle" x="401" y="-239" font-family="Helvetica,sans-Serif" font-size="10.00"> CacheFile</text>
</g>
<!-- Node21 -->
<g id="node21" class="node"><title>Node21</title>
<g id="a_node21"><a xlink:href="classFileFd.xhtml" target="_top" xlink:title="FileFd">
<polygon fill="white" stroke="black" points="314,-181.5 314,-200.5 358,-200.5 358,-181.5 314,-181.5"/>
<text text-anchor="middle" x="336" y="-188.5" font-family="Helvetica,sans-Serif" font-size="10.00">FileFd</text>
</a>
</g>
</g>
<!-- Node13&#45;&gt;Node21 -->
<g id="edge22" class="edge"><title>Node13&#45;&gt;Node21</title>
<path fill="none" stroke="#9a32cd" stroke-dasharray="5,2" d="M192.707,-196.457C196.422,-195.048 200.251,-193.83 204,-193 241.975,-184.589 287.668,-186.522 313.824,-188.733"/>
<polygon fill="#9a32cd" stroke="#9a32cd" points="191.089,-193.342 183.274,-200.496 193.844,-199.777 191.089,-193.342"/>
<text text-anchor="middle" x="250" y="-207" font-family="Helvetica,sans-Serif" font-size="10.00"> TemporaryFileName</text>
<text text-anchor="middle" x="250" y="-196" font-family="Helvetica,sans-Serif" font-size="10.00">FileName</text>
</g>
<!-- Node14 -->
<g id="node14" class="node"><title>Node14</title>
<g id="a_node14"><a xlink:title="STL class. ">
<polygon fill="white" stroke="#bfbfbf" points="0,-200.5 0,-219.5 106,-219.5 106,-200.5 0,-200.5"/>
<text text-anchor="middle" x="53" y="-207.5" font-family="Helvetica,sans-Serif" font-size="10.00">basic_string&lt; char &gt;</text>
</a>
</g>
</g>
<!-- Node14&#45;&gt;Node13 -->
<g id="edge13" class="edge"><title>Node14&#45;&gt;Node13</title>
<path fill="none" stroke="midnightblue" d="M116.338,-210C126.515,-210 136.35,-210 144.416,-210"/>
<polygon fill="midnightblue" stroke="midnightblue" points="116.101,-206.5 106.101,-210 116.101,-213.5 116.101,-206.5"/>
</g>
<!-- Node15 -->
<g id="node15" class="node"><title>Node15</title>
<g id="a_node15"><a xlink:href="structpkgCache_1_1Group.xhtml" target="_top" xlink:title="groups architecture depending packages together ">
<polygon fill="white" stroke="black" points="478.5,-143.5 478.5,-162.5 521.5,-162.5 521.5,-143.5 478.5,-143.5"/>
<text text-anchor="middle" x="500" y="-150.5" font-family="Helvetica,sans-Serif" font-size="10.00">Group</text>
</a>
</g>
</g>
<!-- Node15&#45;&gt;Node4 -->
<g id="edge14" class="edge"><title>Node15&#45;&gt;Node4</title>
<path fill="none" stroke="#9a32cd" stroke-dasharray="5,2" d="M531.857,-153.051C559.312,-154.365 599.694,-159.506 630,-177 664.55,-196.943 690.955,-238.345 701.718,-257.23"/>
<polygon fill="#9a32cd" stroke="#9a32cd" points="531.772,-149.547 521.661,-152.71 531.538,-156.543 531.772,-149.547"/>
<text text-anchor="middle" x="602" y="-180" font-family="Helvetica,sans-Serif" font-size="10.00"> GrpP</text>
</g>
<!-- Node16 -->
<g id="node16" class="node"><title>Node16</title>
<g id="a_node16"><a xlink:href="classpkgVersioningSystem.xhtml" target="_top" xlink:title="pkgVersioningSystem">
<polygon fill="white" stroke="black" points="444,-76.5 444,-95.5 556,-95.5 556,-76.5 444,-76.5"/>
<text text-anchor="middle" x="500" y="-83.5" font-family="Helvetica,sans-Serif" font-size="10.00">pkgVersioningSystem</text>
</a>
</g>
</g>
<!-- Node16&#45;&gt;Node4 -->
<g id="edge15" class="edge"><title>Node16&#45;&gt;Node4</title>
<path fill="none" stroke="#9a32cd" stroke-dasharray="5,2" d="M545.395,-98.6889C572.129,-107.988 605.602,-122.731 630,-144 668.36,-177.442 694.125,-234.69 703.288,-257.354"/>
<polygon fill="#9a32cd" stroke="#9a32cd" points="546.473,-95.3591 535.879,-95.5074 544.253,-101.998 546.473,-95.3591"/>
<text text-anchor="middle" x="602" y="-147" font-family="Helvetica,sans-Serif" font-size="10.00"> VS</text>
</g>
<!-- Node16&#45;&gt;Node16 -->
<g id="edge16" class="edge"><title>Node16&#45;&gt;Node16</title>
<path fill="none" stroke="#9a32cd" stroke-dasharray="5,2" d="M481.853,-105.4C483.065,-110.315 489.114,-114 500,-114 517.418,-114 522.453,-104.565 515.105,-95.7571"/>
<polygon fill="#9a32cd" stroke="#9a32cd" points="485.224,-106.347 484.895,-95.7571 478.548,-104.24 485.224,-106.347"/>
<text text-anchor="middle" x="500" y="-117" font-family="Helvetica,sans-Serif" font-size="10.00"> GlobalList</text>
</g>
<!-- Node17 -->
<g id="node17" class="node"><title>Node17</title>
<g id="a_node17"><a xlink:href="structpkgCache_1_1Version.xhtml" target="_top" xlink:title="information for a single version of a package ">
<polygon fill="white" stroke="black" points="475,-0.5 475,-19.5 525,-19.5 525,-0.5 475,-0.5"/>
<text text-anchor="middle" x="500" y="-7.5" font-family="Helvetica,sans-Serif" font-size="10.00">Version</text>
</a>
</g>
</g>
<!-- Node17&#45;&gt;Node2 -->
<g id="edge23" class="edge"><title>Node17&#45;&gt;Node2</title>
<path fill="none" stroke="#9a32cd" stroke-dasharray="5,2" d="M535.189,-7.79989C562.17,-7.42251 600.112,-9.97861 630,-24 745.585,-78.2254 840.793,-207.573 870.985,-251.839"/>
<polygon fill="#9a32cd" stroke="#9a32cd" points="534.965,-4.3047 525.068,-8.08529 535.163,-11.3019 534.965,-4.3047"/>
<text text-anchor="middle" x="708" y="-127" font-family="Helvetica,sans-Serif" font-size="10.00"> S</text>
</g>
<!-- Node17&#45;&gt;Node4 -->
<g id="edge17" class="edge"><title>Node17&#45;&gt;Node4</title>
<path fill="none" stroke="#9a32cd" stroke-dasharray="5,2" d="M535.01,-16.9294C568.421,-24.3563 616.322,-36.8625 630,-50 692.274,-109.813 704.278,-223.177 706.509,-257.143"/>
<polygon fill="#9a32cd" stroke="#9a32cd" points="535.675,-13.4922 525.16,-14.7924 534.19,-20.3331 535.675,-13.4922"/>
<text text-anchor="middle" x="602" y="-53" font-family="Helvetica,sans-Serif" font-size="10.00"> VerP</text>
</g>
<!-- Node18 -->
<g id="node18" class="node"><title>Node18</title>
<g id="a_node18"><a xlink:href="structpkgCache_1_1VerFile.xhtml" target="_top" xlink:title="associates a version with a PackageFile ">
<polygon fill="white" stroke="black" points="476.5,-38.5 476.5,-57.5 523.5,-57.5 523.5,-38.5 476.5,-38.5"/>
<text text-anchor="middle" x="500" y="-45.5" font-family="Helvetica,sans-Serif" font-size="10.00">VerFile</text>
</a>
</g>
</g>
<!-- Node18&#45;&gt;Node4 -->
<g id="edge18" class="edge"><title>Node18&#45;&gt;Node4</title>
<path fill="none" stroke="#9a32cd" stroke-dasharray="5,2" d="M533.876,-52.7972C562.509,-58.5439 603.482,-70.7657 630,-96 679.767,-143.358 699.805,-228.816 705.312,-257.396"/>
<polygon fill="#9a32cd" stroke="#9a32cd" points="534.404,-49.3357 523.935,-50.9608 533.133,-56.2192 534.404,-49.3357"/>
<text text-anchor="middle" x="602" y="-99" font-family="Helvetica,sans-Serif" font-size="10.00"> VerFileP</text>
</g>
<!-- Node19 -->
<g id="node19" class="node"><title>Node19</title>
<g id="a_node19"><a xlink:href="structpkgCache_1_1Package.xhtml" target="_top" xlink:title="contains information for a single unique package ">
<polygon fill="white" stroke="black" points="472.5,-523.5 472.5,-542.5 527.5,-542.5 527.5,-523.5 472.5,-523.5"/>
<text text-anchor="middle" x="500" y="-530.5" font-family="Helvetica,sans-Serif" font-size="10.00">Package</text>
</a>
</g>
</g>
<!-- Node19&#45;&gt;Node4 -->
<g id="edge19" class="edge"><title>Node19&#45;&gt;Node4</title>
<path fill="none" stroke="#9a32cd" stroke-dasharray="5,2" d="M537.953,-537.782C567.344,-539.321 607.194,-535.934 630,-511 663.854,-473.988 616.87,-325.331 648,-286 655.079,-277.056 666.411,-272.261 677.261,-269.713"/>
<polygon fill="#9a32cd" stroke="#9a32cd" points="537.879,-534.267 527.649,-537.023 537.364,-541.249 537.879,-534.267"/>
<text text-anchor="middle" x="602" y="-539" font-family="Helvetica,sans-Serif" font-size="10.00"> PkgP</text>
</g>
<!-- Node20 -->
<g id="node20" class="node"><title>Node20</title>
<g id="a_node20"><a xlink:href="classMMap.xhtml" target="_top" xlink:title="MMap">
<polygon fill="white" stroke="black" points="478,-181.5 478,-200.5 522,-200.5 522,-181.5 478,-181.5"/>
<text text-anchor="middle" x="500" y="-188.5" font-family="Helvetica,sans-Serif" font-size="10.00">MMap</text>
</a>
</g>
</g>
<!-- Node20&#45;&gt;Node4 -->
<g id="edge20" class="edge"><title>Node20&#45;&gt;Node4</title>
<path fill="none" stroke="#9a32cd" stroke-dasharray="5,2" d="M532.007,-189.203C558.925,-188.773 598.428,-190.908 630,-204 659.038,-216.041 685.706,-242.803 698.697,-257.269"/>
<polygon fill="#9a32cd" stroke="#9a32cd" points="531.896,-185.705 522.001,-189.49 532.097,-192.702 531.896,-185.705"/>
<text text-anchor="middle" x="602" y="-207" font-family="Helvetica,sans-Serif" font-size="10.00"> Map</text>
</g>
<!-- Node21&#45;&gt;Node20 -->
<g id="edge21" class="edge"><title>Node21&#45;&gt;Node20</title>
<path fill="none" stroke="#9a32cd" stroke-dasharray="5,2" d="M368.403,-191C400.64,-191 449.92,-191 477.816,-191"/>
<polygon fill="#9a32cd" stroke="#9a32cd" points="368.179,-187.5 358.179,-191 368.179,-194.5 368.179,-187.5"/>
<text text-anchor="middle" x="401" y="-194" font-family="Helvetica,sans-Serif" font-size="10.00"> SyncToFd</text>
</g>
</g>
</svg>
