<?xml version="1.0" encoding="UTF-8" standalone="no"?>
<!DOCTYPE svg PUBLIC "-//W3C//DTD SVG 1.1//EN"
 "http://www.w3.org/Graphics/SVG/1.1/DTD/svg11.dtd">
<!-- Generated by graphviz version 2.36.0 (20140111.2315)
 -->
<!-- Title: IndexTarget Pages: 1 -->
<svg width="113pt" height="186pt"
 viewBox="0.00 0.00 113.00 186.00" xmlns="http://www.w3.org/2000/svg" xmlns:xlink="http://www.w3.org/1999/xlink">
<g id="graph0" class="graph" transform="scale(1 1) rotate(0) translate(4 182)">
<title>IndexTarget</title>
<polygon fill="white" stroke="none" points="-4,4 -4,-182 109,-182 109,4 -4,4"/>
<!-- Node1 -->
<g id="node1" class="node"><title>Node1</title>
<polygon fill="#bfbfbf" stroke="black" points="18,-0.5 18,-19.5 86,-19.5 86,-0.5 18,-0.5"/>
<text text-anchor="middle" x="52" y="-7.5" font-family="Helvetica,sans-Serif" font-size="10.00">IndexTarget</text>
</g>
<!-- Node2 -->
<g id="node2" class="node"><title>Node2</title>
<g id="a_node2"><a xlink:title="STL class. ">
<polygon fill="white" stroke="#bfbfbf" points="31.5,-100.5 31.5,-119.5 72.5,-119.5 72.5,-100.5 31.5,-100.5"/>
<text text-anchor="middle" x="52" y="-107.5" font-family="Helvetica,sans-Serif" font-size="10.00">string</text>
</a>
</g>
</g>
<!-- Node2&#45;&gt;Node1 -->
<g id="edge1" class="edge"><title>Node2&#45;&gt;Node1</title>
<path fill="none" stroke="#9a32cd" stroke-dasharray="5,2" d="M52,-90.2203C52,-68.9514 52,-35.2197 52,-19.5374"/>
<polygon fill="#9a32cd" stroke="#9a32cd" points="48.5001,-90.3031 52,-100.303 55.5001,-90.3032 48.5001,-90.3031"/>
<text text-anchor="middle" x="78.5" y="-74" font-family="Helvetica,sans-Serif" font-size="10.00"> Description</text>
<text text-anchor="middle" x="78.5" y="-63" font-family="Helvetica,sans-Serif" font-size="10.00">URI</text>
<text text-anchor="middle" x="78.5" y="-52" font-family="Helvetica,sans-Serif" font-size="10.00">ShortDesc</text>
<text text-anchor="middle" x="78.5" y="-41" font-family="Helvetica,sans-Serif" font-size="10.00">MetaKey</text>
</g>
<!-- Node3 -->
<g id="node3" class="node"><title>Node3</title>
<g id="a_node3"><a xlink:title="STL class. ">
<polygon fill="white" stroke="#bfbfbf" points="-1,-158.5 -1,-177.5 105,-177.5 105,-158.5 -1,-158.5"/>
<text text-anchor="middle" x="52" y="-165.5" font-family="Helvetica,sans-Serif" font-size="10.00">basic_string&lt; char &gt;</text>
</a>
</g>
</g>
<!-- Node3&#45;&gt;Node2 -->
<g id="edge2" class="edge"><title>Node3&#45;&gt;Node2</title>
<path fill="none" stroke="midnightblue" d="M52,-147.953C52,-138.287 52,-127.031 52,-119.505"/>
<polygon fill="midnightblue" stroke="midnightblue" points="48.5001,-148.25 52,-158.25 55.5001,-148.25 48.5001,-148.25"/>
</g>
</g>
</svg>
