<?xml version="1.0" encoding="UTF-8" standalone="no"?>
<!DOCTYPE svg PUBLIC "-//W3C//DTD SVG 1.1//EN"
 "http://www.w3.org/Graphics/SVG/1.1/DTD/svg11.dtd">
<!-- Generated by graphviz version 2.36.0 (20140111.2315)
 -->
<!-- Title: OptionalSubIndexTarget Pages: 1 -->
<svg width="130pt" height="302pt"
 viewBox="0.00 0.00 130.00 302.00" xmlns="http://www.w3.org/2000/svg" xmlns:xlink="http://www.w3.org/1999/xlink">
<g id="graph0" class="graph" transform="scale(1 1) rotate(0) translate(4 298)">
<title>OptionalSubIndexTarget</title>
<polygon fill="white" stroke="none" points="-4,4 -4,-298 126,-298 126,4 -4,4"/>
<!-- Node1 -->
<g id="node1" class="node"><title>Node1</title>
<polygon fill="#bfbfbf" stroke="black" points="0,-0.5 0,-19.5 122,-19.5 122,-0.5 0,-0.5"/>
<text text-anchor="middle" x="61" y="-7.5" font-family="Helvetica,sans-Serif" font-size="10.00">OptionalSubIndexTarget</text>
</g>
<!-- Node2 -->
<g id="node2" class="node"><title>Node2</title>
<g id="a_node2"><a xlink:href="classOptionalIndexTarget.xhtml" target="_top" xlink:title="Information about an optional index file. ">
<polygon fill="white" stroke="black" points="9,-58.5 9,-77.5 113,-77.5 113,-58.5 9,-58.5"/>
<text text-anchor="middle" x="61" y="-65.5" font-family="Helvetica,sans-Serif" font-size="10.00">OptionalIndexTarget</text>
</a>
</g>
</g>
<!-- Node2&#45;&gt;Node1 -->
<g id="edge1" class="edge"><title>Node2&#45;&gt;Node1</title>
<path fill="none" stroke="midnightblue" d="M61,-47.953C61,-38.2875 61,-27.0312 61,-19.5052"/>
<polygon fill="midnightblue" stroke="midnightblue" points="57.5001,-48.25 61,-58.25 64.5001,-48.25 57.5001,-48.25"/>
</g>
<!-- Node3 -->
<g id="node3" class="node"><title>Node3</title>
<g id="a_node3"><a xlink:href="classIndexTarget.xhtml" target="_top" xlink:title="Information about an index file. ">
<polygon fill="white" stroke="black" points="27,-116.5 27,-135.5 95,-135.5 95,-116.5 27,-116.5"/>
<text text-anchor="middle" x="61" y="-123.5" font-family="Helvetica,sans-Serif" font-size="10.00">IndexTarget</text>
</a>
</g>
</g>
<!-- Node3&#45;&gt;Node2 -->
<g id="edge2" class="edge"><title>Node3&#45;&gt;Node2</title>
<path fill="none" stroke="midnightblue" d="M61,-105.953C61,-96.2875 61,-85.0312 61,-77.5052"/>
<polygon fill="midnightblue" stroke="midnightblue" points="57.5001,-106.25 61,-116.25 64.5001,-106.25 57.5001,-106.25"/>
</g>
<!-- Node4 -->
<g id="node4" class="node"><title>Node4</title>
<g id="a_node4"><a xlink:title="STL class. ">
<polygon fill="white" stroke="#bfbfbf" points="40.5,-216.5 40.5,-235.5 81.5,-235.5 81.5,-216.5 40.5,-216.5"/>
<text text-anchor="middle" x="61" y="-223.5" font-family="Helvetica,sans-Serif" font-size="10.00">string</text>
</a>
</g>
</g>
<!-- Node4&#45;&gt;Node3 -->
<g id="edge3" class="edge"><title>Node4&#45;&gt;Node3</title>
<path fill="none" stroke="#9a32cd" stroke-dasharray="5,2" d="M61,-206.22C61,-184.951 61,-151.22 61,-135.537"/>
<polygon fill="#9a32cd" stroke="#9a32cd" points="57.5001,-206.303 61,-216.303 64.5001,-206.303 57.5001,-206.303"/>
<text text-anchor="middle" x="87.5" y="-190" font-family="Helvetica,sans-Serif" font-size="10.00"> Description</text>
<text text-anchor="middle" x="87.5" y="-179" font-family="Helvetica,sans-Serif" font-size="10.00">URI</text>
<text text-anchor="middle" x="87.5" y="-168" font-family="Helvetica,sans-Serif" font-size="10.00">ShortDesc</text>
<text text-anchor="middle" x="87.5" y="-157" font-family="Helvetica,sans-Serif" font-size="10.00">MetaKey</text>
</g>
<!-- Node5 -->
<g id="node5" class="node"><title>Node5</title>
<g id="a_node5"><a xlink:title="STL class. ">
<polygon fill="white" stroke="#bfbfbf" points="8,-274.5 8,-293.5 114,-293.5 114,-274.5 8,-274.5"/>
<text text-anchor="middle" x="61" y="-281.5" font-family="Helvetica,sans-Serif" font-size="10.00">basic_string&lt; char &gt;</text>
</a>
</g>
</g>
<!-- Node5&#45;&gt;Node4 -->
<g id="edge4" class="edge"><title>Node5&#45;&gt;Node4</title>
<path fill="none" stroke="midnightblue" d="M61,-263.953C61,-254.287 61,-243.031 61,-235.505"/>
<polygon fill="midnightblue" stroke="midnightblue" points="57.5001,-264.25 61,-274.25 64.5001,-264.25 57.5001,-264.25"/>
</g>
</g>
</svg>
