<?xml version="1.0" encoding="UTF-8" standalone="no"?>
<!DOCTYPE svg PUBLIC "-//W3C//DTD SVG 1.1//EN"
 "http://www.w3.org/Graphics/SVG/1.1/DTD/svg11.dtd">
<!-- Generated by graphviz version 2.36.0 (20140111.2315)
 -->
<!-- Title: debSLTypeDebSrc Pages: 1 -->
<svg width="141pt" height="144pt"
 viewBox="0.00 0.00 141.00 144.00" xmlns="http://www.w3.org/2000/svg" xmlns:xlink="http://www.w3.org/1999/xlink">
<g id="graph0" class="graph" transform="scale(1 1) rotate(0) translate(4 140)">
<title>debSLTypeDebSrc</title>
<polygon fill="white" stroke="none" points="-4,4 -4,-140 137,-140 137,4 -4,4"/>
<!-- Node1 -->
<g id="node1" class="node"><title>Node1</title>
<polygon fill="#bfbfbf" stroke="black" points="-0.5,-0.5 -0.5,-19.5 98.5,-19.5 98.5,-0.5 -0.5,-0.5"/>
<text text-anchor="middle" x="49" y="-7.5" font-family="Helvetica,sans-Serif" font-size="10.00">debSLTypeDebSrc</text>
</g>
<!-- Node2 -->
<g id="node2" class="node"><title>Node2</title>
<g id="a_node2"><a xlink:href="classdebSLTypeDebian.xhtml" target="_top" xlink:title="debSLTypeDebian">
<polygon fill="white" stroke="black" points="0.5,-58.5 0.5,-77.5 97.5,-77.5 97.5,-58.5 0.5,-58.5"/>
<text text-anchor="middle" x="49" y="-65.5" font-family="Helvetica,sans-Serif" font-size="10.00">debSLTypeDebian</text>
</a>
</g>
</g>
<!-- Node2&#45;&gt;Node1 -->
<g id="edge1" class="edge"><title>Node2&#45;&gt;Node1</title>
<path fill="none" stroke="midnightblue" d="M49,-47.953C49,-38.2875 49,-27.0312 49,-19.5052"/>
<polygon fill="midnightblue" stroke="midnightblue" points="45.5001,-48.25 49,-58.25 52.5001,-48.25 45.5001,-48.25"/>
</g>
<!-- Node3 -->
<g id="node3" class="node"><title>Node3</title>
<g id="a_node3"><a xlink:href="classpkgSourceList_1_1Type.xhtml" target="_top" xlink:title="Type">
<polygon fill="white" stroke="black" points="30,-116.5 30,-135.5 68,-135.5 68,-116.5 30,-116.5"/>
<text text-anchor="middle" x="49" y="-123.5" font-family="Helvetica,sans-Serif" font-size="10.00">Type</text>
</a>
</g>
</g>
<!-- Node3&#45;&gt;Node2 -->
<g id="edge2" class="edge"><title>Node3&#45;&gt;Node2</title>
<path fill="none" stroke="midnightblue" d="M49,-105.953C49,-96.2875 49,-85.0312 49,-77.5052"/>
<polygon fill="midnightblue" stroke="midnightblue" points="45.5001,-106.25 49,-116.25 52.5001,-106.25 45.5001,-106.25"/>
</g>
<!-- Node3&#45;&gt;Node3 -->
<g id="edge3" class="edge"><title>Node3&#45;&gt;Node3</title>
<path fill="none" stroke="#9a32cd" stroke-dasharray="5,2" d="M78.2501,-130.821C82.8553,-130.106 86,-128.499 86,-126 86,-121.898 77.5314,-120.2 68.0372,-120.905"/>
<polygon fill="#9a32cd" stroke="#9a32cd" points="77.9397,-127.328 68.0372,-131.095 78.1276,-134.325 77.9397,-127.328"/>
<text text-anchor="middle" x="109.5" y="-123.5" font-family="Helvetica,sans-Serif" font-size="10.00"> GlobalList</text>
</g>
</g>
</svg>
