<?xml version="1.0" encoding="UTF-8" standalone="no"?>
<!DOCTYPE svg PUBLIC "-//W3C//DTD SVG 1.1//EN"
 "http://www.w3.org/Graphics/SVG/1.1/DTD/svg11.dtd">
<!-- Generated by graphviz version 2.36.0 (20140111.2315)
 -->
<!-- Title: pkgCache::DescFileIterator Pages: 1 -->
<svg width="1124pt" height="620pt"
 viewBox="0.00 0.00 1124.00 620.00" xmlns="http://www.w3.org/2000/svg" xmlns:xlink="http://www.w3.org/1999/xlink">
<g id="graph0" class="graph" transform="scale(1 1) rotate(0) translate(4 616)">
<title>pkgCache::DescFileIterator</title>
<polygon fill="white" stroke="none" points="-4,4 -4,-616 1120,-616 1120,4 -4,4"/>
<!-- Node1 -->
<g id="node1" class="node"><title>Node1</title>
<polygon fill="#bfbfbf" stroke="black" points="978.5,-542.5 978.5,-561.5 1115.5,-561.5 1115.5,-542.5 978.5,-542.5"/>
<text text-anchor="middle" x="1047" y="-549.5" font-family="Helvetica,sans-Serif" font-size="10.00">pkgCache::DescFileIterator</text>
</g>
<!-- Node2 -->
<g id="node2" class="node"><title>Node2</title>
<g id="a_node2"><a xlink:href="classpkgCache_1_1Iterator.xhtml" target="_top" xlink:title="Iterator\&lt; DescFile,\l DescFileIterator \&gt;">
<polygon fill="white" stroke="black" points="842,-537 842,-567 940,-567 940,-537 842,-537"/>
<text text-anchor="start" x="850" y="-555" font-family="Helvetica,sans-Serif" font-size="10.00">Iterator&lt; DescFile,</text>
<text text-anchor="middle" x="891" y="-544" font-family="Helvetica,sans-Serif" font-size="10.00"> DescFileIterator &gt;</text>
</a>
</g>
</g>
<!-- Node2&#45;&gt;Node1 -->
<g id="edge1" class="edge"><title>Node2&#45;&gt;Node1</title>
<path fill="none" stroke="midnightblue" d="M950.434,-552C959.573,-552 969.082,-552 978.405,-552"/>
<polygon fill="midnightblue" stroke="midnightblue" points="950.304,-548.5 940.304,-552 950.304,-555.5 950.304,-548.5"/>
</g>
<!-- Node3 -->
<g id="node3" class="node"><title>Node3</title>
<polygon fill="white" stroke="#bfbfbf" points="648.5,-582 648.5,-612 773.5,-612 773.5,-582 648.5,-582"/>
<text text-anchor="start" x="656.5" y="-600" font-family="Helvetica,sans-Serif" font-size="10.00">iterator&lt; std::forward</text>
<text text-anchor="middle" x="711" y="-589" font-family="Helvetica,sans-Serif" font-size="10.00">_iterator_tag, DescFile &gt;</text>
</g>
<!-- Node3&#45;&gt;Node2 -->
<g id="edge2" class="edge"><title>Node3&#45;&gt;Node2</title>
<path fill="none" stroke="midnightblue" d="M781.548,-579.418C801.742,-574.312 823.341,-568.852 841.906,-564.159"/>
<polygon fill="midnightblue" stroke="midnightblue" points="780.604,-576.046 771.767,-581.89 782.319,-582.833 780.604,-576.046"/>
</g>
<!-- Node4 -->
<g id="node4" class="node"><title>Node4</title>
<g id="a_node4"><a xlink:href="classpkgCache.xhtml" target="_top" xlink:title="pkgCache">
<polygon fill="white" stroke="black" points="680.5,-295.5 680.5,-314.5 741.5,-314.5 741.5,-295.5 680.5,-295.5"/>
<text text-anchor="middle" x="711" y="-302.5" font-family="Helvetica,sans-Serif" font-size="10.00">pkgCache</text>
</a>
</g>
</g>
<!-- Node4&#45;&gt;Node2 -->
<g id="edge3" class="edge"><title>Node4&#45;&gt;Node2</title>
<path fill="none" stroke="#9a32cd" stroke-dasharray="5,2" d="M724.9,-322.9C758.398,-369.384 847.717,-493.326 878.995,-536.73"/>
<polygon fill="#9a32cd" stroke="#9a32cd" points="727.664,-320.749 718.978,-314.683 721.985,-324.842 727.664,-320.749"/>
<text text-anchor="middle" x="808" y="-461" font-family="Helvetica,sans-Serif" font-size="10.00"> Owner</text>
</g>
<!-- Node5 -->
<g id="node5" class="node"><title>Node5</title>
<g id="a_node5"><a xlink:href="structpkgCache_1_1Dependency.xhtml" target="_top" xlink:title="information for a single dependency record ">
<polygon fill="white" stroke="black" points="464.5,-523.5 464.5,-542.5 535.5,-542.5 535.5,-523.5 464.5,-523.5"/>
<text text-anchor="middle" x="500" y="-530.5" font-family="Helvetica,sans-Serif" font-size="10.00">Dependency</text>
</a>
</g>
</g>
<!-- Node5&#45;&gt;Node4 -->
<g id="edge4" class="edge"><title>Node5&#45;&gt;Node4</title>
<path fill="none" stroke="#9a32cd" stroke-dasharray="5,2" d="M545.653,-531.442C572.887,-528.299 606.802,-520.181 630,-500 689.08,-448.603 705.289,-346.871 709.017,-314.874"/>
<polygon fill="#9a32cd" stroke="#9a32cd" points="545.195,-527.97 535.579,-532.418 545.87,-534.938 545.195,-527.97"/>
<text text-anchor="middle" x="602" y="-529" font-family="Helvetica,sans-Serif" font-size="10.00"> DepP</text>
</g>
<!-- Node6 -->
<g id="node6" class="node"><title>Node6</title>
<g id="a_node6"><a xlink:href="structpkgCache_1_1Description.xhtml" target="_top" xlink:title="datamember of a linked list of available description for a version ">
<polygon fill="white" stroke="black" points="467,-485.5 467,-504.5 533,-504.5 533,-485.5 467,-485.5"/>
<text text-anchor="middle" x="500" y="-492.5" font-family="Helvetica,sans-Serif" font-size="10.00">Description</text>
</a>
</g>
</g>
<!-- Node6&#45;&gt;Node4 -->
<g id="edge5" class="edge"><title>Node6&#45;&gt;Node4</title>
<path fill="none" stroke="#9a32cd" stroke-dasharray="5,2" d="M543.208,-491.444C570.515,-487.233 605.425,-478.043 630,-458 678.548,-418.405 701.148,-341.484 707.81,-314.574"/>
<polygon fill="#9a32cd" stroke="#9a32cd" points="542.582,-487.997 533.151,-492.826 543.535,-494.932 542.582,-487.997"/>
<text text-anchor="middle" x="602" y="-488" font-family="Helvetica,sans-Serif" font-size="10.00"> DescP</text>
</g>
<!-- Node7 -->
<g id="node7" class="node"><title>Node7</title>
<g id="a_node7"><a xlink:href="structpkgCache_1_1Header.xhtml" target="_top" xlink:title="Header">
<polygon fill="white" stroke="black" points="476,-333.5 476,-352.5 524,-352.5 524,-333.5 476,-333.5"/>
<text text-anchor="middle" x="500" y="-340.5" font-family="Helvetica,sans-Serif" font-size="10.00">Header</text>
</a>
</g>
</g>
<!-- Node7&#45;&gt;Node4 -->
<g id="edge6" class="edge"><title>Node7&#45;&gt;Node4</title>
<path fill="none" stroke="#9a32cd" stroke-dasharray="5,2" d="M534.023,-336.996C574.276,-329.677 641.698,-317.419 680.355,-310.39"/>
<polygon fill="#9a32cd" stroke="#9a32cd" points="533.378,-333.556 524.165,-338.788 534.63,-340.443 533.378,-333.556"/>
<text text-anchor="middle" x="602" y="-333" font-family="Helvetica,sans-Serif" font-size="10.00"> HeaderP</text>
</g>
<!-- Node8 -->
<g id="node8" class="node"><title>Node8</title>
<g id="a_node8"><a xlink:href="structDynamicMMap_1_1Pool.xhtml" target="_top" xlink:title="Pool">
<polygon fill="white" stroke="black" points="318,-333.5 318,-352.5 354,-352.5 354,-333.5 318,-333.5"/>
<text text-anchor="middle" x="336" y="-340.5" font-family="Helvetica,sans-Serif" font-size="10.00">Pool</text>
</a>
</g>
</g>
<!-- Node8&#45;&gt;Node7 -->
<g id="edge7" class="edge"><title>Node8&#45;&gt;Node7</title>
<path fill="none" stroke="#9a32cd" stroke-dasharray="5,2" d="M364.236,-343C395.589,-343 446.538,-343 475.988,-343"/>
<polygon fill="#9a32cd" stroke="#9a32cd" points="364.031,-339.5 354.031,-343 364.031,-346.5 364.031,-339.5"/>
<text text-anchor="middle" x="401" y="-346" font-family="Helvetica,sans-Serif" font-size="10.00"> Pools</text>
</g>
<!-- Node9 -->
<g id="node9" class="node"><title>Node9</title>
<g id="a_node9"><a xlink:href="structpkgCache_1_1PackageFile.xhtml" target="_top" xlink:title="stores information about the files used to generate the cache ">
<polygon fill="white" stroke="black" points="464.5,-257.5 464.5,-276.5 535.5,-276.5 535.5,-257.5 464.5,-257.5"/>
<text text-anchor="middle" x="500" y="-264.5" font-family="Helvetica,sans-Serif" font-size="10.00">PackageFile</text>
</a>
</g>
</g>
<!-- Node9&#45;&gt;Node4 -->
<g id="edge8" class="edge"><title>Node9&#45;&gt;Node4</title>
<path fill="none" stroke="#9a32cd" stroke-dasharray="5,2" d="M545.386,-274.813C570.272,-279.219 601.875,-284.856 630,-290 646.68,-293.051 665.301,-296.537 680.378,-299.381"/>
<polygon fill="#9a32cd" stroke="#9a32cd" points="545.966,-271.362 535.509,-273.067 544.747,-278.255 545.966,-271.362"/>
<text text-anchor="middle" x="602" y="-293" font-family="Helvetica,sans-Serif" font-size="10.00"> PkgFileP</text>
</g>
<!-- Node10 -->
<g id="node10" class="node"><title>Node10</title>
<g id="a_node10"><a xlink:href="structpkgCache_1_1DescFile.xhtml" target="_top" xlink:title="associates a description with a Translation file ">
<polygon fill="white" stroke="black" points="472,-447.5 472,-466.5 528,-466.5 528,-447.5 472,-447.5"/>
<text text-anchor="middle" x="500" y="-454.5" font-family="Helvetica,sans-Serif" font-size="10.00">DescFile</text>
</a>
</g>
</g>
<!-- Node10&#45;&gt;Node2 -->
<g id="edge23" class="edge"><title>Node10&#45;&gt;Node2</title>
<path fill="none" stroke="#9a32cd" stroke-dasharray="5,2" d="M538.039,-464.336C544.707,-467.075 551.088,-470.836 556,-476 575.775,-496.791 551.443,-520.266 574,-538 614.311,-569.692 763.971,-562.596 841.99,-556.438"/>
<polygon fill="#9a32cd" stroke="#9a32cd" points="538.796,-460.898 528.202,-461.011 536.554,-467.529 538.796,-460.898"/>
<text text-anchor="middle" x="711" y="-564" font-family="Helvetica,sans-Serif" font-size="10.00"> S</text>
</g>
<!-- Node10&#45;&gt;Node4 -->
<g id="edge9" class="edge"><title>Node10&#45;&gt;Node4</title>
<path fill="none" stroke="#9a32cd" stroke-dasharray="5,2" d="M538.209,-451.999C565.647,-446.844 602.781,-436.663 630,-417 668.739,-389.014 695.777,-336.397 705.752,-314.716"/>
<polygon fill="#9a32cd" stroke="#9a32cd" points="537.461,-448.576 528.208,-453.737 538.66,-455.473 537.461,-448.576"/>
<text text-anchor="middle" x="602" y="-446" font-family="Helvetica,sans-Serif" font-size="10.00"> DescFileP</text>
</g>
<!-- Node11 -->
<g id="node11" class="node"><title>Node11</title>
<g id="a_node11"><a xlink:href="structpkgCache_1_1StringItem.xhtml" target="_top" xlink:title="used for generating single instances of strings ">
<polygon fill="white" stroke="black" points="469,-181.5 469,-200.5 531,-200.5 531,-181.5 469,-181.5"/>
<text text-anchor="middle" x="500" y="-188.5" font-family="Helvetica,sans-Serif" font-size="10.00">StringItem</text>
</a>
</g>
</g>
<!-- Node11&#45;&gt;Node4 -->
<g id="edge10" class="edge"><title>Node11&#45;&gt;Node4</title>
<path fill="none" stroke="#9a32cd" stroke-dasharray="5,2" d="M541.204,-199.48C567.613,-206.134 602.272,-216.984 630,-233 659.772,-250.196 688.075,-279.868 701.64,-295.198"/>
<polygon fill="#9a32cd" stroke="#9a32cd" points="541.702,-195.999 531.159,-197.049 540.056,-202.803 541.702,-195.999"/>
<text text-anchor="middle" x="602" y="-236" font-family="Helvetica,sans-Serif" font-size="10.00"> StringItemP</text>
</g>
<!-- Node12 -->
<g id="node12" class="node"><title>Node12</title>
<g id="a_node12"><a xlink:href="structpkgCache_1_1Provides.xhtml" target="_top" xlink:title="handles virtual packages ">
<polygon fill="white" stroke="black" points="472.5,-143.5 472.5,-162.5 527.5,-162.5 527.5,-143.5 472.5,-143.5"/>
<text text-anchor="middle" x="500" y="-150.5" font-family="Helvetica,sans-Serif" font-size="10.00">Provides</text>
</a>
</g>
</g>
<!-- Node12&#45;&gt;Node4 -->
<g id="edge11" class="edge"><title>Node12&#45;&gt;Node4</title>
<path fill="none" stroke="#9a32cd" stroke-dasharray="5,2" d="M537.662,-158.624C565.128,-164.252 602.545,-175.05 630,-195 668.206,-222.762 695.543,-274.284 705.675,-295.497"/>
<polygon fill="#9a32cd" stroke="#9a32cd" points="538.143,-155.153 527.663,-156.712 536.828,-162.028 538.143,-155.153"/>
<text text-anchor="middle" x="602" y="-198" font-family="Helvetica,sans-Serif" font-size="10.00"> ProvideP</text>
</g>
<!-- Node13 -->
<g id="node13" class="node"><title>Node13</title>
<g id="a_node13"><a xlink:title="STL class. ">
<polygon fill="white" stroke="#bfbfbf" points="144.5,-127.5 144.5,-146.5 185.5,-146.5 185.5,-127.5 144.5,-127.5"/>
<text text-anchor="middle" x="165" y="-134.5" font-family="Helvetica,sans-Serif" font-size="10.00">string</text>
</a>
</g>
</g>
<!-- Node13&#45;&gt;Node4 -->
<g id="edge12" class="edge"><title>Node13&#45;&gt;Node4</title>
<path fill="none" stroke="#9a32cd" stroke-dasharray="5,2" d="M195.843,-132.549C261.701,-123.64 424.102,-106.703 556,-134 591.089,-141.262 603.259,-142.149 630,-166 672.596,-203.994 698.272,-270.272 706.812,-295.172"/>
<polygon fill="#9a32cd" stroke="#9a32cd" points="195.185,-129.107 185.764,-133.953 196.151,-136.04 195.185,-129.107"/>
<text text-anchor="middle" x="401" y="-123" font-family="Helvetica,sans-Serif" font-size="10.00"> CacheFile</text>
</g>
<!-- Node21 -->
<g id="node21" class="node"><title>Node21</title>
<g id="a_node21"><a xlink:href="classFileFd.xhtml" target="_top" xlink:title="FileFd">
<polygon fill="white" stroke="black" points="314,-162.5 314,-181.5 358,-181.5 358,-162.5 314,-162.5"/>
<text text-anchor="middle" x="336" y="-169.5" font-family="Helvetica,sans-Serif" font-size="10.00">FileFd</text>
</a>
</g>
</g>
<!-- Node13&#45;&gt;Node21 -->
<g id="edge22" class="edge"><title>Node13&#45;&gt;Node21</title>
<path fill="none" stroke="#9a32cd" stroke-dasharray="5,2" d="M195.936,-143.2C229.796,-150.212 284.079,-161.454 313.821,-167.614"/>
<polygon fill="#9a32cd" stroke="#9a32cd" points="196.219,-139.684 185.717,-141.083 194.8,-146.539 196.219,-139.684"/>
<text text-anchor="middle" x="250" y="-178" font-family="Helvetica,sans-Serif" font-size="10.00"> TemporaryFileName</text>
<text text-anchor="middle" x="250" y="-167" font-family="Helvetica,sans-Serif" font-size="10.00">FileName</text>
</g>
<!-- Node14 -->
<g id="node14" class="node"><title>Node14</title>
<g id="a_node14"><a xlink:title="STL class. ">
<polygon fill="white" stroke="#bfbfbf" points="0,-127.5 0,-146.5 106,-146.5 106,-127.5 0,-127.5"/>
<text text-anchor="middle" x="53" y="-134.5" font-family="Helvetica,sans-Serif" font-size="10.00">basic_string&lt; char &gt;</text>
</a>
</g>
</g>
<!-- Node14&#45;&gt;Node13 -->
<g id="edge13" class="edge"><title>Node14&#45;&gt;Node13</title>
<path fill="none" stroke="midnightblue" d="M116.338,-137C126.515,-137 136.35,-137 144.416,-137"/>
<polygon fill="midnightblue" stroke="midnightblue" points="116.101,-133.5 106.101,-137 116.101,-140.5 116.101,-133.5"/>
</g>
<!-- Node15 -->
<g id="node15" class="node"><title>Node15</title>
<g id="a_node15"><a xlink:href="structpkgCache_1_1Group.xhtml" target="_top" xlink:title="groups architecture depending packages together ">
<polygon fill="white" stroke="black" points="478.5,-67.5 478.5,-86.5 521.5,-86.5 521.5,-67.5 478.5,-67.5"/>
<text text-anchor="middle" x="500" y="-74.5" font-family="Helvetica,sans-Serif" font-size="10.00">Group</text>
</a>
</g>
</g>
<!-- Node15&#45;&gt;Node4 -->
<g id="edge14" class="edge"><title>Node15&#45;&gt;Node4</title>
<path fill="none" stroke="#9a32cd" stroke-dasharray="5,2" d="M531.916,-71.5814C560.35,-68.4069 602.195,-68.5314 630,-90 698.406,-142.817 708.324,-260.575 709.758,-295.228"/>
<polygon fill="#9a32cd" stroke="#9a32cd" points="531.19,-68.1467 521.733,-72.922 532.104,-75.0868 531.19,-68.1467"/>
<text text-anchor="middle" x="602" y="-93" font-family="Helvetica,sans-Serif" font-size="10.00"> GrpP</text>
</g>
<!-- Node16 -->
<g id="node16" class="node"><title>Node16</title>
<g id="a_node16"><a xlink:href="classpkgVersioningSystem.xhtml" target="_top" xlink:title="pkgVersioningSystem">
<polygon fill="white" stroke="black" points="444,-0.5 444,-19.5 556,-19.5 556,-0.5 444,-0.5"/>
<text text-anchor="middle" x="500" y="-7.5" font-family="Helvetica,sans-Serif" font-size="10.00">pkgVersioningSystem</text>
</a>
</g>
</g>
<!-- Node16&#45;&gt;Node4 -->
<g id="edge15" class="edge"><title>Node16&#45;&gt;Node4</title>
<path fill="none" stroke="#9a32cd" stroke-dasharray="5,2" d="M565.729,-20.7553C588.631,-27.476 612.918,-38.368 630,-56 699.191,-127.418 708.547,-258.869 709.806,-295.375"/>
<polygon fill="#9a32cd" stroke="#9a32cd" points="566.592,-17.3629 556.024,-18.123 564.759,-24.1188 566.592,-17.3629"/>
<text text-anchor="middle" x="602" y="-59" font-family="Helvetica,sans-Serif" font-size="10.00"> VS</text>
</g>
<!-- Node16&#45;&gt;Node16 -->
<g id="edge16" class="edge"><title>Node16&#45;&gt;Node16</title>
<path fill="none" stroke="#9a32cd" stroke-dasharray="5,2" d="M481.853,-29.4C483.065,-34.3146 489.114,-38 500,-38 517.418,-38 522.453,-28.5653 515.105,-19.7571"/>
<polygon fill="#9a32cd" stroke="#9a32cd" points="485.224,-30.3468 484.895,-19.7571 478.548,-28.2404 485.224,-30.3468"/>
<text text-anchor="middle" x="500" y="-41" font-family="Helvetica,sans-Serif" font-size="10.00"> GlobalList</text>
</g>
<!-- Node17 -->
<g id="node17" class="node"><title>Node17</title>
<g id="a_node17"><a xlink:href="structpkgCache_1_1Version.xhtml" target="_top" xlink:title="information for a single version of a package ">
<polygon fill="white" stroke="black" points="475,-409.5 475,-428.5 525,-428.5 525,-409.5 475,-409.5"/>
<text text-anchor="middle" x="500" y="-416.5" font-family="Helvetica,sans-Serif" font-size="10.00">Version</text>
</a>
</g>
</g>
<!-- Node17&#45;&gt;Node4 -->
<g id="edge17" class="edge"><title>Node17&#45;&gt;Node4</title>
<path fill="none" stroke="#9a32cd" stroke-dasharray="5,2" d="M535.259,-412.738C562.28,-406.799 600.241,-396.18 630,-379 660.476,-361.406 688.898,-330.314 702.163,-314.626"/>
<polygon fill="#9a32cd" stroke="#9a32cd" points="534.193,-409.385 525.122,-414.86 535.627,-416.237 534.193,-409.385"/>
<text text-anchor="middle" x="602" y="-405" font-family="Helvetica,sans-Serif" font-size="10.00"> VerP</text>
</g>
<!-- Node18 -->
<g id="node18" class="node"><title>Node18</title>
<g id="a_node18"><a xlink:href="structpkgCache_1_1VerFile.xhtml" target="_top" xlink:title="associates a version with a PackageFile ">
<polygon fill="white" stroke="black" points="476.5,-371.5 476.5,-390.5 523.5,-390.5 523.5,-371.5 476.5,-371.5"/>
<text text-anchor="middle" x="500" y="-378.5" font-family="Helvetica,sans-Serif" font-size="10.00">VerFile</text>
</a>
</g>
</g>
<!-- Node18&#45;&gt;Node4 -->
<g id="edge18" class="edge"><title>Node18&#45;&gt;Node4</title>
<path fill="none" stroke="#9a32cd" stroke-dasharray="5,2" d="M533.667,-373.719C560.086,-367.397 598.014,-357.329 630,-345 652.603,-336.288 677.366,-323.34 693.263,-314.554"/>
<polygon fill="#9a32cd" stroke="#9a32cd" points="532.732,-370.344 523.796,-376.036 534.331,-377.159 532.732,-370.344"/>
<text text-anchor="middle" x="602" y="-367" font-family="Helvetica,sans-Serif" font-size="10.00"> VerFileP</text>
</g>
<!-- Node19 -->
<g id="node19" class="node"><title>Node19</title>
<g id="a_node19"><a xlink:href="structpkgCache_1_1Package.xhtml" target="_top" xlink:title="contains information for a single unique package ">
<polygon fill="white" stroke="black" points="472.5,-295.5 472.5,-314.5 527.5,-314.5 527.5,-295.5 472.5,-295.5"/>
<text text-anchor="middle" x="500" y="-302.5" font-family="Helvetica,sans-Serif" font-size="10.00">Package</text>
</a>
</g>
</g>
<!-- Node19&#45;&gt;Node4 -->
<g id="edge19" class="edge"><title>Node19&#45;&gt;Node4</title>
<path fill="none" stroke="#9a32cd" stroke-dasharray="5,2" d="M537.904,-305C578.428,-305 642.706,-305 680.173,-305"/>
<polygon fill="#9a32cd" stroke="#9a32cd" points="537.895,-301.5 527.895,-305 537.895,-308.5 537.895,-301.5"/>
<text text-anchor="middle" x="602" y="-308" font-family="Helvetica,sans-Serif" font-size="10.00"> PkgP</text>
</g>
<!-- Node20 -->
<g id="node20" class="node"><title>Node20</title>
<g id="a_node20"><a xlink:href="classMMap.xhtml" target="_top" xlink:title="MMap">
<polygon fill="white" stroke="black" points="478,-219.5 478,-238.5 522,-238.5 522,-219.5 478,-219.5"/>
<text text-anchor="middle" x="500" y="-226.5" font-family="Helvetica,sans-Serif" font-size="10.00">MMap</text>
</a>
</g>
</g>
<!-- Node20&#45;&gt;Node4 -->
<g id="edge20" class="edge"><title>Node20&#45;&gt;Node4</title>
<path fill="none" stroke="#9a32cd" stroke-dasharray="5,2" d="M532.212,-236.326C558.651,-242.916 597.355,-253.471 630,-266 652.215,-274.526 676.653,-286.907 692.6,-295.42"/>
<polygon fill="#9a32cd" stroke="#9a32cd" points="532.919,-232.896 522.374,-233.916 531.254,-239.695 532.919,-232.896"/>
<text text-anchor="middle" x="602" y="-269" font-family="Helvetica,sans-Serif" font-size="10.00"> Map</text>
</g>
<!-- Node21&#45;&gt;Node20 -->
<g id="edge21" class="edge"><title>Node21&#45;&gt;Node20</title>
<path fill="none" stroke="#9a32cd" stroke-dasharray="5,2" d="M367.821,-183.025C389.186,-190.648 418.302,-200.998 444,-210 455.155,-213.908 467.602,-218.212 477.83,-221.734"/>
<polygon fill="#9a32cd" stroke="#9a32cd" points="368.892,-179.691 358.297,-179.624 366.538,-186.283 368.892,-179.691"/>
<text text-anchor="middle" x="401" y="-206" font-family="Helvetica,sans-Serif" font-size="10.00"> SyncToFd</text>
</g>
</g>
</svg>
