<?xml version="1.0" encoding="UTF-8" standalone="no"?>
<!DOCTYPE svg PUBLIC "-//W3C//DTD SVG 1.1//EN"
 "http://www.w3.org/Graphics/SVG/1.1/DTD/svg11.dtd">
<!-- Generated by graphviz version 2.36.0 (20140111.2315)
 -->
<!-- Title: pkgAcquire Pages: 1 -->
<!--zoomable 484 -->
<svg id="main" version="1.1" xmlns="http://www.w3.org/2000/svg" xmlns:xlink="http://www.w3.org/1999/xlink" xml:space="preserve" onload="init(evt)">
<style type="text/css"><![CDATA[
.edge:hover path { stroke: red; }
.edge:hover polygon { stroke: red; fill: red; }
]]></style>
<script type="text/javascript"><![CDATA[
var edges = document.getElementsByTagName('g');
if (edges && edges.length) {
  for (var i=0;i<edges.length;i++) {
    if (edges[i].id.substr(0,4)=='edge') {
      edges[i].setAttribute('class','edge');
    }
  }
}
]]></script>
        <defs>
                <circle id="rim" cx="0" cy="0" r="7"/>
                <circle id="rim2" cx="0" cy="0" r="3.5"/>
                <g id="zoomPlus">
                        <use xlink:href="#rim" fill="#404040">
                                <set attributeName="fill" to="#808080" begin="zoomplus.mouseover" end="zoomplus.mouseout"/>
                        </use>
                        <path d="M-4,0h8M0,-4v8" fill="none" stroke="white" stroke-width="1.5" pointer-events="none"/>
                </g>
                <g id="zoomMin">
                        <use xlink:href="#rim" fill="#404040">
                                <set attributeName="fill" to="#808080" begin="zoomminus.mouseover" end="zoomminus.mouseout"/>
                        </use>
                        <path d="M-4,0h8" fill="none" stroke="white" stroke-width="1.5" pointer-events="none"/>
                </g>
                <g id="dirArrow">
                        <path fill="none" stroke="white" stroke-width="1.5" d="M0,-3.0v7 M-2.5,-0.5L0,-3.0L2.5,-0.5"/>
                </g>
               <g id="resetDef">
                       <use xlink:href="#rim2" fill="#404040">
                               <set attributeName="fill" to="#808080" begin="reset.mouseover" end="reset.mouseout"/>
                       </use>
               </g>
        </defs>

<script type="text/javascript">
var viewWidth = 804;
var viewHeight = 484;
var sectionId = 'dynsection-0';
</script>
<script xlink:href="svgpan.js"/>
<svg id="graph" class="graph">
<g id="viewport">
<title>pkgAcquire</title>
<polygon fill="white" stroke="none" points="-4,4 -4,-480 800,-480 800,4 -4,4"/>
<!-- Node1 -->
<g id="node1" class="node"><title>Node1</title>
<polygon fill="#bfbfbf" stroke="black" points="312.5,-223.5 312.5,-242.5 377.5,-242.5 377.5,-223.5 312.5,-223.5"/>
<text text-anchor="middle" x="345" y="-230.5" font-family="Helvetica,sans-Serif" font-size="10.00">pkgAcquire</text>
</g>
<!-- Node2 -->
<g id="node2" class="node"><title>Node2</title>
<g id="a_node2"><a xlink:href="classpkgAcquire_1_1Queue.xhtml" target="_top" xlink:title="A single download queue in a pkgAcquire object. {{{. ">
<polygon fill="white" stroke="black" points="377.5,-148.5 377.5,-167.5 422.5,-167.5 422.5,-148.5 377.5,-148.5"/>
<text text-anchor="middle" x="400" y="-155.5" font-family="Helvetica,sans-Serif" font-size="10.00">Queue</text>
</a>
</g>
</g>
<!-- Node1&#45;&gt;Node2 -->
<g id="edge2" class="edge"><title>Node1&#45;&gt;Node2</title>
<path fill="none" stroke="#9a32cd" stroke-dasharray="5,2" d="M338.963,-213.576C337.171,-204.612 336.862,-194.06 342,-186 349.762,-173.825 364.597,-167.052 377.321,-163.335"/>
<polygon fill="#9a32cd" stroke="#9a32cd" points="335.641,-214.701 341.618,-223.449 342.401,-212.883 335.641,-214.701"/>
<text text-anchor="middle" x="358" y="-189.5" font-family="Helvetica,sans-Serif" font-size="10.00"> Owner</text>
</g>
<!-- Node8 -->
<g id="node8" class="node"><title>Node8</title>
<g id="a_node8"><a xlink:href="classpkgAcquire_1_1Item.xhtml" target="_top" xlink:title="Represents the process by which a pkgAcquire object should {{{ retrieve a file or a collection of fil...">
<polygon fill="white" stroke="black" points="132,-148.5 132,-167.5 168,-167.5 168,-148.5 132,-148.5"/>
<text text-anchor="middle" x="150" y="-155.5" font-family="Helvetica,sans-Serif" font-size="10.00">Item</text>
</a>
</g>
</g>
<!-- Node1&#45;&gt;Node8 -->
<g id="edge10" class="edge"><title>Node1&#45;&gt;Node8</title>
<path fill="none" stroke="#9a32cd" stroke-dasharray="5,2" d="M302.323,-225.184C274.894,-219.879 238.926,-211.168 209,-198 190.793,-189.989 172.003,-176.499 160.658,-167.673"/>
<polygon fill="#9a32cd" stroke="#9a32cd" points="301.916,-228.668 312.387,-227.053 303.194,-221.786 301.916,-228.668"/>
<text text-anchor="middle" x="225" y="-189.5" font-family="Helvetica,sans-Serif" font-size="10.00"> Owner</text>
</g>
<!-- Node2&#45;&gt;Node1 -->
<g id="edge1" class="edge"><title>Node2&#45;&gt;Node1</title>
<path fill="none" stroke="#9a32cd" stroke-dasharray="5,2" d="M391.149,-176.913C387.451,-183.755 382.879,-191.475 378,-198 371.005,-207.355 361.617,-216.793 354.642,-223.343"/>
<polygon fill="#9a32cd" stroke="#9a32cd" points="394.398,-178.249 395.876,-167.758 388.178,-175.037 394.398,-178.249"/>
<text text-anchor="middle" x="404.5" y="-189.5" font-family="Helvetica,sans-Serif" font-size="10.00"> Queues</text>
</g>
<!-- Node9 -->
<g id="node9" class="node"><title>Node9</title>
<g id="a_node9"><a xlink:href="classpkgAcquire_1_1Worker.xhtml" target="_top" xlink:title="A fetch subprocess. ">
<polygon fill="white" stroke="black" points="415,-74.5 415,-93.5 463,-93.5 463,-74.5 415,-74.5"/>
<text text-anchor="middle" x="439" y="-81.5" font-family="Helvetica,sans-Serif" font-size="10.00">Worker</text>
</a>
</g>
</g>
<!-- Node2&#45;&gt;Node9 -->
<g id="edge15" class="edge"><title>Node2&#45;&gt;Node9</title>
<path fill="none" stroke="#9a32cd" stroke-dasharray="5,2" d="M382.524,-140.713C377.112,-133.682 373.595,-125.392 378,-118 385.952,-104.657 401.379,-96.3822 414.728,-91.4554"/>
<polygon fill="#9a32cd" stroke="#9a32cd" points="380.069,-143.215 389.387,-148.257 385.247,-138.505 380.069,-143.215"/>
<text text-anchor="middle" x="398" y="-121.5" font-family="Helvetica,sans-Serif" font-size="10.00"> OwnerQ</text>
</g>
<!-- Node3 -->
<g id="node3" class="node"><title>Node3</title>
<g id="a_node3"><a xlink:href="structpkgAcquire_1_1Queue_1_1QItem.xhtml" target="_top" xlink:title="A single item placed in this queue. ">
<polygon fill="white" stroke="black" points="339,-0.5 339,-19.5 383,-19.5 383,-0.5 339,-0.5"/>
<text text-anchor="middle" x="361" y="-7.5" font-family="Helvetica,sans-Serif" font-size="10.00">QItem</text>
</a>
</g>
</g>
<!-- Node3&#45;&gt;Node2 -->
<g id="edge3" class="edge"><title>Node3&#45;&gt;Node2</title>
<path fill="none" stroke="#9a32cd" stroke-dasharray="5,2" d="M359.149,-29.5985C357.536,-53.9225 357.48,-97.2848 373,-130 376.41,-137.187 382.555,-143.569 388.123,-148.321"/>
<polygon fill="#9a32cd" stroke="#9a32cd" points="362.64,-29.8468 359.977,-19.5923 355.664,-29.2696 362.64,-29.8468"/>
<text text-anchor="middle" x="378" y="-81.5" font-family="Helvetica,sans-Serif" font-size="10.00"> Items</text>
</g>
<!-- Node3&#45;&gt;Node3 -->
<g id="edge12" class="edge"><title>Node3&#45;&gt;Node3</title>
<path fill="none" stroke="#9a32cd" stroke-dasharray="5,2" d="M393.111,-15.5914C397.259,-14.6238 400,-12.76 400,-10 400,-5.35156 392.224,-3.24524 383.051,-3.68103"/>
<polygon fill="#9a32cd" stroke="#9a32cd" points="392.772,-12.1067 383.051,-16.319 393.277,-19.0885 392.772,-12.1067"/>
<text text-anchor="middle" x="412.5" y="-7.5" font-family="Helvetica,sans-Serif" font-size="10.00"> Next</text>
</g>
<!-- Node3&#45;&gt;Node9 -->
<g id="edge19" class="edge"><title>Node3&#45;&gt;Node9</title>
<path fill="none" stroke="#9a32cd" stroke-dasharray="5,2" d="M392.401,-22.6511C400.419,-26.6554 408.578,-31.7447 415,-38 425.656,-48.3789 432.662,-64.5154 436.219,-74.3828"/>
<polygon fill="#9a32cd" stroke="#9a32cd" points="393.717,-19.4046 383.166,-18.4441 390.815,-25.7748 393.717,-19.4046"/>
<text text-anchor="middle" x="452.5" y="-41.5" font-family="Helvetica,sans-Serif" font-size="10.00"> CurrentItem</text>
</g>
<!-- Node4 -->
<g id="node4" class="node"><title>Node4</title>
<g id="a_node4"><a xlink:href="structpkgAcquire_1_1ItemDesc.xhtml" target="_top" xlink:title="Represents a single download source from which an item should be downloaded. ">
<polygon fill="white" stroke="black" points="85.5,-74.5 85.5,-93.5 144.5,-93.5 144.5,-74.5 85.5,-74.5"/>
<text text-anchor="middle" x="115" y="-81.5" font-family="Helvetica,sans-Serif" font-size="10.00">ItemDesc</text>
</a>
</g>
</g>
<!-- Node4&#45;&gt;Node3 -->
<g id="edge4" class="edge"><title>Node4&#45;&gt;Node3</title>
<path fill="none" stroke="midnightblue" d="M154.081,-71.5616C206.257,-56.2908 296.938,-29.7499 338.734,-17.517"/>
<polygon fill="midnightblue" stroke="midnightblue" points="152.8,-68.2898 144.185,-74.4579 154.766,-75.0079 152.8,-68.2898"/>
</g>
<!-- Node5 -->
<g id="node5" class="node"><title>Node5</title>
<g id="a_node5"><a xlink:href="classWeakPointable.xhtml" target="_top" xlink:title="WeakPointable">
<polygon fill="white" stroke="black" points="71.5,-223.5 71.5,-242.5 154.5,-242.5 154.5,-223.5 71.5,-223.5"/>
<text text-anchor="middle" x="113" y="-230.5" font-family="Helvetica,sans-Serif" font-size="10.00">WeakPointable</text>
</a>
</g>
</g>
<!-- Node5&#45;&gt;Node4 -->
<g id="edge5" class="edge"><title>Node5&#45;&gt;Node4</title>
<path fill="none" stroke="midnightblue" d="M113.259,-212.936C113.698,-180.679 114.57,-116.596 114.884,-93.5253"/>
<polygon fill="midnightblue" stroke="midnightblue" points="109.756,-213.198 113.119,-223.245 116.755,-213.293 109.756,-213.198"/>
</g>
<!-- Node5&#45;&gt;Node8 -->
<g id="edge9" class="edge"><title>Node5&#45;&gt;Node8</title>
<path fill="none" stroke="midnightblue" d="M122.029,-214.186C129.515,-199.417 139.833,-179.059 145.616,-167.649"/>
<polygon fill="midnightblue" stroke="midnightblue" points="118.789,-212.837 117.39,-223.339 125.033,-216.002 118.789,-212.837"/>
</g>
<!-- Node5&#45;&gt;Node9 -->
<g id="edge14" class="edge"><title>Node5&#45;&gt;Node9</title>
<path fill="none" stroke="midnightblue" d="M160.993,-220.601C178.948,-215.213 199.078,-207.776 216,-198 244.892,-181.31 243.763,-165.775 272,-148 301.338,-129.532 311.605,-130.342 344,-118 366.854,-109.293 372.898,-108.028 396,-100 402.124,-97.8719 408.737,-95.5681 414.897,-93.4195"/>
<polygon fill="midnightblue" stroke="midnightblue" points="159.925,-217.267 151.276,-223.386 161.853,-223.996 159.925,-217.267"/>
</g>
<!-- Node6 -->
<g id="node6" class="node"><title>Node6</title>
<g id="a_node6"><a xlink:title="STL class. ">
<polygon fill="white" stroke="#bfbfbf" points="407.5,-398.5 407.5,-417.5 448.5,-417.5 448.5,-398.5 407.5,-398.5"/>
<text text-anchor="middle" x="428" y="-405.5" font-family="Helvetica,sans-Serif" font-size="10.00">string</text>
</a>
</g>
</g>
<!-- Node6&#45;&gt;Node2 -->
<g id="edge25" class="edge"><title>Node6&#45;&gt;Node2</title>
<path fill="none" stroke="#9a32cd" stroke-dasharray="5,2" d="M416.315,-389.648C408.277,-376.617 398.304,-357.994 394,-340 384.526,-300.396 413.454,-299.955 427,-198 427.702,-192.713 429.041,-190.927 427,-186 423.956,-178.651 417.833,-172.259 412.186,-167.541"/>
<polygon fill="#9a32cd" stroke="#9a32cd" points="413.604,-391.904 421.959,-398.419 419.491,-388.116 413.604,-391.904"/>
<text text-anchor="middle" x="427" y="-282.5" font-family="Helvetica,sans-Serif" font-size="10.00"> Name</text>
</g>
<!-- Node6&#45;&gt;Node4 -->
<g id="edge6" class="edge"><title>Node6&#45;&gt;Node4</title>
<path fill="none" stroke="#9a32cd" stroke-dasharray="5,2" d="M397.19,-404.792C299.023,-397.351 0,-371.371 0,-331 0,-331 0,-331 0,-157 0,-116.72 51.311,-98.1265 85.3846,-90.2198"/>
<polygon fill="#9a32cd" stroke="#9a32cd" points="397.124,-408.297 407.357,-405.551 397.645,-401.316 397.124,-408.297"/>
<text text-anchor="middle" x="26.5" y="-241.5" font-family="Helvetica,sans-Serif" font-size="10.00"> Description</text>
<text text-anchor="middle" x="26.5" y="-230.5" font-family="Helvetica,sans-Serif" font-size="10.00">URI</text>
<text text-anchor="middle" x="26.5" y="-219.5" font-family="Helvetica,sans-Serif" font-size="10.00">ShortDesc</text>
</g>
<!-- Node6&#45;&gt;Node8 -->
<g id="edge11" class="edge"><title>Node6&#45;&gt;Node8</title>
<path fill="none" stroke="#9a32cd" stroke-dasharray="5,2" d="M408.509,-392.228C365.718,-359.411 261.148,-277.078 183,-198 173.274,-188.158 163.148,-175.829 156.72,-167.699"/>
<polygon fill="#9a32cd" stroke="#9a32cd" points="406.598,-395.173 416.67,-398.46 410.846,-389.61 406.598,-395.173"/>
<text text-anchor="middle" x="320.5" y="-293.5" font-family="Helvetica,sans-Serif" font-size="10.00"> DestFile</text>
<text text-anchor="middle" x="320.5" y="-282.5" font-family="Helvetica,sans-Serif" font-size="10.00">ErrorText</text>
<text text-anchor="middle" x="320.5" y="-271.5" font-family="Helvetica,sans-Serif" font-size="10.00">UsedMirror</text>
</g>
<!-- Node6&#45;&gt;Node9 -->
<g id="edge20" class="edge"><title>Node6&#45;&gt;Node9</title>
<path fill="none" stroke="#9a32cd" stroke-dasharray="5,2" d="M458.811,-403.632C522.762,-395.783 664,-373.623 664,-331 664,-331 664,-331 664,-157 664,-115.166 521.123,-94.2842 463.079,-87.5271"/>
<polygon fill="#9a32cd" stroke="#9a32cd" points="458.049,-400.197 448.531,-404.851 458.873,-407.149 458.049,-400.197"/>
<text text-anchor="middle" x="688" y="-241.5" font-family="Helvetica,sans-Serif" font-size="10.00"> OutQueue</text>
<text text-anchor="middle" x="688" y="-230.5" font-family="Helvetica,sans-Serif" font-size="10.00">Access</text>
<text text-anchor="middle" x="688" y="-219.5" font-family="Helvetica,sans-Serif" font-size="10.00">Status</text>
</g>
<!-- Node10 -->
<g id="node10" class="node"><title>Node10</title>
<g id="a_node10"><a xlink:href="structpkgAcquire_1_1MethodConfig.xhtml" target="_top" xlink:title="Information about the properties of a single acquire method. {{{. ">
<polygon fill="white" stroke="black" points="515.5,-320.5 515.5,-339.5 592.5,-339.5 592.5,-320.5 515.5,-320.5"/>
<text text-anchor="middle" x="554" y="-327.5" font-family="Helvetica,sans-Serif" font-size="10.00">MethodConfig</text>
</a>
</g>
</g>
<!-- Node6&#45;&gt;Node10 -->
<g id="edge18" class="edge"><title>Node6&#45;&gt;Node10</title>
<path fill="none" stroke="#9a32cd" stroke-dasharray="5,2" d="M451.243,-392.981C477.132,-377.365 518.169,-352.612 539.715,-339.616"/>
<polygon fill="#9a32cd" stroke="#9a32cd" points="449.209,-390.12 442.454,-398.282 452.824,-396.114 449.209,-390.12"/>
<text text-anchor="middle" x="524.5" y="-372" font-family="Helvetica,sans-Serif" font-size="10.00"> Access</text>
<text text-anchor="middle" x="524.5" y="-361" font-family="Helvetica,sans-Serif" font-size="10.00">Version</text>
</g>
<!-- Node12 -->
<g id="node12" class="node"><title>Node12</title>
<polygon fill="white" stroke="#bfbfbf" points="683.5,-275.5 683.5,-294.5 788.5,-294.5 788.5,-275.5 683.5,-275.5"/>
<text text-anchor="middle" x="736" y="-282.5" font-family="Helvetica,sans-Serif" font-size="10.00">vector&lt; std::string &gt;</text>
</g>
<!-- Node6&#45;&gt;Node12 -->
<g id="edge23" class="edge"><title>Node6&#45;&gt;Node12</title>
<path fill="none" stroke="#9a32cd" stroke-dasharray="5,2" d="M458.65,-406.991C517.173,-406.446 642.198,-402.584 678,-380 710.437,-359.538 727.592,-313.675 733.545,-294.589"/>
<polygon fill="#9a32cd" stroke="#9a32cd" points="458.509,-403.492 448.533,-407.058 458.556,-410.492 458.509,-403.492"/>
<text text-anchor="middle" x="722.5" y="-366.5" font-family="Helvetica,sans-Serif" font-size="10.00"> elements</text>
</g>
<!-- Node7 -->
<g id="node7" class="node"><title>Node7</title>
<g id="a_node7"><a xlink:title="STL class. ">
<polygon fill="white" stroke="#bfbfbf" points="375,-456.5 375,-475.5 481,-475.5 481,-456.5 375,-456.5"/>
<text text-anchor="middle" x="428" y="-463.5" font-family="Helvetica,sans-Serif" font-size="10.00">basic_string&lt; char &gt;</text>
</a>
</g>
</g>
<!-- Node7&#45;&gt;Node6 -->
<g id="edge7" class="edge"><title>Node7&#45;&gt;Node6</title>
<path fill="none" stroke="midnightblue" d="M428,-445.953C428,-436.287 428,-425.031 428,-417.505"/>
<polygon fill="midnightblue" stroke="midnightblue" points="424.5,-446.25 428,-456.25 431.5,-446.25 424.5,-446.25"/>
</g>
<!-- Node8&#45;&gt;Node4 -->
<g id="edge8" class="edge"><title>Node8&#45;&gt;Node4</title>
<path fill="none" stroke="#9a32cd" stroke-dasharray="5,2" d="M141.459,-139.43C134.378,-124.863 124.617,-104.784 119.147,-93.531"/>
<polygon fill="#9a32cd" stroke="#9a32cd" points="138.328,-140.994 145.848,-148.458 144.623,-137.934 138.328,-140.994"/>
<text text-anchor="middle" x="153" y="-121.5" font-family="Helvetica,sans-Serif" font-size="10.00"> Owner</text>
</g>
<!-- Node13 -->
<g id="node13" class="node"><title>Node13</title>
<polygon fill="white" stroke="#bfbfbf" points="178.5,-69 178.5,-99 279.5,-99 279.5,-69 178.5,-69"/>
<text text-anchor="start" x="186.5" y="-87" font-family="Helvetica,sans-Serif" font-size="10.00">vector&lt; pkgAcquire</text>
<text text-anchor="middle" x="229" y="-76" font-family="Helvetica,sans-Serif" font-size="10.00">::Item * &gt;</text>
</g>
<!-- Node8&#45;&gt;Node13 -->
<g id="edge30" class="edge"><title>Node8&#45;&gt;Node13</title>
<path fill="none" stroke="#9a32cd" stroke-dasharray="5,2" d="M167.141,-141.378C180.897,-128.841 200.049,-111.386 213.385,-99.2316"/>
<polygon fill="#9a32cd" stroke="#9a32cd" points="164.406,-139.135 159.373,-148.458 169.121,-144.309 164.406,-139.135"/>
<text text-anchor="middle" x="213.5" y="-121.5" font-family="Helvetica,sans-Serif" font-size="10.00"> elements</text>
</g>
<!-- Node9&#45;&gt;Node1 -->
<g id="edge31" class="edge"><title>Node9&#45;&gt;Node1</title>
<path fill="none" stroke="#9a32cd" stroke-dasharray="5,2" d="M409.248,-97.5189C379.362,-110.806 336.538,-132.046 328,-148 314.59,-173.056 330.654,-207.483 339.675,-223.35"/>
<polygon fill="#9a32cd" stroke="#9a32cd" points="410.677,-100.714 418.437,-93.501 407.873,-94.3005 410.677,-100.714"/>
<text text-anchor="middle" x="348" y="-155.5" font-family="Helvetica,sans-Serif" font-size="10.00"> Workers</text>
</g>
<!-- Node9&#45;&gt;Node2 -->
<g id="edge26" class="edge"><title>Node9&#45;&gt;Node2</title>
<path fill="none" stroke="#9a32cd" stroke-dasharray="5,2" d="M431.346,-103.014C427.606,-111.37 422.867,-121.345 418,-130 414.465,-136.285 409.965,-143.035 406.349,-148.214"/>
<polygon fill="#9a32cd" stroke="#9a32cd" points="434.565,-104.387 435.354,-93.8221 428.149,-101.589 434.565,-104.387"/>
<text text-anchor="middle" x="444" y="-121.5" font-family="Helvetica,sans-Serif" font-size="10.00"> Workers</text>
</g>
<!-- Node9&#45;&gt;Node3 -->
<g id="edge13" class="edge"><title>Node9&#45;&gt;Node3</title>
<path fill="none" stroke="#9a32cd" stroke-dasharray="5,2" d="M407.579,-69.955C397.86,-64.8054 387.697,-58.1453 380,-50 371.724,-41.2411 366.371,-28.1965 363.52,-19.6447"/>
<polygon fill="#9a32cd" stroke="#9a32cd" points="406.148,-73.1518 416.666,-74.4286 409.24,-66.8716 406.148,-73.1518"/>
<text text-anchor="middle" x="397.5" y="-41.5" font-family="Helvetica,sans-Serif" font-size="10.00"> Worker</text>
</g>
<!-- Node9&#45;&gt;Node9 -->
<g id="edge24" class="edge"><title>Node9&#45;&gt;Node9</title>
<path fill="none" stroke="#9a32cd" stroke-dasharray="5,2" d="M473.425,-90.6175C477.979,-89.4908 481,-87.2849 481,-84 481,-78.6094 472.864,-76.1246 463.17,-76.5458"/>
<polygon fill="#9a32cd" stroke="#9a32cd" points="472.852,-87.1525 463.17,-91.4542 473.421,-94.1294 472.852,-87.1525"/>
<text text-anchor="middle" x="508.5" y="-87" font-family="Helvetica,sans-Serif" font-size="10.00"> NextQueue</text>
<text text-anchor="middle" x="508.5" y="-76" font-family="Helvetica,sans-Serif" font-size="10.00">NextAcquire</text>
</g>
<!-- Node10&#45;&gt;Node1 -->
<g id="edge27" class="edge"><title>Node10&#45;&gt;Node1</title>
<path fill="none" stroke="#9a32cd" stroke-dasharray="5,2" d="M533.504,-314.616C513.642,-301.17 482.304,-281.233 453,-268 428.635,-256.998 399.678,-248.09 377.883,-242.156"/>
<polygon fill="#9a32cd" stroke="#9a32cd" points="531.548,-317.519 541.774,-320.29 535.508,-311.746 531.548,-317.519"/>
<text text-anchor="middle" x="533.5" y="-282.5" font-family="Helvetica,sans-Serif" font-size="10.00"> Configs</text>
</g>
<!-- Node10&#45;&gt;Node9 -->
<g id="edge16" class="edge"><title>Node10&#45;&gt;Node9</title>
<path fill="none" stroke="#9a32cd" stroke-dasharray="5,2" d="M557.121,-309.899C558.497,-297.751 559.173,-281.772 556,-268 539.353,-195.751 530.201,-175.177 483,-118 474.854,-108.133 463.181,-99.5537 453.904,-93.6177"/>
<polygon fill="#9a32cd" stroke="#9a32cd" points="553.603,-309.789 555.691,-320.176 560.536,-310.754 553.603,-309.789"/>
<text text-anchor="middle" x="552" y="-189.5" font-family="Helvetica,sans-Serif" font-size="10.00"> Config</text>
</g>
<!-- Node10&#45;&gt;Node10 -->
<g id="edge17" class="edge"><title>Node10&#45;&gt;Node10</title>
<path fill="none" stroke="#9a32cd" stroke-dasharray="5,2" d="M602.872,-335.635C607.251,-334.456 610,-332.578 610,-330 610,-325.77 602.597,-323.423 592.735,-322.96"/>
<polygon fill="#9a32cd" stroke="#9a32cd" points="602.16,-332.2 592.735,-337.04 603.121,-339.134 602.16,-332.2"/>
<text text-anchor="middle" x="622.5" y="-327.5" font-family="Helvetica,sans-Serif" font-size="10.00"> Next</text>
</g>
<!-- Node11 -->
<g id="node11" class="node"><title>Node11</title>
<g id="a_node11"><a xlink:href="classpkgAcquireStatus.xhtml" target="_top" xlink:title="A monitor object for downloads controlled by the pkgAcquire class. {{{. ">
<polygon fill="white" stroke="black" points="403,-320.5 403,-339.5 497,-339.5 497,-320.5 403,-320.5"/>
<text text-anchor="middle" x="450" y="-327.5" font-family="Helvetica,sans-Serif" font-size="10.00">pkgAcquireStatus</text>
</a>
</g>
</g>
<!-- Node11&#45;&gt;Node1 -->
<g id="edge28" class="edge"><title>Node11&#45;&gt;Node1</title>
<path fill="none" stroke="#9a32cd" stroke-dasharray="5,2" d="M401.784,-316.763C393.186,-313.029 384.812,-308.206 378,-302 359.957,-285.563 350.712,-257.114 347.006,-242.785"/>
<polygon fill="#9a32cd" stroke="#9a32cd" points="400.549,-320.038 411.138,-320.401 403.087,-313.514 400.549,-320.038"/>
<text text-anchor="middle" x="387.5" y="-282.5" font-family="Helvetica,sans-Serif" font-size="10.00"> Log</text>
</g>
<!-- Node11&#45;&gt;Node9 -->
<g id="edge21" class="edge"><title>Node11&#45;&gt;Node9</title>
<path fill="none" stroke="#9a32cd" stroke-dasharray="5,2" d="M454.466,-310.188C458.031,-294.263 462.783,-270.777 465,-250 470.661,-196.951 467.333,-183.346 468,-130 468.067,-124.667 469.881,-122.991 468,-118 464.341,-108.294 456.385,-99.5871 449.731,-93.5571"/>
<polygon fill="#9a32cd" stroke="#9a32cd" points="450.97,-309.771 452.133,-320.302 457.791,-311.344 450.97,-309.771"/>
<text text-anchor="middle" x="478.5" y="-189.5" font-family="Helvetica,sans-Serif" font-size="10.00"> Log</text>
</g>
<!-- Node12&#45;&gt;Node9 -->
<g id="edge22" class="edge"><title>Node12&#45;&gt;Node9</title>
<path fill="none" stroke="#9a32cd" stroke-dasharray="5,2" d="M735.566,-265.025C733.64,-229.76 724.041,-154.405 678,-118 645.061,-91.9552 517.114,-86.4647 463.185,-85.3082"/>
<polygon fill="#9a32cd" stroke="#9a32cd" points="732.081,-265.477 735.967,-275.334 739.076,-265.205 732.081,-265.477"/>
<text text-anchor="middle" x="760" y="-189.5" font-family="Helvetica,sans-Serif" font-size="10.00"> MessageQueue</text>
</g>
<!-- Node13&#45;&gt;Node1 -->
<g id="edge29" class="edge"><title>Node13&#45;&gt;Node1</title>
<path fill="none" stroke="#9a32cd" stroke-dasharray="5,2" d="M245.209,-107.444C257.517,-124.301 274.997,-147.851 291,-168 307.094,-188.264 326.914,-211.29 337.498,-223.44"/>
<polygon fill="#9a32cd" stroke="#9a32cd" points="247.993,-105.32 239.28,-99.2922 242.332,-109.438 247.993,-105.32"/>
<text text-anchor="middle" x="305" y="-155.5" font-family="Helvetica,sans-Serif" font-size="10.00"> Items</text>
</g>
</g>
</svg>
        <g id="navigator" transform="translate(0 0)" fill="#404254">
                <rect fill="#f2f5e9" fill-opacity="0.5" stroke="#606060" stroke-width=".5" x="0" y="0" width="60" height="60"/>
                <use id="zoomplus" xlink:href="#zoomPlus" x="17" y="9" onmousedown="handleZoom(evt,'in')"/>
                <use id="zoomminus" xlink:href="#zoomMin" x="42" y="9" onmousedown="handleZoom(evt,'out')"/>
                <use id="reset" xlink:href="#resetDef" x="30" y="36" onmousedown="handleReset()"/>
                <g id="arrowUp" xlink:href="#dirArrow" transform="translate(30 24)" onmousedown="handlePan(0,-1)">
                  <use xlink:href="#rim" fill="#404040">
                        <set attributeName="fill" to="#808080" begin="arrowUp.mouseover" end="arrowUp.mouseout"/>
                  </use>
                  <path fill="none" stroke="white" stroke-width="1.5" d="M0,-3.0v7 M-2.5,-0.5L0,-3.0L2.5,-0.5"/>
                </g>
                <g id="arrowRight" xlink:href="#dirArrow" transform="rotate(90) translate(36 -43)" onmousedown="handlePan(1,0)">
                  <use xlink:href="#rim" fill="#404040">
                        <set attributeName="fill" to="#808080" begin="arrowRight.mouseover" end="arrowRight.mouseout"/>
                  </use>
                  <path fill="none" stroke="white" stroke-width="1.5" d="M0,-3.0v7 M-2.5,-0.5L0,-3.0L2.5,-0.5"/>
                </g>
                <g id="arrowDown" xlink:href="#dirArrow" transform="rotate(180) translate(-30 -48)" onmousedown="handlePan(0,1)">
                  <use xlink:href="#rim" fill="#404040">
                        <set attributeName="fill" to="#808080" begin="arrowDown.mouseover" end="arrowDown.mouseout"/>
                  </use>
                  <path fill="none" stroke="white" stroke-width="1.5" d="M0,-3.0v7 M-2.5,-0.5L0,-3.0L2.5,-0.5"/>
                </g>
                <g id="arrowLeft" xlink:href="#dirArrow" transform="rotate(270) translate(-36 17)" onmousedown="handlePan(-1,0)">
                  <use xlink:href="#rim" fill="#404040">
                        <set attributeName="fill" to="#808080" begin="arrowLeft.mouseover" end="arrowLeft.mouseout"/>
                  </use>
                  <path fill="none" stroke="white" stroke-width="1.5" d="M0,-3.0v7 M-2.5,-0.5L0,-3.0L2.5,-0.5"/>
                </g>
        </g>
        <svg viewBox="0 0 15 15" width="100%" height="30px" preserveAspectRatio="xMaxYMin meet">
         <g id="arrow_out" transform="scale(0.3 0.3)">
          <a xlink:href="classpkgAcquire__coll__graph_org.svg" target="_base">
           <rect id="button" ry="5" rx="5" y="6" x="6" height="38" width="38"
                fill="#f2f5e9" fill-opacity="0.5" stroke="#606060" stroke-width="1.0"/>
           <path id="arrow"
             d="M 11.500037,31.436501 C 11.940474,20.09759 22.043105,11.32322 32.158766,21.979434 L 37.068811,17.246167 C 37.068811,17.246167 37.088388,32 37.088388,32 L 22.160133,31.978069 C 22.160133,31.978069 26.997745,27.140456 26.997745,27.140456 C 18.528582,18.264221 13.291696,25.230495 11.500037,31.436501 z"
             style="fill:#404040;"/>
          </a>
         </g>
        </svg>
</svg>
