<?xml version="1.0" encoding="UTF-8" standalone="no"?>
<!DOCTYPE svg PUBLIC "-//W3C//DTD SVG 1.1//EN"
 "http://www.w3.org/Graphics/SVG/1.1/DTD/svg11.dtd">
<!-- Generated by graphviz version 2.36.0 (20140111.2315)
 -->
<!-- Title: pkgSourceList Pages: 1 -->
<svg width="227pt" height="310pt"
 viewBox="0.00 0.00 227.00 310.00" xmlns="http://www.w3.org/2000/svg" xmlns:xlink="http://www.w3.org/1999/xlink">
<g id="graph0" class="graph" transform="scale(1 1) rotate(0) translate(4 306)">
<title>pkgSourceList</title>
<polygon fill="white" stroke="none" points="-4,4 -4,-306 223,-306 223,4 -4,4"/>
<!-- Node1 -->
<g id="node1" class="node"><title>Node1</title>
<polygon fill="#bfbfbf" stroke="black" points="79.5,-0.5 79.5,-19.5 158.5,-19.5 158.5,-0.5 79.5,-0.5"/>
<text text-anchor="middle" x="119" y="-7.5" font-family="Helvetica,sans-Serif" font-size="10.00">pkgSourceList</text>
</g>
<!-- Node2 -->
<g id="node2" class="node"><title>Node2</title>
<polygon fill="white" stroke="#bfbfbf" points="62,-68.5 62,-87.5 176,-87.5 176,-68.5 62,-68.5"/>
<text text-anchor="middle" x="119" y="-75.5" font-family="Helvetica,sans-Serif" font-size="10.00">vector&lt; metaIndex * &gt;</text>
</g>
<!-- Node2&#45;&gt;Node1 -->
<g id="edge1" class="edge"><title>Node2&#45;&gt;Node1</title>
<path fill="none" stroke="#9a32cd" stroke-dasharray="5,2" d="M119,-58.0413C119,-45.4724 119,-29.5631 119,-19.8411"/>
<polygon fill="#9a32cd" stroke="#9a32cd" points="115.5,-58.3716 119,-68.3717 122.5,-58.3717 115.5,-58.3716"/>
<text text-anchor="middle" x="136" y="-41.5" font-family="Helvetica,sans-Serif" font-size="10.00"> SrcList</text>
</g>
<!-- Node3 -->
<g id="node3" class="node"><title>Node3</title>
<g id="a_node3"><a xlink:href="classmetaIndex.xhtml" target="_top" xlink:title="metaIndex">
<polygon fill="white" stroke="black" points="88,-136.5 88,-155.5 150,-155.5 150,-136.5 88,-136.5"/>
<text text-anchor="middle" x="119" y="-143.5" font-family="Helvetica,sans-Serif" font-size="10.00">metaIndex</text>
</a>
</g>
</g>
<!-- Node3&#45;&gt;Node2 -->
<g id="edge2" class="edge"><title>Node3&#45;&gt;Node2</title>
<path fill="none" stroke="#9a32cd" stroke-dasharray="5,2" d="M119,-126.041C119,-113.472 119,-97.5631 119,-87.8411"/>
<polygon fill="#9a32cd" stroke="#9a32cd" points="115.5,-126.372 119,-136.372 122.5,-126.372 115.5,-126.372"/>
<text text-anchor="middle" x="140.5" y="-109.5" font-family="Helvetica,sans-Serif" font-size="10.00"> elements</text>
</g>
<!-- Node4 -->
<g id="node4" class="node"><title>Node4</title>
<polygon fill="white" stroke="#bfbfbf" points="0,-214.5 0,-233.5 124,-233.5 124,-214.5 0,-214.5"/>
<text text-anchor="middle" x="62" y="-221.5" font-family="Helvetica,sans-Serif" font-size="10.00">vector&lt; pkgIndexFile * &gt;</text>
</g>
<!-- Node4&#45;&gt;Node3 -->
<g id="edge3" class="edge"><title>Node4&#45;&gt;Node3</title>
<path fill="none" stroke="#9a32cd" stroke-dasharray="5,2" d="M72.7597,-205.826C78.9622,-196.241 87.0801,-184.212 95,-174 99.9198,-167.657 105.92,-160.907 110.69,-155.742"/>
<polygon fill="#9a32cd" stroke="#9a32cd" points="69.6949,-204.123 67.274,-214.437 75.5987,-207.884 69.6949,-204.123"/>
<text text-anchor="middle" x="114" y="-182.5" font-family="Helvetica,sans-Serif" font-size="10.00"> Indexes</text>
</g>
<!-- Node5 -->
<g id="node5" class="node"><title>Node5</title>
<g id="a_node5"><a xlink:href="classpkgIndexFile.xhtml" target="_top" xlink:title="pkgIndexFile">
<polygon fill="white" stroke="black" points="24,-282.5 24,-301.5 96,-301.5 96,-282.5 24,-282.5"/>
<text text-anchor="middle" x="60" y="-289.5" font-family="Helvetica,sans-Serif" font-size="10.00">pkgIndexFile</text>
</a>
</g>
</g>
<!-- Node5&#45;&gt;Node4 -->
<g id="edge4" class="edge"><title>Node5&#45;&gt;Node4</title>
<path fill="none" stroke="#9a32cd" stroke-dasharray="5,2" d="M60.5745,-272.041C60.9554,-259.472 61.4375,-243.563 61.7321,-233.841"/>
<polygon fill="#9a32cd" stroke="#9a32cd" points="57.0661,-272.27 60.2615,-282.372 64.0628,-272.482 57.0661,-272.27"/>
<text text-anchor="middle" x="83.5" y="-255.5" font-family="Helvetica,sans-Serif" font-size="10.00"> elements</text>
</g>
<!-- Node6 -->
<g id="node6" class="node"><title>Node6</title>
<g id="a_node6"><a xlink:title="STL class. ">
<polygon fill="white" stroke="#bfbfbf" points="145.5,-214.5 145.5,-233.5 186.5,-233.5 186.5,-214.5 145.5,-214.5"/>
<text text-anchor="middle" x="166" y="-221.5" font-family="Helvetica,sans-Serif" font-size="10.00">string</text>
</a>
</g>
</g>
<!-- Node6&#45;&gt;Node3 -->
<g id="edge5" class="edge"><title>Node6&#45;&gt;Node3</title>
<path fill="none" stroke="#9a32cd" stroke-dasharray="5,2" d="M155.218,-205.565C145.56,-189.949 131.801,-167.7 124.329,-155.616"/>
<polygon fill="#9a32cd" stroke="#9a32cd" points="152.372,-207.618 160.609,-214.282 158.326,-203.936 152.372,-207.618"/>
<text text-anchor="middle" x="160" y="-188" font-family="Helvetica,sans-Serif" font-size="10.00"> Dist</text>
<text text-anchor="middle" x="160" y="-177" font-family="Helvetica,sans-Serif" font-size="10.00">URI</text>
</g>
<!-- Node7 -->
<g id="node7" class="node"><title>Node7</title>
<g id="a_node7"><a xlink:title="STL class. ">
<polygon fill="white" stroke="#bfbfbf" points="114,-282.5 114,-301.5 220,-301.5 220,-282.5 114,-282.5"/>
<text text-anchor="middle" x="167" y="-289.5" font-family="Helvetica,sans-Serif" font-size="10.00">basic_string&lt; char &gt;</text>
</a>
</g>
</g>
<!-- Node7&#45;&gt;Node6 -->
<g id="edge6" class="edge"><title>Node7&#45;&gt;Node6</title>
<path fill="none" stroke="midnightblue" d="M166.713,-272.041C166.522,-259.472 166.281,-243.563 166.134,-233.841"/>
<polygon fill="midnightblue" stroke="midnightblue" points="163.218,-272.426 166.869,-282.372 170.217,-272.32 163.218,-272.426"/>
</g>
</g>
</svg>
