<?xml version="1.0" encoding="UTF-8" standalone="no"?>
<!DOCTYPE svg PUBLIC "-//W3C//DTD SVG 1.1//EN"
 "http://www.w3.org/Graphics/SVG/1.1/DTD/svg11.dtd">
<!-- Generated by graphviz version 2.36.0 (20140111.2315)
 -->
<!-- Title: VersionContainerInterface::const_iterator Pages: 1 -->
<svg width="151pt" height="96pt"
 viewBox="0.00 0.00 151.00 96.00" xmlns="http://www.w3.org/2000/svg" xmlns:xlink="http://www.w3.org/1999/xlink">
<g id="graph0" class="graph" transform="scale(1 1) rotate(0) translate(4 92)">
<title>VersionContainerInterface::const_iterator</title>
<polygon fill="white" stroke="none" points="-4,4 -4,-92 147,-92 147,4 -4,4"/>
<!-- Node1 -->
<g id="node1" class="node"><title>Node1</title>
<polygon fill="#bfbfbf" stroke="black" points="13,-57 13,-87 143,-87 143,-57 13,-57"/>
<text text-anchor="start" x="21" y="-75" font-family="Helvetica,sans-Serif" font-size="10.00">VersionContainerInterface</text>
<text text-anchor="middle" x="78" y="-64" font-family="Helvetica,sans-Serif" font-size="10.00">::const_iterator</text>
</g>
<!-- Node2 -->
<g id="node2" class="node"><title>Node2</title>
<g id="a_node2"><a xlink:href="classAPT_1_1VersionContainer_1_1const__iterator.xhtml" target="_top" xlink:title="smell like a pkgCache::VerIterator ">
<polygon fill="white" stroke="black" points="0,-0.5 0,-19.5 76,-19.5 76,-0.5 0,-0.5"/>
<text text-anchor="middle" x="38" y="-7.5" font-family="Helvetica,sans-Serif" font-size="10.00">const_iterator</text>
</a>
</g>
</g>
<!-- Node1&#45;&gt;Node2 -->
<g id="edge1" class="edge"><title>Node1&#45;&gt;Node2</title>
<path fill="none" stroke="midnightblue" d="M62.9439,-48.4159C56.2768,-38.4153 48.8277,-27.2416 43.8204,-19.7305"/>
<polygon fill="midnightblue" stroke="midnightblue" points="60.0613,-50.4018 68.5206,-56.7808 65.8857,-46.5189 60.0613,-50.4018"/>
</g>
<!-- Node3 -->
<g id="node3" class="node"><title>Node3</title>
<g id="a_node3"><a xlink:href="classAPT_1_1VersionContainer_1_1iterator.xhtml" target="_top" xlink:title="iterator">
<polygon fill="white" stroke="black" points="94.5,-0.5 94.5,-19.5 141.5,-19.5 141.5,-0.5 94.5,-0.5"/>
<text text-anchor="middle" x="118" y="-7.5" font-family="Helvetica,sans-Serif" font-size="10.00">iterator</text>
</a>
</g>
</g>
<!-- Node1&#45;&gt;Node3 -->
<g id="edge2" class="edge"><title>Node1&#45;&gt;Node3</title>
<path fill="none" stroke="midnightblue" d="M93.0561,-48.4159C99.7232,-38.4153 107.172,-27.2416 112.18,-19.7305"/>
<polygon fill="midnightblue" stroke="midnightblue" points="90.1143,-46.5189 87.4794,-56.7808 95.9387,-50.4018 90.1143,-46.5189"/>
</g>
</g>
</svg>
