<?xml version="1.0" encoding="UTF-8" standalone="no"?>
<!DOCTYPE svg PUBLIC "-//W3C//DTD SVG 1.1//EN"
 "http://www.w3.org/Graphics/SVG/1.1/DTD/svg11.dtd">
<!-- Generated by graphviz version 2.36.0 (20140111.2315)
 -->
<!-- Title: SHA2SummationBase Pages: 1 -->
<svg width="231pt" height="140pt"
 viewBox="0.00 0.00 231.00 140.00" xmlns="http://www.w3.org/2000/svg" xmlns:xlink="http://www.w3.org/1999/xlink">
<g id="graph0" class="graph" transform="scale(1 1) rotate(0) translate(4 136)">
<title>SHA2SummationBase</title>
<polygon fill="white" stroke="none" points="-4,4 -4,-136 227,-136 227,4 -4,4"/>
<!-- Node1 -->
<g id="node1" class="node"><title>Node1</title>
<polygon fill="#bfbfbf" stroke="black" points="53.5,-56.5 53.5,-75.5 168.5,-75.5 168.5,-56.5 53.5,-56.5"/>
<text text-anchor="middle" x="111" y="-63.5" font-family="Helvetica,sans-Serif" font-size="10.00">SHA2SummationBase</text>
</g>
<!-- Node3 -->
<g id="node3" class="node"><title>Node3</title>
<g id="a_node3"><a xlink:href="classSHA256Summation.xhtml" target="_top" xlink:title="SHA256Summation">
<polygon fill="white" stroke="black" points="-0.5,-0.5 -0.5,-19.5 102.5,-19.5 102.5,-0.5 -0.5,-0.5"/>
<text text-anchor="middle" x="51" y="-7.5" font-family="Helvetica,sans-Serif" font-size="10.00">SHA256Summation</text>
</a>
</g>
</g>
<!-- Node1&#45;&gt;Node3 -->
<g id="edge2" class="edge"><title>Node1&#45;&gt;Node3</title>
<path fill="none" stroke="midnightblue" d="M93.8191,-49.5372C83.1208,-39.9087 69.7437,-27.8694 60.8154,-19.8339"/>
<polygon fill="midnightblue" stroke="midnightblue" points="91.5856,-52.2358 101.36,-56.324 96.2684,-47.0327 91.5856,-52.2358"/>
</g>
<!-- Node4 -->
<g id="node4" class="node"><title>Node4</title>
<g id="a_node4"><a xlink:href="classSHA512Summation.xhtml" target="_top" xlink:title="SHA512Summation">
<polygon fill="white" stroke="black" points="120.5,-0.5 120.5,-19.5 223.5,-19.5 223.5,-0.5 120.5,-0.5"/>
<text text-anchor="middle" x="172" y="-7.5" font-family="Helvetica,sans-Serif" font-size="10.00">SHA512Summation</text>
</a>
</g>
</g>
<!-- Node1&#45;&gt;Node4 -->
<g id="edge3" class="edge"><title>Node1&#45;&gt;Node4</title>
<path fill="none" stroke="midnightblue" d="M128.467,-49.5372C139.344,-39.9087 152.944,-27.8694 162.021,-19.8339"/>
<polygon fill="midnightblue" stroke="midnightblue" points="125.968,-47.0749 120.801,-56.324 130.608,-52.3162 125.968,-47.0749"/>
</g>
<!-- Node2 -->
<g id="node2" class="node"><title>Node2</title>
<g id="a_node2"><a xlink:href="classSummationImplementation.xhtml" target="_top" xlink:title="SummationImplementation">
<polygon fill="white" stroke="black" points="44.5,-112.5 44.5,-131.5 177.5,-131.5 177.5,-112.5 44.5,-112.5"/>
<text text-anchor="middle" x="111" y="-119.5" font-family="Helvetica,sans-Serif" font-size="10.00">SummationImplementation</text>
</a>
</g>
</g>
<!-- Node2&#45;&gt;Node1 -->
<g id="edge1" class="edge"><title>Node2&#45;&gt;Node1</title>
<path fill="none" stroke="midnightblue" d="M111,-101.805C111,-92.9102 111,-82.7798 111,-75.7511"/>
<polygon fill="midnightblue" stroke="midnightblue" points="107.5,-102.083 111,-112.083 114.5,-102.083 107.5,-102.083"/>
</g>
</g>
</svg>
