<?xml version="1.0" encoding="UTF-8" standalone="no"?>
<!DOCTYPE svg PUBLIC "-//W3C//DTD SVG 1.1//EN"
 "http://www.w3.org/Graphics/SVG/1.1/DTD/svg11.dtd">
<!-- Generated by graphviz version 2.36.0 (20140111.2315)
 -->
<!-- Title: pkgDepCache Pages: 1 -->
<svg width="906pt" height="555pt"
 viewBox="0.00 0.00 906.00 555.00" xmlns="http://www.w3.org/2000/svg" xmlns:xlink="http://www.w3.org/1999/xlink">
<g id="graph0" class="graph" transform="scale(1 1) rotate(0) translate(4 551)">
<title>pkgDepCache</title>
<polygon fill="white" stroke="none" points="-4,4 -4,-551 902,-551 902,4 -4,4"/>
<!-- Node1 -->
<g id="node1" class="node"><title>Node1</title>
<polygon fill="#bfbfbf" stroke="black" points="818.5,-296.5 818.5,-315.5 897.5,-315.5 897.5,-296.5 818.5,-296.5"/>
<text text-anchor="middle" x="858" y="-303.5" font-family="Helvetica,sans-Serif" font-size="10.00">pkgDepCache</text>
</g>
<!-- Node2 -->
<g id="node2" class="node"><title>Node2</title>
<g id="a_node2"><a xlink:href="classpkgCache_1_1Namespace.xhtml" target="_top" xlink:title="Namespace">
<polygon fill="white" stroke="black" points="648.5,-352.5 648.5,-371.5 717.5,-371.5 717.5,-352.5 648.5,-352.5"/>
<text text-anchor="middle" x="683" y="-359.5" font-family="Helvetica,sans-Serif" font-size="10.00">Namespace</text>
</a>
</g>
</g>
<!-- Node2&#45;&gt;Node1 -->
<g id="edge1" class="edge"><title>Node2&#45;&gt;Node1</title>
<path fill="none" stroke="darkgreen" d="M727.695,-360.28C749.957,-358.248 777.09,-353.959 800,-345 817.644,-338.1 835.221,-324.861 846.093,-315.737"/>
<polygon fill="darkgreen" stroke="darkgreen" points="727.214,-356.807 717.521,-361.085 727.766,-363.785 727.214,-356.807"/>
</g>
<!-- Node3 -->
<g id="node3" class="node"><title>Node3</title>
<g id="a_node3"><a xlink:href="classpkgDepCache_1_1Policy.xhtml" target="_top" xlink:title="Policy">
<polygon fill="white" stroke="black" points="661,-314.5 661,-333.5 705,-333.5 705,-314.5 661,-314.5"/>
<text text-anchor="middle" x="683" y="-321.5" font-family="Helvetica,sans-Serif" font-size="10.00">Policy</text>
</a>
</g>
</g>
<!-- Node3&#45;&gt;Node1 -->
<g id="edge2" class="edge"><title>Node3&#45;&gt;Node1</title>
<path fill="none" stroke="#9a32cd" stroke-dasharray="5,2" d="M715.193,-320.755C744.164,-317.74 787.39,-313.243 818.498,-310.006"/>
<polygon fill="#9a32cd" stroke="#9a32cd" points="714.797,-317.277 705.213,-321.793 715.522,-324.239 714.797,-317.277"/>
<text text-anchor="middle" x="768" y="-333" font-family="Helvetica,sans-Serif" font-size="10.00"> LocalPolicy</text>
<text text-anchor="middle" x="768" y="-322" font-family="Helvetica,sans-Serif" font-size="10.00">delLocalPolicy</text>
</g>
<!-- Node4 -->
<g id="node4" class="node"><title>Node4</title>
<g id="a_node4"><a xlink:href="classpkgCache.xhtml" target="_top" xlink:title="pkgCache">
<polygon fill="white" stroke="black" points="652.5,-276.5 652.5,-295.5 713.5,-295.5 713.5,-276.5 652.5,-276.5"/>
<text text-anchor="middle" x="683" y="-283.5" font-family="Helvetica,sans-Serif" font-size="10.00">pkgCache</text>
</a>
</g>
</g>
<!-- Node4&#45;&gt;Node1 -->
<g id="edge3" class="edge"><title>Node4&#45;&gt;Node1</title>
<path fill="none" stroke="#9a32cd" stroke-dasharray="5,2" d="M723.748,-289.751C746.163,-291.957 774.669,-294.913 800,-298 805.952,-298.725 812.245,-299.55 818.392,-300.388"/>
<polygon fill="#9a32cd" stroke="#9a32cd" points="723.886,-286.248 713.594,-288.762 723.207,-293.215 723.886,-286.248"/>
<text text-anchor="middle" x="768" y="-301" font-family="Helvetica,sans-Serif" font-size="10.00"> Cache</text>
</g>
<!-- Node5 -->
<g id="node5" class="node"><title>Node5</title>
<g id="a_node5"><a xlink:href="structpkgCache_1_1Dependency.xhtml" target="_top" xlink:title="information for a single dependency record ">
<polygon fill="white" stroke="black" points="464.5,-523.5 464.5,-542.5 535.5,-542.5 535.5,-523.5 464.5,-523.5"/>
<text text-anchor="middle" x="500" y="-530.5" font-family="Helvetica,sans-Serif" font-size="10.00">Dependency</text>
</a>
</g>
</g>
<!-- Node5&#45;&gt;Node4 -->
<g id="edge4" class="edge"><title>Node5&#45;&gt;Node4</title>
<path fill="none" stroke="#9a32cd" stroke-dasharray="5,2" d="M545.772,-538.01C574.057,-538.499 609.091,-533.693 630,-511 661.138,-477.206 623.041,-343.583 648,-305 650.424,-301.253 653.858,-298.175 657.62,-295.67"/>
<polygon fill="#9a32cd" stroke="#9a32cd" points="545.825,-534.51 535.695,-537.614 545.55,-541.504 545.825,-534.51"/>
<text text-anchor="middle" x="602" y="-539" font-family="Helvetica,sans-Serif" font-size="10.00"> DepP</text>
</g>
<!-- Node6 -->
<g id="node6" class="node"><title>Node6</title>
<g id="a_node6"><a xlink:href="structpkgCache_1_1Description.xhtml" target="_top" xlink:title="datamember of a linked list of available description for a version ">
<polygon fill="white" stroke="black" points="467,-485.5 467,-504.5 533,-504.5 533,-485.5 467,-485.5"/>
<text text-anchor="middle" x="500" y="-492.5" font-family="Helvetica,sans-Serif" font-size="10.00">Description</text>
</a>
</g>
</g>
<!-- Node6&#45;&gt;Node4 -->
<g id="edge5" class="edge"><title>Node6&#45;&gt;Node4</title>
<path fill="none" stroke="#9a32cd" stroke-dasharray="5,2" d="M543.177,-499.457C571.817,-499.969 608.297,-495.256 630,-472 655.466,-444.711 627.411,-336.134 648,-305 650.462,-301.277 653.914,-298.212 657.683,-295.711"/>
<polygon fill="#9a32cd" stroke="#9a32cd" points="543.152,-495.953 533.022,-499.057 542.877,-502.948 543.152,-495.953"/>
<text text-anchor="middle" x="602" y="-500" font-family="Helvetica,sans-Serif" font-size="10.00"> DescP</text>
</g>
<!-- Node7 -->
<g id="node7" class="node"><title>Node7</title>
<g id="a_node7"><a xlink:href="structpkgCache_1_1Header.xhtml" target="_top" xlink:title="Header">
<polygon fill="white" stroke="black" points="476,-447.5 476,-466.5 524,-466.5 524,-447.5 476,-447.5"/>
<text text-anchor="middle" x="500" y="-454.5" font-family="Helvetica,sans-Serif" font-size="10.00">Header</text>
</a>
</g>
</g>
<!-- Node7&#45;&gt;Node4 -->
<g id="edge6" class="edge"><title>Node7&#45;&gt;Node4</title>
<path fill="none" stroke="#9a32cd" stroke-dasharray="5,2" d="M534.333,-459.788C563.817,-460.275 605.803,-455.78 630,-430 668.413,-389.075 616.21,-351.258 648,-305 650.604,-301.211 654.224,-298.094 658.136,-295.559"/>
<polygon fill="#9a32cd" stroke="#9a32cd" points="534.213,-456.281 524.092,-459.414 533.957,-463.277 534.213,-456.281"/>
<text text-anchor="middle" x="602" y="-460" font-family="Helvetica,sans-Serif" font-size="10.00"> HeaderP</text>
</g>
<!-- Node8 -->
<g id="node8" class="node"><title>Node8</title>
<g id="a_node8"><a xlink:href="structDynamicMMap_1_1Pool.xhtml" target="_top" xlink:title="Pool">
<polygon fill="white" stroke="black" points="318,-447.5 318,-466.5 354,-466.5 354,-447.5 318,-447.5"/>
<text text-anchor="middle" x="336" y="-454.5" font-family="Helvetica,sans-Serif" font-size="10.00">Pool</text>
</a>
</g>
</g>
<!-- Node8&#45;&gt;Node7 -->
<g id="edge7" class="edge"><title>Node8&#45;&gt;Node7</title>
<path fill="none" stroke="#9a32cd" stroke-dasharray="5,2" d="M364.236,-457C395.589,-457 446.538,-457 475.988,-457"/>
<polygon fill="#9a32cd" stroke="#9a32cd" points="364.031,-453.5 354.031,-457 364.031,-460.5 364.031,-453.5"/>
<text text-anchor="middle" x="401" y="-460" font-family="Helvetica,sans-Serif" font-size="10.00"> Pools</text>
</g>
<!-- Node9 -->
<g id="node9" class="node"><title>Node9</title>
<g id="a_node9"><a xlink:href="structpkgCache_1_1PackageFile.xhtml" target="_top" xlink:title="stores information about the files used to generate the cache ">
<polygon fill="white" stroke="black" points="464.5,-409.5 464.5,-428.5 535.5,-428.5 535.5,-409.5 464.5,-409.5"/>
<text text-anchor="middle" x="500" y="-416.5" font-family="Helvetica,sans-Serif" font-size="10.00">PackageFile</text>
</a>
</g>
</g>
<!-- Node9&#45;&gt;Node4 -->
<g id="edge8" class="edge"><title>Node9&#45;&gt;Node4</title>
<path fill="none" stroke="#9a32cd" stroke-dasharray="5,2" d="M546.064,-419.239C573.928,-416.925 608.38,-409.213 630,-387 656.024,-360.262 625.758,-334.958 648,-305 650.741,-301.308 654.425,-298.237 658.357,-295.717"/>
<polygon fill="#9a32cd" stroke="#9a32cd" points="545.512,-415.766 535.748,-419.88 545.946,-422.753 545.512,-415.766"/>
<text text-anchor="middle" x="602" y="-418" font-family="Helvetica,sans-Serif" font-size="10.00"> PkgFileP</text>
</g>
<!-- Node10 -->
<g id="node10" class="node"><title>Node10</title>
<g id="a_node10"><a xlink:href="structpkgCache_1_1DescFile.xhtml" target="_top" xlink:title="associates a description with a Translation file ">
<polygon fill="white" stroke="black" points="472,-371.5 472,-390.5 528,-390.5 528,-371.5 472,-371.5"/>
<text text-anchor="middle" x="500" y="-378.5" font-family="Helvetica,sans-Serif" font-size="10.00">DescFile</text>
</a>
</g>
</g>
<!-- Node10&#45;&gt;Node4 -->
<g id="edge9" class="edge"><title>Node10&#45;&gt;Node4</title>
<path fill="none" stroke="#9a32cd" stroke-dasharray="5,2" d="M538.318,-378.959C566.455,-375.605 604.437,-366.974 630,-345 644.784,-332.292 634.826,-319.37 648,-305 651.382,-301.312 655.649,-298.168 660.008,-295.562"/>
<polygon fill="#9a32cd" stroke="#9a32cd" points="537.658,-375.508 528.063,-380.003 538.366,-382.472 537.658,-375.508"/>
<text text-anchor="middle" x="602" y="-375" font-family="Helvetica,sans-Serif" font-size="10.00"> DescFileP</text>
</g>
<!-- Node11 -->
<g id="node11" class="node"><title>Node11</title>
<g id="a_node11"><a xlink:href="structpkgCache_1_1StringItem.xhtml" target="_top" xlink:title="used for generating single instances of strings ">
<polygon fill="white" stroke="black" points="469,-333.5 469,-352.5 531,-352.5 531,-333.5 469,-333.5"/>
<text text-anchor="middle" x="500" y="-340.5" font-family="Helvetica,sans-Serif" font-size="10.00">StringItem</text>
</a>
</g>
</g>
<!-- Node11&#45;&gt;Node4 -->
<g id="edge10" class="edge"><title>Node11&#45;&gt;Node4</title>
<path fill="none" stroke="#9a32cd" stroke-dasharray="5,2" d="M540.912,-336.395C566.787,-331.464 600.96,-323.722 630,-313 636.871,-310.463 652.465,-302.237 664.795,-295.525"/>
<polygon fill="#9a32cd" stroke="#9a32cd" points="540.276,-332.953 531.077,-338.21 541.546,-339.836 540.276,-332.953"/>
<text text-anchor="middle" x="602" y="-333" font-family="Helvetica,sans-Serif" font-size="10.00"> StringItemP</text>
</g>
<!-- Node12 -->
<g id="node12" class="node"><title>Node12</title>
<g id="a_node12"><a xlink:href="structpkgCache_1_1Provides.xhtml" target="_top" xlink:title="handles virtual packages ">
<polygon fill="white" stroke="black" points="472.5,-295.5 472.5,-314.5 527.5,-314.5 527.5,-295.5 472.5,-295.5"/>
<text text-anchor="middle" x="500" y="-302.5" font-family="Helvetica,sans-Serif" font-size="10.00">Provides</text>
</a>
</g>
</g>
<!-- Node12&#45;&gt;Node4 -->
<g id="edge11" class="edge"><title>Node12&#45;&gt;Node4</title>
<path fill="none" stroke="#9a32cd" stroke-dasharray="5,2" d="M537.665,-301.151C571.504,-297.599 621.119,-292.391 652.475,-289.099"/>
<polygon fill="#9a32cd" stroke="#9a32cd" points="537.287,-297.672 527.707,-302.196 538.018,-304.633 537.287,-297.672"/>
<text text-anchor="middle" x="602" y="-301" font-family="Helvetica,sans-Serif" font-size="10.00"> ProvideP</text>
</g>
<!-- Node13 -->
<g id="node13" class="node"><title>Node13</title>
<g id="a_node13"><a xlink:title="STL class. ">
<polygon fill="white" stroke="#bfbfbf" points="144.5,-238.5 144.5,-257.5 185.5,-257.5 185.5,-238.5 144.5,-238.5"/>
<text text-anchor="middle" x="165" y="-245.5" font-family="Helvetica,sans-Serif" font-size="10.00">string</text>
</a>
</g>
</g>
<!-- Node13&#45;&gt;Node4 -->
<g id="edge12" class="edge"><title>Node13&#45;&gt;Node4</title>
<path fill="none" stroke="#9a32cd" stroke-dasharray="5,2" d="M195.689,-252.086C198.496,-252.418 201.3,-252.729 204,-253 373.263,-269.962 577.126,-280.883 652.299,-284.59"/>
<polygon fill="#9a32cd" stroke="#9a32cd" points="196.055,-248.605 185.696,-250.827 195.18,-255.55 196.055,-248.605"/>
<text text-anchor="middle" x="401" y="-275" font-family="Helvetica,sans-Serif" font-size="10.00"> CacheFile</text>
</g>
<!-- Node21 -->
<g id="node21" class="node"><title>Node21</title>
<g id="a_node21"><a xlink:href="classFileFd.xhtml" target="_top" xlink:title="FileFd">
<polygon fill="white" stroke="black" points="314,-219.5 314,-238.5 358,-238.5 358,-219.5 314,-219.5"/>
<text text-anchor="middle" x="336" y="-226.5" font-family="Helvetica,sans-Serif" font-size="10.00">FileFd</text>
</a>
</g>
</g>
<!-- Node13&#45;&gt;Node21 -->
<g id="edge22" class="edge"><title>Node13&#45;&gt;Node21</title>
<path fill="none" stroke="#9a32cd" stroke-dasharray="5,2" d="M192.707,-234.457C196.422,-233.048 200.251,-231.83 204,-231 241.975,-222.589 287.668,-224.522 313.824,-226.733"/>
<polygon fill="#9a32cd" stroke="#9a32cd" points="191.089,-231.342 183.274,-238.496 193.844,-237.777 191.089,-231.342"/>
<text text-anchor="middle" x="250" y="-245" font-family="Helvetica,sans-Serif" font-size="10.00"> TemporaryFileName</text>
<text text-anchor="middle" x="250" y="-234" font-family="Helvetica,sans-Serif" font-size="10.00">FileName</text>
</g>
<!-- Node14 -->
<g id="node14" class="node"><title>Node14</title>
<g id="a_node14"><a xlink:title="STL class. ">
<polygon fill="white" stroke="#bfbfbf" points="0,-238.5 0,-257.5 106,-257.5 106,-238.5 0,-238.5"/>
<text text-anchor="middle" x="53" y="-245.5" font-family="Helvetica,sans-Serif" font-size="10.00">basic_string&lt; char &gt;</text>
</a>
</g>
</g>
<!-- Node14&#45;&gt;Node13 -->
<g id="edge13" class="edge"><title>Node14&#45;&gt;Node13</title>
<path fill="none" stroke="midnightblue" d="M116.338,-248C126.515,-248 136.35,-248 144.416,-248"/>
<polygon fill="midnightblue" stroke="midnightblue" points="116.101,-244.5 106.101,-248 116.101,-251.5 116.101,-244.5"/>
</g>
<!-- Node15 -->
<g id="node15" class="node"><title>Node15</title>
<g id="a_node15"><a xlink:href="structpkgCache_1_1Group.xhtml" target="_top" xlink:title="groups architecture depending packages together ">
<polygon fill="white" stroke="black" points="478.5,-181.5 478.5,-200.5 521.5,-200.5 521.5,-181.5 478.5,-181.5"/>
<text text-anchor="middle" x="500" y="-188.5" font-family="Helvetica,sans-Serif" font-size="10.00">Group</text>
</a>
</g>
</g>
<!-- Node15&#45;&gt;Node4 -->
<g id="edge14" class="edge"><title>Node15&#45;&gt;Node4</title>
<path fill="none" stroke="#9a32cd" stroke-dasharray="5,2" d="M531.841,-187.598C560.577,-186.186 602.945,-188.842 630,-212 649.54,-228.725 631.653,-247.143 648,-267 651.094,-270.759 655.138,-273.906 659.351,-276.489"/>
<polygon fill="#9a32cd" stroke="#9a32cd" points="531.292,-184.127 521.555,-188.304 531.771,-191.111 531.292,-184.127"/>
<text text-anchor="middle" x="602" y="-215" font-family="Helvetica,sans-Serif" font-size="10.00"> GrpP</text>
</g>
<!-- Node16 -->
<g id="node16" class="node"><title>Node16</title>
<g id="a_node16"><a xlink:href="classpkgVersioningSystem.xhtml" target="_top" xlink:title="pkgVersioningSystem">
<polygon fill="white" stroke="black" points="444,-114.5 444,-133.5 556,-133.5 556,-114.5 444,-114.5"/>
<text text-anchor="middle" x="500" y="-121.5" font-family="Helvetica,sans-Serif" font-size="10.00">pkgVersioningSystem</text>
</a>
</g>
</g>
<!-- Node16&#45;&gt;Node4 -->
<g id="edge15" class="edge"><title>Node16&#45;&gt;Node4</title>
<path fill="none" stroke="#9a32cd" stroke-dasharray="5,2" d="M566.114,-136.101C589.429,-143.586 613.898,-155.639 630,-175 656.641,-207.033 623.548,-233.266 648,-267 650.699,-270.723 654.362,-273.809 658.288,-276.333"/>
<polygon fill="#9a32cd" stroke="#9a32cd" points="566.803,-132.654 556.22,-133.164 564.811,-139.365 566.803,-132.654"/>
<text text-anchor="middle" x="602" y="-178" font-family="Helvetica,sans-Serif" font-size="10.00"> VS</text>
</g>
<!-- Node16&#45;&gt;Node16 -->
<g id="edge16" class="edge"><title>Node16&#45;&gt;Node16</title>
<path fill="none" stroke="#9a32cd" stroke-dasharray="5,2" d="M481.853,-143.4C483.065,-148.315 489.114,-152 500,-152 517.418,-152 522.453,-142.565 515.105,-133.757"/>
<polygon fill="#9a32cd" stroke="#9a32cd" points="485.224,-144.347 484.895,-133.757 478.548,-142.24 485.224,-144.347"/>
<text text-anchor="middle" x="500" y="-155" font-family="Helvetica,sans-Serif" font-size="10.00"> GlobalList</text>
</g>
<!-- Node17 -->
<g id="node17" class="node"><title>Node17</title>
<g id="a_node17"><a xlink:href="structpkgCache_1_1Version.xhtml" target="_top" xlink:title="information for a single version of a package ">
<polygon fill="white" stroke="black" points="475,-76.5 475,-95.5 525,-95.5 525,-76.5 475,-76.5"/>
<text text-anchor="middle" x="500" y="-83.5" font-family="Helvetica,sans-Serif" font-size="10.00">Version</text>
</a>
</g>
</g>
<!-- Node17&#45;&gt;Node4 -->
<g id="edge17" class="edge"><title>Node17&#45;&gt;Node4</title>
<path fill="none" stroke="#9a32cd" stroke-dasharray="5,2" d="M535.496,-86.2813C565.198,-88.51 606.829,-96.7555 630,-124 671.5,-172.796 612.19,-213.887 648,-267 650.57,-270.813 654.174,-273.94 658.081,-276.478"/>
<polygon fill="#9a32cd" stroke="#9a32cd" points="535.327,-82.7667 525.149,-85.7084 534.94,-89.756 535.327,-82.7667"/>
<text text-anchor="middle" x="602" y="-127" font-family="Helvetica,sans-Serif" font-size="10.00"> VerP</text>
</g>
<!-- Node18 -->
<g id="node18" class="node"><title>Node18</title>
<g id="a_node18"><a xlink:href="structpkgCache_1_1VerFile.xhtml" target="_top" xlink:title="associates a version with a PackageFile ">
<polygon fill="white" stroke="black" points="476.5,-38.5 476.5,-57.5 523.5,-57.5 523.5,-38.5 476.5,-38.5"/>
<text text-anchor="middle" x="500" y="-45.5" font-family="Helvetica,sans-Serif" font-size="10.00">VerFile</text>
</a>
</g>
</g>
<!-- Node18&#45;&gt;Node4 -->
<g id="edge18" class="edge"><title>Node18&#45;&gt;Node4</title>
<path fill="none" stroke="#9a32cd" stroke-dasharray="5,2" d="M533.944,-45.7971C563.725,-45.7759 606.406,-51.0247 630,-78 657.776,-109.757 624.947,-231.665 648,-267 650.439,-270.738 653.88,-273.811 657.644,-276.314"/>
<polygon fill="#9a32cd" stroke="#9a32cd" points="533.54,-42.3047 523.615,-46.0129 533.686,-49.3032 533.54,-42.3047"/>
<text text-anchor="middle" x="602" y="-81" font-family="Helvetica,sans-Serif" font-size="10.00"> VerFileP</text>
</g>
<!-- Node19 -->
<g id="node19" class="node"><title>Node19</title>
<g id="a_node19"><a xlink:href="structpkgCache_1_1Package.xhtml" target="_top" xlink:title="contains information for a single unique package ">
<polygon fill="white" stroke="black" points="472.5,-0.5 472.5,-19.5 527.5,-19.5 527.5,-0.5 472.5,-0.5"/>
<text text-anchor="middle" x="500" y="-7.5" font-family="Helvetica,sans-Serif" font-size="10.00">Package</text>
</a>
</g>
</g>
<!-- Node19&#45;&gt;Node4 -->
<g id="edge19" class="edge"><title>Node19&#45;&gt;Node4</title>
<path fill="none" stroke="#9a32cd" stroke-dasharray="5,2" d="M538.069,-6.1533C567.528,-5.34271 607.414,-9.68003 630,-35 664.422,-73.5884 620.125,-223.446 648,-267 650.406,-270.759 653.831,-273.843 657.59,-276.349"/>
<polygon fill="#9a32cd" stroke="#9a32cd" points="537.556,-2.67397 527.738,-6.65553 537.896,-9.66572 537.556,-2.67397"/>
<text text-anchor="middle" x="602" y="-38" font-family="Helvetica,sans-Serif" font-size="10.00"> PkgP</text>
</g>
<!-- Node20 -->
<g id="node20" class="node"><title>Node20</title>
<g id="a_node20"><a xlink:href="classMMap.xhtml" target="_top" xlink:title="MMap">
<polygon fill="white" stroke="black" points="478,-219.5 478,-238.5 522,-238.5 522,-219.5 478,-219.5"/>
<text text-anchor="middle" x="500" y="-226.5" font-family="Helvetica,sans-Serif" font-size="10.00">MMap</text>
</a>
</g>
</g>
<!-- Node20&#45;&gt;Node4 -->
<g id="edge20" class="edge"><title>Node20&#45;&gt;Node4</title>
<path fill="none" stroke="#9a32cd" stroke-dasharray="5,2" d="M532.507,-225.248C560.066,-223.505 600.228,-224.811 630,-242 641.857,-248.846 637.781,-257.888 648,-267 651.937,-270.51 656.631,-273.645 661.255,-276.308"/>
<polygon fill="#9a32cd" stroke="#9a32cd" points="531.94,-221.782 522.253,-226.073 532.501,-228.76 531.94,-221.782"/>
<text text-anchor="middle" x="602" y="-245" font-family="Helvetica,sans-Serif" font-size="10.00"> Map</text>
</g>
<!-- Node21&#45;&gt;Node20 -->
<g id="edge21" class="edge"><title>Node21&#45;&gt;Node20</title>
<path fill="none" stroke="#9a32cd" stroke-dasharray="5,2" d="M368.403,-229C400.64,-229 449.92,-229 477.816,-229"/>
<polygon fill="#9a32cd" stroke="#9a32cd" points="368.179,-225.5 358.179,-229 368.179,-232.5 368.179,-225.5"/>
<text text-anchor="middle" x="401" y="-232" font-family="Helvetica,sans-Serif" font-size="10.00"> SyncToFd</text>
</g>
<!-- Node22 -->
<g id="node22" class="node"><title>Node22</title>
<g id="a_node22"><a xlink:href="structpkgDepCache_1_1StateCache.xhtml" target="_top" xlink:title="StateCache">
<polygon fill="white" stroke="black" points="649,-238.5 649,-257.5 717,-257.5 717,-238.5 649,-238.5"/>
<text text-anchor="middle" x="683" y="-245.5" font-family="Helvetica,sans-Serif" font-size="10.00">StateCache</text>
</a>
</g>
</g>
<!-- Node22&#45;&gt;Node1 -->
<g id="edge23" class="edge"><title>Node22&#45;&gt;Node1</title>
<path fill="none" stroke="#9a32cd" stroke-dasharray="5,2" d="M726.902,-256.3C749.089,-261.197 776.394,-268.174 800,-277 814.144,-282.288 829.347,-290.142 840.492,-296.344"/>
<polygon fill="#9a32cd" stroke="#9a32cd" points="727.612,-252.873 717.1,-254.197 726.144,-259.717 727.612,-252.873"/>
<text text-anchor="middle" x="768" y="-280" font-family="Helvetica,sans-Serif" font-size="10.00"> PkgState</text>
</g>
</g>
</svg>
