<?xml version="1.0" encoding="UTF-8" standalone="no"?>
<!DOCTYPE svg PUBLIC "-//W3C//DTD SVG 1.1//EN"
 "http://www.w3.org/Graphics/SVG/1.1/DTD/svg11.dtd">
<!-- Generated by graphviz version 2.36.0 (20140111.2315)
 -->
<!-- Title: debSLTypeDeb Pages: 1 -->
<svg width="140pt" height="144pt"
 viewBox="0.00 0.00 140.00 144.00" xmlns="http://www.w3.org/2000/svg" xmlns:xlink="http://www.w3.org/1999/xlink">
<g id="graph0" class="graph" transform="scale(1 1) rotate(0) translate(4 140)">
<title>debSLTypeDeb</title>
<polygon fill="white" stroke="none" points="-4,4 -4,-140 136,-140 136,4 -4,4"/>
<!-- Node1 -->
<g id="node1" class="node"><title>Node1</title>
<polygon fill="#bfbfbf" stroke="black" points="6,-0.5 6,-19.5 90,-19.5 90,-0.5 6,-0.5"/>
<text text-anchor="middle" x="48" y="-7.5" font-family="Helvetica,sans-Serif" font-size="10.00">debSLTypeDeb</text>
</g>
<!-- Node2 -->
<g id="node2" class="node"><title>Node2</title>
<g id="a_node2"><a xlink:href="classdebSLTypeDebian.xhtml" target="_top" xlink:title="debSLTypeDebian">
<polygon fill="white" stroke="black" points="-0.5,-58.5 -0.5,-77.5 96.5,-77.5 96.5,-58.5 -0.5,-58.5"/>
<text text-anchor="middle" x="48" y="-65.5" font-family="Helvetica,sans-Serif" font-size="10.00">debSLTypeDebian</text>
</a>
</g>
</g>
<!-- Node2&#45;&gt;Node1 -->
<g id="edge1" class="edge"><title>Node2&#45;&gt;Node1</title>
<path fill="none" stroke="midnightblue" d="M48,-47.953C48,-38.2875 48,-27.0312 48,-19.5052"/>
<polygon fill="midnightblue" stroke="midnightblue" points="44.5001,-48.25 48,-58.25 51.5001,-48.25 44.5001,-48.25"/>
</g>
<!-- Node3 -->
<g id="node3" class="node"><title>Node3</title>
<g id="a_node3"><a xlink:href="classpkgSourceList_1_1Type.xhtml" target="_top" xlink:title="Type">
<polygon fill="white" stroke="black" points="29,-116.5 29,-135.5 67,-135.5 67,-116.5 29,-116.5"/>
<text text-anchor="middle" x="48" y="-123.5" font-family="Helvetica,sans-Serif" font-size="10.00">Type</text>
</a>
</g>
</g>
<!-- Node3&#45;&gt;Node2 -->
<g id="edge2" class="edge"><title>Node3&#45;&gt;Node2</title>
<path fill="none" stroke="midnightblue" d="M48,-105.953C48,-96.2875 48,-85.0312 48,-77.5052"/>
<polygon fill="midnightblue" stroke="midnightblue" points="44.5001,-106.25 48,-116.25 51.5001,-106.25 44.5001,-106.25"/>
</g>
<!-- Node3&#45;&gt;Node3 -->
<g id="edge3" class="edge"><title>Node3&#45;&gt;Node3</title>
<path fill="none" stroke="#9a32cd" stroke-dasharray="5,2" d="M77.2501,-130.821C81.8553,-130.106 85,-128.499 85,-126 85,-121.898 76.5314,-120.2 67.0372,-120.905"/>
<polygon fill="#9a32cd" stroke="#9a32cd" points="76.9397,-127.328 67.0372,-131.095 77.1276,-134.325 76.9397,-127.328"/>
<text text-anchor="middle" x="108.5" y="-123.5" font-family="Helvetica,sans-Serif" font-size="10.00"> GlobalList</text>
</g>
</g>
</svg>
