<?xml version="1.0" encoding="UTF-8" standalone="no"?>
<!DOCTYPE svg PUBLIC "-//W3C//DTD SVG 1.1//EN"
 "http://www.w3.org/Graphics/SVG/1.1/DTD/svg11.dtd">
<!-- Generated by graphviz version 2.36.0 (20140111.2315)
 -->
<!-- Title: pkgAcqIndexDiffs Pages: 1 -->
<svg width="981pt" height="578pt"
 viewBox="0.00 0.00 981.00 578.00" xmlns="http://www.w3.org/2000/svg" xmlns:xlink="http://www.w3.org/1999/xlink">
<g id="graph0" class="graph" transform="scale(1 1) rotate(0) translate(4 574)">
<title>pkgAcqIndexDiffs</title>
<polygon fill="white" stroke="none" points="-4,4 -4,-574 977,-574 977,4 -4,4"/>
<!-- Node1 -->
<g id="node1" class="node"><title>Node1</title>
<polygon fill="#bfbfbf" stroke="black" points="211.5,-206.5 211.5,-225.5 306.5,-225.5 306.5,-206.5 211.5,-206.5"/>
<text text-anchor="middle" x="259" y="-213.5" font-family="Helvetica,sans-Serif" font-size="10.00">pkgAcqIndexDiffs</text>
</g>
<!-- Node2 -->
<g id="node2" class="node"><title>Node2</title>
<g id="a_node2"><a xlink:href="classpkgAcquire_1_1Item.xhtml" target="_top" xlink:title="Represents the process by which a pkgAcquire object should {{{ retrieve a file or a collection of fil...">
<polygon fill="white" stroke="black" points="666,-395.5 666,-414.5 702,-414.5 702,-395.5 666,-395.5"/>
<text text-anchor="middle" x="684" y="-402.5" font-family="Helvetica,sans-Serif" font-size="10.00">Item</text>
</a>
</g>
</g>
<!-- Node2&#45;&gt;Node1 -->
<g id="edge1" class="edge"><title>Node2&#45;&gt;Node1</title>
<path fill="none" stroke="midnightblue" d="M683.816,-385.433C682.516,-361.178 676.443,-319.09 651,-296 625.584,-272.935 405.529,-238.365 306.703,-223.827"/>
<polygon fill="midnightblue" stroke="midnightblue" points="680.319,-385.584 684.132,-395.469 687.315,-385.363 680.319,-385.584"/>
</g>
<!-- Node7 -->
<g id="node7" class="node"><title>Node7</title>
<g id="a_node7"><a xlink:href="structpkgAcquire_1_1ItemDesc.xhtml" target="_top" xlink:title="Represents a single download source from which an item should be downloaded. ">
<polygon fill="white" stroke="black" points="375.5,-297.5 375.5,-316.5 434.5,-316.5 434.5,-297.5 375.5,-297.5"/>
<text text-anchor="middle" x="405" y="-304.5" font-family="Helvetica,sans-Serif" font-size="10.00">ItemDesc</text>
</a>
</g>
</g>
<!-- Node2&#45;&gt;Node7 -->
<g id="edge11" class="edge"><title>Node2&#45;&gt;Node7</title>
<path fill="none" stroke="#9a32cd" stroke-dasharray="5,2" d="M660.088,-390.425C632.278,-375.165 584.6,-350.616 541,-336 505.344,-324.047 462.642,-316.264 434.722,-312.008"/>
<polygon fill="#9a32cd" stroke="#9a32cd" points="658.615,-393.611 669.057,-395.404 662.013,-387.49 658.615,-393.611"/>
<text text-anchor="middle" x="637" y="-350.5" font-family="Helvetica,sans-Serif" font-size="10.00"> Owner</text>
</g>
<!-- Node14 -->
<g id="node14" class="node"><title>Node14</title>
<polygon fill="white" stroke="#bfbfbf" points="728.5,-246 728.5,-276 829.5,-276 829.5,-246 728.5,-246"/>
<text text-anchor="start" x="736.5" y="-264" font-family="Helvetica,sans-Serif" font-size="10.00">vector&lt; pkgAcquire</text>
<text text-anchor="middle" x="779" y="-253" font-family="Helvetica,sans-Serif" font-size="10.00">::Item * &gt;</text>
</g>
<!-- Node2&#45;&gt;Node14 -->
<g id="edge30" class="edge"><title>Node2&#45;&gt;Node14</title>
<path fill="none" stroke="#9a32cd" stroke-dasharray="5,2" d="M706.313,-389.41C713.541,-383.935 721.185,-377.261 727,-370 750.805,-340.274 767.148,-297.859 774.533,-276.086"/>
<polygon fill="#9a32cd" stroke="#9a32cd" points="704.248,-386.584 698.154,-395.251 708.322,-392.276 704.248,-386.584"/>
<text text-anchor="middle" x="770.5" y="-350.5" font-family="Helvetica,sans-Serif" font-size="10.00"> elements</text>
</g>
<!-- Node3 -->
<g id="node3" class="node"><title>Node3</title>
<g id="a_node3"><a xlink:href="classWeakPointable.xhtml" target="_top" xlink:title="WeakPointable">
<polygon fill="white" stroke="black" points="645.5,-492.5 645.5,-511.5 728.5,-511.5 728.5,-492.5 645.5,-492.5"/>
<text text-anchor="middle" x="687" y="-499.5" font-family="Helvetica,sans-Serif" font-size="10.00">WeakPointable</text>
</a>
</g>
</g>
<!-- Node3&#45;&gt;Node2 -->
<g id="edge2" class="edge"><title>Node3&#45;&gt;Node2</title>
<path fill="none" stroke="midnightblue" d="M686.407,-482.227C685.762,-461.793 684.758,-430.001 684.276,-414.746"/>
<polygon fill="midnightblue" stroke="midnightblue" points="682.909,-482.348 686.723,-492.233 689.906,-482.127 682.909,-482.348"/>
</g>
<!-- Node3&#45;&gt;Node7 -->
<g id="edge8" class="edge"><title>Node3&#45;&gt;Node7</title>
<path fill="none" stroke="midnightblue" d="M644.53,-489.623C588.621,-472.568 490.686,-435.205 433,-370 418.757,-353.901 410.614,-329.356 407.096,-316.511"/>
<polygon fill="midnightblue" stroke="midnightblue" points="643.546,-492.981 654.129,-492.477 645.541,-486.272 643.546,-492.981"/>
</g>
<!-- Node10 -->
<g id="node10" class="node"><title>Node10</title>
<g id="a_node10"><a xlink:href="classpkgAcquire_1_1Worker.xhtml" target="_top" xlink:title="A fetch subprocess. ">
<polygon fill="white" stroke="black" points="480,-69.5 480,-88.5 528,-88.5 528,-69.5 480,-69.5"/>
<text text-anchor="middle" x="504" y="-76.5" font-family="Helvetica,sans-Serif" font-size="10.00">Worker</text>
</a>
</g>
</g>
<!-- Node3&#45;&gt;Node10 -->
<g id="edge14" class="edge"><title>Node3&#45;&gt;Node10</title>
<path fill="none" stroke="midnightblue" d="M706.705,-485.905C754.551,-447.295 870.143,-341.131 831,-244 806.562,-183.359 785.191,-171.424 729,-138 685.816,-112.313 668.65,-120.563 620,-108 588.306,-99.8156 551.548,-91.0681 528.049,-85.5701"/>
<polygon fill="midnightblue" stroke="midnightblue" points="704.281,-483.36 698.612,-492.311 708.626,-488.849 704.281,-483.36"/>
</g>
<!-- Node4 -->
<g id="node4" class="node"><title>Node4</title>
<g id="a_node4"><a xlink:href="classpkgAcquire.xhtml" target="_top" xlink:title="The core download scheduler. {{{. ">
<polygon fill="white" stroke="black" points="732.5,-0.5 732.5,-19.5 797.5,-19.5 797.5,-0.5 732.5,-0.5"/>
<text text-anchor="middle" x="765" y="-7.5" font-family="Helvetica,sans-Serif" font-size="10.00">pkgAcquire</text>
</a>
</g>
</g>
<!-- Node4&#45;&gt;Node2 -->
<g id="edge3" class="edge"><title>Node4&#45;&gt;Node2</title>
<path fill="none" stroke="#9a32cd" stroke-dasharray="5,2" d="M789.841,-24.4738C832.253,-49.324 911.174,-104.716 880,-158 840.609,-225.329 774.866,-182.406 727,-244 726.393,-244.781 695.073,-362.384 686.276,-395.444"/>
<polygon fill="#9a32cd" stroke="#9a32cd" points="791.571,-21.4316 781.152,-19.5098 788.099,-27.5096 791.571,-21.4316"/>
<text text-anchor="middle" x="882" y="-179.5" font-family="Helvetica,sans-Serif" font-size="10.00"> Owner</text>
</g>
<!-- Node5 -->
<g id="node5" class="node"><title>Node5</title>
<g id="a_node5"><a xlink:href="classpkgAcquire_1_1Queue.xhtml" target="_top" xlink:title="A single download queue in a pkgAcquire object. {{{. ">
<polygon fill="white" stroke="black" points="235.5,-138.5 235.5,-157.5 280.5,-157.5 280.5,-138.5 235.5,-138.5"/>
<text text-anchor="middle" x="258" y="-145.5" font-family="Helvetica,sans-Serif" font-size="10.00">Queue</text>
</a>
</g>
</g>
<!-- Node4&#45;&gt;Node5 -->
<g id="edge5" class="edge"><title>Node4&#45;&gt;Node5</title>
<path fill="none" stroke="#9a32cd" stroke-dasharray="5,2" d="M722.229,-12.9019C612.353,-18.7333 324.504,-40.2909 263,-108 255.565,-116.186 255.537,-129.629 256.52,-138.398"/>
<polygon fill="#9a32cd" stroke="#9a32cd" points="722.485,-16.3934 732.293,-12.3856 722.127,-9.40259 722.485,-16.3934"/>
<text text-anchor="middle" x="349" y="-76.5" font-family="Helvetica,sans-Serif" font-size="10.00"> Owner</text>
</g>
<!-- Node5&#45;&gt;Node4 -->
<g id="edge4" class="edge"><title>Node5&#45;&gt;Node4</title>
<path fill="none" stroke="#9a32cd" stroke-dasharray="5,2" d="M229.188,-133.549C212.373,-123.993 192.627,-109.408 183,-90 169.419,-62.6198 198.98,-47.5887 228,-38 275.696,-22.2406 622.832,-13.8944 732.138,-11.6366"/>
<polygon fill="#9a32cd" stroke="#9a32cd" points="227.676,-136.71 238.145,-138.34 230.978,-130.537 227.676,-136.71"/>
<text text-anchor="middle" x="201.5" y="-76.5" font-family="Helvetica,sans-Serif" font-size="10.00"> Queues</text>
</g>
<!-- Node5&#45;&gt;Node10 -->
<g id="edge15" class="edge"><title>Node5&#45;&gt;Node10</title>
<path fill="none" stroke="#9a32cd" stroke-dasharray="5,2" d="M262.312,-128.428C265.005,-120.926 269.285,-112.899 276,-108 308.057,-84.6126 428.047,-80.6659 479.891,-80.0679"/>
<polygon fill="#9a32cd" stroke="#9a32cd" points="258.873,-127.725 259.475,-138.302 265.601,-129.658 258.873,-127.725"/>
<text text-anchor="middle" x="296" y="-111.5" font-family="Helvetica,sans-Serif" font-size="10.00"> OwnerQ</text>
</g>
<!-- Node6 -->
<g id="node6" class="node"><title>Node6</title>
<g id="a_node6"><a xlink:href="structpkgAcquire_1_1Queue_1_1QItem.xhtml" target="_top" xlink:title="A single item placed in this queue. ">
<polygon fill="white" stroke="black" points="370,-206.5 370,-225.5 414,-225.5 414,-206.5 370,-206.5"/>
<text text-anchor="middle" x="392" y="-213.5" font-family="Helvetica,sans-Serif" font-size="10.00">QItem</text>
</a>
</g>
</g>
<!-- Node6&#45;&gt;Node5 -->
<g id="edge6" class="edge"><title>Node6&#45;&gt;Node5</title>
<path fill="none" stroke="#9a32cd" stroke-dasharray="5,2" d="M365.326,-201.862C338.652,-188.724 298.397,-168.897 275.522,-157.63"/>
<polygon fill="#9a32cd" stroke="#9a32cd" points="363.964,-205.093 374.482,-206.372 367.057,-198.813 363.964,-205.093"/>
<text text-anchor="middle" x="352" y="-179.5" font-family="Helvetica,sans-Serif" font-size="10.00"> Items</text>
</g>
<!-- Node6&#45;&gt;Node6 -->
<g id="edge12" class="edge"><title>Node6&#45;&gt;Node6</title>
<path fill="none" stroke="#9a32cd" stroke-dasharray="5,2" d="M424.111,-221.591C428.259,-220.624 431,-218.76 431,-216 431,-211.352 423.224,-209.245 414.051,-209.681"/>
<polygon fill="#9a32cd" stroke="#9a32cd" points="423.772,-218.107 414.051,-222.319 424.277,-225.088 423.772,-218.107"/>
<text text-anchor="middle" x="443.5" y="-213.5" font-family="Helvetica,sans-Serif" font-size="10.00"> Next</text>
</g>
<!-- Node6&#45;&gt;Node10 -->
<g id="edge19" class="edge"><title>Node6&#45;&gt;Node10</title>
<path fill="none" stroke="#9a32cd" stroke-dasharray="5,2" d="M415.949,-201.136C432.656,-190.695 454.775,-175.259 471,-158 484.682,-143.446 487.363,-138.458 495,-120 499.3,-109.608 501.72,-96.8067 502.943,-88.5288"/>
<polygon fill="#9a32cd" stroke="#9a32cd" points="414.019,-198.214 407.297,-206.403 417.658,-204.193 414.019,-198.214"/>
<text text-anchor="middle" x="514.5" y="-145.5" font-family="Helvetica,sans-Serif" font-size="10.00"> CurrentItem</text>
</g>
<!-- Node7&#45;&gt;Node1 -->
<g id="edge39" class="edge"><title>Node7&#45;&gt;Node1</title>
<path fill="none" stroke="#9a32cd" stroke-dasharray="5,2" d="M364.924,-303.787C341.897,-300.732 313.559,-293.748 293,-278 283.856,-270.996 269.557,-240.787 262.791,-225.676"/>
<polygon fill="#9a32cd" stroke="#9a32cd" points="364.754,-307.29 375.083,-304.932 365.538,-300.334 364.754,-307.29"/>
<text text-anchor="middle" x="306.5" y="-258.5" font-family="Helvetica,sans-Serif" font-size="10.00"> Desc</text>
</g>
<!-- Node7&#45;&gt;Node6 -->
<g id="edge7" class="edge"><title>Node7&#45;&gt;Node6</title>
<path fill="none" stroke="midnightblue" d="M402.276,-287.349C399.505,-268.383 395.334,-239.828 393.262,-225.639"/>
<polygon fill="midnightblue" stroke="midnightblue" points="398.845,-288.077 403.754,-297.466 405.771,-287.065 398.845,-288.077"/>
</g>
<!-- Node8 -->
<g id="node8" class="node"><title>Node8</title>
<g id="a_node8"><a xlink:title="STL class. ">
<polygon fill="white" stroke="#bfbfbf" points="321.5,-492.5 321.5,-511.5 362.5,-511.5 362.5,-492.5 321.5,-492.5"/>
<text text-anchor="middle" x="342" y="-499.5" font-family="Helvetica,sans-Serif" font-size="10.00">string</text>
</a>
</g>
</g>
<!-- Node8&#45;&gt;Node1 -->
<g id="edge36" class="edge"><title>Node8&#45;&gt;Node1</title>
<path fill="none" stroke="#9a32cd" stroke-dasharray="5,2" d="M330.579,-483.843C315.085,-459.614 287.864,-413.465 275,-370 259.235,-316.733 258.525,-249.021 258.814,-225.502"/>
<polygon fill="#9a32cd" stroke="#9a32cd" points="327.68,-485.805 336.069,-492.276 333.546,-481.986 327.68,-485.805"/>
<text text-anchor="middle" x="301.5" y="-361.5" font-family="Helvetica,sans-Serif" font-size="10.00"> Description</text>
<text text-anchor="middle" x="301.5" y="-350.5" font-family="Helvetica,sans-Serif" font-size="10.00">RealURI</text>
<text text-anchor="middle" x="301.5" y="-339.5" font-family="Helvetica,sans-Serif" font-size="10.00">ServerSha1</text>
</g>
<!-- Node8&#45;&gt;Node2 -->
<g id="edge32" class="edge"><title>Node8&#45;&gt;Node2</title>
<path fill="none" stroke="#9a32cd" stroke-dasharray="5,2" d="M372.945,-501.916C419.19,-502.312 508.441,-499.283 579,-474 584.06,-472.187 644.104,-432.5 671.052,-414.611"/>
<polygon fill="#9a32cd" stroke="#9a32cd" points="372.734,-498.413 362.684,-501.765 372.631,-505.412 372.734,-498.413"/>
<text text-anchor="middle" x="655.5" y="-465.5" font-family="Helvetica,sans-Serif" font-size="10.00"> DestFile</text>
<text text-anchor="middle" x="655.5" y="-454.5" font-family="Helvetica,sans-Serif" font-size="10.00">ErrorText</text>
<text text-anchor="middle" x="655.5" y="-443.5" font-family="Helvetica,sans-Serif" font-size="10.00">UsedMirror</text>
</g>
<!-- Node8&#45;&gt;Node5 -->
<g id="edge25" class="edge"><title>Node8&#45;&gt;Node5</title>
<path fill="none" stroke="#9a32cd" stroke-dasharray="5,2" d="M311.175,-499.046C227.091,-492.88 0,-470.275 0,-406 0,-406 0,-406 0,-215 0,-166.685 171.962,-153.269 235.104,-149.971"/>
<polygon fill="#9a32cd" stroke="#9a32cd" points="311.155,-502.554 321.377,-499.765 311.647,-495.571 311.155,-502.554"/>
<text text-anchor="middle" x="15" y="-304.5" font-family="Helvetica,sans-Serif" font-size="10.00"> Name</text>
</g>
<!-- Node8&#45;&gt;Node7 -->
<g id="edge9" class="edge"><title>Node8&#45;&gt;Node7</title>
<path fill="none" stroke="#9a32cd" stroke-dasharray="5,2" d="M351.828,-483.216C353.326,-480.186 354.778,-477.037 356,-474 379.451,-415.741 397.27,-341.966 403.023,-316.84"/>
<polygon fill="#9a32cd" stroke="#9a32cd" points="348.66,-481.722 347.107,-492.202 354.856,-484.977 348.66,-481.722"/>
<text text-anchor="middle" x="411.5" y="-413.5" font-family="Helvetica,sans-Serif" font-size="10.00"> Description</text>
<text text-anchor="middle" x="411.5" y="-402.5" font-family="Helvetica,sans-Serif" font-size="10.00">URI</text>
<text text-anchor="middle" x="411.5" y="-391.5" font-family="Helvetica,sans-Serif" font-size="10.00">ShortDesc</text>
</g>
<!-- Node8&#45;&gt;Node10 -->
<g id="edge20" class="edge"><title>Node8&#45;&gt;Node10</title>
<path fill="none" stroke="#9a32cd" stroke-dasharray="5,2" d="M342,-482.283C342,-463.123 342,-432.485 342,-406 342,-406 342,-406 342,-215 342,-144.159 434.554,-103.281 479.747,-87.5434"/>
<polygon fill="#9a32cd" stroke="#9a32cd" points="338.5,-482.355 342,-492.355 345.5,-482.355 338.5,-482.355"/>
<text text-anchor="middle" x="366" y="-269.5" font-family="Helvetica,sans-Serif" font-size="10.00"> OutQueue</text>
<text text-anchor="middle" x="366" y="-258.5" font-family="Helvetica,sans-Serif" font-size="10.00">Access</text>
<text text-anchor="middle" x="366" y="-247.5" font-family="Helvetica,sans-Serif" font-size="10.00">Status</text>
</g>
<!-- Node11 -->
<g id="node11" class="node"><title>Node11</title>
<g id="a_node11"><a xlink:href="structpkgAcquire_1_1MethodConfig.xhtml" target="_top" xlink:title="Information about the properties of a single acquire method. {{{. ">
<polygon fill="white" stroke="black" points="600.5,-138.5 600.5,-157.5 677.5,-157.5 677.5,-138.5 600.5,-138.5"/>
<text text-anchor="middle" x="639" y="-145.5" font-family="Helvetica,sans-Serif" font-size="10.00">MethodConfig</text>
</a>
</g>
</g>
<!-- Node8&#45;&gt;Node11 -->
<g id="edge18" class="edge"><title>Node8&#45;&gt;Node11</title>
<path fill="none" stroke="#9a32cd" stroke-dasharray="5,2" d="M372.674,-499.855C402.112,-497.685 447.122,-491.499 482,-474 543.3,-443.244 562.418,-429.798 596,-370 637.533,-296.044 639.551,-188.673 639.202,-157.675"/>
<polygon fill="#9a32cd" stroke="#9a32cd" points="372.342,-496.369 362.58,-500.487 372.779,-503.356 372.342,-496.369"/>
<text text-anchor="middle" x="643.5" y="-310" font-family="Helvetica,sans-Serif" font-size="10.00"> Access</text>
<text text-anchor="middle" x="643.5" y="-299" font-family="Helvetica,sans-Serif" font-size="10.00">Version</text>
</g>
<!-- Node13 -->
<g id="node13" class="node"><title>Node13</title>
<polygon fill="white" stroke="#bfbfbf" points="434.5,-343.5 434.5,-362.5 539.5,-362.5 539.5,-343.5 434.5,-343.5"/>
<text text-anchor="middle" x="487" y="-350.5" font-family="Helvetica,sans-Serif" font-size="10.00">vector&lt; std::string &gt;</text>
</g>
<!-- Node8&#45;&gt;Node13 -->
<g id="edge23" class="edge"><title>Node8&#45;&gt;Node13</title>
<path fill="none" stroke="#9a32cd" stroke-dasharray="5,2" d="M372.022,-490.664C382.104,-486.392 393.051,-480.822 402,-474 443.622,-442.27 473.09,-384.407 483.179,-362.612"/>
<polygon fill="#9a32cd" stroke="#9a32cd" points="370.717,-487.416 362.715,-494.359 373.3,-493.922 370.717,-487.416"/>
<text text-anchor="middle" x="456.5" y="-454.5" font-family="Helvetica,sans-Serif" font-size="10.00"> elements</text>
</g>
<!-- Node16 -->
<g id="node16" class="node"><title>Node16</title>
<g id="a_node16"><a xlink:href="structDiffInfo.xhtml" target="_top" xlink:title="Information about an index patch (aka diff). ">
<polygon fill="white" stroke="black" points="118.5,-395.5 118.5,-414.5 167.5,-414.5 167.5,-395.5 118.5,-395.5"/>
<text text-anchor="middle" x="143" y="-402.5" font-family="Helvetica,sans-Serif" font-size="10.00">DiffInfo</text>
</a>
</g>
</g>
<!-- Node8&#45;&gt;Node16 -->
<g id="edge35" class="edge"><title>Node8&#45;&gt;Node16</title>
<path fill="none" stroke="#9a32cd" stroke-dasharray="5,2" d="M311.378,-499.846C267.678,-497.608 190.342,-491.265 169,-474 150.527,-459.055 145.164,-429.388 143.619,-414.681"/>
<polygon fill="#9a32cd" stroke="#9a32cd" points="311.297,-503.346 321.451,-500.32 311.626,-496.354 311.297,-503.346"/>
<text text-anchor="middle" x="181.5" y="-460" font-family="Helvetica,sans-Serif" font-size="10.00"> sha1</text>
<text text-anchor="middle" x="181.5" y="-449" font-family="Helvetica,sans-Serif" font-size="10.00">file</text>
</g>
<!-- Node17 -->
<g id="node17" class="node"><title>Node17</title>
<g id="a_node17"><a xlink:href="classHashString.xhtml" target="_top" xlink:title="HashString">
<polygon fill="white" stroke="black" points="165.5,-343.5 165.5,-362.5 230.5,-362.5 230.5,-343.5 165.5,-343.5"/>
<text text-anchor="middle" x="198" y="-350.5" font-family="Helvetica,sans-Serif" font-size="10.00">HashString</text>
</a>
</g>
</g>
<!-- Node8&#45;&gt;Node17 -->
<g id="edge38" class="edge"><title>Node8&#45;&gt;Node17</title>
<path fill="none" stroke="#9a32cd" stroke-dasharray="5,2" d="M311.217,-501.015C287.478,-499.379 255.363,-493.332 235,-474 202.588,-443.228 198.36,-384.789 197.961,-362.726"/>
<polygon fill="#9a32cd" stroke="#9a32cd" points="311.311,-504.523 321.462,-501.489 311.634,-497.531 311.311,-504.523"/>
<text text-anchor="middle" x="247.5" y="-460" font-family="Helvetica,sans-Serif" font-size="10.00"> Type</text>
<text text-anchor="middle" x="247.5" y="-449" font-family="Helvetica,sans-Serif" font-size="10.00">Hash</text>
</g>
<!-- Node9 -->
<g id="node9" class="node"><title>Node9</title>
<g id="a_node9"><a xlink:title="STL class. ">
<polygon fill="white" stroke="#bfbfbf" points="289,-550.5 289,-569.5 395,-569.5 395,-550.5 289,-550.5"/>
<text text-anchor="middle" x="342" y="-557.5" font-family="Helvetica,sans-Serif" font-size="10.00">basic_string&lt; char &gt;</text>
</a>
</g>
</g>
<!-- Node9&#45;&gt;Node8 -->
<g id="edge10" class="edge"><title>Node9&#45;&gt;Node8</title>
<path fill="none" stroke="midnightblue" d="M342,-539.953C342,-530.287 342,-519.031 342,-511.505"/>
<polygon fill="midnightblue" stroke="midnightblue" points="338.5,-540.25 342,-550.25 345.5,-540.25 338.5,-540.25"/>
</g>
<!-- Node10&#45;&gt;Node4 -->
<g id="edge31" class="edge"><title>Node10&#45;&gt;Node4</title>
<path fill="none" stroke="#9a32cd" stroke-dasharray="5,2" d="M537.843,-69.3122C588.201,-56.3851 682.257,-32.2406 732.076,-19.4516"/>
<polygon fill="#9a32cd" stroke="#9a32cd" points="536.902,-65.9403 528.086,-71.8169 538.643,-72.7205 536.902,-65.9403"/>
<text text-anchor="middle" x="678" y="-41.5" font-family="Helvetica,sans-Serif" font-size="10.00"> Workers</text>
</g>
<!-- Node10&#45;&gt;Node5 -->
<g id="edge26" class="edge"><title>Node10&#45;&gt;Node5</title>
<path fill="none" stroke="#9a32cd" stroke-dasharray="5,2" d="M469.624,-82.6814C435.707,-86.0539 382.735,-93.2882 339,-108 328.072,-111.676 326.34,-114.899 316,-120 303.051,-126.388 288.296,-133.251 276.91,-138.459"/>
<polygon fill="#9a32cd" stroke="#9a32cd" points="470.3,-86.1336 479.931,-81.7176 469.648,-79.164 470.3,-86.1336"/>
<text text-anchor="middle" x="359" y="-111.5" font-family="Helvetica,sans-Serif" font-size="10.00"> Workers</text>
</g>
<!-- Node10&#45;&gt;Node6 -->
<g id="edge13" class="edge"><title>Node10&#45;&gt;Node6</title>
<path fill="none" stroke="#9a32cd" stroke-dasharray="5,2" d="M483.978,-94.8021C478.427,-99.0006 472.434,-103.622 467,-108 451.046,-120.854 444.733,-121.949 432,-138 414.399,-160.187 401.077,-191.314 395.242,-206.284"/>
<polygon fill="#9a32cd" stroke="#9a32cd" points="486.289,-97.4443 492.195,-88.6482 482.093,-91.8415 486.289,-97.4443"/>
<text text-anchor="middle" x="449.5" y="-145.5" font-family="Helvetica,sans-Serif" font-size="10.00"> Worker</text>
</g>
<!-- Node10&#45;&gt;Node10 -->
<g id="edge24" class="edge"><title>Node10&#45;&gt;Node10</title>
<path fill="none" stroke="#9a32cd" stroke-dasharray="5,2" d="M538.425,-84.6249C542.979,-83.6671 546,-81.7922 546,-79 546,-74.418 537.864,-72.3059 528.17,-72.6639"/>
<polygon fill="#9a32cd" stroke="#9a32cd" points="537.904,-81.1525 528.17,-85.3361 538.388,-88.1358 537.904,-81.1525"/>
<text text-anchor="middle" x="573.5" y="-82" font-family="Helvetica,sans-Serif" font-size="10.00"> NextQueue</text>
<text text-anchor="middle" x="573.5" y="-71" font-family="Helvetica,sans-Serif" font-size="10.00">NextAcquire</text>
</g>
<!-- Node11&#45;&gt;Node4 -->
<g id="edge27" class="edge"><title>Node11&#45;&gt;Node4</title>
<path fill="none" stroke="#9a32cd" stroke-dasharray="5,2" d="M687.784,-140.783C713.869,-136.421 742.365,-129.63 751,-120 764.247,-105.227 765.21,-42.5032 765.105,-19.501"/>
<polygon fill="#9a32cd" stroke="#9a32cd" points="686.908,-137.378 677.575,-142.393 687.999,-144.293 686.908,-137.378"/>
<text text-anchor="middle" x="782.5" y="-76.5" font-family="Helvetica,sans-Serif" font-size="10.00"> Configs</text>
</g>
<!-- Node11&#45;&gt;Node10 -->
<g id="edge16" class="edge"><title>Node11&#45;&gt;Node10</title>
<path fill="none" stroke="#9a32cd" stroke-dasharray="5,2" d="M612.37,-133.784C585.363,-120.38 544.358,-100.029 521.306,-88.5888"/>
<polygon fill="#9a32cd" stroke="#9a32cd" points="611.114,-137.068 621.627,-138.378 614.226,-130.797 611.114,-137.068"/>
<text text-anchor="middle" x="600" y="-111.5" font-family="Helvetica,sans-Serif" font-size="10.00"> Config</text>
</g>
<!-- Node11&#45;&gt;Node11 -->
<g id="edge17" class="edge"><title>Node11&#45;&gt;Node11</title>
<path fill="none" stroke="#9a32cd" stroke-dasharray="5,2" d="M687.872,-153.042C692.251,-151.987 695,-150.307 695,-148 695,-144.215 687.597,-142.115 677.735,-141.701"/>
<polygon fill="#9a32cd" stroke="#9a32cd" points="687.229,-149.595 677.735,-154.299 688.09,-156.542 687.229,-149.595"/>
<text text-anchor="middle" x="707.5" y="-145.5" font-family="Helvetica,sans-Serif" font-size="10.00"> Next</text>
</g>
<!-- Node12 -->
<g id="node12" class="node"><title>Node12</title>
<g id="a_node12"><a xlink:href="classpkgAcquireStatus.xhtml" target="_top" xlink:title="A monitor object for downloads controlled by the pkgAcquire class. {{{. ">
<polygon fill="white" stroke="black" points="777,-138.5 777,-157.5 871,-157.5 871,-138.5 777,-138.5"/>
<text text-anchor="middle" x="824" y="-145.5" font-family="Helvetica,sans-Serif" font-size="10.00">pkgAcquireStatus</text>
</a>
</g>
</g>
<!-- Node12&#45;&gt;Node4 -->
<g id="edge28" class="edge"><title>Node12&#45;&gt;Node4</title>
<path fill="none" stroke="#9a32cd" stroke-dasharray="5,2" d="M821.89,-128.372C819.536,-111.925 814.836,-87.5862 806,-68 797.478,-49.1104 782.194,-30.1727 772.887,-19.5808"/>
<polygon fill="#9a32cd" stroke="#9a32cd" points="818.425,-128.867 823.167,-138.342 825.368,-127.978 818.425,-128.867"/>
<text text-anchor="middle" x="823.5" y="-76.5" font-family="Helvetica,sans-Serif" font-size="10.00"> Log</text>
</g>
<!-- Node12&#45;&gt;Node10 -->
<g id="edge21" class="edge"><title>Node12&#45;&gt;Node10</title>
<path fill="none" stroke="#9a32cd" stroke-dasharray="5,2" d="M793.225,-134.768C770.33,-126.111 738.137,-114.864 709,-108 644.667,-92.845 566.909,-85.0105 528.259,-81.8023"/>
<polygon fill="#9a32cd" stroke="#9a32cd" points="792.149,-138.104 802.739,-138.418 794.657,-131.568 792.149,-138.104"/>
<text text-anchor="middle" x="760.5" y="-111.5" font-family="Helvetica,sans-Serif" font-size="10.00"> Log</text>
</g>
<!-- Node13&#45;&gt;Node10 -->
<g id="edge22" class="edge"><title>Node13&#45;&gt;Node10</title>
<path fill="none" stroke="#9a32cd" stroke-dasharray="5,2" d="M485.862,-333.357C483.737,-292.283 480.585,-191.034 495,-108 496.153,-101.359 498.51,-94.1225 500.522,-88.6699"/>
<polygon fill="#9a32cd" stroke="#9a32cd" points="482.376,-333.697 486.432,-343.485 489.365,-333.304 482.376,-333.697"/>
<text text-anchor="middle" x="522" y="-213.5" font-family="Helvetica,sans-Serif" font-size="10.00"> MessageQueue</text>
</g>
<!-- Node14&#45;&gt;Node4 -->
<g id="edge29" class="edge"><title>Node14&#45;&gt;Node4</title>
<path fill="none" stroke="#9a32cd" stroke-dasharray="5,2" d="M839.642,-256.008C887.061,-249.199 945,-231.048 945,-183 945,-183 945,-183 945,-78 945,-55.2333 932.548,-49.671 913,-38 877.456,-16.778 829.192,-11.4847 797.584,-10.5311"/>
<polygon fill="#9a32cd" stroke="#9a32cd" points="839.175,-252.54 829.707,-257.296 840.074,-259.481 839.175,-252.54"/>
<text text-anchor="middle" x="959" y="-145.5" font-family="Helvetica,sans-Serif" font-size="10.00"> Items</text>
</g>
<!-- Node15 -->
<g id="node15" class="node"><title>Node15</title>
<polygon fill="white" stroke="#bfbfbf" points="48,-297.5 48,-316.5 142,-316.5 142,-297.5 48,-297.5"/>
<text text-anchor="middle" x="95" y="-304.5" font-family="Helvetica,sans-Serif" font-size="10.00">vector&lt; DiffInfo &gt;</text>
</g>
<!-- Node15&#45;&gt;Node1 -->
<g id="edge33" class="edge"><title>Node15&#45;&gt;Node1</title>
<path fill="none" stroke="#9a32cd" stroke-dasharray="5,2" d="M84.1303,-288.369C77.2722,-274.748 71.5045,-256.218 82,-244 98.3561,-224.96 164.518,-219.197 211.136,-217.538"/>
<polygon fill="#9a32cd" stroke="#9a32cd" points="81.1654,-290.238 89.0998,-297.259 87.2757,-286.823 81.1654,-290.238"/>
<text text-anchor="middle" x="123" y="-258.5" font-family="Helvetica,sans-Serif" font-size="10.00"> available_patches</text>
</g>
<!-- Node16&#45;&gt;Node15 -->
<g id="edge34" class="edge"><title>Node16&#45;&gt;Node15</title>
<path fill="none" stroke="#9a32cd" stroke-dasharray="5,2" d="M126.116,-387.809C121.333,-382.505 116.485,-376.337 113,-370 103.387,-352.518 98.4396,-329.372 96.3174,-316.891"/>
<polygon fill="#9a32cd" stroke="#9a32cd" points="123.912,-390.566 133.374,-395.332 128.95,-385.705 123.912,-390.566"/>
<text text-anchor="middle" x="134.5" y="-350.5" font-family="Helvetica,sans-Serif" font-size="10.00"> elements</text>
</g>
<!-- Node17&#45;&gt;Node1 -->
<g id="edge37" class="edge"><title>Node17&#45;&gt;Node1</title>
<path fill="none" stroke="#9a32cd" stroke-dasharray="5,2" d="M191.919,-333.457C189.249,-322.297 187.604,-307.979 192,-296 203.213,-265.442 232.063,-238.603 248.005,-225.5"/>
<polygon fill="#9a32cd" stroke="#9a32cd" points="188.635,-334.704 194.744,-343.36 195.366,-332.784 188.635,-334.704"/>
<text text-anchor="middle" x="226" y="-304.5" font-family="Helvetica,sans-Serif" font-size="10.00"> ExpectedHash</text>
</g>
</g>
</svg>
