<?xml version="1.0" encoding="UTF-8" standalone="no"?>
<!DOCTYPE svg PUBLIC "-//W3C//DTD SVG 1.1//EN"
 "http://www.w3.org/Graphics/SVG/1.1/DTD/svg11.dtd">
<!-- Generated by graphviz version 2.36.0 (20140111.2315)
 -->
<!-- Title: debIFTypeSrc Pages: 1 -->
<svg width="131pt" height="86pt"
 viewBox="0.00 0.00 131.00 86.00" xmlns="http://www.w3.org/2000/svg" xmlns:xlink="http://www.w3.org/1999/xlink">
<g id="graph0" class="graph" transform="scale(1 1) rotate(0) translate(4 82)">
<title>debIFTypeSrc</title>
<polygon fill="white" stroke="none" points="-4,4 -4,-82 127,-82 127,4 -4,4"/>
<!-- Node1 -->
<g id="node1" class="node"><title>Node1</title>
<polygon fill="#bfbfbf" stroke="black" points="0,-0.5 0,-19.5 78,-19.5 78,-0.5 0,-0.5"/>
<text text-anchor="middle" x="39" y="-7.5" font-family="Helvetica,sans-Serif" font-size="10.00">debIFTypeSrc</text>
</g>
<!-- Node2 -->
<g id="node2" class="node"><title>Node2</title>
<g id="a_node2"><a xlink:href="classpkgIndexFile_1_1Type.xhtml" target="_top" xlink:title="Type">
<polygon fill="white" stroke="black" points="20,-58.5 20,-77.5 58,-77.5 58,-58.5 20,-58.5"/>
<text text-anchor="middle" x="39" y="-65.5" font-family="Helvetica,sans-Serif" font-size="10.00">Type</text>
</a>
</g>
</g>
<!-- Node2&#45;&gt;Node1 -->
<g id="edge1" class="edge"><title>Node2&#45;&gt;Node1</title>
<path fill="none" stroke="midnightblue" d="M39,-47.953C39,-38.2875 39,-27.0312 39,-19.5052"/>
<polygon fill="midnightblue" stroke="midnightblue" points="35.5001,-48.25 39,-58.25 42.5001,-48.25 35.5001,-48.25"/>
</g>
<!-- Node2&#45;&gt;Node2 -->
<g id="edge2" class="edge"><title>Node2&#45;&gt;Node2</title>
<path fill="none" stroke="#9a32cd" stroke-dasharray="5,2" d="M68.2501,-72.8209C72.8553,-72.1064 76,-70.4994 76,-68 76,-63.8984 67.5314,-62.2001 58.0372,-62.9051"/>
<polygon fill="#9a32cd" stroke="#9a32cd" points="67.9397,-69.3279 58.0372,-73.0949 68.1276,-76.3254 67.9397,-69.3279"/>
<text text-anchor="middle" x="99.5" y="-65.5" font-family="Helvetica,sans-Serif" font-size="10.00"> GlobalList</text>
</g>
</g>
</svg>
