<?xml version="1.0" encoding="UTF-8" standalone="no"?>
<!DOCTYPE svg PUBLIC "-//W3C//DTD SVG 1.1//EN"
 "http://www.w3.org/Graphics/SVG/1.1/DTD/svg11.dtd">
<!-- Generated by graphviz version 2.36.0 (20140111.2315)
 -->
<!-- Title: pkgAcquire::Worker Pages: 1 -->
<svg width="732pt" height="626pt"
 viewBox="0.00 0.00 732.00 626.00" xmlns="http://www.w3.org/2000/svg" xmlns:xlink="http://www.w3.org/1999/xlink">
<g id="graph0" class="graph" transform="scale(1 1) rotate(0) translate(4 622)">
<title>pkgAcquire::Worker</title>
<polygon fill="white" stroke="none" points="-4,4 -4,-622 728,-622 728,4 -4,4"/>
<!-- Node1 -->
<g id="node1" class="node"><title>Node1</title>
<polygon fill="#bfbfbf" stroke="black" points="225.5,-379.5 225.5,-398.5 328.5,-398.5 328.5,-379.5 225.5,-379.5"/>
<text text-anchor="middle" x="277" y="-386.5" font-family="Helvetica,sans-Serif" font-size="10.00">pkgAcquire::Worker</text>
</g>
<!-- Node1&#45;&gt;Node1 -->
<g id="edge31" class="edge"><title>Node1&#45;&gt;Node1</title>
<path fill="none" stroke="#9a32cd" stroke-dasharray="5,2" d="M338.982,-393.657C343.341,-392.596 346,-391.044 346,-389 346,-385.646 338.84,-383.616 328.757,-382.909"/>
<polygon fill="#9a32cd" stroke="#9a32cd" points="338.174,-390.236 328.757,-395.091 339.146,-397.168 338.174,-390.236"/>
<text text-anchor="middle" x="373.5" y="-392" font-family="Helvetica,sans-Serif" font-size="10.00"> NextQueue</text>
<text text-anchor="middle" x="373.5" y="-381" font-family="Helvetica,sans-Serif" font-size="10.00">NextAcquire</text>
</g>
<!-- Node3 -->
<g id="node3" class="node"><title>Node3</title>
<g id="a_node3"><a xlink:href="classpkgAcquire_1_1Queue.xhtml" target="_top" xlink:title="A single download queue in a pkgAcquire object. {{{. ">
<polygon fill="white" stroke="black" points="257.5,-281.5 257.5,-300.5 302.5,-300.5 302.5,-281.5 257.5,-281.5"/>
<text text-anchor="middle" x="280" y="-288.5" font-family="Helvetica,sans-Serif" font-size="10.00">Queue</text>
</a>
</g>
</g>
<!-- Node1&#45;&gt;Node3 -->
<g id="edge24" class="edge"><title>Node1&#45;&gt;Node3</title>
<path fill="none" stroke="#9a32cd" stroke-dasharray="5,2" d="M296.873,-372.259C300.186,-368.616 303.144,-364.48 305,-360 310.783,-346.039 309.711,-340.358 305,-326 301.802,-316.254 294.625,-306.999 288.778,-300.613"/>
<polygon fill="#9a32cd" stroke="#9a32cd" points="294.201,-369.969 289.345,-379.385 299.014,-375.052 294.201,-369.969"/>
<text text-anchor="middle" x="329" y="-340.5" font-family="Helvetica,sans-Serif" font-size="10.00"> Workers</text>
</g>
<!-- Node4 -->
<g id="node4" class="node"><title>Node4</title>
<g id="a_node4"><a xlink:href="classpkgAcquire.xhtml" target="_top" xlink:title="The core download scheduler. {{{. ">
<polygon fill="white" stroke="black" points="369.5,-206.5 369.5,-225.5 434.5,-225.5 434.5,-206.5 369.5,-206.5"/>
<text text-anchor="middle" x="402" y="-213.5" font-family="Helvetica,sans-Serif" font-size="10.00">pkgAcquire</text>
</a>
</g>
</g>
<!-- Node1&#45;&gt;Node4 -->
<g id="edge15" class="edge"><title>Node1&#45;&gt;Node4</title>
<path fill="none" stroke="#9a32cd" stroke-dasharray="5,2" d="M329.694,-375.608C338.296,-371.727 346.504,-366.646 353,-360 391.338,-320.775 399.737,-250.285 401.528,-225.724"/>
<polygon fill="#9a32cd" stroke="#9a32cd" points="328.26,-372.411 320.267,-379.365 330.852,-378.914 328.26,-372.411"/>
<text text-anchor="middle" x="415" y="-288.5" font-family="Helvetica,sans-Serif" font-size="10.00"> Workers</text>
</g>
<!-- Node11 -->
<g id="node11" class="node"><title>Node11</title>
<g id="a_node11"><a xlink:href="structpkgAcquire_1_1Queue_1_1QItem.xhtml" target="_top" xlink:title="A single item placed in this queue. ">
<polygon fill="white" stroke="black" points="215,-0.5 215,-19.5 259,-19.5 259,-0.5 215,-0.5"/>
<text text-anchor="middle" x="237" y="-7.5" font-family="Helvetica,sans-Serif" font-size="10.00">QItem</text>
</a>
</g>
</g>
<!-- Node1&#45;&gt;Node11 -->
<g id="edge22" class="edge"><title>Node1&#45;&gt;Node11</title>
<path fill="none" stroke="#9a32cd" stroke-dasharray="5,2" d="M258.025,-372.664C238.839,-355.308 212,-325.11 212,-292 212,-292 212,-292 212,-73 212,-52.8056 223.549,-31.4205 230.948,-19.7926"/>
<polygon fill="#9a32cd" stroke="#9a32cd" points="255.826,-375.39 265.678,-379.288 260.407,-370.097 255.826,-375.39"/>
<text text-anchor="middle" x="229.5" y="-179.5" font-family="Helvetica,sans-Serif" font-size="10.00"> Worker</text>
</g>
<!-- Node2 -->
<g id="node2" class="node"><title>Node2</title>
<g id="a_node2"><a xlink:href="classWeakPointable.xhtml" target="_top" xlink:title="WeakPointable">
<polygon fill="white" stroke="black" points="495.5,-455.5 495.5,-474.5 578.5,-474.5 578.5,-455.5 495.5,-455.5"/>
<text text-anchor="middle" x="537" y="-462.5" font-family="Helvetica,sans-Serif" font-size="10.00">WeakPointable</text>
</a>
</g>
</g>
<!-- Node2&#45;&gt;Node1 -->
<g id="edge1" class="edge"><title>Node2&#45;&gt;Node1</title>
<path fill="none" stroke="midnightblue" d="M506.447,-451.692C480.751,-441.663 442.887,-427.635 409,-418 381.509,-410.184 350.242,-403.458 325.041,-398.559"/>
<polygon fill="midnightblue" stroke="midnightblue" points="505.411,-455.046 515.998,-455.454 507.977,-448.533 505.411,-455.046"/>
</g>
<!-- Node10 -->
<g id="node10" class="node"><title>Node10</title>
<g id="a_node10"><a xlink:href="classpkgAcquire_1_1Item.xhtml" target="_top" xlink:title="Represents the process by which a pkgAcquire object should {{{ retrieve a file or a collection of fil...">
<polygon fill="white" stroke="black" points="501,-138.5 501,-157.5 537,-157.5 537,-138.5 501,-138.5"/>
<text text-anchor="middle" x="519" y="-145.5" font-family="Helvetica,sans-Serif" font-size="10.00">Item</text>
</a>
</g>
</g>
<!-- Node2&#45;&gt;Node10 -->
<g id="edge12" class="edge"><title>Node2&#45;&gt;Node10</title>
<path fill="none" stroke="midnightblue" d="M529.933,-445.583C524.891,-430.791 519,-409.364 519,-390 519,-390 519,-390 519,-215 519,-194.375 519,-170.125 519,-157.544"/>
<polygon fill="midnightblue" stroke="midnightblue" points="526.666,-446.843 533.357,-455.057 533.249,-444.463 526.666,-446.843"/>
</g>
<!-- Node12 -->
<g id="node12" class="node"><title>Node12</title>
<g id="a_node12"><a xlink:href="structpkgAcquire_1_1ItemDesc.xhtml" target="_top" xlink:title="Represents a single download source from which an item should be downloaded. ">
<polygon fill="white" stroke="black" points="507.5,-64.5 507.5,-83.5 566.5,-83.5 566.5,-64.5 507.5,-64.5"/>
<text text-anchor="middle" x="537" y="-71.5" font-family="Helvetica,sans-Serif" font-size="10.00">ItemDesc</text>
</a>
</g>
</g>
<!-- Node2&#45;&gt;Node12 -->
<g id="edge18" class="edge"><title>Node2&#45;&gt;Node12</title>
<path fill="none" stroke="midnightblue" d="M549.044,-447.04C558.116,-432.588 569,-410.897 569,-390 569,-390 569,-390 569,-147 569,-122.378 553.18,-96.7849 543.786,-83.7591"/>
<polygon fill="midnightblue" stroke="midnightblue" points="546.1,-445.146 543.476,-455.411 551.928,-449.023 546.1,-445.146"/>
</g>
<!-- Node3&#45;&gt;Node1 -->
<g id="edge2" class="edge"><title>Node3&#45;&gt;Node1</title>
<path fill="none" stroke="#9a32cd" stroke-dasharray="5,2" d="M270.416,-309.973C268.189,-315.018 266.138,-320.602 265,-326 261.883,-340.786 261.962,-345.197 265,-360 266.404,-366.839 269.55,-374.069 272.269,-379.469"/>
<polygon fill="#9a32cd" stroke="#9a32cd" points="273.747,-311.13 274.999,-300.609 267.459,-308.052 273.747,-311.13"/>
<text text-anchor="middle" x="285" y="-340.5" font-family="Helvetica,sans-Serif" font-size="10.00"> OwnerQ</text>
</g>
<!-- Node3&#45;&gt;Node4 -->
<g id="edge4" class="edge"><title>Node3&#45;&gt;Node4</title>
<path fill="none" stroke="#9a32cd" stroke-dasharray="5,2" d="M301.022,-275.686C314.994,-266.346 333.857,-254.065 351,-244 362.058,-237.507 374.808,-230.757 384.794,-225.631"/>
<polygon fill="#9a32cd" stroke="#9a32cd" points="298.955,-272.858 292.614,-281.346 302.864,-278.665 298.955,-272.858"/>
<text text-anchor="middle" x="369.5" y="-247.5" font-family="Helvetica,sans-Serif" font-size="10.00"> Queues</text>
</g>
<!-- Node4&#45;&gt;Node3 -->
<g id="edge3" class="edge"><title>Node4&#45;&gt;Node3</title>
<path fill="none" stroke="#9a32cd" stroke-dasharray="5,2" d="M359.32,-218.567C337.953,-221.461 313.071,-228.327 296,-244 285.412,-253.721 281.83,-270.817 280.619,-281.205"/>
<polygon fill="#9a32cd" stroke="#9a32cd" points="359.923,-222.022 369.478,-217.444 359.154,-215.064 359.923,-222.022"/>
<text text-anchor="middle" x="312" y="-247.5" font-family="Helvetica,sans-Serif" font-size="10.00"> Owner</text>
</g>
<!-- Node4&#45;&gt;Node10 -->
<g id="edge13" class="edge"><title>Node4&#45;&gt;Node10</title>
<path fill="none" stroke="#9a32cd" stroke-dasharray="5,2" d="M426.215,-201.34C449.503,-188.204 483.991,-168.749 503.701,-157.63"/>
<polygon fill="#9a32cd" stroke="#9a32cd" points="424.286,-198.41 417.296,-206.372 427.725,-204.507 424.286,-198.41"/>
<text text-anchor="middle" x="487" y="-179.5" font-family="Helvetica,sans-Serif" font-size="10.00"> Owner</text>
</g>
<!-- Node5 -->
<g id="node5" class="node"><title>Node5</title>
<g id="a_node5"><a xlink:href="structpkgAcquire_1_1MethodConfig.xhtml" target="_top" xlink:title="Information about the properties of a single acquire method. {{{. ">
<polygon fill="white" stroke="black" points="357.5,-455.5 357.5,-474.5 434.5,-474.5 434.5,-455.5 357.5,-455.5"/>
<text text-anchor="middle" x="396" y="-462.5" font-family="Helvetica,sans-Serif" font-size="10.00">MethodConfig</text>
</a>
</g>
</g>
<!-- Node5&#45;&gt;Node1 -->
<g id="edge25" class="edge"><title>Node5&#45;&gt;Node1</title>
<path fill="none" stroke="#9a32cd" stroke-dasharray="5,2" d="M385.685,-446.833C379.113,-437.177 369.813,-425.577 359,-418 346.311,-409.108 330.558,-402.839 316.262,-398.521"/>
<polygon fill="#9a32cd" stroke="#9a32cd" points="382.767,-448.768 391.109,-455.299 388.661,-444.991 382.767,-448.768"/>
<text text-anchor="middle" x="389" y="-421.5" font-family="Helvetica,sans-Serif" font-size="10.00"> Config</text>
</g>
<!-- Node5&#45;&gt;Node4 -->
<g id="edge5" class="edge"><title>Node5&#45;&gt;Node4</title>
<path fill="none" stroke="#9a32cd" stroke-dasharray="5,2" d="M406.141,-446.053C423.987,-412.105 457.448,-336.303 439,-274 433.373,-254.995 419.197,-236.386 410.116,-225.838"/>
<polygon fill="#9a32cd" stroke="#9a32cd" points="402.878,-444.726 401.178,-455.184 409.029,-448.069 402.878,-444.726"/>
<text text-anchor="middle" x="462.5" y="-340.5" font-family="Helvetica,sans-Serif" font-size="10.00"> Configs</text>
</g>
<!-- Node5&#45;&gt;Node5 -->
<g id="edge6" class="edge"><title>Node5&#45;&gt;Node5</title>
<path fill="none" stroke="#9a32cd" stroke-dasharray="5,2" d="M444.872,-470.932C449.251,-469.691 452,-467.714 452,-465 452,-460.547 444.597,-458.077 434.735,-457.59"/>
<polygon fill="#9a32cd" stroke="#9a32cd" points="444.125,-467.503 434.735,-472.41 445.136,-474.43 444.125,-467.503"/>
<text text-anchor="middle" x="464.5" y="-462.5" font-family="Helvetica,sans-Serif" font-size="10.00"> Next</text>
</g>
<!-- Node6 -->
<g id="node6" class="node"><title>Node6</title>
<g id="a_node6"><a xlink:title="STL class. ">
<polygon fill="white" stroke="#bfbfbf" points="315.5,-540.5 315.5,-559.5 356.5,-559.5 356.5,-540.5 315.5,-540.5"/>
<text text-anchor="middle" x="336" y="-547.5" font-family="Helvetica,sans-Serif" font-size="10.00">string</text>
</a>
</g>
</g>
<!-- Node6&#45;&gt;Node1 -->
<g id="edge27" class="edge"><title>Node6&#45;&gt;Node1</title>
<path fill="none" stroke="#9a32cd" stroke-dasharray="5,2" d="M305.094,-545.96C267.488,-540.419 205.497,-524.931 177,-482 168.643,-469.41 169.457,-461.094 177,-448 185.916,-432.522 230.779,-410.527 257.29,-398.561"/>
<polygon fill="#9a32cd" stroke="#9a32cd" points="305.09,-549.49 315.462,-547.327 306.005,-542.55 305.09,-549.49"/>
<text text-anchor="middle" x="201" y="-473.5" font-family="Helvetica,sans-Serif" font-size="10.00"> OutQueue</text>
<text text-anchor="middle" x="201" y="-462.5" font-family="Helvetica,sans-Serif" font-size="10.00">Access</text>
<text text-anchor="middle" x="201" y="-451.5" font-family="Helvetica,sans-Serif" font-size="10.00">Status</text>
</g>
<!-- Node6&#45;&gt;Node3 -->
<g id="edge23" class="edge"><title>Node6&#45;&gt;Node3</title>
<path fill="none" stroke="#9a32cd" stroke-dasharray="5,2" d="M304.987,-549.534C273.774,-548.704 225.325,-543.57 190,-522 145.919,-495.083 135.67,-478.885 119,-430 95.177,-360.138 207.429,-315.058 257.221,-298.795"/>
<polygon fill="#9a32cd" stroke="#9a32cd" points="305.214,-553.037 315.258,-549.668 305.305,-546.037 305.214,-553.037"/>
<text text-anchor="middle" x="134" y="-421.5" font-family="Helvetica,sans-Serif" font-size="10.00"> Name</text>
</g>
<!-- Node6&#45;&gt;Node5 -->
<g id="edge7" class="edge"><title>Node6&#45;&gt;Node5</title>
<path fill="none" stroke="#9a32cd" stroke-dasharray="5,2" d="M348.091,-532.275C360.685,-514.853 379.922,-488.241 389.749,-474.648"/>
<polygon fill="#9a32cd" stroke="#9a32cd" points="345.217,-530.275 342.195,-540.43 350.89,-534.376 345.217,-530.275"/>
<text text-anchor="middle" x="390.5" y="-514" font-family="Helvetica,sans-Serif" font-size="10.00"> Access</text>
<text text-anchor="middle" x="390.5" y="-503" font-family="Helvetica,sans-Serif" font-size="10.00">Version</text>
</g>
<!-- Node6&#45;&gt;Node10 -->
<g id="edge14" class="edge"><title>Node6&#45;&gt;Node10</title>
<path fill="none" stroke="#9a32cd" stroke-dasharray="5,2" d="M366.956,-546.126C438.063,-538.672 607,-515.728 607,-466 607,-466 607,-466 607,-249 607,-205.985 560.545,-172.687 535.141,-157.693"/>
<polygon fill="#9a32cd" stroke="#9a32cd" points="366.411,-542.664 356.815,-547.154 367.117,-549.628 366.411,-542.664"/>
<text text-anchor="middle" x="631.5" y="-351.5" font-family="Helvetica,sans-Serif" font-size="10.00"> DestFile</text>
<text text-anchor="middle" x="631.5" y="-340.5" font-family="Helvetica,sans-Serif" font-size="10.00">ErrorText</text>
<text text-anchor="middle" x="631.5" y="-329.5" font-family="Helvetica,sans-Serif" font-size="10.00">UsedMirror</text>
</g>
<!-- Node6&#45;&gt;Node12 -->
<g id="edge19" class="edge"><title>Node6&#45;&gt;Node12</title>
<path fill="none" stroke="#9a32cd" stroke-dasharray="5,2" d="M366.764,-547.919C449.577,-544.18 671,-528.353 671,-466 671,-466 671,-466 671,-147 671,-99.9912 606.216,-83.5449 566.739,-77.887"/>
<polygon fill="#9a32cd" stroke="#9a32cd" points="366.546,-544.425 356.703,-548.344 366.842,-551.419 366.546,-544.425"/>
<text text-anchor="middle" x="697.5" y="-299.5" font-family="Helvetica,sans-Serif" font-size="10.00"> Description</text>
<text text-anchor="middle" x="697.5" y="-288.5" font-family="Helvetica,sans-Serif" font-size="10.00">URI</text>
<text text-anchor="middle" x="697.5" y="-277.5" font-family="Helvetica,sans-Serif" font-size="10.00">ShortDesc</text>
</g>
<!-- Node13 -->
<g id="node13" class="node"><title>Node13</title>
<polygon fill="white" stroke="#bfbfbf" points="234.5,-455.5 234.5,-474.5 339.5,-474.5 339.5,-455.5 234.5,-455.5"/>
<text text-anchor="middle" x="287" y="-462.5" font-family="Helvetica,sans-Serif" font-size="10.00">vector&lt; std::string &gt;</text>
</g>
<!-- Node6&#45;&gt;Node13 -->
<g id="edge30" class="edge"><title>Node6&#45;&gt;Node13</title>
<path fill="none" stroke="#9a32cd" stroke-dasharray="5,2" d="M319.095,-533.411C315.812,-529.867 312.59,-525.97 310,-522 300.007,-506.684 292.973,-486.318 289.492,-474.842"/>
<polygon fill="#9a32cd" stroke="#9a32cd" points="316.622,-535.887 326.162,-540.496 321.578,-530.944 316.622,-535.887"/>
<text text-anchor="middle" x="331.5" y="-508.5" font-family="Helvetica,sans-Serif" font-size="10.00"> elements</text>
</g>
<!-- Node7 -->
<g id="node7" class="node"><title>Node7</title>
<g id="a_node7"><a xlink:title="STL class. ">
<polygon fill="white" stroke="#bfbfbf" points="283,-598.5 283,-617.5 389,-617.5 389,-598.5 283,-598.5"/>
<text text-anchor="middle" x="336" y="-605.5" font-family="Helvetica,sans-Serif" font-size="10.00">basic_string&lt; char &gt;</text>
</a>
</g>
</g>
<!-- Node7&#45;&gt;Node6 -->
<g id="edge8" class="edge"><title>Node7&#45;&gt;Node6</title>
<path fill="none" stroke="midnightblue" d="M336,-587.953C336,-578.287 336,-567.031 336,-559.505"/>
<polygon fill="midnightblue" stroke="midnightblue" points="332.5,-588.25 336,-598.25 339.5,-588.25 332.5,-588.25"/>
</g>
<!-- Node8 -->
<g id="node8" class="node"><title>Node8</title>
<g id="a_node8"><a xlink:href="classpkgAcquireStatus.xhtml" target="_top" xlink:title="A monitor object for downloads controlled by the pkgAcquire class. {{{. ">
<polygon fill="white" stroke="black" points="0,-455.5 0,-474.5 94,-474.5 94,-455.5 0,-455.5"/>
<text text-anchor="middle" x="47" y="-462.5" font-family="Helvetica,sans-Serif" font-size="10.00">pkgAcquireStatus</text>
</a>
</g>
</g>
<!-- Node8&#45;&gt;Node1 -->
<g id="edge28" class="edge"><title>Node8&#45;&gt;Node1</title>
<path fill="none" stroke="#9a32cd" stroke-dasharray="5,2" d="M88.2599,-452.552C108.119,-446.592 132.099,-438.729 153,-430 163.639,-425.556 165.274,-422.23 176,-418 196.313,-409.989 219.775,-403.336 238.97,-398.528"/>
<polygon fill="#9a32cd" stroke="#9a32cd" points="87.1841,-449.22 78.5818,-455.405 89.1634,-455.934 87.1841,-449.22"/>
<text text-anchor="middle" x="185.5" y="-421.5" font-family="Helvetica,sans-Serif" font-size="10.00"> Log</text>
</g>
<!-- Node8&#45;&gt;Node4 -->
<g id="edge9" class="edge"><title>Node8&#45;&gt;Node4</title>
<path fill="none" stroke="#9a32cd" stroke-dasharray="5,2" d="M52.3906,-445.858C61.7312,-417.139 83.4123,-360.895 119,-326 190.24,-256.148 311.08,-229.983 369.054,-221.104"/>
<polygon fill="#9a32cd" stroke="#9a32cd" points="49.046,-444.827 49.4116,-455.415 55.7289,-446.91 49.046,-444.827"/>
<text text-anchor="middle" x="128.5" y="-340.5" font-family="Helvetica,sans-Serif" font-size="10.00"> Log</text>
</g>
<!-- Node9 -->
<g id="node9" class="node"><title>Node9</title>
<polygon fill="white" stroke="#bfbfbf" points="372.5,-59 372.5,-89 473.5,-89 473.5,-59 372.5,-59"/>
<text text-anchor="start" x="380.5" y="-77" font-family="Helvetica,sans-Serif" font-size="10.00">vector&lt; pkgAcquire</text>
<text text-anchor="middle" x="423" y="-66" font-family="Helvetica,sans-Serif" font-size="10.00">::Item * &gt;</text>
</g>
<!-- Node9&#45;&gt;Node4 -->
<g id="edge10" class="edge"><title>Node9&#45;&gt;Node4</title>
<path fill="none" stroke="#9a32cd" stroke-dasharray="5,2" d="M419.305,-99.6311C414.532,-131.453 406.462,-185.251 403.314,-206.242"/>
<polygon fill="#9a32cd" stroke="#9a32cd" points="422.821,-99.7902 420.843,-89.3816 415.898,-98.7518 422.821,-99.7902"/>
<text text-anchor="middle" x="428" y="-145.5" font-family="Helvetica,sans-Serif" font-size="10.00"> Items</text>
</g>
<!-- Node10&#45;&gt;Node9 -->
<g id="edge11" class="edge"><title>Node10&#45;&gt;Node9</title>
<path fill="none" stroke="#9a32cd" stroke-dasharray="5,2" d="M494.335,-133.303C487.581,-129.259 480.369,-124.661 474,-120 461.04,-110.517 447.456,-98.4094 437.569,-89.1423"/>
<polygon fill="#9a32cd" stroke="#9a32cd" points="492.737,-136.422 503.14,-138.428 496.258,-130.372 492.737,-136.422"/>
<text text-anchor="middle" x="495.5" y="-111.5" font-family="Helvetica,sans-Serif" font-size="10.00"> elements</text>
</g>
<!-- Node10&#45;&gt;Node12 -->
<g id="edge20" class="edge"><title>Node10&#45;&gt;Node12</title>
<path fill="none" stroke="#9a32cd" stroke-dasharray="5,2" d="M519.823,-127.805C520.398,-121.431 521.368,-114.345 523,-108 525.201,-99.4412 529.268,-90.224 532.453,-83.7121"/>
<polygon fill="#9a32cd" stroke="#9a32cd" points="516.304,-127.991 519.156,-138.194 523.289,-128.439 516.304,-127.991"/>
<text text-anchor="middle" x="539" y="-111.5" font-family="Helvetica,sans-Serif" font-size="10.00"> Owner</text>
</g>
<!-- Node11&#45;&gt;Node1 -->
<g id="edge26" class="edge"><title>Node11&#45;&gt;Node1</title>
<path fill="none" stroke="#9a32cd" stroke-dasharray="5,2" d="M204.731,-16.4524C174.521,-23.6228 134,-39.4868 134,-73 134,-217 134,-217 134,-217 134,-290.709 163.637,-310.223 218,-360 227.282,-368.499 239.607,-374.892 250.591,-379.407"/>
<polygon fill="#9a32cd" stroke="#9a32cd" points="205.864,-19.7889 214.904,-14.264 204.391,-12.9455 205.864,-19.7889"/>
<text text-anchor="middle" x="161.5" y="-179.5" font-family="Helvetica,sans-Serif" font-size="10.00"> CurrentItem</text>
</g>
<!-- Node11&#45;&gt;Node3 -->
<g id="edge16" class="edge"><title>Node11&#45;&gt;Node3</title>
<path fill="none" stroke="#9a32cd" stroke-dasharray="5,2" d="M248.339,-28.7095C254.951,-40.7195 262,-57.2231 262,-73 262,-217 262,-217 262,-217 262,-240.757 271.098,-267.631 276.357,-281.183"/>
<polygon fill="#9a32cd" stroke="#9a32cd" points="251.163,-26.6093 243.052,-19.7926 245.141,-30.1794 251.163,-26.6093"/>
<text text-anchor="middle" x="276" y="-145.5" font-family="Helvetica,sans-Serif" font-size="10.00"> Items</text>
</g>
<!-- Node11&#45;&gt;Node11 -->
<g id="edge21" class="edge"><title>Node11&#45;&gt;Node11</title>
<path fill="none" stroke="#9a32cd" stroke-dasharray="5,2" d="M269.111,-14.6047C273.259,-13.8079 276,-12.2729 276,-10 276,-6.17188 268.224,-4.43726 259.051,-4.79614"/>
<polygon fill="#9a32cd" stroke="#9a32cd" points="268.825,-11.1155 259.051,-15.2039 269.241,-18.1031 268.825,-11.1155"/>
<text text-anchor="middle" x="288.5" y="-7.5" font-family="Helvetica,sans-Serif" font-size="10.00"> Next</text>
</g>
<!-- Node12&#45;&gt;Node11 -->
<g id="edge17" class="edge"><title>Node12&#45;&gt;Node11</title>
<path fill="none" stroke="midnightblue" d="M497.558,-61.852C492.342,-60.4925 487.053,-59.1718 482,-58 400.361,-39.0662 302.163,-21.9028 259.081,-14.6507"/>
<polygon fill="midnightblue" stroke="midnightblue" points="496.855,-65.2869 507.42,-64.4851 498.661,-58.5238 496.855,-65.2869"/>
</g>
<!-- Node13&#45;&gt;Node1 -->
<g id="edge29" class="edge"><title>Node13&#45;&gt;Node1</title>
<path fill="none" stroke="#9a32cd" stroke-dasharray="5,2" d="M284.442,-445.072C282.43,-430.18 279.718,-410.111 278.185,-398.768"/>
<polygon fill="#9a32cd" stroke="#9a32cd" points="281.006,-445.779 285.814,-455.221 287.943,-444.842 281.006,-445.779"/>
<text text-anchor="middle" x="319" y="-421.5" font-family="Helvetica,sans-Serif" font-size="10.00"> MessageQueue</text>
</g>
</g>
</svg>
