<?xml version="1.0" encoding="UTF-8" standalone="no"?>
<!DOCTYPE svg PUBLIC "-//W3C//DTD SVG 1.1//EN"
 "http://www.w3.org/Graphics/SVG/1.1/DTD/svg11.dtd">
<!-- Generated by graphviz version 2.36.0 (20140111.2315)
 -->
<!-- Title: pkgVendorList Pages: 1 -->
<svg width="215pt" height="380pt"
 viewBox="0.00 0.00 215.00 380.00" xmlns="http://www.w3.org/2000/svg" xmlns:xlink="http://www.w3.org/1999/xlink">
<g id="graph0" class="graph" transform="scale(1 1) rotate(0) translate(4 376)">
<title>pkgVendorList</title>
<polygon fill="white" stroke="none" points="-4,4 -4,-376 211,-376 211,4 -4,4"/>
<!-- Node1 -->
<g id="node1" class="node"><title>Node1</title>
<polygon fill="#bfbfbf" stroke="black" points="34.5,-0.5 34.5,-19.5 113.5,-19.5 113.5,-0.5 34.5,-0.5"/>
<text text-anchor="middle" x="74" y="-7.5" font-family="Helvetica,sans-Serif" font-size="10.00">pkgVendorList</text>
</g>
<!-- Node2 -->
<g id="node2" class="node"><title>Node2</title>
<polygon fill="white" stroke="#bfbfbf" points="11,-68.5 11,-87.5 137,-87.5 137,-68.5 11,-68.5"/>
<text text-anchor="middle" x="74" y="-75.5" font-family="Helvetica,sans-Serif" font-size="10.00">vector&lt; Vendor const * &gt;</text>
</g>
<!-- Node2&#45;&gt;Node1 -->
<g id="edge1" class="edge"><title>Node2&#45;&gt;Node1</title>
<path fill="none" stroke="#9a32cd" stroke-dasharray="5,2" d="M74,-58.0413C74,-45.4724 74,-29.5631 74,-19.8411"/>
<polygon fill="#9a32cd" stroke="#9a32cd" points="70.5001,-58.3716 74,-68.3717 77.5001,-58.3717 70.5001,-58.3716"/>
<text text-anchor="middle" x="99" y="-41.5" font-family="Helvetica,sans-Serif" font-size="10.00"> VendorList</text>
</g>
<!-- Node3 -->
<g id="node3" class="node"><title>Node3</title>
<g id="a_node3"><a xlink:href="classVendor.xhtml" target="_top" xlink:title="Vendor">
<polygon fill="white" stroke="black" points="50.5,-136.5 50.5,-155.5 97.5,-155.5 97.5,-136.5 50.5,-136.5"/>
<text text-anchor="middle" x="74" y="-143.5" font-family="Helvetica,sans-Serif" font-size="10.00">Vendor</text>
</a>
</g>
</g>
<!-- Node3&#45;&gt;Node2 -->
<g id="edge2" class="edge"><title>Node3&#45;&gt;Node2</title>
<path fill="none" stroke="#9a32cd" stroke-dasharray="5,2" d="M74,-126.041C74,-113.472 74,-97.5631 74,-87.8411"/>
<polygon fill="#9a32cd" stroke="#9a32cd" points="70.5001,-126.372 74,-136.372 77.5001,-126.372 70.5001,-126.372"/>
<text text-anchor="middle" x="95.5" y="-109.5" font-family="Helvetica,sans-Serif" font-size="10.00"> elements</text>
</g>
<!-- Node4 -->
<g id="node4" class="node"><title>Node4</title>
<polygon fill="white" stroke="#bfbfbf" points="100.5,-205 100.5,-235 207.5,-235 207.5,-205 100.5,-205"/>
<text text-anchor="start" x="108.5" y="-223" font-family="Helvetica,sans-Serif" font-size="10.00">map&lt; std::string, std</text>
<text text-anchor="middle" x="154" y="-212" font-family="Helvetica,sans-Serif" font-size="10.00">::string &gt;</text>
</g>
<!-- Node4&#45;&gt;Node3 -->
<g id="edge3" class="edge"><title>Node4&#45;&gt;Node3</title>
<path fill="none" stroke="#9a32cd" stroke-dasharray="5,2" d="M130.479,-197.831C114.896,-183.806 95.2695,-166.143 83.7321,-155.759"/>
<polygon fill="#9a32cd" stroke="#9a32cd" points="128.42,-200.687 138.195,-204.775 133.103,-195.484 128.42,-200.687"/>
<text text-anchor="middle" x="143.5" y="-177.5" font-family="Helvetica,sans-Serif" font-size="10.00"> Fingerprints</text>
</g>
<!-- Node5 -->
<g id="node5" class="node"><title>Node5</title>
<g id="a_node5"><a xlink:title="STL class. ">
<polygon fill="white" stroke="#bfbfbf" points="32.5,-294.5 32.5,-313.5 73.5,-313.5 73.5,-294.5 32.5,-294.5"/>
<text text-anchor="middle" x="53" y="-301.5" font-family="Helvetica,sans-Serif" font-size="10.00">string</text>
</a>
</g>
</g>
<!-- Node5&#45;&gt;Node3 -->
<g id="edge6" class="edge"><title>Node5&#45;&gt;Node3</title>
<path fill="none" stroke="#9a32cd" stroke-dasharray="5,2" d="M48.8157,-284.422C44.9977,-264.34 40.8134,-231.513 47,-204 51.0839,-185.839 61.6503,-166.662 68.2887,-155.827"/>
<polygon fill="#9a32cd" stroke="#9a32cd" points="45.4265,-285.316 50.8856,-294.396 52.2804,-283.893 45.4265,-285.316"/>
<text text-anchor="middle" x="69.5" y="-223" font-family="Helvetica,sans-Serif" font-size="10.00"> VendorID</text>
<text text-anchor="middle" x="69.5" y="-212" font-family="Helvetica,sans-Serif" font-size="10.00">Origin</text>
</g>
<!-- Node5&#45;&gt;Node4 -->
<g id="edge4" class="edge"><title>Node5&#45;&gt;Node4</title>
<path fill="none" stroke="#9a32cd" stroke-dasharray="5,2" d="M71.8221,-287.719C90.3659,-272.663 118.468,-249.848 136.53,-235.184"/>
<polygon fill="#9a32cd" stroke="#9a32cd" points="69.3662,-285.204 63.8088,-294.225 73.7784,-290.639 69.3662,-285.204"/>
<text text-anchor="middle" x="132" y="-268" font-family="Helvetica,sans-Serif" font-size="10.00"> keys</text>
<text text-anchor="middle" x="132" y="-257" font-family="Helvetica,sans-Serif" font-size="10.00">elements</text>
</g>
<!-- Node6 -->
<g id="node6" class="node"><title>Node6</title>
<g id="a_node6"><a xlink:title="STL class. ">
<polygon fill="white" stroke="#bfbfbf" points="0,-352.5 0,-371.5 106,-371.5 106,-352.5 0,-352.5"/>
<text text-anchor="middle" x="53" y="-359.5" font-family="Helvetica,sans-Serif" font-size="10.00">basic_string&lt; char &gt;</text>
</a>
</g>
</g>
<!-- Node6&#45;&gt;Node5 -->
<g id="edge5" class="edge"><title>Node6&#45;&gt;Node5</title>
<path fill="none" stroke="midnightblue" d="M53,-341.953C53,-332.287 53,-321.031 53,-313.505"/>
<polygon fill="midnightblue" stroke="midnightblue" points="49.5001,-342.25 53,-352.25 56.5001,-342.25 49.5001,-342.25"/>
</g>
</g>
</svg>
