<?xml version="1.0" encoding="UTF-8" standalone="no"?>
<!DOCTYPE svg PUBLIC "-//W3C//DTD SVG 1.1//EN"
 "http://www.w3.org/Graphics/SVG/1.1/DTD/svg11.dtd">
<!-- Generated by graphviz version 2.36.0 (20140111.2315)
 -->
<!-- Title: pkgCache::PkgFileIterator Pages: 1 -->
<!--zoomable 575 -->
<svg id="main" version="1.1" xmlns="http://www.w3.org/2000/svg" xmlns:xlink="http://www.w3.org/1999/xlink" xml:space="preserve" onload="init(evt)">
<style type="text/css"><![CDATA[
.edge:hover path { stroke: red; }
.edge:hover polygon { stroke: red; fill: red; }
]]></style>
<script type="text/javascript"><![CDATA[
var edges = document.getElementsByTagName('g');
if (edges && edges.length) {
  for (var i=0;i<edges.length;i++) {
    if (edges[i].id.substr(0,4)=='edge') {
      edges[i].setAttribute('class','edge');
    }
  }
}
]]></script>
        <defs>
                <circle id="rim" cx="0" cy="0" r="7"/>
                <circle id="rim2" cx="0" cy="0" r="3.5"/>
                <g id="zoomPlus">
                        <use xlink:href="#rim" fill="#404040">
                                <set attributeName="fill" to="#808080" begin="zoomplus.mouseover" end="zoomplus.mouseout"/>
                        </use>
                        <path d="M-4,0h8M0,-4v8" fill="none" stroke="white" stroke-width="1.5" pointer-events="none"/>
                </g>
                <g id="zoomMin">
                        <use xlink:href="#rim" fill="#404040">
                                <set attributeName="fill" to="#808080" begin="zoomminus.mouseover" end="zoomminus.mouseout"/>
                        </use>
                        <path d="M-4,0h8" fill="none" stroke="white" stroke-width="1.5" pointer-events="none"/>
                </g>
                <g id="dirArrow">
                        <path fill="none" stroke="white" stroke-width="1.5" d="M0,-3.0v7 M-2.5,-0.5L0,-3.0L2.5,-0.5"/>
                </g>
               <g id="resetDef">
                       <use xlink:href="#rim2" fill="#404040">
                               <set attributeName="fill" to="#808080" begin="reset.mouseover" end="reset.mouseout"/>
                       </use>
               </g>
        </defs>

<script type="text/javascript">
var viewWidth = 1148;
var viewHeight = 575;
var sectionId = 'dynsection-1';
</script>
<script xlink:href="svgpan.js"/>
<svg id="graph" class="graph">
<g id="viewport">
<title>pkgCache::PkgFileIterator</title>
<polygon fill="white" stroke="none" points="-4,4 -4,-571 1144,-571 1144,4 -4,4"/>
<!-- Node1 -->
<g id="node1" class="node"><title>Node1</title>
<polygon fill="#bfbfbf" stroke="black" points="1008.5,-497.5 1008.5,-516.5 1139.5,-516.5 1139.5,-497.5 1008.5,-497.5"/>
<text text-anchor="middle" x="1074" y="-504.5" font-family="Helvetica,sans-Serif" font-size="10.00">pkgCache::PkgFileIterator</text>
</g>
<!-- Node2 -->
<g id="node2" class="node"><title>Node2</title>
<g id="a_node2"><a xlink:href="classpkgCache_1_1Iterator.xhtml" target="_top" xlink:title="Iterator\&lt; PackageFile,\l PkgFileIterator \&gt;">
<polygon fill="white" stroke="black" points="856.5,-492 856.5,-522 969.5,-522 969.5,-492 856.5,-492"/>
<text text-anchor="start" x="864.5" y="-510" font-family="Helvetica,sans-Serif" font-size="10.00">Iterator&lt; PackageFile,</text>
<text text-anchor="middle" x="913" y="-499" font-family="Helvetica,sans-Serif" font-size="10.00"> PkgFileIterator &gt;</text>
</a>
</g>
</g>
<!-- Node2&#45;&gt;Node1 -->
<g id="edge1" class="edge"><title>Node2&#45;&gt;Node1</title>
<path fill="none" stroke="midnightblue" d="M979.76,-507C989.234,-507 998.978,-507 1008.43,-507"/>
<polygon fill="midnightblue" stroke="midnightblue" points="979.611,-503.5 969.61,-507 979.61,-510.5 979.611,-503.5"/>
</g>
<!-- Node3 -->
<g id="node3" class="node"><title>Node3</title>
<polygon fill="white" stroke="#bfbfbf" points="648,-537 648,-567 788,-567 788,-537 648,-537"/>
<text text-anchor="start" x="656" y="-555" font-family="Helvetica,sans-Serif" font-size="10.00">iterator&lt; std::forward</text>
<text text-anchor="middle" x="718" y="-544" font-family="Helvetica,sans-Serif" font-size="10.00">_iterator_tag, PackageFile &gt;</text>
</g>
<!-- Node3&#45;&gt;Node2 -->
<g id="edge2" class="edge"><title>Node3&#45;&gt;Node2</title>
<path fill="none" stroke="midnightblue" d="M793.342,-534.666C814.252,-529.791 836.629,-524.574 856.252,-519.998"/>
<polygon fill="midnightblue" stroke="midnightblue" points="792.479,-531.274 783.535,-536.953 794.068,-538.091 792.479,-531.274"/>
</g>
<!-- Node4 -->
<g id="node4" class="node"><title>Node4</title>
<g id="a_node4"><a xlink:href="classpkgCache.xhtml" target="_top" xlink:title="pkgCache">
<polygon fill="white" stroke="black" points="687.5,-295.5 687.5,-314.5 748.5,-314.5 748.5,-295.5 687.5,-295.5"/>
<text text-anchor="middle" x="718" y="-302.5" font-family="Helvetica,sans-Serif" font-size="10.00">pkgCache</text>
</a>
</g>
</g>
<!-- Node4&#45;&gt;Node2 -->
<g id="edge3" class="edge"><title>Node4&#45;&gt;Node2</title>
<path fill="none" stroke="#9a32cd" stroke-dasharray="5,2" d="M735.383,-322.147C772.471,-360.965 862.36,-455.045 897.541,-491.866"/>
<polygon fill="#9a32cd" stroke="#9a32cd" points="737.748,-319.555 728.309,-314.743 732.686,-324.391 737.748,-319.555"/>
<text text-anchor="middle" x="822" y="-428" font-family="Helvetica,sans-Serif" font-size="10.00"> Owner</text>
</g>
<!-- Node5 -->
<g id="node5" class="node"><title>Node5</title>
<g id="a_node5"><a xlink:href="structpkgCache_1_1Dependency.xhtml" target="_top" xlink:title="information for a single dependency record ">
<polygon fill="white" stroke="black" points="464.5,-530.5 464.5,-549.5 535.5,-549.5 535.5,-530.5 464.5,-530.5"/>
<text text-anchor="middle" x="500" y="-537.5" font-family="Helvetica,sans-Serif" font-size="10.00">Dependency</text>
</a>
</g>
</g>
<!-- Node5&#45;&gt;Node4 -->
<g id="edge4" class="edge"><title>Node5&#45;&gt;Node4</title>
<path fill="none" stroke="#9a32cd" stroke-dasharray="5,2" d="M545.566,-535.112C572.766,-530.062 606.677,-519.809 630,-499 688.943,-446.412 710.136,-346.179 715.503,-314.706"/>
<polygon fill="#9a32cd" stroke="#9a32cd" points="544.787,-531.693 535.506,-536.803 545.948,-538.596 544.787,-531.693"/>
<text text-anchor="middle" x="602" y="-531" font-family="Helvetica,sans-Serif" font-size="10.00"> DepP</text>
</g>
<!-- Node6 -->
<g id="node6" class="node"><title>Node6</title>
<g id="a_node6"><a xlink:href="structpkgCache_1_1Description.xhtml" target="_top" xlink:title="datamember of a linked list of available description for a version ">
<polygon fill="white" stroke="black" points="467,-485.5 467,-504.5 533,-504.5 533,-485.5 467,-485.5"/>
<text text-anchor="middle" x="500" y="-492.5" font-family="Helvetica,sans-Serif" font-size="10.00">Description</text>
</a>
</g>
</g>
<!-- Node6&#45;&gt;Node4 -->
<g id="edge5" class="edge"><title>Node6&#45;&gt;Node4</title>
<path fill="none" stroke="#9a32cd" stroke-dasharray="5,2" d="M543.238,-490.722C570.406,-486.133 605.147,-476.637 630,-457 679.861,-417.602 706.296,-341.223 714.321,-314.505"/>
<polygon fill="#9a32cd" stroke="#9a32cd" points="542.589,-487.28 533.232,-492.251 543.646,-494.2 542.589,-487.28"/>
<text text-anchor="middle" x="602" y="-487" font-family="Helvetica,sans-Serif" font-size="10.00"> DescP</text>
</g>
<!-- Node7 -->
<g id="node7" class="node"><title>Node7</title>
<g id="a_node7"><a xlink:href="structpkgCache_1_1Header.xhtml" target="_top" xlink:title="Header">
<polygon fill="white" stroke="black" points="476,-333.5 476,-352.5 524,-352.5 524,-333.5 476,-333.5"/>
<text text-anchor="middle" x="500" y="-340.5" font-family="Helvetica,sans-Serif" font-size="10.00">Header</text>
</a>
</g>
</g>
<!-- Node7&#45;&gt;Node4 -->
<g id="edge6" class="edge"><title>Node7&#45;&gt;Node4</title>
<path fill="none" stroke="#9a32cd" stroke-dasharray="5,2" d="M534.058,-337.184C575.807,-329.84 647.025,-317.31 687.179,-310.246"/>
<polygon fill="#9a32cd" stroke="#9a32cd" points="533.358,-333.754 524.116,-338.933 534.571,-340.648 533.358,-333.754"/>
<text text-anchor="middle" x="602" y="-333" font-family="Helvetica,sans-Serif" font-size="10.00"> HeaderP</text>
</g>
<!-- Node8 -->
<g id="node8" class="node"><title>Node8</title>
<g id="a_node8"><a xlink:href="structDynamicMMap_1_1Pool.xhtml" target="_top" xlink:title="Pool">
<polygon fill="white" stroke="black" points="318,-333.5 318,-352.5 354,-352.5 354,-333.5 318,-333.5"/>
<text text-anchor="middle" x="336" y="-340.5" font-family="Helvetica,sans-Serif" font-size="10.00">Pool</text>
</a>
</g>
</g>
<!-- Node8&#45;&gt;Node7 -->
<g id="edge7" class="edge"><title>Node8&#45;&gt;Node7</title>
<path fill="none" stroke="#9a32cd" stroke-dasharray="5,2" d="M364.236,-343C395.589,-343 446.538,-343 475.988,-343"/>
<polygon fill="#9a32cd" stroke="#9a32cd" points="364.031,-339.5 354.031,-343 364.031,-346.5 364.031,-339.5"/>
<text text-anchor="middle" x="401" y="-346" font-family="Helvetica,sans-Serif" font-size="10.00"> Pools</text>
</g>
<!-- Node9 -->
<g id="node9" class="node"><title>Node9</title>
<g id="a_node9"><a xlink:href="structpkgCache_1_1PackageFile.xhtml" target="_top" xlink:title="stores information about the files used to generate the cache ">
<polygon fill="white" stroke="black" points="464.5,-447.5 464.5,-466.5 535.5,-466.5 535.5,-447.5 464.5,-447.5"/>
<text text-anchor="middle" x="500" y="-454.5" font-family="Helvetica,sans-Serif" font-size="10.00">PackageFile</text>
</a>
</g>
</g>
<!-- Node9&#45;&gt;Node2 -->
<g id="edge23" class="edge"><title>Node9&#45;&gt;Node2</title>
<path fill="none" stroke="#9a32cd" stroke-dasharray="5,2" d="M545.189,-470.362C548.941,-472.062 552.598,-473.939 556,-476 565.411,-481.702 563.861,-488.724 574,-493 623.312,-513.797 773.718,-512.078 856.285,-509.362"/>
<polygon fill="#9a32cd" stroke="#9a32cd" points="546.335,-467.049 535.754,-466.495 543.68,-473.526 546.335,-467.049"/>
<text text-anchor="middle" x="718" y="-514" font-family="Helvetica,sans-Serif" font-size="10.00"> S</text>
</g>
<!-- Node9&#45;&gt;Node4 -->
<g id="edge8" class="edge"><title>Node9&#45;&gt;Node4</title>
<path fill="none" stroke="#9a32cd" stroke-dasharray="5,2" d="M545.621,-449.672C571.923,-443.757 604.864,-433.451 630,-416 670.225,-388.072 700.699,-336.033 712.107,-314.602"/>
<polygon fill="#9a32cd" stroke="#9a32cd" points="544.593,-446.311 535.531,-451.801 546.038,-453.16 544.593,-446.311"/>
<text text-anchor="middle" x="602" y="-445" font-family="Helvetica,sans-Serif" font-size="10.00"> PkgFileP</text>
</g>
<!-- Node10 -->
<g id="node10" class="node"><title>Node10</title>
<g id="a_node10"><a xlink:href="structpkgCache_1_1DescFile.xhtml" target="_top" xlink:title="associates a description with a Translation file ">
<polygon fill="white" stroke="black" points="472,-257.5 472,-276.5 528,-276.5 528,-257.5 472,-257.5"/>
<text text-anchor="middle" x="500" y="-264.5" font-family="Helvetica,sans-Serif" font-size="10.00">DescFile</text>
</a>
</g>
</g>
<!-- Node10&#45;&gt;Node4 -->
<g id="edge9" class="edge"><title>Node10&#45;&gt;Node4</title>
<path fill="none" stroke="#9a32cd" stroke-dasharray="5,2" d="M538.258,-273.555C580.542,-280.994 648.657,-292.977 687.449,-299.801"/>
<polygon fill="#9a32cd" stroke="#9a32cd" points="538.812,-270.098 528.357,-271.813 537.599,-276.993 538.812,-270.098"/>
<text text-anchor="middle" x="602" y="-293" font-family="Helvetica,sans-Serif" font-size="10.00"> DescFileP</text>
</g>
<!-- Node11 -->
<g id="node11" class="node"><title>Node11</title>
<g id="a_node11"><a xlink:href="structpkgCache_1_1StringItem.xhtml" target="_top" xlink:title="used for generating single instances of strings ">
<polygon fill="white" stroke="black" points="469,-219.5 469,-238.5 531,-238.5 531,-219.5 469,-219.5"/>
<text text-anchor="middle" x="500" y="-226.5" font-family="Helvetica,sans-Serif" font-size="10.00">StringItem</text>
</a>
</g>
</g>
<!-- Node11&#45;&gt;Node4 -->
<g id="edge10" class="edge"><title>Node11&#45;&gt;Node4</title>
<path fill="none" stroke="#9a32cd" stroke-dasharray="5,2" d="M540.881,-238.87C566.612,-245.622 600.635,-255.269 630,-266 653.786,-274.693 680.216,-286.925 697.634,-295.362"/>
<polygon fill="#9a32cd" stroke="#9a32cd" points="541.661,-235.457 531.103,-236.339 539.907,-242.234 541.661,-235.457"/>
<text text-anchor="middle" x="602" y="-269" font-family="Helvetica,sans-Serif" font-size="10.00"> StringItemP</text>
</g>
<!-- Node12 -->
<g id="node12" class="node"><title>Node12</title>
<g id="a_node12"><a xlink:href="structpkgCache_1_1Provides.xhtml" target="_top" xlink:title="handles virtual packages ">
<polygon fill="white" stroke="black" points="472.5,-181.5 472.5,-200.5 527.5,-200.5 527.5,-181.5 472.5,-181.5"/>
<text text-anchor="middle" x="500" y="-188.5" font-family="Helvetica,sans-Serif" font-size="10.00">Provides</text>
</a>
</g>
</g>
<!-- Node12&#45;&gt;Node4 -->
<g id="edge11" class="edge"><title>Node12&#45;&gt;Node4</title>
<path fill="none" stroke="#9a32cd" stroke-dasharray="5,2" d="M537.559,-199.39C564.217,-206.395 600.657,-217.851 630,-234 661.427,-251.296 692.622,-280.408 707.683,-295.415"/>
<polygon fill="#9a32cd" stroke="#9a32cd" points="538.41,-195.995 527.856,-196.922 536.685,-202.779 538.41,-195.995"/>
<text text-anchor="middle" x="602" y="-237" font-family="Helvetica,sans-Serif" font-size="10.00"> ProvideP</text>
</g>
<!-- Node13 -->
<g id="node13" class="node"><title>Node13</title>
<g id="a_node13"><a xlink:title="STL class. ">
<polygon fill="white" stroke="#bfbfbf" points="144.5,-175.5 144.5,-194.5 185.5,-194.5 185.5,-175.5 144.5,-175.5"/>
<text text-anchor="middle" x="165" y="-182.5" font-family="Helvetica,sans-Serif" font-size="10.00">string</text>
</a>
</g>
</g>
<!-- Node13&#45;&gt;Node4 -->
<g id="edge12" class="edge"><title>Node13&#45;&gt;Node4</title>
<path fill="none" stroke="#9a32cd" stroke-dasharray="5,2" d="M195.904,-178.947C261.883,-166.684 424.51,-142.473 556,-172 591.498,-179.971 600.89,-185.177 630,-207 665.497,-233.611 697.395,-276.543 710.581,-295.492"/>
<polygon fill="#9a32cd" stroke="#9a32cd" points="194.973,-175.561 185.806,-180.872 196.284,-182.437 194.973,-175.561"/>
<text text-anchor="middle" x="401" y="-162" font-family="Helvetica,sans-Serif" font-size="10.00"> CacheFile</text>
</g>
<!-- Node21 -->
<g id="node21" class="node"><title>Node21</title>
<g id="a_node21"><a xlink:href="classFileFd.xhtml" target="_top" xlink:title="FileFd">
<polygon fill="white" stroke="black" points="314,-238.5 314,-257.5 358,-257.5 358,-238.5 314,-238.5"/>
<text text-anchor="middle" x="336" y="-245.5" font-family="Helvetica,sans-Serif" font-size="10.00">FileFd</text>
</a>
</g>
</g>
<!-- Node13&#45;&gt;Node21 -->
<g id="edge22" class="edge"><title>Node13&#45;&gt;Node21</title>
<path fill="none" stroke="#9a32cd" stroke-dasharray="5,2" d="M195.498,-195.996C229.326,-208.607 283.951,-228.97 313.821,-240.105"/>
<polygon fill="#9a32cd" stroke="#9a32cd" points="196.31,-192.564 185.717,-192.35 193.865,-199.123 196.31,-192.564"/>
<text text-anchor="middle" x="250" y="-247" font-family="Helvetica,sans-Serif" font-size="10.00"> TemporaryFileName</text>
<text text-anchor="middle" x="250" y="-236" font-family="Helvetica,sans-Serif" font-size="10.00">FileName</text>
</g>
<!-- Node14 -->
<g id="node14" class="node"><title>Node14</title>
<g id="a_node14"><a xlink:title="STL class. ">
<polygon fill="white" stroke="#bfbfbf" points="0,-175.5 0,-194.5 106,-194.5 106,-175.5 0,-175.5"/>
<text text-anchor="middle" x="53" y="-182.5" font-family="Helvetica,sans-Serif" font-size="10.00">basic_string&lt; char &gt;</text>
</a>
</g>
</g>
<!-- Node14&#45;&gt;Node13 -->
<g id="edge13" class="edge"><title>Node14&#45;&gt;Node13</title>
<path fill="none" stroke="midnightblue" d="M116.338,-185C126.515,-185 136.35,-185 144.416,-185"/>
<polygon fill="midnightblue" stroke="midnightblue" points="116.101,-181.5 106.101,-185 116.101,-188.5 116.101,-181.5"/>
</g>
<!-- Node15 -->
<g id="node15" class="node"><title>Node15</title>
<g id="a_node15"><a xlink:href="structpkgCache_1_1Group.xhtml" target="_top" xlink:title="groups architecture depending packages together ">
<polygon fill="white" stroke="black" points="478.5,-105.5 478.5,-124.5 521.5,-124.5 521.5,-105.5 478.5,-105.5"/>
<text text-anchor="middle" x="500" y="-112.5" font-family="Helvetica,sans-Serif" font-size="10.00">Group</text>
</a>
</g>
</g>
<!-- Node15&#45;&gt;Node4 -->
<g id="edge14" class="edge"><title>Node15&#45;&gt;Node4</title>
<path fill="none" stroke="#9a32cd" stroke-dasharray="5,2" d="M531.919,-110.187C560.007,-107.525 601.315,-108.071 630,-128 689.896,-169.613 710.349,-264.512 715.53,-295.218"/>
<polygon fill="#9a32cd" stroke="#9a32cd" points="531.396,-106.724 521.855,-111.331 532.186,-113.679 531.396,-106.724"/>
<text text-anchor="middle" x="602" y="-131" font-family="Helvetica,sans-Serif" font-size="10.00"> GrpP</text>
</g>
<!-- Node16 -->
<g id="node16" class="node"><title>Node16</title>
<g id="a_node16"><a xlink:href="classpkgVersioningSystem.xhtml" target="_top" xlink:title="pkgVersioningSystem">
<polygon fill="white" stroke="black" points="444,-38.5 444,-57.5 556,-57.5 556,-38.5 444,-38.5"/>
<text text-anchor="middle" x="500" y="-45.5" font-family="Helvetica,sans-Serif" font-size="10.00">pkgVersioningSystem</text>
</a>
</g>
</g>
<!-- Node16&#45;&gt;Node4 -->
<g id="edge15" class="edge"><title>Node16&#45;&gt;Node4</title>
<path fill="none" stroke="#9a32cd" stroke-dasharray="5,2" d="M566.162,-60.4138C588.637,-67.4188 612.529,-78.2704 630,-95 691.282,-153.68 710.994,-261.917 715.736,-295.081"/>
<polygon fill="#9a32cd" stroke="#9a32cd" points="566.881,-56.9782 556.302,-57.5501 564.929,-63.7004 566.881,-56.9782"/>
<text text-anchor="middle" x="602" y="-98" font-family="Helvetica,sans-Serif" font-size="10.00"> VS</text>
</g>
<!-- Node16&#45;&gt;Node16 -->
<g id="edge16" class="edge"><title>Node16&#45;&gt;Node16</title>
<path fill="none" stroke="#9a32cd" stroke-dasharray="5,2" d="M481.853,-67.4C483.065,-72.3146 489.114,-76 500,-76 517.418,-76 522.453,-66.5653 515.105,-57.7571"/>
<polygon fill="#9a32cd" stroke="#9a32cd" points="485.224,-68.3468 484.895,-57.7571 478.548,-66.2404 485.224,-68.3468"/>
<text text-anchor="middle" x="500" y="-79" font-family="Helvetica,sans-Serif" font-size="10.00"> GlobalList</text>
</g>
<!-- Node17 -->
<g id="node17" class="node"><title>Node17</title>
<g id="a_node17"><a xlink:href="structpkgCache_1_1Version.xhtml" target="_top" xlink:title="information for a single version of a package ">
<polygon fill="white" stroke="black" points="475,-0.5 475,-19.5 525,-19.5 525,-0.5 475,-0.5"/>
<text text-anchor="middle" x="500" y="-7.5" font-family="Helvetica,sans-Serif" font-size="10.00">Version</text>
</a>
</g>
</g>
<!-- Node17&#45;&gt;Node4 -->
<g id="edge17" class="edge"><title>Node17&#45;&gt;Node4</title>
<path fill="none" stroke="#9a32cd" stroke-dasharray="5,2" d="M535.25,-11.8819C564.064,-15.2408 604.529,-24.3807 630,-49 704.254,-120.771 715.136,-258.248 716.728,-295.494"/>
<polygon fill="#9a32cd" stroke="#9a32cd" points="535.507,-8.39032 525.211,-10.888 534.817,-15.3563 535.507,-8.39032"/>
<text text-anchor="middle" x="602" y="-52" font-family="Helvetica,sans-Serif" font-size="10.00"> VerP</text>
</g>
<!-- Node18 -->
<g id="node18" class="node"><title>Node18</title>
<g id="a_node18"><a xlink:href="structpkgCache_1_1VerFile.xhtml" target="_top" xlink:title="associates a version with a PackageFile ">
<polygon fill="white" stroke="black" points="476.5,-409.5 476.5,-428.5 523.5,-428.5 523.5,-409.5 476.5,-409.5"/>
<text text-anchor="middle" x="500" y="-416.5" font-family="Helvetica,sans-Serif" font-size="10.00">VerFile</text>
</a>
</g>
</g>
<!-- Node18&#45;&gt;Node4 -->
<g id="edge18" class="edge"><title>Node18&#45;&gt;Node4</title>
<path fill="none" stroke="#9a32cd" stroke-dasharray="5,2" d="M533.585,-412.37C560.553,-406.026 599.281,-394.899 630,-378 661.787,-360.514 692.824,-330.452 707.769,-314.926"/>
<polygon fill="#9a32cd" stroke="#9a32cd" points="532.496,-409.027 523.513,-414.645 534.039,-415.855 532.496,-409.027"/>
<text text-anchor="middle" x="602" y="-404" font-family="Helvetica,sans-Serif" font-size="10.00"> VerFileP</text>
</g>
<!-- Node19 -->
<g id="node19" class="node"><title>Node19</title>
<g id="a_node19"><a xlink:href="structpkgCache_1_1Package.xhtml" target="_top" xlink:title="contains information for a single unique package ">
<polygon fill="white" stroke="black" points="472.5,-371.5 472.5,-390.5 527.5,-390.5 527.5,-371.5 472.5,-371.5"/>
<text text-anchor="middle" x="500" y="-378.5" font-family="Helvetica,sans-Serif" font-size="10.00">Package</text>
</a>
</g>
</g>
<!-- Node19&#45;&gt;Node4 -->
<g id="edge19" class="edge"><title>Node19&#45;&gt;Node4</title>
<path fill="none" stroke="#9a32cd" stroke-dasharray="5,2" d="M537.426,-372.48C563.536,-365.976 599.358,-356.239 630,-345 654.191,-336.127 680.982,-323.335 698.356,-314.622"/>
<polygon fill="#9a32cd" stroke="#9a32cd" points="536.456,-369.114 527.577,-374.894 538.123,-375.912 536.456,-369.114"/>
<text text-anchor="middle" x="602" y="-366" font-family="Helvetica,sans-Serif" font-size="10.00"> PkgP</text>
</g>
<!-- Node20 -->
<g id="node20" class="node"><title>Node20</title>
<g id="a_node20"><a xlink:href="classMMap.xhtml" target="_top" xlink:title="MMap">
<polygon fill="white" stroke="black" points="478,-295.5 478,-314.5 522,-314.5 522,-295.5 478,-295.5"/>
<text text-anchor="middle" x="500" y="-302.5" font-family="Helvetica,sans-Serif" font-size="10.00">MMap</text>
</a>
</g>
</g>
<!-- Node20&#45;&gt;Node4 -->
<g id="edge20" class="edge"><title>Node20&#45;&gt;Node4</title>
<path fill="none" stroke="#9a32cd" stroke-dasharray="5,2" d="M532.183,-305C573.667,-305 646.497,-305 687.246,-305"/>
<polygon fill="#9a32cd" stroke="#9a32cd" points="532.104,-301.5 522.104,-305 532.104,-308.5 532.104,-301.5"/>
<text text-anchor="middle" x="602" y="-308" font-family="Helvetica,sans-Serif" font-size="10.00"> Map</text>
</g>
<!-- Node21&#45;&gt;Node20 -->
<g id="edge21" class="edge"><title>Node21&#45;&gt;Node20</title>
<path fill="none" stroke="#9a32cd" stroke-dasharray="5,2" d="M367.821,-259.025C389.186,-266.648 418.302,-276.998 444,-286 455.155,-289.908 467.602,-294.212 477.83,-297.734"/>
<polygon fill="#9a32cd" stroke="#9a32cd" points="368.892,-255.691 358.297,-255.624 366.538,-262.283 368.892,-255.691"/>
<text text-anchor="middle" x="401" y="-282" font-family="Helvetica,sans-Serif" font-size="10.00"> SyncToFd</text>
</g>
</g>
</svg>
        <g id="navigator" transform="translate(0 0)" fill="#404254">
                <rect fill="#f2f5e9" fill-opacity="0.5" stroke="#606060" stroke-width=".5" x="0" y="0" width="60" height="60"/>
                <use id="zoomplus" xlink:href="#zoomPlus" x="17" y="9" onmousedown="handleZoom(evt,'in')"/>
                <use id="zoomminus" xlink:href="#zoomMin" x="42" y="9" onmousedown="handleZoom(evt,'out')"/>
                <use id="reset" xlink:href="#resetDef" x="30" y="36" onmousedown="handleReset()"/>
                <g id="arrowUp" xlink:href="#dirArrow" transform="translate(30 24)" onmousedown="handlePan(0,-1)">
                  <use xlink:href="#rim" fill="#404040">
                        <set attributeName="fill" to="#808080" begin="arrowUp.mouseover" end="arrowUp.mouseout"/>
                  </use>
                  <path fill="none" stroke="white" stroke-width="1.5" d="M0,-3.0v7 M-2.5,-0.5L0,-3.0L2.5,-0.5"/>
                </g>
                <g id="arrowRight" xlink:href="#dirArrow" transform="rotate(90) translate(36 -43)" onmousedown="handlePan(1,0)">
                  <use xlink:href="#rim" fill="#404040">
                        <set attributeName="fill" to="#808080" begin="arrowRight.mouseover" end="arrowRight.mouseout"/>
                  </use>
                  <path fill="none" stroke="white" stroke-width="1.5" d="M0,-3.0v7 M-2.5,-0.5L0,-3.0L2.5,-0.5"/>
                </g>
                <g id="arrowDown" xlink:href="#dirArrow" transform="rotate(180) translate(-30 -48)" onmousedown="handlePan(0,1)">
                  <use xlink:href="#rim" fill="#404040">
                        <set attributeName="fill" to="#808080" begin="arrowDown.mouseover" end="arrowDown.mouseout"/>
                  </use>
                  <path fill="none" stroke="white" stroke-width="1.5" d="M0,-3.0v7 M-2.5,-0.5L0,-3.0L2.5,-0.5"/>
                </g>
                <g id="arrowLeft" xlink:href="#dirArrow" transform="rotate(270) translate(-36 17)" onmousedown="handlePan(-1,0)">
                  <use xlink:href="#rim" fill="#404040">
                        <set attributeName="fill" to="#808080" begin="arrowLeft.mouseover" end="arrowLeft.mouseout"/>
                  </use>
                  <path fill="none" stroke="white" stroke-width="1.5" d="M0,-3.0v7 M-2.5,-0.5L0,-3.0L2.5,-0.5"/>
                </g>
        </g>
        <svg viewBox="0 0 15 15" width="100%" height="30px" preserveAspectRatio="xMaxYMin meet">
         <g id="arrow_out" transform="scale(0.3 0.3)">
          <a xlink:href="classpkgCache_1_1PkgFileIterator__coll__graph_org.svg" target="_base">
           <rect id="button" ry="5" rx="5" y="6" x="6" height="38" width="38"
                fill="#f2f5e9" fill-opacity="0.5" stroke="#606060" stroke-width="1.0"/>
           <path id="arrow"
             d="M 11.500037,31.436501 C 11.940474,20.09759 22.043105,11.32322 32.158766,21.979434 L 37.068811,17.246167 C 37.068811,17.246167 37.088388,32 37.088388,32 L 22.160133,31.978069 C 22.160133,31.978069 26.997745,27.140456 26.997745,27.140456 C 18.528582,18.264221 13.291696,25.230495 11.500037,31.436501 z"
             style="fill:#404040;"/>
          </a>
         </g>
        </svg>
</svg>
