<?xml version="1.0" encoding="UTF-8" standalone="no"?>
<!DOCTYPE svg PUBLIC "-//W3C//DTD SVG 1.1//EN"
 "http://www.w3.org/Graphics/SVG/1.1/DTD/svg11.dtd">
<!-- Generated by graphviz version 2.36.0 (20140111.2315)
 -->
<!-- Title: pkgSourceList::Type Pages: 1 -->
<svg width="209pt" height="140pt"
 viewBox="0.00 0.00 209.00 140.00" xmlns="http://www.w3.org/2000/svg" xmlns:xlink="http://www.w3.org/1999/xlink">
<g id="graph0" class="graph" transform="scale(1 1) rotate(0) translate(4 136)">
<title>pkgSourceList::Type</title>
<polygon fill="white" stroke="none" points="-4,4 -4,-136 205,-136 205,4 -4,4"/>
<!-- Node1 -->
<g id="node1" class="node"><title>Node1</title>
<polygon fill="#bfbfbf" stroke="black" points="43.5,-112.5 43.5,-131.5 150.5,-131.5 150.5,-112.5 43.5,-112.5"/>
<text text-anchor="middle" x="97" y="-119.5" font-family="Helvetica,sans-Serif" font-size="10.00">pkgSourceList::Type</text>
</g>
<!-- Node2 -->
<g id="node2" class="node"><title>Node2</title>
<g id="a_node2"><a xlink:href="classdebSLTypeDebian.xhtml" target="_top" xlink:title="debSLTypeDebian">
<polygon fill="white" stroke="black" points="48.5,-56.5 48.5,-75.5 145.5,-75.5 145.5,-56.5 48.5,-56.5"/>
<text text-anchor="middle" x="97" y="-63.5" font-family="Helvetica,sans-Serif" font-size="10.00">debSLTypeDebian</text>
</a>
</g>
</g>
<!-- Node1&#45;&gt;Node2 -->
<g id="edge1" class="edge"><title>Node1&#45;&gt;Node2</title>
<path fill="none" stroke="midnightblue" d="M97,-101.805C97,-92.9102 97,-82.7798 97,-75.7511"/>
<polygon fill="midnightblue" stroke="midnightblue" points="93.5001,-102.083 97,-112.083 100.5,-102.083 93.5001,-102.083"/>
</g>
<!-- Node3 -->
<g id="node3" class="node"><title>Node3</title>
<g id="a_node3"><a xlink:href="classdebSLTypeDeb.xhtml" target="_top" xlink:title="debSLTypeDeb">
<polygon fill="white" stroke="black" points="0,-0.5 0,-19.5 84,-19.5 84,-0.5 0,-0.5"/>
<text text-anchor="middle" x="42" y="-7.5" font-family="Helvetica,sans-Serif" font-size="10.00">debSLTypeDeb</text>
</a>
</g>
</g>
<!-- Node2&#45;&gt;Node3 -->
<g id="edge2" class="edge"><title>Node2&#45;&gt;Node3</title>
<path fill="none" stroke="midnightblue" d="M80.7062,-49.0024C70.9594,-39.4329 58.947,-27.6389 50.9131,-19.7511"/>
<polygon fill="midnightblue" stroke="midnightblue" points="78.3301,-51.5746 87.9179,-56.083 83.2343,-46.5796 78.3301,-51.5746"/>
</g>
<!-- Node4 -->
<g id="node4" class="node"><title>Node4</title>
<g id="a_node4"><a xlink:href="classdebSLTypeDebSrc.xhtml" target="_top" xlink:title="debSLTypeDebSrc">
<polygon fill="white" stroke="black" points="102.5,-0.5 102.5,-19.5 201.5,-19.5 201.5,-0.5 102.5,-0.5"/>
<text text-anchor="middle" x="152" y="-7.5" font-family="Helvetica,sans-Serif" font-size="10.00">debSLTypeDebSrc</text>
</a>
</g>
</g>
<!-- Node2&#45;&gt;Node4 -->
<g id="edge3" class="edge"><title>Node2&#45;&gt;Node4</title>
<path fill="none" stroke="midnightblue" d="M113.294,-49.0024C123.041,-39.4329 135.053,-27.6389 143.087,-19.7511"/>
<polygon fill="midnightblue" stroke="midnightblue" points="110.766,-46.5796 106.082,-56.083 115.67,-51.5746 110.766,-46.5796"/>
</g>
</g>
</svg>
