<?xml version="1.0" encoding="UTF-8" standalone="no"?>
<!DOCTYPE svg PUBLIC "-//W3C//DTD SVG 1.1//EN"
 "http://www.w3.org/Graphics/SVG/1.1/DTD/svg11.dtd">
<!-- Generated by graphviz version 2.36.0 (20140111.2315)
 -->
<!-- Title: pkgPolicy Pages: 1 -->
<!--zoomable 686 -->
<svg id="main" version="1.1" xmlns="http://www.w3.org/2000/svg" xmlns:xlink="http://www.w3.org/1999/xlink" xml:space="preserve" onload="init(evt)">
<style type="text/css"><![CDATA[
.edge:hover path { stroke: red; }
.edge:hover polygon { stroke: red; fill: red; }
]]></style>
<script type="text/javascript"><![CDATA[
var edges = document.getElementsByTagName('g');
if (edges && edges.length) {
  for (var i=0;i<edges.length;i++) {
    if (edges[i].id.substr(0,4)=='edge') {
      edges[i].setAttribute('class','edge');
    }
  }
}
]]></script>
        <defs>
                <circle id="rim" cx="0" cy="0" r="7"/>
                <circle id="rim2" cx="0" cy="0" r="3.5"/>
                <g id="zoomPlus">
                        <use xlink:href="#rim" fill="#404040">
                                <set attributeName="fill" to="#808080" begin="zoomplus.mouseover" end="zoomplus.mouseout"/>
                        </use>
                        <path d="M-4,0h8M0,-4v8" fill="none" stroke="white" stroke-width="1.5" pointer-events="none"/>
                </g>
                <g id="zoomMin">
                        <use xlink:href="#rim" fill="#404040">
                                <set attributeName="fill" to="#808080" begin="zoomminus.mouseover" end="zoomminus.mouseout"/>
                        </use>
                        <path d="M-4,0h8" fill="none" stroke="white" stroke-width="1.5" pointer-events="none"/>
                </g>
                <g id="dirArrow">
                        <path fill="none" stroke="white" stroke-width="1.5" d="M0,-3.0v7 M-2.5,-0.5L0,-3.0L2.5,-0.5"/>
                </g>
               <g id="resetDef">
                       <use xlink:href="#rim2" fill="#404040">
                               <set attributeName="fill" to="#808080" begin="reset.mouseover" end="reset.mouseout"/>
                       </use>
               </g>
        </defs>

<script type="text/javascript">
var viewWidth = 954;
var viewHeight = 686;
var sectionId = 'dynsection-1';
</script>
<script xlink:href="svgpan.js"/>
<svg id="graph" class="graph">
<g id="viewport">
<title>pkgPolicy</title>
<polygon fill="white" stroke="none" points="-4,4 -4,-682 950,-682 950,4 -4,4"/>
<!-- Node1 -->
<g id="node1" class="node"><title>Node1</title>
<polygon fill="#bfbfbf" stroke="black" points="886.5,-95.5 886.5,-114.5 945.5,-114.5 945.5,-95.5 886.5,-95.5"/>
<text text-anchor="middle" x="916" y="-102.5" font-family="Helvetica,sans-Serif" font-size="10.00">pkgPolicy</text>
</g>
<!-- Node2 -->
<g id="node2" class="node"><title>Node2</title>
<g id="a_node2"><a xlink:href="classpkgDepCache_1_1Policy.xhtml" target="_top" xlink:title="Policy">
<polygon fill="white" stroke="black" points="723,-401.5 723,-420.5 767,-420.5 767,-401.5 723,-401.5"/>
<text text-anchor="middle" x="745" y="-408.5" font-family="Helvetica,sans-Serif" font-size="10.00">Policy</text>
</a>
</g>
</g>
<!-- Node2&#45;&gt;Node1 -->
<g id="edge1" class="edge"><title>Node2&#45;&gt;Node1</title>
<path fill="none" stroke="midnightblue" d="M776.773,-402.843C783.558,-400.118 790.388,-396.569 796,-392 842.18,-354.401 843.959,-333.482 868,-279 894.275,-219.454 908.88,-141.803 913.434,-114.777"/>
<polygon fill="midnightblue" stroke="midnightblue" points="775.287,-399.655 767.01,-406.27 777.605,-406.26 775.287,-399.655"/>
</g>
<!-- Node3 -->
<g id="node3" class="node"><title>Node3</title>
<g id="a_node3"><a xlink:href="classpkgCache.xhtml" target="_top" xlink:title="pkgCache">
<polygon fill="white" stroke="black" points="714.5,-363.5 714.5,-382.5 775.5,-382.5 775.5,-363.5 714.5,-363.5"/>
<text text-anchor="middle" x="745" y="-370.5" font-family="Helvetica,sans-Serif" font-size="10.00">pkgCache</text>
</a>
</g>
</g>
<!-- Node3&#45;&gt;Node1 -->
<g id="edge2" class="edge"><title>Node3&#45;&gt;Node1</title>
<path fill="none" stroke="#9a32cd" stroke-dasharray="5,2" d="M757.397,-354.927C790.185,-302.932 883.998,-154.162 908.881,-114.704"/>
<polygon fill="#9a32cd" stroke="#9a32cd" points="754.388,-353.136 752.015,-363.462 760.309,-356.87 754.388,-353.136"/>
<text text-anchor="middle" x="841" y="-267" font-family="Helvetica,sans-Serif" font-size="10.00"> Cache</text>
</g>
<!-- Node4 -->
<g id="node4" class="node"><title>Node4</title>
<g id="a_node4"><a xlink:href="structpkgCache_1_1Dependency.xhtml" target="_top" xlink:title="information for a single dependency record ">
<polygon fill="white" stroke="black" points="464.5,-648.5 464.5,-667.5 535.5,-667.5 535.5,-648.5 464.5,-648.5"/>
<text text-anchor="middle" x="500" y="-655.5" font-family="Helvetica,sans-Serif" font-size="10.00">Dependency</text>
</a>
</g>
</g>
<!-- Node4&#45;&gt;Node3 -->
<g id="edge3" class="edge"><title>Node4&#45;&gt;Node3</title>
<path fill="none" stroke="#9a32cd" stroke-dasharray="5,2" d="M545.693,-665.588C585.868,-669.596 643.417,-667.855 676,-633 712.675,-593.768 661.88,-435.041 694,-392 698.998,-385.302 706.662,-380.965 714.499,-378.157"/>
<polygon fill="#9a32cd" stroke="#9a32cd" points="545.959,-662.095 535.624,-664.428 545.158,-669.049 545.959,-662.095"/>
<text text-anchor="middle" x="625" y="-670" font-family="Helvetica,sans-Serif" font-size="10.00"> DepP</text>
</g>
<!-- Node5 -->
<g id="node5" class="node"><title>Node5</title>
<g id="a_node5"><a xlink:href="structpkgCache_1_1Description.xhtml" target="_top" xlink:title="datamember of a linked list of available description for a version ">
<polygon fill="white" stroke="black" points="467,-610.5 467,-629.5 533,-629.5 533,-610.5 467,-610.5"/>
<text text-anchor="middle" x="500" y="-617.5" font-family="Helvetica,sans-Serif" font-size="10.00">Description</text>
</a>
</g>
</g>
<!-- Node5&#45;&gt;Node3 -->
<g id="edge4" class="edge"><title>Node5&#45;&gt;Node3</title>
<path fill="none" stroke="#9a32cd" stroke-dasharray="5,2" d="M543.361,-619.78C589.277,-618.57 658.371,-613.598 676,-595 707.156,-562.132 666.663,-428.107 694,-392 698.989,-385.411 706.552,-381.107 714.297,-378.295"/>
<polygon fill="#9a32cd" stroke="#9a32cd" points="543.012,-616.286 533.089,-619.998 543.161,-623.285 543.012,-616.286"/>
<text text-anchor="middle" x="625" y="-621" font-family="Helvetica,sans-Serif" font-size="10.00"> DescP</text>
</g>
<!-- Node6 -->
<g id="node6" class="node"><title>Node6</title>
<g id="a_node6"><a xlink:href="structpkgCache_1_1Header.xhtml" target="_top" xlink:title="Header">
<polygon fill="white" stroke="black" points="476,-572.5 476,-591.5 524,-591.5 524,-572.5 476,-572.5"/>
<text text-anchor="middle" x="500" y="-579.5" font-family="Helvetica,sans-Serif" font-size="10.00">Header</text>
</a>
</g>
</g>
<!-- Node6&#45;&gt;Node3 -->
<g id="edge5" class="edge"><title>Node6&#45;&gt;Node3</title>
<path fill="none" stroke="#9a32cd" stroke-dasharray="5,2" d="M534.387,-581.923C579.637,-581.061 656.987,-576.656 676,-557 701.644,-530.489 671.439,-421.18 694,-392 699.055,-385.462 706.639,-381.173 714.382,-378.36"/>
<polygon fill="#9a32cd" stroke="#9a32cd" points="534.119,-578.426 524.169,-582.068 534.218,-585.425 534.119,-578.426"/>
<text text-anchor="middle" x="625" y="-583" font-family="Helvetica,sans-Serif" font-size="10.00"> HeaderP</text>
</g>
<!-- Node7 -->
<g id="node7" class="node"><title>Node7</title>
<g id="a_node7"><a xlink:href="structDynamicMMap_1_1Pool.xhtml" target="_top" xlink:title="Pool">
<polygon fill="white" stroke="black" points="318,-572.5 318,-591.5 354,-591.5 354,-572.5 318,-572.5"/>
<text text-anchor="middle" x="336" y="-579.5" font-family="Helvetica,sans-Serif" font-size="10.00">Pool</text>
</a>
</g>
</g>
<!-- Node7&#45;&gt;Node6 -->
<g id="edge6" class="edge"><title>Node7&#45;&gt;Node6</title>
<path fill="none" stroke="#9a32cd" stroke-dasharray="5,2" d="M364.236,-582C395.589,-582 446.538,-582 475.988,-582"/>
<polygon fill="#9a32cd" stroke="#9a32cd" points="364.031,-578.5 354.031,-582 364.031,-585.5 364.031,-578.5"/>
<text text-anchor="middle" x="401" y="-585" font-family="Helvetica,sans-Serif" font-size="10.00"> Pools</text>
</g>
<!-- Node8 -->
<g id="node8" class="node"><title>Node8</title>
<g id="a_node8"><a xlink:href="structpkgCache_1_1PackageFile.xhtml" target="_top" xlink:title="stores information about the files used to generate the cache ">
<polygon fill="white" stroke="black" points="464.5,-534.5 464.5,-553.5 535.5,-553.5 535.5,-534.5 464.5,-534.5"/>
<text text-anchor="middle" x="500" y="-541.5" font-family="Helvetica,sans-Serif" font-size="10.00">PackageFile</text>
</a>
</g>
</g>
<!-- Node8&#45;&gt;Node3 -->
<g id="edge7" class="edge"><title>Node8&#45;&gt;Node3</title>
<path fill="none" stroke="#9a32cd" stroke-dasharray="5,2" d="M545.882,-543.526C591.604,-542.041 658.242,-536.777 676,-519 716.289,-478.667 658.41,-436.535 694,-392 699.102,-385.616 706.604,-381.376 714.254,-378.56"/>
<polygon fill="#9a32cd" stroke="#9a32cd" points="545.511,-540.035 535.611,-543.808 545.703,-547.032 545.511,-540.035"/>
<text text-anchor="middle" x="625" y="-545" font-family="Helvetica,sans-Serif" font-size="10.00"> PkgFileP</text>
</g>
<!-- Node9 -->
<g id="node9" class="node"><title>Node9</title>
<g id="a_node9"><a xlink:href="structpkgCache_1_1DescFile.xhtml" target="_top" xlink:title="associates a description with a Translation file ">
<polygon fill="white" stroke="black" points="472,-496.5 472,-515.5 528,-515.5 528,-496.5 472,-496.5"/>
<text text-anchor="middle" x="500" y="-503.5" font-family="Helvetica,sans-Serif" font-size="10.00">DescFile</text>
</a>
</g>
</g>
<!-- Node9&#45;&gt;Node3 -->
<g id="edge8" class="edge"><title>Node9&#45;&gt;Node3</title>
<path fill="none" stroke="#9a32cd" stroke-dasharray="5,2" d="M538.153,-505.567C583.544,-504.235 656.692,-499.225 676,-481 705.347,-453.298 667.891,-422.772 694,-392 699.287,-385.769 706.847,-381.576 714.493,-378.758"/>
<polygon fill="#9a32cd" stroke="#9a32cd" points="538,-502.07 528.09,-505.816 538.173,-509.068 538,-502.07"/>
<text text-anchor="middle" x="625" y="-507" font-family="Helvetica,sans-Serif" font-size="10.00"> DescFileP</text>
</g>
<!-- Node10 -->
<g id="node10" class="node"><title>Node10</title>
<g id="a_node10"><a xlink:href="structpkgCache_1_1StringItem.xhtml" target="_top" xlink:title="used for generating single instances of strings ">
<polygon fill="white" stroke="black" points="469,-458.5 469,-477.5 531,-477.5 531,-458.5 469,-458.5"/>
<text text-anchor="middle" x="500" y="-465.5" font-family="Helvetica,sans-Serif" font-size="10.00">StringItem</text>
</a>
</g>
</g>
<!-- Node10&#45;&gt;Node3 -->
<g id="edge9" class="edge"><title>Node10&#45;&gt;Node3</title>
<path fill="none" stroke="#9a32cd" stroke-dasharray="5,2" d="M541.077,-467.258C586.242,-465.619 655.982,-460.418 676,-444 694.91,-428.491 676.967,-409.55 694,-392 699.562,-386.269 707.03,-382.245 714.495,-379.426"/>
<polygon fill="#9a32cd" stroke="#9a32cd" points="540.888,-463.762 531.005,-467.579 541.112,-470.758 540.888,-463.762"/>
<text text-anchor="middle" x="625" y="-469" font-family="Helvetica,sans-Serif" font-size="10.00"> StringItemP</text>
</g>
<!-- Node11 -->
<g id="node11" class="node"><title>Node11</title>
<g id="a_node11"><a xlink:href="structpkgCache_1_1Provides.xhtml" target="_top" xlink:title="handles virtual packages ">
<polygon fill="white" stroke="black" points="472.5,-420.5 472.5,-439.5 527.5,-439.5 527.5,-420.5 472.5,-420.5"/>
<text text-anchor="middle" x="500" y="-427.5" font-family="Helvetica,sans-Serif" font-size="10.00">Provides</text>
</a>
</g>
</g>
<!-- Node11&#45;&gt;Node3 -->
<g id="edge10" class="edge"><title>Node11&#45;&gt;Node3</title>
<path fill="none" stroke="#9a32cd" stroke-dasharray="5,2" d="M537.79,-430.431C574.242,-429.618 630.986,-424.961 676,-406 685.34,-402.066 685.165,-396.966 694,-392 700.395,-388.405 707.605,-385.22 714.517,-382.533"/>
<polygon fill="#9a32cd" stroke="#9a32cd" points="537.57,-426.933 527.619,-430.569 537.665,-433.933 537.57,-426.933"/>
<text text-anchor="middle" x="625" y="-432" font-family="Helvetica,sans-Serif" font-size="10.00"> ProvideP</text>
</g>
<!-- Node12 -->
<g id="node12" class="node"><title>Node12</title>
<g id="a_node12"><a xlink:title="STL class. ">
<polygon fill="white" stroke="#bfbfbf" points="144.5,-80.5 144.5,-99.5 185.5,-99.5 185.5,-80.5 144.5,-80.5"/>
<text text-anchor="middle" x="165" y="-87.5" font-family="Helvetica,sans-Serif" font-size="10.00">string</text>
</a>
</g>
</g>
<!-- Node12&#45;&gt;Node3 -->
<g id="edge11" class="edge"><title>Node12&#45;&gt;Node3</title>
<path fill="none" stroke="#9a32cd" stroke-dasharray="5,2" d="M176.666,-108.24C208.865,-161.264 311.09,-315.26 444,-373 535.719,-412.845 658.609,-392.923 714.322,-380.471"/>
<polygon fill="#9a32cd" stroke="#9a32cd" points="179.613,-106.347 171.478,-99.5598 173.605,-109.939 179.613,-106.347"/>
<text text-anchor="middle" x="401" y="-368" font-family="Helvetica,sans-Serif" font-size="10.00"> CacheFile</text>
</g>
<!-- Node20 -->
<g id="node20" class="node"><title>Node20</title>
<g id="a_node20"><a xlink:href="classFileFd.xhtml" target="_top" xlink:title="FileFd">
<polygon fill="white" stroke="black" points="314,-105.5 314,-124.5 358,-124.5 358,-105.5 314,-105.5"/>
<text text-anchor="middle" x="336" y="-112.5" font-family="Helvetica,sans-Serif" font-size="10.00">FileFd</text>
</a>
</g>
</g>
<!-- Node12&#45;&gt;Node20 -->
<g id="edge21" class="edge"><title>Node12&#45;&gt;Node20</title>
<path fill="none" stroke="#9a32cd" stroke-dasharray="5,2" d="M195.936,-94.4284C229.796,-99.4373 284.079,-107.467 313.821,-111.867"/>
<polygon fill="#9a32cd" stroke="#9a32cd" points="196.122,-90.9179 185.717,-92.9167 195.097,-97.8425 196.122,-90.9179"/>
<text text-anchor="middle" x="250" y="-123" font-family="Helvetica,sans-Serif" font-size="10.00"> TemporaryFileName</text>
<text text-anchor="middle" x="250" y="-112" font-family="Helvetica,sans-Serif" font-size="10.00">FileName</text>
</g>
<!-- Node22 -->
<g id="node22" class="node"><title>Node22</title>
<g id="a_node22"><a xlink:href="structpkgPolicy_1_1Pin.xhtml" target="_top" xlink:title="Pin">
<polygon fill="white" stroke="black" points="320.5,-58.5 320.5,-77.5 351.5,-77.5 351.5,-58.5 320.5,-58.5"/>
<text text-anchor="middle" x="336" y="-65.5" font-family="Helvetica,sans-Serif" font-size="10.00">Pin</text>
</a>
</g>
</g>
<!-- Node12&#45;&gt;Node22 -->
<g id="edge24" class="edge"><title>Node12&#45;&gt;Node22</title>
<path fill="none" stroke="#9a32cd" stroke-dasharray="5,2" d="M195.366,-78.2316C198.252,-77.3635 201.162,-76.596 204,-76 245.476,-67.29 295.836,-67.0136 320.276,-67.5136"/>
<polygon fill="#9a32cd" stroke="#9a32cd" points="194.145,-74.9497 185.793,-81.4684 196.388,-81.5809 194.145,-74.9497"/>
<text text-anchor="middle" x="250" y="-79" font-family="Helvetica,sans-Serif" font-size="10.00"> Data</text>
</g>
<!-- Node24 -->
<g id="node24" class="node"><title>Node24</title>
<g id="a_node24"><a xlink:href="structpkgPolicy_1_1PkgPin.xhtml" target="_top" xlink:title="PkgPin">
<polygon fill="white" stroke="black" points="476,-5.5 476,-24.5 524,-24.5 524,-5.5 476,-5.5"/>
<text text-anchor="middle" x="500" y="-12.5" font-family="Helvetica,sans-Serif" font-size="10.00">PkgPin</text>
</a>
</g>
</g>
<!-- Node12&#45;&gt;Node24 -->
<g id="edge29" class="edge"><title>Node12&#45;&gt;Node24</title>
<path fill="none" stroke="#9a32cd" stroke-dasharray="5,2" d="M185.833,-74.4139C191.462,-70.563 197.762,-66.7563 204,-64 298.5,-22.2427 424.34,-15.7961 475.693,-14.9954"/>
<polygon fill="#9a32cd" stroke="#9a32cd" points="183.683,-71.6498 177.647,-80.3571 187.795,-77.3144 183.683,-71.6498"/>
<text text-anchor="middle" x="336" y="-34" font-family="Helvetica,sans-Serif" font-size="10.00"> Pkg</text>
</g>
<!-- Node13 -->
<g id="node13" class="node"><title>Node13</title>
<g id="a_node13"><a xlink:title="STL class. ">
<polygon fill="white" stroke="#bfbfbf" points="0,-80.5 0,-99.5 106,-99.5 106,-80.5 0,-80.5"/>
<text text-anchor="middle" x="53" y="-87.5" font-family="Helvetica,sans-Serif" font-size="10.00">basic_string&lt; char &gt;</text>
</a>
</g>
</g>
<!-- Node13&#45;&gt;Node12 -->
<g id="edge12" class="edge"><title>Node13&#45;&gt;Node12</title>
<path fill="none" stroke="midnightblue" d="M116.338,-90C126.515,-90 136.35,-90 144.416,-90"/>
<polygon fill="midnightblue" stroke="midnightblue" points="116.101,-86.5001 106.101,-90 116.101,-93.5001 116.101,-86.5001"/>
</g>
<!-- Node14 -->
<g id="node14" class="node"><title>Node14</title>
<g id="a_node14"><a xlink:href="structpkgCache_1_1Group.xhtml" target="_top" xlink:title="groups architecture depending packages together ">
<polygon fill="white" stroke="black" points="478.5,-344.5 478.5,-363.5 521.5,-363.5 521.5,-344.5 478.5,-344.5"/>
<text text-anchor="middle" x="500" y="-351.5" font-family="Helvetica,sans-Serif" font-size="10.00">Group</text>
</a>
</g>
</g>
<!-- Node14&#45;&gt;Node3 -->
<g id="edge13" class="edge"><title>Node14&#45;&gt;Node3</title>
<path fill="none" stroke="#9a32cd" stroke-dasharray="5,2" d="M531.802,-356.158C566.766,-358.639 625.503,-362.897 676,-367 688.521,-368.017 702.332,-369.221 714.217,-370.282"/>
<polygon fill="#9a32cd" stroke="#9a32cd" points="531.972,-352.662 521.75,-355.448 531.478,-359.644 531.972,-352.662"/>
<text text-anchor="middle" x="625" y="-370" font-family="Helvetica,sans-Serif" font-size="10.00"> GrpP</text>
</g>
<!-- Node15 -->
<g id="node15" class="node"><title>Node15</title>
<g id="a_node15"><a xlink:href="classpkgVersioningSystem.xhtml" target="_top" xlink:title="pkgVersioningSystem">
<polygon fill="white" stroke="black" points="444,-277.5 444,-296.5 556,-296.5 556,-277.5 444,-277.5"/>
<text text-anchor="middle" x="500" y="-284.5" font-family="Helvetica,sans-Serif" font-size="10.00">pkgVersioningSystem</text>
</a>
</g>
</g>
<!-- Node15&#45;&gt;Node3 -->
<g id="edge14" class="edge"><title>Node15&#45;&gt;Node3</title>
<path fill="none" stroke="#9a32cd" stroke-dasharray="5,2" d="M541.461,-299.517C577.112,-310.757 630.331,-328.053 676,-345 691.441,-350.73 708.587,-357.795 721.799,-363.394"/>
<polygon fill="#9a32cd" stroke="#9a32cd" points="542.482,-296.169 531.893,-296.512 540.385,-302.847 542.482,-296.169"/>
<text text-anchor="middle" x="625" y="-348" font-family="Helvetica,sans-Serif" font-size="10.00"> VS</text>
</g>
<!-- Node15&#45;&gt;Node15 -->
<g id="edge15" class="edge"><title>Node15&#45;&gt;Node15</title>
<path fill="none" stroke="#9a32cd" stroke-dasharray="5,2" d="M481.853,-306.4C483.065,-311.315 489.114,-315 500,-315 517.418,-315 522.453,-305.565 515.105,-296.757"/>
<polygon fill="#9a32cd" stroke="#9a32cd" points="485.224,-307.347 484.895,-296.757 478.548,-305.24 485.224,-307.347"/>
<text text-anchor="middle" x="500" y="-318" font-family="Helvetica,sans-Serif" font-size="10.00"> GlobalList</text>
</g>
<!-- Node16 -->
<g id="node16" class="node"><title>Node16</title>
<g id="a_node16"><a xlink:href="structpkgCache_1_1Version.xhtml" target="_top" xlink:title="information for a single version of a package ">
<polygon fill="white" stroke="black" points="475,-239.5 475,-258.5 525,-258.5 525,-239.5 475,-239.5"/>
<text text-anchor="middle" x="500" y="-246.5" font-family="Helvetica,sans-Serif" font-size="10.00">Version</text>
</a>
</g>
</g>
<!-- Node16&#45;&gt;Node3 -->
<g id="edge16" class="edge"><title>Node16&#45;&gt;Node3</title>
<path fill="none" stroke="#9a32cd" stroke-dasharray="5,2" d="M535.377,-252.291C572.456,-257.135 632.073,-268.772 676,-296 704.499,-313.665 727.813,-346.911 738.188,-363.327"/>
<polygon fill="#9a32cd" stroke="#9a32cd" points="535.44,-248.773 525.092,-251.047 534.599,-255.722 535.44,-248.773"/>
<text text-anchor="middle" x="625" y="-299" font-family="Helvetica,sans-Serif" font-size="10.00"> VerP</text>
</g>
<!-- Node17 -->
<g id="node17" class="node"><title>Node17</title>
<g id="a_node17"><a xlink:href="structpkgCache_1_1VerFile.xhtml" target="_top" xlink:title="associates a version with a PackageFile ">
<polygon fill="white" stroke="black" points="476.5,-201.5 476.5,-220.5 523.5,-220.5 523.5,-201.5 476.5,-201.5"/>
<text text-anchor="middle" x="500" y="-208.5" font-family="Helvetica,sans-Serif" font-size="10.00">VerFile</text>
</a>
</g>
</g>
<!-- Node17&#45;&gt;Node3 -->
<g id="edge17" class="edge"><title>Node17&#45;&gt;Node3</title>
<path fill="none" stroke="#9a32cd" stroke-dasharray="5,2" d="M534.056,-209.324C571.957,-209.095 634.226,-214.08 676,-245 717.463,-275.689 736.125,-339.308 741.916,-363.438"/>
<polygon fill="#9a32cd" stroke="#9a32cd" points="533.518,-205.834 523.587,-209.525 533.652,-212.833 533.518,-205.834"/>
<text text-anchor="middle" x="625" y="-248" font-family="Helvetica,sans-Serif" font-size="10.00"> VerFileP</text>
</g>
<!-- Node18 -->
<g id="node18" class="node"><title>Node18</title>
<g id="a_node18"><a xlink:href="structpkgCache_1_1Package.xhtml" target="_top" xlink:title="contains information for a single unique package ">
<polygon fill="white" stroke="black" points="472.5,-163.5 472.5,-182.5 527.5,-182.5 527.5,-163.5 472.5,-163.5"/>
<text text-anchor="middle" x="500" y="-170.5" font-family="Helvetica,sans-Serif" font-size="10.00">Package</text>
</a>
</g>
</g>
<!-- Node18&#45;&gt;Node3 -->
<g id="edge18" class="edge"><title>Node18&#45;&gt;Node3</title>
<path fill="none" stroke="#9a32cd" stroke-dasharray="5,2" d="M537.87,-167.933C576.45,-164.738 636.756,-165.96 676,-197 730.724,-240.284 741.459,-333.381 743.521,-363.435"/>
<polygon fill="#9a32cd" stroke="#9a32cd" points="537.215,-164.48 527.6,-168.93 537.892,-171.447 537.215,-164.48"/>
<text text-anchor="middle" x="625" y="-200" font-family="Helvetica,sans-Serif" font-size="10.00"> PkgP</text>
</g>
<!-- Node19 -->
<g id="node19" class="node"><title>Node19</title>
<g id="a_node19"><a xlink:href="classMMap.xhtml" target="_top" xlink:title="MMap">
<polygon fill="white" stroke="black" points="478,-125.5 478,-144.5 522,-144.5 522,-125.5 478,-125.5"/>
<text text-anchor="middle" x="500" y="-132.5" font-family="Helvetica,sans-Serif" font-size="10.00">MMap</text>
</a>
</g>
</g>
<!-- Node19&#45;&gt;Node3 -->
<g id="edge19" class="edge"><title>Node19&#45;&gt;Node3</title>
<path fill="none" stroke="#9a32cd" stroke-dasharray="5,2" d="M532.127,-128.55C570.428,-122.532 635.363,-118.831 676,-152 743.795,-207.337 745.437,-328.688 744.431,-363.495"/>
<polygon fill="#9a32cd" stroke="#9a32cd" points="531.334,-125.135 522.072,-130.28 532.521,-132.033 531.334,-125.135"/>
<text text-anchor="middle" x="625" y="-155" font-family="Helvetica,sans-Serif" font-size="10.00"> Map</text>
</g>
<!-- Node20&#45;&gt;Node19 -->
<g id="edge20" class="edge"><title>Node20&#45;&gt;Node19</title>
<path fill="none" stroke="#9a32cd" stroke-dasharray="5,2" d="M368.403,-118.877C400.64,-122.857 449.92,-128.941 477.816,-132.385"/>
<polygon fill="#9a32cd" stroke="#9a32cd" points="368.532,-115.366 358.179,-117.615 367.674,-122.314 368.532,-115.366"/>
<text text-anchor="middle" x="401" y="-129" font-family="Helvetica,sans-Serif" font-size="10.00"> SyncToFd</text>
</g>
<!-- Node21 -->
<g id="node21" class="node"><title>Node21</title>
<polygon fill="white" stroke="#bfbfbf" points="574.5,-83 574.5,-113 675.5,-113 675.5,-83 574.5,-83"/>
<text text-anchor="start" x="582.5" y="-101" font-family="Helvetica,sans-Serif" font-size="10.00">vector&lt; pkgPolicy::</text>
<text text-anchor="middle" x="625" y="-90" font-family="Helvetica,sans-Serif" font-size="10.00">Pin &gt;</text>
</g>
<!-- Node21&#45;&gt;Node1 -->
<g id="edge22" class="edge"><title>Node21&#45;&gt;Node1</title>
<path fill="none" stroke="#9a32cd" stroke-dasharray="5,2" d="M685.98,-99.4528C747.213,-100.936 839.673,-103.175 886.158,-104.301"/>
<polygon fill="#9a32cd" stroke="#9a32cd" points="685.763,-95.9466 675.681,-99.2033 685.593,-102.945 685.763,-95.9466"/>
<text text-anchor="middle" x="745" y="-106" font-family="Helvetica,sans-Serif" font-size="10.00"> Defaults</text>
</g>
<!-- Node22&#45;&gt;Node1 -->
<g id="edge25" class="edge"><title>Node22&#45;&gt;Node1</title>
<path fill="none" stroke="#9a32cd" stroke-dasharray="5,2" d="M361.604,-65.773C417.569,-61.0988 558.648,-51.5273 676,-62 752.636,-68.8391 841.469,-87.7803 886.161,-98.0929"/>
<polygon fill="#9a32cd" stroke="#9a32cd" points="361.241,-62.2912 351.577,-66.6352 361.841,-69.2654 361.241,-62.2912"/>
<text text-anchor="middle" x="625" y="-65" font-family="Helvetica,sans-Serif" font-size="10.00"> Pins</text>
</g>
<!-- Node22&#45;&gt;Node21 -->
<g id="edge23" class="edge"><title>Node22&#45;&gt;Node21</title>
<path fill="none" stroke="#9a32cd" stroke-dasharray="5,2" d="M362.085,-71.3176C366.709,-71.9004 371.498,-72.4846 376,-73 444.574,-80.8506 523.969,-88.6233 574.081,-93.3677"/>
<polygon fill="#9a32cd" stroke="#9a32cd" points="362.169,-67.7997 351.804,-69.9937 361.275,-74.7424 362.169,-67.7997"/>
<text text-anchor="middle" x="401" y="-82" font-family="Helvetica,sans-Serif" font-size="10.00"> elements</text>
</g>
<!-- Node22&#45;&gt;Node24 -->
<g id="edge28" class="edge"><title>Node22&#45;&gt;Node24</title>
<path fill="none" stroke="midnightblue" d="M360.832,-54.7742C365.761,-52.3262 370.981,-49.9349 376,-48 409.832,-34.9562 450.796,-25.0815 475.869,-19.6688"/>
<polygon fill="midnightblue" stroke="midnightblue" points="359.103,-51.7285 351.845,-59.4468 362.332,-57.9393 359.103,-51.7285"/>
</g>
<!-- Node23 -->
<g id="node23" class="node"><title>Node23</title>
<polygon fill="white" stroke="#bfbfbf" points="694.5,-0 694.5,-30 795.5,-30 795.5,-0 694.5,-0"/>
<text text-anchor="start" x="702.5" y="-18" font-family="Helvetica,sans-Serif" font-size="10.00">vector&lt; pkgPolicy::</text>
<text text-anchor="middle" x="745" y="-7" font-family="Helvetica,sans-Serif" font-size="10.00">PkgPin &gt;</text>
</g>
<!-- Node23&#45;&gt;Node1 -->
<g id="edge26" class="edge"><title>Node23&#45;&gt;Node1</title>
<path fill="none" stroke="#9a32cd" stroke-dasharray="5,2" d="M805.719,-14.5795C826.758,-16.8454 849.703,-22.2648 868,-34 891.144,-48.8437 905.468,-79.5981 911.571,-95.307"/>
<polygon fill="#9a32cd" stroke="#9a32cd" points="805.836,-11.0767 795.573,-13.7067 805.236,-18.051 805.836,-11.0767"/>
<text text-anchor="middle" x="841" y="-37" font-family="Helvetica,sans-Serif" font-size="10.00"> Unmatched</text>
</g>
<!-- Node24&#45;&gt;Node23 -->
<g id="edge27" class="edge"><title>Node24&#45;&gt;Node23</title>
<path fill="none" stroke="#9a32cd" stroke-dasharray="5,2" d="M534.4,-15C575.774,-15 646.626,-15 694.367,-15"/>
<polygon fill="#9a32cd" stroke="#9a32cd" points="534.3,-11.5001 524.3,-15 534.3,-18.5001 534.3,-11.5001"/>
<text text-anchor="middle" x="625" y="-18" font-family="Helvetica,sans-Serif" font-size="10.00"> elements</text>
</g>
</g>
</svg>
        <g id="navigator" transform="translate(0 0)" fill="#404254">
                <rect fill="#f2f5e9" fill-opacity="0.5" stroke="#606060" stroke-width=".5" x="0" y="0" width="60" height="60"/>
                <use id="zoomplus" xlink:href="#zoomPlus" x="17" y="9" onmousedown="handleZoom(evt,'in')"/>
                <use id="zoomminus" xlink:href="#zoomMin" x="42" y="9" onmousedown="handleZoom(evt,'out')"/>
                <use id="reset" xlink:href="#resetDef" x="30" y="36" onmousedown="handleReset()"/>
                <g id="arrowUp" xlink:href="#dirArrow" transform="translate(30 24)" onmousedown="handlePan(0,-1)">
                  <use xlink:href="#rim" fill="#404040">
                        <set attributeName="fill" to="#808080" begin="arrowUp.mouseover" end="arrowUp.mouseout"/>
                  </use>
                  <path fill="none" stroke="white" stroke-width="1.5" d="M0,-3.0v7 M-2.5,-0.5L0,-3.0L2.5,-0.5"/>
                </g>
                <g id="arrowRight" xlink:href="#dirArrow" transform="rotate(90) translate(36 -43)" onmousedown="handlePan(1,0)">
                  <use xlink:href="#rim" fill="#404040">
                        <set attributeName="fill" to="#808080" begin="arrowRight.mouseover" end="arrowRight.mouseout"/>
                  </use>
                  <path fill="none" stroke="white" stroke-width="1.5" d="M0,-3.0v7 M-2.5,-0.5L0,-3.0L2.5,-0.5"/>
                </g>
                <g id="arrowDown" xlink:href="#dirArrow" transform="rotate(180) translate(-30 -48)" onmousedown="handlePan(0,1)">
                  <use xlink:href="#rim" fill="#404040">
                        <set attributeName="fill" to="#808080" begin="arrowDown.mouseover" end="arrowDown.mouseout"/>
                  </use>
                  <path fill="none" stroke="white" stroke-width="1.5" d="M0,-3.0v7 M-2.5,-0.5L0,-3.0L2.5,-0.5"/>
                </g>
                <g id="arrowLeft" xlink:href="#dirArrow" transform="rotate(270) translate(-36 17)" onmousedown="handlePan(-1,0)">
                  <use xlink:href="#rim" fill="#404040">
                        <set attributeName="fill" to="#808080" begin="arrowLeft.mouseover" end="arrowLeft.mouseout"/>
                  </use>
                  <path fill="none" stroke="white" stroke-width="1.5" d="M0,-3.0v7 M-2.5,-0.5L0,-3.0L2.5,-0.5"/>
                </g>
        </g>
        <svg viewBox="0 0 15 15" width="100%" height="30px" preserveAspectRatio="xMaxYMin meet">
         <g id="arrow_out" transform="scale(0.3 0.3)">
          <a xlink:href="classpkgPolicy__coll__graph_org.svg" target="_base">
           <rect id="button" ry="5" rx="5" y="6" x="6" height="38" width="38"
                fill="#f2f5e9" fill-opacity="0.5" stroke="#606060" stroke-width="1.0"/>
           <path id="arrow"
             d="M 11.500037,31.436501 C 11.940474,20.09759 22.043105,11.32322 32.158766,21.979434 L 37.068811,17.246167 C 37.068811,17.246167 37.088388,32 37.088388,32 L 22.160133,31.978069 C 22.160133,31.978069 26.997745,27.140456 26.997745,27.140456 C 18.528582,18.264221 13.291696,25.230495 11.500037,31.436501 z"
             style="fill:#404040;"/>
          </a>
         </g>
        </svg>
</svg>
