<?xml version="1.0" encoding="UTF-8" standalone="no"?>
<!DOCTYPE svg PUBLIC "-//W3C//DTD SVG 1.1//EN"
 "http://www.w3.org/Graphics/SVG/1.1/DTD/svg11.dtd">
<!-- Generated by graphviz version 2.36.0 (20140111.2315)
 -->
<!-- Title: pkgCache::Iterator&lt; Str, Itr &gt; Pages: 1 -->
<svg width="930pt" height="556pt"
 viewBox="0.00 0.00 930.00 556.00" xmlns="http://www.w3.org/2000/svg" xmlns:xlink="http://www.w3.org/1999/xlink">
<g id="graph0" class="graph" transform="scale(1 1) rotate(0) translate(4 552)">
<title>pkgCache::Iterator&lt; Str, Itr &gt;</title>
<polygon fill="white" stroke="none" points="-4,4 -4,-552 926,-552 926,4 -4,4"/>
<!-- Node1 -->
<g id="node1" class="node"><title>Node1</title>
<polygon fill="#bfbfbf" stroke="black" points="824,-271 824,-301 922,-301 922,-271 824,-271"/>
<text text-anchor="start" x="832" y="-289" font-family="Helvetica,sans-Serif" font-size="10.00">pkgCache::Iterator</text>
<text text-anchor="middle" x="873" y="-278" font-family="Helvetica,sans-Serif" font-size="10.00">&lt; Str, Itr &gt;</text>
</g>
<!-- Node2 -->
<g id="node2" class="node"><title>Node2</title>
<polygon fill="white" stroke="#bfbfbf" points="648.5,-315 648.5,-345 755.5,-345 755.5,-315 648.5,-315"/>
<text text-anchor="start" x="656.5" y="-333" font-family="Helvetica,sans-Serif" font-size="10.00">iterator&lt; std::forward</text>
<text text-anchor="middle" x="702" y="-322" font-family="Helvetica,sans-Serif" font-size="10.00">_iterator_tag, Str &gt;</text>
</g>
<!-- Node2&#45;&gt;Node1 -->
<g id="edge1" class="edge"><title>Node2&#45;&gt;Node1</title>
<path fill="none" stroke="midnightblue" d="M765.451,-313.74C784.724,-308.723 805.642,-303.277 823.799,-298.549"/>
<polygon fill="midnightblue" stroke="midnightblue" points="764.342,-310.413 755.546,-316.319 766.106,-317.187 764.342,-310.413"/>
</g>
<!-- Node3 -->
<g id="node3" class="node"><title>Node3</title>
<g id="a_node3"><a xlink:href="classpkgCache.xhtml" target="_top" xlink:title="pkgCache">
<polygon fill="white" stroke="black" points="671.5,-276.5 671.5,-295.5 732.5,-295.5 732.5,-276.5 671.5,-276.5"/>
<text text-anchor="middle" x="702" y="-283.5" font-family="Helvetica,sans-Serif" font-size="10.00">pkgCache</text>
</a>
</g>
</g>
<!-- Node3&#45;&gt;Node1 -->
<g id="edge2" class="edge"><title>Node3&#45;&gt;Node1</title>
<path fill="none" stroke="#9a32cd" stroke-dasharray="5,2" d="M743.1,-286C767.341,-286 798.392,-286 823.944,-286"/>
<polygon fill="#9a32cd" stroke="#9a32cd" points="742.825,-282.5 732.825,-286 742.825,-289.5 742.825,-282.5"/>
<text text-anchor="middle" x="790" y="-289" font-family="Helvetica,sans-Serif" font-size="10.00"> Owner</text>
</g>
<!-- Node4 -->
<g id="node4" class="node"><title>Node4</title>
<g id="a_node4"><a xlink:href="structpkgCache_1_1Dependency.xhtml" target="_top" xlink:title="information for a single dependency record ">
<polygon fill="white" stroke="black" points="464.5,-523.5 464.5,-542.5 535.5,-542.5 535.5,-523.5 464.5,-523.5"/>
<text text-anchor="middle" x="500" y="-530.5" font-family="Helvetica,sans-Serif" font-size="10.00">Dependency</text>
</a>
</g>
</g>
<!-- Node4&#45;&gt;Node3 -->
<g id="edge3" class="edge"><title>Node4&#45;&gt;Node3</title>
<path fill="none" stroke="#9a32cd" stroke-dasharray="5,2" d="M545.772,-538.01C574.057,-538.499 609.091,-533.693 630,-511 661.138,-477.206 619.94,-341.39 648,-305 653.73,-297.569 662.616,-293.039 671.485,-290.28"/>
<polygon fill="#9a32cd" stroke="#9a32cd" points="545.825,-534.51 535.695,-537.614 545.55,-541.504 545.825,-534.51"/>
<text text-anchor="middle" x="602" y="-540" font-family="Helvetica,sans-Serif" font-size="10.00"> DepP</text>
</g>
<!-- Node5 -->
<g id="node5" class="node"><title>Node5</title>
<g id="a_node5"><a xlink:href="structpkgCache_1_1Description.xhtml" target="_top" xlink:title="datamember of a linked list of available description for a version ">
<polygon fill="white" stroke="black" points="467,-485.5 467,-504.5 533,-504.5 533,-485.5 467,-485.5"/>
<text text-anchor="middle" x="500" y="-492.5" font-family="Helvetica,sans-Serif" font-size="10.00">Description</text>
</a>
</g>
</g>
<!-- Node5&#45;&gt;Node3 -->
<g id="edge4" class="edge"><title>Node5&#45;&gt;Node3</title>
<path fill="none" stroke="#9a32cd" stroke-dasharray="5,2" d="M543.177,-499.457C571.817,-499.969 608.297,-495.256 630,-472 680.933,-417.422 601.819,-363.654 648,-305 653.744,-297.704 662.524,-293.206 671.295,-290.435"/>
<polygon fill="#9a32cd" stroke="#9a32cd" points="543.152,-495.953 533.022,-499.057 542.877,-502.948 543.152,-495.953"/>
<text text-anchor="middle" x="602" y="-501" font-family="Helvetica,sans-Serif" font-size="10.00"> DescP</text>
</g>
<!-- Node6 -->
<g id="node6" class="node"><title>Node6</title>
<g id="a_node6"><a xlink:href="structpkgCache_1_1Header.xhtml" target="_top" xlink:title="Header">
<polygon fill="white" stroke="black" points="476,-447.5 476,-466.5 524,-466.5 524,-447.5 476,-447.5"/>
<text text-anchor="middle" x="500" y="-454.5" font-family="Helvetica,sans-Serif" font-size="10.00">Header</text>
</a>
</g>
</g>
<!-- Node6&#45;&gt;Node3 -->
<g id="edge5" class="edge"><title>Node6&#45;&gt;Node3</title>
<path fill="none" stroke="#9a32cd" stroke-dasharray="5,2" d="M534.333,-459.788C563.817,-460.275 605.803,-455.78 630,-430 668.413,-389.075 612.498,-348.474 648,-305 653.874,-297.808 662.687,-293.337 671.448,-290.558"/>
<polygon fill="#9a32cd" stroke="#9a32cd" points="534.213,-456.281 524.092,-459.414 533.957,-463.277 534.213,-456.281"/>
<text text-anchor="middle" x="602" y="-460" font-family="Helvetica,sans-Serif" font-size="10.00"> HeaderP</text>
</g>
<!-- Node7 -->
<g id="node7" class="node"><title>Node7</title>
<g id="a_node7"><a xlink:href="structDynamicMMap_1_1Pool.xhtml" target="_top" xlink:title="Pool">
<polygon fill="white" stroke="black" points="318,-447.5 318,-466.5 354,-466.5 354,-447.5 318,-447.5"/>
<text text-anchor="middle" x="336" y="-454.5" font-family="Helvetica,sans-Serif" font-size="10.00">Pool</text>
</a>
</g>
</g>
<!-- Node7&#45;&gt;Node6 -->
<g id="edge6" class="edge"><title>Node7&#45;&gt;Node6</title>
<path fill="none" stroke="#9a32cd" stroke-dasharray="5,2" d="M364.236,-457C395.589,-457 446.538,-457 475.988,-457"/>
<polygon fill="#9a32cd" stroke="#9a32cd" points="364.031,-453.5 354.031,-457 364.031,-460.5 364.031,-453.5"/>
<text text-anchor="middle" x="401" y="-460" font-family="Helvetica,sans-Serif" font-size="10.00"> Pools</text>
</g>
<!-- Node8 -->
<g id="node8" class="node"><title>Node8</title>
<g id="a_node8"><a xlink:href="structpkgCache_1_1PackageFile.xhtml" target="_top" xlink:title="stores information about the files used to generate the cache ">
<polygon fill="white" stroke="black" points="464.5,-409.5 464.5,-428.5 535.5,-428.5 535.5,-409.5 464.5,-409.5"/>
<text text-anchor="middle" x="500" y="-416.5" font-family="Helvetica,sans-Serif" font-size="10.00">PackageFile</text>
</a>
</g>
</g>
<!-- Node8&#45;&gt;Node3 -->
<g id="edge7" class="edge"><title>Node8&#45;&gt;Node3</title>
<path fill="none" stroke="#9a32cd" stroke-dasharray="5,2" d="M546.064,-419.239C573.928,-416.925 608.38,-409.213 630,-387 656.024,-360.262 623.36,-333.019 648,-305 654.068,-298.1 662.825,-293.706 671.479,-290.907"/>
<polygon fill="#9a32cd" stroke="#9a32cd" points="545.512,-415.766 535.748,-419.88 545.946,-422.753 545.512,-415.766"/>
<text text-anchor="middle" x="602" y="-418" font-family="Helvetica,sans-Serif" font-size="10.00"> PkgFileP</text>
</g>
<!-- Node9 -->
<g id="node9" class="node"><title>Node9</title>
<g id="a_node9"><a xlink:href="structpkgCache_1_1DescFile.xhtml" target="_top" xlink:title="associates a description with a Translation file ">
<polygon fill="white" stroke="black" points="472,-371.5 472,-390.5 528,-390.5 528,-371.5 472,-371.5"/>
<text text-anchor="middle" x="500" y="-378.5" font-family="Helvetica,sans-Serif" font-size="10.00">DescFile</text>
</a>
</g>
</g>
<!-- Node9&#45;&gt;Node3 -->
<g id="edge8" class="edge"><title>Node9&#45;&gt;Node3</title>
<path fill="none" stroke="#9a32cd" stroke-dasharray="5,2" d="M538.274,-378.566C566.387,-374.939 604.359,-365.989 630,-344 644.492,-331.573 633.919,-317.891 648,-305 654.489,-299.06 662.966,-294.948 671.231,-292.113"/>
<polygon fill="#9a32cd" stroke="#9a32cd" points="537.578,-375.122 528.029,-379.712 538.356,-382.078 537.578,-375.122"/>
<text text-anchor="middle" x="602" y="-375" font-family="Helvetica,sans-Serif" font-size="10.00"> DescFileP</text>
</g>
<!-- Node10 -->
<g id="node10" class="node"><title>Node10</title>
<g id="a_node10"><a xlink:href="structpkgCache_1_1StringItem.xhtml" target="_top" xlink:title="used for generating single instances of strings ">
<polygon fill="white" stroke="black" points="469,-333.5 469,-352.5 531,-352.5 531,-333.5 469,-333.5"/>
<text text-anchor="middle" x="500" y="-340.5" font-family="Helvetica,sans-Serif" font-size="10.00">StringItem</text>
</a>
</g>
</g>
<!-- Node10&#45;&gt;Node3 -->
<g id="edge9" class="edge"><title>Node10&#45;&gt;Node3</title>
<path fill="none" stroke="#9a32cd" stroke-dasharray="5,2" d="M541.298,-335.677C567.017,-330.504 600.874,-322.761 630,-313 638.301,-310.218 639.874,-308.257 648,-305 656.075,-301.763 664.941,-298.481 673.072,-295.575"/>
<polygon fill="#9a32cd" stroke="#9a32cd" points="540.302,-332.306 531.164,-337.668 541.652,-339.175 540.302,-332.306"/>
<text text-anchor="middle" x="602" y="-332" font-family="Helvetica,sans-Serif" font-size="10.00"> StringItemP</text>
</g>
<!-- Node11 -->
<g id="node11" class="node"><title>Node11</title>
<g id="a_node11"><a xlink:href="structpkgCache_1_1Provides.xhtml" target="_top" xlink:title="handles virtual packages ">
<polygon fill="white" stroke="black" points="472.5,-295.5 472.5,-314.5 527.5,-314.5 527.5,-295.5 472.5,-295.5"/>
<text text-anchor="middle" x="500" y="-302.5" font-family="Helvetica,sans-Serif" font-size="10.00">Provides</text>
</a>
</g>
</g>
<!-- Node11&#45;&gt;Node3 -->
<g id="edge10" class="edge"><title>Node11&#45;&gt;Node3</title>
<path fill="none" stroke="#9a32cd" stroke-dasharray="5,2" d="M537.809,-301.503C576.273,-297.849 635.868,-292.188 671.399,-288.812"/>
<polygon fill="#9a32cd" stroke="#9a32cd" points="537.183,-298.047 527.558,-302.477 537.845,-305.015 537.183,-298.047"/>
<text text-anchor="middle" x="602" y="-301" font-family="Helvetica,sans-Serif" font-size="10.00"> ProvideP</text>
</g>
<!-- Node12 -->
<g id="node12" class="node"><title>Node12</title>
<g id="a_node12"><a xlink:title="STL class. ">
<polygon fill="white" stroke="#bfbfbf" points="144.5,-238.5 144.5,-257.5 185.5,-257.5 185.5,-238.5 144.5,-238.5"/>
<text text-anchor="middle" x="165" y="-245.5" font-family="Helvetica,sans-Serif" font-size="10.00">string</text>
</a>
</g>
</g>
<!-- Node12&#45;&gt;Node3 -->
<g id="edge11" class="edge"><title>Node12&#45;&gt;Node3</title>
<path fill="none" stroke="#9a32cd" stroke-dasharray="5,2" d="M195.688,-252.094C198.495,-252.424 201.3,-252.733 204,-253 380.843,-270.487 594.028,-281.164 671.255,-284.696"/>
<polygon fill="#9a32cd" stroke="#9a32cd" points="196.053,-248.612 185.695,-250.837 195.18,-255.557 196.053,-248.612"/>
<text text-anchor="middle" x="401" y="-274" font-family="Helvetica,sans-Serif" font-size="10.00"> CacheFile</text>
</g>
<!-- Node20 -->
<g id="node20" class="node"><title>Node20</title>
<g id="a_node20"><a xlink:href="classFileFd.xhtml" target="_top" xlink:title="FileFd">
<polygon fill="white" stroke="black" points="314,-219.5 314,-238.5 358,-238.5 358,-219.5 314,-219.5"/>
<text text-anchor="middle" x="336" y="-226.5" font-family="Helvetica,sans-Serif" font-size="10.00">FileFd</text>
</a>
</g>
</g>
<!-- Node12&#45;&gt;Node20 -->
<g id="edge21" class="edge"><title>Node12&#45;&gt;Node20</title>
<path fill="none" stroke="#9a32cd" stroke-dasharray="5,2" d="M192.707,-234.457C196.422,-233.048 200.251,-231.83 204,-231 241.975,-222.589 287.668,-224.522 313.824,-226.733"/>
<polygon fill="#9a32cd" stroke="#9a32cd" points="191.089,-231.342 183.274,-238.496 193.844,-237.777 191.089,-231.342"/>
<text text-anchor="middle" x="250" y="-245" font-family="Helvetica,sans-Serif" font-size="10.00"> TemporaryFileName</text>
<text text-anchor="middle" x="250" y="-234" font-family="Helvetica,sans-Serif" font-size="10.00">FileName</text>
</g>
<!-- Node13 -->
<g id="node13" class="node"><title>Node13</title>
<g id="a_node13"><a xlink:title="STL class. ">
<polygon fill="white" stroke="#bfbfbf" points="0,-238.5 0,-257.5 106,-257.5 106,-238.5 0,-238.5"/>
<text text-anchor="middle" x="53" y="-245.5" font-family="Helvetica,sans-Serif" font-size="10.00">basic_string&lt; char &gt;</text>
</a>
</g>
</g>
<!-- Node13&#45;&gt;Node12 -->
<g id="edge12" class="edge"><title>Node13&#45;&gt;Node12</title>
<path fill="none" stroke="midnightblue" d="M116.338,-248C126.515,-248 136.35,-248 144.416,-248"/>
<polygon fill="midnightblue" stroke="midnightblue" points="116.101,-244.5 106.101,-248 116.101,-251.5 116.101,-244.5"/>
</g>
<!-- Node14 -->
<g id="node14" class="node"><title>Node14</title>
<g id="a_node14"><a xlink:href="structpkgCache_1_1Group.xhtml" target="_top" xlink:title="groups architecture depending packages together ">
<polygon fill="white" stroke="black" points="478.5,-181.5 478.5,-200.5 521.5,-200.5 521.5,-181.5 478.5,-181.5"/>
<text text-anchor="middle" x="500" y="-188.5" font-family="Helvetica,sans-Serif" font-size="10.00">Group</text>
</a>
</g>
</g>
<!-- Node14&#45;&gt;Node3 -->
<g id="edge13" class="edge"><title>Node14&#45;&gt;Node3</title>
<path fill="none" stroke="#9a32cd" stroke-dasharray="5,2" d="M531.841,-187.598C560.577,-186.186 602.945,-188.842 630,-212 649.54,-228.725 630.069,-248.561 648,-267 654.269,-273.447 662.878,-277.714 671.334,-280.535"/>
<polygon fill="#9a32cd" stroke="#9a32cd" points="531.292,-184.127 521.555,-188.304 531.771,-191.111 531.292,-184.127"/>
<text text-anchor="middle" x="602" y="-215" font-family="Helvetica,sans-Serif" font-size="10.00"> GrpP</text>
</g>
<!-- Node15 -->
<g id="node15" class="node"><title>Node15</title>
<g id="a_node15"><a xlink:href="classpkgVersioningSystem.xhtml" target="_top" xlink:title="pkgVersioningSystem">
<polygon fill="white" stroke="black" points="444,-114.5 444,-133.5 556,-133.5 556,-114.5 444,-114.5"/>
<text text-anchor="middle" x="500" y="-121.5" font-family="Helvetica,sans-Serif" font-size="10.00">pkgVersioningSystem</text>
</a>
</g>
</g>
<!-- Node15&#45;&gt;Node3 -->
<g id="edge14" class="edge"><title>Node15&#45;&gt;Node3</title>
<path fill="none" stroke="#9a32cd" stroke-dasharray="5,2" d="M566.114,-136.101C589.429,-143.586 613.898,-155.639 630,-175 656.641,-207.033 620.845,-235.401 648,-267 653.989,-273.969 662.725,-278.381 671.384,-281.176"/>
<polygon fill="#9a32cd" stroke="#9a32cd" points="566.803,-132.654 556.22,-133.164 564.811,-139.365 566.803,-132.654"/>
<text text-anchor="middle" x="602" y="-178" font-family="Helvetica,sans-Serif" font-size="10.00"> VS</text>
</g>
<!-- Node15&#45;&gt;Node15 -->
<g id="edge15" class="edge"><title>Node15&#45;&gt;Node15</title>
<path fill="none" stroke="#9a32cd" stroke-dasharray="5,2" d="M481.853,-143.4C483.065,-148.315 489.114,-152 500,-152 517.418,-152 522.453,-142.565 515.105,-133.757"/>
<polygon fill="#9a32cd" stroke="#9a32cd" points="485.224,-144.347 484.895,-133.757 478.548,-142.24 485.224,-144.347"/>
<text text-anchor="middle" x="500" y="-155" font-family="Helvetica,sans-Serif" font-size="10.00"> GlobalList</text>
</g>
<!-- Node16 -->
<g id="node16" class="node"><title>Node16</title>
<g id="a_node16"><a xlink:href="structpkgCache_1_1Version.xhtml" target="_top" xlink:title="information for a single version of a package ">
<polygon fill="white" stroke="black" points="475,-76.5 475,-95.5 525,-95.5 525,-76.5 475,-76.5"/>
<text text-anchor="middle" x="500" y="-83.5" font-family="Helvetica,sans-Serif" font-size="10.00">Version</text>
</a>
</g>
</g>
<!-- Node16&#45;&gt;Node3 -->
<g id="edge16" class="edge"><title>Node16&#45;&gt;Node3</title>
<path fill="none" stroke="#9a32cd" stroke-dasharray="5,2" d="M535.496,-86.2813C565.198,-88.51 606.829,-96.7555 630,-124 671.5,-172.796 607.926,-217.026 648,-267 653.809,-274.244 662.606,-278.729 671.372,-281.504"/>
<polygon fill="#9a32cd" stroke="#9a32cd" points="535.327,-82.7667 525.149,-85.7084 534.94,-89.756 535.327,-82.7667"/>
<text text-anchor="middle" x="602" y="-127" font-family="Helvetica,sans-Serif" font-size="10.00"> VerP</text>
</g>
<!-- Node17 -->
<g id="node17" class="node"><title>Node17</title>
<g id="a_node17"><a xlink:href="structpkgCache_1_1VerFile.xhtml" target="_top" xlink:title="associates a version with a PackageFile ">
<polygon fill="white" stroke="black" points="476.5,-38.5 476.5,-57.5 523.5,-57.5 523.5,-38.5 476.5,-38.5"/>
<text text-anchor="middle" x="500" y="-45.5" font-family="Helvetica,sans-Serif" font-size="10.00">VerFile</text>
</a>
</g>
</g>
<!-- Node17&#45;&gt;Node3 -->
<g id="edge17" class="edge"><title>Node17&#45;&gt;Node3</title>
<path fill="none" stroke="#9a32cd" stroke-dasharray="5,2" d="M533.944,-45.7971C563.725,-45.7759 606.406,-51.0247 630,-78 657.776,-109.757 622.107,-233.69 648,-267 653.699,-274.332 662.467,-278.838 671.241,-281.607"/>
<polygon fill="#9a32cd" stroke="#9a32cd" points="533.54,-42.3047 523.615,-46.0129 533.686,-49.3032 533.54,-42.3047"/>
<text text-anchor="middle" x="602" y="-81" font-family="Helvetica,sans-Serif" font-size="10.00"> VerFileP</text>
</g>
<!-- Node18 -->
<g id="node18" class="node"><title>Node18</title>
<g id="a_node18"><a xlink:href="structpkgCache_1_1Package.xhtml" target="_top" xlink:title="contains information for a single unique package ">
<polygon fill="white" stroke="black" points="472.5,-0.5 472.5,-19.5 527.5,-19.5 527.5,-0.5 472.5,-0.5"/>
<text text-anchor="middle" x="500" y="-7.5" font-family="Helvetica,sans-Serif" font-size="10.00">Package</text>
</a>
</g>
</g>
<!-- Node18&#45;&gt;Node3 -->
<g id="edge18" class="edge"><title>Node18&#45;&gt;Node3</title>
<path fill="none" stroke="#9a32cd" stroke-dasharray="5,2" d="M538.069,-6.1533C567.528,-5.34271 607.414,-9.68003 630,-35 664.422,-73.5884 616.623,-225.897 648,-267 653.694,-274.459 662.571,-278.995 671.442,-281.753"/>
<polygon fill="#9a32cd" stroke="#9a32cd" points="537.556,-2.67397 527.738,-6.65553 537.896,-9.66572 537.556,-2.67397"/>
<text text-anchor="middle" x="602" y="-38" font-family="Helvetica,sans-Serif" font-size="10.00"> PkgP</text>
</g>
<!-- Node19 -->
<g id="node19" class="node"><title>Node19</title>
<g id="a_node19"><a xlink:href="classMMap.xhtml" target="_top" xlink:title="MMap">
<polygon fill="white" stroke="black" points="478,-219.5 478,-238.5 522,-238.5 522,-219.5 478,-219.5"/>
<text text-anchor="middle" x="500" y="-226.5" font-family="Helvetica,sans-Serif" font-size="10.00">MMap</text>
</a>
</g>
</g>
<!-- Node19&#45;&gt;Node3 -->
<g id="edge19" class="edge"><title>Node19&#45;&gt;Node3</title>
<path fill="none" stroke="#9a32cd" stroke-dasharray="5,2" d="M532.507,-225.248C560.066,-223.505 600.228,-224.811 630,-242 641.857,-248.846 637.063,-258.763 648,-267 654.871,-272.175 663.281,-276.037 671.36,-278.878"/>
<polygon fill="#9a32cd" stroke="#9a32cd" points="531.94,-221.782 522.253,-226.073 532.501,-228.76 531.94,-221.782"/>
<text text-anchor="middle" x="602" y="-245" font-family="Helvetica,sans-Serif" font-size="10.00"> Map</text>
</g>
<!-- Node20&#45;&gt;Node19 -->
<g id="edge20" class="edge"><title>Node20&#45;&gt;Node19</title>
<path fill="none" stroke="#9a32cd" stroke-dasharray="5,2" d="M368.403,-229C400.64,-229 449.92,-229 477.816,-229"/>
<polygon fill="#9a32cd" stroke="#9a32cd" points="368.179,-225.5 358.179,-229 368.179,-232.5 368.179,-225.5"/>
<text text-anchor="middle" x="401" y="-232" font-family="Helvetica,sans-Serif" font-size="10.00"> SyncToFd</text>
</g>
<!-- Node21 -->
<g id="node21" class="node"><title>Node21</title>
<polygon fill="white" stroke="#bfbfbf" points="687.5,-238.5 687.5,-257.5 716.5,-257.5 716.5,-238.5 687.5,-238.5"/>
<text text-anchor="middle" x="702" y="-245.5" font-family="Helvetica,sans-Serif" font-size="10.00">Str</text>
</g>
<!-- Node21&#45;&gt;Node1 -->
<g id="edge22" class="edge"><title>Node21&#45;&gt;Node1</title>
<path fill="none" stroke="#9a32cd" stroke-dasharray="5,2" d="M726.557,-253.234C747.437,-257.879 778.754,-264.862 806,-271 811.732,-272.291 817.742,-273.65 823.704,-275.001"/>
<polygon fill="#9a32cd" stroke="#9a32cd" points="727.187,-249.788 716.666,-251.034 725.668,-256.622 727.187,-249.788"/>
<text text-anchor="middle" x="790" y="-274" font-family="Helvetica,sans-Serif" font-size="10.00"> S</text>
</g>
</g>
</svg>
