<?xml version="1.0" encoding="UTF-8" standalone="no"?>
<!DOCTYPE svg PUBLIC "-//W3C//DTD SVG 1.1//EN"
 "http://www.w3.org/Graphics/SVG/1.1/DTD/svg11.dtd">
<!-- Generated by graphviz version 2.36.0 (20140111.2315)
 -->
<!-- Title: pkgAcqIndex Pages: 1 -->
<svg width="773pt" height="566pt"
 viewBox="0.00 0.00 773.00 566.00" xmlns="http://www.w3.org/2000/svg" xmlns:xlink="http://www.w3.org/1999/xlink">
<g id="graph0" class="graph" transform="scale(1 1) rotate(0) translate(4 562)">
<title>pkgAcqIndex</title>
<polygon fill="white" stroke="none" points="-4,4 -4,-562 769,-562 769,4 -4,4"/>
<!-- Node1 -->
<g id="node1" class="node"><title>Node1</title>
<polygon fill="#bfbfbf" stroke="black" points="266,-206.5 266,-225.5 340,-225.5 340,-206.5 266,-206.5"/>
<text text-anchor="middle" x="303" y="-213.5" font-family="Helvetica,sans-Serif" font-size="10.00">pkgAcqIndex</text>
</g>
<!-- Node2 -->
<g id="node2" class="node"><title>Node2</title>
<g id="a_node2"><a xlink:href="classpkgAcquire_1_1Item.xhtml" target="_top" xlink:title="Represents the process by which a pkgAcquire object should {{{ retrieve a file or a collection of fil...">
<polygon fill="white" stroke="black" points="171,-383.5 171,-402.5 207,-402.5 207,-383.5 171,-383.5"/>
<text text-anchor="middle" x="189" y="-390.5" font-family="Helvetica,sans-Serif" font-size="10.00">Item</text>
</a>
</g>
</g>
<!-- Node2&#45;&gt;Node1 -->
<g id="edge1" class="edge"><title>Node2&#45;&gt;Node1</title>
<path fill="none" stroke="midnightblue" d="M206.278,-376.185C211.691,-370.733 217.436,-364.385 222,-358 255.056,-311.752 248.462,-291.297 280,-244 284.373,-237.442 290.123,-230.692 294.78,-225.582"/>
<polygon fill="midnightblue" stroke="midnightblue" points="203.532,-373.971 198.763,-383.431 208.391,-379.01 203.532,-373.971"/>
</g>
<!-- Node7 -->
<g id="node7" class="node"><title>Node7</title>
<g id="a_node7"><a xlink:href="structpkgAcquire_1_1ItemDesc.xhtml" target="_top" xlink:title="Represents a single download source from which an item should be downloaded. ">
<polygon fill="white" stroke="black" points="159.5,-297.5 159.5,-316.5 218.5,-316.5 218.5,-297.5 159.5,-297.5"/>
<text text-anchor="middle" x="189" y="-304.5" font-family="Helvetica,sans-Serif" font-size="10.00">ItemDesc</text>
</a>
</g>
</g>
<!-- Node2&#45;&gt;Node7 -->
<g id="edge11" class="edge"><title>Node2&#45;&gt;Node7</title>
<path fill="none" stroke="#9a32cd" stroke-dasharray="5,2" d="M189,-373.096C189,-355.482 189,-330.004 189,-316.752"/>
<polygon fill="#9a32cd" stroke="#9a32cd" points="185.5,-373.327 189,-383.327 192.5,-373.327 185.5,-373.327"/>
<text text-anchor="middle" x="205" y="-344.5" font-family="Helvetica,sans-Serif" font-size="10.00"> Owner</text>
</g>
<!-- Node14 -->
<g id="node14" class="node"><title>Node14</title>
<polygon fill="white" stroke="#bfbfbf" points="15.5,-246 15.5,-276 116.5,-276 116.5,-246 15.5,-246"/>
<text text-anchor="start" x="23.5" y="-264" font-family="Helvetica,sans-Serif" font-size="10.00">vector&lt; pkgAcquire</text>
<text text-anchor="middle" x="66" y="-253" font-family="Helvetica,sans-Serif" font-size="10.00">::Item * &gt;</text>
</g>
<!-- Node2&#45;&gt;Node14 -->
<g id="edge30" class="edge"><title>Node2&#45;&gt;Node14</title>
<path fill="none" stroke="#9a32cd" stroke-dasharray="5,2" d="M160.578,-392.089C133.806,-390.501 94.7935,-383.544 74,-358 54.9951,-334.653 58.7608,-296.677 62.6716,-276.186"/>
<polygon fill="#9a32cd" stroke="#9a32cd" points="160.743,-395.597 170.867,-392.474 161.005,-388.602 160.743,-395.597"/>
<text text-anchor="middle" x="95.5" y="-344.5" font-family="Helvetica,sans-Serif" font-size="10.00"> elements</text>
</g>
<!-- Node3 -->
<g id="node3" class="node"><title>Node3</title>
<g id="a_node3"><a xlink:href="classWeakPointable.xhtml" target="_top" xlink:title="WeakPointable">
<polygon fill="white" stroke="black" points="101.5,-480.5 101.5,-499.5 184.5,-499.5 184.5,-480.5 101.5,-480.5"/>
<text text-anchor="middle" x="143" y="-487.5" font-family="Helvetica,sans-Serif" font-size="10.00">WeakPointable</text>
</a>
</g>
</g>
<!-- Node3&#45;&gt;Node2 -->
<g id="edge2" class="edge"><title>Node3&#45;&gt;Node2</title>
<path fill="none" stroke="midnightblue" d="M151.681,-471.071C161.555,-450.679 177.276,-418.213 184.765,-402.746"/>
<polygon fill="midnightblue" stroke="midnightblue" points="148.453,-469.707 147.245,-480.233 154.753,-472.758 148.453,-469.707"/>
</g>
<!-- Node3&#45;&gt;Node7 -->
<g id="edge8" class="edge"><title>Node3&#45;&gt;Node7</title>
<path fill="none" stroke="midnightblue" d="M144.938,-470.123C147.545,-447.467 152.934,-408.47 162,-376 168.149,-353.978 178.999,-329.307 184.9,-316.598"/>
<polygon fill="midnightblue" stroke="midnightblue" points="141.426,-470.039 143.823,-480.359 148.385,-470.797 141.426,-470.039"/>
</g>
<!-- Node10 -->
<g id="node10" class="node"><title>Node10</title>
<g id="a_node10"><a xlink:href="classpkgAcquire_1_1Worker.xhtml" target="_top" xlink:title="A fetch subprocess. ">
<polygon fill="white" stroke="black" points="372,-69.5 372,-88.5 420,-88.5 420,-69.5 372,-69.5"/>
<text text-anchor="middle" x="396" y="-76.5" font-family="Helvetica,sans-Serif" font-size="10.00">Worker</text>
</a>
</g>
</g>
<!-- Node3&#45;&gt;Node10 -->
<g id="edge14" class="edge"><title>Node3&#45;&gt;Node10</title>
<path fill="none" stroke="midnightblue" d="M93.1,-477.669C51.8443,-465.002 0,-439.943 0,-394 0,-394 0,-394 0,-260 0,-202.572 155.205,-128.104 209,-108 275.204,-83.2582 298.07,-105.613 367,-90 368.87,-89.5765 370.787,-89.0743 372.702,-88.524"/>
<polygon fill="midnightblue" stroke="midnightblue" points="92.2066,-481.054 102.786,-480.481 94.1584,-474.332 92.2066,-481.054"/>
</g>
<!-- Node4 -->
<g id="node4" class="node"><title>Node4</title>
<g id="a_node4"><a xlink:href="classpkgAcquire.xhtml" target="_top" xlink:title="The core download scheduler. {{{. ">
<polygon fill="white" stroke="black" points="363.5,-0.5 363.5,-19.5 428.5,-19.5 428.5,-0.5 363.5,-0.5"/>
<text text-anchor="middle" x="396" y="-7.5" font-family="Helvetica,sans-Serif" font-size="10.00">pkgAcquire</text>
</a>
</g>
</g>
<!-- Node4&#45;&gt;Node2 -->
<g id="edge3" class="edge"><title>Node4&#45;&gt;Node2</title>
<path fill="none" stroke="#9a32cd" stroke-dasharray="5,2" d="M353.322,-13.0475C278.614,-17.8073 132,-32.8943 132,-78 132,-217 132,-217 132,-217 132,-262.596 135.195,-274.874 150,-318 158.582,-342.998 174.673,-369.854 183.259,-383.291"/>
<polygon fill="#9a32cd" stroke="#9a32cd" points="353.592,-16.5376 363.364,-12.4424 353.171,-9.55032 353.592,-16.5376"/>
<text text-anchor="middle" x="148" y="-179.5" font-family="Helvetica,sans-Serif" font-size="10.00"> Owner</text>
</g>
<!-- Node5 -->
<g id="node5" class="node"><title>Node5</title>
<g id="a_node5"><a xlink:href="classpkgAcquire_1_1Queue.xhtml" target="_top" xlink:title="A single download queue in a pkgAcquire object. {{{. ">
<polygon fill="white" stroke="black" points="488.5,-138.5 488.5,-157.5 533.5,-157.5 533.5,-138.5 488.5,-138.5"/>
<text text-anchor="middle" x="511" y="-145.5" font-family="Helvetica,sans-Serif" font-size="10.00">Queue</text>
</a>
</g>
</g>
<!-- Node4&#45;&gt;Node5 -->
<g id="edge5" class="edge"><title>Node4&#45;&gt;Node5</title>
<path fill="none" stroke="#9a32cd" stroke-dasharray="5,2" d="M439.153,-13.3858C496.891,-19.2333 596.784,-39.3072 638,-108 640.744,-112.573 641.356,-115.855 638,-120 625.127,-135.898 566.67,-142.825 533.736,-145.51"/>
<polygon fill="#9a32cd" stroke="#9a32cd" points="439.162,-9.87221 428.886,-12.4509 438.527,-16.8434 439.162,-9.87221"/>
<text text-anchor="middle" x="640" y="-76.5" font-family="Helvetica,sans-Serif" font-size="10.00"> Owner</text>
</g>
<!-- Node5&#45;&gt;Node4 -->
<g id="edge4" class="edge"><title>Node5&#45;&gt;Node4</title>
<path fill="none" stroke="#9a32cd" stroke-dasharray="5,2" d="M524.846,-130.02C528.699,-123.319 531.28,-115.452 529,-108 522.726,-87.4895 517.908,-82.3866 502,-68 477.204,-45.5759 441.997,-28.9163 419.078,-19.575"/>
<polygon fill="#9a32cd" stroke="#9a32cd" points="521.94,-128.068 519.14,-138.287 527.701,-132.045 521.94,-128.068"/>
<text text-anchor="middle" x="540.5" y="-76.5" font-family="Helvetica,sans-Serif" font-size="10.00"> Queues</text>
</g>
<!-- Node5&#45;&gt;Node10 -->
<g id="edge15" class="edge"><title>Node5&#45;&gt;Node10</title>
<path fill="none" stroke="#9a32cd" stroke-dasharray="5,2" d="M478.449,-140.469C462.876,-136.305 444.51,-129.8 430,-120 417.613,-111.634 407.143,-97.5709 401.218,-88.5436"/>
<polygon fill="#9a32cd" stroke="#9a32cd" points="477.664,-143.88 488.211,-142.878 479.341,-137.084 477.664,-143.88"/>
<text text-anchor="middle" x="450" y="-111.5" font-family="Helvetica,sans-Serif" font-size="10.00"> OwnerQ</text>
</g>
<!-- Node6 -->
<g id="node6" class="node"><title>Node6</title>
<g id="a_node6"><a xlink:href="structpkgAcquire_1_1Queue_1_1QItem.xhtml" target="_top" xlink:title="A single item placed in this queue. ">
<polygon fill="white" stroke="black" points="161,-206.5 161,-225.5 205,-225.5 205,-206.5 161,-206.5"/>
<text text-anchor="middle" x="183" y="-213.5" font-family="Helvetica,sans-Serif" font-size="10.00">QItem</text>
</a>
</g>
</g>
<!-- Node6&#45;&gt;Node5 -->
<g id="edge6" class="edge"><title>Node6&#45;&gt;Node5</title>
<path fill="none" stroke="#9a32cd" stroke-dasharray="5,2" d="M215.243,-210.883C267.182,-204.21 365.18,-191.43 381,-188 419.227,-179.713 462.54,-165.775 488.269,-156.999"/>
<polygon fill="#9a32cd" stroke="#9a32cd" points="214.679,-207.427 205.205,-212.171 215.569,-214.37 214.679,-207.427"/>
<text text-anchor="middle" x="442" y="-179.5" font-family="Helvetica,sans-Serif" font-size="10.00"> Items</text>
</g>
<!-- Node6&#45;&gt;Node6 -->
<g id="edge12" class="edge"><title>Node6&#45;&gt;Node6</title>
<path fill="none" stroke="#9a32cd" stroke-dasharray="5,2" d="M215.111,-221.591C219.259,-220.624 222,-218.76 222,-216 222,-211.352 214.224,-209.245 205.051,-209.681"/>
<polygon fill="#9a32cd" stroke="#9a32cd" points="214.772,-218.107 205.051,-222.319 215.277,-225.088 214.772,-218.107"/>
<text text-anchor="middle" x="234.5" y="-213.5" font-family="Helvetica,sans-Serif" font-size="10.00"> Next</text>
</g>
<!-- Node6&#45;&gt;Node10 -->
<g id="edge19" class="edge"><title>Node6&#45;&gt;Node10</title>
<path fill="none" stroke="#9a32cd" stroke-dasharray="5,2" d="M214.828,-209.274C248.595,-201.951 302.187,-186.638 340,-158 365.515,-138.676 384.258,-104.463 392.034,-88.5642"/>
<polygon fill="#9a32cd" stroke="#9a32cd" points="214.111,-205.848 205.025,-211.297 215.526,-212.704 214.111,-205.848"/>
<text text-anchor="middle" x="387.5" y="-145.5" font-family="Helvetica,sans-Serif" font-size="10.00"> CurrentItem</text>
</g>
<!-- Node7&#45;&gt;Node1 -->
<g id="edge36" class="edge"><title>Node7&#45;&gt;Node1</title>
<path fill="none" stroke="#9a32cd" stroke-dasharray="5,2" d="M189.408,-287.249C190.71,-273.517 194.677,-255.367 206,-244 210.426,-239.557 240.368,-231.611 265.831,-225.486"/>
<polygon fill="#9a32cd" stroke="#9a32cd" points="185.899,-287.32 188.838,-297.498 192.888,-287.708 185.899,-287.32"/>
<text text-anchor="middle" x="219.5" y="-258.5" font-family="Helvetica,sans-Serif" font-size="10.00"> Desc</text>
</g>
<!-- Node7&#45;&gt;Node6 -->
<g id="edge7" class="edge"><title>Node7&#45;&gt;Node6</title>
<path fill="none" stroke="midnightblue" d="M186.816,-287.008C186.513,-283.997 186.228,-280.915 186,-278 184.547,-259.395 183.674,-237.54 183.27,-225.697"/>
<polygon fill="midnightblue" stroke="midnightblue" points="183.362,-287.622 187.924,-297.185 190.321,-286.864 183.362,-287.622"/>
</g>
<!-- Node8 -->
<g id="node8" class="node"><title>Node8</title>
<g id="a_node8"><a xlink:title="STL class. ">
<polygon fill="white" stroke="#bfbfbf" points="439.5,-480.5 439.5,-499.5 480.5,-499.5 480.5,-480.5 439.5,-480.5"/>
<text text-anchor="middle" x="460" y="-487.5" font-family="Helvetica,sans-Serif" font-size="10.00">string</text>
</a>
</g>
</g>
<!-- Node8&#45;&gt;Node1 -->
<g id="edge33" class="edge"><title>Node8&#45;&gt;Node1</title>
<path fill="none" stroke="#9a32cd" stroke-dasharray="5,2" d="M443.057,-473.503C413.191,-446.356 352.063,-391.6 328,-376 312.319,-365.834 299.993,-373.791 290,-358 262.788,-315 288.083,-249.35 298.763,-225.794"/>
<polygon fill="#9a32cd" stroke="#9a32cd" points="440.846,-476.223 450.595,-480.372 445.561,-471.049 440.846,-476.223"/>
<text text-anchor="middle" x="341" y="-350" font-family="Helvetica,sans-Serif" font-size="10.00"> RealURI</text>
<text text-anchor="middle" x="341" y="-339" font-family="Helvetica,sans-Serif" font-size="10.00">CompressionExtension</text>
</g>
<!-- Node8&#45;&gt;Node2 -->
<g id="edge32" class="edge"><title>Node8&#45;&gt;Node2</title>
<path fill="none" stroke="#9a32cd" stroke-dasharray="5,2" d="M429.243,-487.812C364.44,-485.022 218.454,-477.117 202,-462 185.36,-446.712 186.149,-417.205 187.742,-402.609"/>
<polygon fill="#9a32cd" stroke="#9a32cd" points="429.137,-491.311 439.275,-488.231 429.429,-484.317 429.137,-491.311"/>
<text text-anchor="middle" x="226.5" y="-453.5" font-family="Helvetica,sans-Serif" font-size="10.00"> DestFile</text>
<text text-anchor="middle" x="226.5" y="-442.5" font-family="Helvetica,sans-Serif" font-size="10.00">ErrorText</text>
<text text-anchor="middle" x="226.5" y="-431.5" font-family="Helvetica,sans-Serif" font-size="10.00">UsedMirror</text>
</g>
<!-- Node8&#45;&gt;Node5 -->
<g id="edge25" class="edge"><title>Node8&#45;&gt;Node5</title>
<path fill="none" stroke="#9a32cd" stroke-dasharray="5,2" d="M491.049,-488.426C514.063,-486.406 544.813,-480.133 565,-462 601.725,-429.011 595.192,-406.573 604,-358 605.745,-348.379 606.236,-345.519 604,-336 602.849,-331.102 533.757,-194.072 515.425,-157.76"/>
<polygon fill="#9a32cd" stroke="#9a32cd" points="490.521,-484.952 480.769,-489.095 490.976,-491.938 490.521,-484.952"/>
<text text-anchor="middle" x="610" y="-304.5" font-family="Helvetica,sans-Serif" font-size="10.00"> Name</text>
</g>
<!-- Node8&#45;&gt;Node7 -->
<g id="edge9" class="edge"><title>Node8&#45;&gt;Node7</title>
<path fill="none" stroke="#9a32cd" stroke-dasharray="5,2" d="M428.767,-487.595C400.902,-485.218 359.723,-478.873 328,-462 264.141,-428.035 274.408,-388.825 225,-336 218.185,-328.714 209.358,-321.817 202.15,-316.691"/>
<polygon fill="#9a32cd" stroke="#9a32cd" points="428.879,-491.112 439.107,-488.347 429.387,-484.131 428.879,-491.112"/>
<text text-anchor="middle" x="299.5" y="-401.5" font-family="Helvetica,sans-Serif" font-size="10.00"> Description</text>
<text text-anchor="middle" x="299.5" y="-390.5" font-family="Helvetica,sans-Serif" font-size="10.00">URI</text>
<text text-anchor="middle" x="299.5" y="-379.5" font-family="Helvetica,sans-Serif" font-size="10.00">ShortDesc</text>
</g>
<!-- Node8&#45;&gt;Node10 -->
<g id="edge20" class="edge"><title>Node8&#45;&gt;Node10</title>
<path fill="none" stroke="#9a32cd" stroke-dasharray="5,2" d="M466.224,-470.566C466.96,-467.727 467.593,-464.806 468,-462 476.038,-406.58 470.79,-391.93 468,-336 463.484,-245.458 448.161,-223.836 419,-138 412.937,-120.154 404.49,-99.7726 399.701,-88.5471"/>
<polygon fill="#9a32cd" stroke="#9a32cd" points="462.872,-469.56 463.326,-480.145 469.572,-471.586 462.872,-469.56"/>
<text text-anchor="middle" x="487" y="-269.5" font-family="Helvetica,sans-Serif" font-size="10.00"> OutQueue</text>
<text text-anchor="middle" x="487" y="-258.5" font-family="Helvetica,sans-Serif" font-size="10.00">Access</text>
<text text-anchor="middle" x="487" y="-247.5" font-family="Helvetica,sans-Serif" font-size="10.00">Status</text>
</g>
<!-- Node11 -->
<g id="node11" class="node"><title>Node11</title>
<g id="a_node11"><a xlink:href="structpkgAcquire_1_1MethodConfig.xhtml" target="_top" xlink:title="Information about the properties of a single acquire method. {{{. ">
<polygon fill="white" stroke="black" points="645.5,-138.5 645.5,-157.5 722.5,-157.5 722.5,-138.5 645.5,-138.5"/>
<text text-anchor="middle" x="684" y="-145.5" font-family="Helvetica,sans-Serif" font-size="10.00">MethodConfig</text>
</a>
</g>
</g>
<!-- Node8&#45;&gt;Node11 -->
<g id="edge18" class="edge"><title>Node8&#45;&gt;Node11</title>
<path fill="none" stroke="#9a32cd" stroke-dasharray="5,2" d="M490.94,-489.438C552.402,-488.523 684,-476.886 684,-394 684,-394 684,-394 684,-215 684,-194.375 684,-170.125 684,-157.544"/>
<polygon fill="#9a32cd" stroke="#9a32cd" points="490.651,-485.939 480.672,-489.5 490.693,-492.939 490.651,-485.939"/>
<text text-anchor="middle" x="702.5" y="-310" font-family="Helvetica,sans-Serif" font-size="10.00"> Access</text>
<text text-anchor="middle" x="702.5" y="-299" font-family="Helvetica,sans-Serif" font-size="10.00">Version</text>
</g>
<!-- Node13 -->
<g id="node13" class="node"><title>Node13</title>
<polygon fill="white" stroke="#bfbfbf" points="497.5,-337.5 497.5,-356.5 602.5,-356.5 602.5,-337.5 497.5,-337.5"/>
<text text-anchor="middle" x="550" y="-344.5" font-family="Helvetica,sans-Serif" font-size="10.00">vector&lt; std::string &gt;</text>
</g>
<!-- Node8&#45;&gt;Node13 -->
<g id="edge23" class="edge"><title>Node8&#45;&gt;Node13</title>
<path fill="none" stroke="#9a32cd" stroke-dasharray="5,2" d="M482.982,-474.4C487.669,-470.735 492.294,-466.538 496,-462 523.982,-427.737 541.426,-376.567 547.541,-356.504"/>
<polygon fill="#9a32cd" stroke="#9a32cd" points="480.738,-471.703 474.664,-480.384 484.826,-477.386 480.738,-471.703"/>
<text text-anchor="middle" x="539.5" y="-442.5" font-family="Helvetica,sans-Serif" font-size="10.00"> elements</text>
</g>
<!-- Node15 -->
<g id="node15" class="node"><title>Node15</title>
<g id="a_node15"><a xlink:href="classHashString.xhtml" target="_top" xlink:title="HashString">
<polygon fill="white" stroke="black" points="401.5,-337.5 401.5,-356.5 466.5,-356.5 466.5,-337.5 401.5,-337.5"/>
<text text-anchor="middle" x="434" y="-344.5" font-family="Helvetica,sans-Serif" font-size="10.00">HashString</text>
</a>
</g>
</g>
<!-- Node8&#45;&gt;Node15 -->
<g id="edge35" class="edge"><title>Node8&#45;&gt;Node15</title>
<path fill="none" stroke="#9a32cd" stroke-dasharray="5,2" d="M447.372,-471.6C445.636,-468.524 444.081,-465.26 443,-462 430.496,-424.314 432.036,-375.932 433.309,-356.569"/>
<polygon fill="#9a32cd" stroke="#9a32cd" points="444.469,-473.556 452.827,-480.067 450.353,-469.765 444.469,-473.556"/>
<text text-anchor="middle" x="455.5" y="-448" font-family="Helvetica,sans-Serif" font-size="10.00"> Type</text>
<text text-anchor="middle" x="455.5" y="-437" font-family="Helvetica,sans-Serif" font-size="10.00">Hash</text>
</g>
<!-- Node9 -->
<g id="node9" class="node"><title>Node9</title>
<g id="a_node9"><a xlink:title="STL class. ">
<polygon fill="white" stroke="#bfbfbf" points="407,-538.5 407,-557.5 513,-557.5 513,-538.5 407,-538.5"/>
<text text-anchor="middle" x="460" y="-545.5" font-family="Helvetica,sans-Serif" font-size="10.00">basic_string&lt; char &gt;</text>
</a>
</g>
</g>
<!-- Node9&#45;&gt;Node8 -->
<g id="edge10" class="edge"><title>Node9&#45;&gt;Node8</title>
<path fill="none" stroke="midnightblue" d="M460,-527.953C460,-518.287 460,-507.031 460,-499.505"/>
<polygon fill="midnightblue" stroke="midnightblue" points="456.5,-528.25 460,-538.25 463.5,-528.25 456.5,-528.25"/>
</g>
<!-- Node10&#45;&gt;Node4 -->
<g id="edge31" class="edge"><title>Node10&#45;&gt;Node4</title>
<path fill="none" stroke="#9a32cd" stroke-dasharray="5,2" d="M396,-59.0183C396,-46.034 396,-29.4419 396,-19.5494"/>
<polygon fill="#9a32cd" stroke="#9a32cd" points="392.5,-59.2409 396,-69.2409 399.5,-59.241 392.5,-59.2409"/>
<text text-anchor="middle" x="416" y="-41.5" font-family="Helvetica,sans-Serif" font-size="10.00"> Workers</text>
</g>
<!-- Node10&#45;&gt;Node5 -->
<g id="edge26" class="edge"><title>Node10&#45;&gt;Node5</title>
<path fill="none" stroke="#9a32cd" stroke-dasharray="5,2" d="M429.753,-89.5963C442.87,-94.1223 457.674,-100.254 470,-108 483.309,-116.364 495.997,-129.507 503.642,-138.189"/>
<polygon fill="#9a32cd" stroke="#9a32cd" points="430.713,-86.2278 420.121,-86.448 428.539,-92.8815 430.713,-86.2278"/>
<text text-anchor="middle" x="505" y="-111.5" font-family="Helvetica,sans-Serif" font-size="10.00"> Workers</text>
</g>
<!-- Node10&#45;&gt;Node6 -->
<g id="edge13" class="edge"><title>Node10&#45;&gt;Node6</title>
<path fill="none" stroke="#9a32cd" stroke-dasharray="5,2" d="M362.126,-91.2294C286.691,-110.939 243.46,-79.9291 193,-138 176.112,-157.435 178.858,-190.732 181.34,-206.387"/>
<polygon fill="#9a32cd" stroke="#9a32cd" points="363.332,-94.525 371.985,-88.4112 361.408,-87.7945 363.332,-94.525"/>
<text text-anchor="middle" x="210.5" y="-145.5" font-family="Helvetica,sans-Serif" font-size="10.00"> Worker</text>
</g>
<!-- Node10&#45;&gt;Node10 -->
<g id="edge24" class="edge"><title>Node10&#45;&gt;Node10</title>
<path fill="none" stroke="#9a32cd" stroke-dasharray="5,2" d="M430.425,-84.6249C434.979,-83.6671 438,-81.7922 438,-79 438,-74.418 429.864,-72.3059 420.17,-72.6639"/>
<polygon fill="#9a32cd" stroke="#9a32cd" points="429.904,-81.1525 420.17,-85.3361 430.388,-88.1358 429.904,-81.1525"/>
<text text-anchor="middle" x="465.5" y="-82" font-family="Helvetica,sans-Serif" font-size="10.00"> NextQueue</text>
<text text-anchor="middle" x="465.5" y="-71" font-family="Helvetica,sans-Serif" font-size="10.00">NextAcquire</text>
</g>
<!-- Node11&#45;&gt;Node4 -->
<g id="edge27" class="edge"><title>Node11&#45;&gt;Node4</title>
<path fill="none" stroke="#9a32cd" stroke-dasharray="5,2" d="M683.059,-128.387C681.191,-110.663 675.739,-84.3349 660,-68 628.36,-35.163 492.406,-19.32 428.91,-13.603"/>
<polygon fill="#9a32cd" stroke="#9a32cd" points="679.571,-128.672 683.831,-138.372 686.55,-128.132 679.571,-128.672"/>
<text text-anchor="middle" x="691.5" y="-76.5" font-family="Helvetica,sans-Serif" font-size="10.00"> Configs</text>
</g>
<!-- Node11&#45;&gt;Node10 -->
<g id="edge16" class="edge"><title>Node11&#45;&gt;Node10</title>
<path fill="none" stroke="#9a32cd" stroke-dasharray="5,2" d="M656.012,-134.275C636.04,-125.674 608.339,-114.702 583,-108 525.717,-92.8494 456.247,-85.1437 420.254,-81.9164"/>
<polygon fill="#9a32cd" stroke="#9a32cd" points="654.86,-137.592 665.424,-138.4 657.67,-131.181 654.86,-137.592"/>
<text text-anchor="middle" x="635" y="-111.5" font-family="Helvetica,sans-Serif" font-size="10.00"> Config</text>
</g>
<!-- Node11&#45;&gt;Node11 -->
<g id="edge17" class="edge"><title>Node11&#45;&gt;Node11</title>
<path fill="none" stroke="#9a32cd" stroke-dasharray="5,2" d="M732.872,-153.042C737.251,-151.987 740,-150.307 740,-148 740,-144.215 732.597,-142.115 722.735,-141.701"/>
<polygon fill="#9a32cd" stroke="#9a32cd" points="732.229,-149.595 722.735,-154.299 733.09,-156.542 732.229,-149.595"/>
<text text-anchor="middle" x="752.5" y="-145.5" font-family="Helvetica,sans-Serif" font-size="10.00"> Next</text>
</g>
<!-- Node12 -->
<g id="node12" class="node"><title>Node12</title>
<g id="a_node12"><a xlink:href="classpkgAcquireStatus.xhtml" target="_top" xlink:title="A monitor object for downloads controlled by the pkgAcquire class. {{{. ">
<polygon fill="white" stroke="black" points="237,-138.5 237,-157.5 331,-157.5 331,-138.5 237,-138.5"/>
<text text-anchor="middle" x="284" y="-145.5" font-family="Helvetica,sans-Serif" font-size="10.00">pkgAcquireStatus</text>
</a>
</g>
</g>
<!-- Node12&#45;&gt;Node4 -->
<g id="edge28" class="edge"><title>Node12&#45;&gt;Node4</title>
<path fill="none" stroke="#9a32cd" stroke-dasharray="5,2" d="M296.649,-129.835C301.704,-123.016 307.598,-115.115 313,-108 326.6,-90.0859 329.52,-85.2108 344,-68 358.833,-50.37 377.207,-30.6996 387.669,-19.689"/>
<polygon fill="#9a32cd" stroke="#9a32cd" points="293.53,-128.166 290.401,-138.289 299.159,-132.327 293.53,-128.166"/>
<text text-anchor="middle" x="353.5" y="-76.5" font-family="Helvetica,sans-Serif" font-size="10.00"> Log</text>
</g>
<!-- Node12&#45;&gt;Node10 -->
<g id="edge21" class="edge"><title>Node12&#45;&gt;Node10</title>
<path fill="none" stroke="#9a32cd" stroke-dasharray="5,2" d="M301.543,-131.641C310.81,-123.971 322.6,-114.885 334,-108 346.536,-100.429 361.474,-93.6229 373.546,-88.6172"/>
<polygon fill="#9a32cd" stroke="#9a32cd" points="299.191,-129.047 293.826,-138.183 303.717,-134.387 299.191,-129.047"/>
<text text-anchor="middle" x="343.5" y="-111.5" font-family="Helvetica,sans-Serif" font-size="10.00"> Log</text>
</g>
<!-- Node13&#45;&gt;Node10 -->
<g id="edge22" class="edge"><title>Node13&#45;&gt;Node10</title>
<path fill="none" stroke="#9a32cd" stroke-dasharray="5,2" d="M557.668,-327.749C564.016,-310.971 572,-285.249 572,-262 572,-262 572,-262 572,-147 572,-121.199 551.979,-119.733 529,-108 493.904,-90.0806 447.999,-83.625 420.322,-81.3021"/>
<polygon fill="#9a32cd" stroke="#9a32cd" points="554.285,-326.782 553.832,-337.367 560.787,-329.375 554.285,-326.782"/>
<text text-anchor="middle" x="608" y="-213.5" font-family="Helvetica,sans-Serif" font-size="10.00"> MessageQueue</text>
</g>
<!-- Node14&#45;&gt;Node4 -->
<g id="edge29" class="edge"><title>Node14&#45;&gt;Node4</title>
<path fill="none" stroke="#9a32cd" stroke-dasharray="5,2" d="M52.802,-236.82C45.5451,-221.93 38,-201.903 38,-183 38,-183 38,-183 38,-78 38,-12.1598 274.904,-9.10167 363.281,-10.2515"/>
<polygon fill="#9a32cd" stroke="#9a32cd" points="49.7437,-238.526 57.4469,-245.8 55.9612,-235.31 49.7437,-238.526"/>
<text text-anchor="middle" x="52" y="-145.5" font-family="Helvetica,sans-Serif" font-size="10.00"> Items</text>
</g>
<!-- Node15&#45;&gt;Node1 -->
<g id="edge34" class="edge"><title>Node15&#45;&gt;Node1</title>
<path fill="none" stroke="#9a32cd" stroke-dasharray="5,2" d="M412.79,-331.48C407.162,-327.332 401.206,-322.666 396,-318 361.035,-286.657 324.811,-243.743 309.971,-225.627"/>
<polygon fill="#9a32cd" stroke="#9a32cd" points="411.039,-334.53 421.21,-337.496 415.109,-328.834 411.039,-334.53"/>
<text text-anchor="middle" x="430" y="-304.5" font-family="Helvetica,sans-Serif" font-size="10.00"> ExpectedHash</text>
</g>
</g>
</svg>
