<?xml version="1.0" encoding="UTF-8" standalone="no"?>
<!DOCTYPE svg PUBLIC "-//W3C//DTD SVG 1.1//EN"
 "http://www.w3.org/Graphics/SVG/1.1/DTD/svg11.dtd">
<!-- Generated by graphviz version 2.36.0 (20140111.2315)
 -->
<!-- Title: pkgTagFilePrivate Pages: 1 -->
<svg width="152pt" height="232pt"
 viewBox="0.00 0.00 152.00 232.00" xmlns="http://www.w3.org/2000/svg" xmlns:xlink="http://www.w3.org/1999/xlink">
<g id="graph0" class="graph" transform="scale(1 1) rotate(0) translate(4 228)">
<title>pkgTagFilePrivate</title>
<polygon fill="white" stroke="none" points="-4,4 -4,-228 148,-228 148,4 -4,4"/>
<!-- Node1 -->
<g id="node1" class="node"><title>Node1</title>
<polygon fill="#bfbfbf" stroke="black" points="4.5,-0.5 4.5,-19.5 99.5,-19.5 99.5,-0.5 4.5,-0.5"/>
<text text-anchor="middle" x="52" y="-7.5" font-family="Helvetica,sans-Serif" font-size="10.00">pkgTagFilePrivate</text>
</g>
<!-- Node2 -->
<g id="node2" class="node"><title>Node2</title>
<g id="a_node2"><a xlink:href="classFileFd.xhtml" target="_top" xlink:title="FileFd">
<polygon fill="white" stroke="black" points="30,-68.5 30,-87.5 74,-87.5 74,-68.5 30,-68.5"/>
<text text-anchor="middle" x="52" y="-75.5" font-family="Helvetica,sans-Serif" font-size="10.00">FileFd</text>
</a>
</g>
</g>
<!-- Node2&#45;&gt;Node1 -->
<g id="edge1" class="edge"><title>Node2&#45;&gt;Node1</title>
<path fill="none" stroke="#9a32cd" stroke-dasharray="5,2" d="M52,-58.0413C52,-45.4724 52,-29.5631 52,-19.8411"/>
<polygon fill="#9a32cd" stroke="#9a32cd" points="48.5001,-58.3716 52,-68.3717 55.5001,-58.3717 48.5001,-58.3716"/>
<text text-anchor="middle" x="59.5" y="-41.5" font-family="Helvetica,sans-Serif" font-size="10.00"> Fd</text>
</g>
<!-- Node3 -->
<g id="node3" class="node"><title>Node3</title>
<g id="a_node3"><a xlink:title="STL class. ">
<polygon fill="white" stroke="#bfbfbf" points="31.5,-146.5 31.5,-165.5 72.5,-165.5 72.5,-146.5 31.5,-146.5"/>
<text text-anchor="middle" x="52" y="-153.5" font-family="Helvetica,sans-Serif" font-size="10.00">string</text>
</a>
</g>
</g>
<!-- Node3&#45;&gt;Node2 -->
<g id="edge2" class="edge"><title>Node3&#45;&gt;Node2</title>
<path fill="none" stroke="#9a32cd" stroke-dasharray="5,2" d="M52,-136.224C52,-120.697 52,-99.3582 52,-87.6165"/>
<polygon fill="#9a32cd" stroke="#9a32cd" points="48.5001,-136.282 52,-146.282 55.5001,-136.282 48.5001,-136.282"/>
<text text-anchor="middle" x="98" y="-120" font-family="Helvetica,sans-Serif" font-size="10.00"> TemporaryFileName</text>
<text text-anchor="middle" x="98" y="-109" font-family="Helvetica,sans-Serif" font-size="10.00">FileName</text>
</g>
<!-- Node4 -->
<g id="node4" class="node"><title>Node4</title>
<g id="a_node4"><a xlink:title="STL class. ">
<polygon fill="white" stroke="#bfbfbf" points="-1,-204.5 -1,-223.5 105,-223.5 105,-204.5 -1,-204.5"/>
<text text-anchor="middle" x="52" y="-211.5" font-family="Helvetica,sans-Serif" font-size="10.00">basic_string&lt; char &gt;</text>
</a>
</g>
</g>
<!-- Node4&#45;&gt;Node3 -->
<g id="edge3" class="edge"><title>Node4&#45;&gt;Node3</title>
<path fill="none" stroke="midnightblue" d="M52,-193.953C52,-184.287 52,-173.031 52,-165.505"/>
<polygon fill="midnightblue" stroke="midnightblue" points="48.5001,-194.25 52,-204.25 55.5001,-194.25 48.5001,-194.25"/>
</g>
</g>
</svg>
