<?xml version="1.0" encoding="UTF-8" standalone="no"?>
<!DOCTYPE svg PUBLIC "-//W3C//DTD SVG 1.1//EN"
 "http://www.w3.org/Graphics/SVG/1.1/DTD/svg11.dtd">
<!-- Generated by graphviz version 2.36.0 (20140111.2315)
 -->
<!-- Title: debIFTypeTrans Pages: 1 -->
<svg width="135pt" height="144pt"
 viewBox="0.00 0.00 135.00 144.00" xmlns="http://www.w3.org/2000/svg" xmlns:xlink="http://www.w3.org/1999/xlink">
<g id="graph0" class="graph" transform="scale(1 1) rotate(0) translate(4 140)">
<title>debIFTypeTrans</title>
<polygon fill="white" stroke="none" points="-4,4 -4,-140 131,-140 131,4 -4,4"/>
<!-- Node1 -->
<g id="node1" class="node"><title>Node1</title>
<polygon fill="#bfbfbf" stroke="black" points="-1,-0.5 -1,-19.5 87,-19.5 87,-0.5 -1,-0.5"/>
<text text-anchor="middle" x="43" y="-7.5" font-family="Helvetica,sans-Serif" font-size="10.00">debIFTypeTrans</text>
</g>
<!-- Node2 -->
<g id="node2" class="node"><title>Node2</title>
<g id="a_node2"><a xlink:href="classdebIFTypePkg.xhtml" target="_top" xlink:title="debIFTypePkg">
<polygon fill="white" stroke="black" points="3,-58.5 3,-77.5 83,-77.5 83,-58.5 3,-58.5"/>
<text text-anchor="middle" x="43" y="-65.5" font-family="Helvetica,sans-Serif" font-size="10.00">debIFTypePkg</text>
</a>
</g>
</g>
<!-- Node2&#45;&gt;Node1 -->
<g id="edge1" class="edge"><title>Node2&#45;&gt;Node1</title>
<path fill="none" stroke="midnightblue" d="M43,-47.953C43,-38.2875 43,-27.0312 43,-19.5052"/>
<polygon fill="midnightblue" stroke="midnightblue" points="39.5001,-48.25 43,-58.25 46.5001,-48.25 39.5001,-48.25"/>
</g>
<!-- Node3 -->
<g id="node3" class="node"><title>Node3</title>
<g id="a_node3"><a xlink:href="classpkgIndexFile_1_1Type.xhtml" target="_top" xlink:title="Type">
<polygon fill="white" stroke="black" points="24,-116.5 24,-135.5 62,-135.5 62,-116.5 24,-116.5"/>
<text text-anchor="middle" x="43" y="-123.5" font-family="Helvetica,sans-Serif" font-size="10.00">Type</text>
</a>
</g>
</g>
<!-- Node3&#45;&gt;Node2 -->
<g id="edge2" class="edge"><title>Node3&#45;&gt;Node2</title>
<path fill="none" stroke="midnightblue" d="M43,-105.953C43,-96.2875 43,-85.0312 43,-77.5052"/>
<polygon fill="midnightblue" stroke="midnightblue" points="39.5001,-106.25 43,-116.25 46.5001,-106.25 39.5001,-106.25"/>
</g>
<!-- Node3&#45;&gt;Node3 -->
<g id="edge3" class="edge"><title>Node3&#45;&gt;Node3</title>
<path fill="none" stroke="#9a32cd" stroke-dasharray="5,2" d="M72.2501,-130.821C76.8553,-130.106 80,-128.499 80,-126 80,-121.898 71.5314,-120.2 62.0372,-120.905"/>
<polygon fill="#9a32cd" stroke="#9a32cd" points="71.9397,-127.328 62.0372,-131.095 72.1276,-134.325 71.9397,-127.328"/>
<text text-anchor="middle" x="103.5" y="-123.5" font-family="Helvetica,sans-Serif" font-size="10.00"> GlobalList</text>
</g>
</g>
</svg>
