<?xml version="1.0" encoding="UTF-8" standalone="no"?>
<!DOCTYPE svg PUBLIC "-//W3C//DTD SVG 1.1//EN"
 "http://www.w3.org/Graphics/SVG/1.1/DTD/svg11.dtd">
<!-- Generated by graphviz version 2.36.0 (20140111.2315)
 -->
<!-- Title: pkgAcqIndexMergeDiffs Pages: 1 -->
<!--zoomable 578 -->
<svg id="main" version="1.1" xmlns="http://www.w3.org/2000/svg" xmlns:xlink="http://www.w3.org/1999/xlink" xml:space="preserve" onload="init(evt)">
<style type="text/css"><![CDATA[
.edge:hover path { stroke: red; }
.edge:hover polygon { stroke: red; fill: red; }
]]></style>
<script type="text/javascript"><![CDATA[
var edges = document.getElementsByTagName('g');
if (edges && edges.length) {
  for (var i=0;i<edges.length;i++) {
    if (edges[i].id.substr(0,4)=='edge') {
      edges[i].setAttribute('class','edge');
    }
  }
}
]]></script>
        <defs>
                <circle id="rim" cx="0" cy="0" r="7"/>
                <circle id="rim2" cx="0" cy="0" r="3.5"/>
                <g id="zoomPlus">
                        <use xlink:href="#rim" fill="#404040">
                                <set attributeName="fill" to="#808080" begin="zoomplus.mouseover" end="zoomplus.mouseout"/>
                        </use>
                        <path d="M-4,0h8M0,-4v8" fill="none" stroke="white" stroke-width="1.5" pointer-events="none"/>
                </g>
                <g id="zoomMin">
                        <use xlink:href="#rim" fill="#404040">
                                <set attributeName="fill" to="#808080" begin="zoomminus.mouseover" end="zoomminus.mouseout"/>
                        </use>
                        <path d="M-4,0h8" fill="none" stroke="white" stroke-width="1.5" pointer-events="none"/>
                </g>
                <g id="dirArrow">
                        <path fill="none" stroke="white" stroke-width="1.5" d="M0,-3.0v7 M-2.5,-0.5L0,-3.0L2.5,-0.5"/>
                </g>
               <g id="resetDef">
                       <use xlink:href="#rim2" fill="#404040">
                               <set attributeName="fill" to="#808080" begin="reset.mouseover" end="reset.mouseout"/>
                       </use>
               </g>
        </defs>

<script type="text/javascript">
var viewWidth = 851;
var viewHeight = 578;
var sectionId = 'dynsection-1';
</script>
<script xlink:href="svgpan.js"/>
<svg id="graph" class="graph">
<g id="viewport">
<title>pkgAcqIndexMergeDiffs</title>
<polygon fill="white" stroke="none" points="-4,4 -4,-574 847,-574 847,4 -4,4"/>
<!-- Node1 -->
<g id="node1" class="node"><title>Node1</title>
<polygon fill="#bfbfbf" stroke="black" points="273,-218.5 273,-237.5 395,-237.5 395,-218.5 273,-218.5"/>
<text text-anchor="middle" x="334" y="-225.5" font-family="Helvetica,sans-Serif" font-size="10.00">pkgAcqIndexMergeDiffs</text>
</g>
<!-- Node17 -->
<g id="node17" class="node"><title>Node17</title>
<polygon fill="white" stroke="#bfbfbf" points="205.5,-139 205.5,-169 342.5,-169 342.5,-139 205.5,-139"/>
<text text-anchor="start" x="213.5" y="-157" font-family="Helvetica,sans-Serif" font-size="10.00">vector&lt; pkgAcqIndexMerge</text>
<text text-anchor="middle" x="274" y="-146" font-family="Helvetica,sans-Serif" font-size="10.00">Diffs * &gt;</text>
</g>
<!-- Node1&#45;&gt;Node17 -->
<g id="edge39" class="edge"><title>Node1&#45;&gt;Node17</title>
<path fill="none" stroke="#9a32cd" stroke-dasharray="5,2" d="M325.576,-209.127C321.892,-202.19 317.219,-194.393 312,-188 306.474,-181.231 299.467,-174.715 292.979,-169.287"/>
<polygon fill="#9a32cd" stroke="#9a32cd" points="322.613,-211.029 330.211,-218.413 328.876,-207.903 322.613,-211.029"/>
<text text-anchor="middle" x="341.5" y="-191.5" font-family="Helvetica,sans-Serif" font-size="10.00"> elements</text>
</g>
<!-- Node2 -->
<g id="node2" class="node"><title>Node2</title>
<g id="a_node2"><a xlink:href="classpkgAcquire_1_1Item.xhtml" target="_top" xlink:title="Represents the process by which a pkgAcquire object should {{{ retrieve a file or a collection of fil...">
<polygon fill="white" stroke="black" points="530,-395.5 530,-414.5 566,-414.5 566,-395.5 530,-395.5"/>
<text text-anchor="middle" x="548" y="-402.5" font-family="Helvetica,sans-Serif" font-size="10.00">Item</text>
</a>
</g>
</g>
<!-- Node2&#45;&gt;Node1 -->
<g id="edge1" class="edge"><title>Node2&#45;&gt;Node1</title>
<path fill="none" stroke="midnightblue" d="M535.553,-387.451C526.377,-375.783 513.237,-360.137 500,-348 448.511,-300.791 377.965,-255.77 348.183,-237.526"/>
<polygon fill="midnightblue" stroke="midnightblue" points="532.858,-389.688 541.734,-395.474 538.404,-385.416 532.858,-389.688"/>
</g>
<!-- Node7 -->
<g id="node7" class="node"><title>Node7</title>
<g id="a_node7"><a xlink:href="structpkgAcquire_1_1ItemDesc.xhtml" target="_top" xlink:title="Represents a single download source from which an item should be downloaded. ">
<polygon fill="white" stroke="black" points="500.5,-309.5 500.5,-328.5 559.5,-328.5 559.5,-309.5 500.5,-309.5"/>
<text text-anchor="middle" x="530" y="-316.5" font-family="Helvetica,sans-Serif" font-size="10.00">ItemDesc</text>
</a>
</g>
</g>
<!-- Node2&#45;&gt;Node7 -->
<g id="edge11" class="edge"><title>Node2&#45;&gt;Node7</title>
<path fill="none" stroke="#9a32cd" stroke-dasharray="5,2" d="M544.003,-385.347C540.227,-367.725 534.729,-342.067 531.875,-328.752"/>
<polygon fill="#9a32cd" stroke="#9a32cd" points="540.624,-386.282 546.141,-395.327 547.468,-384.816 540.624,-386.282"/>
<text text-anchor="middle" x="557" y="-356.5" font-family="Helvetica,sans-Serif" font-size="10.00"> Owner</text>
</g>
<!-- Node14 -->
<g id="node14" class="node"><title>Node14</title>
<polygon fill="white" stroke="#bfbfbf" points="742.5,-258 742.5,-288 843.5,-288 843.5,-258 742.5,-258"/>
<text text-anchor="start" x="750.5" y="-276" font-family="Helvetica,sans-Serif" font-size="10.00">vector&lt; pkgAcquire</text>
<text text-anchor="middle" x="793" y="-265" font-family="Helvetica,sans-Serif" font-size="10.00">::Item * &gt;</text>
</g>
<!-- Node2&#45;&gt;Node14 -->
<g id="edge30" class="edge"><title>Node2&#45;&gt;Node14</title>
<path fill="none" stroke="#9a32cd" stroke-dasharray="5,2" d="M576.226,-402.027C623.26,-398.255 715.071,-388.683 741,-370 769.143,-349.722 783.622,-309.379 789.592,-288.02"/>
<polygon fill="#9a32cd" stroke="#9a32cd" points="575.805,-398.549 566.102,-402.804 576.341,-405.528 575.805,-398.549"/>
<text text-anchor="middle" x="783.5" y="-356.5" font-family="Helvetica,sans-Serif" font-size="10.00"> elements</text>
</g>
<!-- Node3 -->
<g id="node3" class="node"><title>Node3</title>
<g id="a_node3"><a xlink:href="classWeakPointable.xhtml" target="_top" xlink:title="WeakPointable">
<polygon fill="white" stroke="black" points="506.5,-492.5 506.5,-511.5 589.5,-511.5 589.5,-492.5 506.5,-492.5"/>
<text text-anchor="middle" x="548" y="-499.5" font-family="Helvetica,sans-Serif" font-size="10.00">WeakPointable</text>
</a>
</g>
</g>
<!-- Node3&#45;&gt;Node2 -->
<g id="edge2" class="edge"><title>Node3&#45;&gt;Node2</title>
<path fill="none" stroke="midnightblue" d="M548,-482.227C548,-461.793 548,-430.001 548,-414.746"/>
<polygon fill="midnightblue" stroke="midnightblue" points="544.5,-482.233 548,-492.233 551.5,-482.233 544.5,-482.233"/>
</g>
<!-- Node3&#45;&gt;Node7 -->
<g id="edge8" class="edge"><title>Node3&#45;&gt;Node7</title>
<path fill="none" stroke="midnightblue" d="M599.496,-491.412C693.702,-471.794 878.05,-422.541 809,-348 791.204,-328.788 599.894,-333.912 574,-330 569.353,-329.298 564.467,-328.375 559.709,-327.375"/>
<polygon fill="midnightblue" stroke="midnightblue" points="598.671,-488.008 589.574,-493.438 600.072,-494.866 598.671,-488.008"/>
</g>
<!-- Node10 -->
<g id="node10" class="node"><title>Node10</title>
<g id="a_node10"><a xlink:href="classpkgAcquire_1_1Worker.xhtml" target="_top" xlink:title="A fetch subprocess. ">
<polygon fill="white" stroke="black" points="397,-69.5 397,-88.5 445,-88.5 445,-69.5 397,-69.5"/>
<text text-anchor="middle" x="421" y="-76.5" font-family="Helvetica,sans-Serif" font-size="10.00">Worker</text>
</a>
</g>
</g>
<!-- Node3&#45;&gt;Node10 -->
<g id="edge14" class="edge"><title>Node3&#45;&gt;Node10</title>
<path fill="none" stroke="midnightblue" d="M537.353,-483.377C509.006,-435.296 432.081,-296.947 406,-170 400.454,-143.005 400.222,-134.713 407,-108 408.711,-101.257 412.211,-94.257 415.283,-88.9428"/>
<polygon fill="midnightblue" stroke="midnightblue" points="534.503,-485.432 542.629,-492.231 540.517,-481.849 534.503,-485.432"/>
</g>
<!-- Node4 -->
<g id="node4" class="node"><title>Node4</title>
<g id="a_node4"><a xlink:href="classpkgAcquire.xhtml" target="_top" xlink:title="The core download scheduler. {{{. ">
<polygon fill="white" stroke="black" points="599.5,-0.5 599.5,-19.5 664.5,-19.5 664.5,-0.5 599.5,-0.5"/>
<text text-anchor="middle" x="632" y="-7.5" font-family="Helvetica,sans-Serif" font-size="10.00">pkgAcquire</text>
</a>
</g>
</g>
<!-- Node4&#45;&gt;Node2 -->
<g id="edge3" class="edge"><title>Node4&#45;&gt;Node2</title>
<path fill="none" stroke="#9a32cd" stroke-dasharray="5,2" d="M654.78,-25.2369C660.313,-29.1019 666.055,-33.4774 671,-38 718.156,-81.1266 747.466,-109.134 728,-170 694.745,-273.982 592.219,-366.924 558.715,-395.213"/>
<polygon fill="#9a32cd" stroke="#9a32cd" points="656.662,-22.2846 646.403,-19.6359 652.771,-28.1037 656.662,-22.2846"/>
<text text-anchor="middle" x="737" y="-191.5" font-family="Helvetica,sans-Serif" font-size="10.00"> Owner</text>
</g>
<!-- Node5 -->
<g id="node5" class="node"><title>Node5</title>
<g id="a_node5"><a xlink:href="classpkgAcquire_1_1Queue.xhtml" target="_top" xlink:title="A single download queue in a pkgAcquire object. {{{. ">
<polygon fill="white" stroke="black" points="561.5,-144.5 561.5,-163.5 606.5,-163.5 606.5,-144.5 561.5,-144.5"/>
<text text-anchor="middle" x="584" y="-151.5" font-family="Helvetica,sans-Serif" font-size="10.00">Queue</text>
</a>
</g>
</g>
<!-- Node4&#45;&gt;Node5 -->
<g id="edge5" class="edge"><title>Node4&#45;&gt;Node5</title>
<path fill="none" stroke="#9a32cd" stroke-dasharray="5,2" d="M627.474,-29.669C623.404,-45.8002 617.003,-69.6555 610,-90 603.222,-109.691 593.475,-132.084 588.045,-144.157"/>
<polygon fill="#9a32cd" stroke="#9a32cd" points="630.894,-30.4213 629.898,-19.8734 624.099,-28.7399 630.894,-30.4213"/>
<text text-anchor="middle" x="633" y="-76.5" font-family="Helvetica,sans-Serif" font-size="10.00"> Owner</text>
</g>
<!-- Node5&#45;&gt;Node4 -->
<g id="edge4" class="edge"><title>Node5&#45;&gt;Node4</title>
<path fill="none" stroke="#9a32cd" stroke-dasharray="5,2" d="M582.788,-134.05C582.041,-125.96 580.857,-116.454 579,-108 577.191,-99.7636 574.351,-98.3239 573,-90 571.434,-80.3485 569.18,-77.0009 573,-68 582.069,-46.6293 603.508,-29.3644 617.889,-19.6408"/>
<polygon fill="#9a32cd" stroke="#9a32cd" points="579.319,-134.584 583.578,-144.285 586.298,-134.045 579.319,-134.584"/>
<text text-anchor="middle" x="591.5" y="-76.5" font-family="Helvetica,sans-Serif" font-size="10.00"> Queues</text>
</g>
<!-- Node5&#45;&gt;Node10 -->
<g id="edge15" class="edge"><title>Node5&#45;&gt;Node10</title>
<path fill="none" stroke="#9a32cd" stroke-dasharray="5,2" d="M564.834,-138.068C551.688,-128.406 533.519,-116.154 516,-108 492.929,-97.2619 464.782,-89.5813 445.139,-85.012"/>
<polygon fill="#9a32cd" stroke="#9a32cd" points="562.968,-141.044 573.062,-144.261 567.177,-135.451 562.968,-141.044"/>
<text text-anchor="middle" x="558" y="-111.5" font-family="Helvetica,sans-Serif" font-size="10.00"> OwnerQ</text>
</g>
<!-- Node6 -->
<g id="node6" class="node"><title>Node6</title>
<g id="a_node6"><a xlink:href="structpkgAcquire_1_1Queue_1_1QItem.xhtml" target="_top" xlink:title="A single item placed in this queue. ">
<polygon fill="white" stroke="black" points="481,-218.5 481,-237.5 525,-237.5 525,-218.5 481,-218.5"/>
<text text-anchor="middle" x="503" y="-225.5" font-family="Helvetica,sans-Serif" font-size="10.00">QItem</text>
</a>
</g>
</g>
<!-- Node6&#45;&gt;Node5 -->
<g id="edge6" class="edge"><title>Node6&#45;&gt;Node5</title>
<path fill="none" stroke="#9a32cd" stroke-dasharray="5,2" d="M520.447,-211.491C536.959,-196.815 561.134,-175.325 574.403,-163.531"/>
<polygon fill="#9a32cd" stroke="#9a32cd" points="517.759,-209.198 512.61,-218.458 522.409,-214.43 517.759,-209.198"/>
<text text-anchor="middle" x="560" y="-191.5" font-family="Helvetica,sans-Serif" font-size="10.00"> Items</text>
</g>
<!-- Node6&#45;&gt;Node6 -->
<g id="edge12" class="edge"><title>Node6&#45;&gt;Node6</title>
<path fill="none" stroke="#9a32cd" stroke-dasharray="5,2" d="M535.111,-233.591C539.259,-232.624 542,-230.76 542,-228 542,-223.352 534.224,-221.245 525.051,-221.681"/>
<polygon fill="#9a32cd" stroke="#9a32cd" points="534.772,-230.107 525.051,-234.319 535.277,-237.088 534.772,-230.107"/>
<text text-anchor="middle" x="554.5" y="-225.5" font-family="Helvetica,sans-Serif" font-size="10.00"> Next</text>
</g>
<!-- Node6&#45;&gt;Node10 -->
<g id="edge19" class="edge"><title>Node6&#45;&gt;Node10</title>
<path fill="none" stroke="#9a32cd" stroke-dasharray="5,2" d="M471.528,-215.272C451.999,-206.161 428.505,-191.428 417,-170 402.647,-143.267 412.345,-105.366 417.884,-88.5758"/>
<polygon fill="#9a32cd" stroke="#9a32cd" points="470.162,-218.495 480.726,-219.298 472.969,-212.082 470.162,-218.495"/>
<text text-anchor="middle" x="444.5" y="-151.5" font-family="Helvetica,sans-Serif" font-size="10.00"> CurrentItem</text>
</g>
<!-- Node7&#45;&gt;Node1 -->
<g id="edge40" class="edge"><title>Node7&#45;&gt;Node1</title>
<path fill="none" stroke="#9a32cd" stroke-dasharray="5,2" d="M512.612,-302.119C508.9,-298.328 505.152,-294.167 502,-290 491.558,-276.193 497.086,-266.061 483,-256 468.881,-245.915 429.708,-239.052 395.071,-234.769"/>
<polygon fill="#9a32cd" stroke="#9a32cd" points="510.365,-304.815 519.981,-309.264 515.238,-299.79 510.365,-304.815"/>
<text text-anchor="middle" x="515.5" y="-270.5" font-family="Helvetica,sans-Serif" font-size="10.00"> Desc</text>
</g>
<!-- Node7&#45;&gt;Node6 -->
<g id="edge7" class="edge"><title>Node7&#45;&gt;Node6</title>
<path fill="none" stroke="midnightblue" d="M535.199,-299.193C537.712,-286.46 539.036,-269.553 533,-256 529.693,-248.575 523.223,-242.335 517.136,-237.731"/>
<polygon fill="midnightblue" stroke="midnightblue" points="531.747,-298.582 532.839,-309.12 538.557,-300.201 531.747,-298.582"/>
</g>
<!-- Node8 -->
<g id="node8" class="node"><title>Node8</title>
<g id="a_node8"><a xlink:title="STL class. ">
<polygon fill="white" stroke="#bfbfbf" points="232.5,-492.5 232.5,-511.5 273.5,-511.5 273.5,-492.5 232.5,-492.5"/>
<text text-anchor="middle" x="253" y="-499.5" font-family="Helvetica,sans-Serif" font-size="10.00">string</text>
</a>
</g>
</g>
<!-- Node8&#45;&gt;Node1 -->
<g id="edge35" class="edge"><title>Node8&#45;&gt;Node1</title>
<path fill="none" stroke="#9a32cd" stroke-dasharray="5,2" d="M241.264,-483.691C223.349,-454.996 193.056,-395.982 211,-348 230.983,-294.567 290.179,-254.346 318.528,-237.575"/>
<polygon fill="#9a32cd" stroke="#9a32cd" points="238.403,-485.71 246.778,-492.2 244.277,-481.904 238.403,-485.71"/>
<text text-anchor="middle" x="237.5" y="-362" font-family="Helvetica,sans-Serif" font-size="10.00"> Description</text>
<text text-anchor="middle" x="237.5" y="-351" font-family="Helvetica,sans-Serif" font-size="10.00">RealURI</text>
</g>
<!-- Node8&#45;&gt;Node2 -->
<g id="edge32" class="edge"><title>Node8&#45;&gt;Node2</title>
<path fill="none" stroke="#9a32cd" stroke-dasharray="5,2" d="M283.744,-499.615C319.339,-497.252 379.314,-490.911 428,-474 449.941,-466.379 507.541,-431.257 534.154,-414.693"/>
<polygon fill="#9a32cd" stroke="#9a32cd" points="283.292,-496.136 273.519,-500.228 283.711,-503.123 283.292,-496.136"/>
<text text-anchor="middle" x="517.5" y="-465.5" font-family="Helvetica,sans-Serif" font-size="10.00"> DestFile</text>
<text text-anchor="middle" x="517.5" y="-454.5" font-family="Helvetica,sans-Serif" font-size="10.00">ErrorText</text>
<text text-anchor="middle" x="517.5" y="-443.5" font-family="Helvetica,sans-Serif" font-size="10.00">UsedMirror</text>
</g>
<!-- Node8&#45;&gt;Node5 -->
<g id="edge25" class="edge"><title>Node8&#45;&gt;Node5</title>
<path fill="none" stroke="#9a32cd" stroke-dasharray="5,2" d="M283.653,-495.613C305.443,-491.224 335.133,-484.093 360,-474 402.805,-456.627 412.564,-449.068 450,-422 490.049,-393.043 492.255,-375.97 533,-348 547.421,-338.1 558.172,-344.47 568,-330 604.513,-276.244 591.342,-190.793 585.888,-163.604"/>
<polygon fill="#9a32cd" stroke="#9a32cd" points="282.8,-492.213 273.647,-497.549 284.13,-499.086 282.8,-492.213"/>
<text text-anchor="middle" x="595" y="-316.5" font-family="Helvetica,sans-Serif" font-size="10.00"> Name</text>
</g>
<!-- Node8&#45;&gt;Node7 -->
<g id="edge9" class="edge"><title>Node8&#45;&gt;Node7</title>
<path fill="none" stroke="#9a32cd" stroke-dasharray="5,2" d="M283.628,-494.576C298.58,-490.411 316.26,-483.874 330,-474 369.347,-445.725 362.477,-421.997 397,-388 418.027,-367.293 423.983,-361.93 450,-348 465.826,-339.526 484.737,-332.77 500.198,-328.018"/>
<polygon fill="#9a32cd" stroke="#9a32cd" points="282.614,-491.223 273.793,-497.093 284.349,-498.005 282.614,-491.223"/>
<text text-anchor="middle" x="423.5" y="-413.5" font-family="Helvetica,sans-Serif" font-size="10.00"> Description</text>
<text text-anchor="middle" x="423.5" y="-402.5" font-family="Helvetica,sans-Serif" font-size="10.00">URI</text>
<text text-anchor="middle" x="423.5" y="-391.5" font-family="Helvetica,sans-Serif" font-size="10.00">ShortDesc</text>
</g>
<!-- Node8&#45;&gt;Node10 -->
<g id="edge20" class="edge"><title>Node8&#45;&gt;Node10</title>
<path fill="none" stroke="#9a32cd" stroke-dasharray="5,2" d="M221.854,-501.339C185.644,-500.598 124.865,-495.78 78,-474 36.2931,-454.617 0,-451.991 0,-406 0,-406 0,-406 0,-153 0,-124.64 14.9586,-127.381 105,-108 160.727,-96.0051 332.941,-85.1011 396.826,-81.3664"/>
<polygon fill="#9a32cd" stroke="#9a32cd" points="222.222,-504.844 232.26,-501.453 222.299,-497.844 222.222,-504.844"/>
<text text-anchor="middle" x="24" y="-281.5" font-family="Helvetica,sans-Serif" font-size="10.00"> OutQueue</text>
<text text-anchor="middle" x="24" y="-270.5" font-family="Helvetica,sans-Serif" font-size="10.00">Access</text>
<text text-anchor="middle" x="24" y="-259.5" font-family="Helvetica,sans-Serif" font-size="10.00">Status</text>
</g>
<!-- Node11 -->
<g id="node11" class="node"><title>Node11</title>
<g id="a_node11"><a xlink:href="structpkgAcquire_1_1MethodConfig.xhtml" target="_top" xlink:title="Information about the properties of a single acquire method. {{{. ">
<polygon fill="white" stroke="black" points="28.5,-144.5 28.5,-163.5 105.5,-163.5 105.5,-144.5 28.5,-144.5"/>
<text text-anchor="middle" x="67" y="-151.5" font-family="Helvetica,sans-Serif" font-size="10.00">MethodConfig</text>
</a>
</g>
</g>
<!-- Node8&#45;&gt;Node11 -->
<g id="edge18" class="edge"><title>Node8&#45;&gt;Node11</title>
<path fill="none" stroke="#9a32cd" stroke-dasharray="5,2" d="M222.16,-498.886C169.767,-493.438 69,-474.108 69,-406 69,-406 69,-406 69,-227 69,-204.241 67.9891,-177.451 67.4047,-163.865"/>
<polygon fill="#9a32cd" stroke="#9a32cd" points="221.969,-502.383 232.251,-499.826 222.618,-495.413 221.969,-502.383"/>
<text text-anchor="middle" x="87.5" y="-322" font-family="Helvetica,sans-Serif" font-size="10.00"> Access</text>
<text text-anchor="middle" x="87.5" y="-311" font-family="Helvetica,sans-Serif" font-size="10.00">Version</text>
</g>
<!-- Node13 -->
<g id="node13" class="node"><title>Node13</title>
<polygon fill="white" stroke="#bfbfbf" points="86.5,-349.5 86.5,-368.5 191.5,-368.5 191.5,-349.5 86.5,-349.5"/>
<text text-anchor="middle" x="139" y="-356.5" font-family="Helvetica,sans-Serif" font-size="10.00">vector&lt; std::string &gt;</text>
</g>
<!-- Node8&#45;&gt;Node13 -->
<g id="edge23" class="edge"><title>Node8&#45;&gt;Node13</title>
<path fill="none" stroke="#9a32cd" stroke-dasharray="5,2" d="M222.149,-500.429C201.026,-498.32 174.033,-491.933 158,-474 130.852,-443.635 134.812,-389.744 137.615,-368.731"/>
<polygon fill="#9a32cd" stroke="#9a32cd" points="222.044,-503.931 232.272,-501.167 222.553,-496.949 222.044,-503.931"/>
<text text-anchor="middle" x="179.5" y="-454.5" font-family="Helvetica,sans-Serif" font-size="10.00"> elements</text>
</g>
<!-- Node15 -->
<g id="node15" class="node"><title>Node15</title>
<g id="a_node15"><a xlink:href="structDiffInfo.xhtml" target="_top" xlink:title="Information about an index patch (aka diff). ">
<polygon fill="white" stroke="black" points="273.5,-349.5 273.5,-368.5 322.5,-368.5 322.5,-349.5 273.5,-349.5"/>
<text text-anchor="middle" x="298" y="-356.5" font-family="Helvetica,sans-Serif" font-size="10.00">DiffInfo</text>
</a>
</g>
</g>
<!-- Node8&#45;&gt;Node15 -->
<g id="edge34" class="edge"><title>Node8&#45;&gt;Node15</title>
<path fill="none" stroke="#9a32cd" stroke-dasharray="5,2" d="M251.306,-481.994C250.642,-469.882 250.539,-453.909 253,-440 257.288,-415.771 259.153,-408.985 272,-388 276.433,-380.758 282.933,-373.758 288.325,-368.569"/>
<polygon fill="#9a32cd" stroke="#9a32cd" points="247.834,-482.509 252.048,-492.229 254.815,-482.002 247.834,-482.509"/>
<text text-anchor="middle" x="265.5" y="-460" font-family="Helvetica,sans-Serif" font-size="10.00"> sha1</text>
<text text-anchor="middle" x="265.5" y="-449" font-family="Helvetica,sans-Serif" font-size="10.00">file</text>
</g>
<!-- Node16 -->
<g id="node16" class="node"><title>Node16</title>
<g id="a_node16"><a xlink:href="classHashString.xhtml" target="_top" xlink:title="HashString">
<polygon fill="white" stroke="black" points="281.5,-395.5 281.5,-414.5 346.5,-414.5 346.5,-395.5 281.5,-395.5"/>
<text text-anchor="middle" x="314" y="-402.5" font-family="Helvetica,sans-Serif" font-size="10.00">HashString</text>
</a>
</g>
</g>
<!-- Node8&#45;&gt;Node16 -->
<g id="edge37" class="edge"><title>Node8&#45;&gt;Node16</title>
<path fill="none" stroke="#9a32cd" stroke-dasharray="5,2" d="M271.638,-485.644C275.347,-482.062 279.014,-478.091 282,-474 296.153,-454.608 306.492,-427.963 311.189,-414.509"/>
<polygon fill="#9a32cd" stroke="#9a32cd" points="269.262,-483.073 264.169,-492.363 273.944,-488.277 269.262,-483.073"/>
<text text-anchor="middle" x="313.5" y="-460" font-family="Helvetica,sans-Serif" font-size="10.00"> Type</text>
<text text-anchor="middle" x="313.5" y="-449" font-family="Helvetica,sans-Serif" font-size="10.00">Hash</text>
</g>
<!-- Node9 -->
<g id="node9" class="node"><title>Node9</title>
<g id="a_node9"><a xlink:title="STL class. ">
<polygon fill="white" stroke="#bfbfbf" points="200,-550.5 200,-569.5 306,-569.5 306,-550.5 200,-550.5"/>
<text text-anchor="middle" x="253" y="-557.5" font-family="Helvetica,sans-Serif" font-size="10.00">basic_string&lt; char &gt;</text>
</a>
</g>
</g>
<!-- Node9&#45;&gt;Node8 -->
<g id="edge10" class="edge"><title>Node9&#45;&gt;Node8</title>
<path fill="none" stroke="midnightblue" d="M253,-539.953C253,-530.287 253,-519.031 253,-511.505"/>
<polygon fill="midnightblue" stroke="midnightblue" points="249.5,-540.25 253,-550.25 256.5,-540.25 249.5,-540.25"/>
</g>
<!-- Node10&#45;&gt;Node4 -->
<g id="edge31" class="edge"><title>Node10&#45;&gt;Node4</title>
<path fill="none" stroke="#9a32cd" stroke-dasharray="5,2" d="M445.261,-64.572C461.705,-55.9442 484.157,-45.0683 505,-38 536.274,-27.3944 573.345,-20.0851 599.336,-15.7725"/>
<polygon fill="#9a32cd" stroke="#9a32cd" points="443.5,-61.5449 436.331,-69.3464 446.8,-67.718 443.5,-61.5449"/>
<text text-anchor="middle" x="525" y="-41.5" font-family="Helvetica,sans-Serif" font-size="10.00"> Workers</text>
</g>
<!-- Node10&#45;&gt;Node5 -->
<g id="edge26" class="edge"><title>Node10&#45;&gt;Node5</title>
<path fill="none" stroke="#9a32cd" stroke-dasharray="5,2" d="M438.959,-95.4209C450.652,-105.194 464.989,-116.611 472,-120 502.862,-134.921 514.358,-127.531 547,-138 552.676,-139.82 558.714,-142.111 564.231,-144.349"/>
<polygon fill="#9a32cd" stroke="#9a32cd" points="440.95,-92.5206 431.055,-88.7332 436.429,-97.8644 440.95,-92.5206"/>
<text text-anchor="middle" x="492" y="-111.5" font-family="Helvetica,sans-Serif" font-size="10.00"> Workers</text>
</g>
<!-- Node10&#45;&gt;Node6 -->
<g id="edge13" class="edge"><title>Node10&#45;&gt;Node6</title>
<path fill="none" stroke="#9a32cd" stroke-dasharray="5,2" d="M434.615,-96.4398C440.925,-103.826 448.642,-112.539 456,-120 464.397,-128.515 469.584,-127.908 476,-138 492.719,-164.299 499.575,-201.529 501.937,-218.261"/>
<polygon fill="#9a32cd" stroke="#9a32cd" points="437.077,-93.9301 427.96,-88.5336 431.722,-98.438 437.077,-93.9301"/>
<text text-anchor="middle" x="508.5" y="-151.5" font-family="Helvetica,sans-Serif" font-size="10.00"> Worker</text>
</g>
<!-- Node10&#45;&gt;Node10 -->
<g id="edge24" class="edge"><title>Node10&#45;&gt;Node10</title>
<path fill="none" stroke="#9a32cd" stroke-dasharray="5,2" d="M455.425,-84.6249C459.979,-83.6671 463,-81.7922 463,-79 463,-74.418 454.864,-72.3059 445.17,-72.6639"/>
<polygon fill="#9a32cd" stroke="#9a32cd" points="454.904,-81.1525 445.17,-85.3361 455.388,-88.1358 454.904,-81.1525"/>
<text text-anchor="middle" x="490.5" y="-82" font-family="Helvetica,sans-Serif" font-size="10.00"> NextQueue</text>
<text text-anchor="middle" x="490.5" y="-71" font-family="Helvetica,sans-Serif" font-size="10.00">NextAcquire</text>
</g>
<!-- Node11&#45;&gt;Node4 -->
<g id="edge27" class="edge"><title>Node11&#45;&gt;Node4</title>
<path fill="none" stroke="#9a32cd" stroke-dasharray="5,2" d="M77.395,-135.638C84.0761,-125.998 93.6258,-114.645 105,-108 248.752,-24.0137 309.145,-67.4933 473,-38 516.677,-30.1383 567.22,-21.6615 599.384,-16.345"/>
<polygon fill="#9a32cd" stroke="#9a32cd" points="74.3859,-133.846 71.9025,-144.146 80.2669,-137.643 74.3859,-133.846"/>
<text text-anchor="middle" x="209.5" y="-76.5" font-family="Helvetica,sans-Serif" font-size="10.00"> Configs</text>
</g>
<!-- Node11&#45;&gt;Node10 -->
<g id="edge16" class="edge"><title>Node11&#45;&gt;Node10</title>
<path fill="none" stroke="#9a32cd" stroke-dasharray="5,2" d="M83.5937,-137.666C95.7604,-127.395 113.199,-114.59 131,-108 179.621,-90.0014 336.335,-82.8737 396.846,-80.748"/>
<polygon fill="#9a32cd" stroke="#9a32cd" points="81.2819,-135.038 76.0732,-144.264 85.8985,-140.3 81.2819,-135.038"/>
<text text-anchor="middle" x="147" y="-111.5" font-family="Helvetica,sans-Serif" font-size="10.00"> Config</text>
</g>
<!-- Node11&#45;&gt;Node11 -->
<g id="edge17" class="edge"><title>Node11&#45;&gt;Node11</title>
<path fill="none" stroke="#9a32cd" stroke-dasharray="5,2" d="M115.872,-159.932C120.251,-158.691 123,-156.714 123,-154 123,-149.547 115.597,-147.077 105.735,-146.59"/>
<polygon fill="#9a32cd" stroke="#9a32cd" points="115.125,-156.503 105.735,-161.41 116.136,-163.43 115.125,-156.503"/>
<text text-anchor="middle" x="135.5" y="-151.5" font-family="Helvetica,sans-Serif" font-size="10.00"> Next</text>
</g>
<!-- Node12 -->
<g id="node12" class="node"><title>Node12</title>
<g id="a_node12"><a xlink:href="classpkgAcquireStatus.xhtml" target="_top" xlink:title="A monitor object for downloads controlled by the pkgAcquire class. {{{. ">
<polygon fill="white" stroke="black" points="625,-144.5 625,-163.5 719,-163.5 719,-144.5 625,-144.5"/>
<text text-anchor="middle" x="672" y="-151.5" font-family="Helvetica,sans-Serif" font-size="10.00">pkgAcquireStatus</text>
</a>
</g>
</g>
<!-- Node12&#45;&gt;Node4 -->
<g id="edge28" class="edge"><title>Node12&#45;&gt;Node4</title>
<path fill="none" stroke="#9a32cd" stroke-dasharray="5,2" d="M673.818,-134.238C674.895,-116.689 674.918,-89.9617 668,-68 662.022,-49.0221 648.108,-30.1134 639.435,-19.5509"/>
<polygon fill="#9a32cd" stroke="#9a32cd" points="670.322,-134.057 673.021,-144.302 677.3,-134.61 670.322,-134.057"/>
<text text-anchor="middle" x="682.5" y="-76.5" font-family="Helvetica,sans-Serif" font-size="10.00"> Log</text>
</g>
<!-- Node12&#45;&gt;Node10 -->
<g id="edge21" class="edge"><title>Node12&#45;&gt;Node10</title>
<path fill="none" stroke="#9a32cd" stroke-dasharray="5,2" d="M649.218,-139.271C631.484,-129.171 605.942,-115.879 582,-108 534.974,-92.5245 477.251,-85.1367 445.265,-82.0012"/>
<polygon fill="#9a32cd" stroke="#9a32cd" points="647.804,-142.497 658.208,-144.5 651.323,-136.446 647.804,-142.497"/>
<text text-anchor="middle" x="620.5" y="-111.5" font-family="Helvetica,sans-Serif" font-size="10.00"> Log</text>
</g>
<!-- Node13&#45;&gt;Node10 -->
<g id="edge22" class="edge"><title>Node13&#45;&gt;Node10</title>
<path fill="none" stroke="#9a32cd" stroke-dasharray="5,2" d="M151.974,-340.83C162.982,-324.53 177,-298.887 177,-274 177,-274 177,-274 177,-153 177,-107.457 334.995,-87.9407 396.712,-82.0544"/>
<polygon fill="#9a32cd" stroke="#9a32cd" points="148.914,-339.094 145.97,-349.271 154.618,-343.151 148.914,-339.094"/>
<text text-anchor="middle" x="213" y="-225.5" font-family="Helvetica,sans-Serif" font-size="10.00"> MessageQueue</text>
</g>
<!-- Node14&#45;&gt;Node4 -->
<g id="edge29" class="edge"><title>Node14&#45;&gt;Node4</title>
<path fill="none" stroke="#9a32cd" stroke-dasharray="5,2" d="M793,-247.713C793,-232.557 793,-212.642 793,-195 793,-195 793,-195 793,-78 793,-22.8993 711.625,-12.281 664.581,-10.7463"/>
<polygon fill="#9a32cd" stroke="#9a32cd" points="789.5,-247.808 793,-257.808 796.5,-247.808 789.5,-247.808"/>
<text text-anchor="middle" x="807" y="-151.5" font-family="Helvetica,sans-Serif" font-size="10.00"> Items</text>
</g>
<!-- Node15&#45;&gt;Node1 -->
<g id="edge33" class="edge"><title>Node15&#45;&gt;Node1</title>
<path fill="none" stroke="#9a32cd" stroke-dasharray="5,2" d="M290.34,-339.829C287.327,-330.283 285.184,-318.432 288,-308 295.61,-279.807 316.044,-251.33 326.937,-237.542"/>
<polygon fill="#9a32cd" stroke="#9a32cd" points="287.139,-341.264 293.894,-349.427 293.704,-338.834 287.139,-341.264"/>
<text text-anchor="middle" x="302" y="-316.5" font-family="Helvetica,sans-Serif" font-size="10.00"> patch</text>
</g>
<!-- Node16&#45;&gt;Node1 -->
<g id="edge36" class="edge"><title>Node16&#45;&gt;Node1</title>
<path fill="none" stroke="#9a32cd" stroke-dasharray="5,2" d="M320.213,-385.54C321.677,-380.548 323.078,-375.111 324,-370 332.929,-320.49 333.97,-259.857 334.031,-237.664"/>
<polygon fill="#9a32cd" stroke="#9a32cd" points="316.754,-384.869 317.069,-395.459 323.427,-386.984 316.754,-384.869"/>
<text text-anchor="middle" x="366" y="-316.5" font-family="Helvetica,sans-Serif" font-size="10.00"> ExpectedHash</text>
</g>
<!-- Node17&#45;&gt;Node1 -->
<g id="edge38" class="edge"><title>Node17&#45;&gt;Node1</title>
<path fill="none" stroke="#9a32cd" stroke-dasharray="5,2" d="M261.265,-178.574C259.058,-185.912 258.668,-193.718 263,-200 268.914,-208.577 277.94,-214.431 287.593,-218.427"/>
<polygon fill="#9a32cd" stroke="#9a32cd" points="264.614,-179.627 265.127,-169.045 258.127,-176.998 264.614,-179.627"/>
<text text-anchor="middle" x="287.5" y="-191.5" font-family="Helvetica,sans-Serif" font-size="10.00"> allPatches</text>
</g>
</g>
</svg>
        <g id="navigator" transform="translate(0 0)" fill="#404254">
                <rect fill="#f2f5e9" fill-opacity="0.5" stroke="#606060" stroke-width=".5" x="0" y="0" width="60" height="60"/>
                <use id="zoomplus" xlink:href="#zoomPlus" x="17" y="9" onmousedown="handleZoom(evt,'in')"/>
                <use id="zoomminus" xlink:href="#zoomMin" x="42" y="9" onmousedown="handleZoom(evt,'out')"/>
                <use id="reset" xlink:href="#resetDef" x="30" y="36" onmousedown="handleReset()"/>
                <g id="arrowUp" xlink:href="#dirArrow" transform="translate(30 24)" onmousedown="handlePan(0,-1)">
                  <use xlink:href="#rim" fill="#404040">
                        <set attributeName="fill" to="#808080" begin="arrowUp.mouseover" end="arrowUp.mouseout"/>
                  </use>
                  <path fill="none" stroke="white" stroke-width="1.5" d="M0,-3.0v7 M-2.5,-0.5L0,-3.0L2.5,-0.5"/>
                </g>
                <g id="arrowRight" xlink:href="#dirArrow" transform="rotate(90) translate(36 -43)" onmousedown="handlePan(1,0)">
                  <use xlink:href="#rim" fill="#404040">
                        <set attributeName="fill" to="#808080" begin="arrowRight.mouseover" end="arrowRight.mouseout"/>
                  </use>
                  <path fill="none" stroke="white" stroke-width="1.5" d="M0,-3.0v7 M-2.5,-0.5L0,-3.0L2.5,-0.5"/>
                </g>
                <g id="arrowDown" xlink:href="#dirArrow" transform="rotate(180) translate(-30 -48)" onmousedown="handlePan(0,1)">
                  <use xlink:href="#rim" fill="#404040">
                        <set attributeName="fill" to="#808080" begin="arrowDown.mouseover" end="arrowDown.mouseout"/>
                  </use>
                  <path fill="none" stroke="white" stroke-width="1.5" d="M0,-3.0v7 M-2.5,-0.5L0,-3.0L2.5,-0.5"/>
                </g>
                <g id="arrowLeft" xlink:href="#dirArrow" transform="rotate(270) translate(-36 17)" onmousedown="handlePan(-1,0)">
                  <use xlink:href="#rim" fill="#404040">
                        <set attributeName="fill" to="#808080" begin="arrowLeft.mouseover" end="arrowLeft.mouseout"/>
                  </use>
                  <path fill="none" stroke="white" stroke-width="1.5" d="M0,-3.0v7 M-2.5,-0.5L0,-3.0L2.5,-0.5"/>
                </g>
        </g>
        <svg viewBox="0 0 15 15" width="100%" height="30px" preserveAspectRatio="xMaxYMin meet">
         <g id="arrow_out" transform="scale(0.3 0.3)">
          <a xlink:href="classpkgAcqIndexMergeDiffs__coll__graph_org.svg" target="_base">
           <rect id="button" ry="5" rx="5" y="6" x="6" height="38" width="38"
                fill="#f2f5e9" fill-opacity="0.5" stroke="#606060" stroke-width="1.0"/>
           <path id="arrow"
             d="M 11.500037,31.436501 C 11.940474,20.09759 22.043105,11.32322 32.158766,21.979434 L 37.068811,17.246167 C 37.068811,17.246167 37.088388,32 37.088388,32 L 22.160133,31.978069 C 22.160133,31.978069 26.997745,27.140456 26.997745,27.140456 C 18.528582,18.264221 13.291696,25.230495 11.500037,31.436501 z"
             style="fill:#404040;"/>
          </a>
         </g>
        </svg>
</svg>
