<?xml version="1.0" encoding="UTF-8" standalone="no"?>
<!DOCTYPE svg PUBLIC "-//W3C//DTD SVG 1.1//EN"
 "http://www.w3.org/Graphics/SVG/1.1/DTD/svg11.dtd">
<!-- Generated by graphviz version 2.36.0 (20140111.2315)
 -->
<!-- Title: debReleaseIndex Pages: 1 -->
<svg width="227pt" height="232pt"
 viewBox="0.00 0.00 227.00 232.00" xmlns="http://www.w3.org/2000/svg" xmlns:xlink="http://www.w3.org/1999/xlink">
<g id="graph0" class="graph" transform="scale(1 1) rotate(0) translate(4 228)">
<title>debReleaseIndex</title>
<polygon fill="white" stroke="none" points="-4,4 -4,-228 223,-228 223,4 -4,4"/>
<!-- Node1 -->
<g id="node1" class="node"><title>Node1</title>
<polygon fill="#bfbfbf" stroke="black" points="73,-0.5 73,-19.5 165,-19.5 165,-0.5 73,-0.5"/>
<text text-anchor="middle" x="119" y="-7.5" font-family="Helvetica,sans-Serif" font-size="10.00">debReleaseIndex</text>
</g>
<!-- Node2 -->
<g id="node2" class="node"><title>Node2</title>
<g id="a_node2"><a xlink:href="classmetaIndex.xhtml" target="_top" xlink:title="metaIndex">
<polygon fill="white" stroke="black" points="88,-58.5 88,-77.5 150,-77.5 150,-58.5 88,-58.5"/>
<text text-anchor="middle" x="119" y="-65.5" font-family="Helvetica,sans-Serif" font-size="10.00">metaIndex</text>
</a>
</g>
</g>
<!-- Node2&#45;&gt;Node1 -->
<g id="edge1" class="edge"><title>Node2&#45;&gt;Node1</title>
<path fill="none" stroke="midnightblue" d="M119,-47.953C119,-38.2875 119,-27.0312 119,-19.5052"/>
<polygon fill="midnightblue" stroke="midnightblue" points="115.5,-48.25 119,-58.25 122.5,-48.25 115.5,-48.25"/>
</g>
<!-- Node3 -->
<g id="node3" class="node"><title>Node3</title>
<polygon fill="white" stroke="#bfbfbf" points="0,-136.5 0,-155.5 124,-155.5 124,-136.5 0,-136.5"/>
<text text-anchor="middle" x="62" y="-143.5" font-family="Helvetica,sans-Serif" font-size="10.00">vector&lt; pkgIndexFile * &gt;</text>
</g>
<!-- Node3&#45;&gt;Node2 -->
<g id="edge2" class="edge"><title>Node3&#45;&gt;Node2</title>
<path fill="none" stroke="#9a32cd" stroke-dasharray="5,2" d="M72.7597,-127.826C78.9622,-118.241 87.0801,-106.212 95,-96 99.9198,-89.6565 105.92,-82.9065 110.69,-77.7424"/>
<polygon fill="#9a32cd" stroke="#9a32cd" points="69.6949,-126.123 67.274,-136.437 75.5987,-129.884 69.6949,-126.123"/>
<text text-anchor="middle" x="114" y="-104.5" font-family="Helvetica,sans-Serif" font-size="10.00"> Indexes</text>
</g>
<!-- Node4 -->
<g id="node4" class="node"><title>Node4</title>
<g id="a_node4"><a xlink:href="classpkgIndexFile.xhtml" target="_top" xlink:title="pkgIndexFile">
<polygon fill="white" stroke="black" points="24,-204.5 24,-223.5 96,-223.5 96,-204.5 24,-204.5"/>
<text text-anchor="middle" x="60" y="-211.5" font-family="Helvetica,sans-Serif" font-size="10.00">pkgIndexFile</text>
</a>
</g>
</g>
<!-- Node4&#45;&gt;Node3 -->
<g id="edge3" class="edge"><title>Node4&#45;&gt;Node3</title>
<path fill="none" stroke="#9a32cd" stroke-dasharray="5,2" d="M60.5745,-194.041C60.9554,-181.472 61.4375,-165.563 61.7321,-155.841"/>
<polygon fill="#9a32cd" stroke="#9a32cd" points="57.0661,-194.27 60.2615,-204.372 64.0628,-194.482 57.0661,-194.27"/>
<text text-anchor="middle" x="83.5" y="-177.5" font-family="Helvetica,sans-Serif" font-size="10.00"> elements</text>
</g>
<!-- Node5 -->
<g id="node5" class="node"><title>Node5</title>
<g id="a_node5"><a xlink:title="STL class. ">
<polygon fill="white" stroke="#bfbfbf" points="145.5,-136.5 145.5,-155.5 186.5,-155.5 186.5,-136.5 145.5,-136.5"/>
<text text-anchor="middle" x="166" y="-143.5" font-family="Helvetica,sans-Serif" font-size="10.00">string</text>
</a>
</g>
</g>
<!-- Node5&#45;&gt;Node2 -->
<g id="edge4" class="edge"><title>Node5&#45;&gt;Node2</title>
<path fill="none" stroke="#9a32cd" stroke-dasharray="5,2" d="M155.218,-127.565C145.56,-111.949 131.801,-89.7002 124.329,-77.6165"/>
<polygon fill="#9a32cd" stroke="#9a32cd" points="152.372,-129.618 160.609,-136.282 158.326,-125.936 152.372,-129.618"/>
<text text-anchor="middle" x="160" y="-110" font-family="Helvetica,sans-Serif" font-size="10.00"> Dist</text>
<text text-anchor="middle" x="160" y="-99" font-family="Helvetica,sans-Serif" font-size="10.00">URI</text>
</g>
<!-- Node6 -->
<g id="node6" class="node"><title>Node6</title>
<g id="a_node6"><a xlink:title="STL class. ">
<polygon fill="white" stroke="#bfbfbf" points="114,-204.5 114,-223.5 220,-223.5 220,-204.5 114,-204.5"/>
<text text-anchor="middle" x="167" y="-211.5" font-family="Helvetica,sans-Serif" font-size="10.00">basic_string&lt; char &gt;</text>
</a>
</g>
</g>
<!-- Node6&#45;&gt;Node5 -->
<g id="edge5" class="edge"><title>Node6&#45;&gt;Node5</title>
<path fill="none" stroke="midnightblue" d="M166.713,-194.041C166.522,-181.472 166.281,-165.563 166.134,-155.841"/>
<polygon fill="midnightblue" stroke="midnightblue" points="163.218,-194.426 166.869,-204.372 170.217,-194.32 163.218,-194.426"/>
</g>
</g>
</svg>
