<?xml version="1.0" encoding="UTF-8" standalone="no"?>
<!DOCTYPE svg PUBLIC "-//W3C//DTD SVG 1.1//EN"
 "http://www.w3.org/Graphics/SVG/1.1/DTD/svg11.dtd">
<!-- Generated by graphviz version 2.36.0 (20140111.2315)
 -->
<!-- Title: SubIndexTarget Pages: 1 -->
<svg width="113pt" height="244pt"
 viewBox="0.00 0.00 113.00 244.00" xmlns="http://www.w3.org/2000/svg" xmlns:xlink="http://www.w3.org/1999/xlink">
<g id="graph0" class="graph" transform="scale(1 1) rotate(0) translate(4 240)">
<title>SubIndexTarget</title>
<polygon fill="white" stroke="none" points="-4,4 -4,-240 109,-240 109,4 -4,4"/>
<!-- Node1 -->
<g id="node1" class="node"><title>Node1</title>
<polygon fill="#bfbfbf" stroke="black" points="9,-0.5 9,-19.5 95,-19.5 95,-0.5 9,-0.5"/>
<text text-anchor="middle" x="52" y="-7.5" font-family="Helvetica,sans-Serif" font-size="10.00">SubIndexTarget</text>
</g>
<!-- Node2 -->
<g id="node2" class="node"><title>Node2</title>
<g id="a_node2"><a xlink:href="classIndexTarget.xhtml" target="_top" xlink:title="Information about an index file. ">
<polygon fill="white" stroke="black" points="18,-58.5 18,-77.5 86,-77.5 86,-58.5 18,-58.5"/>
<text text-anchor="middle" x="52" y="-65.5" font-family="Helvetica,sans-Serif" font-size="10.00">IndexTarget</text>
</a>
</g>
</g>
<!-- Node2&#45;&gt;Node1 -->
<g id="edge1" class="edge"><title>Node2&#45;&gt;Node1</title>
<path fill="none" stroke="midnightblue" d="M52,-47.953C52,-38.2875 52,-27.0312 52,-19.5052"/>
<polygon fill="midnightblue" stroke="midnightblue" points="48.5001,-48.25 52,-58.25 55.5001,-48.25 48.5001,-48.25"/>
</g>
<!-- Node3 -->
<g id="node3" class="node"><title>Node3</title>
<g id="a_node3"><a xlink:title="STL class. ">
<polygon fill="white" stroke="#bfbfbf" points="31.5,-158.5 31.5,-177.5 72.5,-177.5 72.5,-158.5 31.5,-158.5"/>
<text text-anchor="middle" x="52" y="-165.5" font-family="Helvetica,sans-Serif" font-size="10.00">string</text>
</a>
</g>
</g>
<!-- Node3&#45;&gt;Node2 -->
<g id="edge2" class="edge"><title>Node3&#45;&gt;Node2</title>
<path fill="none" stroke="#9a32cd" stroke-dasharray="5,2" d="M52,-148.22C52,-126.951 52,-93.2197 52,-77.5374"/>
<polygon fill="#9a32cd" stroke="#9a32cd" points="48.5001,-148.303 52,-158.303 55.5001,-148.303 48.5001,-148.303"/>
<text text-anchor="middle" x="78.5" y="-132" font-family="Helvetica,sans-Serif" font-size="10.00"> Description</text>
<text text-anchor="middle" x="78.5" y="-121" font-family="Helvetica,sans-Serif" font-size="10.00">URI</text>
<text text-anchor="middle" x="78.5" y="-110" font-family="Helvetica,sans-Serif" font-size="10.00">ShortDesc</text>
<text text-anchor="middle" x="78.5" y="-99" font-family="Helvetica,sans-Serif" font-size="10.00">MetaKey</text>
</g>
<!-- Node4 -->
<g id="node4" class="node"><title>Node4</title>
<g id="a_node4"><a xlink:title="STL class. ">
<polygon fill="white" stroke="#bfbfbf" points="-1,-216.5 -1,-235.5 105,-235.5 105,-216.5 -1,-216.5"/>
<text text-anchor="middle" x="52" y="-223.5" font-family="Helvetica,sans-Serif" font-size="10.00">basic_string&lt; char &gt;</text>
</a>
</g>
</g>
<!-- Node4&#45;&gt;Node3 -->
<g id="edge3" class="edge"><title>Node4&#45;&gt;Node3</title>
<path fill="none" stroke="midnightblue" d="M52,-205.953C52,-196.287 52,-185.031 52,-177.505"/>
<polygon fill="midnightblue" stroke="midnightblue" points="48.5001,-206.25 52,-216.25 55.5001,-206.25 48.5001,-206.25"/>
</g>
</g>
</svg>
