<?xml version="1.0" encoding="UTF-8" standalone="no"?>
<!DOCTYPE svg PUBLIC "-//W3C//DTD SVG 1.1//EN"
 "http://www.w3.org/Graphics/SVG/1.1/DTD/svg11.dtd">
<!-- Generated by graphviz version 2.36.0 (20140111.2315)
 -->
<!-- Title: WeakPointable Pages: 1 -->
<svg width="492pt" height="370pt"
 viewBox="0.00 0.00 492.00 370.00" xmlns="http://www.w3.org/2000/svg" xmlns:xlink="http://www.w3.org/1999/xlink">
<g id="graph0" class="graph" transform="scale(1 1) rotate(0) translate(4 366)">
<title>WeakPointable</title>
<polygon fill="white" stroke="none" points="-4,4 -4,-366 488,-366 488,4 -4,4"/>
<!-- Node1 -->
<g id="node1" class="node"><title>Node1</title>
<polygon fill="#bfbfbf" stroke="black" points="0.5,-76.5 0.5,-95.5 83.5,-95.5 83.5,-76.5 0.5,-76.5"/>
<text text-anchor="middle" x="42" y="-83.5" font-family="Helvetica,sans-Serif" font-size="10.00">WeakPointable</text>
</g>
<!-- Node2 -->
<g id="node2" class="node"><title>Node2</title>
<g id="a_node2"><a xlink:href="classpkgAcquire_1_1Item.xhtml" target="_top" xlink:title="Represents the process by which a pkgAcquire object should {{{ retrieve a file or a collection of fil...">
<polygon fill="white" stroke="black" points="132,-171.5 132,-190.5 168,-190.5 168,-171.5 132,-171.5"/>
<text text-anchor="middle" x="150" y="-178.5" font-family="Helvetica,sans-Serif" font-size="10.00">Item</text>
</a>
</g>
</g>
<!-- Node1&#45;&gt;Node2 -->
<g id="edge1" class="edge"><title>Node1&#45;&gt;Node2</title>
<path fill="none" stroke="midnightblue" d="M61.4173,-102.506C83.6328,-122.416 120.236,-155.221 138.273,-171.386"/>
<polygon fill="midnightblue" stroke="midnightblue" points="63.7275,-99.8766 53.9446,-95.8089 59.0556,-105.089 63.7275,-99.8766"/>
</g>
<!-- Node14 -->
<g id="node14" class="node"><title>Node14</title>
<g id="a_node14"><a xlink:href="structpkgAcquire_1_1ItemDesc.xhtml" target="_top" xlink:title="Represents a single download source from which an item should be downloaded. ">
<polygon fill="white" stroke="black" points="120.5,-76.5 120.5,-95.5 179.5,-95.5 179.5,-76.5 120.5,-76.5"/>
<text text-anchor="middle" x="150" y="-83.5" font-family="Helvetica,sans-Serif" font-size="10.00">ItemDesc</text>
</a>
</g>
</g>
<!-- Node1&#45;&gt;Node14 -->
<g id="edge13" class="edge"><title>Node1&#45;&gt;Node14</title>
<path fill="none" stroke="midnightblue" d="M93.8879,-86C103.012,-86 112.221,-86 120.428,-86"/>
<polygon fill="midnightblue" stroke="midnightblue" points="93.6792,-82.5001 83.6792,-86 93.6792,-89.5001 93.6792,-82.5001"/>
</g>
<!-- Node16 -->
<g id="node16" class="node"><title>Node16</title>
<g id="a_node16"><a xlink:href="classpkgAcquire_1_1Worker.xhtml" target="_top" xlink:title="A fetch subprocess. ">
<polygon fill="white" stroke="black" points="126,-38.5 126,-57.5 174,-57.5 174,-38.5 126,-38.5"/>
<text text-anchor="middle" x="150" y="-45.5" font-family="Helvetica,sans-Serif" font-size="10.00">Worker</text>
</a>
</g>
</g>
<!-- Node1&#45;&gt;Node16 -->
<g id="edge15" class="edge"><title>Node1&#45;&gt;Node16</title>
<path fill="none" stroke="midnightblue" d="M79.4926,-72.9178C94.8667,-67.4063 112.299,-61.1568 125.861,-56.2952"/>
<polygon fill="midnightblue" stroke="midnightblue" points="77.9805,-69.7416 69.7483,-76.411 80.3428,-76.331 77.9805,-69.7416"/>
</g>
<!-- Node3 -->
<g id="node3" class="node"><title>Node3</title>
<g id="a_node3"><a xlink:href="classpkgAcqArchive.xhtml" target="_top" xlink:title="An item that is responsible for fetching a package file. {{{. ">
<polygon fill="white" stroke="black" points="235.5,-342.5 235.5,-361.5 318.5,-361.5 318.5,-342.5 235.5,-342.5"/>
<text text-anchor="middle" x="277" y="-349.5" font-family="Helvetica,sans-Serif" font-size="10.00">pkgAcqArchive</text>
</a>
</g>
</g>
<!-- Node2&#45;&gt;Node3 -->
<g id="edge2" class="edge"><title>Node2&#45;&gt;Node3</title>
<path fill="none" stroke="midnightblue" d="M154.047,-200.802C160.052,-233.104 176.446,-297.123 216,-333 221.503,-337.992 228.316,-341.672 235.355,-344.386"/>
<polygon fill="midnightblue" stroke="midnightblue" points="157.471,-200.064 152.335,-190.797 150.572,-201.244 157.471,-200.064"/>
</g>
<!-- Node4 -->
<g id="node4" class="node"><title>Node4</title>
<g id="a_node4"><a xlink:href="classpkgAcqDiffIndex.xhtml" target="_top" xlink:title="An item that is responsible for fetching an index file of {{{ package list diffs and starting the pac...">
<polygon fill="white" stroke="black" points="232.5,-304.5 232.5,-323.5 321.5,-323.5 321.5,-304.5 232.5,-304.5"/>
<text text-anchor="middle" x="277" y="-311.5" font-family="Helvetica,sans-Serif" font-size="10.00">pkgAcqDiffIndex</text>
</a>
</g>
</g>
<!-- Node2&#45;&gt;Node4 -->
<g id="edge3" class="edge"><title>Node2&#45;&gt;Node4</title>
<path fill="none" stroke="midnightblue" d="M156.957,-200.111C165.812,-225.429 184.834,-269.816 216,-295 220.844,-298.914 226.506,-302.028 232.381,-304.502"/>
<polygon fill="midnightblue" stroke="midnightblue" points="160.252,-198.927 153.779,-190.539 153.609,-201.133 160.252,-198.927"/>
</g>
<!-- Node5 -->
<g id="node5" class="node"><title>Node5</title>
<g id="a_node5"><a xlink:href="classpkgAcqFile.xhtml" target="_top" xlink:title="Retrieve an arbitrary file to the current directory. {{{. ">
<polygon fill="white" stroke="black" points="244.5,-266.5 244.5,-285.5 309.5,-285.5 309.5,-266.5 244.5,-266.5"/>
<text text-anchor="middle" x="277" y="-273.5" font-family="Helvetica,sans-Serif" font-size="10.00">pkgAcqFile</text>
</a>
</g>
</g>
<!-- Node2&#45;&gt;Node5 -->
<g id="edge4" class="edge"><title>Node2&#45;&gt;Node5</title>
<path fill="none" stroke="midnightblue" d="M162.276,-199.298C173.783,-216.523 193.161,-241.874 216,-257 224.472,-262.611 234.707,-266.653 244.306,-269.525"/>
<polygon fill="midnightblue" stroke="midnightblue" points="165.081,-197.189 156.721,-190.68 159.198,-200.982 165.081,-197.189"/>
</g>
<!-- Node6 -->
<g id="node6" class="node"><title>Node6</title>
<g id="a_node6"><a xlink:href="classpkgAcqIndex.xhtml" target="_top" xlink:title="An acquire item that is responsible for fetching an index {{{ file (e.g., Packages or Sources)...">
<polygon fill="white" stroke="black" points="240,-228.5 240,-247.5 314,-247.5 314,-228.5 240,-228.5"/>
<text text-anchor="middle" x="277" y="-235.5" font-family="Helvetica,sans-Serif" font-size="10.00">pkgAcqIndex</text>
</a>
</g>
</g>
<!-- Node2&#45;&gt;Node6 -->
<g id="edge5" class="edge"><title>Node2&#45;&gt;Node6</title>
<path fill="none" stroke="midnightblue" d="M174.066,-196.179C186.201,-203.723 201.529,-212.575 216,-219 223.989,-222.547 232.844,-225.733 241.244,-228.437"/>
<polygon fill="midnightblue" stroke="midnightblue" points="175.794,-193.131 165.475,-190.727 172.043,-199.041 175.794,-193.131"/>
</g>
<!-- Node8 -->
<g id="node8" class="node"><title>Node8</title>
<g id="a_node8"><a xlink:href="classpkgAcqIndexDiffs.xhtml" target="_top" xlink:title="An item that is responsible for fetching server&#45;merge patches {{{ that need to be applied to a given ...">
<polygon fill="white" stroke="black" points="229.5,-190.5 229.5,-209.5 324.5,-209.5 324.5,-190.5 229.5,-190.5"/>
<text text-anchor="middle" x="277" y="-197.5" font-family="Helvetica,sans-Serif" font-size="10.00">pkgAcqIndexDiffs</text>
</a>
</g>
</g>
<!-- Node2&#45;&gt;Node8 -->
<g id="edge7" class="edge"><title>Node2&#45;&gt;Node8</title>
<path fill="none" stroke="midnightblue" d="M178.194,-185.134C193.113,-187.401 212.025,-190.276 229.234,-192.892"/>
<polygon fill="midnightblue" stroke="midnightblue" points="178.531,-181.645 168.119,-183.602 177.479,-188.565 178.531,-181.645"/>
</g>
<!-- Node9 -->
<g id="node9" class="node"><title>Node9</title>
<g id="a_node9"><a xlink:href="classpkgAcqIndexMergeDiffs.xhtml" target="_top" xlink:title="An item that is responsible for fetching client&#45;merge patches {{{ that need to be applied to a given ...">
<polygon fill="white" stroke="black" points="216,-152.5 216,-171.5 338,-171.5 338,-152.5 216,-152.5"/>
<text text-anchor="middle" x="277" y="-159.5" font-family="Helvetica,sans-Serif" font-size="10.00">pkgAcqIndexMergeDiffs</text>
</a>
</g>
</g>
<!-- Node2&#45;&gt;Node9 -->
<g id="edge8" class="edge"><title>Node2&#45;&gt;Node9</title>
<path fill="none" stroke="midnightblue" d="M178.05,-176.888C189.21,-175.192 202.624,-173.153 215.893,-171.136"/>
<polygon fill="midnightblue" stroke="midnightblue" points="177.479,-173.435 168.119,-178.398 178.531,-180.355 177.479,-173.435"/>
</g>
<!-- Node10 -->
<g id="node10" class="node"><title>Node10</title>
<g id="a_node10"><a xlink:href="classpkgAcqMetaIndex.xhtml" target="_top" xlink:title="An item that is responsible for downloading the meta&#45;index {{{ file (i.e., Release) itself and verify...">
<polygon fill="white" stroke="black" points="229.5,-114.5 229.5,-133.5 324.5,-133.5 324.5,-114.5 229.5,-114.5"/>
<text text-anchor="middle" x="277" y="-121.5" font-family="Helvetica,sans-Serif" font-size="10.00">pkgAcqMetaIndex</text>
</a>
</g>
</g>
<!-- Node2&#45;&gt;Node10 -->
<g id="edge9" class="edge"><title>Node2&#45;&gt;Node10</title>
<path fill="none" stroke="midnightblue" d="M174.066,-165.821C186.201,-158.277 201.529,-149.425 216,-143 223.989,-139.453 232.844,-136.267 241.244,-133.563"/>
<polygon fill="midnightblue" stroke="midnightblue" points="172.043,-162.959 165.475,-171.273 175.794,-168.869 172.043,-162.959"/>
</g>
<!-- Node12 -->
<g id="node12" class="node"><title>Node12</title>
<g id="a_node12"><a xlink:href="classpkgAcqMetaSig.xhtml" target="_top" xlink:title="An acquire item that downloads the detached signature {{{ of a meta&#45;index (Release) file...">
<polygon fill="white" stroke="black" points="234,-76.5 234,-95.5 320,-95.5 320,-76.5 234,-76.5"/>
<text text-anchor="middle" x="277" y="-83.5" font-family="Helvetica,sans-Serif" font-size="10.00">pkgAcqMetaSig</text>
</a>
</g>
</g>
<!-- Node2&#45;&gt;Node12 -->
<g id="edge11" class="edge"><title>Node2&#45;&gt;Node12</title>
<path fill="none" stroke="midnightblue" d="M162.276,-162.702C173.783,-145.477 193.161,-120.126 216,-105 221.83,-101.139 228.495,-98.0206 235.214,-95.5153"/>
<polygon fill="midnightblue" stroke="midnightblue" points="159.198,-161.018 156.721,-171.32 165.081,-164.811 159.198,-161.018"/>
</g>
<!-- Node13 -->
<g id="node13" class="node"><title>Node13</title>
<g id="a_node13"><a xlink:href="classpkgAcqSubIndex.xhtml" target="_top" xlink:title="An item that is responsible for fetching a SubIndex {{{. ">
<polygon fill="white" stroke="black" points="231.5,-38.5 231.5,-57.5 322.5,-57.5 322.5,-38.5 231.5,-38.5"/>
<text text-anchor="middle" x="277" y="-45.5" font-family="Helvetica,sans-Serif" font-size="10.00">pkgAcqSubIndex</text>
</a>
</g>
</g>
<!-- Node2&#45;&gt;Node13 -->
<g id="edge12" class="edge"><title>Node2&#45;&gt;Node13</title>
<path fill="none" stroke="midnightblue" d="M156.957,-161.889C165.812,-136.571 184.834,-92.1839 216,-67 220.759,-63.1543 226.307,-60.0818 232.072,-57.6285"/>
<polygon fill="midnightblue" stroke="midnightblue" points="153.609,-160.867 153.779,-171.461 160.252,-163.073 153.609,-160.867"/>
</g>
<!-- Node7 -->
<g id="node7" class="node"><title>Node7</title>
<g id="a_node7"><a xlink:href="classpkgAcqIndexTrans.xhtml" target="_top" xlink:title="An acquire item that is responsible for fetching a {{{ translated index file. ">
<polygon fill="white" stroke="black" points="380,-228.5 380,-247.5 478,-247.5 478,-228.5 380,-228.5"/>
<text text-anchor="middle" x="429" y="-235.5" font-family="Helvetica,sans-Serif" font-size="10.00">pkgAcqIndexTrans</text>
</a>
</g>
</g>
<!-- Node6&#45;&gt;Node7 -->
<g id="edge6" class="edge"><title>Node6&#45;&gt;Node7</title>
<path fill="none" stroke="midnightblue" d="M324.357,-238C341.968,-238 362.058,-238 379.833,-238"/>
<polygon fill="midnightblue" stroke="midnightblue" points="324.311,-234.5 314.311,-238 324.311,-241.5 324.311,-234.5"/>
</g>
<!-- Node11 -->
<g id="node11" class="node"><title>Node11</title>
<g id="a_node11"><a xlink:href="classpkgAcqMetaClearSig.xhtml" target="_top" xlink:title="An item repsonsible for downloading clearsigned metaindexes {{{. ">
<polygon fill="white" stroke="black" points="374.5,-114.5 374.5,-133.5 483.5,-133.5 483.5,-114.5 374.5,-114.5"/>
<text text-anchor="middle" x="429" y="-121.5" font-family="Helvetica,sans-Serif" font-size="10.00">pkgAcqMetaClearSig</text>
</a>
</g>
</g>
<!-- Node10&#45;&gt;Node11 -->
<g id="edge10" class="edge"><title>Node10&#45;&gt;Node11</title>
<path fill="none" stroke="midnightblue" d="M334.827,-124C347.776,-124 361.495,-124 374.308,-124"/>
<polygon fill="midnightblue" stroke="midnightblue" points="334.639,-120.5 324.639,-124 334.639,-127.5 334.639,-120.5"/>
</g>
<!-- Node15 -->
<g id="node15" class="node"><title>Node15</title>
<g id="a_node15"><a xlink:href="structpkgAcquire_1_1Queue_1_1QItem.xhtml" target="_top" xlink:title="A single item placed in this queue. ">
<polygon fill="white" stroke="black" points="255,-0.5 255,-19.5 299,-19.5 299,-0.5 255,-0.5"/>
<text text-anchor="middle" x="277" y="-7.5" font-family="Helvetica,sans-Serif" font-size="10.00">QItem</text>
</a>
</g>
</g>
<!-- Node14&#45;&gt;Node15 -->
<g id="edge14" class="edge"><title>Node14&#45;&gt;Node15</title>
<path fill="none" stroke="midnightblue" d="M175.725,-70.38C177.198,-69.2721 178.635,-68.1411 180,-67 197.85,-52.0802 196.283,-41.3488 216,-29 227.853,-21.5763 242.853,-16.8263 254.89,-13.9322"/>
<polygon fill="midnightblue" stroke="midnightblue" points="173.322,-67.7891 167.126,-76.3838 177.329,-73.5285 173.322,-67.7891"/>
</g>
</g>
</svg>
