<?xml version="1.0" encoding="UTF-8" standalone="no"?>
<!DOCTYPE svg PUBLIC "-//W3C//DTD SVG 1.1//EN"
 "http://www.w3.org/Graphics/SVG/1.1/DTD/svg11.dtd">
<!-- Generated by graphviz version 2.36.0 (20140111.2315)
 -->
<!-- Title: debSLTypeDebSrc Pages: 1 -->
<svg width="106pt" height="140pt"
 viewBox="0.00 0.00 106.00 140.00" xmlns="http://www.w3.org/2000/svg" xmlns:xlink="http://www.w3.org/1999/xlink">
<g id="graph0" class="graph" transform="scale(1 1) rotate(0) translate(4 136)">
<title>debSLTypeDebSrc</title>
<polygon fill="white" stroke="none" points="-4,4 -4,-136 102,-136 102,4 -4,4"/>
<!-- Node1 -->
<g id="node1" class="node"><title>Node1</title>
<polygon fill="#bfbfbf" stroke="black" points="-0.5,-0.5 -0.5,-19.5 98.5,-19.5 98.5,-0.5 -0.5,-0.5"/>
<text text-anchor="middle" x="49" y="-7.5" font-family="Helvetica,sans-Serif" font-size="10.00">debSLTypeDebSrc</text>
</g>
<!-- Node2 -->
<g id="node2" class="node"><title>Node2</title>
<g id="a_node2"><a xlink:href="classdebSLTypeDebian.xhtml" target="_top" xlink:title="debSLTypeDebian">
<polygon fill="white" stroke="black" points="0.5,-56.5 0.5,-75.5 97.5,-75.5 97.5,-56.5 0.5,-56.5"/>
<text text-anchor="middle" x="49" y="-63.5" font-family="Helvetica,sans-Serif" font-size="10.00">debSLTypeDebian</text>
</a>
</g>
</g>
<!-- Node2&#45;&gt;Node1 -->
<g id="edge1" class="edge"><title>Node2&#45;&gt;Node1</title>
<path fill="none" stroke="midnightblue" d="M49,-45.8045C49,-36.9102 49,-26.7798 49,-19.7511"/>
<polygon fill="midnightblue" stroke="midnightblue" points="45.5001,-46.083 49,-56.083 52.5001,-46.083 45.5001,-46.083"/>
</g>
<!-- Node3 -->
<g id="node3" class="node"><title>Node3</title>
<g id="a_node3"><a xlink:href="classpkgSourceList_1_1Type.xhtml" target="_top" xlink:title="Type">
<polygon fill="white" stroke="black" points="30,-112.5 30,-131.5 68,-131.5 68,-112.5 30,-112.5"/>
<text text-anchor="middle" x="49" y="-119.5" font-family="Helvetica,sans-Serif" font-size="10.00">Type</text>
</a>
</g>
</g>
<!-- Node3&#45;&gt;Node2 -->
<g id="edge2" class="edge"><title>Node3&#45;&gt;Node2</title>
<path fill="none" stroke="midnightblue" d="M49,-101.805C49,-92.9102 49,-82.7798 49,-75.7511"/>
<polygon fill="midnightblue" stroke="midnightblue" points="45.5001,-102.083 49,-112.083 52.5001,-102.083 45.5001,-102.083"/>
</g>
</g>
</svg>
