<?xml version="1.0" encoding="UTF-8" standalone="no"?>
<!DOCTYPE svg PUBLIC "-//W3C//DTD SVG 1.1//EN"
 "http://www.w3.org/Graphics/SVG/1.1/DTD/svg11.dtd">
<!-- Generated by graphviz version 2.36.0 (20140111.2315)
 -->
<!-- Title: debStatusIndex Pages: 1 -->
<svg width="172pt" height="154pt"
 viewBox="0.00 0.00 172.00 154.00" xmlns="http://www.w3.org/2000/svg" xmlns:xlink="http://www.w3.org/1999/xlink">
<g id="graph0" class="graph" transform="scale(1 1) rotate(0) translate(4 150)">
<title>debStatusIndex</title>
<polygon fill="white" stroke="none" points="-4,4 -4,-150 168,-150 168,4 -4,4"/>
<!-- Node1 -->
<g id="node1" class="node"><title>Node1</title>
<polygon fill="#bfbfbf" stroke="black" points="20.5,-0.5 20.5,-19.5 105.5,-19.5 105.5,-0.5 20.5,-0.5"/>
<text text-anchor="middle" x="63" y="-7.5" font-family="Helvetica,sans-Serif" font-size="10.00">debStatusIndex</text>
</g>
<!-- Node2 -->
<g id="node2" class="node"><title>Node2</title>
<g id="a_node2"><a xlink:href="classpkgIndexFile.xhtml" target="_top" xlink:title="pkgIndexFile">
<polygon fill="white" stroke="black" points="0,-68.5 0,-87.5 72,-87.5 72,-68.5 0,-68.5"/>
<text text-anchor="middle" x="36" y="-75.5" font-family="Helvetica,sans-Serif" font-size="10.00">pkgIndexFile</text>
</a>
</g>
</g>
<!-- Node2&#45;&gt;Node1 -->
<g id="edge1" class="edge"><title>Node2&#45;&gt;Node1</title>
<path fill="none" stroke="midnightblue" d="M43.4428,-58.8066C48.6309,-46.1244 55.3248,-29.7615 59.3832,-19.8411"/>
<polygon fill="midnightblue" stroke="midnightblue" points="40.0768,-57.7909 39.5298,-68.3717 46.5556,-60.4414 40.0768,-57.7909"/>
</g>
<!-- Node3 -->
<g id="node3" class="node"><title>Node3</title>
<g id="a_node3"><a xlink:title="STL class. ">
<polygon fill="white" stroke="#bfbfbf" points="90.5,-68.5 90.5,-87.5 131.5,-87.5 131.5,-68.5 90.5,-68.5"/>
<text text-anchor="middle" x="111" y="-75.5" font-family="Helvetica,sans-Serif" font-size="10.00">string</text>
</a>
</g>
</g>
<!-- Node3&#45;&gt;Node1 -->
<g id="edge2" class="edge"><title>Node3&#45;&gt;Node1</title>
<path fill="none" stroke="#9a32cd" stroke-dasharray="5,2" d="M98.5911,-59.9377C89.2632,-47.112 76.8612,-30.0591 69.4299,-19.8411"/>
<polygon fill="#9a32cd" stroke="#9a32cd" points="96.0125,-62.3429 104.725,-68.3717 101.674,-58.2257 96.0125,-62.3429"/>
<text text-anchor="middle" x="100.5" y="-41.5" font-family="Helvetica,sans-Serif" font-size="10.00"> File</text>
</g>
<!-- Node4 -->
<g id="node4" class="node"><title>Node4</title>
<g id="a_node4"><a xlink:title="STL class. ">
<polygon fill="white" stroke="#bfbfbf" points="58,-126.5 58,-145.5 164,-145.5 164,-126.5 58,-126.5"/>
<text text-anchor="middle" x="111" y="-133.5" font-family="Helvetica,sans-Serif" font-size="10.00">basic_string&lt; char &gt;</text>
</a>
</g>
</g>
<!-- Node4&#45;&gt;Node3 -->
<g id="edge3" class="edge"><title>Node4&#45;&gt;Node3</title>
<path fill="none" stroke="midnightblue" d="M111,-115.953C111,-106.287 111,-95.0312 111,-87.5052"/>
<polygon fill="midnightblue" stroke="midnightblue" points="107.5,-116.25 111,-126.25 114.5,-116.25 107.5,-116.25"/>
</g>
</g>
</svg>
