<?xml version="1.0" encoding="UTF-8" standalone="no"?>
<!DOCTYPE svg PUBLIC "-//W3C//DTD SVG 1.1//EN"
 "http://www.w3.org/Graphics/SVG/1.1/DTD/svg11.dtd">
<!-- Generated by graphviz version 2.36.0 (20140111.2315)
 -->
<!-- Title: pkgAcquire::Item Pages: 1 -->
<svg width="524pt" height="332pt"
 viewBox="0.00 0.00 524.00 332.00" xmlns="http://www.w3.org/2000/svg" xmlns:xlink="http://www.w3.org/1999/xlink">
<g id="graph0" class="graph" transform="scale(1 1) rotate(0) translate(4 328)">
<title>pkgAcquire::Item</title>
<polygon fill="white" stroke="none" points="-4,4 -4,-328 520,-328 520,4 -4,4"/>
<!-- Node1 -->
<g id="node1" class="node"><title>Node1</title>
<polygon fill="#bfbfbf" stroke="black" points="120.5,-152.5 120.5,-171.5 211.5,-171.5 211.5,-152.5 120.5,-152.5"/>
<text text-anchor="middle" x="166" y="-159.5" font-family="Helvetica,sans-Serif" font-size="10.00">pkgAcquire::Item</text>
</g>
<!-- Node3 -->
<g id="node3" class="node"><title>Node3</title>
<g id="a_node3"><a xlink:href="classpkgAcqArchive.xhtml" target="_top" xlink:title="An item that is responsible for fetching a package file. {{{. ">
<polygon fill="white" stroke="black" points="267.5,-304.5 267.5,-323.5 350.5,-323.5 350.5,-304.5 267.5,-304.5"/>
<text text-anchor="middle" x="309" y="-311.5" font-family="Helvetica,sans-Serif" font-size="10.00">pkgAcqArchive</text>
</a>
</g>
</g>
<!-- Node1&#45;&gt;Node3 -->
<g id="edge2" class="edge"><title>Node1&#45;&gt;Node3</title>
<path fill="none" stroke="midnightblue" d="M173.728,-181.408C184.739,-210.353 209.334,-264.666 248,-295 253.674,-299.451 260.41,-302.87 267.284,-305.493"/>
<polygon fill="midnightblue" stroke="midnightblue" points="176.887,-179.854 170.171,-171.659 170.311,-182.253 176.887,-179.854"/>
</g>
<!-- Node4 -->
<g id="node4" class="node"><title>Node4</title>
<g id="a_node4"><a xlink:href="classpkgAcqDiffIndex.xhtml" target="_top" xlink:title="An item that is responsible for fetching an index file of {{{ package list diffs and starting the pac...">
<polygon fill="white" stroke="black" points="264.5,-266.5 264.5,-285.5 353.5,-285.5 353.5,-266.5 264.5,-266.5"/>
<text text-anchor="middle" x="309" y="-273.5" font-family="Helvetica,sans-Serif" font-size="10.00">pkgAcqDiffIndex</text>
</a>
</g>
</g>
<!-- Node1&#45;&gt;Node4 -->
<g id="edge3" class="edge"><title>Node1&#45;&gt;Node4</title>
<path fill="none" stroke="midnightblue" d="M177.92,-180.116C191.692,-201.478 217.32,-236.648 248,-257 253.827,-260.866 260.491,-263.986 267.209,-266.492"/>
<polygon fill="midnightblue" stroke="midnightblue" points="180.88,-178.249 172.606,-171.631 174.948,-181.964 180.88,-178.249"/>
</g>
<!-- Node5 -->
<g id="node5" class="node"><title>Node5</title>
<g id="a_node5"><a xlink:href="classpkgAcqFile.xhtml" target="_top" xlink:title="Retrieve an arbitrary file to the current directory. {{{. ">
<polygon fill="white" stroke="black" points="276.5,-228.5 276.5,-247.5 341.5,-247.5 341.5,-228.5 276.5,-228.5"/>
<text text-anchor="middle" x="309" y="-235.5" font-family="Helvetica,sans-Serif" font-size="10.00">pkgAcqFile</text>
</a>
</g>
</g>
<!-- Node1&#45;&gt;Node5 -->
<g id="edge4" class="edge"><title>Node1&#45;&gt;Node5</title>
<path fill="none" stroke="midnightblue" d="M186.29,-178.146C202.063,-190.694 225.379,-207.794 248,-219 256.91,-223.414 267.067,-227.09 276.458,-229.996"/>
<polygon fill="midnightblue" stroke="midnightblue" points="188.327,-175.292 178.356,-171.71 183.917,-180.728 188.327,-175.292"/>
</g>
<!-- Node6 -->
<g id="node6" class="node"><title>Node6</title>
<g id="a_node6"><a xlink:href="classpkgAcqIndex.xhtml" target="_top" xlink:title="An acquire item that is responsible for fetching an index {{{ file (e.g., Packages or Sources)...">
<polygon fill="white" stroke="black" points="272,-190.5 272,-209.5 346,-209.5 346,-190.5 272,-190.5"/>
<text text-anchor="middle" x="309" y="-197.5" font-family="Helvetica,sans-Serif" font-size="10.00">pkgAcqIndex</text>
</a>
</g>
</g>
<!-- Node1&#45;&gt;Node6 -->
<g id="edge5" class="edge"><title>Node1&#45;&gt;Node6</title>
<path fill="none" stroke="midnightblue" d="M212.44,-174.246C231.875,-179.484 254.231,-185.509 272.431,-190.414"/>
<polygon fill="midnightblue" stroke="midnightblue" points="213.147,-170.812 202.58,-171.589 211.325,-177.571 213.147,-170.812"/>
</g>
<!-- Node8 -->
<g id="node8" class="node"><title>Node8</title>
<g id="a_node8"><a xlink:href="classpkgAcqIndexDiffs.xhtml" target="_top" xlink:title="An item that is responsible for fetching server&#45;merge patches {{{ that need to be applied to a given ...">
<polygon fill="white" stroke="black" points="261.5,-152.5 261.5,-171.5 356.5,-171.5 356.5,-152.5 261.5,-152.5"/>
<text text-anchor="middle" x="309" y="-159.5" font-family="Helvetica,sans-Serif" font-size="10.00">pkgAcqIndexDiffs</text>
</a>
</g>
</g>
<!-- Node1&#45;&gt;Node8 -->
<g id="edge7" class="edge"><title>Node1&#45;&gt;Node8</title>
<path fill="none" stroke="midnightblue" d="M221.853,-162C234.867,-162 248.63,-162 261.245,-162"/>
<polygon fill="midnightblue" stroke="midnightblue" points="221.613,-158.5 211.613,-162 221.613,-165.5 221.613,-158.5"/>
</g>
<!-- Node9 -->
<g id="node9" class="node"><title>Node9</title>
<g id="a_node9"><a xlink:href="classpkgAcqIndexMergeDiffs.xhtml" target="_top" xlink:title="An item that is responsible for fetching client&#45;merge patches {{{ that need to be applied to a given ...">
<polygon fill="white" stroke="black" points="248,-114.5 248,-133.5 370,-133.5 370,-114.5 248,-114.5"/>
<text text-anchor="middle" x="309" y="-121.5" font-family="Helvetica,sans-Serif" font-size="10.00">pkgAcqIndexMergeDiffs</text>
</a>
</g>
</g>
<!-- Node1&#45;&gt;Node9 -->
<g id="edge8" class="edge"><title>Node1&#45;&gt;Node9</title>
<path fill="none" stroke="midnightblue" d="M212.44,-149.754C231.875,-144.516 254.231,-138.491 272.431,-133.586"/>
<polygon fill="midnightblue" stroke="midnightblue" points="211.325,-146.429 202.58,-152.411 213.147,-153.188 211.325,-146.429"/>
</g>
<!-- Node10 -->
<g id="node10" class="node"><title>Node10</title>
<g id="a_node10"><a xlink:href="classpkgAcqMetaIndex.xhtml" target="_top" xlink:title="An item that is responsible for downloading the meta&#45;index {{{ file (i.e., Release) itself and verify...">
<polygon fill="white" stroke="black" points="261.5,-76.5 261.5,-95.5 356.5,-95.5 356.5,-76.5 261.5,-76.5"/>
<text text-anchor="middle" x="309" y="-83.5" font-family="Helvetica,sans-Serif" font-size="10.00">pkgAcqMetaIndex</text>
</a>
</g>
</g>
<!-- Node1&#45;&gt;Node10 -->
<g id="edge9" class="edge"><title>Node1&#45;&gt;Node10</title>
<path fill="none" stroke="midnightblue" d="M186.29,-145.854C202.063,-133.306 225.379,-116.206 248,-105 255.441,-101.314 263.752,-98.1418 271.761,-95.5034"/>
<polygon fill="midnightblue" stroke="midnightblue" points="183.917,-143.272 178.356,-152.29 188.327,-148.708 183.917,-143.272"/>
</g>
<!-- Node12 -->
<g id="node12" class="node"><title>Node12</title>
<g id="a_node12"><a xlink:href="classpkgAcqMetaSig.xhtml" target="_top" xlink:title="An acquire item that downloads the detached signature {{{ of a meta&#45;index (Release) file...">
<polygon fill="white" stroke="black" points="266,-38.5 266,-57.5 352,-57.5 352,-38.5 266,-38.5"/>
<text text-anchor="middle" x="309" y="-45.5" font-family="Helvetica,sans-Serif" font-size="10.00">pkgAcqMetaSig</text>
</a>
</g>
</g>
<!-- Node1&#45;&gt;Node12 -->
<g id="edge11" class="edge"><title>Node1&#45;&gt;Node12</title>
<path fill="none" stroke="midnightblue" d="M177.92,-143.884C191.692,-122.522 217.32,-87.3524 248,-67 253.827,-63.1343 260.491,-60.0139 267.209,-57.5078"/>
<polygon fill="midnightblue" stroke="midnightblue" points="174.948,-142.036 172.606,-152.369 180.88,-145.751 174.948,-142.036"/>
</g>
<!-- Node13 -->
<g id="node13" class="node"><title>Node13</title>
<g id="a_node13"><a xlink:href="classpkgAcqSubIndex.xhtml" target="_top" xlink:title="An item that is responsible for fetching a SubIndex {{{. ">
<polygon fill="white" stroke="black" points="263.5,-0.5 263.5,-19.5 354.5,-19.5 354.5,-0.5 263.5,-0.5"/>
<text text-anchor="middle" x="309" y="-7.5" font-family="Helvetica,sans-Serif" font-size="10.00">pkgAcqSubIndex</text>
</a>
</g>
</g>
<!-- Node1&#45;&gt;Node13 -->
<g id="edge12" class="edge"><title>Node1&#45;&gt;Node13</title>
<path fill="none" stroke="midnightblue" d="M173.728,-142.592C184.739,-113.647 209.334,-59.3335 248,-29 252.9,-25.1558 258.593,-22.0815 264.482,-19.6249"/>
<polygon fill="midnightblue" stroke="midnightblue" points="170.311,-141.747 170.171,-152.341 176.887,-144.146 170.311,-141.747"/>
</g>
<!-- Node2 -->
<g id="node2" class="node"><title>Node2</title>
<g id="a_node2"><a xlink:href="classWeakPointable.xhtml" target="_top" xlink:title="WeakPointable">
<polygon fill="white" stroke="black" points="0.5,-152.5 0.5,-171.5 83.5,-171.5 83.5,-152.5 0.5,-152.5"/>
<text text-anchor="middle" x="42" y="-159.5" font-family="Helvetica,sans-Serif" font-size="10.00">WeakPointable</text>
</a>
</g>
</g>
<!-- Node2&#45;&gt;Node1 -->
<g id="edge1" class="edge"><title>Node2&#45;&gt;Node1</title>
<path fill="none" stroke="midnightblue" d="M93.7929,-162C102.609,-162 111.717,-162 120.354,-162"/>
<polygon fill="midnightblue" stroke="midnightblue" points="93.6243,-158.5 83.6242,-162 93.6242,-165.5 93.6243,-158.5"/>
</g>
<!-- Node7 -->
<g id="node7" class="node"><title>Node7</title>
<g id="a_node7"><a xlink:href="classpkgAcqIndexTrans.xhtml" target="_top" xlink:title="An acquire item that is responsible for fetching a {{{ translated index file. ">
<polygon fill="white" stroke="black" points="412,-190.5 412,-209.5 510,-209.5 510,-190.5 412,-190.5"/>
<text text-anchor="middle" x="461" y="-197.5" font-family="Helvetica,sans-Serif" font-size="10.00">pkgAcqIndexTrans</text>
</a>
</g>
</g>
<!-- Node6&#45;&gt;Node7 -->
<g id="edge6" class="edge"><title>Node6&#45;&gt;Node7</title>
<path fill="none" stroke="midnightblue" d="M356.357,-200C373.968,-200 394.058,-200 411.833,-200"/>
<polygon fill="midnightblue" stroke="midnightblue" points="356.311,-196.5 346.311,-200 356.311,-203.5 356.311,-196.5"/>
</g>
<!-- Node11 -->
<g id="node11" class="node"><title>Node11</title>
<g id="a_node11"><a xlink:href="classpkgAcqMetaClearSig.xhtml" target="_top" xlink:title="An item repsonsible for downloading clearsigned metaindexes {{{. ">
<polygon fill="white" stroke="black" points="406.5,-76.5 406.5,-95.5 515.5,-95.5 515.5,-76.5 406.5,-76.5"/>
<text text-anchor="middle" x="461" y="-83.5" font-family="Helvetica,sans-Serif" font-size="10.00">pkgAcqMetaClearSig</text>
</a>
</g>
</g>
<!-- Node10&#45;&gt;Node11 -->
<g id="edge10" class="edge"><title>Node10&#45;&gt;Node11</title>
<path fill="none" stroke="midnightblue" d="M366.827,-86C379.776,-86 393.495,-86 406.308,-86"/>
<polygon fill="midnightblue" stroke="midnightblue" points="366.639,-82.5001 356.639,-86 366.639,-89.5001 366.639,-82.5001"/>
</g>
</g>
</svg>
