<?xml version="1.0" encoding="UTF-8" standalone="no"?>
<!DOCTYPE svg PUBLIC "-//W3C//DTD SVG 1.1//EN"
 "http://www.w3.org/Graphics/SVG/1.1/DTD/svg11.dtd">
<!-- Generated by graphviz version 2.36.0 (20140111.2315)
 -->
<!-- Title: Hashes Pages: 1 -->
<svg width="353pt" height="230pt"
 viewBox="0.00 0.00 353.00 230.00" xmlns="http://www.w3.org/2000/svg" xmlns:xlink="http://www.w3.org/1999/xlink">
<g id="graph0" class="graph" transform="scale(1 1) rotate(0) translate(4 226)">
<title>Hashes</title>
<polygon fill="white" stroke="none" points="-4,4 -4,-226 349,-226 349,4 -4,4"/>
<!-- Node1 -->
<g id="node1" class="node"><title>Node1</title>
<polygon fill="#bfbfbf" stroke="black" points="158,-0.5 158,-19.5 208,-19.5 208,-0.5 158,-0.5"/>
<text text-anchor="middle" x="183" y="-7.5" font-family="Helvetica,sans-Serif" font-size="10.00">Hashes</text>
</g>
<!-- Node2 -->
<g id="node2" class="node"><title>Node2</title>
<g id="a_node2"><a xlink:href="classSHA1Summation.xhtml" target="_top" xlink:title="SHA1Summation">
<polygon fill="white" stroke="black" points="0,-106.5 0,-125.5 92,-125.5 92,-106.5 0,-106.5"/>
<text text-anchor="middle" x="46" y="-113.5" font-family="Helvetica,sans-Serif" font-size="10.00">SHA1Summation</text>
</a>
</g>
</g>
<!-- Node2&#45;&gt;Node1 -->
<g id="edge1" class="edge"><title>Node2&#45;&gt;Node1</title>
<path fill="none" stroke="#9a32cd" stroke-dasharray="5,2" d="M37.6083,-96.7052C34.6684,-87.3998 33.3396,-76.3283 39,-68 65.7515,-28.6399 124.349,-16.459 157.967,-12.6894"/>
<polygon fill="#9a32cd" stroke="#9a32cd" points="34.4266,-98.1795 41.3255,-106.22 40.9468,-95.6324 34.4266,-98.1795"/>
<text text-anchor="middle" x="54" y="-75.5" font-family="Helvetica,sans-Serif" font-size="10.00"> SHA1</text>
</g>
<!-- Node3 -->
<g id="node3" class="node"><title>Node3</title>
<g id="a_node3"><a xlink:href="classSummationImplementation.xhtml" target="_top" xlink:title="SummationImplementation">
<polygon fill="white" stroke="black" points="84.5,-202.5 84.5,-221.5 217.5,-221.5 217.5,-202.5 84.5,-202.5"/>
<text text-anchor="middle" x="151" y="-209.5" font-family="Helvetica,sans-Serif" font-size="10.00">SummationImplementation</text>
</a>
</g>
</g>
<!-- Node3&#45;&gt;Node2 -->
<g id="edge2" class="edge"><title>Node3&#45;&gt;Node2</title>
<path fill="none" stroke="midnightblue" d="M127.586,-196.887C114.139,-188.233 97.3299,-176.451 84,-164 71.1173,-151.967 58.7779,-135.486 51.8168,-125.577"/>
<polygon fill="midnightblue" stroke="midnightblue" points="125.945,-199.989 136.274,-202.347 129.67,-194.063 125.945,-199.989"/>
</g>
<!-- Node5 -->
<g id="node5" class="node"><title>Node5</title>
<g id="a_node5"><a xlink:href="classSHA2SummationBase.xhtml" target="_top" xlink:title="SHA2SummationBase">
<polygon fill="white" stroke="black" points="93.5,-144.5 93.5,-163.5 208.5,-163.5 208.5,-144.5 93.5,-144.5"/>
<text text-anchor="middle" x="151" y="-151.5" font-family="Helvetica,sans-Serif" font-size="10.00">SHA2SummationBase</text>
</a>
</g>
</g>
<!-- Node3&#45;&gt;Node5 -->
<g id="edge5" class="edge"><title>Node3&#45;&gt;Node5</title>
<path fill="none" stroke="midnightblue" d="M151,-191.953C151,-182.287 151,-171.031 151,-163.505"/>
<polygon fill="midnightblue" stroke="midnightblue" points="147.5,-192.25 151,-202.25 154.5,-192.25 147.5,-192.25"/>
</g>
<!-- Node7 -->
<g id="node7" class="node"><title>Node7</title>
<g id="a_node7"><a xlink:href="classMD5Summation.xhtml" target="_top" xlink:title="MD5Summation">
<polygon fill="white" stroke="black" points="258.5,-106.5 258.5,-125.5 345.5,-125.5 345.5,-106.5 258.5,-106.5"/>
<text text-anchor="middle" x="302" y="-113.5" font-family="Helvetica,sans-Serif" font-size="10.00">MD5Summation</text>
</a>
</g>
</g>
<!-- Node3&#45;&gt;Node7 -->
<g id="edge9" class="edge"><title>Node3&#45;&gt;Node7</title>
<path fill="none" stroke="midnightblue" d="M173.226,-197.164C204.814,-177.5 261.77,-142.044 288.036,-125.693"/>
<polygon fill="midnightblue" stroke="midnightblue" points="171.306,-194.236 164.667,-202.492 175.006,-200.179 171.306,-194.236"/>
</g>
<!-- Node4 -->
<g id="node4" class="node"><title>Node4</title>
<g id="a_node4"><a xlink:href="classSHA256Summation.xhtml" target="_top" xlink:title="SHA256Summation">
<polygon fill="white" stroke="black" points="78.5,-68.5 78.5,-87.5 181.5,-87.5 181.5,-68.5 78.5,-68.5"/>
<text text-anchor="middle" x="130" y="-75.5" font-family="Helvetica,sans-Serif" font-size="10.00">SHA256Summation</text>
</a>
</g>
</g>
<!-- Node4&#45;&gt;Node1 -->
<g id="edge3" class="edge"><title>Node4&#45;&gt;Node1</title>
<path fill="none" stroke="#9a32cd" stroke-dasharray="5,2" d="M142.625,-60.2102C147.915,-53.2734 154.179,-45.1886 160,-38 164.96,-31.8744 170.71,-25.1244 175.22,-19.9058"/>
<polygon fill="#9a32cd" stroke="#9a32cd" points="139.799,-58.1444 136.55,-68.2289 145.378,-62.3714 139.799,-58.1444"/>
<text text-anchor="middle" x="180" y="-41.5" font-family="Helvetica,sans-Serif" font-size="10.00"> SHA256</text>
</g>
<!-- Node5&#45;&gt;Node4 -->
<g id="edge4" class="edge"><title>Node5&#45;&gt;Node4</title>
<path fill="none" stroke="midnightblue" d="M145.752,-134.509C141.514,-119.575 135.739,-99.2223 132.488,-87.7679"/>
<polygon fill="midnightblue" stroke="midnightblue" points="142.411,-135.556 148.509,-144.221 149.145,-133.645 142.411,-135.556"/>
</g>
<!-- Node6 -->
<g id="node6" class="node"><title>Node6</title>
<g id="a_node6"><a xlink:href="classSHA512Summation.xhtml" target="_top" xlink:title="SHA512Summation">
<polygon fill="white" stroke="black" points="199.5,-68.5 199.5,-87.5 302.5,-87.5 302.5,-68.5 199.5,-68.5"/>
<text text-anchor="middle" x="251" y="-75.5" font-family="Helvetica,sans-Serif" font-size="10.00">SHA512Summation</text>
</a>
</g>
</g>
<!-- Node5&#45;&gt;Node6 -->
<g id="edge7" class="edge"><title>Node5&#45;&gt;Node6</title>
<path fill="none" stroke="midnightblue" d="M170.926,-138.255C191.444,-123.071 222.715,-99.9311 239.46,-87.5395"/>
<polygon fill="midnightblue" stroke="midnightblue" points="168.82,-135.459 162.864,-144.221 172.984,-141.086 168.82,-135.459"/>
</g>
<!-- Node6&#45;&gt;Node1 -->
<g id="edge6" class="edge"><title>Node6&#45;&gt;Node1</title>
<path fill="none" stroke="#9a32cd" stroke-dasharray="5,2" d="M234.564,-61.0474C221.236,-48.1111 202.943,-30.3567 192.109,-19.8411"/>
<polygon fill="#9a32cd" stroke="#9a32cd" points="232.497,-63.9184 242.11,-68.3717 237.372,-58.8953 232.497,-63.9184"/>
<text text-anchor="middle" x="244" y="-41.5" font-family="Helvetica,sans-Serif" font-size="10.00"> SHA512</text>
</g>
<!-- Node7&#45;&gt;Node1 -->
<g id="edge8" class="edge"><title>Node7&#45;&gt;Node1</title>
<path fill="none" stroke="#9a32cd" stroke-dasharray="5,2" d="M310.778,-96.9217C313.904,-87.8293 315.634,-76.8841 311,-68 291.48,-30.5797 239.625,-17.7 208.23,-13.2849"/>
<polygon fill="#9a32cd" stroke="#9a32cd" points="307.531,-95.614 306.92,-106.191 313.994,-98.3038 307.531,-95.614"/>
<text text-anchor="middle" x="326.5" y="-75.5" font-family="Helvetica,sans-Serif" font-size="10.00"> MD5</text>
</g>
</g>
</svg>
