<?xml version="1.0" encoding="UTF-8" standalone="no"?>
<!DOCTYPE svg PUBLIC "-//W3C//DTD SVG 1.1//EN"
 "http://www.w3.org/Graphics/SVG/1.1/DTD/svg11.dtd">
<!-- Generated by graphviz version 2.36.0 (20140111.2315)
 -->
<!-- Title: debListParser Pages: 1 -->
<svg width="435pt" height="222pt"
 viewBox="0.00 0.00 435.00 222.00" xmlns="http://www.w3.org/2000/svg" xmlns:xlink="http://www.w3.org/1999/xlink">
<g id="graph0" class="graph" transform="scale(1 1) rotate(0) translate(4 218)">
<title>debListParser</title>
<polygon fill="white" stroke="none" points="-4,4 -4,-218 431,-218 431,4 -4,4"/>
<!-- Node1 -->
<g id="node1" class="node"><title>Node1</title>
<polygon fill="#bfbfbf" stroke="black" points="158.5,-0.5 158.5,-19.5 235.5,-19.5 235.5,-0.5 158.5,-0.5"/>
<text text-anchor="middle" x="197" y="-7.5" font-family="Helvetica,sans-Serif" font-size="10.00">debListParser</text>
</g>
<!-- Node2 -->
<g id="node2" class="node"><title>Node2</title>
<g id="a_node2"><a xlink:href="classpkgCacheGenerator_1_1ListParser.xhtml" target="_top" xlink:title="ListParser">
<polygon fill="white" stroke="black" points="-0.5,-68.5 -0.5,-87.5 60.5,-87.5 60.5,-68.5 -0.5,-68.5"/>
<text text-anchor="middle" x="30" y="-75.5" font-family="Helvetica,sans-Serif" font-size="10.00">ListParser</text>
</a>
</g>
</g>
<!-- Node2&#45;&gt;Node1 -->
<g id="edge1" class="edge"><title>Node2&#45;&gt;Node1</title>
<path fill="none" stroke="midnightblue" d="M61.5374,-64.5361C94.8502,-51.3706 146.477,-30.9673 175.427,-19.5259"/>
<polygon fill="midnightblue" stroke="midnightblue" points="59.846,-61.4411 51.8323,-68.3717 62.4188,-67.9511 59.846,-61.4411"/>
</g>
<!-- Node3 -->
<g id="node3" class="node"><title>Node3</title>
<g id="a_node3"><a xlink:href="classpkgTagSection.xhtml" target="_top" xlink:title="pkgTagSection">
<polygon fill="white" stroke="black" points="79,-68.5 79,-87.5 161,-87.5 161,-68.5 79,-68.5"/>
<text text-anchor="middle" x="120" y="-75.5" font-family="Helvetica,sans-Serif" font-size="10.00">pkgTagSection</text>
</a>
</g>
</g>
<!-- Node3&#45;&gt;Node1 -->
<g id="edge2" class="edge"><title>Node3&#45;&gt;Node1</title>
<path fill="none" stroke="#9a32cd" stroke-dasharray="5,2" d="M129.244,-59.27C133.624,-52.0462 139.359,-44.0016 146,-38 154.548,-30.2753 165.708,-24.0423 175.408,-19.5195"/>
<polygon fill="#9a32cd" stroke="#9a32cd" points="125.994,-57.9096 124.151,-68.343 132.098,-61.3358 125.994,-57.9096"/>
<text text-anchor="middle" x="164.5" y="-41.5" font-family="Helvetica,sans-Serif" font-size="10.00"> Section</text>
</g>
<!-- Node4 -->
<g id="node4" class="node"><title>Node4</title>
<g id="a_node4"><a xlink:title="STL class. ">
<polygon fill="white" stroke="#bfbfbf" points="208.5,-136.5 208.5,-155.5 249.5,-155.5 249.5,-136.5 208.5,-136.5"/>
<text text-anchor="middle" x="229" y="-143.5" font-family="Helvetica,sans-Serif" font-size="10.00">string</text>
</a>
</g>
</g>
<!-- Node4&#45;&gt;Node1 -->
<g id="edge3" class="edge"><title>Node4&#45;&gt;Node1</title>
<path fill="none" stroke="#9a32cd" stroke-dasharray="5,2" d="M220.302,-127.024C215.34,-116.007 209.44,-101.477 206,-88 199.808,-63.744 197.863,-34.0872 197.262,-19.6823"/>
<polygon fill="#9a32cd" stroke="#9a32cd" points="217.26,-128.781 224.662,-136.361 223.603,-125.819 217.26,-128.781"/>
<text text-anchor="middle" x="218" y="-75.5" font-family="Helvetica,sans-Serif" font-size="10.00"> Arch</text>
</g>
<!-- Node7 -->
<g id="node7" class="node"><title>Node7</title>
<polygon fill="white" stroke="#bfbfbf" points="239.5,-68.5 239.5,-87.5 344.5,-87.5 344.5,-68.5 239.5,-68.5"/>
<text text-anchor="middle" x="292" y="-75.5" font-family="Helvetica,sans-Serif" font-size="10.00">vector&lt; std::string &gt;</text>
</g>
<!-- Node4&#45;&gt;Node7 -->
<g id="edge7" class="edge"><title>Node4&#45;&gt;Node7</title>
<path fill="none" stroke="#9a32cd" stroke-dasharray="5,2" d="M244.227,-129.047C256.576,-116.111 273.523,-98.3567 283.561,-87.8411"/>
<polygon fill="#9a32cd" stroke="#9a32cd" points="241.609,-126.721 237.236,-136.372 246.673,-131.555 241.609,-126.721"/>
<text text-anchor="middle" x="288.5" y="-109.5" font-family="Helvetica,sans-Serif" font-size="10.00"> elements</text>
</g>
<!-- Node5 -->
<g id="node5" class="node"><title>Node5</title>
<g id="a_node5"><a xlink:title="STL class. ">
<polygon fill="white" stroke="#bfbfbf" points="176,-194.5 176,-213.5 282,-213.5 282,-194.5 176,-194.5"/>
<text text-anchor="middle" x="229" y="-201.5" font-family="Helvetica,sans-Serif" font-size="10.00">basic_string&lt; char &gt;</text>
</a>
</g>
</g>
<!-- Node5&#45;&gt;Node4 -->
<g id="edge4" class="edge"><title>Node5&#45;&gt;Node4</title>
<path fill="none" stroke="midnightblue" d="M229,-183.953C229,-174.287 229,-163.031 229,-155.505"/>
<polygon fill="midnightblue" stroke="midnightblue" points="225.5,-184.25 229,-194.25 232.5,-184.25 225.5,-184.25"/>
</g>
<!-- Node6 -->
<g id="node6" class="node"><title>Node6</title>
<g id="a_node6"><a xlink:href="classpkgTagFile.xhtml" target="_top" xlink:title="pkgTagFile">
<polygon fill="white" stroke="black" points="362.5,-68.5 362.5,-87.5 427.5,-87.5 427.5,-68.5 362.5,-68.5"/>
<text text-anchor="middle" x="395" y="-75.5" font-family="Helvetica,sans-Serif" font-size="10.00">pkgTagFile</text>
</a>
</g>
</g>
<!-- Node6&#45;&gt;Node1 -->
<g id="edge5" class="edge"><title>Node6&#45;&gt;Node1</title>
<path fill="none" stroke="#9a32cd" stroke-dasharray="5,2" d="M372.04,-63.2536C357.312,-54.9369 337.54,-44.683 319,-38 291.858,-28.2164 259.989,-21.3109 235.63,-16.9337"/>
<polygon fill="#9a32cd" stroke="#9a32cd" points="370.516,-66.4151 380.926,-68.3821 374.015,-60.3522 370.516,-66.4151"/>
<text text-anchor="middle" x="357.5" y="-41.5" font-family="Helvetica,sans-Serif" font-size="10.00"> Tags</text>
</g>
<!-- Node7&#45;&gt;Node1 -->
<g id="edge6" class="edge"><title>Node7&#45;&gt;Node1</title>
<path fill="none" stroke="#9a32cd" stroke-dasharray="5,2" d="M271.321,-62.6336C252.438,-49.5145 225.142,-30.551 209.423,-19.6305"/>
<polygon fill="#9a32cd" stroke="#9a32cd" points="269.371,-65.5404 279.58,-68.3717 273.365,-59.7916 269.371,-65.5404"/>
<text text-anchor="middle" x="284.5" y="-41.5" font-family="Helvetica,sans-Serif" font-size="10.00"> Architectures</text>
</g>
</g>
</svg>
