<?xml version="1.0" encoding="UTF-8" standalone="no"?>
<!DOCTYPE svg PUBLIC "-//W3C//DTD SVG 1.1//EN"
 "http://www.w3.org/Graphics/SVG/1.1/DTD/svg11.dtd">
<!-- Generated by graphviz version 2.36.0 (20140111.2315)
 -->
<!-- Title: pkgAcqFile Pages: 1 -->
<svg width="743pt" height="564pt"
 viewBox="0.00 0.00 743.00 564.00" xmlns="http://www.w3.org/2000/svg" xmlns:xlink="http://www.w3.org/1999/xlink">
<g id="graph0" class="graph" transform="scale(1 1) rotate(0) translate(4 560)">
<title>pkgAcqFile</title>
<polygon fill="white" stroke="none" points="-4,4 -4,-560 739,-560 739,4 -4,4"/>
<!-- Node1 -->
<g id="node1" class="node"><title>Node1</title>
<polygon fill="#bfbfbf" stroke="black" points="113.5,-297.5 113.5,-316.5 178.5,-316.5 178.5,-297.5 113.5,-297.5"/>
<text text-anchor="middle" x="146" y="-304.5" font-family="Helvetica,sans-Serif" font-size="10.00">pkgAcqFile</text>
</g>
<!-- Node2 -->
<g id="node2" class="node"><title>Node2</title>
<g id="a_node2"><a xlink:href="classpkgAcquire_1_1Item.xhtml" target="_top" xlink:title="Represents the process by which a pkgAcquire object should {{{ retrieve a file or a collection of fil...">
<polygon fill="white" stroke="black" points="125,-381.5 125,-400.5 161,-400.5 161,-381.5 125,-381.5"/>
<text text-anchor="middle" x="143" y="-388.5" font-family="Helvetica,sans-Serif" font-size="10.00">Item</text>
</a>
</g>
</g>
<!-- Node2&#45;&gt;Node1 -->
<g id="edge1" class="edge"><title>Node2&#45;&gt;Node1</title>
<path fill="none" stroke="midnightblue" d="M143.704,-370.759C144.329,-353.676 145.213,-329.498 145.681,-316.712"/>
<polygon fill="midnightblue" stroke="midnightblue" points="140.189,-371.103 143.321,-381.225 147.184,-371.359 140.189,-371.103"/>
</g>
<!-- Node7 -->
<g id="node7" class="node"><title>Node7</title>
<g id="a_node7"><a xlink:href="structpkgAcquire_1_1ItemDesc.xhtml" target="_top" xlink:title="Represents a single download source from which an item should be downloaded. ">
<polygon fill="white" stroke="black" points="196.5,-297.5 196.5,-316.5 255.5,-316.5 255.5,-297.5 196.5,-297.5"/>
<text text-anchor="middle" x="226" y="-304.5" font-family="Helvetica,sans-Serif" font-size="10.00">ItemDesc</text>
</a>
</g>
</g>
<!-- Node2&#45;&gt;Node7 -->
<g id="edge11" class="edge"><title>Node2&#45;&gt;Node7</title>
<path fill="none" stroke="#9a32cd" stroke-dasharray="5,2" d="M151.221,-372.43C157.189,-361.039 166.111,-346.433 177,-336 185.348,-328.001 196.411,-321.428 205.912,-316.664"/>
<polygon fill="#9a32cd" stroke="#9a32cd" points="148.066,-370.913 146.761,-381.428 154.338,-374.022 148.066,-370.913"/>
<text text-anchor="middle" x="193" y="-343.5" font-family="Helvetica,sans-Serif" font-size="10.00"> Owner</text>
</g>
<!-- Node14 -->
<g id="node14" class="node"><title>Node14</title>
<polygon fill="white" stroke="#bfbfbf" points="62.5,-246 62.5,-276 163.5,-276 163.5,-246 62.5,-246"/>
<text text-anchor="start" x="70.5" y="-264" font-family="Helvetica,sans-Serif" font-size="10.00">vector&lt; pkgAcquire</text>
<text text-anchor="middle" x="113" y="-253" font-family="Helvetica,sans-Serif" font-size="10.00">::Item * &gt;</text>
</g>
<!-- Node2&#45;&gt;Node14 -->
<g id="edge30" class="edge"><title>Node2&#45;&gt;Node14</title>
<path fill="none" stroke="#9a32cd" stroke-dasharray="5,2" d="M116.201,-375.946C108.955,-370.724 102.014,-364.064 98,-356 85.0387,-329.962 96.989,-295.297 105.724,-276.173"/>
<polygon fill="#9a32cd" stroke="#9a32cd" points="114.387,-378.941 124.689,-381.415 118.178,-373.057 114.387,-378.941"/>
<text text-anchor="middle" x="119.5" y="-343.5" font-family="Helvetica,sans-Serif" font-size="10.00"> elements</text>
</g>
<!-- Node3 -->
<g id="node3" class="node"><title>Node3</title>
<g id="a_node3"><a xlink:href="classWeakPointable.xhtml" target="_top" xlink:title="WeakPointable">
<polygon fill="white" stroke="black" points="101.5,-478.5 101.5,-497.5 184.5,-497.5 184.5,-478.5 101.5,-478.5"/>
<text text-anchor="middle" x="143" y="-485.5" font-family="Helvetica,sans-Serif" font-size="10.00">WeakPointable</text>
</a>
</g>
</g>
<!-- Node3&#45;&gt;Node2 -->
<g id="edge2" class="edge"><title>Node3&#45;&gt;Node2</title>
<path fill="none" stroke="midnightblue" d="M143,-468.227C143,-447.793 143,-416.001 143,-400.746"/>
<polygon fill="midnightblue" stroke="midnightblue" points="139.5,-468.233 143,-478.233 146.5,-468.233 139.5,-468.233"/>
</g>
<!-- Node3&#45;&gt;Node7 -->
<g id="edge8" class="edge"><title>Node3&#45;&gt;Node7</title>
<path fill="none" stroke="midnightblue" d="M152.814,-469.352C166.413,-444.51 191.309,-397.608 209,-356 214.742,-342.495 220.185,-326.321 223.303,-316.619"/>
<polygon fill="midnightblue" stroke="midnightblue" points="149.648,-467.845 147.884,-478.292 155.778,-471.225 149.648,-467.845"/>
</g>
<!-- Node10 -->
<g id="node10" class="node"><title>Node10</title>
<g id="a_node10"><a xlink:href="classpkgAcquire_1_1Worker.xhtml" target="_top" xlink:title="A fetch subprocess. ">
<polygon fill="white" stroke="black" points="327,-69.5 327,-88.5 375,-88.5 375,-69.5 327,-69.5"/>
<text text-anchor="middle" x="351" y="-76.5" font-family="Helvetica,sans-Serif" font-size="10.00">Worker</text>
</a>
</g>
</g>
<!-- Node3&#45;&gt;Node10 -->
<g id="edge14" class="edge"><title>Node3&#45;&gt;Node10</title>
<path fill="none" stroke="midnightblue" d="M114.465,-473.774C86.1661,-458.461 47,-430.341 47,-392 47,-392 47,-392 47,-147 47,-89.7805 254.989,-81.3793 326.892,-80.1846"/>
<polygon fill="midnightblue" stroke="midnightblue" points="113.081,-476.999 123.573,-478.473 116.29,-470.778 113.081,-476.999"/>
</g>
<!-- Node4 -->
<g id="node4" class="node"><title>Node4</title>
<g id="a_node4"><a xlink:href="classpkgAcquire.xhtml" target="_top" xlink:title="The core download scheduler. {{{. ">
<polygon fill="white" stroke="black" points="466.5,-0.5 466.5,-19.5 531.5,-19.5 531.5,-0.5 466.5,-0.5"/>
<text text-anchor="middle" x="499" y="-7.5" font-family="Helvetica,sans-Serif" font-size="10.00">pkgAcquire</text>
</a>
</g>
</g>
<!-- Node4&#45;&gt;Node2 -->
<g id="edge3" class="edge"><title>Node4&#45;&gt;Node2</title>
<path fill="none" stroke="#9a32cd" stroke-dasharray="5,2" d="M456.253,-12.2743C335.409,-16.4407 0,-32.1357 0,-78 0,-308 0,-308 0,-308 0,-364.951 86.4097,-382.91 124.889,-388.085"/>
<polygon fill="#9a32cd" stroke="#9a32cd" points="456.382,-15.7721 466.259,-11.9389 456.148,-8.776 456.382,-15.7721"/>
<text text-anchor="middle" x="16" y="-179.5" font-family="Helvetica,sans-Serif" font-size="10.00"> Owner</text>
</g>
<!-- Node5 -->
<g id="node5" class="node"><title>Node5</title>
<g id="a_node5"><a xlink:href="classpkgAcquire_1_1Queue.xhtml" target="_top" xlink:title="A single download queue in a pkgAcquire object. {{{. ">
<polygon fill="white" stroke="black" points="489.5,-138.5 489.5,-157.5 534.5,-157.5 534.5,-138.5 489.5,-138.5"/>
<text text-anchor="middle" x="512" y="-145.5" font-family="Helvetica,sans-Serif" font-size="10.00">Queue</text>
</a>
</g>
</g>
<!-- Node4&#45;&gt;Node5 -->
<g id="edge5" class="edge"><title>Node4&#45;&gt;Node5</title>
<path fill="none" stroke="#9a32cd" stroke-dasharray="5,2" d="M528.559,-24.2638C545.814,-33.749 566.085,-48.3244 576,-68 590.536,-96.8462 551.586,-124.82 528.19,-138.429"/>
<polygon fill="#9a32cd" stroke="#9a32cd" points="529.859,-20.9962 519.368,-19.5179 526.647,-27.216 529.859,-20.9962"/>
<text text-anchor="middle" x="595" y="-76.5" font-family="Helvetica,sans-Serif" font-size="10.00"> Owner</text>
</g>
<!-- Node5&#45;&gt;Node4 -->
<g id="edge4" class="edge"><title>Node5&#45;&gt;Node4</title>
<path fill="none" stroke="#9a32cd" stroke-dasharray="5,2" d="M532.444,-131.294C535.521,-127.927 538.247,-124.125 540,-120 542.086,-115.091 540.976,-113.243 540,-108 533.575,-73.4899 513.725,-36.1825 504.202,-19.6856"/>
<polygon fill="#9a32cd" stroke="#9a32cd" points="529.844,-128.933 524.921,-138.315 534.62,-134.051 529.844,-128.933"/>
<text text-anchor="middle" x="553.5" y="-76.5" font-family="Helvetica,sans-Serif" font-size="10.00"> Queues</text>
</g>
<!-- Node5&#45;&gt;Node10 -->
<g id="edge15" class="edge"><title>Node5&#45;&gt;Node10</title>
<path fill="none" stroke="#9a32cd" stroke-dasharray="5,2" d="M492.828,-132.368C481.458,-124.258 466.479,-114.525 452,-108 426.95,-96.711 396.312,-88.9978 375.393,-84.5698"/>
<polygon fill="#9a32cd" stroke="#9a32cd" points="490.961,-135.339 501.094,-138.432 495.101,-129.694 490.961,-135.339"/>
<text text-anchor="middle" x="493" y="-111.5" font-family="Helvetica,sans-Serif" font-size="10.00"> OwnerQ</text>
</g>
<!-- Node6 -->
<g id="node6" class="node"><title>Node6</title>
<g id="a_node6"><a xlink:href="structpkgAcquire_1_1Queue_1_1QItem.xhtml" target="_top" xlink:title="A single item placed in this queue. ">
<polygon fill="white" stroke="black" points="204,-206.5 204,-225.5 248,-225.5 248,-206.5 204,-206.5"/>
<text text-anchor="middle" x="226" y="-213.5" font-family="Helvetica,sans-Serif" font-size="10.00">QItem</text>
</a>
</g>
</g>
<!-- Node6&#45;&gt;Node5 -->
<g id="edge6" class="edge"><title>Node6&#45;&gt;Node5</title>
<path fill="none" stroke="#9a32cd" stroke-dasharray="5,2" d="M258.044,-208.383C306.345,-198.28 400.601,-178.059 480,-158 483.021,-157.237 486.192,-156.395 489.314,-155.542"/>
<polygon fill="#9a32cd" stroke="#9a32cd" points="257.254,-204.972 248.178,-210.44 258.682,-211.825 257.254,-204.972"/>
<text text-anchor="middle" x="418" y="-179.5" font-family="Helvetica,sans-Serif" font-size="10.00"> Items</text>
</g>
<!-- Node6&#45;&gt;Node6 -->
<g id="edge12" class="edge"><title>Node6&#45;&gt;Node6</title>
<path fill="none" stroke="#9a32cd" stroke-dasharray="5,2" d="M258.111,-221.591C262.259,-220.624 265,-218.76 265,-216 265,-211.352 257.224,-209.245 248.051,-209.681"/>
<polygon fill="#9a32cd" stroke="#9a32cd" points="257.772,-218.107 248.051,-222.319 258.277,-225.088 257.772,-218.107"/>
<text text-anchor="middle" x="277.5" y="-213.5" font-family="Helvetica,sans-Serif" font-size="10.00"> Next</text>
</g>
<!-- Node6&#45;&gt;Node10 -->
<g id="edge19" class="edge"><title>Node6&#45;&gt;Node10</title>
<path fill="none" stroke="#9a32cd" stroke-dasharray="5,2" d="M225.626,-196.235C226.213,-179.442 229.444,-154.929 242,-138 262.815,-109.936 301.313,-94.096 326.537,-86.2909"/>
<polygon fill="#9a32cd" stroke="#9a32cd" points="222.125,-196.417 225.56,-206.44 229.125,-196.463 222.125,-196.417"/>
<text text-anchor="middle" x="269.5" y="-145.5" font-family="Helvetica,sans-Serif" font-size="10.00"> CurrentItem</text>
</g>
<!-- Node7&#45;&gt;Node6 -->
<g id="edge7" class="edge"><title>Node7&#45;&gt;Node6</title>
<path fill="none" stroke="midnightblue" d="M226,-287.349C226,-268.383 226,-239.828 226,-225.639"/>
<polygon fill="midnightblue" stroke="midnightblue" points="222.5,-287.466 226,-297.466 229.5,-287.466 222.5,-287.466"/>
</g>
<!-- Node8 -->
<g id="node8" class="node"><title>Node8</title>
<g id="a_node8"><a xlink:title="STL class. ">
<polygon fill="white" stroke="#bfbfbf" points="339.5,-478.5 339.5,-497.5 380.5,-497.5 380.5,-478.5 339.5,-478.5"/>
<text text-anchor="middle" x="360" y="-485.5" font-family="Helvetica,sans-Serif" font-size="10.00">string</text>
</a>
</g>
</g>
<!-- Node8&#45;&gt;Node2 -->
<g id="edge32" class="edge"><title>Node8&#45;&gt;Node2</title>
<path fill="none" stroke="#9a32cd" stroke-dasharray="5,2" d="M329.146,-485.823C299.525,-483.63 254.214,-477.427 219,-460 189.168,-445.237 162.164,-415.484 149.924,-400.72"/>
<polygon fill="#9a32cd" stroke="#9a32cd" points="329.1,-489.327 339.301,-486.463 329.541,-482.341 329.1,-489.327"/>
<text text-anchor="middle" x="243.5" y="-451.5" font-family="Helvetica,sans-Serif" font-size="10.00"> DestFile</text>
<text text-anchor="middle" x="243.5" y="-440.5" font-family="Helvetica,sans-Serif" font-size="10.00">ErrorText</text>
<text text-anchor="middle" x="243.5" y="-429.5" font-family="Helvetica,sans-Serif" font-size="10.00">UsedMirror</text>
</g>
<!-- Node8&#45;&gt;Node5 -->
<g id="edge25" class="edge"><title>Node8&#45;&gt;Node5</title>
<path fill="none" stroke="#9a32cd" stroke-dasharray="5,2" d="M390.268,-480.559C431.161,-469.876 499,-444.275 499,-392 499,-392 499,-392 499,-215 499,-194.212 505.285,-170.424 509.115,-157.858"/>
<polygon fill="#9a32cd" stroke="#9a32cd" points="389.384,-477.172 380.51,-482.961 391.057,-483.969 389.384,-477.172"/>
<text text-anchor="middle" x="514" y="-304.5" font-family="Helvetica,sans-Serif" font-size="10.00"> Name</text>
</g>
<!-- Node8&#45;&gt;Node7 -->
<g id="edge9" class="edge"><title>Node8&#45;&gt;Node7</title>
<path fill="none" stroke="#9a32cd" stroke-dasharray="5,2" d="M340.05,-472.264C335.042,-468.388 329.746,-464.133 325,-460 300.114,-438.328 290.986,-434.991 272,-408 250.34,-377.209 234.776,-334.589 228.752,-316.58"/>
<polygon fill="#9a32cd" stroke="#9a32cd" points="337.974,-475.082 348.056,-478.338 342.205,-469.506 337.974,-475.082"/>
<text text-anchor="middle" x="298.5" y="-399.5" font-family="Helvetica,sans-Serif" font-size="10.00"> Description</text>
<text text-anchor="middle" x="298.5" y="-388.5" font-family="Helvetica,sans-Serif" font-size="10.00">URI</text>
<text text-anchor="middle" x="298.5" y="-377.5" font-family="Helvetica,sans-Serif" font-size="10.00">ShortDesc</text>
</g>
<!-- Node8&#45;&gt;Node10 -->
<g id="edge20" class="edge"><title>Node8&#45;&gt;Node10</title>
<path fill="none" stroke="#9a32cd" stroke-dasharray="5,2" d="M355.185,-468.52C348.846,-443.296 337.928,-396.58 333,-356 328.818,-321.561 330.667,-312.686 330,-278 329.71,-262.892 329.038,-259.08 330,-244 333.799,-184.415 345.288,-113.39 349.463,-88.8504"/>
<polygon fill="#9a32cd" stroke="#9a32cd" points="351.869,-469.677 357.738,-478.497 358.65,-467.942 351.869,-469.677"/>
<text text-anchor="middle" x="354" y="-269.5" font-family="Helvetica,sans-Serif" font-size="10.00"> OutQueue</text>
<text text-anchor="middle" x="354" y="-258.5" font-family="Helvetica,sans-Serif" font-size="10.00">Access</text>
<text text-anchor="middle" x="354" y="-247.5" font-family="Helvetica,sans-Serif" font-size="10.00">Status</text>
</g>
<!-- Node11 -->
<g id="node11" class="node"><title>Node11</title>
<g id="a_node11"><a xlink:href="structpkgAcquire_1_1MethodConfig.xhtml" target="_top" xlink:title="Information about the properties of a single acquire method. {{{. ">
<polygon fill="white" stroke="black" points="615.5,-138.5 615.5,-157.5 692.5,-157.5 692.5,-138.5 615.5,-138.5"/>
<text text-anchor="middle" x="654" y="-145.5" font-family="Helvetica,sans-Serif" font-size="10.00">MethodConfig</text>
</a>
</g>
</g>
<!-- Node8&#45;&gt;Node11 -->
<g id="edge18" class="edge"><title>Node8&#45;&gt;Node11</title>
<path fill="none" stroke="#9a32cd" stroke-dasharray="5,2" d="M390.613,-482.113C457.752,-470.529 612,-438.822 612,-392 612,-392 612,-392 612,-215 612,-191.368 631.403,-169.37 643.833,-157.703"/>
<polygon fill="#9a32cd" stroke="#9a32cd" points="389.901,-478.683 380.622,-483.798 391.065,-485.586 389.901,-478.683"/>
<text text-anchor="middle" x="630.5" y="-310" font-family="Helvetica,sans-Serif" font-size="10.00"> Access</text>
<text text-anchor="middle" x="630.5" y="-299" font-family="Helvetica,sans-Serif" font-size="10.00">Version</text>
</g>
<!-- Node13 -->
<g id="node13" class="node"><title>Node13</title>
<polygon fill="white" stroke="#bfbfbf" points="334.5,-336.5 334.5,-355.5 439.5,-355.5 439.5,-336.5 334.5,-336.5"/>
<text text-anchor="middle" x="387" y="-343.5" font-family="Helvetica,sans-Serif" font-size="10.00">vector&lt; std::string &gt;</text>
</g>
<!-- Node8&#45;&gt;Node13 -->
<g id="edge23" class="edge"><title>Node8&#45;&gt;Node13</title>
<path fill="none" stroke="#9a32cd" stroke-dasharray="5,2" d="M363.66,-468.023C369.576,-437.345 381.013,-378.045 385.312,-355.754"/>
<polygon fill="#9a32cd" stroke="#9a32cd" points="360.146,-467.76 361.689,-478.242 367.019,-469.086 360.146,-467.76"/>
<text text-anchor="middle" x="393.5" y="-440.5" font-family="Helvetica,sans-Serif" font-size="10.00"> elements</text>
</g>
<!-- Node9 -->
<g id="node9" class="node"><title>Node9</title>
<g id="a_node9"><a xlink:title="STL class. ">
<polygon fill="white" stroke="#bfbfbf" points="307,-536.5 307,-555.5 413,-555.5 413,-536.5 307,-536.5"/>
<text text-anchor="middle" x="360" y="-543.5" font-family="Helvetica,sans-Serif" font-size="10.00">basic_string&lt; char &gt;</text>
</a>
</g>
</g>
<!-- Node9&#45;&gt;Node8 -->
<g id="edge10" class="edge"><title>Node9&#45;&gt;Node8</title>
<path fill="none" stroke="midnightblue" d="M360,-525.953C360,-516.287 360,-505.031 360,-497.505"/>
<polygon fill="midnightblue" stroke="midnightblue" points="356.5,-526.25 360,-536.25 363.5,-526.25 356.5,-526.25"/>
</g>
<!-- Node10&#45;&gt;Node4 -->
<g id="edge31" class="edge"><title>Node10&#45;&gt;Node4</title>
<path fill="none" stroke="#9a32cd" stroke-dasharray="5,2" d="M379.419,-65.1348C409.011,-51.7381 454.534,-31.1298 480.028,-19.5888"/>
<polygon fill="#9a32cd" stroke="#9a32cd" points="377.712,-62.0654 370.045,-69.3781 380.599,-68.4424 377.712,-62.0654"/>
<text text-anchor="middle" x="459" y="-41.5" font-family="Helvetica,sans-Serif" font-size="10.00"> Workers</text>
</g>
<!-- Node10&#45;&gt;Node5 -->
<g id="edge26" class="edge"><title>Node10&#45;&gt;Node5</title>
<path fill="none" stroke="#9a32cd" stroke-dasharray="5,2" d="M370.965,-94.5485C385.733,-105.217 403.955,-118.153 408,-120 438.004,-133.704 448.12,-129.534 480,-138 483.012,-138.8 486.177,-139.663 489.297,-140.526"/>
<polygon fill="#9a32cd" stroke="#9a32cd" points="372.953,-91.6665 362.803,-88.6299 368.844,-97.3336 372.953,-91.6665"/>
<text text-anchor="middle" x="428" y="-111.5" font-family="Helvetica,sans-Serif" font-size="10.00"> Workers</text>
</g>
<!-- Node10&#45;&gt;Node6 -->
<g id="edge13" class="edge"><title>Node10&#45;&gt;Node6</title>
<path fill="none" stroke="#9a32cd" stroke-dasharray="5,2" d="M316.609,-83.1115C288.18,-86.593 247.233,-93.7379 214,-108 192.586,-117.19 181.778,-117.339 171,-138 157.096,-164.655 191.175,-192.549 211.742,-206.289"/>
<polygon fill="#9a32cd" stroke="#9a32cd" points="317.309,-86.5547 326.85,-81.9494 316.519,-79.5994 317.309,-86.5547"/>
<text text-anchor="middle" x="188.5" y="-145.5" font-family="Helvetica,sans-Serif" font-size="10.00"> Worker</text>
</g>
<!-- Node10&#45;&gt;Node10 -->
<g id="edge24" class="edge"><title>Node10&#45;&gt;Node10</title>
<path fill="none" stroke="#9a32cd" stroke-dasharray="5,2" d="M385.425,-84.6249C389.979,-83.6671 393,-81.7922 393,-79 393,-74.418 384.864,-72.3059 375.17,-72.6639"/>
<polygon fill="#9a32cd" stroke="#9a32cd" points="384.904,-81.1525 375.17,-85.3361 385.388,-88.1358 384.904,-81.1525"/>
<text text-anchor="middle" x="420.5" y="-82" font-family="Helvetica,sans-Serif" font-size="10.00"> NextQueue</text>
<text text-anchor="middle" x="420.5" y="-71" font-family="Helvetica,sans-Serif" font-size="10.00">NextAcquire</text>
</g>
<!-- Node11&#45;&gt;Node4 -->
<g id="edge27" class="edge"><title>Node11&#45;&gt;Node4</title>
<path fill="none" stroke="#9a32cd" stroke-dasharray="5,2" d="M647.987,-128.415C641.764,-111.296 630.732,-85.9119 615,-68 593.011,-42.9636 557.5,-27.7933 531.553,-19.4675"/>
<polygon fill="#9a32cd" stroke="#9a32cd" points="644.827,-129.987 651.384,-138.309 651.447,-127.714 644.827,-129.987"/>
<text text-anchor="middle" x="648.5" y="-76.5" font-family="Helvetica,sans-Serif" font-size="10.00"> Configs</text>
</g>
<!-- Node11&#45;&gt;Node10 -->
<g id="edge16" class="edge"><title>Node11&#45;&gt;Node10</title>
<path fill="none" stroke="#9a32cd" stroke-dasharray="5,2" d="M617.873,-135.537C590.411,-127.111 551.588,-115.815 517,-108 466.969,-96.6954 407.519,-87.7312 375.078,-83.2113"/>
<polygon fill="#9a32cd" stroke="#9a32cd" points="616.86,-138.887 627.448,-138.499 618.929,-132.2 616.86,-138.887"/>
<text text-anchor="middle" x="578" y="-111.5" font-family="Helvetica,sans-Serif" font-size="10.00"> Config</text>
</g>
<!-- Node11&#45;&gt;Node11 -->
<g id="edge17" class="edge"><title>Node11&#45;&gt;Node11</title>
<path fill="none" stroke="#9a32cd" stroke-dasharray="5,2" d="M702.872,-153.042C707.251,-151.987 710,-150.307 710,-148 710,-144.215 702.597,-142.115 692.735,-141.701"/>
<polygon fill="#9a32cd" stroke="#9a32cd" points="702.229,-149.595 692.735,-154.299 703.09,-156.542 702.229,-149.595"/>
<text text-anchor="middle" x="722.5" y="-145.5" font-family="Helvetica,sans-Serif" font-size="10.00"> Next</text>
</g>
<!-- Node12 -->
<g id="node12" class="node"><title>Node12</title>
<g id="a_node12"><a xlink:href="classpkgAcquireStatus.xhtml" target="_top" xlink:title="A monitor object for downloads controlled by the pkgAcquire class. {{{. ">
<polygon fill="white" stroke="black" points="377,-138.5 377,-157.5 471,-157.5 471,-138.5 377,-138.5"/>
<text text-anchor="middle" x="424" y="-145.5" font-family="Helvetica,sans-Serif" font-size="10.00">pkgAcquireStatus</text>
</a>
</g>
</g>
<!-- Node12&#45;&gt;Node4 -->
<g id="edge28" class="edge"><title>Node12&#45;&gt;Node4</title>
<path fill="none" stroke="#9a32cd" stroke-dasharray="5,2" d="M480.632,-135.98C496.271,-131.728 510.266,-126.343 515,-120 523.494,-108.619 508.276,-103.542 504,-90 496.22,-65.3629 497.17,-34.3063 498.224,-19.5458"/>
<polygon fill="#9a32cd" stroke="#9a32cd" points="479.587,-132.634 470.75,-138.48 481.303,-139.42 479.587,-132.634"/>
<text text-anchor="middle" x="513.5" y="-76.5" font-family="Helvetica,sans-Serif" font-size="10.00"> Log</text>
</g>
<!-- Node12&#45;&gt;Node10 -->
<g id="edge21" class="edge"><title>Node12&#45;&gt;Node10</title>
<path fill="none" stroke="#9a32cd" stroke-dasharray="5,2" d="M389.23,-133.901C382.277,-130.164 375.447,-125.558 370,-120 361.283,-111.105 355.99,-97.4495 353.278,-88.6207"/>
<polygon fill="#9a32cd" stroke="#9a32cd" points="388.142,-137.263 398.668,-138.468 391.191,-130.962 388.142,-137.263"/>
<text text-anchor="middle" x="379.5" y="-111.5" font-family="Helvetica,sans-Serif" font-size="10.00"> Log</text>
</g>
<!-- Node13&#45;&gt;Node10 -->
<g id="edge22" class="edge"><title>Node13&#45;&gt;Node10</title>
<path fill="none" stroke="#9a32cd" stroke-dasharray="5,2" d="M386.596,-326.201C385.664,-294.841 382.642,-229.967 373,-176 371.54,-167.827 370.168,-166.015 368,-158 363.441,-141.142 361.731,-137.061 358,-120 355.651,-109.256 353.565,-96.7527 352.294,-88.6239"/>
<polygon fill="#9a32cd" stroke="#9a32cd" points="383.104,-326.58 386.86,-336.486 390.102,-326.4 383.104,-326.58"/>
<text text-anchor="middle" x="416" y="-213.5" font-family="Helvetica,sans-Serif" font-size="10.00"> MessageQueue</text>
</g>
<!-- Node14&#45;&gt;Node4 -->
<g id="edge29" class="edge"><title>Node14&#45;&gt;Node4</title>
<path fill="none" stroke="#9a32cd" stroke-dasharray="5,2" d="M103.52,-236.285C98.3527,-221.265 93,-201.292 93,-183 93,-183 93,-183 93,-78 93,-40.2264 370.119,-19.1363 466.462,-12.9455"/>
<polygon fill="#9a32cd" stroke="#9a32cd" points="100.281,-237.619 106.999,-245.811 106.856,-235.217 100.281,-237.619"/>
<text text-anchor="middle" x="107" y="-145.5" font-family="Helvetica,sans-Serif" font-size="10.00"> Items</text>
</g>
</g>
</svg>
