<?xml version="1.0" encoding="UTF-8" standalone="no"?>
<!DOCTYPE svg PUBLIC "-//W3C//DTD SVG 1.1//EN"
 "http://www.w3.org/Graphics/SVG/1.1/DTD/svg11.dtd">
<!-- Generated by graphviz version 2.36.0 (20140111.2315)
 -->
<!-- Title: pkgPackageManager Pages: 1 -->
<svg width="169pt" height="140pt"
 viewBox="0.00 0.00 169.00 140.00" xmlns="http://www.w3.org/2000/svg" xmlns:xlink="http://www.w3.org/1999/xlink">
<g id="graph0" class="graph" transform="scale(1 1) rotate(0) translate(4 136)">
<title>pkgPackageManager</title>
<polygon fill="white" stroke="none" points="-4,4 -4,-136 165,-136 165,4 -4,4"/>
<!-- Node1 -->
<g id="node1" class="node"><title>Node1</title>
<polygon fill="#bfbfbf" stroke="black" points="27,-56.5 27,-75.5 135,-75.5 135,-56.5 27,-56.5"/>
<text text-anchor="middle" x="81" y="-63.5" font-family="Helvetica,sans-Serif" font-size="10.00">pkgPackageManager</text>
</g>
<!-- Node3 -->
<g id="node3" class="node"><title>Node3</title>
<g id="a_node3"><a xlink:href="classpkgDPkgPM.xhtml" target="_top" xlink:title="pkgDPkgPM">
<polygon fill="white" stroke="black" points="0,-0.5 0,-19.5 72,-19.5 72,-0.5 0,-0.5"/>
<text text-anchor="middle" x="36" y="-7.5" font-family="Helvetica,sans-Serif" font-size="10.00">pkgDPkgPM</text>
</a>
</g>
</g>
<!-- Node1&#45;&gt;Node3 -->
<g id="edge2" class="edge"><title>Node1&#45;&gt;Node3</title>
<path fill="none" stroke="midnightblue" d="M66.9533,-48.144C59.1131,-38.7357 49.6705,-27.4046 43.2926,-19.7511"/>
<polygon fill="midnightblue" stroke="midnightblue" points="64.4785,-50.6414 73.5692,-56.083 69.8561,-46.1601 64.4785,-50.6414"/>
</g>
<!-- Node4 -->
<g id="node4" class="node"><title>Node4</title>
<g id="a_node4"><a xlink:href="classpkgSimulate.xhtml" target="_top" xlink:title="pkgSimulate">
<polygon fill="white" stroke="black" points="90.5,-0.5 90.5,-19.5 161.5,-19.5 161.5,-0.5 90.5,-0.5"/>
<text text-anchor="middle" x="126" y="-7.5" font-family="Helvetica,sans-Serif" font-size="10.00">pkgSimulate</text>
</a>
</g>
</g>
<!-- Node1&#45;&gt;Node4 -->
<g id="edge3" class="edge"><title>Node1&#45;&gt;Node4</title>
<path fill="none" stroke="midnightblue" d="M95.0467,-48.144C102.887,-38.7357 112.329,-27.4046 118.707,-19.7511"/>
<polygon fill="midnightblue" stroke="midnightblue" points="92.1439,-46.1601 88.4308,-56.083 97.5215,-50.6414 92.1439,-46.1601"/>
</g>
<!-- Node2 -->
<g id="node2" class="node"><title>Node2</title>
<g id="a_node2"><a xlink:href="classpkgCache_1_1Namespace.xhtml" target="_top" xlink:title="Namespace">
<polygon fill="white" stroke="black" points="46.5,-112.5 46.5,-131.5 115.5,-131.5 115.5,-112.5 46.5,-112.5"/>
<text text-anchor="middle" x="81" y="-119.5" font-family="Helvetica,sans-Serif" font-size="10.00">Namespace</text>
</a>
</g>
</g>
<!-- Node2&#45;&gt;Node1 -->
<g id="edge1" class="edge"><title>Node2&#45;&gt;Node1</title>
<path fill="none" stroke="darkgreen" d="M81,-101.805C81,-92.9102 81,-82.7798 81,-75.7511"/>
<polygon fill="darkgreen" stroke="darkgreen" points="77.5001,-102.083 81,-112.083 84.5001,-102.083 77.5001,-102.083"/>
</g>
</g>
</svg>
