<?xml version="1.0" encoding="UTF-8" standalone="no"?>
<!DOCTYPE svg PUBLIC "-//W3C//DTD SVG 1.1//EN"
 "http://www.w3.org/Graphics/SVG/1.1/DTD/svg11.dtd">
<!-- Generated by graphviz version 2.36.0 (20140111.2315)
 -->
<!-- Title: pkgAcqIndexTrans Pages: 1 -->
<!--zoomable 566 -->
<svg id="main" version="1.1" xmlns="http://www.w3.org/2000/svg" xmlns:xlink="http://www.w3.org/1999/xlink" xml:space="preserve" onload="init(evt)">
<style type="text/css"><![CDATA[
.edge:hover path { stroke: red; }
.edge:hover polygon { stroke: red; fill: red; }
]]></style>
<script type="text/javascript"><![CDATA[
var edges = document.getElementsByTagName('g');
if (edges && edges.length) {
  for (var i=0;i<edges.length;i++) {
    if (edges[i].id.substr(0,4)=='edge') {
      edges[i].setAttribute('class','edge');
    }
  }
}
]]></script>
        <defs>
                <circle id="rim" cx="0" cy="0" r="7"/>
                <circle id="rim2" cx="0" cy="0" r="3.5"/>
                <g id="zoomPlus">
                        <use xlink:href="#rim" fill="#404040">
                                <set attributeName="fill" to="#808080" begin="zoomplus.mouseover" end="zoomplus.mouseout"/>
                        </use>
                        <path d="M-4,0h8M0,-4v8" fill="none" stroke="white" stroke-width="1.5" pointer-events="none"/>
                </g>
                <g id="zoomMin">
                        <use xlink:href="#rim" fill="#404040">
                                <set attributeName="fill" to="#808080" begin="zoomminus.mouseover" end="zoomminus.mouseout"/>
                        </use>
                        <path d="M-4,0h8" fill="none" stroke="white" stroke-width="1.5" pointer-events="none"/>
                </g>
                <g id="dirArrow">
                        <path fill="none" stroke="white" stroke-width="1.5" d="M0,-3.0v7 M-2.5,-0.5L0,-3.0L2.5,-0.5"/>
                </g>
               <g id="resetDef">
                       <use xlink:href="#rim2" fill="#404040">
                               <set attributeName="fill" to="#808080" begin="reset.mouseover" end="reset.mouseout"/>
                       </use>
               </g>
        </defs>

<script type="text/javascript">
var viewWidth = 826;
var viewHeight = 566;
var sectionId = 'dynsection-1';
</script>
<script xlink:href="svgpan.js"/>
<svg id="graph" class="graph">
<g id="viewport">
<title>pkgAcqIndexTrans</title>
<polygon fill="white" stroke="none" points="-4,4 -4,-562 822,-562 822,4 -4,4"/>
<!-- Node1 -->
<g id="node1" class="node"><title>Node1</title>
<polygon fill="#bfbfbf" stroke="black" points="582,-138.5 582,-157.5 680,-157.5 680,-138.5 582,-138.5"/>
<text text-anchor="middle" x="631" y="-145.5" font-family="Helvetica,sans-Serif" font-size="10.00">pkgAcqIndexTrans</text>
</g>
<!-- Node2 -->
<g id="node2" class="node"><title>Node2</title>
<g id="a_node2"><a xlink:href="classpkgAcqIndex.xhtml" target="_top" xlink:title="An acquire item that is responsible for fetching an index {{{ file (e.g., Packages or Sources)...">
<polygon fill="white" stroke="black" points="521,-206.5 521,-225.5 595,-225.5 595,-206.5 521,-206.5"/>
<text text-anchor="middle" x="558" y="-213.5" font-family="Helvetica,sans-Serif" font-size="10.00">pkgAcqIndex</text>
</a>
</g>
</g>
<!-- Node2&#45;&gt;Node1 -->
<g id="edge1" class="edge"><title>Node2&#45;&gt;Node1</title>
<path fill="none" stroke="midnightblue" d="M575.241,-199.412C589.582,-186.447 609.481,-168.456 621.221,-157.841"/>
<polygon fill="midnightblue" stroke="midnightblue" points="572.614,-197.069 567.543,-206.372 577.309,-202.261 572.614,-197.069"/>
</g>
<!-- Node3 -->
<g id="node3" class="node"><title>Node3</title>
<g id="a_node3"><a xlink:href="classpkgAcquire_1_1Item.xhtml" target="_top" xlink:title="Represents the process by which a pkgAcquire object should {{{ retrieve a file or a collection of fil...">
<polygon fill="white" stroke="black" points="147,-383.5 147,-402.5 183,-402.5 183,-383.5 147,-383.5"/>
<text text-anchor="middle" x="165" y="-390.5" font-family="Helvetica,sans-Serif" font-size="10.00">Item</text>
</a>
</g>
</g>
<!-- Node3&#45;&gt;Node2 -->
<g id="edge2" class="edge"><title>Node3&#45;&gt;Node2</title>
<path fill="none" stroke="midnightblue" d="M182.171,-376.534C197.187,-363.817 220.117,-346.274 243,-336 276.247,-321.073 287.78,-327.366 323,-318 381.421,-302.465 397.617,-302.229 453,-278 487.96,-262.706 525.973,-238.545 545.246,-225.701"/>
<polygon fill="midnightblue" stroke="midnightblue" points="179.554,-374.171 174.304,-383.373 184.147,-379.454 179.554,-374.171"/>
</g>
<!-- Node8 -->
<g id="node8" class="node"><title>Node8</title>
<g id="a_node8"><a xlink:href="structpkgAcquire_1_1ItemDesc.xhtml" target="_top" xlink:title="Represents a single download source from which an item should be downloaded. ">
<polygon fill="white" stroke="black" points="255.5,-297.5 255.5,-316.5 314.5,-316.5 314.5,-297.5 255.5,-297.5"/>
<text text-anchor="middle" x="285" y="-304.5" font-family="Helvetica,sans-Serif" font-size="10.00">ItemDesc</text>
</a>
</g>
</g>
<!-- Node3&#45;&gt;Node8 -->
<g id="edge12" class="edge"><title>Node3&#45;&gt;Node8</title>
<path fill="none" stroke="#9a32cd" stroke-dasharray="5,2" d="M159.993,-373.481C157.935,-361.517 157.68,-346.314 166,-336 177.06,-322.289 223.813,-314.586 255.319,-310.865"/>
<polygon fill="#9a32cd" stroke="#9a32cd" points="156.596,-374.329 162.195,-383.324 163.427,-372.801 156.596,-374.329"/>
<text text-anchor="middle" x="182" y="-344.5" font-family="Helvetica,sans-Serif" font-size="10.00"> Owner</text>
</g>
<!-- Node15 -->
<g id="node15" class="node"><title>Node15</title>
<polygon fill="white" stroke="#bfbfbf" points="15.5,-246 15.5,-276 116.5,-276 116.5,-246 15.5,-246"/>
<text text-anchor="start" x="23.5" y="-264" font-family="Helvetica,sans-Serif" font-size="10.00">vector&lt; pkgAcquire</text>
<text text-anchor="middle" x="66" y="-253" font-family="Helvetica,sans-Serif" font-size="10.00">::Item * &gt;</text>
</g>
<!-- Node3&#45;&gt;Node15 -->
<g id="edge31" class="edge"><title>Node3&#45;&gt;Node15</title>
<path fill="none" stroke="#9a32cd" stroke-dasharray="5,2" d="M136.732,-389.146C116.207,-385.482 89.5766,-377.114 75,-358 56.728,-334.041 59.7015,-296.313 63.0775,-276.024"/>
<polygon fill="#9a32cd" stroke="#9a32cd" points="136.403,-392.636 146.813,-390.666 137.446,-385.714 136.403,-392.636"/>
<text text-anchor="middle" x="96.5" y="-344.5" font-family="Helvetica,sans-Serif" font-size="10.00"> elements</text>
</g>
<!-- Node4 -->
<g id="node4" class="node"><title>Node4</title>
<g id="a_node4"><a xlink:href="classWeakPointable.xhtml" target="_top" xlink:title="WeakPointable">
<polygon fill="white" stroke="black" points="123.5,-480.5 123.5,-499.5 206.5,-499.5 206.5,-480.5 123.5,-480.5"/>
<text text-anchor="middle" x="165" y="-487.5" font-family="Helvetica,sans-Serif" font-size="10.00">WeakPointable</text>
</a>
</g>
</g>
<!-- Node4&#45;&gt;Node3 -->
<g id="edge3" class="edge"><title>Node4&#45;&gt;Node3</title>
<path fill="none" stroke="midnightblue" d="M165,-470.227C165,-449.793 165,-418.001 165,-402.746"/>
<polygon fill="midnightblue" stroke="midnightblue" points="161.5,-470.233 165,-480.233 168.5,-470.233 161.5,-470.233"/>
</g>
<!-- Node4&#45;&gt;Node8 -->
<g id="edge9" class="edge"><title>Node4&#45;&gt;Node8</title>
<path fill="none" stroke="midnightblue" d="M174.384,-471.464C194.607,-433.801 241.259,-347.636 251,-336 257.185,-328.612 265.518,-321.714 272.386,-316.613"/>
<polygon fill="midnightblue" stroke="midnightblue" points="171.281,-469.845 169.641,-480.312 177.451,-473.152 171.281,-469.845"/>
</g>
<!-- Node11 -->
<g id="node11" class="node"><title>Node11</title>
<g id="a_node11"><a xlink:href="classpkgAcquire_1_1Worker.xhtml" target="_top" xlink:title="A fetch subprocess. ">
<polygon fill="white" stroke="black" points="326,-69.5 326,-88.5 374,-88.5 374,-69.5 326,-69.5"/>
<text text-anchor="middle" x="350" y="-76.5" font-family="Helvetica,sans-Serif" font-size="10.00">Worker</text>
</a>
</g>
</g>
<!-- Node4&#45;&gt;Node11 -->
<g id="edge15" class="edge"><title>Node4&#45;&gt;Node11</title>
<path fill="none" stroke="midnightblue" d="M113.316,-481.366C64.9197,-470.947 0,-447.078 0,-394 0,-394 0,-394 0,-260 0,-250.551 6.5544,-249.818 14,-244 56.9163,-210.466 81.7209,-223.53 123,-188 143.754,-170.137 140.334,-158.035 159,-138 173.197,-122.761 176.128,-116.809 195,-108 238.115,-87.8744 294.227,-82.1718 325.75,-80.5834"/>
<polygon fill="midnightblue" stroke="midnightblue" points="112.869,-484.846 123.364,-483.391 114.252,-477.984 112.869,-484.846"/>
</g>
<!-- Node5 -->
<g id="node5" class="node"><title>Node5</title>
<g id="a_node5"><a xlink:href="classpkgAcquire.xhtml" target="_top" xlink:title="The core download scheduler. {{{. ">
<polygon fill="white" stroke="black" points="466.5,-0.5 466.5,-19.5 531.5,-19.5 531.5,-0.5 466.5,-0.5"/>
<text text-anchor="middle" x="499" y="-7.5" font-family="Helvetica,sans-Serif" font-size="10.00">pkgAcquire</text>
</a>
</g>
</g>
<!-- Node5&#45;&gt;Node3 -->
<g id="edge4" class="edge"><title>Node5&#45;&gt;Node3</title>
<path fill="none" stroke="#9a32cd" stroke-dasharray="5,2" d="M456.069,-14.554C389.57,-21.9464 260.244,-44.0386 173,-108 143.573,-129.574 137.691,-141.114 127,-176 103.013,-254.27 146.119,-353.424 160.542,-383.176"/>
<polygon fill="#9a32cd" stroke="#9a32cd" points="456.608,-18.0167 466.187,-13.4896 455.875,-11.0552 456.608,-18.0167"/>
<text text-anchor="middle" x="143" y="-179.5" font-family="Helvetica,sans-Serif" font-size="10.00"> Owner</text>
</g>
<!-- Node6 -->
<g id="node6" class="node"><title>Node6</title>
<g id="a_node6"><a xlink:href="classpkgAcquire_1_1Queue.xhtml" target="_top" xlink:title="A single download queue in a pkgAcquire object. {{{. ">
<polygon fill="white" stroke="black" points="406.5,-138.5 406.5,-157.5 451.5,-157.5 451.5,-138.5 406.5,-138.5"/>
<text text-anchor="middle" x="429" y="-145.5" font-family="Helvetica,sans-Serif" font-size="10.00">Queue</text>
</a>
</g>
</g>
<!-- Node5&#45;&gt;Node6 -->
<g id="edge6" class="edge"><title>Node5&#45;&gt;Node6</title>
<path fill="none" stroke="#9a32cd" stroke-dasharray="5,2" d="M519.326,-25.869C537.384,-41.0509 559.552,-65.7661 550,-90 543.312,-106.968 537.537,-110.448 522,-120 520.451,-120.952 478.525,-132.948 451.5,-140.626"/>
<polygon fill="#9a32cd" stroke="#9a32cd" points="521.452,-23.0877 511.447,-19.6004 517.093,-28.5654 521.452,-23.0877"/>
<text text-anchor="middle" x="569" y="-76.5" font-family="Helvetica,sans-Serif" font-size="10.00"> Owner</text>
</g>
<!-- Node6&#45;&gt;Node5 -->
<g id="edge5" class="edge"><title>Node6&#45;&gt;Node5</title>
<path fill="none" stroke="#9a32cd" stroke-dasharray="5,2" d="M461.312,-137.584C481.105,-131.492 503.179,-123.979 506,-120 517.352,-103.99 505.769,-42.6043 500.919,-19.6917"/>
<polygon fill="#9a32cd" stroke="#9a32cd" points="460.138,-134.283 451.579,-140.527 462.164,-140.983 460.138,-134.283"/>
<text text-anchor="middle" x="529.5" y="-76.5" font-family="Helvetica,sans-Serif" font-size="10.00"> Queues</text>
</g>
<!-- Node6&#45;&gt;Node11 -->
<g id="edge16" class="edge"><title>Node6&#45;&gt;Node11</title>
<path fill="none" stroke="#9a32cd" stroke-dasharray="5,2" d="M422.546,-128.604C419.34,-121.484 414.872,-113.694 409,-108 399.314,-98.6073 385.884,-91.8967 374.284,-87.4042"/>
<polygon fill="#9a32cd" stroke="#9a32cd" points="419.424,-130.226 426.359,-138.236 425.933,-127.65 419.424,-130.226"/>
<text text-anchor="middle" x="438" y="-111.5" font-family="Helvetica,sans-Serif" font-size="10.00"> OwnerQ</text>
</g>
<!-- Node7 -->
<g id="node7" class="node"><title>Node7</title>
<g id="a_node7"><a xlink:href="structpkgAcquire_1_1Queue_1_1QItem.xhtml" target="_top" xlink:title="A single item placed in this queue. ">
<polygon fill="white" stroke="black" points="263,-206.5 263,-225.5 307,-225.5 307,-206.5 263,-206.5"/>
<text text-anchor="middle" x="285" y="-213.5" font-family="Helvetica,sans-Serif" font-size="10.00">QItem</text>
</a>
</g>
</g>
<!-- Node7&#45;&gt;Node6 -->
<g id="edge7" class="edge"><title>Node7&#45;&gt;Node6</title>
<path fill="none" stroke="#9a32cd" stroke-dasharray="5,2" d="M313.288,-202.035C341.95,-188.898 385.481,-168.946 410.17,-157.63"/>
<polygon fill="#9a32cd" stroke="#9a32cd" points="311.458,-199.023 303.825,-206.372 314.374,-205.387 311.458,-199.023"/>
<text text-anchor="middle" x="384" y="-179.5" font-family="Helvetica,sans-Serif" font-size="10.00"> Items</text>
</g>
<!-- Node7&#45;&gt;Node7 -->
<g id="edge13" class="edge"><title>Node7&#45;&gt;Node7</title>
<path fill="none" stroke="#9a32cd" stroke-dasharray="5,2" d="M317.111,-221.591C321.259,-220.624 324,-218.76 324,-216 324,-211.352 316.224,-209.245 307.051,-209.681"/>
<polygon fill="#9a32cd" stroke="#9a32cd" points="316.772,-218.107 307.051,-222.319 317.277,-225.088 316.772,-218.107"/>
<text text-anchor="middle" x="336.5" y="-213.5" font-family="Helvetica,sans-Serif" font-size="10.00"> Next</text>
</g>
<!-- Node7&#45;&gt;Node11 -->
<g id="edge20" class="edge"><title>Node7&#45;&gt;Node11</title>
<path fill="none" stroke="#9a32cd" stroke-dasharray="5,2" d="M266.405,-199.422C250.02,-183.73 230.548,-158.914 243,-138 260.836,-108.043 300.131,-92.6084 325.812,-85.4203"/>
<polygon fill="#9a32cd" stroke="#9a32cd" points="264.283,-202.222 274.046,-206.336 268.979,-197.031 264.283,-202.222"/>
<text text-anchor="middle" x="270.5" y="-145.5" font-family="Helvetica,sans-Serif" font-size="10.00"> CurrentItem</text>
</g>
<!-- Node8&#45;&gt;Node2 -->
<g id="edge37" class="edge"><title>Node8&#45;&gt;Node2</title>
<path fill="none" stroke="#9a32cd" stroke-dasharray="5,2" d="M324.588,-303.842C349.01,-300.852 379.96,-293.916 403,-278 418.011,-267.631 410.829,-254.134 426,-244 454.204,-225.161 492.806,-219.001 520.978,-217.201"/>
<polygon fill="#9a32cd" stroke="#9a32cd" points="324.142,-300.37 314.563,-304.897 324.875,-307.331 324.142,-300.37"/>
<text text-anchor="middle" x="439.5" y="-258.5" font-family="Helvetica,sans-Serif" font-size="10.00"> Desc</text>
</g>
<!-- Node8&#45;&gt;Node7 -->
<g id="edge8" class="edge"><title>Node8&#45;&gt;Node7</title>
<path fill="none" stroke="midnightblue" d="M285,-287.349C285,-268.383 285,-239.828 285,-225.639"/>
<polygon fill="midnightblue" stroke="midnightblue" points="281.5,-287.466 285,-297.466 288.5,-287.466 281.5,-287.466"/>
</g>
<!-- Node9 -->
<g id="node9" class="node"><title>Node9</title>
<g id="a_node9"><a xlink:title="STL class. ">
<polygon fill="white" stroke="#bfbfbf" points="452.5,-480.5 452.5,-499.5 493.5,-499.5 493.5,-480.5 452.5,-480.5"/>
<text text-anchor="middle" x="473" y="-487.5" font-family="Helvetica,sans-Serif" font-size="10.00">string</text>
</a>
</g>
</g>
<!-- Node9&#45;&gt;Node2 -->
<g id="edge34" class="edge"><title>Node9&#45;&gt;Node2</title>
<path fill="none" stroke="#9a32cd" stroke-dasharray="5,2" d="M504.077,-484.565C520.495,-480.868 540.071,-474.149 554,-462 607.776,-415.097 608.799,-387.493 625,-318 634.125,-278.859 592.338,-241.902 570.53,-225.657"/>
<polygon fill="#9a32cd" stroke="#9a32cd" points="502.97,-481.216 493.836,-486.585 504.324,-488.084 502.97,-481.216"/>
<text text-anchor="middle" x="671" y="-350" font-family="Helvetica,sans-Serif" font-size="10.00"> RealURI</text>
<text text-anchor="middle" x="671" y="-339" font-family="Helvetica,sans-Serif" font-size="10.00">CompressionExtension</text>
</g>
<!-- Node9&#45;&gt;Node3 -->
<g id="edge33" class="edge"><title>Node9&#45;&gt;Node3</title>
<path fill="none" stroke="#9a32cd" stroke-dasharray="5,2" d="M442.137,-487.351C389.312,-484.185 283.975,-476.269 250,-462 217.243,-448.243 186.757,-418.019 172.872,-402.933"/>
<polygon fill="#9a32cd" stroke="#9a32cd" points="442.081,-490.854 452.267,-487.939 442.486,-483.866 442.081,-490.854"/>
<text text-anchor="middle" x="274.5" y="-453.5" font-family="Helvetica,sans-Serif" font-size="10.00"> DestFile</text>
<text text-anchor="middle" x="274.5" y="-442.5" font-family="Helvetica,sans-Serif" font-size="10.00">ErrorText</text>
<text text-anchor="middle" x="274.5" y="-431.5" font-family="Helvetica,sans-Serif" font-size="10.00">UsedMirror</text>
</g>
<!-- Node9&#45;&gt;Node6 -->
<g id="edge26" class="edge"><title>Node9&#45;&gt;Node6</title>
<path fill="none" stroke="#9a32cd" stroke-dasharray="5,2" d="M478.96,-470.472C484.532,-451.483 492,-420.996 492,-394 492,-394 492,-394 492,-215 492,-188.388 464.868,-168.28 446.215,-157.601"/>
<polygon fill="#9a32cd" stroke="#9a32cd" points="475.559,-469.624 475.969,-480.211 482.25,-471.679 475.559,-469.624"/>
<text text-anchor="middle" x="507" y="-304.5" font-family="Helvetica,sans-Serif" font-size="10.00"> Name</text>
</g>
<!-- Node9&#45;&gt;Node8 -->
<g id="edge10" class="edge"><title>Node9&#45;&gt;Node8</title>
<path fill="none" stroke="#9a32cd" stroke-dasharray="5,2" d="M454.123,-474.045C449.439,-470.2 444.479,-466.014 440,-462 415.427,-439.974 405.038,-437.633 387,-410 367.778,-380.554 383.865,-360.865 359,-336 347.15,-324.15 329.789,-317.236 314.86,-313.244"/>
<polygon fill="#9a32cd" stroke="#9a32cd" points="452.116,-476.923 462.094,-480.484 456.515,-471.478 452.116,-476.923"/>
<text text-anchor="middle" x="413.5" y="-401.5" font-family="Helvetica,sans-Serif" font-size="10.00"> Description</text>
<text text-anchor="middle" x="413.5" y="-390.5" font-family="Helvetica,sans-Serif" font-size="10.00">URI</text>
<text text-anchor="middle" x="413.5" y="-379.5" font-family="Helvetica,sans-Serif" font-size="10.00">ShortDesc</text>
</g>
<!-- Node9&#45;&gt;Node11 -->
<g id="edge21" class="edge"><title>Node9&#45;&gt;Node11</title>
<path fill="none" stroke="#9a32cd" stroke-dasharray="5,2" d="M470.214,-470.34C466.16,-447.076 457.17,-406.644 440,-376 411.24,-324.672 372.202,-332.883 351,-278 345.555,-263.904 347.863,-258.782 351,-244 352.817,-235.436 356.627,-234.427 359,-226 365.054,-204.503 365.971,-198.246 364,-176 361.769,-150.816 357.483,-145.042 354,-120 352.5,-109.216 351.343,-96.7218 350.668,-88.6058"/>
<polygon fill="#9a32cd" stroke="#9a32cd" points="466.767,-470.952 471.822,-480.263 473.677,-469.832 466.767,-470.952"/>
<text text-anchor="middle" x="375" y="-269.5" font-family="Helvetica,sans-Serif" font-size="10.00"> OutQueue</text>
<text text-anchor="middle" x="375" y="-258.5" font-family="Helvetica,sans-Serif" font-size="10.00">Access</text>
<text text-anchor="middle" x="375" y="-247.5" font-family="Helvetica,sans-Serif" font-size="10.00">Status</text>
</g>
<!-- Node12 -->
<g id="node12" class="node"><title>Node12</title>
<g id="a_node12"><a xlink:href="structpkgAcquire_1_1MethodConfig.xhtml" target="_top" xlink:title="Information about the properties of a single acquire method. {{{. ">
<polygon fill="white" stroke="black" points="698.5,-138.5 698.5,-157.5 775.5,-157.5 775.5,-138.5 698.5,-138.5"/>
<text text-anchor="middle" x="737" y="-145.5" font-family="Helvetica,sans-Serif" font-size="10.00">MethodConfig</text>
</a>
</g>
</g>
<!-- Node9&#45;&gt;Node12 -->
<g id="edge19" class="edge"><title>Node9&#45;&gt;Node12</title>
<path fill="none" stroke="#9a32cd" stroke-dasharray="5,2" d="M503.92,-485.801C580.16,-477.059 771,-449.622 771,-394 771,-394 771,-394 771,-215 771,-192.315 754.93,-169.626 744.886,-157.662"/>
<polygon fill="#9a32cd" stroke="#9a32cd" points="503.506,-482.325 493.955,-486.911 504.281,-489.282 503.506,-482.325"/>
<text text-anchor="middle" x="789.5" y="-310" font-family="Helvetica,sans-Serif" font-size="10.00"> Access</text>
<text text-anchor="middle" x="789.5" y="-299" font-family="Helvetica,sans-Serif" font-size="10.00">Version</text>
</g>
<!-- Node14 -->
<g id="node14" class="node"><title>Node14</title>
<polygon fill="white" stroke="#bfbfbf" points="252.5,-337.5 252.5,-356.5 357.5,-356.5 357.5,-337.5 252.5,-337.5"/>
<text text-anchor="middle" x="305" y="-344.5" font-family="Helvetica,sans-Serif" font-size="10.00">vector&lt; std::string &gt;</text>
</g>
<!-- Node9&#45;&gt;Node14 -->
<g id="edge24" class="edge"><title>Node9&#45;&gt;Node14</title>
<path fill="none" stroke="#9a32cd" stroke-dasharray="5,2" d="M442.372,-487.638C403.146,-485.224 338.276,-478.753 322,-462 293.555,-432.721 299.649,-377.714 303.298,-356.576"/>
<polygon fill="#9a32cd" stroke="#9a32cd" points="442.277,-491.138 452.457,-488.205 442.669,-484.149 442.277,-491.138"/>
<text text-anchor="middle" x="343.5" y="-442.5" font-family="Helvetica,sans-Serif" font-size="10.00"> elements</text>
</g>
<!-- Node16 -->
<g id="node16" class="node"><title>Node16</title>
<g id="a_node16"><a xlink:href="classHashString.xhtml" target="_top" xlink:title="HashString">
<polygon fill="white" stroke="black" points="516.5,-337.5 516.5,-356.5 581.5,-356.5 581.5,-337.5 516.5,-337.5"/>
<text text-anchor="middle" x="549" y="-344.5" font-family="Helvetica,sans-Serif" font-size="10.00">HashString</text>
</a>
</g>
</g>
<!-- Node9&#45;&gt;Node16 -->
<g id="edge36" class="edge"><title>Node9&#45;&gt;Node16</title>
<path fill="none" stroke="#9a32cd" stroke-dasharray="5,2" d="M494.626,-474.081C498.796,-470.484 502.842,-466.396 506,-462 530.803,-427.468 543.166,-376.884 547.333,-356.743"/>
<polygon fill="#9a32cd" stroke="#9a32cd" points="492.357,-471.413 486.657,-480.345 496.682,-476.917 492.357,-471.413"/>
<text text-anchor="middle" x="537.5" y="-448" font-family="Helvetica,sans-Serif" font-size="10.00"> Type</text>
<text text-anchor="middle" x="537.5" y="-437" font-family="Helvetica,sans-Serif" font-size="10.00">Hash</text>
</g>
<!-- Node10 -->
<g id="node10" class="node"><title>Node10</title>
<g id="a_node10"><a xlink:title="STL class. ">
<polygon fill="white" stroke="#bfbfbf" points="420,-538.5 420,-557.5 526,-557.5 526,-538.5 420,-538.5"/>
<text text-anchor="middle" x="473" y="-545.5" font-family="Helvetica,sans-Serif" font-size="10.00">basic_string&lt; char &gt;</text>
</a>
</g>
</g>
<!-- Node10&#45;&gt;Node9 -->
<g id="edge11" class="edge"><title>Node10&#45;&gt;Node9</title>
<path fill="none" stroke="midnightblue" d="M473,-527.953C473,-518.287 473,-507.031 473,-499.505"/>
<polygon fill="midnightblue" stroke="midnightblue" points="469.5,-528.25 473,-538.25 476.5,-528.25 469.5,-528.25"/>
</g>
<!-- Node11&#45;&gt;Node5 -->
<g id="edge32" class="edge"><title>Node11&#45;&gt;Node5</title>
<path fill="none" stroke="#9a32cd" stroke-dasharray="5,2" d="M378.611,-65.1348C408.403,-51.7381 454.234,-31.1298 479.899,-19.5888"/>
<polygon fill="#9a32cd" stroke="#9a32cd" points="376.859,-62.0848 369.174,-69.3781 379.73,-68.4691 376.859,-62.0848"/>
<text text-anchor="middle" x="458" y="-41.5" font-family="Helvetica,sans-Serif" font-size="10.00"> Workers</text>
</g>
<!-- Node11&#45;&gt;Node6 -->
<g id="edge27" class="edge"><title>Node11&#45;&gt;Node6</title>
<path fill="none" stroke="#9a32cd" stroke-dasharray="5,2" d="M353.628,-98.6845C355.86,-106.075 359.408,-114.178 365,-120 376.026,-131.481 392.697,-138.301 406.26,-142.214"/>
<polygon fill="#9a32cd" stroke="#9a32cd" points="356.969,-97.6099 351.216,-88.7135 350.166,-99.2561 356.969,-97.6099"/>
<text text-anchor="middle" x="385" y="-111.5" font-family="Helvetica,sans-Serif" font-size="10.00"> Workers</text>
</g>
<!-- Node11&#45;&gt;Node7 -->
<g id="edge14" class="edge"><title>Node11&#45;&gt;Node7</title>
<path fill="none" stroke="#9a32cd" stroke-dasharray="5,2" d="M333.145,-95.984C329.815,-99.7061 326.561,-103.812 324,-108 303.47,-141.565 291.291,-187.603 286.886,-206.44"/>
<polygon fill="#9a32cd" stroke="#9a32cd" points="335.884,-98.1874 340.323,-88.5674 330.854,-93.3193 335.884,-98.1874"/>
<text text-anchor="middle" x="326.5" y="-145.5" font-family="Helvetica,sans-Serif" font-size="10.00"> Worker</text>
</g>
<!-- Node11&#45;&gt;Node11 -->
<g id="edge25" class="edge"><title>Node11&#45;&gt;Node11</title>
<path fill="none" stroke="#9a32cd" stroke-dasharray="5,2" d="M384.425,-84.6249C388.979,-83.6671 392,-81.7922 392,-79 392,-74.418 383.864,-72.3059 374.17,-72.6639"/>
<polygon fill="#9a32cd" stroke="#9a32cd" points="383.904,-81.1525 374.17,-85.3361 384.388,-88.1358 383.904,-81.1525"/>
<text text-anchor="middle" x="419.5" y="-82" font-family="Helvetica,sans-Serif" font-size="10.00"> NextQueue</text>
<text text-anchor="middle" x="419.5" y="-71" font-family="Helvetica,sans-Serif" font-size="10.00">NextAcquire</text>
</g>
<!-- Node12&#45;&gt;Node5 -->
<g id="edge28" class="edge"><title>Node12&#45;&gt;Node5</title>
<path fill="none" stroke="#9a32cd" stroke-dasharray="5,2" d="M722.368,-130.901C699.751,-107.005 653.886,-62.3595 606,-38 582.606,-26.0993 553.607,-19.2035 531.702,-15.364"/>
<polygon fill="#9a32cd" stroke="#9a32cd" points="719.99,-133.483 729.364,-138.42 725.115,-128.715 719.99,-133.483"/>
<text text-anchor="middle" x="697.5" y="-76.5" font-family="Helvetica,sans-Serif" font-size="10.00"> Configs</text>
</g>
<!-- Node12&#45;&gt;Node11 -->
<g id="edge17" class="edge"><title>Node12&#45;&gt;Node11</title>
<path fill="none" stroke="#9a32cd" stroke-dasharray="5,2" d="M688.64,-138.114C688.426,-138.076 688.213,-138.038 688,-138 570.466,-117.122 429.706,-93.37 374.198,-84.0524"/>
<polygon fill="#9a32cd" stroke="#9a32cd" points="688.029,-141.56 698.49,-139.883 689.266,-134.67 688.029,-141.56"/>
<text text-anchor="middle" x="592" y="-111.5" font-family="Helvetica,sans-Serif" font-size="10.00"> Config</text>
</g>
<!-- Node12&#45;&gt;Node12 -->
<g id="edge18" class="edge"><title>Node12&#45;&gt;Node12</title>
<path fill="none" stroke="#9a32cd" stroke-dasharray="5,2" d="M785.872,-153.042C790.251,-151.987 793,-150.307 793,-148 793,-144.215 785.597,-142.115 775.735,-141.701"/>
<polygon fill="#9a32cd" stroke="#9a32cd" points="785.229,-149.595 775.735,-154.299 786.09,-156.542 785.229,-149.595"/>
<text text-anchor="middle" x="805.5" y="-145.5" font-family="Helvetica,sans-Serif" font-size="10.00"> Next</text>
</g>
<!-- Node13 -->
<g id="node13" class="node"><title>Node13</title>
<g id="a_node13"><a xlink:href="classpkgAcquireStatus.xhtml" target="_top" xlink:title="A monitor object for downloads controlled by the pkgAcquire class. {{{. ">
<polygon fill="white" stroke="black" points="470,-138.5 470,-157.5 564,-157.5 564,-138.5 470,-138.5"/>
<text text-anchor="middle" x="517" y="-145.5" font-family="Helvetica,sans-Serif" font-size="10.00">pkgAcquireStatus</text>
</a>
</g>
</g>
<!-- Node13&#45;&gt;Node5 -->
<g id="edge29" class="edge"><title>Node13&#45;&gt;Node5</title>
<path fill="none" stroke="#9a32cd" stroke-dasharray="5,2" d="M559.176,-134.853C568.551,-131.003 578.053,-126.111 586,-120 605.893,-104.703 615.807,-91.8489 608,-68 602.856,-52.2863 599.462,-47.6001 586,-38 570.034,-26.6139 549.123,-19.9234 531.804,-16.051"/>
<polygon fill="#9a32cd" stroke="#9a32cd" points="557.644,-131.69 549.523,-138.494 560.115,-138.239 557.644,-131.69"/>
<text text-anchor="middle" x="619.5" y="-76.5" font-family="Helvetica,sans-Serif" font-size="10.00"> Log</text>
</g>
<!-- Node13&#45;&gt;Node11 -->
<g id="edge22" class="edge"><title>Node13&#45;&gt;Node11</title>
<path fill="none" stroke="#9a32cd" stroke-dasharray="5,2" d="M499.36,-131.917C489.055,-123.79 475.461,-114.188 462,-108 433.227,-94.773 397.307,-87.2073 374.023,-83.3532"/>
<polygon fill="#9a32cd" stroke="#9a32cd" points="497.208,-134.679 507.168,-138.29 501.635,-129.256 497.208,-134.679"/>
<text text-anchor="middle" x="492.5" y="-111.5" font-family="Helvetica,sans-Serif" font-size="10.00"> Log</text>
</g>
<!-- Node14&#45;&gt;Node11 -->
<g id="edge23" class="edge"><title>Node14&#45;&gt;Node11</title>
<path fill="none" stroke="#9a32cd" stroke-dasharray="5,2" d="M252.449,-334.65C215.639,-323.253 173,-301.522 173,-262 173,-262 173,-262 173,-147 173,-114.718 277.284,-92.5191 325.76,-83.944"/>
<polygon fill="#9a32cd" stroke="#9a32cd" points="251.564,-338.037 262.143,-337.463 253.515,-331.315 251.564,-338.037"/>
<text text-anchor="middle" x="209" y="-213.5" font-family="Helvetica,sans-Serif" font-size="10.00"> MessageQueue</text>
</g>
<!-- Node15&#45;&gt;Node5 -->
<g id="edge30" class="edge"><title>Node15&#45;&gt;Node5</title>
<path fill="none" stroke="#9a32cd" stroke-dasharray="5,2" d="M52.802,-236.82C45.5451,-221.93 38,-201.903 38,-183 38,-183 38,-183 38,-78 38,-52.2222 56.3863,-48.3386 80,-38 115.015,-22.6697 373.931,-14.3353 466.342,-11.8243"/>
<polygon fill="#9a32cd" stroke="#9a32cd" points="49.7437,-238.526 57.4469,-245.8 55.9612,-235.31 49.7437,-238.526"/>
<text text-anchor="middle" x="52" y="-145.5" font-family="Helvetica,sans-Serif" font-size="10.00"> Items</text>
</g>
<!-- Node16&#45;&gt;Node2 -->
<g id="edge35" class="edge"><title>Node16&#45;&gt;Node2</title>
<path fill="none" stroke="#9a32cd" stroke-dasharray="5,2" d="M550.334,-326.88C552.319,-298.434 555.969,-246.118 557.401,-225.589"/>
<polygon fill="#9a32cd" stroke="#9a32cd" points="546.823,-326.914 549.619,-337.133 553.806,-327.401 546.823,-326.914"/>
<text text-anchor="middle" x="587" y="-304.5" font-family="Helvetica,sans-Serif" font-size="10.00"> ExpectedHash</text>
</g>
</g>
</svg>
        <g id="navigator" transform="translate(0 0)" fill="#404254">
                <rect fill="#f2f5e9" fill-opacity="0.5" stroke="#606060" stroke-width=".5" x="0" y="0" width="60" height="60"/>
                <use id="zoomplus" xlink:href="#zoomPlus" x="17" y="9" onmousedown="handleZoom(evt,'in')"/>
                <use id="zoomminus" xlink:href="#zoomMin" x="42" y="9" onmousedown="handleZoom(evt,'out')"/>
                <use id="reset" xlink:href="#resetDef" x="30" y="36" onmousedown="handleReset()"/>
                <g id="arrowUp" xlink:href="#dirArrow" transform="translate(30 24)" onmousedown="handlePan(0,-1)">
                  <use xlink:href="#rim" fill="#404040">
                        <set attributeName="fill" to="#808080" begin="arrowUp.mouseover" end="arrowUp.mouseout"/>
                  </use>
                  <path fill="none" stroke="white" stroke-width="1.5" d="M0,-3.0v7 M-2.5,-0.5L0,-3.0L2.5,-0.5"/>
                </g>
                <g id="arrowRight" xlink:href="#dirArrow" transform="rotate(90) translate(36 -43)" onmousedown="handlePan(1,0)">
                  <use xlink:href="#rim" fill="#404040">
                        <set attributeName="fill" to="#808080" begin="arrowRight.mouseover" end="arrowRight.mouseout"/>
                  </use>
                  <path fill="none" stroke="white" stroke-width="1.5" d="M0,-3.0v7 M-2.5,-0.5L0,-3.0L2.5,-0.5"/>
                </g>
                <g id="arrowDown" xlink:href="#dirArrow" transform="rotate(180) translate(-30 -48)" onmousedown="handlePan(0,1)">
                  <use xlink:href="#rim" fill="#404040">
                        <set attributeName="fill" to="#808080" begin="arrowDown.mouseover" end="arrowDown.mouseout"/>
                  </use>
                  <path fill="none" stroke="white" stroke-width="1.5" d="M0,-3.0v7 M-2.5,-0.5L0,-3.0L2.5,-0.5"/>
                </g>
                <g id="arrowLeft" xlink:href="#dirArrow" transform="rotate(270) translate(-36 17)" onmousedown="handlePan(-1,0)">
                  <use xlink:href="#rim" fill="#404040">
                        <set attributeName="fill" to="#808080" begin="arrowLeft.mouseover" end="arrowLeft.mouseout"/>
                  </use>
                  <path fill="none" stroke="white" stroke-width="1.5" d="M0,-3.0v7 M-2.5,-0.5L0,-3.0L2.5,-0.5"/>
                </g>
        </g>
        <svg viewBox="0 0 15 15" width="100%" height="30px" preserveAspectRatio="xMaxYMin meet">
         <g id="arrow_out" transform="scale(0.3 0.3)">
          <a xlink:href="classpkgAcqIndexTrans__coll__graph_org.svg" target="_base">
           <rect id="button" ry="5" rx="5" y="6" x="6" height="38" width="38"
                fill="#f2f5e9" fill-opacity="0.5" stroke="#606060" stroke-width="1.0"/>
           <path id="arrow"
             d="M 11.500037,31.436501 C 11.940474,20.09759 22.043105,11.32322 32.158766,21.979434 L 37.068811,17.246167 C 37.068811,17.246167 37.088388,32 37.088388,32 L 22.160133,31.978069 C 22.160133,31.978069 26.997745,27.140456 26.997745,27.140456 C 18.528582,18.264221 13.291696,25.230495 11.500037,31.436501 z"
             style="fill:#404040;"/>
          </a>
         </g>
        </svg>
</svg>
