<?xml version="1.0" encoding="UTF-8" standalone="no"?>
<!DOCTYPE svg PUBLIC "-//W3C//DTD SVG 1.1//EN"
 "http://www.w3.org/Graphics/SVG/1.1/DTD/svg11.dtd">
<!-- Generated by graphviz version 2.36.0 (20140111.2315)
 -->
<!-- Title: debSystem Pages: 1 -->
<svg width="184pt" height="154pt"
 viewBox="0.00 0.00 184.00 154.00" xmlns="http://www.w3.org/2000/svg" xmlns:xlink="http://www.w3.org/1999/xlink">
<g id="graph0" class="graph" transform="scale(1 1) rotate(0) translate(4 150)">
<title>debSystem</title>
<polygon fill="white" stroke="none" points="-4,4 -4,-150 180,-150 180,4 -4,4"/>
<!-- Node1 -->
<g id="node1" class="node"><title>Node1</title>
<polygon fill="#bfbfbf" stroke="black" points="22,-0.5 22,-19.5 88,-19.5 88,-0.5 22,-0.5"/>
<text text-anchor="middle" x="55" y="-7.5" font-family="Helvetica,sans-Serif" font-size="10.00">debSystem</text>
</g>
<!-- Node2 -->
<g id="node2" class="node"><title>Node2</title>
<g id="a_node2"><a xlink:href="classpkgSystem.xhtml" target="_top" xlink:title="pkgSystem">
<polygon fill="white" stroke="black" points="22,-58.5 22,-77.5 88,-77.5 88,-58.5 22,-58.5"/>
<text text-anchor="middle" x="55" y="-65.5" font-family="Helvetica,sans-Serif" font-size="10.00">pkgSystem</text>
</a>
</g>
</g>
<!-- Node2&#45;&gt;Node1 -->
<g id="edge1" class="edge"><title>Node2&#45;&gt;Node1</title>
<path fill="none" stroke="midnightblue" d="M55,-47.953C55,-38.2875 55,-27.0312 55,-19.5052"/>
<polygon fill="midnightblue" stroke="midnightblue" points="51.5001,-48.25 55,-58.25 58.5001,-48.25 51.5001,-48.25"/>
</g>
<!-- Node2&#45;&gt;Node2 -->
<g id="edge2" class="edge"><title>Node2&#45;&gt;Node2</title>
<path fill="none" stroke="#9a32cd" stroke-dasharray="5,2" d="M98.6469,-72.3275C103.133,-71.4753 106,-70.0328 106,-68 106,-64.6641 98.2782,-62.9179 88.3545,-62.7615"/>
<polygon fill="#9a32cd" stroke="#9a32cd" points="98.0069,-68.8703 88.3545,-73.2385 98.6241,-75.8431 98.0069,-68.8703"/>
<text text-anchor="middle" x="129.5" y="-65.5" font-family="Helvetica,sans-Serif" font-size="10.00"> GlobalList</text>
</g>
<!-- Node3 -->
<g id="node3" class="node"><title>Node3</title>
<g id="a_node3"><a xlink:href="classpkgVersioningSystem.xhtml" target="_top" xlink:title="pkgVersioningSystem">
<polygon fill="white" stroke="black" points="-1,-126.5 -1,-145.5 111,-145.5 111,-126.5 -1,-126.5"/>
<text text-anchor="middle" x="55" y="-133.5" font-family="Helvetica,sans-Serif" font-size="10.00">pkgVersioningSystem</text>
</a>
</g>
</g>
<!-- Node3&#45;&gt;Node2 -->
<g id="edge3" class="edge"><title>Node3&#45;&gt;Node2</title>
<path fill="none" stroke="#9a32cd" stroke-dasharray="5,2" d="M55,-116.041C55,-103.472 55,-87.5631 55,-77.8411"/>
<polygon fill="#9a32cd" stroke="#9a32cd" points="51.5001,-116.372 55,-126.372 58.5001,-116.372 51.5001,-116.372"/>
<text text-anchor="middle" x="63.5" y="-99.5" font-family="Helvetica,sans-Serif" font-size="10.00"> VS</text>
</g>
<!-- Node3&#45;&gt;Node3 -->
<g id="edge4" class="edge"><title>Node3&#45;&gt;Node3</title>
<path fill="none" stroke="#9a32cd" stroke-dasharray="5,2" d="M121.115,-140.528C125.405,-139.472 128,-137.963 128,-136 128,-132.779 121.013,-130.779 111.01,-129.999"/>
<polygon fill="#9a32cd" stroke="#9a32cd" points="120.401,-137.095 111.01,-142.001 121.41,-144.022 120.401,-137.095"/>
<text text-anchor="middle" x="151.5" y="-133.5" font-family="Helvetica,sans-Serif" font-size="10.00"> GlobalList</text>
</g>
</g>
</svg>
