<?xml version="1.0" encoding="UTF-8" standalone="no"?>
<!DOCTYPE svg PUBLIC "-//W3C//DTD SVG 1.1//EN"
 "http://www.w3.org/Graphics/SVG/1.1/DTD/svg11.dtd">
<!-- Generated by graphviz version 2.36.0 (20140111.2315)
 -->
<!-- Title: pkgAcqMetaSig Pages: 1 -->
<!--zoomable 650 -->
<svg id="main" version="1.1" xmlns="http://www.w3.org/2000/svg" xmlns:xlink="http://www.w3.org/1999/xlink" xml:space="preserve" onload="init(evt)">
<style type="text/css"><![CDATA[
.edge:hover path { stroke: red; }
.edge:hover polygon { stroke: red; fill: red; }
]]></style>
<script type="text/javascript"><![CDATA[
var edges = document.getElementsByTagName('g');
if (edges && edges.length) {
  for (var i=0;i<edges.length;i++) {
    if (edges[i].id.substr(0,4)=='edge') {
      edges[i].setAttribute('class','edge');
    }
  }
}
]]></script>
        <defs>
                <circle id="rim" cx="0" cy="0" r="7"/>
                <circle id="rim2" cx="0" cy="0" r="3.5"/>
                <g id="zoomPlus">
                        <use xlink:href="#rim" fill="#404040">
                                <set attributeName="fill" to="#808080" begin="zoomplus.mouseover" end="zoomplus.mouseout"/>
                        </use>
                        <path d="M-4,0h8M0,-4v8" fill="none" stroke="white" stroke-width="1.5" pointer-events="none"/>
                </g>
                <g id="zoomMin">
                        <use xlink:href="#rim" fill="#404040">
                                <set attributeName="fill" to="#808080" begin="zoomminus.mouseover" end="zoomminus.mouseout"/>
                        </use>
                        <path d="M-4,0h8" fill="none" stroke="white" stroke-width="1.5" pointer-events="none"/>
                </g>
                <g id="dirArrow">
                        <path fill="none" stroke="white" stroke-width="1.5" d="M0,-3.0v7 M-2.5,-0.5L0,-3.0L2.5,-0.5"/>
                </g>
               <g id="resetDef">
                       <use xlink:href="#rim2" fill="#404040">
                               <set attributeName="fill" to="#808080" begin="reset.mouseover" end="reset.mouseout"/>
                       </use>
               </g>
        </defs>

<script type="text/javascript">
var viewWidth = 1142;
var viewHeight = 650;
var sectionId = 'dynsection-1';
</script>
<script xlink:href="svgpan.js"/>
<svg id="graph" class="graph">
<g id="viewport">
<title>pkgAcqMetaSig</title>
<polygon fill="white" stroke="none" points="-4,4 -4,-646 1137.68,-646 1137.68,4 -4,4"/>
<!-- Node1 -->
<g id="node1" class="node"><title>Node1</title>
<polygon fill="#bfbfbf" stroke="black" points="723.685,-69.5 723.685,-88.5 809.685,-88.5 809.685,-69.5 723.685,-69.5"/>
<text text-anchor="middle" x="766.685" y="-76.5" font-family="Helvetica,sans-Serif" font-size="10.00">pkgAcqMetaSig</text>
</g>
<!-- Node2 -->
<g id="node2" class="node"><title>Node2</title>
<g id="a_node2"><a xlink:href="classpkgAcquire_1_1Item.xhtml" target="_top" xlink:title="Represents the process by which a pkgAcquire object should {{{ retrieve a file or a collection of fil...">
<polygon fill="white" stroke="black" points="190.685,-457.5 190.685,-476.5 226.685,-476.5 226.685,-457.5 190.685,-457.5"/>
<text text-anchor="middle" x="208.685" y="-464.5" font-family="Helvetica,sans-Serif" font-size="10.00">Item</text>
</a>
</g>
</g>
<!-- Node2&#45;&gt;Node1 -->
<g id="edge1" class="edge"><title>Node2&#45;&gt;Node1</title>
<path fill="none" stroke="midnightblue" d="M236.615,-458.372C280.265,-446.719 367.456,-424.522 442.685,-412 481.03,-405.617 585.676,-417.444 616.685,-394 641.109,-375.534 703.067,-164.337 718.685,-138 730.018,-118.888 747.466,-99.5822 757.91,-88.7681"/>
<polygon fill="midnightblue" stroke="midnightblue" points="235.484,-455.051 226.736,-461.028 237.302,-461.811 235.484,-455.051"/>
</g>
<!-- Node7 -->
<g id="node7" class="node"><title>Node7</title>
<g id="a_node7"><a xlink:href="structpkgAcquire_1_1ItemDesc.xhtml" target="_top" xlink:title="Represents a single download source from which an item should be downloaded. ">
<polygon fill="white" stroke="black" points="251.185,-362.5 251.185,-381.5 310.185,-381.5 310.185,-362.5 251.185,-362.5"/>
<text text-anchor="middle" x="280.685" y="-369.5" font-family="Helvetica,sans-Serif" font-size="10.00">ItemDesc</text>
</a>
</g>
</g>
<!-- Node2&#45;&gt;Node7 -->
<g id="edge11" class="edge"><title>Node2&#45;&gt;Node7</title>
<path fill="none" stroke="#9a32cd" stroke-dasharray="5,2" d="M217.717,-448.146C223.6,-437.243 231.812,-423.279 240.685,-412 249.679,-400.565 261.866,-389.141 270.416,-381.641"/>
<polygon fill="#9a32cd" stroke="#9a32cd" points="214.55,-446.649 213.017,-457.132 220.753,-449.893 214.55,-446.649"/>
<text text-anchor="middle" x="256.685" y="-419.5" font-family="Helvetica,sans-Serif" font-size="10.00"> Owner</text>
</g>
<!-- Node14 -->
<g id="node14" class="node"><title>Node14</title>
<polygon fill="white" stroke="#bfbfbf" points="47.1846,-177 47.1846,-207 148.185,-207 148.185,-177 47.1846,-177"/>
<text text-anchor="start" x="55.1846" y="-195" font-family="Helvetica,sans-Serif" font-size="10.00">vector&lt; pkgAcquire</text>
<text text-anchor="middle" x="97.6846" y="-184" font-family="Helvetica,sans-Serif" font-size="10.00">::Item * &gt;</text>
</g>
<!-- Node2&#45;&gt;Node14 -->
<g id="edge30" class="edge"><title>Node2&#45;&gt;Node14</title>
<path fill="none" stroke="#9a32cd" stroke-dasharray="5,2" d="M201.287,-447.806C180.522,-396.735 122,-252.803 103.421,-207.108"/>
<polygon fill="#9a32cd" stroke="#9a32cd" points="198.108,-449.281 205.117,-457.226 204.593,-446.644 198.108,-449.281"/>
<text text-anchor="middle" x="200.185" y="-369.5" font-family="Helvetica,sans-Serif" font-size="10.00"> elements</text>
</g>
<!-- Node3 -->
<g id="node3" class="node"><title>Node3</title>
<g id="a_node3"><a xlink:href="classWeakPointable.xhtml" target="_top" xlink:title="WeakPointable">
<polygon fill="white" stroke="black" points="109.185,-564.5 109.185,-583.5 192.185,-583.5 192.185,-564.5 109.185,-564.5"/>
<text text-anchor="middle" x="150.685" y="-571.5" font-family="Helvetica,sans-Serif" font-size="10.00">WeakPointable</text>
</a>
</g>
</g>
<!-- Node3&#45;&gt;Node2 -->
<g id="edge2" class="edge"><title>Node3&#45;&gt;Node2</title>
<path fill="none" stroke="midnightblue" d="M160.355,-555.494C172.911,-532.763 194.344,-493.962 203.873,-476.711"/>
<polygon fill="midnightblue" stroke="midnightblue" points="157.203,-553.962 155.431,-564.407 163.33,-557.346 157.203,-553.962"/>
</g>
<!-- Node3&#45;&gt;Node7 -->
<g id="edge8" class="edge"><title>Node3&#45;&gt;Node7</title>
<path fill="none" stroke="midnightblue" d="M151.691,-554.014C153.842,-528.477 160.58,-482.519 181.685,-450 202.429,-418.036 241.074,-393.791 263.453,-381.648"/>
<polygon fill="midnightblue" stroke="midnightblue" points="148.186,-553.972 150.991,-564.189 155.17,-554.453 148.186,-553.972"/>
</g>
<!-- Node10 -->
<g id="node10" class="node"><title>Node10</title>
<g id="a_node10"><a xlink:href="classpkgAcquire_1_1Worker.xhtml" target="_top" xlink:title="A fetch subprocess. ">
<polygon fill="white" stroke="black" points="225.685,-69.5 225.685,-88.5 273.685,-88.5 273.685,-69.5 225.685,-69.5"/>
<text text-anchor="middle" x="249.685" y="-76.5" font-family="Helvetica,sans-Serif" font-size="10.00">Worker</text>
</a>
</g>
</g>
<!-- Node3&#45;&gt;Node10 -->
<g id="edge14" class="edge"><title>Node3&#45;&gt;Node10</title>
<path fill="none" stroke="midnightblue" d="M149.125,-554.382C148.942,-551.575 148.785,-548.713 148.685,-546 147.962,-526.458 148.042,-521.545 148.685,-502 154.553,-323.412 148.952,-267.909 228.685,-108 232.155,-101.039 237.405,-94.0395 241.788,-88.7796"/>
<polygon fill="midnightblue" stroke="midnightblue" points="145.645,-554.791 149.893,-564.497 152.625,-554.26 145.645,-554.791"/>
</g>
<!-- Node4 -->
<g id="node4" class="node"><title>Node4</title>
<g id="a_node4"><a xlink:href="classpkgAcquire.xhtml" target="_top" xlink:title="The core download scheduler. {{{. ">
<polygon fill="white" stroke="black" points="217.185,-0.5 217.185,-19.5 282.185,-19.5 282.185,-0.5 217.185,-0.5"/>
<text text-anchor="middle" x="249.685" y="-7.5" font-family="Helvetica,sans-Serif" font-size="10.00">pkgAcquire</text>
</a>
</g>
</g>
<!-- Node4&#45;&gt;Node2 -->
<g id="edge3" class="edge"><title>Node4&#45;&gt;Node2</title>
<path fill="none" stroke="#9a32cd" stroke-dasharray="5,2" d="M206.803,-19.017C185.668,-23.5505 159.993,-29.9373 137.685,-38 57.8642,-66.8488 30.0181,-94.6893 5.68459,-176 -32.8145,-304.645 142.289,-424.951 194.415,-457.436"/>
<polygon fill="#9a32cd" stroke="#9a32cd" points="207.702,-22.405 216.78,-16.9412 206.276,-15.5518 207.702,-22.405"/>
<text text-anchor="middle" x="21.6846" y="-189.5" font-family="Helvetica,sans-Serif" font-size="10.00"> Owner</text>
</g>
<!-- Node5 -->
<g id="node5" class="node"><title>Node5</title>
<g id="a_node5"><a xlink:href="classpkgAcquire_1_1Queue.xhtml" target="_top" xlink:title="A single download queue in a pkgAcquire object. {{{. ">
<polygon fill="white" stroke="black" points="402.185,-138.5 402.185,-157.5 447.185,-157.5 447.185,-138.5 402.185,-138.5"/>
<text text-anchor="middle" x="424.685" y="-145.5" font-family="Helvetica,sans-Serif" font-size="10.00">Queue</text>
</a>
</g>
</g>
<!-- Node4&#45;&gt;Node5 -->
<g id="edge5" class="edge"><title>Node4&#45;&gt;Node5</title>
<path fill="none" stroke="#9a32cd" stroke-dasharray="5,2" d="M292.381,-10.5534C336.091,-12.6919 401.974,-23.6875 433.685,-68 449.028,-89.4412 436.466,-122.864 429.098,-138.454"/>
<polygon fill="#9a32cd" stroke="#9a32cd" points="292.443,-7.0535 282.326,-10.1973 292.195,-14.0491 292.443,-7.0535"/>
<text text-anchor="middle" x="457.685" y="-76.5" font-family="Helvetica,sans-Serif" font-size="10.00"> Owner</text>
</g>
<!-- Node5&#45;&gt;Node4 -->
<g id="edge4" class="edge"><title>Node5&#45;&gt;Node4</title>
<path fill="none" stroke="#9a32cd" stroke-dasharray="5,2" d="M421.024,-128.333C419.049,-121.481 416.081,-113.953 411.685,-108 377.116,-61.1952 312.603,-32.663 276.289,-19.5657"/>
<polygon fill="#9a32cd" stroke="#9a32cd" points="417.656,-129.298 423.373,-138.218 424.466,-127.679 417.656,-129.298"/>
<text text-anchor="middle" x="414.185" y="-76.5" font-family="Helvetica,sans-Serif" font-size="10.00"> Queues</text>
</g>
<!-- Node5&#45;&gt;Node10 -->
<g id="edge15" class="edge"><title>Node5&#45;&gt;Node10</title>
<path fill="none" stroke="#9a32cd" stroke-dasharray="5,2" d="M398.362,-133.654C389.841,-129.317 380.354,-124.47 371.685,-120 361.437,-114.716 359.399,-112.258 348.685,-108 323.786,-98.1054 294.077,-90.193 273.742,-85.337"/>
<polygon fill="#9a32cd" stroke="#9a32cd" points="396.977,-136.876 407.477,-138.287 400.149,-130.636 396.977,-136.876"/>
<text text-anchor="middle" x="391.685" y="-111.5" font-family="Helvetica,sans-Serif" font-size="10.00"> OwnerQ</text>
</g>
<!-- Node6 -->
<g id="node6" class="node"><title>Node6</title>
<g id="a_node6"><a xlink:href="structpkgAcquire_1_1Queue_1_1QItem.xhtml" target="_top" xlink:title="A single item placed in this queue. ">
<polygon fill="white" stroke="black" points="258.685,-232.5 258.685,-251.5 302.685,-251.5 302.685,-232.5 258.685,-232.5"/>
<text text-anchor="middle" x="280.685" y="-239.5" font-family="Helvetica,sans-Serif" font-size="10.00">QItem</text>
</a>
</g>
</g>
<!-- Node6&#45;&gt;Node5 -->
<g id="edge6" class="edge"><title>Node6&#45;&gt;Node5</title>
<path fill="none" stroke="#9a32cd" stroke-dasharray="5,2" d="M302.802,-226.869C332.979,-207.59 386.144,-173.623 411.069,-157.699"/>
<polygon fill="#9a32cd" stroke="#9a32cd" points="300.774,-224.011 294.232,-232.345 304.543,-229.91 300.774,-224.011"/>
<text text-anchor="middle" x="396.685" y="-189.5" font-family="Helvetica,sans-Serif" font-size="10.00"> Items</text>
</g>
<!-- Node6&#45;&gt;Node6 -->
<g id="edge12" class="edge"><title>Node6&#45;&gt;Node6</title>
<path fill="none" stroke="#9a32cd" stroke-dasharray="5,2" d="M312.796,-250.223C316.943,-248.8 319.685,-246.059 319.685,-242 319.685,-235.164 311.909,-232.067 302.736,-232.707"/>
<polygon fill="#9a32cd" stroke="#9a32cd" points="312.309,-246.755 302.736,-251.293 313.05,-253.715 312.309,-246.755"/>
<text text-anchor="middle" x="332.185" y="-239.5" font-family="Helvetica,sans-Serif" font-size="10.00"> Next</text>
</g>
<!-- Node6&#45;&gt;Node10 -->
<g id="edge19" class="edge"><title>Node6&#45;&gt;Node10</title>
<path fill="none" stroke="#9a32cd" stroke-dasharray="5,2" d="M279.64,-222.348C278.216,-201.571 275.074,-167.079 268.685,-138 266.593,-128.479 257.692,-102.681 252.852,-88.9236"/>
<polygon fill="#9a32cd" stroke="#9a32cd" points="276.148,-222.595 280.264,-232.358 283.135,-222.159 276.148,-222.595"/>
<text text-anchor="middle" x="300.185" y="-145.5" font-family="Helvetica,sans-Serif" font-size="10.00"> CurrentItem</text>
</g>
<!-- Node7&#45;&gt;Node1 -->
<g id="edge45" class="edge"><title>Node7&#45;&gt;Node1</title>
<path fill="none" stroke="#9a32cd" stroke-dasharray="5,2" d="M320.325,-363.352C350.018,-356.908 391.275,-346.422 425.685,-332 485.58,-306.896 502.212,-300.073 551.685,-258 568.211,-243.945 658.626,-120.023 676.685,-108 690.578,-98.7499 707.688,-92.426 723.245,-88.1648"/>
<polygon fill="#9a32cd" stroke="#9a32cd" points="319.396,-359.971 310.335,-365.462 320.843,-366.82 319.396,-359.971"/>
<text text-anchor="middle" x="631.185" y="-189.5" font-family="Helvetica,sans-Serif" font-size="10.00"> Desc</text>
</g>
<!-- Node7&#45;&gt;Node6 -->
<g id="edge7" class="edge"><title>Node7&#45;&gt;Node6</title>
<path fill="none" stroke="midnightblue" d="M280.685,-352.029C280.685,-323.803 280.685,-271.892 280.685,-251.522"/>
<polygon fill="midnightblue" stroke="midnightblue" points="277.185,-352.202 280.685,-362.202 284.185,-352.202 277.185,-352.202"/>
</g>
<!-- Node8 -->
<g id="node8" class="node"><title>Node8</title>
<g id="a_node8"><a xlink:title="STL class. ">
<polygon fill="white" stroke="#bfbfbf" points="605.185,-564.5 605.185,-583.5 646.185,-583.5 646.185,-564.5 605.185,-564.5"/>
<text text-anchor="middle" x="625.685" y="-571.5" font-family="Helvetica,sans-Serif" font-size="10.00">string</text>
</a>
</g>
</g>
<!-- Node8&#45;&gt;Node1 -->
<g id="edge41" class="edge"><title>Node8&#45;&gt;Node1</title>
<path fill="none" stroke="#9a32cd" stroke-dasharray="5,2" d="M656.315,-572.314C739.148,-570.24 963.28,-563.095 991.685,-546 1026.76,-524.889 1040.68,-508.94 1040.68,-468 1040.68,-468 1040.68,-468 1040.68,-147 1040.68,-100.049 886.961,-85.8434 809.799,-81.6703"/>
<polygon fill="#9a32cd" stroke="#9a32cd" points="656.177,-568.816 646.265,-572.558 656.347,-575.814 656.177,-568.816"/>
<text text-anchor="middle" x="1087.18" y="-323.5" font-family="Helvetica,sans-Serif" font-size="10.00"> MetaIndexURI</text>
<text text-anchor="middle" x="1087.18" y="-312.5" font-family="Helvetica,sans-Serif" font-size="10.00">MetaIndexShortDesc</text>
<text text-anchor="middle" x="1087.18" y="-301.5" font-family="Helvetica,sans-Serif" font-size="10.00">RealURI</text>
<text text-anchor="middle" x="1087.18" y="-290.5" font-family="Helvetica,sans-Serif" font-size="10.00">LastGoodSig</text>
<text text-anchor="middle" x="1087.18" y="-279.5" font-family="Helvetica,sans-Serif" font-size="10.00">MetaIndexURIDesc</text>
</g>
<!-- Node8&#45;&gt;Node2 -->
<g id="edge32" class="edge"><title>Node8&#45;&gt;Node2</title>
<path fill="none" stroke="#9a32cd" stroke-dasharray="5,2" d="M594.951,-573.055C505.736,-572.926 251.288,-570.403 223.685,-546 203.848,-528.464 205.329,-493.357 207.309,-476.899"/>
<polygon fill="#9a32cd" stroke="#9a32cd" points="594.984,-576.555 604.986,-573.06 594.988,-569.555 594.984,-576.555"/>
<text text-anchor="middle" x="248.185" y="-532.5" font-family="Helvetica,sans-Serif" font-size="10.00"> DestFile</text>
<text text-anchor="middle" x="248.185" y="-521.5" font-family="Helvetica,sans-Serif" font-size="10.00">ErrorText</text>
<text text-anchor="middle" x="248.185" y="-510.5" font-family="Helvetica,sans-Serif" font-size="10.00">UsedMirror</text>
</g>
<!-- Node8&#45;&gt;Node5 -->
<g id="edge25" class="edge"><title>Node8&#45;&gt;Node5</title>
<path fill="none" stroke="#9a32cd" stroke-dasharray="5,2" d="M597.642,-559.999C556.873,-539.385 482.624,-494.98 450.685,-432 425.468,-382.276 424.511,-199.788 424.633,-157.7"/>
<polygon fill="#9a32cd" stroke="#9a32cd" points="596.246,-563.213 606.763,-564.496 599.341,-556.935 596.246,-563.213"/>
<text text-anchor="middle" x="454.685" y="-369.5" font-family="Helvetica,sans-Serif" font-size="10.00"> Name</text>
</g>
<!-- Node8&#45;&gt;Node7 -->
<g id="edge9" class="edge"><title>Node8&#45;&gt;Node7</title>
<path fill="none" stroke="#9a32cd" stroke-dasharray="5,2" d="M594.662,-572.712C533.506,-571.683 399.836,-567.022 359.685,-546 296.209,-512.766 283.581,-411.57 281.207,-381.508"/>
<polygon fill="#9a32cd" stroke="#9a32cd" points="594.807,-576.214 604.857,-572.86 594.909,-569.215 594.807,-576.214"/>
<text text-anchor="middle" x="333.185" y="-475.5" font-family="Helvetica,sans-Serif" font-size="10.00"> Description</text>
<text text-anchor="middle" x="333.185" y="-464.5" font-family="Helvetica,sans-Serif" font-size="10.00">URI</text>
<text text-anchor="middle" x="333.185" y="-453.5" font-family="Helvetica,sans-Serif" font-size="10.00">ShortDesc</text>
</g>
<!-- Node8&#45;&gt;Node10 -->
<g id="edge20" class="edge"><title>Node8&#45;&gt;Node10</title>
<path fill="none" stroke="#9a32cd" stroke-dasharray="5,2" d="M594.656,-573.732C527.298,-573.545 373.685,-562.731 373.685,-468 373.685,-468 373.685,-468 373.685,-191 373.685,-160.945 355.637,-156.154 331.685,-138 315.173,-125.486 305.816,-131.651 288.685,-120 275.692,-111.164 263.526,-97.4929 256.343,-88.6446"/>
<polygon fill="#9a32cd" stroke="#9a32cd" points="595.081,-577.23 605.062,-573.678 595.044,-570.23 595.081,-577.23"/>
<text text-anchor="middle" x="397.685" y="-312.5" font-family="Helvetica,sans-Serif" font-size="10.00"> OutQueue</text>
<text text-anchor="middle" x="397.685" y="-301.5" font-family="Helvetica,sans-Serif" font-size="10.00">Access</text>
<text text-anchor="middle" x="397.685" y="-290.5" font-family="Helvetica,sans-Serif" font-size="10.00">Status</text>
</g>
<!-- Node11 -->
<g id="node11" class="node"><title>Node11</title>
<g id="a_node11"><a xlink:href="structpkgAcquire_1_1MethodConfig.xhtml" target="_top" xlink:title="Information about the properties of a single acquire method. {{{. ">
<polygon fill="white" stroke="black" points="504.185,-138.5 504.185,-157.5 581.185,-157.5 581.185,-138.5 504.185,-138.5"/>
<text text-anchor="middle" x="542.685" y="-145.5" font-family="Helvetica,sans-Serif" font-size="10.00">MethodConfig</text>
</a>
</g>
</g>
<!-- Node8&#45;&gt;Node11 -->
<g id="edge18" class="edge"><title>Node8&#45;&gt;Node11</title>
<path fill="none" stroke="#9a32cd" stroke-dasharray="5,2" d="M612.084,-556.415C597.278,-536.636 575.685,-501.967 575.685,-468 575.685,-468 575.685,-468 575.685,-241 575.685,-208.59 557.315,-173.329 547.987,-157.513"/>
<polygon fill="#9a32cd" stroke="#9a32cd" points="609.399,-558.664 618.307,-564.399 614.92,-554.361 609.399,-558.664"/>
<text text-anchor="middle" x="594.185" y="-375" font-family="Helvetica,sans-Serif" font-size="10.00"> Access</text>
<text text-anchor="middle" x="594.185" y="-364" font-family="Helvetica,sans-Serif" font-size="10.00">Version</text>
</g>
<!-- Node13 -->
<g id="node13" class="node"><title>Node13</title>
<polygon fill="white" stroke="#bfbfbf" points="452.185,-412.5 452.185,-431.5 557.185,-431.5 557.185,-412.5 452.185,-412.5"/>
<text text-anchor="middle" x="504.685" y="-419.5" font-family="Helvetica,sans-Serif" font-size="10.00">vector&lt; std::string &gt;</text>
</g>
<!-- Node8&#45;&gt;Node13 -->
<g id="edge23" class="edge"><title>Node8&#45;&gt;Node13</title>
<path fill="none" stroke="#9a32cd" stroke-dasharray="5,2" d="M594.942,-569.155C566.991,-564.993 528.637,-557.382 518.685,-546 489.683,-512.832 498.152,-453.911 502.677,-431.751"/>
<polygon fill="#9a32cd" stroke="#9a32cd" points="594.673,-572.652 605.064,-570.583 595.65,-565.721 594.673,-572.652"/>
<text text-anchor="middle" x="540.185" y="-521.5" font-family="Helvetica,sans-Serif" font-size="10.00"> elements</text>
</g>
<!-- Node15 -->
<g id="node15" class="node"><title>Node15</title>
<g id="a_node15"><a xlink:href="classindexRecords.xhtml" target="_top" xlink:title="indexRecords">
<polygon fill="white" stroke="black" points="728.185,-138.5 728.185,-157.5 805.185,-157.5 805.185,-138.5 728.185,-138.5"/>
<text text-anchor="middle" x="766.685" y="-145.5" font-family="Helvetica,sans-Serif" font-size="10.00">indexRecords</text>
</a>
</g>
</g>
<!-- Node8&#45;&gt;Node15 -->
<g id="edge40" class="edge"><title>Node8&#45;&gt;Node15</title>
<path fill="none" stroke="#9a32cd" stroke-dasharray="5,2" d="M629.111,-554.299C640.841,-491.152 680.234,-286.404 708.685,-226 721.664,-198.444 745.503,-171.151 758.201,-157.675"/>
<polygon fill="#9a32cd" stroke="#9a32cd" points="625.624,-553.907 627.251,-564.376 632.508,-555.177 625.624,-553.907"/>
<text text-anchor="middle" x="701.685" y="-386" font-family="Helvetica,sans-Serif" font-size="10.00"> Dist</text>
<text text-anchor="middle" x="701.685" y="-375" font-family="Helvetica,sans-Serif" font-size="10.00">Suite</text>
<text text-anchor="middle" x="701.685" y="-364" font-family="Helvetica,sans-Serif" font-size="10.00">ErrorText</text>
<text text-anchor="middle" x="701.685" y="-353" font-family="Helvetica,sans-Serif" font-size="10.00">ExpectedDist</text>
</g>
<!-- Node16 -->
<g id="node16" class="node"><title>Node16</title>
<polygon fill="white" stroke="#bfbfbf" points="717.685,-227 717.685,-257 871.685,-257 871.685,-227 717.685,-227"/>
<text text-anchor="start" x="725.685" y="-245" font-family="Helvetica,sans-Serif" font-size="10.00">map&lt; std::string, indexRecords</text>
<text text-anchor="middle" x="794.685" y="-234" font-family="Helvetica,sans-Serif" font-size="10.00">::checkSum * &gt;</text>
</g>
<!-- Node8&#45;&gt;Node16 -->
<g id="edge35" class="edge"><title>Node8&#45;&gt;Node16</title>
<path fill="none" stroke="#9a32cd" stroke-dasharray="5,2" d="M656.01,-565.957C668.09,-561.85 681.318,-555.534 690.685,-546 716.134,-520.095 738.926,-428.358 750.685,-394 767.661,-344.398 783.923,-284.261 790.993,-257.293"/>
<polygon fill="#9a32cd" stroke="#9a32cd" points="654.802,-562.666 646.243,-568.91 656.828,-569.366 654.802,-562.666"/>
<text text-anchor="middle" x="758.185" y="-419.5" font-family="Helvetica,sans-Serif" font-size="10.00"> keys</text>
</g>
<!-- Node17 -->
<g id="node17" class="node"><title>Node17</title>
<g id="a_node17"><a xlink:href="structindexRecords_1_1checkSum.xhtml" target="_top" xlink:title="checkSum">
<polygon fill="white" stroke="black" points="803.185,-362.5 803.185,-381.5 866.185,-381.5 866.185,-362.5 803.185,-362.5"/>
<text text-anchor="middle" x="834.685" y="-369.5" font-family="Helvetica,sans-Serif" font-size="10.00">checkSum</text>
</a>
</g>
</g>
<!-- Node8&#45;&gt;Node17 -->
<g id="edge37" class="edge"><title>Node8&#45;&gt;Node17</title>
<path fill="none" stroke="#9a32cd" stroke-dasharray="5,2" d="M656.651,-571.464C698.551,-568.804 770.402,-562.002 790.685,-546 842.995,-504.73 838.475,-410.757 835.686,-381.715"/>
<polygon fill="#9a32cd" stroke="#9a32cd" points="656.22,-567.984 646.444,-572.068 656.634,-574.971 656.22,-567.984"/>
<text text-anchor="middle" x="875.685" y="-464.5" font-family="Helvetica,sans-Serif" font-size="10.00"> MetaKeyFilename</text>
</g>
<!-- Node18 -->
<g id="node18" class="node"><title>Node18</title>
<g id="a_node18"><a xlink:href="classHashString.xhtml" target="_top" xlink:title="HashString">
<polygon fill="white" stroke="black" points="743.185,-457.5 743.185,-476.5 808.185,-476.5 808.185,-457.5 743.185,-457.5"/>
<text text-anchor="middle" x="775.685" y="-464.5" font-family="Helvetica,sans-Serif" font-size="10.00">HashString</text>
</a>
</g>
</g>
<!-- Node8&#45;&gt;Node18 -->
<g id="edge39" class="edge"><title>Node8&#45;&gt;Node18</title>
<path fill="none" stroke="#9a32cd" stroke-dasharray="5,2" d="M656.36,-571.051C678.359,-568.296 707.698,-561.705 728.685,-546 752.988,-527.813 767.274,-493.031 772.898,-476.777"/>
<polygon fill="#9a32cd" stroke="#9a32cd" points="655.798,-567.591 646.219,-572.118 656.53,-574.552 655.798,-567.591"/>
<text text-anchor="middle" x="774.185" y="-527" font-family="Helvetica,sans-Serif" font-size="10.00"> Type</text>
<text text-anchor="middle" x="774.185" y="-516" font-family="Helvetica,sans-Serif" font-size="10.00">Hash</text>
</g>
<!-- Node20 -->
<g id="node20" class="node"><title>Node20</title>
<g id="a_node20"><a xlink:href="classIndexTarget.xhtml" target="_top" xlink:title="Information about an index file. ">
<polygon fill="white" stroke="black" points="944.685,-457.5 944.685,-476.5 1012.68,-476.5 1012.68,-457.5 944.685,-457.5"/>
<text text-anchor="middle" x="978.685" y="-464.5" font-family="Helvetica,sans-Serif" font-size="10.00">IndexTarget</text>
</a>
</g>
</g>
<!-- Node8&#45;&gt;Node20 -->
<g id="edge44" class="edge"><title>Node8&#45;&gt;Node20</title>
<path fill="none" stroke="#9a32cd" stroke-dasharray="5,2" d="M656.464,-573.842C702.038,-574.122 789.524,-570.923 858.685,-546 904.034,-529.658 949.564,-493.291 968.958,-476.634"/>
<polygon fill="#9a32cd" stroke="#9a32cd" points="656.385,-570.341 646.343,-573.717 656.299,-577.34 656.385,-570.341"/>
<text text-anchor="middle" x="961.185" y="-538" font-family="Helvetica,sans-Serif" font-size="10.00"> Description</text>
<text text-anchor="middle" x="961.185" y="-527" font-family="Helvetica,sans-Serif" font-size="10.00">URI</text>
<text text-anchor="middle" x="961.185" y="-516" font-family="Helvetica,sans-Serif" font-size="10.00">ShortDesc</text>
<text text-anchor="middle" x="961.185" y="-505" font-family="Helvetica,sans-Serif" font-size="10.00">MetaKey</text>
</g>
<!-- Node9 -->
<g id="node9" class="node"><title>Node9</title>
<g id="a_node9"><a xlink:title="STL class. ">
<polygon fill="white" stroke="#bfbfbf" points="572.685,-622.5 572.685,-641.5 678.685,-641.5 678.685,-622.5 572.685,-622.5"/>
<text text-anchor="middle" x="625.685" y="-629.5" font-family="Helvetica,sans-Serif" font-size="10.00">basic_string&lt; char &gt;</text>
</a>
</g>
</g>
<!-- Node9&#45;&gt;Node8 -->
<g id="edge10" class="edge"><title>Node9&#45;&gt;Node8</title>
<path fill="none" stroke="midnightblue" d="M625.685,-611.953C625.685,-602.287 625.685,-591.031 625.685,-583.505"/>
<polygon fill="midnightblue" stroke="midnightblue" points="622.185,-612.25 625.685,-622.25 629.185,-612.25 622.185,-612.25"/>
</g>
<!-- Node10&#45;&gt;Node4 -->
<g id="edge31" class="edge"><title>Node10&#45;&gt;Node4</title>
<path fill="none" stroke="#9a32cd" stroke-dasharray="5,2" d="M249.685,-59.0183C249.685,-46.034 249.685,-29.4419 249.685,-19.5494"/>
<polygon fill="#9a32cd" stroke="#9a32cd" points="246.185,-59.2409 249.685,-69.2409 253.185,-59.241 246.185,-59.2409"/>
<text text-anchor="middle" x="269.685" y="-41.5" font-family="Helvetica,sans-Serif" font-size="10.00"> Workers</text>
</g>
<!-- Node10&#45;&gt;Node5 -->
<g id="edge26" class="edge"><title>Node10&#45;&gt;Node5</title>
<path fill="none" stroke="#9a32cd" stroke-dasharray="5,2" d="M268.751,-95.1673C281.456,-105.017 297.156,-116.627 304.685,-120 339.132,-135.432 350.899,-129.539 387.685,-138 392.323,-139.067 397.28,-140.246 402.008,-141.389"/>
<polygon fill="#9a32cd" stroke="#9a32cd" points="270.599,-92.169 260.57,-88.7528 266.28,-97.6775 270.599,-92.169"/>
<text text-anchor="middle" x="324.685" y="-111.5" font-family="Helvetica,sans-Serif" font-size="10.00"> Workers</text>
</g>
<!-- Node10&#45;&gt;Node6 -->
<g id="edge13" class="edge"><title>Node10&#45;&gt;Node6</title>
<path fill="none" stroke="#9a32cd" stroke-dasharray="5,2" d="M239.41,-97.9604C237.927,-101.215 236.596,-104.643 235.685,-108 229.857,-129.463 228.018,-136.494 233.685,-158 241.532,-187.784 262.787,-218.103 273.824,-232.457"/>
<polygon fill="#9a32cd" stroke="#9a32cd" points="242.577,-99.4564 244.052,-88.9648 236.356,-96.2466 242.577,-99.4564"/>
<text text-anchor="middle" x="251.185" y="-145.5" font-family="Helvetica,sans-Serif" font-size="10.00"> Worker</text>
</g>
<!-- Node10&#45;&gt;Node10 -->
<g id="edge24" class="edge"><title>Node10&#45;&gt;Node10</title>
<path fill="none" stroke="#9a32cd" stroke-dasharray="5,2" d="M284.109,-84.6249C288.663,-83.6671 291.685,-81.7922 291.685,-79 291.685,-74.418 283.548,-72.3059 273.854,-72.6639"/>
<polygon fill="#9a32cd" stroke="#9a32cd" points="283.588,-81.1525 273.854,-85.3361 284.072,-88.1358 283.588,-81.1525"/>
<text text-anchor="middle" x="319.185" y="-82" font-family="Helvetica,sans-Serif" font-size="10.00"> NextQueue</text>
<text text-anchor="middle" x="319.185" y="-71" font-family="Helvetica,sans-Serif" font-size="10.00">NextAcquire</text>
</g>
<!-- Node11&#45;&gt;Node4 -->
<g id="edge27" class="edge"><title>Node11&#45;&gt;Node4</title>
<path fill="none" stroke="#9a32cd" stroke-dasharray="5,2" d="M545.759,-127.998C545.952,-121.296 545.085,-113.953 541.685,-108 511.253,-54.717 480.792,-57.7141 422.685,-38 375.474,-21.983 317.753,-15.407 282.363,-12.7491"/>
<polygon fill="#9a32cd" stroke="#9a32cd" points="542.239,-128.008 544.69,-138.315 549.202,-128.729 542.239,-128.008"/>
<text text-anchor="middle" x="548.185" y="-76.5" font-family="Helvetica,sans-Serif" font-size="10.00"> Configs</text>
</g>
<!-- Node11&#45;&gt;Node10 -->
<g id="edge16" class="edge"><title>Node11&#45;&gt;Node10</title>
<path fill="none" stroke="#9a32cd" stroke-dasharray="5,2" d="M525.348,-131.563C514.889,-123.153 500.875,-113.389 486.685,-108 467.076,-100.553 330.197,-87.3676 273.842,-82.1818"/>
<polygon fill="#9a32cd" stroke="#9a32cd" points="523.316,-134.427 533.223,-138.182 527.82,-129.069 523.316,-134.427"/>
<text text-anchor="middle" x="524.685" y="-111.5" font-family="Helvetica,sans-Serif" font-size="10.00"> Config</text>
</g>
<!-- Node11&#45;&gt;Node11 -->
<g id="edge17" class="edge"><title>Node11&#45;&gt;Node11</title>
<path fill="none" stroke="#9a32cd" stroke-dasharray="5,2" d="M591.556,-153.042C595.935,-151.987 598.685,-150.307 598.685,-148 598.685,-144.215 591.281,-142.115 581.42,-141.701"/>
<polygon fill="#9a32cd" stroke="#9a32cd" points="590.913,-149.595 581.42,-154.299 591.775,-156.542 590.913,-149.595"/>
<text text-anchor="middle" x="611.185" y="-145.5" font-family="Helvetica,sans-Serif" font-size="10.00"> Next</text>
</g>
<!-- Node12 -->
<g id="node12" class="node"><title>Node12</title>
<g id="a_node12"><a xlink:href="classpkgAcquireStatus.xhtml" target="_top" xlink:title="A monitor object for downloads controlled by the pkgAcquire class. {{{. ">
<polygon fill="white" stroke="black" points="51.6846,-138.5 51.6846,-157.5 145.685,-157.5 145.685,-138.5 51.6846,-138.5"/>
<text text-anchor="middle" x="98.6846" y="-145.5" font-family="Helvetica,sans-Serif" font-size="10.00">pkgAcquireStatus</text>
</a>
</g>
</g>
<!-- Node12&#45;&gt;Node4 -->
<g id="edge28" class="edge"><title>Node12&#45;&gt;Node4</title>
<path fill="none" stroke="#9a32cd" stroke-dasharray="5,2" d="M106.881,-128.935C110.533,-121.97 115.244,-114.205 120.685,-108 155.414,-68.3896 208.705,-34.6442 234.566,-19.5118"/>
<polygon fill="#9a32cd" stroke="#9a32cd" points="103.557,-127.767 102.328,-138.29 109.851,-130.83 103.557,-127.767"/>
<text text-anchor="middle" x="172.185" y="-76.5" font-family="Helvetica,sans-Serif" font-size="10.00"> Log</text>
</g>
<!-- Node12&#45;&gt;Node10 -->
<g id="edge21" class="edge"><title>Node12&#45;&gt;Node10</title>
<path fill="none" stroke="#9a32cd" stroke-dasharray="5,2" d="M112.734,-130.566C120.283,-122.686 130.185,-113.735 140.685,-108 167.605,-93.2962 202.503,-86.0963 225.467,-82.7267"/>
<polygon fill="#9a32cd" stroke="#9a32cd" points="109.923,-128.456 105.792,-138.212 115.105,-133.161 109.923,-128.456"/>
<text text-anchor="middle" x="150.185" y="-111.5" font-family="Helvetica,sans-Serif" font-size="10.00"> Log</text>
</g>
<!-- Node13&#45;&gt;Node10 -->
<g id="edge22" class="edge"><title>Node13&#45;&gt;Node10</title>
<path fill="none" stroke="#9a32cd" stroke-dasharray="5,2" d="M503.22,-401.994C498.628,-346.013 483.152,-182.863 455.685,-138 444.081,-119.048 436.106,-116.762 415.685,-108 368.145,-87.6027 306.988,-82.0258 273.771,-80.5263"/>
<polygon fill="#9a32cd" stroke="#9a32cd" points="499.753,-402.541 504.036,-412.231 506.731,-401.985 499.753,-402.541"/>
<text text-anchor="middle" x="522.685" y="-239.5" font-family="Helvetica,sans-Serif" font-size="10.00"> MessageQueue</text>
</g>
<!-- Node14&#45;&gt;Node4 -->
<g id="edge29" class="edge"><title>Node14&#45;&gt;Node4</title>
<path fill="none" stroke="#9a32cd" stroke-dasharray="5,2" d="M53.6493,-170.833C49.2919,-167.162 45.4621,-162.906 42.6846,-158 38.305,-150.265 38.8082,-145.999 42.6846,-138 76.3321,-68.5666 167.652,-33.5041 216.996,-19.1534"/>
<polygon fill="#9a32cd" stroke="#9a32cd" points="51.7921,-173.809 61.9489,-176.824 55.8893,-168.133 51.7921,-173.809"/>
<text text-anchor="middle" x="76.6846" y="-111.5" font-family="Helvetica,sans-Serif" font-size="10.00"> Items</text>
</g>
<!-- Node15&#45;&gt;Node1 -->
<g id="edge33" class="edge"><title>Node15&#45;&gt;Node1</title>
<path fill="none" stroke="#9a32cd" stroke-dasharray="5,2" d="M766.685,-128.018C766.685,-115.034 766.685,-98.4419 766.685,-88.5494"/>
<polygon fill="#9a32cd" stroke="#9a32cd" points="763.185,-128.241 766.685,-138.241 770.185,-128.241 763.185,-128.241"/>
<text text-anchor="middle" x="805.685" y="-111.5" font-family="Helvetica,sans-Serif" font-size="10.00"> MetaIndexParser</text>
</g>
<!-- Node16&#45;&gt;Node15 -->
<g id="edge34" class="edge"><title>Node16&#45;&gt;Node15</title>
<path fill="none" stroke="#9a32cd" stroke-dasharray="5,2" d="M787.354,-216.913C781.434,-197.463 773.439,-171.193 769.344,-157.738"/>
<polygon fill="#9a32cd" stroke="#9a32cd" points="784.05,-218.077 790.31,-226.625 790.746,-216.039 784.05,-218.077"/>
<text text-anchor="middle" x="801.685" y="-189.5" font-family="Helvetica,sans-Serif" font-size="10.00"> Entries</text>
</g>
<!-- Node17&#45;&gt;Node16 -->
<g id="edge36" class="edge"><title>Node17&#45;&gt;Node16</title>
<path fill="none" stroke="#9a32cd" stroke-dasharray="5,2" d="M825.505,-352.994C822.423,-346.49 819.147,-339.019 816.685,-332 807.623,-306.167 800.807,-274.871 797.309,-257.114"/>
<polygon fill="#9a32cd" stroke="#9a32cd" points="822.488,-354.789 830.044,-362.216 828.768,-351.698 822.488,-354.789"/>
<text text-anchor="middle" x="838.185" y="-301.5" font-family="Helvetica,sans-Serif" font-size="10.00"> elements</text>
</g>
<!-- Node18&#45;&gt;Node17 -->
<g id="edge38" class="edge"><title>Node18&#45;&gt;Node17</title>
<path fill="none" stroke="#9a32cd" stroke-dasharray="5,2" d="M783.89,-448.091C789.077,-437.339 796.199,-423.551 803.685,-412 810.834,-400.967 820.422,-389.287 827.033,-381.617"/>
<polygon fill="#9a32cd" stroke="#9a32cd" points="780.649,-446.758 779.56,-457.297 786.983,-449.738 780.649,-446.758"/>
<text text-anchor="middle" x="817.185" y="-419.5" font-family="Helvetica,sans-Serif" font-size="10.00"> Hash</text>
</g>
<!-- Node19 -->
<g id="node19" class="node"><title>Node19</title>
<polygon fill="white" stroke="#bfbfbf" points="868.685,-294.5 868.685,-313.5 1016.68,-313.5 1016.68,-294.5 868.685,-294.5"/>
<text text-anchor="middle" x="942.685" y="-301.5" font-family="Helvetica,sans-Serif" font-size="10.00">vector&lt; struct IndexTarget * &gt;</text>
</g>
<!-- Node19&#45;&gt;Node1 -->
<g id="edge42" class="edge"><title>Node19&#45;&gt;Node1</title>
<path fill="none" stroke="#9a32cd" stroke-dasharray="5,2" d="M938.78,-284.289C929.779,-245.747 903.971,-157.014 848.685,-108 837.878,-98.4198 823.646,-92.0872 810.076,-87.9138"/>
<polygon fill="#9a32cd" stroke="#9a32cd" points="935.384,-285.145 940.966,-294.15 942.218,-283.629 935.384,-285.145"/>
<text text-anchor="middle" x="944.185" y="-189.5" font-family="Helvetica,sans-Serif" font-size="10.00"> IndexTargets</text>
</g>
<!-- Node20&#45;&gt;Node19 -->
<g id="edge43" class="edge"><title>Node20&#45;&gt;Node19</title>
<path fill="none" stroke="#9a32cd" stroke-dasharray="5,2" d="M974.561,-447.557C966.797,-412.834 950.282,-338.979 944.63,-313.699"/>
<polygon fill="#9a32cd" stroke="#9a32cd" points="971.151,-448.349 976.749,-457.344 977.983,-446.821 971.151,-448.349"/>
<text text-anchor="middle" x="992.185" y="-419.5" font-family="Helvetica,sans-Serif" font-size="10.00"> elements</text>
</g>
</g>
</svg>
        <g id="navigator" transform="translate(0 0)" fill="#404254">
                <rect fill="#f2f5e9" fill-opacity="0.5" stroke="#606060" stroke-width=".5" x="0" y="0" width="60" height="60"/>
                <use id="zoomplus" xlink:href="#zoomPlus" x="17" y="9" onmousedown="handleZoom(evt,'in')"/>
                <use id="zoomminus" xlink:href="#zoomMin" x="42" y="9" onmousedown="handleZoom(evt,'out')"/>
                <use id="reset" xlink:href="#resetDef" x="30" y="36" onmousedown="handleReset()"/>
                <g id="arrowUp" xlink:href="#dirArrow" transform="translate(30 24)" onmousedown="handlePan(0,-1)">
                  <use xlink:href="#rim" fill="#404040">
                        <set attributeName="fill" to="#808080" begin="arrowUp.mouseover" end="arrowUp.mouseout"/>
                  </use>
                  <path fill="none" stroke="white" stroke-width="1.5" d="M0,-3.0v7 M-2.5,-0.5L0,-3.0L2.5,-0.5"/>
                </g>
                <g id="arrowRight" xlink:href="#dirArrow" transform="rotate(90) translate(36 -43)" onmousedown="handlePan(1,0)">
                  <use xlink:href="#rim" fill="#404040">
                        <set attributeName="fill" to="#808080" begin="arrowRight.mouseover" end="arrowRight.mouseout"/>
                  </use>
                  <path fill="none" stroke="white" stroke-width="1.5" d="M0,-3.0v7 M-2.5,-0.5L0,-3.0L2.5,-0.5"/>
                </g>
                <g id="arrowDown" xlink:href="#dirArrow" transform="rotate(180) translate(-30 -48)" onmousedown="handlePan(0,1)">
                  <use xlink:href="#rim" fill="#404040">
                        <set attributeName="fill" to="#808080" begin="arrowDown.mouseover" end="arrowDown.mouseout"/>
                  </use>
                  <path fill="none" stroke="white" stroke-width="1.5" d="M0,-3.0v7 M-2.5,-0.5L0,-3.0L2.5,-0.5"/>
                </g>
                <g id="arrowLeft" xlink:href="#dirArrow" transform="rotate(270) translate(-36 17)" onmousedown="handlePan(-1,0)">
                  <use xlink:href="#rim" fill="#404040">
                        <set attributeName="fill" to="#808080" begin="arrowLeft.mouseover" end="arrowLeft.mouseout"/>
                  </use>
                  <path fill="none" stroke="white" stroke-width="1.5" d="M0,-3.0v7 M-2.5,-0.5L0,-3.0L2.5,-0.5"/>
                </g>
        </g>
        <svg viewBox="0 0 15 15" width="100%" height="30px" preserveAspectRatio="xMaxYMin meet">
         <g id="arrow_out" transform="scale(0.3 0.3)">
          <a xlink:href="classpkgAcqMetaSig__coll__graph_org.svg" target="_base">
           <rect id="button" ry="5" rx="5" y="6" x="6" height="38" width="38"
                fill="#f2f5e9" fill-opacity="0.5" stroke="#606060" stroke-width="1.0"/>
           <path id="arrow"
             d="M 11.500037,31.436501 C 11.940474,20.09759 22.043105,11.32322 32.158766,21.979434 L 37.068811,17.246167 C 37.068811,17.246167 37.088388,32 37.088388,32 L 22.160133,31.978069 C 22.160133,31.978069 26.997745,27.140456 26.997745,27.140456 C 18.528582,18.264221 13.291696,25.230495 11.500037,31.436501 z"
             style="fill:#404040;"/>
          </a>
         </g>
        </svg>
</svg>
