<?xml version="1.0" encoding="UTF-8" standalone="no"?>
<!DOCTYPE svg PUBLIC "-//W3C//DTD SVG 1.1//EN"
 "http://www.w3.org/Graphics/SVG/1.1/DTD/svg11.dtd">
<!-- Generated by graphviz version 2.36.0 (20140111.2315)
 -->
<!-- Title: PackageManager Pages: 1 -->
<svg width="312pt" height="142pt"
 viewBox="0.00 0.00 312.00 142.00" xmlns="http://www.w3.org/2000/svg" xmlns:xlink="http://www.w3.org/1999/xlink">
<g id="graph0" class="graph" transform="scale(1 1) rotate(0) translate(4 138)">
<title>PackageManager</title>
<polygon fill="white" stroke="none" points="-4,4 -4,-138 308,-138 308,4 -4,4"/>
<!-- Node1 -->
<g id="node1" class="node"><title>Node1</title>
<polygon fill="#bfbfbf" stroke="black" points="0,-57.5 0,-76.5 92,-76.5 92,-57.5 0,-57.5"/>
<text text-anchor="middle" x="46" y="-64.5" font-family="Helvetica,sans-Serif" font-size="10.00">PackageManager</text>
</g>
<!-- Node2 -->
<g id="node2" class="node"><title>Node2</title>
<g id="a_node2"><a xlink:href="classAPT_1_1Progress_1_1PackageManagerFancy.xhtml" target="_top" xlink:title="PackageManagerFancy">
<polygon fill="white" stroke="black" points="156.5,-114.5 156.5,-133.5 275.5,-133.5 275.5,-114.5 156.5,-114.5"/>
<text text-anchor="middle" x="216" y="-121.5" font-family="Helvetica,sans-Serif" font-size="10.00">PackageManagerFancy</text>
</a>
</g>
</g>
<!-- Node1&#45;&gt;Node2 -->
<g id="edge1" class="edge"><title>Node1&#45;&gt;Node2</title>
<path fill="none" stroke="midnightblue" d="M73.5485,-81.2995C89.0684,-89.1864 109.239,-98.6402 128,-105 138.835,-108.673 150.675,-111.81 162.035,-114.414"/>
<polygon fill="midnightblue" stroke="midnightblue" points="75.0297,-78.1251 64.5404,-76.633 71.8098,-84.3406 75.0297,-78.1251"/>
</g>
<!-- Node3 -->
<g id="node3" class="node"><title>Node3</title>
<g id="a_node3"><a xlink:href="classAPT_1_1Progress_1_1PackageManagerProgressDeb822Fd.xhtml" target="_top" xlink:title="PackageManagerProgressDeb822Fd">
<polygon fill="white" stroke="black" points="128,-76.5 128,-95.5 304,-95.5 304,-76.5 128,-76.5"/>
<text text-anchor="middle" x="216" y="-83.5" font-family="Helvetica,sans-Serif" font-size="10.00">PackageManagerProgressDeb822Fd</text>
</a>
</g>
</g>
<!-- Node1&#45;&gt;Node3 -->
<g id="edge2" class="edge"><title>Node1&#45;&gt;Node3</title>
<path fill="none" stroke="midnightblue" d="M102.188,-73.2415C111.416,-74.2852 121.173,-75.3886 130.931,-76.4922"/>
<polygon fill="midnightblue" stroke="midnightblue" points="102.351,-69.7377 92.0209,-72.0917 101.564,-76.6934 102.351,-69.7377"/>
</g>
<!-- Node4 -->
<g id="node4" class="node"><title>Node4</title>
<g id="a_node4"><a xlink:href="classAPT_1_1Progress_1_1PackageManagerProgressFd.xhtml" target="_top" xlink:title="PackageManagerProgressFd">
<polygon fill="white" stroke="black" points="144.5,-38.5 144.5,-57.5 287.5,-57.5 287.5,-38.5 144.5,-38.5"/>
<text text-anchor="middle" x="216" y="-45.5" font-family="Helvetica,sans-Serif" font-size="10.00">PackageManagerProgressFd</text>
</a>
</g>
</g>
<!-- Node1&#45;&gt;Node4 -->
<g id="edge3" class="edge"><title>Node1&#45;&gt;Node4</title>
<path fill="none" stroke="midnightblue" d="M102.068,-60.7721C115.53,-59.2496 130.121,-57.5995 144.204,-56.0067"/>
<polygon fill="midnightblue" stroke="midnightblue" points="101.564,-57.3066 92.0209,-61.9083 102.351,-64.2623 101.564,-57.3066"/>
</g>
<!-- Node5 -->
<g id="node5" class="node"><title>Node5</title>
<g id="a_node5"><a xlink:href="classAPT_1_1Progress_1_1PackageManagerText.xhtml" target="_top" xlink:title="PackageManagerText">
<polygon fill="white" stroke="black" points="160,-0.5 160,-19.5 272,-19.5 272,-0.5 160,-0.5"/>
<text text-anchor="middle" x="216" y="-7.5" font-family="Helvetica,sans-Serif" font-size="10.00">PackageManagerText</text>
</a>
</g>
</g>
<!-- Node1&#45;&gt;Node5 -->
<g id="edge4" class="edge"><title>Node1&#45;&gt;Node5</title>
<path fill="none" stroke="midnightblue" d="M73.5485,-52.7005C89.0684,-44.8136 109.239,-35.3598 128,-29 138.835,-25.3271 150.675,-22.19 162.035,-19.5858"/>
<polygon fill="midnightblue" stroke="midnightblue" points="71.8098,-49.6594 64.5404,-57.367 75.0297,-55.8749 71.8098,-49.6594"/>
</g>
</g>
</svg>
