<?xml version="1.0" encoding="UTF-8" standalone="no"?>
<!DOCTYPE svg PUBLIC "-//W3C//DTD SVG 1.1//EN"
 "http://www.w3.org/Graphics/SVG/1.1/DTD/svg11.dtd">
<!-- Generated by graphviz version 2.36.0 (20140111.2315)
 -->
<!-- Title: pkgCache::DescFileIterator Pages: 1 -->
<svg width="144pt" height="164pt"
 viewBox="0.00 0.00 144.00 164.00" xmlns="http://www.w3.org/2000/svg" xmlns:xlink="http://www.w3.org/1999/xlink">
<g id="graph0" class="graph" transform="scale(1 1) rotate(0) translate(4 160)">
<title>pkgCache::DescFileIterator</title>
<polygon fill="white" stroke="none" points="-4,4 -4,-160 140,-160 140,4 -4,4"/>
<!-- Node1 -->
<g id="node1" class="node"><title>Node1</title>
<polygon fill="#bfbfbf" stroke="black" points="-0.5,-0.5 -0.5,-19.5 136.5,-19.5 136.5,-0.5 -0.5,-0.5"/>
<text text-anchor="middle" x="68" y="-7.5" font-family="Helvetica,sans-Serif" font-size="10.00">pkgCache::DescFileIterator</text>
</g>
<!-- Node2 -->
<g id="node2" class="node"><title>Node2</title>
<g id="a_node2"><a xlink:href="classpkgCache_1_1Iterator.xhtml" target="_top" xlink:title="Iterator\&lt; DescFile,\l DescFileIterator \&gt;">
<polygon fill="white" stroke="black" points="19,-57 19,-87 117,-87 117,-57 19,-57"/>
<text text-anchor="start" x="27" y="-75" font-family="Helvetica,sans-Serif" font-size="10.00">Iterator&lt; DescFile,</text>
<text text-anchor="middle" x="68" y="-64" font-family="Helvetica,sans-Serif" font-size="10.00"> DescFileIterator &gt;</text>
</a>
</g>
</g>
<!-- Node2&#45;&gt;Node1 -->
<g id="edge1" class="edge"><title>Node2&#45;&gt;Node1</title>
<path fill="none" stroke="midnightblue" d="M68,-46.5858C68,-37.0743 68,-26.7864 68,-19.7305"/>
<polygon fill="midnightblue" stroke="midnightblue" points="64.5001,-46.7808 68,-56.7808 71.5001,-46.7809 64.5001,-46.7808"/>
</g>
<!-- Node3 -->
<g id="node3" class="node"><title>Node3</title>
<polygon fill="white" stroke="#bfbfbf" points="5.5,-125 5.5,-155 130.5,-155 130.5,-125 5.5,-125"/>
<text text-anchor="start" x="13.5" y="-143" font-family="Helvetica,sans-Serif" font-size="10.00">iterator&lt; std::forward</text>
<text text-anchor="middle" x="68" y="-132" font-family="Helvetica,sans-Serif" font-size="10.00">_iterator_tag, DescFile &gt;</text>
</g>
<!-- Node3&#45;&gt;Node2 -->
<g id="edge2" class="edge"><title>Node3&#45;&gt;Node2</title>
<path fill="none" stroke="midnightblue" d="M68,-114.532C68,-105.361 68,-95.2449 68,-87.2931"/>
<polygon fill="midnightblue" stroke="midnightblue" points="64.5001,-114.679 68,-124.679 71.5001,-114.679 64.5001,-114.679"/>
</g>
</g>
</svg>
