<?xml version="1.0" encoding="UTF-8" standalone="no"?>
<!DOCTYPE svg PUBLIC "-//W3C//DTD SVG 1.1//EN"
 "http://www.w3.org/Graphics/SVG/1.1/DTD/svg11.dtd">
<!-- Generated by graphviz version 2.36.0 (20140111.2315)
 -->
<!-- Title: pkgCacheFile Pages: 1 -->
<svg width="1298pt" height="748pt"
 viewBox="0.00 0.00 1298.00 747.79" xmlns="http://www.w3.org/2000/svg" xmlns:xlink="http://www.w3.org/1999/xlink">
<g id="graph0" class="graph" transform="scale(1 1) rotate(0) translate(4 743.794)">
<title>pkgCacheFile</title>
<polygon fill="white" stroke="none" points="-4,4 -4,-743.794 1294,-743.794 1294,4 -4,4"/>
<!-- Node1 -->
<g id="node1" class="node"><title>Node1</title>
<polygon fill="#bfbfbf" stroke="black" points="1212.5,-388.5 1212.5,-407.5 1289.5,-407.5 1289.5,-388.5 1212.5,-388.5"/>
<text text-anchor="middle" x="1251" y="-395.5" font-family="Helvetica,sans-Serif" font-size="10.00">pkgCacheFile</text>
</g>
<!-- Node2 -->
<g id="node2" class="node"><title>Node2</title>
<g id="a_node2"><a xlink:href="classpkgCache.xhtml" target="_top" xlink:title="pkgCache">
<polygon fill="white" stroke="black" points="858.5,-413.5 858.5,-432.5 919.5,-432.5 919.5,-413.5 858.5,-413.5"/>
<text text-anchor="middle" x="889" y="-420.5" font-family="Helvetica,sans-Serif" font-size="10.00">pkgCache</text>
</a>
</g>
</g>
<!-- Node2&#45;&gt;Node1 -->
<g id="edge1" class="edge"><title>Node2&#45;&gt;Node1</title>
<path fill="none" stroke="#9a32cd" stroke-dasharray="5,2" d="M929.977,-418.584C963.572,-415.009 1012.87,-410.077 1056,-407 1110.31,-403.125 1173.31,-400.557 1212.41,-399.19"/>
<polygon fill="#9a32cd" stroke="#9a32cd" points="929.218,-415.146 919.649,-419.694 929.966,-422.106 929.218,-415.146"/>
<text text-anchor="middle" x="1096" y="-410" font-family="Helvetica,sans-Serif" font-size="10.00"> Cache</text>
</g>
<!-- Node20 -->
<g id="node20" class="node"><title>Node20</title>
<g id="a_node20"><a xlink:href="classpkgDepCache.xhtml" target="_top" xlink:title="pkgDepCache">
<polygon fill="white" stroke="black" points="1056.5,-427.5 1056.5,-446.5 1135.5,-446.5 1135.5,-427.5 1056.5,-427.5"/>
<text text-anchor="middle" x="1096" y="-434.5" font-family="Helvetica,sans-Serif" font-size="10.00">pkgDepCache</text>
</a>
</g>
</g>
<!-- Node2&#45;&gt;Node20 -->
<g id="edge24" class="edge"><title>Node2&#45;&gt;Node20</title>
<path fill="none" stroke="#9a32cd" stroke-dasharray="5,2" d="M930.103,-425.739C966.664,-428.236 1020.32,-431.9 1056.4,-434.364"/>
<polygon fill="#9a32cd" stroke="#9a32cd" points="930.024,-422.225 919.809,-425.036 929.547,-429.209 930.024,-422.225"/>
<text text-anchor="middle" x="998" y="-436" font-family="Helvetica,sans-Serif" font-size="10.00"> Cache</text>
</g>
<!-- Node24 -->
<g id="node24" class="node"><title>Node24</title>
<g id="a_node24"><a xlink:href="classpkgPolicy.xhtml" target="_top" xlink:title="pkgPolicy">
<polygon fill="white" stroke="black" points="1066.5,-209.5 1066.5,-228.5 1125.5,-228.5 1125.5,-209.5 1066.5,-209.5"/>
<text text-anchor="middle" x="1096" y="-216.5" font-family="Helvetica,sans-Serif" font-size="10.00">pkgPolicy</text>
</a>
</g>
</g>
<!-- Node2&#45;&gt;Node24 -->
<g id="edge28" class="edge"><title>Node2&#45;&gt;Node24</title>
<path fill="none" stroke="#9a32cd" stroke-dasharray="5,2" d="M904.207,-405.218C917.436,-389.086 938.06,-364.993 958,-346 990.971,-314.596 1004.84,-313.205 1038,-282 1056.69,-264.411 1076.31,-241.628 1086.95,-228.837"/>
<polygon fill="#9a32cd" stroke="#9a32cd" points="901.25,-403.307 897.67,-413.278 906.687,-407.716 901.25,-403.307"/>
<text text-anchor="middle" x="998" y="-349" font-family="Helvetica,sans-Serif" font-size="10.00"> Cache</text>
</g>
<!-- Node3 -->
<g id="node3" class="node"><title>Node3</title>
<g id="a_node3"><a xlink:href="structpkgCache_1_1Dependency.xhtml" target="_top" xlink:title="information for a single dependency record ">
<polygon fill="white" stroke="black" points="607.5,-565.5 607.5,-584.5 678.5,-584.5 678.5,-565.5 607.5,-565.5"/>
<text text-anchor="middle" x="643" y="-572.5" font-family="Helvetica,sans-Serif" font-size="10.00">Dependency</text>
</a>
</g>
</g>
<!-- Node3&#45;&gt;Node2 -->
<g id="edge2" class="edge"><title>Node3&#45;&gt;Node2</title>
<path fill="none" stroke="#9a32cd" stroke-dasharray="5,2" d="M688.754,-574.761C734.665,-573.525 801.859,-568.637 820,-551 855.204,-516.772 806.911,-480.004 838,-442 843.174,-435.675 850.699,-431.453 858.348,-428.636"/>
<polygon fill="#9a32cd" stroke="#9a32cd" points="688.653,-571.262 678.733,-574.983 688.808,-578.26 688.653,-571.262"/>
<text text-anchor="middle" x="769" y="-577" font-family="Helvetica,sans-Serif" font-size="10.00"> DepP</text>
</g>
<!-- Node4 -->
<g id="node4" class="node"><title>Node4</title>
<g id="a_node4"><a xlink:href="structpkgCache_1_1Description.xhtml" target="_top" xlink:title="datamember of a linked list of available description for a version ">
<polygon fill="white" stroke="black" points="610,-527.5 610,-546.5 676,-546.5 676,-527.5 610,-527.5"/>
<text text-anchor="middle" x="643" y="-534.5" font-family="Helvetica,sans-Serif" font-size="10.00">Description</text>
</a>
</g>
</g>
<!-- Node4&#45;&gt;Node2 -->
<g id="edge3" class="edge"><title>Node4&#45;&gt;Node2</title>
<path fill="none" stroke="#9a32cd" stroke-dasharray="5,2" d="M686.448,-536.791C732.135,-535.664 800.844,-531.07 820,-514 844.626,-492.056 816.094,-466.66 838,-442 843.365,-435.96 850.859,-431.831 858.414,-429.011"/>
<polygon fill="#9a32cd" stroke="#9a32cd" points="686.153,-533.296 676.225,-536.995 686.293,-540.294 686.153,-533.296"/>
<text text-anchor="middle" x="769" y="-539" font-family="Helvetica,sans-Serif" font-size="10.00"> DescP</text>
</g>
<!-- Node5 -->
<g id="node5" class="node"><title>Node5</title>
<g id="a_node5"><a xlink:href="structpkgCache_1_1Header.xhtml" target="_top" xlink:title="Header">
<polygon fill="white" stroke="black" points="619,-489.5 619,-508.5 667,-508.5 667,-489.5 619,-489.5"/>
<text text-anchor="middle" x="643" y="-496.5" font-family="Helvetica,sans-Serif" font-size="10.00">Header</text>
</a>
</g>
</g>
<!-- Node5&#45;&gt;Node2 -->
<g id="edge4" class="edge"><title>Node5&#45;&gt;Node2</title>
<path fill="none" stroke="#9a32cd" stroke-dasharray="5,2" d="M677.505,-500.501C715.094,-500.602 776.488,-495.877 820,-468 831.834,-460.418 826.933,-450.664 838,-442 843.996,-437.306 851.281,-433.67 858.413,-430.895"/>
<polygon fill="#9a32cd" stroke="#9a32cd" points="677.16,-496.995 667.11,-500.347 677.057,-503.995 677.16,-496.995"/>
<text text-anchor="middle" x="769" y="-502" font-family="Helvetica,sans-Serif" font-size="10.00"> HeaderP</text>
</g>
<!-- Node6 -->
<g id="node6" class="node"><title>Node6</title>
<g id="a_node6"><a xlink:href="structDynamicMMap_1_1Pool.xhtml" target="_top" xlink:title="Pool">
<polygon fill="white" stroke="black" points="451,-489.5 451,-508.5 487,-508.5 487,-489.5 451,-489.5"/>
<text text-anchor="middle" x="469" y="-496.5" font-family="Helvetica,sans-Serif" font-size="10.00">Pool</text>
</a>
</g>
</g>
<!-- Node6&#45;&gt;Node5 -->
<g id="edge5" class="edge"><title>Node6&#45;&gt;Node5</title>
<path fill="none" stroke="#9a32cd" stroke-dasharray="5,2" d="M497.163,-499C530.774,-499 587.417,-499 618.987,-499"/>
<polygon fill="#9a32cd" stroke="#9a32cd" points="497.121,-495.5 487.121,-499 497.121,-502.5 497.121,-495.5"/>
<text text-anchor="middle" x="543" y="-502" font-family="Helvetica,sans-Serif" font-size="10.00"> Pools</text>
</g>
<!-- Node7 -->
<g id="node7" class="node"><title>Node7</title>
<g id="a_node7"><a xlink:href="structpkgCache_1_1PackageFile.xhtml" target="_top" xlink:title="stores information about the files used to generate the cache ">
<polygon fill="white" stroke="black" points="607.5,-451.5 607.5,-470.5 678.5,-470.5 678.5,-451.5 607.5,-451.5"/>
<text text-anchor="middle" x="643" y="-458.5" font-family="Helvetica,sans-Serif" font-size="10.00">PackageFile</text>
</a>
</g>
</g>
<!-- Node7&#45;&gt;Node2 -->
<g id="edge6" class="edge"><title>Node7&#45;&gt;Node2</title>
<path fill="none" stroke="#9a32cd" stroke-dasharray="5,2" d="M688.623,-456.257C724.298,-452.203 775.523,-445.796 820,-438 832.622,-435.787 846.45,-432.835 858.321,-430.136"/>
<polygon fill="#9a32cd" stroke="#9a32cd" points="688.082,-452.796 678.534,-457.388 688.862,-459.752 688.082,-452.796"/>
<text text-anchor="middle" x="769" y="-456" font-family="Helvetica,sans-Serif" font-size="10.00"> PkgFileP</text>
</g>
<!-- Node8 -->
<g id="node8" class="node"><title>Node8</title>
<g id="a_node8"><a xlink:href="structpkgCache_1_1DescFile.xhtml" target="_top" xlink:title="associates a description with a Translation file ">
<polygon fill="white" stroke="black" points="615,-413.5 615,-432.5 671,-432.5 671,-413.5 615,-413.5"/>
<text text-anchor="middle" x="643" y="-420.5" font-family="Helvetica,sans-Serif" font-size="10.00">DescFile</text>
</a>
</g>
</g>
<!-- Node8&#45;&gt;Node2 -->
<g id="edge7" class="edge"><title>Node8&#45;&gt;Node2</title>
<path fill="none" stroke="#9a32cd" stroke-dasharray="5,2" d="M681.117,-423C729.613,-423 813.585,-423 858.174,-423"/>
<polygon fill="#9a32cd" stroke="#9a32cd" points="681.045,-419.5 671.045,-423 681.045,-426.5 681.045,-419.5"/>
<text text-anchor="middle" x="769" y="-426" font-family="Helvetica,sans-Serif" font-size="10.00"> DescFileP</text>
</g>
<!-- Node9 -->
<g id="node9" class="node"><title>Node9</title>
<g id="a_node9"><a xlink:href="structpkgCache_1_1StringItem.xhtml" target="_top" xlink:title="used for generating single instances of strings ">
<polygon fill="white" stroke="black" points="612,-375.5 612,-394.5 674,-394.5 674,-375.5 612,-375.5"/>
<text text-anchor="middle" x="643" y="-382.5" font-family="Helvetica,sans-Serif" font-size="10.00">StringItem</text>
</a>
</g>
</g>
<!-- Node9&#45;&gt;Node2 -->
<g id="edge8" class="edge"><title>Node9&#45;&gt;Node2</title>
<path fill="none" stroke="#9a32cd" stroke-dasharray="5,2" d="M684.059,-389.228C719.831,-393.242 773.589,-399.865 820,-408 832.622,-410.213 846.45,-413.165 858.321,-415.864"/>
<polygon fill="#9a32cd" stroke="#9a32cd" points="684.341,-385.738 674.016,-388.116 683.571,-392.695 684.341,-385.738"/>
<text text-anchor="middle" x="769" y="-411" font-family="Helvetica,sans-Serif" font-size="10.00"> StringItemP</text>
</g>
<!-- Node10 -->
<g id="node10" class="node"><title>Node10</title>
<g id="a_node10"><a xlink:href="structpkgCache_1_1Provides.xhtml" target="_top" xlink:title="handles virtual packages ">
<polygon fill="white" stroke="black" points="615.5,-337.5 615.5,-356.5 670.5,-356.5 670.5,-337.5 615.5,-337.5"/>
<text text-anchor="middle" x="643" y="-344.5" font-family="Helvetica,sans-Serif" font-size="10.00">Provides</text>
</a>
</g>
</g>
<!-- Node10&#45;&gt;Node2 -->
<g id="edge9" class="edge"><title>Node10&#45;&gt;Node2</title>
<path fill="none" stroke="#9a32cd" stroke-dasharray="5,2" d="M680.692,-349.452C717.117,-352.85 774.009,-360.786 820,-379 841.441,-387.491 863.318,-403.161 876.273,-413.326"/>
<polygon fill="#9a32cd" stroke="#9a32cd" points="680.798,-345.948 670.533,-348.573 680.194,-352.922 680.798,-345.948"/>
<text text-anchor="middle" x="769" y="-382" font-family="Helvetica,sans-Serif" font-size="10.00"> ProvideP</text>
</g>
<!-- Node11 -->
<g id="node11" class="node"><title>Node11</title>
<g id="a_node11"><a xlink:title="STL class. ">
<polygon fill="white" stroke="#bfbfbf" points="227.5,-121.5 227.5,-140.5 268.5,-140.5 268.5,-121.5 227.5,-121.5"/>
<text text-anchor="middle" x="248" y="-128.5" font-family="Helvetica,sans-Serif" font-size="10.00">string</text>
</a>
</g>
</g>
<!-- Node11&#45;&gt;Node2 -->
<g id="edge10" class="edge"><title>Node11&#45;&gt;Node2</title>
<path fill="none" stroke="#9a32cd" stroke-dasharray="5,2" d="M275.275,-145.475C331.078,-175.745 466.134,-246.527 586,-290 687.036,-326.644 727.514,-296.252 820,-351 847.52,-367.291 870.947,-397.917 881.701,-413.448"/>
<polygon fill="#9a32cd" stroke="#9a32cd" points="276.86,-142.352 266.405,-140.641 273.511,-148.499 276.86,-142.352"/>
<text text-anchor="middle" x="543" y="-287" font-family="Helvetica,sans-Serif" font-size="10.00"> CacheFile</text>
</g>
<!-- Node19 -->
<g id="node19" class="node"><title>Node19</title>
<g id="a_node19"><a xlink:href="classFileFd.xhtml" target="_top" xlink:title="FileFd">
<polygon fill="white" stroke="black" points="447,-622.5 447,-641.5 491,-641.5 491,-622.5 447,-622.5"/>
<text text-anchor="middle" x="469" y="-629.5" font-family="Helvetica,sans-Serif" font-size="10.00">FileFd</text>
</a>
</g>
</g>
<!-- Node11&#45;&gt;Node19 -->
<g id="edge20" class="edge"><title>Node11&#45;&gt;Node19</title>
<path fill="none" stroke="#9a32cd" stroke-dasharray="5,2" d="M256.56,-149.998C270.376,-184.575 300.79,-260.03 328,-323 379.395,-441.94 445.848,-584.656 463.522,-622.443"/>
<polygon fill="#9a32cd" stroke="#9a32cd" points="259.783,-148.631 252.827,-140.639 253.281,-151.224 259.783,-148.631"/>
<text text-anchor="middle" x="374" y="-537" font-family="Helvetica,sans-Serif" font-size="10.00"> TemporaryFileName</text>
<text text-anchor="middle" x="374" y="-526" font-family="Helvetica,sans-Serif" font-size="10.00">FileName</text>
</g>
<!-- Node26 -->
<g id="node26" class="node"><title>Node26</title>
<g id="a_node26"><a xlink:href="structpkgPolicy_1_1Pin.xhtml" target="_top" xlink:title="Pin">
<polygon fill="white" stroke="black" points="453.5,-121.5 453.5,-140.5 484.5,-140.5 484.5,-121.5 453.5,-121.5"/>
<text text-anchor="middle" x="469" y="-128.5" font-family="Helvetica,sans-Serif" font-size="10.00">Pin</text>
</a>
</g>
</g>
<!-- Node11&#45;&gt;Node26 -->
<g id="edge31" class="edge"><title>Node11&#45;&gt;Node26</title>
<path fill="none" stroke="#9a32cd" stroke-dasharray="5,2" d="M278.832,-131C326.461,-131 417.922,-131 453.417,-131"/>
<polygon fill="#9a32cd" stroke="#9a32cd" points="278.821,-127.5 268.821,-131 278.821,-134.5 278.821,-127.5"/>
<text text-anchor="middle" x="374" y="-134" font-family="Helvetica,sans-Serif" font-size="10.00"> Data</text>
</g>
<!-- Node28 -->
<g id="node28" class="node"><title>Node28</title>
<g id="a_node28"><a xlink:href="structpkgPolicy_1_1PkgPin.xhtml" target="_top" xlink:title="PkgPin">
<polygon fill="white" stroke="black" points="619,-74.5 619,-93.5 667,-93.5 667,-74.5 619,-74.5"/>
<text text-anchor="middle" x="643" y="-81.5" font-family="Helvetica,sans-Serif" font-size="10.00">PkgPin</text>
</a>
</g>
</g>
<!-- Node11&#45;&gt;Node28 -->
<g id="edge36" class="edge"><title>Node11&#45;&gt;Node28</title>
<path fill="none" stroke="#9a32cd" stroke-dasharray="5,2" d="M278.651,-125.594C315.786,-118.986 381.412,-107.839 438,-101 503.449,-93.0896 581.16,-87.7171 618.998,-85.358"/>
<polygon fill="#9a32cd" stroke="#9a32cd" points="277.748,-122.2 268.523,-127.41 278.984,-129.09 277.748,-122.2"/>
<text text-anchor="middle" x="469" y="-104" font-family="Helvetica,sans-Serif" font-size="10.00"> Pkg</text>
</g>
<!-- Node31 -->
<g id="node31" class="node"><title>Node31</title>
<g id="a_node31"><a xlink:href="classmetaIndex.xhtml" target="_top" xlink:title="metaIndex">
<polygon fill="white" stroke="black" points="438,-25.5 438,-44.5 500,-44.5 500,-25.5 438,-25.5"/>
<text text-anchor="middle" x="469" y="-32.5" font-family="Helvetica,sans-Serif" font-size="10.00">metaIndex</text>
</a>
</g>
</g>
<!-- Node11&#45;&gt;Node31 -->
<g id="edge42" class="edge"><title>Node11&#45;&gt;Node31</title>
<path fill="none" stroke="#9a32cd" stroke-dasharray="5,2" d="M259.836,-112.555C273.04,-92.0112 297.42,-59.7551 328,-45 362.895,-28.1632 408.45,-28.3833 437.962,-30.9673"/>
<polygon fill="#9a32cd" stroke="#9a32cd" points="256.701,-110.971 254.423,-121.318 262.656,-114.649 256.701,-110.971"/>
<text text-anchor="middle" x="374" y="-59" font-family="Helvetica,sans-Serif" font-size="10.00"> Dist</text>
<text text-anchor="middle" x="374" y="-48" font-family="Helvetica,sans-Serif" font-size="10.00">URI</text>
</g>
<!-- Node12 -->
<g id="node12" class="node"><title>Node12</title>
<g id="a_node12"><a xlink:title="STL class. ">
<polygon fill="white" stroke="#bfbfbf" points="0,-121.5 0,-140.5 106,-140.5 106,-121.5 0,-121.5"/>
<text text-anchor="middle" x="53" y="-128.5" font-family="Helvetica,sans-Serif" font-size="10.00">basic_string&lt; char &gt;</text>
</a>
</g>
</g>
<!-- Node12&#45;&gt;Node11 -->
<g id="edge11" class="edge"><title>Node12&#45;&gt;Node11</title>
<path fill="none" stroke="midnightblue" d="M116.304,-131C154.707,-131 201.408,-131 227.302,-131"/>
<polygon fill="midnightblue" stroke="midnightblue" points="116.229,-127.5 106.229,-131 116.229,-134.5 116.229,-127.5"/>
</g>
<!-- Node13 -->
<g id="node13" class="node"><title>Node13</title>
<g id="a_node13"><a xlink:href="structpkgCache_1_1Group.xhtml" target="_top" xlink:title="groups architecture depending packages together ">
<polygon fill="white" stroke="black" points="621.5,-261.5 621.5,-280.5 664.5,-280.5 664.5,-261.5 621.5,-261.5"/>
<text text-anchor="middle" x="643" y="-268.5" font-family="Helvetica,sans-Serif" font-size="10.00">Group</text>
</a>
</g>
</g>
<!-- Node13&#45;&gt;Node2 -->
<g id="edge12" class="edge"><title>Node13&#45;&gt;Node2</title>
<path fill="none" stroke="#9a32cd" stroke-dasharray="5,2" d="M674.724,-263.605C713.196,-256.297 779.015,-250.505 820,-284 842.879,-302.698 825.653,-321.155 838,-348 849.64,-373.307 869.266,-399.681 880.145,-413.403"/>
<polygon fill="#9a32cd" stroke="#9a32cd" points="673.734,-260.235 664.642,-265.675 675.142,-267.092 673.734,-260.235"/>
<text text-anchor="middle" x="769" y="-287" font-family="Helvetica,sans-Serif" font-size="10.00"> GrpP</text>
</g>
<!-- Node14 -->
<g id="node14" class="node"><title>Node14</title>
<g id="a_node14"><a xlink:href="classpkgVersioningSystem.xhtml" target="_top" xlink:title="pkgVersioningSystem">
<polygon fill="white" stroke="black" points="587,-194.5 587,-213.5 699,-213.5 699,-194.5 587,-194.5"/>
<text text-anchor="middle" x="643" y="-201.5" font-family="Helvetica,sans-Serif" font-size="10.00">pkgVersioningSystem</text>
</a>
</g>
</g>
<!-- Node14&#45;&gt;Node2 -->
<g id="edge13" class="edge"><title>Node14&#45;&gt;Node2</title>
<path fill="none" stroke="#9a32cd" stroke-dasharray="5,2" d="M709.411,-210.867C752.922,-216.815 804.778,-227.024 820,-243 852.662,-277.278 820.487,-304.011 838,-348 848.188,-373.589 868,-399.442 879.388,-413.102"/>
<polygon fill="#9a32cd" stroke="#9a32cd" points="709.787,-207.386 699.416,-209.554 708.875,-214.327 709.787,-207.386"/>
<text text-anchor="middle" x="769" y="-246" font-family="Helvetica,sans-Serif" font-size="10.00"> VS</text>
</g>
<!-- Node14&#45;&gt;Node14 -->
<g id="edge14" class="edge"><title>Node14&#45;&gt;Node14</title>
<path fill="none" stroke="#9a32cd" stroke-dasharray="5,2" d="M624.482,-223.4C625.719,-228.315 631.892,-232 643,-232 660.773,-232 665.911,-222.565 658.413,-213.757"/>
<polygon fill="#9a32cd" stroke="#9a32cd" points="627.854,-224.349 627.587,-213.757 621.191,-222.203 627.854,-224.349"/>
<text text-anchor="middle" x="643" y="-235" font-family="Helvetica,sans-Serif" font-size="10.00"> GlobalList</text>
</g>
<!-- Node15 -->
<g id="node15" class="node"><title>Node15</title>
<g id="a_node15"><a xlink:href="structpkgCache_1_1Version.xhtml" target="_top" xlink:title="information for a single version of a package ">
<polygon fill="white" stroke="black" points="618,-679.5 618,-698.5 668,-698.5 668,-679.5 618,-679.5"/>
<text text-anchor="middle" x="643" y="-686.5" font-family="Helvetica,sans-Serif" font-size="10.00">Version</text>
</a>
</g>
</g>
<!-- Node15&#45;&gt;Node2 -->
<g id="edge15" class="edge"><title>Node15&#45;&gt;Node2</title>
<path fill="none" stroke="#9a32cd" stroke-dasharray="5,2" d="M678.227,-685.821C726.685,-680.985 810.496,-671.253 820,-661 853.196,-625.189 808.65,-481.026 838,-442 842.968,-435.395 850.524,-431.086 858.27,-428.275"/>
<polygon fill="#9a32cd" stroke="#9a32cd" points="677.786,-682.348 668.174,-686.805 678.468,-689.314 677.786,-682.348"/>
<text text-anchor="middle" x="769" y="-685" font-family="Helvetica,sans-Serif" font-size="10.00"> VerP</text>
</g>
<!-- Node16 -->
<g id="node16" class="node"><title>Node16</title>
<g id="a_node16"><a xlink:href="structpkgCache_1_1VerFile.xhtml" target="_top" xlink:title="associates a version with a PackageFile ">
<polygon fill="white" stroke="black" points="619.5,-641.5 619.5,-660.5 666.5,-660.5 666.5,-641.5 619.5,-641.5"/>
<text text-anchor="middle" x="643" y="-648.5" font-family="Helvetica,sans-Serif" font-size="10.00">VerFile</text>
</a>
</g>
</g>
<!-- Node16&#45;&gt;Node2 -->
<g id="edge16" class="edge"><title>Node16&#45;&gt;Node2</title>
<path fill="none" stroke="#9a32cd" stroke-dasharray="5,2" d="M676.89,-651.191C722.319,-650.704 800.848,-646.904 820,-627 848.639,-597.235 812.926,-474.824 838,-442 843.017,-435.432 850.589,-431.135 858.333,-428.323"/>
<polygon fill="#9a32cd" stroke="#9a32cd" points="676.629,-647.693 666.65,-651.251 676.67,-654.693 676.629,-647.693"/>
<text text-anchor="middle" x="769" y="-653" font-family="Helvetica,sans-Serif" font-size="10.00"> VerFileP</text>
</g>
<!-- Node17 -->
<g id="node17" class="node"><title>Node17</title>
<g id="a_node17"><a xlink:href="structpkgCache_1_1Package.xhtml" target="_top" xlink:title="contains information for a single unique package ">
<polygon fill="white" stroke="black" points="615.5,-603.5 615.5,-622.5 670.5,-622.5 670.5,-603.5 615.5,-603.5"/>
<text text-anchor="middle" x="643" y="-610.5" font-family="Helvetica,sans-Serif" font-size="10.00">Package</text>
</a>
</g>
</g>
<!-- Node17&#45;&gt;Node2 -->
<g id="edge17" class="edge"><title>Node17&#45;&gt;Node2</title>
<path fill="none" stroke="#9a32cd" stroke-dasharray="5,2" d="M680.845,-613.069C726.665,-612.321 801.164,-608.095 820,-589 866.223,-542.14 797.398,-493.806 838,-442 843.098,-435.495 850.695,-431.217 858.436,-428.403"/>
<polygon fill="#9a32cd" stroke="#9a32cd" points="680.658,-609.571 670.699,-613.186 680.739,-616.57 680.658,-609.571"/>
<text text-anchor="middle" x="769" y="-615" font-family="Helvetica,sans-Serif" font-size="10.00"> PkgP</text>
</g>
<!-- Node18 -->
<g id="node18" class="node"><title>Node18</title>
<g id="a_node18"><a xlink:href="classMMap.xhtml" target="_top" xlink:title="MMap">
<polygon fill="white" stroke="black" points="621,-717.5 621,-736.5 665,-736.5 665,-717.5 621,-717.5"/>
<text text-anchor="middle" x="643" y="-724.5" font-family="Helvetica,sans-Serif" font-size="10.00">MMap</text>
</a>
</g>
</g>
<!-- Node18&#45;&gt;Node1 -->
<g id="edge43" class="edge"><title>Node18&#45;&gt;Node1</title>
<path fill="none" stroke="#9a32cd" stroke-dasharray="5,2" d="M674.913,-733.418C710.846,-739.515 771.422,-745.531 820,-729 1021.56,-660.407 1202.36,-454.956 1241.97,-407.745"/>
<polygon fill="#9a32cd" stroke="#9a32cd" points="675.491,-729.966 665.028,-731.631 674.246,-736.854 675.491,-729.966"/>
<text text-anchor="middle" x="998" y="-662" font-family="Helvetica,sans-Serif" font-size="10.00"> Map</text>
</g>
<!-- Node18&#45;&gt;Node2 -->
<g id="edge18" class="edge"><title>Node18&#45;&gt;Node2</title>
<path fill="none" stroke="#9a32cd" stroke-dasharray="5,2" d="M675.247,-723.406C723.201,-717.584 810.434,-705.668 820,-695 857.629,-653.036 804.369,-487.232 838,-442 842.987,-435.293 850.647,-430.954 858.484,-428.146"/>
<polygon fill="#9a32cd" stroke="#9a32cd" points="674.606,-719.957 665.091,-724.619 675.436,-726.908 674.606,-719.957"/>
<text text-anchor="middle" x="769" y="-721" font-family="Helvetica,sans-Serif" font-size="10.00"> Map</text>
</g>
<!-- Node19&#45;&gt;Node18 -->
<g id="edge19" class="edge"><title>Node19&#45;&gt;Node18</title>
<path fill="none" stroke="#9a32cd" stroke-dasharray="5,2" d="M490.341,-647.626C512.79,-664.309 550.463,-690.678 586,-708 597.074,-713.398 610.071,-717.91 620.755,-721.181"/>
<polygon fill="#9a32cd" stroke="#9a32cd" points="492.343,-644.752 482.247,-641.538 488.135,-650.346 492.343,-644.752"/>
<text text-anchor="middle" x="543" y="-701" font-family="Helvetica,sans-Serif" font-size="10.00"> SyncToFd</text>
</g>
<!-- Node20&#45;&gt;Node1 -->
<g id="edge21" class="edge"><title>Node20&#45;&gt;Node1</title>
<path fill="none" stroke="#9a32cd" stroke-dasharray="5,2" d="M1144.24,-424.958C1166.26,-419.346 1192.08,-412.765 1212.69,-407.509"/>
<polygon fill="#9a32cd" stroke="#9a32cd" points="1143.25,-421.598 1134.43,-427.46 1144.98,-428.381 1143.25,-421.598"/>
<text text-anchor="middle" x="1174" y="-426" font-family="Helvetica,sans-Serif" font-size="10.00"> DCache</text>
</g>
<!-- Node21 -->
<g id="node21" class="node"><title>Node21</title>
<g id="a_node21"><a xlink:href="classpkgCache_1_1Namespace.xhtml" target="_top" xlink:title="Namespace">
<polygon fill="white" stroke="black" points="854.5,-451.5 854.5,-470.5 923.5,-470.5 923.5,-451.5 854.5,-451.5"/>
<text text-anchor="middle" x="889" y="-458.5" font-family="Helvetica,sans-Serif" font-size="10.00">Namespace</text>
</a>
</g>
</g>
<!-- Node21&#45;&gt;Node20 -->
<g id="edge22" class="edge"><title>Node21&#45;&gt;Node20</title>
<path fill="none" stroke="darkgreen" d="M933.581,-457.792C963.116,-455.394 1002.99,-451.719 1038,-447 1043.97,-446.195 1050.28,-445.218 1056.43,-444.193"/>
<polygon fill="darkgreen" stroke="darkgreen" points="933.282,-454.305 923.591,-458.587 933.837,-461.283 933.282,-454.305"/>
</g>
<!-- Node22 -->
<g id="node22" class="node"><title>Node22</title>
<g id="a_node22"><a xlink:href="classpkgDepCache_1_1Policy.xhtml" target="_top" xlink:title="Policy">
<polygon fill="white" stroke="black" points="867,-319.5 867,-338.5 911,-338.5 911,-319.5 867,-319.5"/>
<text text-anchor="middle" x="889" y="-326.5" font-family="Helvetica,sans-Serif" font-size="10.00">Policy</text>
</a>
</g>
</g>
<!-- Node22&#45;&gt;Node20 -->
<g id="edge23" class="edge"><title>Node22&#45;&gt;Node20</title>
<path fill="none" stroke="#9a32cd" stroke-dasharray="5,2" d="M920.06,-342.826C950.26,-356.949 997.941,-379.884 1038,-402 1039.06,-402.586 1062.99,-417.302 1079.51,-427.463"/>
<polygon fill="#9a32cd" stroke="#9a32cd" points="921.444,-339.61 910.901,-338.563 918.489,-345.956 921.444,-339.61"/>
<text text-anchor="middle" x="998" y="-416" font-family="Helvetica,sans-Serif" font-size="10.00"> LocalPolicy</text>
<text text-anchor="middle" x="998" y="-405" font-family="Helvetica,sans-Serif" font-size="10.00">delLocalPolicy</text>
</g>
<!-- Node22&#45;&gt;Node24 -->
<g id="edge27" class="edge"><title>Node22&#45;&gt;Node24</title>
<path fill="none" stroke="midnightblue" d="M913.935,-313.96C926.848,-306.001 943.143,-296.205 958,-288 998.797,-265.47 1047.84,-241.499 1074.79,-228.585"/>
<polygon fill="midnightblue" stroke="midnightblue" points="911.85,-311.134 905.199,-319.381 915.542,-317.082 911.85,-311.134"/>
</g>
<!-- Node23 -->
<g id="node23" class="node"><title>Node23</title>
<g id="a_node23"><a xlink:href="structpkgDepCache_1_1StateCache.xhtml" target="_top" xlink:title="StateCache">
<polygon fill="white" stroke="black" points="855,-489.5 855,-508.5 923,-508.5 923,-489.5 855,-489.5"/>
<text text-anchor="middle" x="889" y="-496.5" font-family="Helvetica,sans-Serif" font-size="10.00">StateCache</text>
</a>
</g>
</g>
<!-- Node23&#45;&gt;Node20 -->
<g id="edge25" class="edge"><title>Node23&#45;&gt;Node20</title>
<path fill="none" stroke="#9a32cd" stroke-dasharray="5,2" d="M933.131,-492.337C963.094,-486.998 1003.65,-478.345 1038,-466 1052.42,-460.818 1067.86,-452.796 1079.02,-446.501"/>
<polygon fill="#9a32cd" stroke="#9a32cd" points="932.26,-488.935 923.002,-494.088 933.452,-495.833 932.26,-488.935"/>
<text text-anchor="middle" x="998" y="-491" font-family="Helvetica,sans-Serif" font-size="10.00"> PkgState</text>
</g>
<!-- Node24&#45;&gt;Node1 -->
<g id="edge26" class="edge"><title>Node24&#45;&gt;Node1</title>
<path fill="none" stroke="#9a32cd" stroke-dasharray="5,2" d="M1112.03,-236.587C1143.85,-273.808 1217.09,-359.492 1241.73,-388.329"/>
<polygon fill="#9a32cd" stroke="#9a32cd" points="1114.38,-233.951 1105.23,-228.624 1109.06,-238.499 1114.38,-233.951"/>
<text text-anchor="middle" x="1174" y="-333" font-family="Helvetica,sans-Serif" font-size="10.00"> Policy</text>
</g>
<!-- Node25 -->
<g id="node25" class="node"><title>Node25</title>
<polygon fill="white" stroke="#bfbfbf" points="718.5,-167 718.5,-197 819.5,-197 819.5,-167 718.5,-167"/>
<text text-anchor="start" x="726.5" y="-185" font-family="Helvetica,sans-Serif" font-size="10.00">vector&lt; pkgPolicy::</text>
<text text-anchor="middle" x="769" y="-174" font-family="Helvetica,sans-Serif" font-size="10.00">Pin &gt;</text>
</g>
<!-- Node25&#45;&gt;Node24 -->
<g id="edge29" class="edge"><title>Node25&#45;&gt;Node24</title>
<path fill="none" stroke="#9a32cd" stroke-dasharray="5,2" d="M829.73,-188.8C899.827,-196.78 1013.19,-209.687 1066.09,-215.709"/>
<polygon fill="#9a32cd" stroke="#9a32cd" points="830.046,-185.313 819.714,-187.66 829.254,-192.269 830.046,-185.313"/>
<text text-anchor="middle" x="889" y="-205" font-family="Helvetica,sans-Serif" font-size="10.00"> Defaults</text>
</g>
<!-- Node26&#45;&gt;Node24 -->
<g id="edge32" class="edge"><title>Node26&#45;&gt;Node24</title>
<path fill="none" stroke="#9a32cd" stroke-dasharray="5,2" d="M495.091,-130.364C552.79,-129.274 699.223,-128.632 820,-146 918.801,-160.208 942.133,-172.196 1038,-200 1047.82,-202.847 1058.47,-206.299 1067.88,-209.475"/>
<polygon fill="#9a32cd" stroke="#9a32cd" points="494.692,-126.872 484.768,-130.583 494.84,-133.87 494.692,-126.872"/>
<text text-anchor="middle" x="769" y="-149" font-family="Helvetica,sans-Serif" font-size="10.00"> Pins</text>
</g>
<!-- Node26&#45;&gt;Node25 -->
<g id="edge30" class="edge"><title>Node26&#45;&gt;Node25</title>
<path fill="none" stroke="#9a32cd" stroke-dasharray="5,2" d="M494.258,-138.145C501.82,-140.217 510.217,-142.36 518,-144 586.948,-158.528 667.709,-169.776 718.369,-176.146"/>
<polygon fill="#9a32cd" stroke="#9a32cd" points="495.176,-134.767 484.601,-135.418 493.273,-141.504 495.176,-134.767"/>
<text text-anchor="middle" x="543" y="-157" font-family="Helvetica,sans-Serif" font-size="10.00"> elements</text>
</g>
<!-- Node26&#45;&gt;Node28 -->
<g id="edge35" class="edge"><title>Node26&#45;&gt;Node28</title>
<path fill="none" stroke="midnightblue" d="M494.453,-124.318C527.574,-115.268 586.276,-99.2268 618.759,-90.3508"/>
<polygon fill="midnightblue" stroke="midnightblue" points="493.388,-120.981 484.665,-126.993 495.234,-127.733 493.388,-120.981"/>
</g>
<!-- Node27 -->
<g id="node27" class="node"><title>Node27</title>
<polygon fill="white" stroke="#bfbfbf" points="838.5,-69 838.5,-99 939.5,-99 939.5,-69 838.5,-69"/>
<text text-anchor="start" x="846.5" y="-87" font-family="Helvetica,sans-Serif" font-size="10.00">vector&lt; pkgPolicy::</text>
<text text-anchor="middle" x="889" y="-76" font-family="Helvetica,sans-Serif" font-size="10.00">PkgPin &gt;</text>
</g>
<!-- Node27&#45;&gt;Node24 -->
<g id="edge33" class="edge"><title>Node27&#45;&gt;Node24</title>
<path fill="none" stroke="#9a32cd" stroke-dasharray="5,2" d="M949.617,-79.0796C978.691,-79.6223 1012.74,-84.9356 1038,-103 1074.87,-129.369 1089.04,-186.348 1093.38,-209.213"/>
<polygon fill="#9a32cd" stroke="#9a32cd" points="949.566,-75.5796 939.563,-79.0735 949.561,-82.5796 949.566,-75.5796"/>
<text text-anchor="middle" x="998" y="-106" font-family="Helvetica,sans-Serif" font-size="10.00"> Unmatched</text>
</g>
<!-- Node28&#45;&gt;Node27 -->
<g id="edge34" class="edge"><title>Node28&#45;&gt;Node27</title>
<path fill="none" stroke="#9a32cd" stroke-dasharray="5,2" d="M677.537,-84C719.081,-84 790.225,-84 838.163,-84"/>
<polygon fill="#9a32cd" stroke="#9a32cd" points="677.396,-80.5001 667.396,-84 677.396,-87.5001 677.396,-80.5001"/>
<text text-anchor="middle" x="769" y="-87" font-family="Helvetica,sans-Serif" font-size="10.00"> elements</text>
</g>
<!-- Node29 -->
<g id="node29" class="node"><title>Node29</title>
<g id="a_node29"><a xlink:href="classpkgSourceList.xhtml" target="_top" xlink:title="pkgSourceList">
<polygon fill="white" stroke="black" points="958.5,-36.5 958.5,-55.5 1037.5,-55.5 1037.5,-36.5 958.5,-36.5"/>
<text text-anchor="middle" x="998" y="-43.5" font-family="Helvetica,sans-Serif" font-size="10.00">pkgSourceList</text>
</a>
</g>
</g>
<!-- Node29&#45;&gt;Node1 -->
<g id="edge37" class="edge"><title>Node29&#45;&gt;Node1</title>
<path fill="none" stroke="#9a32cd" stroke-dasharray="5,2" d="M1020.96,-61.6603C1026.69,-66.0782 1032.74,-71.0388 1038,-76 1122.07,-155.276 1138.36,-182.722 1194,-284 1214.81,-321.879 1236.58,-368.581 1245.64,-388.391"/>
<polygon fill="#9a32cd" stroke="#9a32cd" points="1023,-58.8222 1012.9,-55.6391 1018.81,-64.4293 1023,-58.8222"/>
<text text-anchor="middle" x="1096" y="-188" font-family="Helvetica,sans-Serif" font-size="10.00"> SrcList</text>
</g>
<!-- Node30 -->
<g id="node30" class="node"><title>Node30</title>
<polygon fill="white" stroke="#bfbfbf" points="586,-27.5 586,-46.5 700,-46.5 700,-27.5 586,-27.5"/>
<text text-anchor="middle" x="643" y="-34.5" font-family="Helvetica,sans-Serif" font-size="10.00">vector&lt; metaIndex * &gt;</text>
</g>
<!-- Node30&#45;&gt;Node29 -->
<g id="edge38" class="edge"><title>Node30&#45;&gt;Node29</title>
<path fill="none" stroke="#9a32cd" stroke-dasharray="5,2" d="M710.356,-38.6918C783.498,-40.5566 898.677,-43.4932 958.323,-45.0139"/>
<polygon fill="#9a32cd" stroke="#9a32cd" points="710.41,-35.1921 700.324,-38.436 710.232,-42.1899 710.41,-35.1921"/>
<text text-anchor="middle" x="769" y="-45" font-family="Helvetica,sans-Serif" font-size="10.00"> SrcList</text>
</g>
<!-- Node31&#45;&gt;Node30 -->
<g id="edge39" class="edge"><title>Node31&#45;&gt;Node30</title>
<path fill="none" stroke="#9a32cd" stroke-dasharray="5,2" d="M510.558,-35.4716C533.035,-35.733 561.322,-36.0619 585.892,-36.3476"/>
<polygon fill="#9a32cd" stroke="#9a32cd" points="510.394,-31.9696 500.354,-35.353 510.313,-38.9691 510.394,-31.9696"/>
<text text-anchor="middle" x="543" y="-40" font-family="Helvetica,sans-Serif" font-size="10.00"> elements</text>
</g>
<!-- Node32 -->
<g id="node32" class="node"><title>Node32</title>
<polygon fill="white" stroke="#bfbfbf" points="186,-0.5 186,-19.5 310,-19.5 310,-0.5 186,-0.5"/>
<text text-anchor="middle" x="248" y="-7.5" font-family="Helvetica,sans-Serif" font-size="10.00">vector&lt; pkgIndexFile * &gt;</text>
</g>
<!-- Node32&#45;&gt;Node31 -->
<g id="edge40" class="edge"><title>Node32&#45;&gt;Node31</title>
<path fill="none" stroke="#9a32cd" stroke-dasharray="5,2" d="M320.623,-3.22064C351.573,-2.12998 387.963,-3.33802 420,-11 431.78,-13.8172 443.974,-19.9622 453.123,-25.3286"/>
<polygon fill="#9a32cd" stroke="#9a32cd" points="320.186,0.263611 310.349,-3.67264 320.493,-6.72962 320.186,0.263611"/>
<text text-anchor="middle" x="374" y="-14" font-family="Helvetica,sans-Serif" font-size="10.00"> Indexes</text>
</g>
<!-- Node33 -->
<g id="node33" class="node"><title>Node33</title>
<g id="a_node33"><a xlink:href="classpkgIndexFile.xhtml" target="_top" xlink:title="pkgIndexFile">
<polygon fill="white" stroke="black" points="17,-0.5 17,-19.5 89,-19.5 89,-0.5 17,-0.5"/>
<text text-anchor="middle" x="53" y="-7.5" font-family="Helvetica,sans-Serif" font-size="10.00">pkgIndexFile</text>
</a>
</g>
</g>
<!-- Node33&#45;&gt;Node32 -->
<g id="edge41" class="edge"><title>Node33&#45;&gt;Node32</title>
<path fill="none" stroke="#9a32cd" stroke-dasharray="5,2" d="M99.6071,-10C125.304,-10 157.746,-10 185.648,-10"/>
<polygon fill="#9a32cd" stroke="#9a32cd" points="99.3992,-6.5001 89.3992,-10 99.3991,-13.5001 99.3992,-6.5001"/>
<text text-anchor="middle" x="146" y="-13" font-family="Helvetica,sans-Serif" font-size="10.00"> elements</text>
</g>
</g>
</svg>
