<?xml version="1.0" encoding="UTF-8" standalone="no"?>
<!DOCTYPE svg PUBLIC "-//W3C//DTD SVG 1.1//EN"
 "http://www.w3.org/Graphics/SVG/1.1/DTD/svg11.dtd">
<!-- Generated by graphviz version 2.36.0 (20140111.2315)
 -->
<!-- Title: OpTextProgress Pages: 1 -->
<svg width="161pt" height="222pt"
 viewBox="0.00 0.00 161.00 222.00" xmlns="http://www.w3.org/2000/svg" xmlns:xlink="http://www.w3.org/1999/xlink">
<g id="graph0" class="graph" transform="scale(1 1) rotate(0) translate(4 218)">
<title>OpTextProgress</title>
<polygon fill="white" stroke="none" points="-4,4 -4,-218 157,-218 157,4 -4,4"/>
<!-- Node1 -->
<g id="node1" class="node"><title>Node1</title>
<polygon fill="#bfbfbf" stroke="black" points="19,-0.5 19,-19.5 107,-19.5 107,-0.5 19,-0.5"/>
<text text-anchor="middle" x="63" y="-7.5" font-family="Helvetica,sans-Serif" font-size="10.00">OpTextProgress</text>
</g>
<!-- Node2 -->
<g id="node2" class="node"><title>Node2</title>
<g id="a_node2"><a xlink:href="classOpProgress.xhtml" target="_top" xlink:title="OpProgress">
<polygon fill="white" stroke="black" points="85,-58.5 85,-77.5 153,-77.5 153,-58.5 85,-58.5"/>
<text text-anchor="middle" x="119" y="-65.5" font-family="Helvetica,sans-Serif" font-size="10.00">OpProgress</text>
</a>
</g>
</g>
<!-- Node2&#45;&gt;Node1 -->
<g id="edge1" class="edge"><title>Node2&#45;&gt;Node1</title>
<path fill="none" stroke="midnightblue" d="M103.042,-51.0416C92.7786,-40.7786 79.8492,-27.8492 71.5052,-19.5052"/>
<polygon fill="midnightblue" stroke="midnightblue" points="100.704,-53.6538 110.25,-58.25 105.654,-48.704 100.704,-53.6538"/>
</g>
<!-- Node3 -->
<g id="node3" class="node"><title>Node3</title>
<g id="a_node3"><a xlink:title="STL class. ">
<polygon fill="white" stroke="#bfbfbf" points="31.5,-136.5 31.5,-155.5 72.5,-155.5 72.5,-136.5 31.5,-136.5"/>
<text text-anchor="middle" x="52" y="-143.5" font-family="Helvetica,sans-Serif" font-size="10.00">string</text>
</a>
</g>
</g>
<!-- Node3&#45;&gt;Node1 -->
<g id="edge4" class="edge"><title>Node3&#45;&gt;Node1</title>
<path fill="none" stroke="#9a32cd" stroke-dasharray="5,2" d="M47.7018,-126.391C44.2683,-108.676 40.6846,-81.3341 45,-58 47.5742,-44.081 54.0985,-28.957 58.5428,-19.727"/>
<polygon fill="#9a32cd" stroke="#9a32cd" points="44.3005,-127.223 49.8001,-136.279 51.148,-125.77 44.3005,-127.223"/>
<text text-anchor="middle" x="60.5" y="-65.5" font-family="Helvetica,sans-Serif" font-size="10.00"> OldOp</text>
</g>
<!-- Node3&#45;&gt;Node2 -->
<g id="edge2" class="edge"><title>Node3&#45;&gt;Node2</title>
<path fill="none" stroke="#9a32cd" stroke-dasharray="5,2" d="M66.5971,-128.442C80.3941,-112.792 100.55,-89.9282 111.404,-77.6165"/>
<polygon fill="#9a32cd" stroke="#9a32cd" points="63.6733,-126.466 59.6858,-136.282 68.9242,-131.095 63.6733,-126.466"/>
<text text-anchor="middle" x="110" y="-110" font-family="Helvetica,sans-Serif" font-size="10.00"> SubOp</text>
<text text-anchor="middle" x="110" y="-99" font-family="Helvetica,sans-Serif" font-size="10.00">Op</text>
</g>
<!-- Node4 -->
<g id="node4" class="node"><title>Node4</title>
<g id="a_node4"><a xlink:title="STL class. ">
<polygon fill="white" stroke="#bfbfbf" points="-1,-194.5 -1,-213.5 105,-213.5 105,-194.5 -1,-194.5"/>
<text text-anchor="middle" x="52" y="-201.5" font-family="Helvetica,sans-Serif" font-size="10.00">basic_string&lt; char &gt;</text>
</a>
</g>
</g>
<!-- Node4&#45;&gt;Node3 -->
<g id="edge3" class="edge"><title>Node4&#45;&gt;Node3</title>
<path fill="none" stroke="midnightblue" d="M52,-183.953C52,-174.287 52,-163.031 52,-155.505"/>
<polygon fill="midnightblue" stroke="midnightblue" points="48.5001,-184.25 52,-194.25 55.5001,-184.25 48.5001,-184.25"/>
</g>
</g>
</svg>
