<?xml version="1.0" encoding="UTF-8" standalone="no"?>
<!DOCTYPE svg PUBLIC "-//W3C//DTD SVG 1.1//EN"
 "http://www.w3.org/Graphics/SVG/1.1/DTD/svg11.dtd">
<!-- Generated by graphviz version 2.36.0 (20140111.2315)
 -->
<!-- Title: edspIndex Pages: 1 -->
<svg width="172pt" height="212pt"
 viewBox="0.00 0.00 172.00 212.00" xmlns="http://www.w3.org/2000/svg" xmlns:xlink="http://www.w3.org/1999/xlink">
<g id="graph0" class="graph" transform="scale(1 1) rotate(0) translate(4 208)">
<title>edspIndex</title>
<polygon fill="white" stroke="none" points="-4,4 -4,-208 168,-208 168,4 -4,4"/>
<!-- Node1 -->
<g id="node1" class="node"><title>Node1</title>
<polygon fill="#bfbfbf" stroke="black" points="32,-0.5 32,-19.5 94,-19.5 94,-0.5 32,-0.5"/>
<text text-anchor="middle" x="63" y="-7.5" font-family="Helvetica,sans-Serif" font-size="10.00">edspIndex</text>
</g>
<!-- Node2 -->
<g id="node2" class="node"><title>Node2</title>
<g id="a_node2"><a xlink:href="classdebStatusIndex.xhtml" target="_top" xlink:title="debStatusIndex">
<polygon fill="white" stroke="black" points="20.5,-58.5 20.5,-77.5 105.5,-77.5 105.5,-58.5 20.5,-58.5"/>
<text text-anchor="middle" x="63" y="-65.5" font-family="Helvetica,sans-Serif" font-size="10.00">debStatusIndex</text>
</a>
</g>
</g>
<!-- Node2&#45;&gt;Node1 -->
<g id="edge1" class="edge"><title>Node2&#45;&gt;Node1</title>
<path fill="none" stroke="midnightblue" d="M63,-47.953C63,-38.2875 63,-27.0312 63,-19.5052"/>
<polygon fill="midnightblue" stroke="midnightblue" points="59.5001,-48.25 63,-58.25 66.5001,-48.25 59.5001,-48.25"/>
</g>
<!-- Node3 -->
<g id="node3" class="node"><title>Node3</title>
<g id="a_node3"><a xlink:href="classpkgIndexFile.xhtml" target="_top" xlink:title="pkgIndexFile">
<polygon fill="white" stroke="black" points="0,-126.5 0,-145.5 72,-145.5 72,-126.5 0,-126.5"/>
<text text-anchor="middle" x="36" y="-133.5" font-family="Helvetica,sans-Serif" font-size="10.00">pkgIndexFile</text>
</a>
</g>
</g>
<!-- Node3&#45;&gt;Node2 -->
<g id="edge2" class="edge"><title>Node3&#45;&gt;Node2</title>
<path fill="none" stroke="midnightblue" d="M43.4428,-116.807C48.6309,-104.124 55.3248,-87.7615 59.3832,-77.8411"/>
<polygon fill="midnightblue" stroke="midnightblue" points="40.0768,-115.791 39.5298,-126.372 46.5556,-118.441 40.0768,-115.791"/>
</g>
<!-- Node4 -->
<g id="node4" class="node"><title>Node4</title>
<g id="a_node4"><a xlink:title="STL class. ">
<polygon fill="white" stroke="#bfbfbf" points="90.5,-126.5 90.5,-145.5 131.5,-145.5 131.5,-126.5 90.5,-126.5"/>
<text text-anchor="middle" x="111" y="-133.5" font-family="Helvetica,sans-Serif" font-size="10.00">string</text>
</a>
</g>
</g>
<!-- Node4&#45;&gt;Node2 -->
<g id="edge3" class="edge"><title>Node4&#45;&gt;Node2</title>
<path fill="none" stroke="#9a32cd" stroke-dasharray="5,2" d="M98.5911,-117.938C89.2632,-105.112 76.8612,-88.0591 69.4299,-77.8411"/>
<polygon fill="#9a32cd" stroke="#9a32cd" points="96.0125,-120.343 104.725,-126.372 101.674,-116.226 96.0125,-120.343"/>
<text text-anchor="middle" x="100.5" y="-99.5" font-family="Helvetica,sans-Serif" font-size="10.00"> File</text>
</g>
<!-- Node5 -->
<g id="node5" class="node"><title>Node5</title>
<g id="a_node5"><a xlink:title="STL class. ">
<polygon fill="white" stroke="#bfbfbf" points="58,-184.5 58,-203.5 164,-203.5 164,-184.5 58,-184.5"/>
<text text-anchor="middle" x="111" y="-191.5" font-family="Helvetica,sans-Serif" font-size="10.00">basic_string&lt; char &gt;</text>
</a>
</g>
</g>
<!-- Node5&#45;&gt;Node4 -->
<g id="edge4" class="edge"><title>Node5&#45;&gt;Node4</title>
<path fill="none" stroke="midnightblue" d="M111,-173.953C111,-164.287 111,-153.031 111,-145.505"/>
<polygon fill="midnightblue" stroke="midnightblue" points="107.5,-174.25 111,-184.25 114.5,-174.25 107.5,-174.25"/>
</g>
</g>
</svg>
