<?xml version="1.0" encoding="UTF-8" standalone="no"?>
<!DOCTYPE svg PUBLIC "-//W3C//DTD SVG 1.1//EN"
 "http://www.w3.org/Graphics/SVG/1.1/DTD/svg11.dtd">
<!-- Generated by graphviz version 2.36.0 (20140111.2315)
 -->
<!-- Title: pkgPackageManager Pages: 1 -->
<!--zoomable 679 -->
<svg id="main" version="1.1" xmlns="http://www.w3.org/2000/svg" xmlns:xlink="http://www.w3.org/1999/xlink" xml:space="preserve" onload="init(evt)">
<style type="text/css"><![CDATA[
.edge:hover path { stroke: red; }
.edge:hover polygon { stroke: red; fill: red; }
]]></style>
<script type="text/javascript"><![CDATA[
var edges = document.getElementsByTagName('g');
if (edges && edges.length) {
  for (var i=0;i<edges.length;i++) {
    if (edges[i].id.substr(0,4)=='edge') {
      edges[i].setAttribute('class','edge');
    }
  }
}
]]></script>
        <defs>
                <circle id="rim" cx="0" cy="0" r="7"/>
                <circle id="rim2" cx="0" cy="0" r="3.5"/>
                <g id="zoomPlus">
                        <use xlink:href="#rim" fill="#404040">
                                <set attributeName="fill" to="#808080" begin="zoomplus.mouseover" end="zoomplus.mouseout"/>
                        </use>
                        <path d="M-4,0h8M0,-4v8" fill="none" stroke="white" stroke-width="1.5" pointer-events="none"/>
                </g>
                <g id="zoomMin">
                        <use xlink:href="#rim" fill="#404040">
                                <set attributeName="fill" to="#808080" begin="zoomminus.mouseover" end="zoomminus.mouseout"/>
                        </use>
                        <path d="M-4,0h8" fill="none" stroke="white" stroke-width="1.5" pointer-events="none"/>
                </g>
                <g id="dirArrow">
                        <path fill="none" stroke="white" stroke-width="1.5" d="M0,-3.0v7 M-2.5,-0.5L0,-3.0L2.5,-0.5"/>
                </g>
               <g id="resetDef">
                       <use xlink:href="#rim2" fill="#404040">
                               <set attributeName="fill" to="#808080" begin="reset.mouseover" end="reset.mouseout"/>
                       </use>
               </g>
        </defs>

<script type="text/javascript">
var viewWidth = 1268;
var viewHeight = 679;
var sectionId = 'dynsection-1';
</script>
<script xlink:href="svgpan.js"/>
<svg id="graph" class="graph">
<g id="viewport">
<title>pkgPackageManager</title>
<polygon fill="white" stroke="none" points="-4,4 -4,-675.143 1264,-675.143 1264,4 -4,4"/>
<!-- Node1 -->
<g id="node1" class="node"><title>Node1</title>
<polygon fill="#bfbfbf" stroke="black" points="1152,-291.643 1152,-310.643 1260,-310.643 1260,-291.643 1152,-291.643"/>
<text text-anchor="middle" x="1206" y="-298.643" font-family="Helvetica,sans-Serif" font-size="10.00">pkgPackageManager</text>
</g>
<!-- Node2 -->
<g id="node2" class="node"><title>Node2</title>
<g id="a_node2"><a xlink:href="classpkgCache_1_1Namespace.xhtml" target="_top" xlink:title="Namespace">
<polygon fill="white" stroke="black" points="690.5,-359.643 690.5,-378.643 759.5,-378.643 759.5,-359.643 690.5,-359.643"/>
<text text-anchor="middle" x="725" y="-366.643" font-family="Helvetica,sans-Serif" font-size="10.00">Namespace</text>
</a>
</g>
</g>
<!-- Node2&#45;&gt;Node1 -->
<g id="edge1" class="edge"><title>Node2&#45;&gt;Node1</title>
<path fill="none" stroke="darkgreen" d="M767.618,-381.258C837.669,-399.49 982.592,-427.853 1096,-388.143 1140.79,-372.46 1180.89,-329.794 1197.23,-310.656"/>
<polygon fill="darkgreen" stroke="darkgreen" points="768.403,-377.845 757.839,-378.651 766.6,-384.609 768.403,-377.845"/>
</g>
<!-- Node3 -->
<g id="node3" class="node"><title>Node3</title>
<g id="a_node3"><a xlink:href="classpkgOrderList.xhtml" target="_top" xlink:title="pkgOrderList">
<polygon fill="white" stroke="black" points="1024,-330.643 1024,-349.643 1096,-349.643 1096,-330.643 1024,-330.643"/>
<text text-anchor="middle" x="1060" y="-337.643" font-family="Helvetica,sans-Serif" font-size="10.00">pkgOrderList</text>
</a>
</g>
</g>
<!-- Node2&#45;&gt;Node3 -->
<g id="edge3" class="edge"><title>Node2&#45;&gt;Node3</title>
<path fill="none" stroke="darkgreen" d="M769.968,-365.314C836.831,-359.491 962.746,-348.526 1023.9,-343.2"/>
<polygon fill="darkgreen" stroke="darkgreen" points="769.421,-361.849 759.762,-366.203 770.028,-368.822 769.421,-361.849"/>
</g>
<!-- Node4 -->
<g id="node4" class="node"><title>Node4</title>
<g id="a_node4"><a xlink:href="classpkgDepCache.xhtml" target="_top" xlink:title="pkgDepCache">
<polygon fill="white" stroke="black" points="876.5,-300.643 876.5,-319.643 955.5,-319.643 955.5,-300.643 876.5,-300.643"/>
<text text-anchor="middle" x="916" y="-307.643" font-family="Helvetica,sans-Serif" font-size="10.00">pkgDepCache</text>
</a>
</g>
</g>
<!-- Node2&#45;&gt;Node4 -->
<g id="edge6" class="edge"><title>Node2&#45;&gt;Node4</title>
<path fill="none" stroke="darkgreen" d="M769.369,-356.923C795.206,-349.496 828.59,-339.641 858,-330.143 868.08,-326.888 879.078,-323.089 888.701,-319.681"/>
<polygon fill="darkgreen" stroke="darkgreen" points="768.157,-353.63 759.506,-359.746 770.083,-360.36 768.157,-353.63"/>
</g>
<!-- Node3&#45;&gt;Node1 -->
<g id="edge2" class="edge"><title>Node3&#45;&gt;Node1</title>
<path fill="none" stroke="#9a32cd" stroke-dasharray="5,2" d="M1105.99,-327.959C1126.5,-322.403 1150.44,-315.92 1169.64,-310.721"/>
<polygon fill="#9a32cd" stroke="#9a32cd" points="1104.96,-324.61 1096.23,-330.603 1106.79,-331.367 1104.96,-324.61"/>
<text text-anchor="middle" x="1124" y="-328.143" font-family="Helvetica,sans-Serif" font-size="10.00"> List</text>
</g>
<!-- Node3&#45;&gt;Node3 -->
<g id="edge4" class="edge"><title>Node3&#45;&gt;Node3</title>
<path fill="none" stroke="#9a32cd" stroke-dasharray="5,2" d="M1048.21,-359.91C1049.14,-364.64 1053.07,-368.143 1060,-368.143 1071.38,-368.143 1074.66,-358.709 1069.86,-349.9"/>
<polygon fill="#9a32cd" stroke="#9a32cd" points="1051.69,-360.381 1050.14,-349.9 1044.81,-359.061 1051.69,-360.381"/>
<text text-anchor="middle" x="1060" y="-371.143" font-family="Helvetica,sans-Serif" font-size="10.00"> Me</text>
</g>
<!-- Node4&#45;&gt;Node1 -->
<g id="edge30" class="edge"><title>Node4&#45;&gt;Node1</title>
<path fill="none" stroke="#9a32cd" stroke-dasharray="5,2" d="M965.766,-308.619C1017.36,-307.007 1098.53,-304.471 1151.76,-302.807"/>
<polygon fill="#9a32cd" stroke="#9a32cd" points="965.428,-305.128 955.542,-308.939 965.647,-312.125 965.428,-305.128"/>
<text text-anchor="middle" x="1060" y="-309.143" font-family="Helvetica,sans-Serif" font-size="10.00"> Cache</text>
</g>
<!-- Node4&#45;&gt;Node3 -->
<g id="edge5" class="edge"><title>Node4&#45;&gt;Node3</title>
<path fill="none" stroke="#9a32cd" stroke-dasharray="5,2" d="M965.786,-320.45C984.796,-324.466 1006.17,-328.982 1023.65,-332.675"/>
<polygon fill="#9a32cd" stroke="#9a32cd" points="966.31,-316.984 955.802,-318.341 964.863,-323.833 966.31,-316.984"/>
<text text-anchor="middle" x="990" y="-331.143" font-family="Helvetica,sans-Serif" font-size="10.00"> Cache</text>
</g>
<!-- Node5 -->
<g id="node5" class="node"><title>Node5</title>
<g id="a_node5"><a xlink:href="classpkgDepCache_1_1Policy.xhtml" target="_top" xlink:title="Policy">
<polygon fill="white" stroke="black" points="703,-229.643 703,-248.643 747,-248.643 747,-229.643 703,-229.643"/>
<text text-anchor="middle" x="725" y="-236.643" font-family="Helvetica,sans-Serif" font-size="10.00">Policy</text>
</a>
</g>
</g>
<!-- Node5&#45;&gt;Node4 -->
<g id="edge7" class="edge"><title>Node5&#45;&gt;Node4</title>
<path fill="none" stroke="#9a32cd" stroke-dasharray="5,2" d="M757.422,-239.654C785.088,-241.181 825.861,-246.107 858,-261.143 878.094,-270.545 896.636,-289.068 906.827,-300.452"/>
<polygon fill="#9a32cd" stroke="#9a32cd" points="757.291,-236.145 747.149,-239.21 756.988,-243.139 757.291,-236.145"/>
<text text-anchor="middle" x="818" y="-275.143" font-family="Helvetica,sans-Serif" font-size="10.00"> LocalPolicy</text>
<text text-anchor="middle" x="818" y="-264.143" font-family="Helvetica,sans-Serif" font-size="10.00">delLocalPolicy</text>
</g>
<!-- Node6 -->
<g id="node6" class="node"><title>Node6</title>
<g id="a_node6"><a xlink:href="classpkgCache.xhtml" target="_top" xlink:title="pkgCache">
<polygon fill="white" stroke="black" points="694.5,-317.643 694.5,-336.643 755.5,-336.643 755.5,-317.643 694.5,-317.643"/>
<text text-anchor="middle" x="725" y="-324.643" font-family="Helvetica,sans-Serif" font-size="10.00">pkgCache</text>
</a>
</g>
</g>
<!-- Node6&#45;&gt;Node4 -->
<g id="edge8" class="edge"><title>Node6&#45;&gt;Node4</title>
<path fill="none" stroke="#9a32cd" stroke-dasharray="5,2" d="M765.771,-320.662C769.894,-320.099 774.028,-319.579 778,-319.143 811.053,-315.522 848.765,-313.175 876.242,-311.789"/>
<polygon fill="#9a32cd" stroke="#9a32cd" points="765.036,-317.232 755.64,-322.127 766.038,-324.16 765.036,-317.232"/>
<text text-anchor="middle" x="818" y="-322.143" font-family="Helvetica,sans-Serif" font-size="10.00"> Cache</text>
</g>
<!-- Node7 -->
<g id="node7" class="node"><title>Node7</title>
<g id="a_node7"><a xlink:href="structpkgCache_1_1Dependency.xhtml" target="_top" xlink:title="information for a single dependency record ">
<polygon fill="white" stroke="black" points="506.5,-279.643 506.5,-298.643 577.5,-298.643 577.5,-279.643 506.5,-279.643"/>
<text text-anchor="middle" x="542" y="-286.643" font-family="Helvetica,sans-Serif" font-size="10.00">Dependency</text>
</a>
</g>
</g>
<!-- Node7&#45;&gt;Node6 -->
<g id="edge9" class="edge"><title>Node7&#45;&gt;Node6</title>
<path fill="none" stroke="#9a32cd" stroke-dasharray="5,2" d="M587.602,-295.918C612.555,-300.002 644.152,-305.663 672,-312.143 679.321,-313.847 687.145,-315.951 694.442,-318.038"/>
<polygon fill="#9a32cd" stroke="#9a32cd" points="588.123,-292.457 577.694,-294.321 587.01,-299.367 588.123,-292.457"/>
<text text-anchor="middle" x="644" y="-315.143" font-family="Helvetica,sans-Serif" font-size="10.00"> DepP</text>
</g>
<!-- Node8 -->
<g id="node8" class="node"><title>Node8</title>
<g id="a_node8"><a xlink:href="structpkgCache_1_1Description.xhtml" target="_top" xlink:title="datamember of a linked list of available description for a version ">
<polygon fill="white" stroke="black" points="509,-241.643 509,-260.643 575,-260.643 575,-241.643 509,-241.643"/>
<text text-anchor="middle" x="542" y="-248.643" font-family="Helvetica,sans-Serif" font-size="10.00">Description</text>
</a>
</g>
</g>
<!-- Node8&#45;&gt;Node6 -->
<g id="edge10" class="edge"><title>Node8&#45;&gt;Node6</title>
<path fill="none" stroke="#9a32cd" stroke-dasharray="5,2" d="M585.158,-257.183C611.38,-262.213 645.105,-271.068 672,-286.143 681.599,-291.524 681.484,-296.175 690,-303.143 696.151,-308.176 703.294,-313.315 709.44,-317.54"/>
<polygon fill="#9a32cd" stroke="#9a32cd" points="585.609,-253.708 575.146,-255.376 584.366,-260.597 585.609,-253.708"/>
<text text-anchor="middle" x="644" y="-289.143" font-family="Helvetica,sans-Serif" font-size="10.00"> DescP</text>
</g>
<!-- Node9 -->
<g id="node9" class="node"><title>Node9</title>
<g id="a_node9"><a xlink:href="structpkgCache_1_1Header.xhtml" target="_top" xlink:title="Header">
<polygon fill="white" stroke="black" points="518,-203.643 518,-222.643 566,-222.643 566,-203.643 518,-203.643"/>
<text text-anchor="middle" x="542" y="-210.643" font-family="Helvetica,sans-Serif" font-size="10.00">Header</text>
</a>
</g>
</g>
<!-- Node9&#45;&gt;Node6 -->
<g id="edge11" class="edge"><title>Node9&#45;&gt;Node6</title>
<path fill="none" stroke="#9a32cd" stroke-dasharray="5,2" d="M576.222,-214.018C605.084,-216.531 646.197,-224.59 672,-249.143 690.327,-266.583 674.913,-282.836 690,-303.143 694.223,-308.827 700.195,-313.677 705.958,-317.497"/>
<polygon fill="#9a32cd" stroke="#9a32cd" points="576.412,-210.523 566.194,-213.323 575.928,-217.506 576.412,-210.523"/>
<text text-anchor="middle" x="644" y="-252.143" font-family="Helvetica,sans-Serif" font-size="10.00"> HeaderP</text>
</g>
<!-- Node10 -->
<g id="node10" class="node"><title>Node10</title>
<g id="a_node10"><a xlink:href="structDynamicMMap_1_1Pool.xhtml" target="_top" xlink:title="Pool">
<polygon fill="white" stroke="black" points="318,-203.643 318,-222.643 354,-222.643 354,-203.643 318,-203.643"/>
<text text-anchor="middle" x="336" y="-210.643" font-family="Helvetica,sans-Serif" font-size="10.00">Pool</text>
</a>
</g>
</g>
<!-- Node10&#45;&gt;Node9 -->
<g id="edge12" class="edge"><title>Node10&#45;&gt;Node9</title>
<path fill="none" stroke="#9a32cd" stroke-dasharray="5,2" d="M364.221,-213.143C404.612,-213.143 479.722,-213.143 517.711,-213.143"/>
<polygon fill="#9a32cd" stroke="#9a32cd" points="364.042,-209.643 354.042,-213.143 364.042,-216.643 364.042,-209.643"/>
<text text-anchor="middle" x="422" y="-216.143" font-family="Helvetica,sans-Serif" font-size="10.00"> Pools</text>
</g>
<!-- Node11 -->
<g id="node11" class="node"><title>Node11</title>
<g id="a_node11"><a xlink:href="structpkgCache_1_1PackageFile.xhtml" target="_top" xlink:title="stores information about the files used to generate the cache ">
<polygon fill="white" stroke="black" points="506.5,-165.643 506.5,-184.643 577.5,-184.643 577.5,-165.643 506.5,-165.643"/>
<text text-anchor="middle" x="542" y="-172.643" font-family="Helvetica,sans-Serif" font-size="10.00">PackageFile</text>
</a>
</g>
</g>
<!-- Node11&#45;&gt;Node6 -->
<g id="edge13" class="edge"><title>Node11&#45;&gt;Node6</title>
<path fill="none" stroke="#9a32cd" stroke-dasharray="5,2" d="M587.635,-174.24C615.699,-176.16 650.536,-183.525 672,-206.143 702.182,-237.949 666.346,-266.224 690,-303.143 693.742,-308.984 699.459,-313.819 705.143,-317.581"/>
<polygon fill="#9a32cd" stroke="#9a32cd" points="587.796,-170.744 577.64,-173.761 587.461,-177.736 587.796,-170.744"/>
<text text-anchor="middle" x="644" y="-209.143" font-family="Helvetica,sans-Serif" font-size="10.00"> PkgFileP</text>
</g>
<!-- Node12 -->
<g id="node12" class="node"><title>Node12</title>
<g id="a_node12"><a xlink:href="structpkgCache_1_1DescFile.xhtml" target="_top" xlink:title="associates a description with a Translation file ">
<polygon fill="white" stroke="black" points="514,-127.643 514,-146.643 570,-146.643 570,-127.643 514,-127.643"/>
<text text-anchor="middle" x="542" y="-134.643" font-family="Helvetica,sans-Serif" font-size="10.00">DescFile</text>
</a>
</g>
</g>
<!-- Node12&#45;&gt;Node6 -->
<g id="edge14" class="edge"><title>Node12&#45;&gt;Node6</title>
<path fill="none" stroke="#9a32cd" stroke-dasharray="5,2" d="M580.318,-134.233C609.562,-134.158 649.025,-139.314 672,-164.143 714.308,-209.866 657.841,-249.792 690,-303.143 693.506,-308.96 699.022,-313.741 704.598,-317.463"/>
<polygon fill="#9a32cd" stroke="#9a32cd" points="579.972,-130.74 570.056,-134.471 580.135,-137.739 579.972,-130.74"/>
<text text-anchor="middle" x="644" y="-167.143" font-family="Helvetica,sans-Serif" font-size="10.00"> DescFileP</text>
</g>
<!-- Node13 -->
<g id="node13" class="node"><title>Node13</title>
<g id="a_node13"><a xlink:href="structpkgCache_1_1StringItem.xhtml" target="_top" xlink:title="used for generating single instances of strings ">
<polygon fill="white" stroke="black" points="511,-89.6434 511,-108.643 573,-108.643 573,-89.6434 511,-89.6434"/>
<text text-anchor="middle" x="542" y="-96.6434" font-family="Helvetica,sans-Serif" font-size="10.00">StringItem</text>
</a>
</g>
</g>
<!-- Node13&#45;&gt;Node6 -->
<g id="edge15" class="edge"><title>Node13&#45;&gt;Node6</title>
<path fill="none" stroke="#9a32cd" stroke-dasharray="5,2" d="M583.362,-95.0238C612.317,-94.4847 649.965,-99.1682 672,-123.143 699.203,-152.741 669.751,-268.416 690,-303.143 693.421,-309.011 698.914,-313.805 704.496,-317.523"/>
<polygon fill="#9a32cd" stroke="#9a32cd" points="582.985,-91.5359 573.133,-95.4326 583.265,-98.5304 582.985,-91.5359"/>
<text text-anchor="middle" x="644" y="-126.143" font-family="Helvetica,sans-Serif" font-size="10.00"> StringItemP</text>
</g>
<!-- Node14 -->
<g id="node14" class="node"><title>Node14</title>
<g id="a_node14"><a xlink:href="structpkgCache_1_1Provides.xhtml" target="_top" xlink:title="handles virtual packages ">
<polygon fill="white" stroke="black" points="514.5,-612.643 514.5,-631.643 569.5,-631.643 569.5,-612.643 514.5,-612.643"/>
<text text-anchor="middle" x="542" y="-619.643" font-family="Helvetica,sans-Serif" font-size="10.00">Provides</text>
</a>
</g>
</g>
<!-- Node14&#45;&gt;Node6 -->
<g id="edge16" class="edge"><title>Node14&#45;&gt;Node6</title>
<path fill="none" stroke="#9a32cd" stroke-dasharray="5,2" d="M580.069,-626.336C609.528,-627.409 649.414,-623.399 672,-598.143 708.834,-556.955 662.341,-397.979 690,-350.143 693.139,-344.714 698.138,-340.3 703.346,-336.844"/>
<polygon fill="#9a32cd" stroke="#9a32cd" points="579.923,-622.822 569.738,-625.74 579.52,-629.81 579.923,-622.822"/>
<text text-anchor="middle" x="644" y="-627.143" font-family="Helvetica,sans-Serif" font-size="10.00"> ProvideP</text>
</g>
<!-- Node15 -->
<g id="node15" class="node"><title>Node15</title>
<g id="a_node15"><a xlink:title="STL class. ">
<polygon fill="white" stroke="#bfbfbf" points="144.5,-317.643 144.5,-336.643 185.5,-336.643 185.5,-317.643 144.5,-317.643"/>
<text text-anchor="middle" x="165" y="-324.643" font-family="Helvetica,sans-Serif" font-size="10.00">string</text>
</a>
</g>
</g>
<!-- Node15&#45;&gt;Node1 -->
<g id="edge33" class="edge"><title>Node15&#45;&gt;Node1</title>
<path fill="none" stroke="#9a32cd" stroke-dasharray="5,2" d="M168.806,-307.349C178.771,-245.684 218.337,-61.1434 335,-61.1434 335,-61.1434 335,-61.1434 1061,-61.1434 1170.33,-61.1434 1198.72,-246.538 1203.99,-291.438"/>
<polygon fill="#9a32cd" stroke="#9a32cd" points="165.327,-306.947 167.278,-317.361 172.247,-308.003 165.327,-306.947"/>
<text text-anchor="middle" x="725" y="-64.1434" font-family="Helvetica,sans-Serif" font-size="10.00"> FileNames</text>
</g>
<!-- Node15&#45;&gt;Node3 -->
<g id="edge29" class="edge"><title>Node15&#45;&gt;Node3</title>
<path fill="none" stroke="#9a32cd" stroke-dasharray="5,2" d="M166.73,-347.104C170.517,-418.951 193.751,-660.143 335,-660.143 335,-660.143 335,-660.143 917,-660.143 1056.49,-660.143 1060,-402.964 1059.23,-349.72"/>
<polygon fill="#9a32cd" stroke="#9a32cd" points="170.21,-346.582 166.261,-336.75 163.217,-346.898 170.21,-346.582"/>
<text text-anchor="middle" x="644" y="-663.143" font-family="Helvetica,sans-Serif" font-size="10.00"> FileList</text>
</g>
<!-- Node15&#45;&gt;Node6 -->
<g id="edge17" class="edge"><title>Node15&#45;&gt;Node6</title>
<path fill="none" stroke="#9a32cd" stroke-dasharray="5,2" d="M181.106,-344.326C223.47,-391.038 349.28,-519.875 486,-565.143 533.255,-580.79 548.741,-572.311 598,-565.143 631.954,-560.203 650.228,-569.663 672,-543.143 699.333,-509.851 668.057,-387.21 690,-350.143 693.267,-344.624 698.44,-340.143 703.774,-336.652"/>
<polygon fill="#9a32cd" stroke="#9a32cd" points="183.674,-341.947 174.393,-336.836 178.461,-346.619 183.674,-341.947"/>
<text text-anchor="middle" x="422" y="-561.143" font-family="Helvetica,sans-Serif" font-size="10.00"> CacheFile</text>
</g>
<!-- Node23 -->
<g id="node23" class="node"><title>Node23</title>
<g id="a_node23"><a xlink:href="classFileFd.xhtml" target="_top" xlink:title="FileFd">
<polygon fill="white" stroke="black" points="314,-317.643 314,-336.643 358,-336.643 358,-317.643 314,-317.643"/>
<text text-anchor="middle" x="336" y="-324.643" font-family="Helvetica,sans-Serif" font-size="10.00">FileFd</text>
</a>
</g>
</g>
<!-- Node15&#45;&gt;Node23 -->
<g id="edge27" class="edge"><title>Node15&#45;&gt;Node23</title>
<path fill="none" stroke="#9a32cd" stroke-dasharray="5,2" d="M195.936,-327.143C229.796,-327.143 284.079,-327.143 313.821,-327.143"/>
<polygon fill="#9a32cd" stroke="#9a32cd" points="195.717,-323.643 185.717,-327.143 195.717,-330.643 195.717,-323.643"/>
<text text-anchor="middle" x="250" y="-341.143" font-family="Helvetica,sans-Serif" font-size="10.00"> TemporaryFileName</text>
<text text-anchor="middle" x="250" y="-330.143" font-family="Helvetica,sans-Serif" font-size="10.00">FileName</text>
</g>
<!-- Node25 -->
<g id="node25" class="node"><title>Node25</title>
<polygon fill="white" stroke="#bfbfbf" points="376,-7.64337 376,-26.6434 468,-26.6434 468,-7.64337 376,-7.64337"/>
<text text-anchor="middle" x="422" y="-14.6434" font-family="Helvetica,sans-Serif" font-size="10.00">set&lt; std::string &gt;</text>
</g>
<!-- Node15&#45;&gt;Node25 -->
<g id="edge32" class="edge"><title>Node15&#45;&gt;Node25</title>
<path fill="none" stroke="#9a32cd" stroke-dasharray="5,2" d="M165.518,-307.122C164.54,-247.574 165.118,-73.4069 204,-36.1434 251.235,9.12509 333.729,1.88732 382.255,-7.56444"/>
<polygon fill="#9a32cd" stroke="#9a32cd" points="162.025,-307.5 165.724,-317.428 169.023,-307.361 162.025,-307.5"/>
<text text-anchor="middle" x="250" y="-39.1434" font-family="Helvetica,sans-Serif" font-size="10.00"> keys</text>
</g>
<!-- Node16 -->
<g id="node16" class="node"><title>Node16</title>
<g id="a_node16"><a xlink:title="STL class. ">
<polygon fill="white" stroke="#bfbfbf" points="0,-317.643 0,-336.643 106,-336.643 106,-317.643 0,-317.643"/>
<text text-anchor="middle" x="53" y="-324.643" font-family="Helvetica,sans-Serif" font-size="10.00">basic_string&lt; char &gt;</text>
</a>
</g>
</g>
<!-- Node16&#45;&gt;Node15 -->
<g id="edge18" class="edge"><title>Node16&#45;&gt;Node15</title>
<path fill="none" stroke="midnightblue" d="M116.338,-327.143C126.515,-327.143 136.35,-327.143 144.416,-327.143"/>
<polygon fill="midnightblue" stroke="midnightblue" points="116.101,-323.643 106.101,-327.143 116.101,-330.643 116.101,-323.643"/>
</g>
<!-- Node17 -->
<g id="node17" class="node"><title>Node17</title>
<g id="a_node17"><a xlink:href="structpkgCache_1_1Group.xhtml" target="_top" xlink:title="groups architecture depending packages together ">
<polygon fill="white" stroke="black" points="520.5,-536.643 520.5,-555.643 563.5,-555.643 563.5,-536.643 520.5,-536.643"/>
<text text-anchor="middle" x="542" y="-543.643" font-family="Helvetica,sans-Serif" font-size="10.00">Group</text>
</a>
</g>
</g>
<!-- Node17&#45;&gt;Node6 -->
<g id="edge19" class="edge"><title>Node17&#45;&gt;Node6</title>
<path fill="none" stroke="#9a32cd" stroke-dasharray="5,2" d="M573.736,-541.747C604.146,-535.628 649.332,-521.399 672,-489.143 707.818,-438.177 657.312,-403.172 690,-350.143 693.366,-344.683 698.567,-340.22 703.898,-336.727"/>
<polygon fill="#9a32cd" stroke="#9a32cd" points="572.865,-538.348 563.657,-543.589 574.124,-545.234 572.865,-538.348"/>
<text text-anchor="middle" x="644" y="-531.143" font-family="Helvetica,sans-Serif" font-size="10.00"> GrpP</text>
</g>
<!-- Node18 -->
<g id="node18" class="node"><title>Node18</title>
<g id="a_node18"><a xlink:href="classpkgVersioningSystem.xhtml" target="_top" xlink:title="pkgVersioningSystem">
<polygon fill="white" stroke="black" points="486,-469.643 486,-488.643 598,-488.643 598,-469.643 486,-469.643"/>
<text text-anchor="middle" x="542" y="-476.643" font-family="Helvetica,sans-Serif" font-size="10.00">pkgVersioningSystem</text>
</a>
</g>
</g>
<!-- Node18&#45;&gt;Node6 -->
<g id="edge20" class="edge"><title>Node18&#45;&gt;Node6</title>
<path fill="none" stroke="#9a32cd" stroke-dasharray="5,2" d="M608.27,-476.571C631.349,-472.366 655.616,-463.63 672,-446.143 701.68,-414.465 666.185,-386.438 690,-350.143 693.519,-344.781 698.766,-340.346 704.091,-336.85"/>
<polygon fill="#9a32cd" stroke="#9a32cd" points="607.472,-473.153 598.132,-478.154 608.552,-480.069 607.472,-473.153"/>
<text text-anchor="middle" x="644" y="-477.143" font-family="Helvetica,sans-Serif" font-size="10.00"> VS</text>
</g>
<!-- Node18&#45;&gt;Node18 -->
<g id="edge21" class="edge"><title>Node18&#45;&gt;Node18</title>
<path fill="none" stroke="#9a32cd" stroke-dasharray="5,2" d="M523.112,-498.543C524.373,-503.458 530.669,-507.143 542,-507.143 560.129,-507.143 565.369,-497.709 557.721,-488.9"/>
<polygon fill="#9a32cd" stroke="#9a32cd" points="526.484,-499.493 526.279,-488.9 519.833,-497.309 526.484,-499.493"/>
<text text-anchor="middle" x="542" y="-510.143" font-family="Helvetica,sans-Serif" font-size="10.00"> GlobalList</text>
</g>
<!-- Node19 -->
<g id="node19" class="node"><title>Node19</title>
<g id="a_node19"><a xlink:href="structpkgCache_1_1Version.xhtml" target="_top" xlink:title="information for a single version of a package ">
<polygon fill="white" stroke="black" points="517,-431.643 517,-450.643 567,-450.643 567,-431.643 517,-431.643"/>
<text text-anchor="middle" x="542" y="-438.643" font-family="Helvetica,sans-Serif" font-size="10.00">Version</text>
</a>
</g>
</g>
<!-- Node19&#45;&gt;Node6 -->
<g id="edge22" class="edge"><title>Node19&#45;&gt;Node6</title>
<path fill="none" stroke="#9a32cd" stroke-dasharray="5,2" d="M577.234,-439.556C606.038,-436.438 646.498,-427.622 672,-403.143 689.947,-385.916 674.911,-369.922 690,-350.143 694.063,-344.817 699.727,-340.302 705.267,-336.719"/>
<polygon fill="#9a32cd" stroke="#9a32cd" points="576.842,-436.077 567.199,-440.465 577.474,-443.048 576.842,-436.077"/>
<text text-anchor="middle" x="644" y="-434.143" font-family="Helvetica,sans-Serif" font-size="10.00"> VerP</text>
</g>
<!-- Node20 -->
<g id="node20" class="node"><title>Node20</title>
<g id="a_node20"><a xlink:href="structpkgCache_1_1VerFile.xhtml" target="_top" xlink:title="associates a version with a PackageFile ">
<polygon fill="white" stroke="black" points="518.5,-393.643 518.5,-412.643 565.5,-412.643 565.5,-393.643 518.5,-393.643"/>
<text text-anchor="middle" x="542" y="-400.643" font-family="Helvetica,sans-Serif" font-size="10.00">VerFile</text>
</a>
</g>
</g>
<!-- Node20&#45;&gt;Node6 -->
<g id="edge23" class="edge"><title>Node20&#45;&gt;Node6</title>
<path fill="none" stroke="#9a32cd" stroke-dasharray="5,2" d="M575.856,-398.487C602.987,-393.615 641.801,-384.214 672,-367.143 681.579,-361.728 681.415,-357.027 690,-350.143 695.894,-345.418 702.736,-340.663 708.731,-336.712"/>
<polygon fill="#9a32cd" stroke="#9a32cd" points="574.997,-395.083 565.717,-400.196 576.16,-401.986 574.997,-395.083"/>
<text text-anchor="middle" x="644" y="-391.143" font-family="Helvetica,sans-Serif" font-size="10.00"> VerFileP</text>
</g>
<!-- Node21 -->
<g id="node21" class="node"><title>Node21</title>
<g id="a_node21"><a xlink:href="structpkgCache_1_1Package.xhtml" target="_top" xlink:title="contains information for a single unique package ">
<polygon fill="white" stroke="black" points="514.5,-355.643 514.5,-374.643 569.5,-374.643 569.5,-355.643 514.5,-355.643"/>
<text text-anchor="middle" x="542" y="-362.643" font-family="Helvetica,sans-Serif" font-size="10.00">Package</text>
</a>
</g>
</g>
<!-- Node21&#45;&gt;Node6 -->
<g id="edge24" class="edge"><title>Node21&#45;&gt;Node6</title>
<path fill="none" stroke="#9a32cd" stroke-dasharray="5,2" d="M579.981,-359.601C605.885,-355.463 641.231,-349.304 672,-342.143 679.321,-340.44 687.145,-338.336 694.442,-336.249"/>
<polygon fill="#9a32cd" stroke="#9a32cd" points="579.184,-356.184 569.849,-361.194 580.271,-363.099 579.184,-356.184"/>
<text text-anchor="middle" x="644" y="-355.143" font-family="Helvetica,sans-Serif" font-size="10.00"> PkgP</text>
</g>
<!-- Node22 -->
<g id="node22" class="node"><title>Node22</title>
<g id="a_node22"><a xlink:href="classMMap.xhtml" target="_top" xlink:title="MMap">
<polygon fill="white" stroke="black" points="520,-317.643 520,-336.643 564,-336.643 564,-317.643 520,-317.643"/>
<text text-anchor="middle" x="542" y="-324.643" font-family="Helvetica,sans-Serif" font-size="10.00">MMap</text>
</a>
</g>
</g>
<!-- Node22&#45;&gt;Node6 -->
<g id="edge25" class="edge"><title>Node22&#45;&gt;Node6</title>
<path fill="none" stroke="#9a32cd" stroke-dasharray="5,2" d="M574.329,-327.143C608.047,-327.143 661.276,-327.143 694.336,-327.143"/>
<polygon fill="#9a32cd" stroke="#9a32cd" points="574.117,-323.643 564.117,-327.143 574.117,-330.643 574.117,-323.643"/>
<text text-anchor="middle" x="644" y="-330.143" font-family="Helvetica,sans-Serif" font-size="10.00"> Map</text>
</g>
<!-- Node23&#45;&gt;Node22 -->
<g id="edge26" class="edge"><title>Node23&#45;&gt;Node22</title>
<path fill="none" stroke="#9a32cd" stroke-dasharray="5,2" d="M368.26,-327.143C410.222,-327.143 483.653,-327.143 519.746,-327.143"/>
<polygon fill="#9a32cd" stroke="#9a32cd" points="368.063,-323.643 358.063,-327.143 368.063,-330.643 368.063,-323.643"/>
<text text-anchor="middle" x="422" y="-330.143" font-family="Helvetica,sans-Serif" font-size="10.00"> SyncToFd</text>
</g>
<!-- Node24 -->
<g id="node24" class="node"><title>Node24</title>
<g id="a_node24"><a xlink:href="structpkgDepCache_1_1StateCache.xhtml" target="_top" xlink:title="StateCache">
<polygon fill="white" stroke="black" points="691,-274.643 691,-293.643 759,-293.643 759,-274.643 691,-274.643"/>
<text text-anchor="middle" x="725" y="-281.643" font-family="Helvetica,sans-Serif" font-size="10.00">StateCache</text>
</a>
</g>
</g>
<!-- Node24&#45;&gt;Node4 -->
<g id="edge28" class="edge"><title>Node24&#45;&gt;Node4</title>
<path fill="none" stroke="#9a32cd" stroke-dasharray="5,2" d="M769.459,-287.037C795.288,-289.102 828.634,-292.368 858,-297.143 864.011,-298.121 870.335,-299.354 876.496,-300.67"/>
<polygon fill="#9a32cd" stroke="#9a32cd" points="769.48,-283.529 759.241,-286.252 768.943,-290.508 769.48,-283.529"/>
<text text-anchor="middle" x="818" y="-300.143" font-family="Helvetica,sans-Serif" font-size="10.00"> PkgState</text>
</g>
<!-- Node25&#45;&gt;Node1 -->
<g id="edge31" class="edge"><title>Node25&#45;&gt;Node1</title>
<path fill="none" stroke="#9a32cd" stroke-dasharray="5,2" d="M478.109,-16.3649C522.606,-15.8032 586.834,-15.1434 643,-15.1434 643,-15.1434 643,-15.1434 1061,-15.1434 1096.42,-15.1434 1110.77,-20.3971 1134,-47.1434 1199.75,-122.852 1204.97,-254.912 1205.1,-291.504"/>
<polygon fill="#9a32cd" stroke="#9a32cd" points="478.037,-12.8655 468.083,-16.494 478.127,-19.8649 478.037,-12.8655"/>
<text text-anchor="middle" x="818" y="-18.1434" font-family="Helvetica,sans-Serif" font-size="10.00"> disappearedPkgs</text>
</g>
</g>
</svg>
        <g id="navigator" transform="translate(0 0)" fill="#404254">
                <rect fill="#f2f5e9" fill-opacity="0.5" stroke="#606060" stroke-width=".5" x="0" y="0" width="60" height="60"/>
                <use id="zoomplus" xlink:href="#zoomPlus" x="17" y="9" onmousedown="handleZoom(evt,'in')"/>
                <use id="zoomminus" xlink:href="#zoomMin" x="42" y="9" onmousedown="handleZoom(evt,'out')"/>
                <use id="reset" xlink:href="#resetDef" x="30" y="36" onmousedown="handleReset()"/>
                <g id="arrowUp" xlink:href="#dirArrow" transform="translate(30 24)" onmousedown="handlePan(0,-1)">
                  <use xlink:href="#rim" fill="#404040">
                        <set attributeName="fill" to="#808080" begin="arrowUp.mouseover" end="arrowUp.mouseout"/>
                  </use>
                  <path fill="none" stroke="white" stroke-width="1.5" d="M0,-3.0v7 M-2.5,-0.5L0,-3.0L2.5,-0.5"/>
                </g>
                <g id="arrowRight" xlink:href="#dirArrow" transform="rotate(90) translate(36 -43)" onmousedown="handlePan(1,0)">
                  <use xlink:href="#rim" fill="#404040">
                        <set attributeName="fill" to="#808080" begin="arrowRight.mouseover" end="arrowRight.mouseout"/>
                  </use>
                  <path fill="none" stroke="white" stroke-width="1.5" d="M0,-3.0v7 M-2.5,-0.5L0,-3.0L2.5,-0.5"/>
                </g>
                <g id="arrowDown" xlink:href="#dirArrow" transform="rotate(180) translate(-30 -48)" onmousedown="handlePan(0,1)">
                  <use xlink:href="#rim" fill="#404040">
                        <set attributeName="fill" to="#808080" begin="arrowDown.mouseover" end="arrowDown.mouseout"/>
                  </use>
                  <path fill="none" stroke="white" stroke-width="1.5" d="M0,-3.0v7 M-2.5,-0.5L0,-3.0L2.5,-0.5"/>
                </g>
                <g id="arrowLeft" xlink:href="#dirArrow" transform="rotate(270) translate(-36 17)" onmousedown="handlePan(-1,0)">
                  <use xlink:href="#rim" fill="#404040">
                        <set attributeName="fill" to="#808080" begin="arrowLeft.mouseover" end="arrowLeft.mouseout"/>
                  </use>
                  <path fill="none" stroke="white" stroke-width="1.5" d="M0,-3.0v7 M-2.5,-0.5L0,-3.0L2.5,-0.5"/>
                </g>
        </g>
        <svg viewBox="0 0 15 15" width="100%" height="30px" preserveAspectRatio="xMaxYMin meet">
         <g id="arrow_out" transform="scale(0.3 0.3)">
          <a xlink:href="classpkgPackageManager__coll__graph_org.svg" target="_base">
           <rect id="button" ry="5" rx="5" y="6" x="6" height="38" width="38"
                fill="#f2f5e9" fill-opacity="0.5" stroke="#606060" stroke-width="1.0"/>
           <path id="arrow"
             d="M 11.500037,31.436501 C 11.940474,20.09759 22.043105,11.32322 32.158766,21.979434 L 37.068811,17.246167 C 37.068811,17.246167 37.088388,32 37.088388,32 L 22.160133,31.978069 C 22.160133,31.978069 26.997745,27.140456 26.997745,27.140456 C 18.528582,18.264221 13.291696,25.230495 11.500037,31.436501 z"
             style="fill:#404040;"/>
          </a>
         </g>
        </svg>
</svg>
