<?xml version="1.0" encoding="UTF-8" standalone="no"?>
<!DOCTYPE svg PUBLIC "-//W3C//DTD SVG 1.1//EN"
 "http://www.w3.org/Graphics/SVG/1.1/DTD/svg11.dtd">
<!-- Generated by graphviz version 2.36.0 (20140111.2315)
 -->
<!-- Title: pkgCache::VerFileIterator Pages: 1 -->
<!--zoomable 555 -->
<svg id="main" version="1.1" xmlns="http://www.w3.org/2000/svg" xmlns:xlink="http://www.w3.org/1999/xlink" xml:space="preserve" onload="init(evt)">
<style type="text/css"><![CDATA[
.edge:hover path { stroke: red; }
.edge:hover polygon { stroke: red; fill: red; }
]]></style>
<script type="text/javascript"><![CDATA[
var edges = document.getElementsByTagName('g');
if (edges && edges.length) {
  for (var i=0;i<edges.length;i++) {
    if (edges[i].id.substr(0,4)=='edge') {
      edges[i].setAttribute('class','edge');
    }
  }
}
]]></script>
        <defs>
                <circle id="rim" cx="0" cy="0" r="7"/>
                <circle id="rim2" cx="0" cy="0" r="3.5"/>
                <g id="zoomPlus">
                        <use xlink:href="#rim" fill="#404040">
                                <set attributeName="fill" to="#808080" begin="zoomplus.mouseover" end="zoomplus.mouseout"/>
                        </use>
                        <path d="M-4,0h8M0,-4v8" fill="none" stroke="white" stroke-width="1.5" pointer-events="none"/>
                </g>
                <g id="zoomMin">
                        <use xlink:href="#rim" fill="#404040">
                                <set attributeName="fill" to="#808080" begin="zoomminus.mouseover" end="zoomminus.mouseout"/>
                        </use>
                        <path d="M-4,0h8" fill="none" stroke="white" stroke-width="1.5" pointer-events="none"/>
                </g>
                <g id="dirArrow">
                        <path fill="none" stroke="white" stroke-width="1.5" d="M0,-3.0v7 M-2.5,-0.5L0,-3.0L2.5,-0.5"/>
                </g>
               <g id="resetDef">
                       <use xlink:href="#rim2" fill="#404040">
                               <set attributeName="fill" to="#808080" begin="reset.mouseover" end="reset.mouseout"/>
                       </use>
               </g>
        </defs>

<script type="text/javascript">
var viewWidth = 1096;
var viewHeight = 555;
var sectionId = 'dynsection-1';
</script>
<script xlink:href="svgpan.js"/>
<svg id="graph" class="graph">
<g id="viewport">
<title>pkgCache::VerFileIterator</title>
<polygon fill="white" stroke="none" points="-4,4 -4,-551 1092,-551 1092,4 -4,4"/>
<!-- Node1 -->
<g id="node1" class="node"><title>Node1</title>
<polygon fill="#bfbfbf" stroke="black" points="960,-257.5 960,-276.5 1088,-276.5 1088,-257.5 960,-257.5"/>
<text text-anchor="middle" x="1024" y="-264.5" font-family="Helvetica,sans-Serif" font-size="10.00">pkgCache::VerFileIterator</text>
</g>
<!-- Node2 -->
<g id="node2" class="node"><title>Node2</title>
<g id="a_node2"><a xlink:href="classpkgCache_1_1Iterator.xhtml" target="_top" xlink:title="Iterator\&lt; VerFile,\l VerFileIterator \&gt;">
<polygon fill="white" stroke="black" points="832,-252 832,-282 922,-282 922,-252 832,-252"/>
<text text-anchor="start" x="840" y="-270" font-family="Helvetica,sans-Serif" font-size="10.00">Iterator&lt; VerFile,</text>
<text text-anchor="middle" x="877" y="-259" font-family="Helvetica,sans-Serif" font-size="10.00"> VerFileIterator &gt;</text>
</a>
</g>
</g>
<!-- Node2&#45;&gt;Node1 -->
<g id="edge1" class="edge"><title>Node2&#45;&gt;Node1</title>
<path fill="none" stroke="midnightblue" d="M932.518,-267C941.409,-267 950.685,-267 959.763,-267"/>
<polygon fill="midnightblue" stroke="midnightblue" points="932.293,-263.5 922.293,-267 932.293,-270.5 932.293,-263.5"/>
</g>
<!-- Node3 -->
<g id="node3" class="node"><title>Node3</title>
<polygon fill="white" stroke="#bfbfbf" points="648,-296 648,-326 764,-326 764,-296 648,-296"/>
<text text-anchor="start" x="656" y="-314" font-family="Helvetica,sans-Serif" font-size="10.00">iterator&lt; std::forward</text>
<text text-anchor="middle" x="706" y="-303" font-family="Helvetica,sans-Serif" font-size="10.00">_iterator_tag, VerFile &gt;</text>
</g>
<!-- Node3&#45;&gt;Node2 -->
<g id="edge2" class="edge"><title>Node3&#45;&gt;Node2</title>
<path fill="none" stroke="midnightblue" d="M773.961,-293.566C793.449,-288.492 814.24,-283.08 831.935,-278.473"/>
<polygon fill="midnightblue" stroke="midnightblue" points="773.011,-290.197 764.216,-296.104 774.775,-296.971 773.011,-290.197"/>
</g>
<!-- Node4 -->
<g id="node4" class="node"><title>Node4</title>
<g id="a_node4"><a xlink:href="classpkgCache.xhtml" target="_top" xlink:title="pkgCache">
<polygon fill="white" stroke="black" points="675.5,-257.5 675.5,-276.5 736.5,-276.5 736.5,-257.5 675.5,-257.5"/>
<text text-anchor="middle" x="706" y="-264.5" font-family="Helvetica,sans-Serif" font-size="10.00">pkgCache</text>
</a>
</g>
</g>
<!-- Node4&#45;&gt;Node2 -->
<g id="edge3" class="edge"><title>Node4&#45;&gt;Node2</title>
<path fill="none" stroke="#9a32cd" stroke-dasharray="5,2" d="M746.903,-267C772.427,-267 805.56,-267 831.868,-267"/>
<polygon fill="#9a32cd" stroke="#9a32cd" points="746.825,-263.5 736.825,-267 746.825,-270.5 746.825,-263.5"/>
<text text-anchor="middle" x="798" y="-270" font-family="Helvetica,sans-Serif" font-size="10.00"> Owner</text>
</g>
<!-- Node5 -->
<g id="node5" class="node"><title>Node5</title>
<g id="a_node5"><a xlink:href="structpkgCache_1_1Dependency.xhtml" target="_top" xlink:title="information for a single dependency record ">
<polygon fill="white" stroke="black" points="464.5,-485.5 464.5,-504.5 535.5,-504.5 535.5,-485.5 464.5,-485.5"/>
<text text-anchor="middle" x="500" y="-492.5" font-family="Helvetica,sans-Serif" font-size="10.00">Dependency</text>
</a>
</g>
</g>
<!-- Node5&#45;&gt;Node4 -->
<g id="edge4" class="edge"><title>Node5&#45;&gt;Node4</title>
<path fill="none" stroke="#9a32cd" stroke-dasharray="5,2" d="M545.706,-499.949C573.963,-500.412 608.991,-495.601 630,-473 658.424,-442.423 621.993,-318.658 648,-286 654.693,-277.595 665.227,-272.878 675.429,-270.242"/>
<polygon fill="#9a32cd" stroke="#9a32cd" points="545.767,-496.449 535.64,-499.563 545.499,-503.444 545.767,-496.449"/>
<text text-anchor="middle" x="602" y="-502" font-family="Helvetica,sans-Serif" font-size="10.00"> DepP</text>
</g>
<!-- Node6 -->
<g id="node6" class="node"><title>Node6</title>
<g id="a_node6"><a xlink:href="structpkgCache_1_1Description.xhtml" target="_top" xlink:title="datamember of a linked list of available description for a version ">
<polygon fill="white" stroke="black" points="467,-447.5 467,-466.5 533,-466.5 533,-447.5 467,-447.5"/>
<text text-anchor="middle" x="500" y="-454.5" font-family="Helvetica,sans-Serif" font-size="10.00">Description</text>
</a>
</g>
</g>
<!-- Node6&#45;&gt;Node4 -->
<g id="edge5" class="edge"><title>Node6&#45;&gt;Node4</title>
<path fill="none" stroke="#9a32cd" stroke-dasharray="5,2" d="M543.411,-460.633C571.991,-460.587 608.302,-455.243 630,-432 674.614,-384.208 606.592,-336.596 648,-286 654.739,-277.766 665.156,-273.077 675.251,-270.416"/>
<polygon fill="#9a32cd" stroke="#9a32cd" points="543.34,-457.131 533.273,-460.433 543.202,-464.129 543.34,-457.131"/>
<text text-anchor="middle" x="602" y="-462" font-family="Helvetica,sans-Serif" font-size="10.00"> DescP</text>
</g>
<!-- Node7 -->
<g id="node7" class="node"><title>Node7</title>
<g id="a_node7"><a xlink:href="structpkgCache_1_1Header.xhtml" target="_top" xlink:title="Header">
<polygon fill="white" stroke="black" points="476,-409.5 476,-428.5 524,-428.5 524,-409.5 476,-409.5"/>
<text text-anchor="middle" x="500" y="-416.5" font-family="Helvetica,sans-Serif" font-size="10.00">Header</text>
</a>
</g>
</g>
<!-- Node7&#45;&gt;Node4 -->
<g id="edge6" class="edge"><title>Node7&#45;&gt;Node4</title>
<path fill="none" stroke="#9a32cd" stroke-dasharray="5,2" d="M534.229,-420.762C563.642,-420.393 605.583,-414.811 630,-389 661.936,-355.241 617.672,-321.211 648,-286 654.944,-277.938 665.403,-273.285 675.474,-270.603"/>
<polygon fill="#9a32cd" stroke="#9a32cd" points="534.04,-417.261 524.015,-420.691 533.99,-424.261 534.04,-417.261"/>
<text text-anchor="middle" x="602" y="-420" font-family="Helvetica,sans-Serif" font-size="10.00"> HeaderP</text>
</g>
<!-- Node8 -->
<g id="node8" class="node"><title>Node8</title>
<g id="a_node8"><a xlink:href="structDynamicMMap_1_1Pool.xhtml" target="_top" xlink:title="Pool">
<polygon fill="white" stroke="black" points="318,-409.5 318,-428.5 354,-428.5 354,-409.5 318,-409.5"/>
<text text-anchor="middle" x="336" y="-416.5" font-family="Helvetica,sans-Serif" font-size="10.00">Pool</text>
</a>
</g>
</g>
<!-- Node8&#45;&gt;Node7 -->
<g id="edge7" class="edge"><title>Node8&#45;&gt;Node7</title>
<path fill="none" stroke="#9a32cd" stroke-dasharray="5,2" d="M364.236,-419C395.589,-419 446.538,-419 475.988,-419"/>
<polygon fill="#9a32cd" stroke="#9a32cd" points="364.031,-415.5 354.031,-419 364.031,-422.5 364.031,-415.5"/>
<text text-anchor="middle" x="401" y="-422" font-family="Helvetica,sans-Serif" font-size="10.00"> Pools</text>
</g>
<!-- Node9 -->
<g id="node9" class="node"><title>Node9</title>
<g id="a_node9"><a xlink:href="structpkgCache_1_1PackageFile.xhtml" target="_top" xlink:title="stores information about the files used to generate the cache ">
<polygon fill="white" stroke="black" points="464.5,-371.5 464.5,-390.5 535.5,-390.5 535.5,-371.5 464.5,-371.5"/>
<text text-anchor="middle" x="500" y="-378.5" font-family="Helvetica,sans-Serif" font-size="10.00">PackageFile</text>
</a>
</g>
</g>
<!-- Node9&#45;&gt;Node4 -->
<g id="edge8" class="edge"><title>Node9&#45;&gt;Node4</title>
<path fill="none" stroke="#9a32cd" stroke-dasharray="5,2" d="M545.844,-379.086C573.461,-375.595 607.724,-366.749 630,-345 649.617,-325.848 628.864,-305.633 648,-286 655.281,-278.53 665.571,-273.997 675.408,-271.246"/>
<polygon fill="#9a32cd" stroke="#9a32cd" points="545.195,-375.636 535.624,-380.178 545.939,-382.596 545.195,-375.636"/>
<text text-anchor="middle" x="602" y="-377" font-family="Helvetica,sans-Serif" font-size="10.00"> PkgFileP</text>
</g>
<!-- Node10 -->
<g id="node10" class="node"><title>Node10</title>
<g id="a_node10"><a xlink:href="structpkgCache_1_1DescFile.xhtml" target="_top" xlink:title="associates a description with a Translation file ">
<polygon fill="white" stroke="black" points="472,-333.5 472,-352.5 528,-352.5 528,-333.5 472,-333.5"/>
<text text-anchor="middle" x="500" y="-340.5" font-family="Helvetica,sans-Serif" font-size="10.00">DescFile</text>
</a>
</g>
</g>
<!-- Node10&#45;&gt;Node4 -->
<g id="edge9" class="edge"><title>Node10&#45;&gt;Node4</title>
<path fill="none" stroke="#9a32cd" stroke-dasharray="5,2" d="M537.958,-338.568C565.114,-333.972 602.003,-324.833 630,-307 640.368,-300.396 637.799,-292.859 648,-286 656.223,-280.471 666.193,-276.429 675.48,-273.531"/>
<polygon fill="#9a32cd" stroke="#9a32cd" points="537.404,-335.112 528.065,-340.115 538.486,-342.028 537.404,-335.112"/>
<text text-anchor="middle" x="602" y="-333" font-family="Helvetica,sans-Serif" font-size="10.00"> DescFileP</text>
</g>
<!-- Node11 -->
<g id="node11" class="node"><title>Node11</title>
<g id="a_node11"><a xlink:href="structpkgCache_1_1StringItem.xhtml" target="_top" xlink:title="used for generating single instances of strings ">
<polygon fill="white" stroke="black" points="469,-295.5 469,-314.5 531,-314.5 531,-295.5 469,-295.5"/>
<text text-anchor="middle" x="500" y="-302.5" font-family="Helvetica,sans-Serif" font-size="10.00">StringItem</text>
</a>
</g>
</g>
<!-- Node11&#45;&gt;Node4 -->
<g id="edge10" class="edge"><title>Node11&#45;&gt;Node4</title>
<path fill="none" stroke="#9a32cd" stroke-dasharray="5,2" d="M541.045,-298.083C566.535,-293.625 600.236,-287.629 630,-282 645.005,-279.162 661.663,-275.847 675.462,-273.056"/>
<polygon fill="#9a32cd" stroke="#9a32cd" points="540.258,-294.667 531.008,-299.833 541.461,-301.563 540.258,-294.667"/>
<text text-anchor="middle" x="602" y="-295" font-family="Helvetica,sans-Serif" font-size="10.00"> StringItemP</text>
</g>
<!-- Node12 -->
<g id="node12" class="node"><title>Node12</title>
<g id="a_node12"><a xlink:href="structpkgCache_1_1Provides.xhtml" target="_top" xlink:title="handles virtual packages ">
<polygon fill="white" stroke="black" points="472.5,-257.5 472.5,-276.5 527.5,-276.5 527.5,-257.5 472.5,-257.5"/>
<text text-anchor="middle" x="500" y="-264.5" font-family="Helvetica,sans-Serif" font-size="10.00">Provides</text>
</a>
</g>
</g>
<!-- Node12&#45;&gt;Node4 -->
<g id="edge11" class="edge"><title>Node12&#45;&gt;Node4</title>
<path fill="none" stroke="#9a32cd" stroke-dasharray="5,2" d="M537.91,-267C577.313,-267 638.976,-267 675.347,-267"/>
<polygon fill="#9a32cd" stroke="#9a32cd" points="537.669,-263.5 527.669,-267 537.669,-270.5 537.669,-263.5"/>
<text text-anchor="middle" x="602" y="-270" font-family="Helvetica,sans-Serif" font-size="10.00"> ProvideP</text>
</g>
<!-- Node13 -->
<g id="node13" class="node"><title>Node13</title>
<g id="a_node13"><a xlink:title="STL class. ">
<polygon fill="white" stroke="#bfbfbf" points="144.5,-200.5 144.5,-219.5 185.5,-219.5 185.5,-200.5 144.5,-200.5"/>
<text text-anchor="middle" x="165" y="-207.5" font-family="Helvetica,sans-Serif" font-size="10.00">string</text>
</a>
</g>
</g>
<!-- Node13&#45;&gt;Node4 -->
<g id="edge12" class="edge"><title>Node13&#45;&gt;Node4</title>
<path fill="none" stroke="#9a32cd" stroke-dasharray="5,2" d="M195.697,-214.016C198.502,-214.362 201.303,-214.696 204,-215 360.143,-232.586 399.822,-230.726 556,-248 597.471,-252.587 645.306,-258.862 675.351,-262.923"/>
<polygon fill="#9a32cd" stroke="#9a32cd" points="196.07,-210.535 185.706,-212.735 195.179,-217.478 196.07,-210.535"/>
<text text-anchor="middle" x="401" y="-239" font-family="Helvetica,sans-Serif" font-size="10.00"> CacheFile</text>
</g>
<!-- Node21 -->
<g id="node21" class="node"><title>Node21</title>
<g id="a_node21"><a xlink:href="classFileFd.xhtml" target="_top" xlink:title="FileFd">
<polygon fill="white" stroke="black" points="314,-181.5 314,-200.5 358,-200.5 358,-181.5 314,-181.5"/>
<text text-anchor="middle" x="336" y="-188.5" font-family="Helvetica,sans-Serif" font-size="10.00">FileFd</text>
</a>
</g>
</g>
<!-- Node13&#45;&gt;Node21 -->
<g id="edge22" class="edge"><title>Node13&#45;&gt;Node21</title>
<path fill="none" stroke="#9a32cd" stroke-dasharray="5,2" d="M192.707,-196.457C196.422,-195.048 200.251,-193.83 204,-193 241.975,-184.589 287.668,-186.522 313.824,-188.733"/>
<polygon fill="#9a32cd" stroke="#9a32cd" points="191.089,-193.342 183.274,-200.496 193.844,-199.777 191.089,-193.342"/>
<text text-anchor="middle" x="250" y="-207" font-family="Helvetica,sans-Serif" font-size="10.00"> TemporaryFileName</text>
<text text-anchor="middle" x="250" y="-196" font-family="Helvetica,sans-Serif" font-size="10.00">FileName</text>
</g>
<!-- Node14 -->
<g id="node14" class="node"><title>Node14</title>
<g id="a_node14"><a xlink:title="STL class. ">
<polygon fill="white" stroke="#bfbfbf" points="0,-200.5 0,-219.5 106,-219.5 106,-200.5 0,-200.5"/>
<text text-anchor="middle" x="53" y="-207.5" font-family="Helvetica,sans-Serif" font-size="10.00">basic_string&lt; char &gt;</text>
</a>
</g>
</g>
<!-- Node14&#45;&gt;Node13 -->
<g id="edge13" class="edge"><title>Node14&#45;&gt;Node13</title>
<path fill="none" stroke="midnightblue" d="M116.338,-210C126.515,-210 136.35,-210 144.416,-210"/>
<polygon fill="midnightblue" stroke="midnightblue" points="116.101,-206.5 106.101,-210 116.101,-213.5 116.101,-206.5"/>
</g>
<!-- Node15 -->
<g id="node15" class="node"><title>Node15</title>
<g id="a_node15"><a xlink:href="structpkgCache_1_1Group.xhtml" target="_top" xlink:title="groups architecture depending packages together ">
<polygon fill="white" stroke="black" points="478.5,-143.5 478.5,-162.5 521.5,-162.5 521.5,-143.5 478.5,-143.5"/>
<text text-anchor="middle" x="500" y="-150.5" font-family="Helvetica,sans-Serif" font-size="10.00">Group</text>
</a>
</g>
</g>
<!-- Node15&#45;&gt;Node4 -->
<g id="edge14" class="edge"><title>Node15&#45;&gt;Node4</title>
<path fill="none" stroke="#9a32cd" stroke-dasharray="5,2" d="M531.923,-152.632C559.422,-153.613 599.831,-158.366 630,-176 664.466,-196.146 689.941,-238.401 700.125,-257.394"/>
<polygon fill="#9a32cd" stroke="#9a32cd" points="531.779,-149.128 521.709,-152.419 531.634,-156.127 531.779,-149.128"/>
<text text-anchor="middle" x="602" y="-179" font-family="Helvetica,sans-Serif" font-size="10.00"> GrpP</text>
</g>
<!-- Node16 -->
<g id="node16" class="node"><title>Node16</title>
<g id="a_node16"><a xlink:href="classpkgVersioningSystem.xhtml" target="_top" xlink:title="pkgVersioningSystem">
<polygon fill="white" stroke="black" points="444,-76.5 444,-95.5 556,-95.5 556,-76.5 444,-76.5"/>
<text text-anchor="middle" x="500" y="-83.5" font-family="Helvetica,sans-Serif" font-size="10.00">pkgVersioningSystem</text>
</a>
</g>
</g>
<!-- Node16&#45;&gt;Node4 -->
<g id="edge15" class="edge"><title>Node16&#45;&gt;Node4</title>
<path fill="none" stroke="#9a32cd" stroke-dasharray="5,2" d="M547.223,-98.76C573.705,-107.824 606.281,-122.136 630,-143 668.16,-176.566 692.795,-234.366 701.49,-257.256"/>
<polygon fill="#9a32cd" stroke="#9a32cd" points="547.996,-95.3302 537.404,-95.5401 545.815,-101.982 547.996,-95.3302"/>
<text text-anchor="middle" x="602" y="-146" font-family="Helvetica,sans-Serif" font-size="10.00"> VS</text>
</g>
<!-- Node16&#45;&gt;Node16 -->
<g id="edge16" class="edge"><title>Node16&#45;&gt;Node16</title>
<path fill="none" stroke="#9a32cd" stroke-dasharray="5,2" d="M481.853,-105.4C483.065,-110.315 489.114,-114 500,-114 517.418,-114 522.453,-104.565 515.105,-95.7571"/>
<polygon fill="#9a32cd" stroke="#9a32cd" points="485.224,-106.347 484.895,-95.7571 478.548,-104.24 485.224,-106.347"/>
<text text-anchor="middle" x="500" y="-117" font-family="Helvetica,sans-Serif" font-size="10.00"> GlobalList</text>
</g>
<!-- Node17 -->
<g id="node17" class="node"><title>Node17</title>
<g id="a_node17"><a xlink:href="structpkgCache_1_1Version.xhtml" target="_top" xlink:title="information for a single version of a package ">
<polygon fill="white" stroke="black" points="475,-38.5 475,-57.5 525,-57.5 525,-38.5 475,-38.5"/>
<text text-anchor="middle" x="500" y="-45.5" font-family="Helvetica,sans-Serif" font-size="10.00">Version</text>
</a>
</g>
</g>
<!-- Node17&#45;&gt;Node4 -->
<g id="edge17" class="edge"><title>Node17&#45;&gt;Node4</title>
<path fill="none" stroke="#9a32cd" stroke-dasharray="5,2" d="M535.166,-52.7156C563.753,-58.2994 603.935,-70.1931 630,-95 679.791,-142.387 698.455,-228.505 703.478,-257.317"/>
<polygon fill="#9a32cd" stroke="#9a32cd" points="535.667,-49.2497 525.207,-50.9317 534.433,-56.1401 535.667,-49.2497"/>
<text text-anchor="middle" x="602" y="-98" font-family="Helvetica,sans-Serif" font-size="10.00"> VerP</text>
</g>
<!-- Node18 -->
<g id="node18" class="node"><title>Node18</title>
<g id="a_node18"><a xlink:href="structpkgCache_1_1VerFile.xhtml" target="_top" xlink:title="associates a version with a PackageFile ">
<polygon fill="white" stroke="black" points="476.5,-0.5 476.5,-19.5 523.5,-19.5 523.5,-0.5 476.5,-0.5"/>
<text text-anchor="middle" x="500" y="-7.5" font-family="Helvetica,sans-Serif" font-size="10.00">VerFile</text>
</a>
</g>
</g>
<!-- Node18&#45;&gt;Node2 -->
<g id="edge23" class="edge"><title>Node18&#45;&gt;Node2</title>
<path fill="none" stroke="#9a32cd" stroke-dasharray="5,2" d="M533.775,-7.74336C560.856,-7.20633 599.644,-9.57237 630,-24 744.131,-78.2452 836.896,-207.58 866.265,-251.841"/>
<polygon fill="#9a32cd" stroke="#9a32cd" points="533.53,-4.24957 523.656,-8.08927 533.77,-11.2455 533.53,-4.24957"/>
<text text-anchor="middle" x="706" y="-127" font-family="Helvetica,sans-Serif" font-size="10.00"> S</text>
</g>
<!-- Node18&#45;&gt;Node4 -->
<g id="edge18" class="edge"><title>Node18&#45;&gt;Node4</title>
<path fill="none" stroke="#9a32cd" stroke-dasharray="5,2" d="M533.356,-16.2716C566.835,-23.3571 616.139,-35.6531 630,-49 692.275,-108.966 702.854,-222.937 704.64,-257.088"/>
<polygon fill="#9a32cd" stroke="#9a32cd" points="534.031,-12.8373 523.53,-14.2445 532.617,-19.6929 534.031,-12.8373"/>
<text text-anchor="middle" x="602" y="-52" font-family="Helvetica,sans-Serif" font-size="10.00"> VerFileP</text>
</g>
<!-- Node19 -->
<g id="node19" class="node"><title>Node19</title>
<g id="a_node19"><a xlink:href="structpkgCache_1_1Package.xhtml" target="_top" xlink:title="contains information for a single unique package ">
<polygon fill="white" stroke="black" points="472.5,-523.5 472.5,-542.5 527.5,-542.5 527.5,-523.5 472.5,-523.5"/>
<text text-anchor="middle" x="500" y="-530.5" font-family="Helvetica,sans-Serif" font-size="10.00">Package</text>
</a>
</g>
</g>
<!-- Node19&#45;&gt;Node4 -->
<g id="edge19" class="edge"><title>Node19&#45;&gt;Node4</title>
<path fill="none" stroke="#9a32cd" stroke-dasharray="5,2" d="M537.953,-537.782C567.344,-539.321 607.194,-535.934 630,-511 663.854,-473.988 617.071,-325.489 648,-286 654.625,-277.542 665.146,-272.814 675.356,-270.184"/>
<polygon fill="#9a32cd" stroke="#9a32cd" points="537.879,-534.267 527.649,-537.023 537.364,-541.249 537.879,-534.267"/>
<text text-anchor="middle" x="602" y="-539" font-family="Helvetica,sans-Serif" font-size="10.00"> PkgP</text>
</g>
<!-- Node20 -->
<g id="node20" class="node"><title>Node20</title>
<g id="a_node20"><a xlink:href="classMMap.xhtml" target="_top" xlink:title="MMap">
<polygon fill="white" stroke="black" points="478,-181.5 478,-200.5 522,-200.5 522,-181.5 478,-181.5"/>
<text text-anchor="middle" x="500" y="-188.5" font-family="Helvetica,sans-Serif" font-size="10.00">MMap</text>
</a>
</g>
</g>
<!-- Node20&#45;&gt;Node4 -->
<g id="edge20" class="edge"><title>Node20&#45;&gt;Node4</title>
<path fill="none" stroke="#9a32cd" stroke-dasharray="5,2" d="M532.049,-189.102C558.994,-188.607 598.513,-190.704 630,-204 658.512,-216.039 684.391,-242.802 696.97,-257.269"/>
<polygon fill="#9a32cd" stroke="#9a32cd" points="531.917,-185.604 522.032,-189.416 532.137,-192.601 531.917,-185.604"/>
<text text-anchor="middle" x="602" y="-207" font-family="Helvetica,sans-Serif" font-size="10.00"> Map</text>
</g>
<!-- Node21&#45;&gt;Node20 -->
<g id="edge21" class="edge"><title>Node21&#45;&gt;Node20</title>
<path fill="none" stroke="#9a32cd" stroke-dasharray="5,2" d="M368.403,-191C400.64,-191 449.92,-191 477.816,-191"/>
<polygon fill="#9a32cd" stroke="#9a32cd" points="368.179,-187.5 358.179,-191 368.179,-194.5 368.179,-187.5"/>
<text text-anchor="middle" x="401" y="-194" font-family="Helvetica,sans-Serif" font-size="10.00"> SyncToFd</text>
</g>
</g>
</svg>
        <g id="navigator" transform="translate(0 0)" fill="#404254">
                <rect fill="#f2f5e9" fill-opacity="0.5" stroke="#606060" stroke-width=".5" x="0" y="0" width="60" height="60"/>
                <use id="zoomplus" xlink:href="#zoomPlus" x="17" y="9" onmousedown="handleZoom(evt,'in')"/>
                <use id="zoomminus" xlink:href="#zoomMin" x="42" y="9" onmousedown="handleZoom(evt,'out')"/>
                <use id="reset" xlink:href="#resetDef" x="30" y="36" onmousedown="handleReset()"/>
                <g id="arrowUp" xlink:href="#dirArrow" transform="translate(30 24)" onmousedown="handlePan(0,-1)">
                  <use xlink:href="#rim" fill="#404040">
                        <set attributeName="fill" to="#808080" begin="arrowUp.mouseover" end="arrowUp.mouseout"/>
                  </use>
                  <path fill="none" stroke="white" stroke-width="1.5" d="M0,-3.0v7 M-2.5,-0.5L0,-3.0L2.5,-0.5"/>
                </g>
                <g id="arrowRight" xlink:href="#dirArrow" transform="rotate(90) translate(36 -43)" onmousedown="handlePan(1,0)">
                  <use xlink:href="#rim" fill="#404040">
                        <set attributeName="fill" to="#808080" begin="arrowRight.mouseover" end="arrowRight.mouseout"/>
                  </use>
                  <path fill="none" stroke="white" stroke-width="1.5" d="M0,-3.0v7 M-2.5,-0.5L0,-3.0L2.5,-0.5"/>
                </g>
                <g id="arrowDown" xlink:href="#dirArrow" transform="rotate(180) translate(-30 -48)" onmousedown="handlePan(0,1)">
                  <use xlink:href="#rim" fill="#404040">
                        <set attributeName="fill" to="#808080" begin="arrowDown.mouseover" end="arrowDown.mouseout"/>
                  </use>
                  <path fill="none" stroke="white" stroke-width="1.5" d="M0,-3.0v7 M-2.5,-0.5L0,-3.0L2.5,-0.5"/>
                </g>
                <g id="arrowLeft" xlink:href="#dirArrow" transform="rotate(270) translate(-36 17)" onmousedown="handlePan(-1,0)">
                  <use xlink:href="#rim" fill="#404040">
                        <set attributeName="fill" to="#808080" begin="arrowLeft.mouseover" end="arrowLeft.mouseout"/>
                  </use>
                  <path fill="none" stroke="white" stroke-width="1.5" d="M0,-3.0v7 M-2.5,-0.5L0,-3.0L2.5,-0.5"/>
                </g>
        </g>
        <svg viewBox="0 0 15 15" width="100%" height="30px" preserveAspectRatio="xMaxYMin meet">
         <g id="arrow_out" transform="scale(0.3 0.3)">
          <a xlink:href="classpkgCache_1_1VerFileIterator__coll__graph_org.svg" target="_base">
           <rect id="button" ry="5" rx="5" y="6" x="6" height="38" width="38"
                fill="#f2f5e9" fill-opacity="0.5" stroke="#606060" stroke-width="1.0"/>
           <path id="arrow"
             d="M 11.500037,31.436501 C 11.940474,20.09759 22.043105,11.32322 32.158766,21.979434 L 37.068811,17.246167 C 37.068811,17.246167 37.088388,32 37.088388,32 L 22.160133,31.978069 C 22.160133,31.978069 26.997745,27.140456 26.997745,27.140456 C 18.528582,18.264221 13.291696,25.230495 11.500037,31.436501 z"
             style="fill:#404040;"/>
          </a>
         </g>
        </svg>
</svg>
