<?xml version="1.0" encoding="UTF-8" standalone="no"?>
<!DOCTYPE svg PUBLIC "-//W3C//DTD SVG 1.1//EN"
 "http://www.w3.org/Graphics/SVG/1.1/DTD/svg11.dtd">
<!-- Generated by graphviz version 2.36.0 (20140111.2315)
 -->
<!-- Title: debVersioningSystem Pages: 1 -->
<svg width="184pt" height="86pt"
 viewBox="0.00 0.00 184.00 86.00" xmlns="http://www.w3.org/2000/svg" xmlns:xlink="http://www.w3.org/1999/xlink">
<g id="graph0" class="graph" transform="scale(1 1) rotate(0) translate(4 82)">
<title>debVersioningSystem</title>
<polygon fill="white" stroke="none" points="-4,4 -4,-82 180,-82 180,4 -4,4"/>
<!-- Node1 -->
<g id="node1" class="node"><title>Node1</title>
<polygon fill="#bfbfbf" stroke="black" points="-1,-0.5 -1,-19.5 111,-19.5 111,-0.5 -1,-0.5"/>
<text text-anchor="middle" x="55" y="-7.5" font-family="Helvetica,sans-Serif" font-size="10.00">debVersioningSystem</text>
</g>
<!-- Node2 -->
<g id="node2" class="node"><title>Node2</title>
<g id="a_node2"><a xlink:href="classpkgVersioningSystem.xhtml" target="_top" xlink:title="pkgVersioningSystem">
<polygon fill="white" stroke="black" points="-1,-58.5 -1,-77.5 111,-77.5 111,-58.5 -1,-58.5"/>
<text text-anchor="middle" x="55" y="-65.5" font-family="Helvetica,sans-Serif" font-size="10.00">pkgVersioningSystem</text>
</a>
</g>
</g>
<!-- Node2&#45;&gt;Node1 -->
<g id="edge1" class="edge"><title>Node2&#45;&gt;Node1</title>
<path fill="none" stroke="midnightblue" d="M55,-47.953C55,-38.2875 55,-27.0312 55,-19.5052"/>
<polygon fill="midnightblue" stroke="midnightblue" points="51.5001,-48.25 55,-58.25 58.5001,-48.25 51.5001,-48.25"/>
</g>
<!-- Node2&#45;&gt;Node2 -->
<g id="edge2" class="edge"><title>Node2&#45;&gt;Node2</title>
<path fill="none" stroke="#9a32cd" stroke-dasharray="5,2" d="M121.115,-71.7292C125.405,-70.8594 128,-69.6163 128,-68 128,-65.3477 121.013,-63.7003 111.01,-63.0579"/>
<polygon fill="#9a32cd" stroke="#9a32cd" points="120.522,-68.2752 111.01,-72.9421 121.356,-75.2254 120.522,-68.2752"/>
<text text-anchor="middle" x="151.5" y="-65.5" font-family="Helvetica,sans-Serif" font-size="10.00"> GlobalList</text>
</g>
</g>
</svg>
