<?xml version="1.0" encoding="UTF-8" standalone="no"?>
<!DOCTYPE svg PUBLIC "-//W3C//DTD SVG 1.1//EN"
 "http://www.w3.org/Graphics/SVG/1.1/DTD/svg11.dtd">
<!-- Generated by graphviz version 2.36.0 (20140111.2315)
 -->
<!-- Title: debReleaseIndex::debSectionEntry Pages: 1 -->
<svg width="154pt" height="166pt"
 viewBox="0.00 0.00 154.00 166.00" xmlns="http://www.w3.org/2000/svg" xmlns:xlink="http://www.w3.org/1999/xlink">
<g id="graph0" class="graph" transform="scale(1 1) rotate(0) translate(4 162)">
<title>debReleaseIndex::debSectionEntry</title>
<polygon fill="white" stroke="none" points="-4,4 -4,-162 150,-162 150,4 -4,4"/>
<!-- Node1 -->
<g id="node1" class="node"><title>Node1</title>
<polygon fill="#bfbfbf" stroke="black" points="-0.5,-1 -0.5,-31 146.5,-31 146.5,-1 -0.5,-1"/>
<text text-anchor="start" x="7.5" y="-19" font-family="Helvetica,sans-Serif" font-size="10.00">debReleaseIndex::debSection</text>
<text text-anchor="middle" x="73" y="-8" font-family="Helvetica,sans-Serif" font-size="10.00">Entry</text>
</g>
<!-- Node2 -->
<g id="node2" class="node"><title>Node2</title>
<g id="a_node2"><a xlink:title="STL class. ">
<polygon fill="white" stroke="#bfbfbf" points="52.5,-80.5 52.5,-99.5 93.5,-99.5 93.5,-80.5 52.5,-80.5"/>
<text text-anchor="middle" x="73" y="-87.5" font-family="Helvetica,sans-Serif" font-size="10.00">string</text>
</a>
</g>
</g>
<!-- Node2&#45;&gt;Node1 -->
<g id="edge1" class="edge"><title>Node2&#45;&gt;Node1</title>
<path fill="none" stroke="#9a32cd" stroke-dasharray="5,2" d="M73,-70.0846C73,-57.9148 73,-42.3538 73,-31.2316"/>
<polygon fill="#9a32cd" stroke="#9a32cd" points="69.5001,-70.4579 73,-80.4579 76.5001,-70.4579 69.5001,-70.4579"/>
<text text-anchor="middle" x="91.5" y="-53.5" font-family="Helvetica,sans-Serif" font-size="10.00"> Section</text>
</g>
<!-- Node3 -->
<g id="node3" class="node"><title>Node3</title>
<g id="a_node3"><a xlink:title="STL class. ">
<polygon fill="white" stroke="#bfbfbf" points="20,-138.5 20,-157.5 126,-157.5 126,-138.5 20,-138.5"/>
<text text-anchor="middle" x="73" y="-145.5" font-family="Helvetica,sans-Serif" font-size="10.00">basic_string&lt; char &gt;</text>
</a>
</g>
</g>
<!-- Node3&#45;&gt;Node2 -->
<g id="edge2" class="edge"><title>Node3&#45;&gt;Node2</title>
<path fill="none" stroke="midnightblue" d="M73,-127.953C73,-118.287 73,-107.031 73,-99.5052"/>
<polygon fill="midnightblue" stroke="midnightblue" points="69.5001,-128.25 73,-138.25 76.5001,-128.25 69.5001,-128.25"/>
</g>
</g>
</svg>
