<?xml version="1.0" encoding="UTF-8" standalone="no"?>
<!DOCTYPE svg PUBLIC "-//W3C//DTD SVG 1.1//EN"
 "http://www.w3.org/Graphics/SVG/1.1/DTD/svg11.dtd">
<!-- Generated by graphviz version 2.36.0 (20140111.2315)
 -->
<!-- Title: CommandLine Pages: 1 -->
<svg width="137pt" height="96pt"
 viewBox="0.00 0.00 137.00 96.00" xmlns="http://www.w3.org/2000/svg" xmlns:xlink="http://www.w3.org/1999/xlink">
<g id="graph0" class="graph" transform="scale(1 1) rotate(0) translate(4 92)">
<title>CommandLine</title>
<polygon fill="white" stroke="none" points="-4,4 -4,-92 133,-92 133,4 -4,4"/>
<!-- Node1 -->
<g id="node1" class="node"><title>Node1</title>
<polygon fill="#bfbfbf" stroke="black" points="15,-0.5 15,-19.5 95,-19.5 95,-0.5 15,-0.5"/>
<text text-anchor="middle" x="55" y="-7.5" font-family="Helvetica,sans-Serif" font-size="10.00">CommandLine</text>
</g>
<!-- Node2 -->
<g id="node2" class="node"><title>Node2</title>
<g id="a_node2"><a xlink:href="structCommandLine_1_1Args.xhtml" target="_top" xlink:title="Args">
<polygon fill="white" stroke="black" points="-0.5,-68.5 -0.5,-87.5 36.5,-87.5 36.5,-68.5 -0.5,-68.5"/>
<text text-anchor="middle" x="18" y="-75.5" font-family="Helvetica,sans-Serif" font-size="10.00">Args</text>
</a>
</g>
</g>
<!-- Node2&#45;&gt;Node1 -->
<g id="edge1" class="edge"><title>Node2&#45;&gt;Node1</title>
<path fill="none" stroke="#9a32cd" stroke-dasharray="5,2" d="M25.5483,-58.8685C28.5464,-52.1757 32.1881,-44.6145 36,-38 39.6633,-31.6433 44.4133,-24.8933 48.2475,-19.7325"/>
<polygon fill="#9a32cd" stroke="#9a32cd" points="22.1797,-57.8417 21.435,-68.4103 28.6078,-60.6128 22.1797,-57.8417"/>
<text text-anchor="middle" x="53" y="-41.5" font-family="Helvetica,sans-Serif" font-size="10.00"> ArgList</text>
</g>
<!-- Node3 -->
<g id="node3" class="node"><title>Node3</title>
<g id="a_node3"><a xlink:href="classConfiguration.xhtml" target="_top" xlink:title="Configuration">
<polygon fill="white" stroke="black" points="55,-68.5 55,-87.5 129,-87.5 129,-68.5 55,-68.5"/>
<text text-anchor="middle" x="92" y="-75.5" font-family="Helvetica,sans-Serif" font-size="10.00">Configuration</text>
</a>
</g>
</g>
<!-- Node3&#45;&gt;Node1 -->
<g id="edge2" class="edge"><title>Node3&#45;&gt;Node1</title>
<path fill="none" stroke="#9a32cd" stroke-dasharray="5,2" d="M82.2247,-59.563C75.0593,-46.7815 65.629,-29.9599 59.9564,-19.8411"/>
<polygon fill="#9a32cd" stroke="#9a32cd" points="79.2198,-61.3604 87.1629,-68.3717 85.3258,-57.9373 79.2198,-61.3604"/>
<text text-anchor="middle" x="89.5" y="-41.5" font-family="Helvetica,sans-Serif" font-size="10.00"> Conf</text>
</g>
</g>
</svg>
