<?xml version="1.0" encoding="UTF-8" standalone="no"?>
<!DOCTYPE svg PUBLIC "-//W3C//DTD SVG 1.1//EN"
 "http://www.w3.org/Graphics/SVG/1.1/DTD/svg11.dtd">
<!-- Generated by graphviz version 2.36.0 (20140111.2315)
 -->
<!-- Title: pkgAcqMetaClearSig Pages: 1 -->
<!--zoomable 628 -->
<svg id="main" version="1.1" xmlns="http://www.w3.org/2000/svg" xmlns:xlink="http://www.w3.org/1999/xlink" xml:space="preserve" onload="init(evt)">
<style type="text/css"><![CDATA[
.edge:hover path { stroke: red; }
.edge:hover polygon { stroke: red; fill: red; }
]]></style>
<script type="text/javascript"><![CDATA[
var edges = document.getElementsByTagName('g');
if (edges && edges.length) {
  for (var i=0;i<edges.length;i++) {
    if (edges[i].id.substr(0,4)=='edge') {
      edges[i].setAttribute('class','edge');
    }
  }
}
]]></script>
        <defs>
                <circle id="rim" cx="0" cy="0" r="7"/>
                <circle id="rim2" cx="0" cy="0" r="3.5"/>
                <g id="zoomPlus">
                        <use xlink:href="#rim" fill="#404040">
                                <set attributeName="fill" to="#808080" begin="zoomplus.mouseover" end="zoomplus.mouseout"/>
                        </use>
                        <path d="M-4,0h8M0,-4v8" fill="none" stroke="white" stroke-width="1.5" pointer-events="none"/>
                </g>
                <g id="zoomMin">
                        <use xlink:href="#rim" fill="#404040">
                                <set attributeName="fill" to="#808080" begin="zoomminus.mouseover" end="zoomminus.mouseout"/>
                        </use>
                        <path d="M-4,0h8" fill="none" stroke="white" stroke-width="1.5" pointer-events="none"/>
                </g>
                <g id="dirArrow">
                        <path fill="none" stroke="white" stroke-width="1.5" d="M0,-3.0v7 M-2.5,-0.5L0,-3.0L2.5,-0.5"/>
                </g>
               <g id="resetDef">
                       <use xlink:href="#rim2" fill="#404040">
                               <set attributeName="fill" to="#808080" begin="reset.mouseover" end="reset.mouseout"/>
                       </use>
               </g>
        </defs>

<script type="text/javascript">
var viewWidth = 1211;
var viewHeight = 628;
var sectionId = 'dynsection-1';
</script>
<script xlink:href="svgpan.js"/>
<svg id="graph" class="graph">
<g id="viewport">
<title>pkgAcqMetaClearSig</title>
<polygon fill="white" stroke="none" points="-4,4 -4,-624 1207,-624 1207,4 -4,4"/>
<!-- Node1 -->
<g id="node1" class="node"><title>Node1</title>
<polygon fill="#bfbfbf" stroke="black" points="865.5,-0.5 865.5,-19.5 974.5,-19.5 974.5,-0.5 865.5,-0.5"/>
<text text-anchor="middle" x="920" y="-7.5" font-family="Helvetica,sans-Serif" font-size="10.00">pkgAcqMetaClearSig</text>
</g>
<!-- Node2 -->
<g id="node2" class="node"><title>Node2</title>
<g id="a_node2"><a xlink:href="classpkgAcqMetaIndex.xhtml" target="_top" xlink:title="An item that is responsible for downloading the meta&#45;index {{{ file (i.e., Release) itself and verify...">
<polygon fill="white" stroke="black" points="872.5,-69.5 872.5,-88.5 967.5,-88.5 967.5,-69.5 872.5,-69.5"/>
<text text-anchor="middle" x="920" y="-76.5" font-family="Helvetica,sans-Serif" font-size="10.00">pkgAcqMetaIndex</text>
</a>
</g>
</g>
<!-- Node2&#45;&gt;Node1 -->
<g id="edge1" class="edge"><title>Node2&#45;&gt;Node1</title>
<path fill="none" stroke="midnightblue" d="M920,-59.0183C920,-46.034 920,-29.4419 920,-19.5494"/>
<polygon fill="midnightblue" stroke="midnightblue" points="916.5,-59.2409 920,-69.2409 923.5,-59.241 916.5,-59.2409"/>
</g>
<!-- Node3 -->
<g id="node3" class="node"><title>Node3</title>
<g id="a_node3"><a xlink:href="classpkgAcquire_1_1Item.xhtml" target="_top" xlink:title="Represents the process by which a pkgAcquire object should {{{ retrieve a file or a collection of fil...">
<polygon fill="white" stroke="black" points="648,-435.5 648,-454.5 684,-454.5 684,-435.5 648,-435.5"/>
<text text-anchor="middle" x="666" y="-442.5" font-family="Helvetica,sans-Serif" font-size="10.00">Item</text>
</a>
</g>
</g>
<!-- Node3&#45;&gt;Node2 -->
<g id="edge2" class="edge"><title>Node3&#45;&gt;Node2</title>
<path fill="none" stroke="midnightblue" d="M688.158,-429.609C706.345,-416.659 731.4,-396.011 746,-372 780.835,-314.708 751.72,-284.769 784,-226 817.688,-164.669 882.888,-109.224 908.896,-88.5614"/>
<polygon fill="midnightblue" stroke="midnightblue" points="686.105,-426.773 679.857,-435.329 690.077,-432.537 686.105,-426.773"/>
</g>
<!-- Node8 -->
<g id="node8" class="node"><title>Node8</title>
<g id="a_node8"><a xlink:href="structpkgAcquire_1_1ItemDesc.xhtml" target="_top" xlink:title="Represents a single download source from which an item should be downloaded. ">
<polygon fill="white" stroke="black" points="560.5,-340.5 560.5,-359.5 619.5,-359.5 619.5,-340.5 560.5,-340.5"/>
<text text-anchor="middle" x="590" y="-347.5" font-family="Helvetica,sans-Serif" font-size="10.00">ItemDesc</text>
</a>
</g>
</g>
<!-- Node3&#45;&gt;Node8 -->
<g id="edge12" class="edge"><title>Node3&#45;&gt;Node8</title>
<path fill="none" stroke="#9a32cd" stroke-dasharray="5,2" d="M638.455,-432.229C623.43,-425.275 606.91,-416.574 602,-410 590.74,-394.926 589.382,-371.881 589.568,-359.527"/>
<polygon fill="#9a32cd" stroke="#9a32cd" points="637.42,-435.601 647.976,-436.507 640.289,-429.216 637.42,-435.601"/>
<text text-anchor="middle" x="618" y="-397.5" font-family="Helvetica,sans-Serif" font-size="10.00"> Owner</text>
</g>
<!-- Node15 -->
<g id="node15" class="node"><title>Node15</title>
<polygon fill="white" stroke="#bfbfbf" points="685.5,-177 685.5,-207 786.5,-207 786.5,-177 685.5,-177"/>
<text text-anchor="start" x="693.5" y="-195" font-family="Helvetica,sans-Serif" font-size="10.00">vector&lt; pkgAcquire</text>
<text text-anchor="middle" x="736" y="-184" font-family="Helvetica,sans-Serif" font-size="10.00">::Item * &gt;</text>
</g>
<!-- Node3&#45;&gt;Node15 -->
<g id="edge31" class="edge"><title>Node3&#45;&gt;Node15</title>
<path fill="none" stroke="#9a32cd" stroke-dasharray="5,2" d="M671.096,-425.726C684.43,-377.916 720.135,-249.888 732.06,-207.127"/>
<polygon fill="#9a32cd" stroke="#9a32cd" points="667.725,-424.787 668.41,-435.36 674.467,-426.668 667.725,-424.787"/>
<text text-anchor="middle" x="720.5" y="-347.5" font-family="Helvetica,sans-Serif" font-size="10.00"> elements</text>
</g>
<!-- Node4 -->
<g id="node4" class="node"><title>Node4</title>
<g id="a_node4"><a xlink:href="classWeakPointable.xhtml" target="_top" xlink:title="WeakPointable">
<polygon fill="white" stroke="black" points="196.5,-542.5 196.5,-561.5 279.5,-561.5 279.5,-542.5 196.5,-542.5"/>
<text text-anchor="middle" x="238" y="-549.5" font-family="Helvetica,sans-Serif" font-size="10.00">WeakPointable</text>
</a>
</g>
</g>
<!-- Node4&#45;&gt;Node3 -->
<g id="edge3" class="edge"><title>Node4&#45;&gt;Node3</title>
<path fill="none" stroke="midnightblue" d="M289.87,-541.574C364.73,-527.409 507.022,-498.373 625,-462 632.594,-459.659 640.784,-456.579 647.833,-453.748"/>
<polygon fill="midnightblue" stroke="midnightblue" points="288.945,-538.187 279.764,-543.474 290.238,-545.066 288.945,-538.187"/>
</g>
<!-- Node4&#45;&gt;Node8 -->
<g id="edge9" class="edge"><title>Node4&#45;&gt;Node8</title>
<path fill="none" stroke="midnightblue" d="M232.874,-532.561C224.763,-498.89 213.552,-427.477 252,-390 275.436,-367.156 514.316,-380.199 546,-372 556.325,-369.328 567.145,-364.199 575.472,-359.679"/>
<polygon fill="midnightblue" stroke="midnightblue" points="229.535,-533.626 235.43,-542.429 236.311,-531.871 229.535,-533.626"/>
</g>
<!-- Node11 -->
<g id="node11" class="node"><title>Node11</title>
<g id="a_node11"><a xlink:href="classpkgAcquire_1_1Worker.xhtml" target="_top" xlink:title="A fetch subprocess. ">
<polygon fill="white" stroke="black" points="230,-69.5 230,-88.5 278,-88.5 278,-69.5 230,-69.5"/>
<text text-anchor="middle" x="254" y="-76.5" font-family="Helvetica,sans-Serif" font-size="10.00">Worker</text>
</a>
</g>
</g>
<!-- Node4&#45;&gt;Node11 -->
<g id="edge15" class="edge"><title>Node4&#45;&gt;Node11</title>
<path fill="none" stroke="midnightblue" d="M185.867,-550.128C115.818,-545.876 0,-526.651 0,-446 0,-446 0,-446 0,-147 0,-103.789 223.615,-90.3388 225,-90 226.759,-89.5698 228.562,-89.0775 230.367,-88.5472"/>
<polygon fill="midnightblue" stroke="midnightblue" points="186.102,-553.645 196.271,-550.67 186.467,-546.654 186.102,-553.645"/>
</g>
<!-- Node5 -->
<g id="node5" class="node"><title>Node5</title>
<g id="a_node5"><a xlink:href="classpkgAcquire.xhtml" target="_top" xlink:title="The core download scheduler. {{{. ">
<polygon fill="white" stroke="black" points="482.5,-0.5 482.5,-19.5 547.5,-19.5 547.5,-0.5 482.5,-0.5"/>
<text text-anchor="middle" x="515" y="-7.5" font-family="Helvetica,sans-Serif" font-size="10.00">pkgAcquire</text>
</a>
</g>
</g>
<!-- Node5&#45;&gt;Node3 -->
<g id="edge4" class="edge"><title>Node5&#45;&gt;Node3</title>
<path fill="none" stroke="#9a32cd" stroke-dasharray="5,2" d="M557.618,-14.8311C596.521,-20.948 648,-36.8219 648,-78 648,-351 648,-351 648,-351 648,-382.575 658.125,-419.1 663.188,-435.389"/>
<polygon fill="#9a32cd" stroke="#9a32cd" points="557.925,-11.34 547.535,-13.4139 556.951,-18.2718 557.925,-11.34"/>
<text text-anchor="middle" x="664" y="-189.5" font-family="Helvetica,sans-Serif" font-size="10.00"> Owner</text>
</g>
<!-- Node6 -->
<g id="node6" class="node"><title>Node6</title>
<g id="a_node6"><a xlink:href="classpkgAcquire_1_1Queue.xhtml" target="_top" xlink:title="A single download queue in a pkgAcquire object. {{{. ">
<polygon fill="white" stroke="black" points="517.5,-138.5 517.5,-157.5 562.5,-157.5 562.5,-138.5 517.5,-138.5"/>
<text text-anchor="middle" x="540" y="-145.5" font-family="Helvetica,sans-Serif" font-size="10.00">Queue</text>
</a>
</g>
</g>
<!-- Node5&#45;&gt;Node6 -->
<g id="edge6" class="edge"><title>Node5&#45;&gt;Node6</title>
<path fill="none" stroke="#9a32cd" stroke-dasharray="5,2" d="M534.491,-26.2707C546.06,-36.6337 559.669,-51.4307 566,-68 574.255,-89.605 572.934,-98.6671 564,-120 561.093,-126.942 555.638,-133.308 550.662,-138.114"/>
<polygon fill="#9a32cd" stroke="#9a32cd" points="536.452,-23.3445 526.561,-19.5466 531.925,-28.6835 536.452,-23.3445"/>
<text text-anchor="middle" x="588" y="-76.5" font-family="Helvetica,sans-Serif" font-size="10.00"> Owner</text>
</g>
<!-- Node6&#45;&gt;Node5 -->
<g id="edge5" class="edge"><title>Node6&#45;&gt;Node5</title>
<path fill="none" stroke="#9a32cd" stroke-dasharray="5,2" d="M548.96,-128.743C551.034,-122.036 551.894,-114.498 549,-108 544.135,-97.0757 534.803,-100.456 529,-90 516.292,-67.1037 514.699,-35.2311 514.749,-19.9143"/>
<polygon fill="#9a32cd" stroke="#9a32cd" points="545.587,-127.747 545.066,-138.329 552.072,-130.382 545.587,-127.747"/>
<text text-anchor="middle" x="547.5" y="-76.5" font-family="Helvetica,sans-Serif" font-size="10.00"> Queues</text>
</g>
<!-- Node6&#45;&gt;Node11 -->
<g id="edge16" class="edge"><title>Node6&#45;&gt;Node11</title>
<path fill="none" stroke="#9a32cd" stroke-dasharray="5,2" d="M507.443,-138.396C484.977,-132.317 457.211,-124.482 446,-120 435.294,-115.72 433.935,-111.655 423,-108 373.074,-91.3144 311.397,-84.3166 278.085,-81.5867"/>
<polygon fill="#9a32cd" stroke="#9a32cd" points="506.749,-141.834 517.314,-141.048 508.565,-135.073 506.749,-141.834"/>
<text text-anchor="middle" x="466" y="-111.5" font-family="Helvetica,sans-Serif" font-size="10.00"> OwnerQ</text>
</g>
<!-- Node7 -->
<g id="node7" class="node"><title>Node7</title>
<g id="a_node7"><a xlink:href="structpkgAcquire_1_1Queue_1_1QItem.xhtml" target="_top" xlink:title="A single item placed in this queue. ">
<polygon fill="white" stroke="black" points="417,-232.5 417,-251.5 461,-251.5 461,-232.5 417,-232.5"/>
<text text-anchor="middle" x="439" y="-239.5" font-family="Helvetica,sans-Serif" font-size="10.00">QItem</text>
</a>
</g>
</g>
<!-- Node7&#45;&gt;Node6 -->
<g id="edge7" class="edge"><title>Node7&#45;&gt;Node6</title>
<path fill="none" stroke="#9a32cd" stroke-dasharray="5,2" d="M449.929,-223.324C459.283,-209.235 473.782,-189.67 490,-176 498.901,-168.498 510.22,-162.175 519.836,-157.539"/>
<polygon fill="#9a32cd" stroke="#9a32cd" points="446.775,-221.758 444.317,-232.064 452.665,-225.54 446.775,-221.758"/>
<text text-anchor="middle" x="504" y="-189.5" font-family="Helvetica,sans-Serif" font-size="10.00"> Items</text>
</g>
<!-- Node7&#45;&gt;Node7 -->
<g id="edge13" class="edge"><title>Node7&#45;&gt;Node7</title>
<path fill="none" stroke="#9a32cd" stroke-dasharray="5,2" d="M471.111,-250.223C475.259,-248.8 478,-246.059 478,-242 478,-235.164 470.224,-232.067 461.051,-232.707"/>
<polygon fill="#9a32cd" stroke="#9a32cd" points="470.625,-246.755 461.051,-251.293 471.365,-253.715 470.625,-246.755"/>
<text text-anchor="middle" x="490.5" y="-239.5" font-family="Helvetica,sans-Serif" font-size="10.00"> Next</text>
</g>
<!-- Node7&#45;&gt;Node11 -->
<g id="edge20" class="edge"><title>Node7&#45;&gt;Node11</title>
<path fill="none" stroke="#9a32cd" stroke-dasharray="5,2" d="M406.886,-238.302C361.2,-232.504 279.199,-214.371 245,-158 231.708,-136.09 242.792,-104.294 249.619,-88.9488"/>
<polygon fill="#9a32cd" stroke="#9a32cd" points="406.528,-241.784 416.861,-239.445 407.324,-234.829 406.528,-241.784"/>
<text text-anchor="middle" x="272.5" y="-145.5" font-family="Helvetica,sans-Serif" font-size="10.00"> CurrentItem</text>
</g>
<!-- Node8&#45;&gt;Node2 -->
<g id="edge46" class="edge"><title>Node8&#45;&gt;Node2</title>
<path fill="none" stroke="#9a32cd" stroke-dasharray="5,2" d="M584.87,-330.322C576.646,-296.005 564.689,-222.209 599,-176 631.77,-131.867 791.117,-100.574 872.281,-87.2162"/>
<polygon fill="#9a32cd" stroke="#9a32cd" points="581.568,-331.534 587.444,-340.35 588.348,-329.794 581.568,-331.534"/>
<text text-anchor="middle" x="612.5" y="-189.5" font-family="Helvetica,sans-Serif" font-size="10.00"> Desc</text>
</g>
<!-- Node8&#45;&gt;Node7 -->
<g id="edge8" class="edge"><title>Node8&#45;&gt;Node7</title>
<path fill="none" stroke="midnightblue" d="M569.078,-334.313C537.201,-311.936 477.448,-269.99 451.528,-251.794"/>
<polygon fill="midnightblue" stroke="midnightblue" points="567.447,-337.445 577.643,-340.326 571.469,-331.715 567.447,-337.445"/>
</g>
<!-- Node9 -->
<g id="node9" class="node"><title>Node9</title>
<g id="a_node9"><a xlink:title="STL class. ">
<polygon fill="white" stroke="#bfbfbf" points="683.5,-542.5 683.5,-561.5 724.5,-561.5 724.5,-542.5 683.5,-542.5"/>
<text text-anchor="middle" x="704" y="-549.5" font-family="Helvetica,sans-Serif" font-size="10.00">string</text>
</a>
</g>
</g>
<!-- Node9&#45;&gt;Node2 -->
<g id="edge42" class="edge"><title>Node9&#45;&gt;Node2</title>
<path fill="none" stroke="#9a32cd" stroke-dasharray="5,2" d="M734.863,-550.192C821.089,-547.747 1060.31,-539.622 1092,-524 1133.51,-503.535 1161,-492.284 1161,-446 1161,-446 1161,-446 1161,-147 1161,-107.264 1037.85,-90.1011 967.614,-83.5438"/>
<polygon fill="#9a32cd" stroke="#9a32cd" points="734.566,-546.699 724.667,-550.475 734.76,-553.696 734.566,-546.699"/>
<text text-anchor="middle" x="1182" y="-296" font-family="Helvetica,sans-Serif" font-size="10.00"> RealURI</text>
<text text-anchor="middle" x="1182" y="-285" font-family="Helvetica,sans-Serif" font-size="10.00">SigFile</text>
</g>
<!-- Node9&#45;&gt;Node3 -->
<g id="edge33" class="edge"><title>Node9&#45;&gt;Node3</title>
<path fill="none" stroke="#9a32cd" stroke-dasharray="5,2" d="M684.407,-535.548C681.123,-532.087 678.103,-528.186 676,-524 664.478,-501.065 664.486,-469.75 665.303,-454.732"/>
<polygon fill="#9a32cd" stroke="#9a32cd" points="682.054,-538.139 691.769,-542.367 686.811,-533.004 682.054,-538.139"/>
<text text-anchor="middle" x="700.5" y="-510.5" font-family="Helvetica,sans-Serif" font-size="10.00"> DestFile</text>
<text text-anchor="middle" x="700.5" y="-499.5" font-family="Helvetica,sans-Serif" font-size="10.00">ErrorText</text>
<text text-anchor="middle" x="700.5" y="-488.5" font-family="Helvetica,sans-Serif" font-size="10.00">UsedMirror</text>
</g>
<!-- Node9&#45;&gt;Node6 -->
<g id="edge26" class="edge"><title>Node9&#45;&gt;Node6</title>
<path fill="none" stroke="#9a32cd" stroke-dasharray="5,2" d="M673.467,-550.401C649.477,-548.435 616.475,-542.245 594,-524 535.815,-476.767 537.637,-445.073 521,-372 502.368,-290.166 528.704,-187.67 537.389,-157.638"/>
<polygon fill="#9a32cd" stroke="#9a32cd" points="673.264,-553.895 683.462,-551.021 673.698,-546.908 673.264,-553.895"/>
<text text-anchor="middle" x="536" y="-347.5" font-family="Helvetica,sans-Serif" font-size="10.00"> Name</text>
</g>
<!-- Node9&#45;&gt;Node8 -->
<g id="edge10" class="edge"><title>Node9&#45;&gt;Node8</title>
<path fill="none" stroke="#9a32cd" stroke-dasharray="5,2" d="M674.05,-538.466C645.259,-524.557 603.599,-499.07 586,-462 569.46,-427.16 581.205,-379.009 587.135,-359.609"/>
<polygon fill="#9a32cd" stroke="#9a32cd" points="672.723,-541.709 683.268,-542.739 675.667,-535.358 672.723,-541.709"/>
<text text-anchor="middle" x="612.5" y="-453.5" font-family="Helvetica,sans-Serif" font-size="10.00"> Description</text>
<text text-anchor="middle" x="612.5" y="-442.5" font-family="Helvetica,sans-Serif" font-size="10.00">URI</text>
<text text-anchor="middle" x="612.5" y="-431.5" font-family="Helvetica,sans-Serif" font-size="10.00">ShortDesc</text>
</g>
<!-- Node9&#45;&gt;Node11 -->
<g id="edge21" class="edge"><title>Node9&#45;&gt;Node11</title>
<path fill="none" stroke="#9a32cd" stroke-dasharray="5,2" d="M672.989,-547.387C593.558,-537.275 389,-505.461 389,-446 389,-446 389,-446 389,-241 389,-215.228 460.283,-181.87 470,-158 473.351,-149.767 475.232,-145.186 470,-138 463.609,-129.223 387.47,-110.874 377,-108 342.998,-98.6653 303.115,-89.9973 278.197,-84.8494"/>
<polygon fill="#9a32cd" stroke="#9a32cd" points="672.977,-550.912 683.332,-548.671 673.839,-543.966 672.977,-550.912"/>
<text text-anchor="middle" x="413" y="-301.5" font-family="Helvetica,sans-Serif" font-size="10.00"> OutQueue</text>
<text text-anchor="middle" x="413" y="-290.5" font-family="Helvetica,sans-Serif" font-size="10.00">Access</text>
<text text-anchor="middle" x="413" y="-279.5" font-family="Helvetica,sans-Serif" font-size="10.00">Status</text>
</g>
<!-- Node12 -->
<g id="node12" class="node"><title>Node12</title>
<g id="a_node12"><a xlink:href="structpkgAcquire_1_1MethodConfig.xhtml" target="_top" xlink:title="Information about the properties of a single acquire method. {{{. ">
<polygon fill="white" stroke="black" points="28.5,-138.5 28.5,-157.5 105.5,-157.5 105.5,-138.5 28.5,-138.5"/>
<text text-anchor="middle" x="67" y="-145.5" font-family="Helvetica,sans-Serif" font-size="10.00">MethodConfig</text>
</a>
</g>
</g>
<!-- Node9&#45;&gt;Node12 -->
<g id="edge19" class="edge"><title>Node9&#45;&gt;Node12</title>
<path fill="none" stroke="#9a32cd" stroke-dasharray="5,2" d="M673.063,-550.033C591.922,-547.317 374.394,-538.836 304,-524 204.535,-503.038 89,-547.65 89,-446 89,-446 89,-446 89,-241 89,-209.633 76.7536,-173.859 70.5347,-157.715"/>
<polygon fill="#9a32cd" stroke="#9a32cd" points="673.033,-553.534 683.142,-550.364 673.262,-546.537 673.033,-553.534"/>
<text text-anchor="middle" x="107.5" y="-353" font-family="Helvetica,sans-Serif" font-size="10.00"> Access</text>
<text text-anchor="middle" x="107.5" y="-342" font-family="Helvetica,sans-Serif" font-size="10.00">Version</text>
</g>
<!-- Node14 -->
<g id="node14" class="node"><title>Node14</title>
<polygon fill="white" stroke="#bfbfbf" points="253.5,-390.5 253.5,-409.5 358.5,-409.5 358.5,-390.5 253.5,-390.5"/>
<text text-anchor="middle" x="306" y="-397.5" font-family="Helvetica,sans-Serif" font-size="10.00">vector&lt; std::string &gt;</text>
</g>
<!-- Node9&#45;&gt;Node14 -->
<g id="edge24" class="edge"><title>Node9&#45;&gt;Node14</title>
<path fill="none" stroke="#9a32cd" stroke-dasharray="5,2" d="M673.346,-550.852C588.904,-550.157 357.471,-546.226 332,-524 297.958,-494.295 301.969,-432.208 304.751,-409.529"/>
<polygon fill="#9a32cd" stroke="#9a32cd" points="673.321,-554.351 683.346,-550.924 673.372,-547.352 673.321,-554.351"/>
<text text-anchor="middle" x="353.5" y="-499.5" font-family="Helvetica,sans-Serif" font-size="10.00"> elements</text>
</g>
<!-- Node16 -->
<g id="node16" class="node"><title>Node16</title>
<g id="a_node16"><a xlink:href="classindexRecords.xhtml" target="_top" xlink:title="indexRecords">
<polygon fill="white" stroke="black" points="881.5,-138.5 881.5,-157.5 958.5,-157.5 958.5,-138.5 881.5,-138.5"/>
<text text-anchor="middle" x="920" y="-145.5" font-family="Helvetica,sans-Serif" font-size="10.00">indexRecords</text>
</a>
</g>
</g>
<!-- Node9&#45;&gt;Node16 -->
<g id="edge41" class="edge"><title>Node9&#45;&gt;Node16</title>
<path fill="none" stroke="#9a32cd" stroke-dasharray="5,2" d="M735.019,-551.068C790.471,-549.253 904.919,-536.235 949,-462 1002.58,-371.773 968.33,-330.208 956,-226 953.315,-203.305 954.575,-196.259 944,-176 940.401,-169.106 934.658,-162.556 929.692,-157.634"/>
<polygon fill="#9a32cd" stroke="#9a32cd" points="734.673,-547.575 724.753,-551.297 734.829,-554.573 734.673,-547.575"/>
<text text-anchor="middle" x="1009" y="-364" font-family="Helvetica,sans-Serif" font-size="10.00"> Dist</text>
<text text-anchor="middle" x="1009" y="-353" font-family="Helvetica,sans-Serif" font-size="10.00">Suite</text>
<text text-anchor="middle" x="1009" y="-342" font-family="Helvetica,sans-Serif" font-size="10.00">ErrorText</text>
<text text-anchor="middle" x="1009" y="-331" font-family="Helvetica,sans-Serif" font-size="10.00">ExpectedDist</text>
</g>
<!-- Node17 -->
<g id="node17" class="node"><title>Node17</title>
<polygon fill="white" stroke="#bfbfbf" points="793,-227 793,-257 947,-257 947,-227 793,-227"/>
<text text-anchor="start" x="801" y="-245" font-family="Helvetica,sans-Serif" font-size="10.00">map&lt; std::string, indexRecords</text>
<text text-anchor="middle" x="870" y="-234" font-family="Helvetica,sans-Serif" font-size="10.00">::checkSum * &gt;</text>
</g>
<!-- Node9&#45;&gt;Node17 -->
<g id="edge36" class="edge"><title>Node9&#45;&gt;Node17</title>
<path fill="none" stroke="#9a32cd" stroke-dasharray="5,2" d="M718.463,-534.136C720.844,-530.898 723.138,-527.44 725,-524 746.475,-484.321 738.875,-468.863 758,-428 789.353,-361.01 838.776,-287.569 859.891,-257.275"/>
<polygon fill="#9a32cd" stroke="#9a32cd" points="715.671,-532.024 712.197,-542.033 721.154,-536.375 715.671,-532.024"/>
<text text-anchor="middle" x="789.5" y="-397.5" font-family="Helvetica,sans-Serif" font-size="10.00"> keys</text>
</g>
<!-- Node18 -->
<g id="node18" class="node"><title>Node18</title>
<g id="a_node18"><a xlink:href="structindexRecords_1_1checkSum.xhtml" target="_top" xlink:title="checkSum">
<polygon fill="white" stroke="black" points="837.5,-340.5 837.5,-359.5 900.5,-359.5 900.5,-340.5 837.5,-340.5"/>
<text text-anchor="middle" x="869" y="-347.5" font-family="Helvetica,sans-Serif" font-size="10.00">checkSum</text>
</a>
</g>
</g>
<!-- Node9&#45;&gt;Node18 -->
<g id="edge38" class="edge"><title>Node9&#45;&gt;Node18</title>
<path fill="none" stroke="#9a32cd" stroke-dasharray="5,2" d="M734.718,-550.624C758.813,-548.786 791.866,-542.658 814,-524 865.808,-480.328 869.388,-387.988 869.206,-359.53"/>
<polygon fill="#9a32cd" stroke="#9a32cd" points="734.463,-547.133 724.674,-551.186 734.854,-554.122 734.463,-547.133"/>
<text text-anchor="middle" x="904" y="-442.5" font-family="Helvetica,sans-Serif" font-size="10.00"> MetaKeyFilename</text>
</g>
<!-- Node19 -->
<g id="node19" class="node"><title>Node19</title>
<g id="a_node19"><a xlink:href="classHashString.xhtml" target="_top" xlink:title="HashString">
<polygon fill="white" stroke="black" points="767.5,-435.5 767.5,-454.5 832.5,-454.5 832.5,-435.5 767.5,-435.5"/>
<text text-anchor="middle" x="800" y="-442.5" font-family="Helvetica,sans-Serif" font-size="10.00">HashString</text>
</a>
</g>
</g>
<!-- Node9&#45;&gt;Node19 -->
<g id="edge40" class="edge"><title>Node9&#45;&gt;Node19</title>
<path fill="none" stroke="#9a32cd" stroke-dasharray="5,2" d="M733.759,-537.865C740.558,-534.015 747.418,-529.37 753,-524 774.648,-503.174 790.052,-470.296 796.555,-454.727"/>
<polygon fill="#9a32cd" stroke="#9a32cd" points="731.898,-534.888 724.65,-542.616 735.135,-541.094 731.898,-534.888"/>
<text text-anchor="middle" x="797.5" y="-505" font-family="Helvetica,sans-Serif" font-size="10.00"> Type</text>
<text text-anchor="middle" x="797.5" y="-494" font-family="Helvetica,sans-Serif" font-size="10.00">Hash</text>
</g>
<!-- Node21 -->
<g id="node21" class="node"><title>Node21</title>
<g id="a_node21"><a xlink:href="classIndexTarget.xhtml" target="_top" xlink:title="Information about an index file. ">
<polygon fill="white" stroke="black" points="1019,-435.5 1019,-454.5 1087,-454.5 1087,-435.5 1019,-435.5"/>
<text text-anchor="middle" x="1053" y="-442.5" font-family="Helvetica,sans-Serif" font-size="10.00">IndexTarget</text>
</a>
</g>
</g>
<!-- Node9&#45;&gt;Node21 -->
<g id="edge45" class="edge"><title>Node9&#45;&gt;Node21</title>
<path fill="none" stroke="#9a32cd" stroke-dasharray="5,2" d="M734.609,-551.182C799.644,-551.085 949.218,-548.153 993,-524 1022.02,-507.99 1041.51,-471.451 1049.25,-454.692"/>
<polygon fill="#9a32cd" stroke="#9a32cd" points="734.569,-547.682 724.567,-551.175 734.564,-554.682 734.569,-547.682"/>
<text text-anchor="middle" x="1061.5" y="-516" font-family="Helvetica,sans-Serif" font-size="10.00"> Description</text>
<text text-anchor="middle" x="1061.5" y="-505" font-family="Helvetica,sans-Serif" font-size="10.00">URI</text>
<text text-anchor="middle" x="1061.5" y="-494" font-family="Helvetica,sans-Serif" font-size="10.00">ShortDesc</text>
<text text-anchor="middle" x="1061.5" y="-483" font-family="Helvetica,sans-Serif" font-size="10.00">MetaKey</text>
</g>
<!-- Node10 -->
<g id="node10" class="node"><title>Node10</title>
<g id="a_node10"><a xlink:title="STL class. ">
<polygon fill="white" stroke="#bfbfbf" points="651,-600.5 651,-619.5 757,-619.5 757,-600.5 651,-600.5"/>
<text text-anchor="middle" x="704" y="-607.5" font-family="Helvetica,sans-Serif" font-size="10.00">basic_string&lt; char &gt;</text>
</a>
</g>
</g>
<!-- Node10&#45;&gt;Node9 -->
<g id="edge11" class="edge"><title>Node10&#45;&gt;Node9</title>
<path fill="none" stroke="midnightblue" d="M704,-589.953C704,-580.287 704,-569.031 704,-561.505"/>
<polygon fill="midnightblue" stroke="midnightblue" points="700.5,-590.25 704,-600.25 707.5,-590.25 700.5,-590.25"/>
</g>
<!-- Node11&#45;&gt;Node5 -->
<g id="edge32" class="edge"><title>Node11&#45;&gt;Node5</title>
<path fill="none" stroke="#9a32cd" stroke-dasharray="5,2" d="M276.452,-64.1749C291.827,-55.3336 312.982,-44.3678 333,-38 383.683,-21.8774 445.426,-15.3055 482.403,-12.681"/>
<polygon fill="#9a32cd" stroke="#9a32cd" points="274.522,-61.2497 267.687,-69.3452 278.078,-67.2789 274.522,-61.2497"/>
<text text-anchor="middle" x="353" y="-41.5" font-family="Helvetica,sans-Serif" font-size="10.00"> Workers</text>
</g>
<!-- Node11&#45;&gt;Node6 -->
<g id="edge27" class="edge"><title>Node11&#45;&gt;Node6</title>
<path fill="none" stroke="#9a32cd" stroke-dasharray="5,2" d="M288.202,-83.1737C348.249,-88.8866 468,-100.961 486,-108 503.663,-114.908 520.857,-128.971 530.934,-138.186"/>
<polygon fill="#9a32cd" stroke="#9a32cd" points="288.351,-79.6723 278.066,-82.2159 287.693,-86.6412 288.351,-79.6723"/>
<text text-anchor="middle" x="527" y="-111.5" font-family="Helvetica,sans-Serif" font-size="10.00"> Workers</text>
</g>
<!-- Node11&#45;&gt;Node7 -->
<g id="edge14" class="edge"><title>Node11&#45;&gt;Node7</title>
<path fill="none" stroke="#9a32cd" stroke-dasharray="5,2" d="M267.11,-96.934C280.306,-113.442 301.702,-138.794 323,-158 357.021,-188.68 402.45,-218.363 425.032,-232.468"/>
<polygon fill="#9a32cd" stroke="#9a32cd" points="269.614,-94.4566 260.676,-88.7683 264.116,-98.7891 269.614,-94.4566"/>
<text text-anchor="middle" x="340.5" y="-145.5" font-family="Helvetica,sans-Serif" font-size="10.00"> Worker</text>
</g>
<!-- Node11&#45;&gt;Node11 -->
<g id="edge25" class="edge"><title>Node11&#45;&gt;Node11</title>
<path fill="none" stroke="#9a32cd" stroke-dasharray="5,2" d="M288.425,-84.6249C292.979,-83.6671 296,-81.7922 296,-79 296,-74.418 287.864,-72.3059 278.17,-72.6639"/>
<polygon fill="#9a32cd" stroke="#9a32cd" points="287.904,-81.1525 278.17,-85.3361 288.388,-88.1358 287.904,-81.1525"/>
<text text-anchor="middle" x="323.5" y="-82" font-family="Helvetica,sans-Serif" font-size="10.00"> NextQueue</text>
<text text-anchor="middle" x="323.5" y="-71" font-family="Helvetica,sans-Serif" font-size="10.00">NextAcquire</text>
</g>
<!-- Node12&#45;&gt;Node5 -->
<g id="edge28" class="edge"><title>Node12&#45;&gt;Node5</title>
<path fill="none" stroke="#9a32cd" stroke-dasharray="5,2" d="M80.4603,-130.355C87.0338,-122.909 95.3762,-114.39 104,-108 135.94,-84.3342 146.773,-81.9427 184,-68 288.572,-28.8343 421.913,-16.3684 482.467,-12.5731"/>
<polygon fill="#9a32cd" stroke="#9a32cd" points="77.4317,-128.516 73.6452,-138.411 82.776,-133.037 77.4317,-128.516"/>
<text text-anchor="middle" x="202.5" y="-76.5" font-family="Helvetica,sans-Serif" font-size="10.00"> Configs</text>
</g>
<!-- Node12&#45;&gt;Node11 -->
<g id="edge17" class="edge"><title>Node12&#45;&gt;Node11</title>
<path fill="none" stroke="#9a32cd" stroke-dasharray="5,2" d="M87.1155,-132.407C99.2943,-124.18 115.436,-114.317 131,-108 163.874,-94.6573 204.398,-86.9888 229.725,-83.1562"/>
<polygon fill="#9a32cd" stroke="#9a32cd" points="84.8622,-129.711 78.6498,-138.293 88.8583,-135.458 84.8622,-129.711"/>
<text text-anchor="middle" x="147" y="-111.5" font-family="Helvetica,sans-Serif" font-size="10.00"> Config</text>
</g>
<!-- Node12&#45;&gt;Node12 -->
<g id="edge18" class="edge"><title>Node12&#45;&gt;Node12</title>
<path fill="none" stroke="#9a32cd" stroke-dasharray="5,2" d="M115.872,-153.042C120.251,-151.987 123,-150.307 123,-148 123,-144.215 115.597,-142.115 105.735,-141.701"/>
<polygon fill="#9a32cd" stroke="#9a32cd" points="115.229,-149.595 105.735,-154.299 116.09,-156.542 115.229,-149.595"/>
<text text-anchor="middle" x="135.5" y="-145.5" font-family="Helvetica,sans-Serif" font-size="10.00"> Next</text>
</g>
<!-- Node13 -->
<g id="node13" class="node"><title>Node13</title>
<g id="a_node13"><a xlink:href="classpkgAcquireStatus.xhtml" target="_top" xlink:title="A monitor object for downloads controlled by the pkgAcquire class. {{{. ">
<polygon fill="white" stroke="black" points="367,-138.5 367,-157.5 461,-157.5 461,-138.5 367,-138.5"/>
<text text-anchor="middle" x="414" y="-145.5" font-family="Helvetica,sans-Serif" font-size="10.00">pkgAcquireStatus</text>
</a>
</g>
</g>
<!-- Node13&#45;&gt;Node5 -->
<g id="edge29" class="edge"><title>Node13&#45;&gt;Node5</title>
<path fill="none" stroke="#9a32cd" stroke-dasharray="5,2" d="M413.951,-128.28C414.555,-121.606 415.971,-114.21 419,-108 438.426,-68.1791 480.696,-34.7763 502.071,-19.663"/>
<polygon fill="#9a32cd" stroke="#9a32cd" points="410.445,-128.364 413.558,-138.492 417.44,-128.633 410.445,-128.364"/>
<text text-anchor="middle" x="455.5" y="-76.5" font-family="Helvetica,sans-Serif" font-size="10.00"> Log</text>
</g>
<!-- Node13&#45;&gt;Node11 -->
<g id="edge22" class="edge"><title>Node13&#45;&gt;Node11</title>
<path fill="none" stroke="#9a32cd" stroke-dasharray="5,2" d="M385.363,-134.18C375.423,-129.713 364.212,-124.654 354,-120 342.419,-114.722 339.737,-112.922 328,-108 311.406,-101.041 292.417,-93.8724 277.83,-88.5306"/>
<polygon fill="#9a32cd" stroke="#9a32cd" points="384.237,-137.511 394.794,-138.413 387.104,-131.125 384.237,-137.511"/>
<text text-anchor="middle" x="363.5" y="-111.5" font-family="Helvetica,sans-Serif" font-size="10.00"> Log</text>
</g>
<!-- Node14&#45;&gt;Node11 -->
<g id="edge23" class="edge"><title>Node14&#45;&gt;Node11</title>
<path fill="none" stroke="#9a32cd" stroke-dasharray="5,2" d="M268.85,-386.756C230.742,-371.578 177,-341.715 177,-294 177,-294 177,-294 177,-147 177,-118.116 208.217,-98.8514 230.897,-88.6665"/>
<polygon fill="#9a32cd" stroke="#9a32cd" points="268.051,-390.197 278.642,-390.476 270.537,-383.653 268.051,-390.197"/>
<text text-anchor="middle" x="213" y="-239.5" font-family="Helvetica,sans-Serif" font-size="10.00"> MessageQueue</text>
</g>
<!-- Node15&#45;&gt;Node5 -->
<g id="edge30" class="edge"><title>Node15&#45;&gt;Node5</title>
<path fill="none" stroke="#9a32cd" stroke-dasharray="5,2" d="M731.421,-166.814C723.576,-132.449 704.148,-70.106 662,-38 644.455,-24.6351 585.388,-17.114 547.682,-13.5691"/>
<polygon fill="#9a32cd" stroke="#9a32cd" points="728.066,-167.864 733.575,-176.914 734.912,-166.404 728.066,-167.864"/>
<text text-anchor="middle" x="731" y="-111.5" font-family="Helvetica,sans-Serif" font-size="10.00"> Items</text>
</g>
<!-- Node16&#45;&gt;Node2 -->
<g id="edge34" class="edge"><title>Node16&#45;&gt;Node2</title>
<path fill="none" stroke="#9a32cd" stroke-dasharray="5,2" d="M920,-128.018C920,-115.034 920,-98.4419 920,-88.5494"/>
<polygon fill="#9a32cd" stroke="#9a32cd" points="916.5,-128.241 920,-138.241 923.5,-128.241 916.5,-128.241"/>
<text text-anchor="middle" x="959" y="-111.5" font-family="Helvetica,sans-Serif" font-size="10.00"> MetaIndexParser</text>
</g>
<!-- Node17&#45;&gt;Node16 -->
<g id="edge35" class="edge"><title>Node17&#45;&gt;Node16</title>
<path fill="none" stroke="#9a32cd" stroke-dasharray="5,2" d="M882.654,-217.716C893.265,-198.192 907.837,-171.379 915.251,-157.738"/>
<polygon fill="#9a32cd" stroke="#9a32cd" points="879.512,-216.167 877.812,-226.625 885.663,-219.51 879.512,-216.167"/>
<text text-anchor="middle" x="923" y="-189.5" font-family="Helvetica,sans-Serif" font-size="10.00"> Entries</text>
</g>
<!-- Node18&#45;&gt;Node17 -->
<g id="edge37" class="edge"><title>Node18&#45;&gt;Node17</title>
<path fill="none" stroke="#9a32cd" stroke-dasharray="5,2" d="M869.178,-330.135C869.376,-309.192 869.69,-275.872 869.867,-257.085"/>
<polygon fill="#9a32cd" stroke="#9a32cd" points="865.676,-330.293 869.082,-340.326 872.676,-330.359 865.676,-330.293"/>
<text text-anchor="middle" x="891.5" y="-290.5" font-family="Helvetica,sans-Serif" font-size="10.00"> elements</text>
</g>
<!-- Node19&#45;&gt;Node18 -->
<g id="edge39" class="edge"><title>Node19&#45;&gt;Node18</title>
<path fill="none" stroke="#9a32cd" stroke-dasharray="5,2" d="M807.466,-426.074C812.459,-415.123 819.635,-401.133 828,-390 836.734,-378.376 849.073,-367.157 857.929,-359.76"/>
<polygon fill="#9a32cd" stroke="#9a32cd" points="804.167,-424.884 803.381,-435.45 810.584,-427.681 804.167,-424.884"/>
<text text-anchor="middle" x="841.5" y="-397.5" font-family="Helvetica,sans-Serif" font-size="10.00"> Hash</text>
</g>
<!-- Node20 -->
<g id="node20" class="node"><title>Node20</title>
<polygon fill="white" stroke="#bfbfbf" points="990,-283.5 990,-302.5 1138,-302.5 1138,-283.5 990,-283.5"/>
<text text-anchor="middle" x="1064" y="-290.5" font-family="Helvetica,sans-Serif" font-size="10.00">vector&lt; struct IndexTarget * &gt;</text>
</g>
<!-- Node20&#45;&gt;Node2 -->
<g id="edge43" class="edge"><title>Node20&#45;&gt;Node2</title>
<path fill="none" stroke="#9a32cd" stroke-dasharray="5,2" d="M1062.97,-273.006C1059.96,-236.114 1048.15,-154.336 1002,-108 992.658,-98.6204 980.05,-92.3807 967.524,-88.2305"/>
<polygon fill="#9a32cd" stroke="#9a32cd" points="1059.5,-273.565 1063.67,-283.304 1066.49,-273.09 1059.5,-273.565"/>
<text text-anchor="middle" x="1082.5" y="-189.5" font-family="Helvetica,sans-Serif" font-size="10.00"> IndexTargets</text>
</g>
<!-- Node21&#45;&gt;Node20 -->
<g id="edge44" class="edge"><title>Node21&#45;&gt;Node20</title>
<path fill="none" stroke="#9a32cd" stroke-dasharray="5,2" d="M1054.39,-424.978C1056.8,-392.206 1061.63,-326.344 1063.36,-302.699"/>
<polygon fill="#9a32cd" stroke="#9a32cd" points="1050.9,-424.837 1053.66,-435.066 1057.88,-425.349 1050.9,-424.837"/>
<text text-anchor="middle" x="1077.5" y="-397.5" font-family="Helvetica,sans-Serif" font-size="10.00"> elements</text>
</g>
</g>
</svg>
        <g id="navigator" transform="translate(0 0)" fill="#404254">
                <rect fill="#f2f5e9" fill-opacity="0.5" stroke="#606060" stroke-width=".5" x="0" y="0" width="60" height="60"/>
                <use id="zoomplus" xlink:href="#zoomPlus" x="17" y="9" onmousedown="handleZoom(evt,'in')"/>
                <use id="zoomminus" xlink:href="#zoomMin" x="42" y="9" onmousedown="handleZoom(evt,'out')"/>
                <use id="reset" xlink:href="#resetDef" x="30" y="36" onmousedown="handleReset()"/>
                <g id="arrowUp" xlink:href="#dirArrow" transform="translate(30 24)" onmousedown="handlePan(0,-1)">
                  <use xlink:href="#rim" fill="#404040">
                        <set attributeName="fill" to="#808080" begin="arrowUp.mouseover" end="arrowUp.mouseout"/>
                  </use>
                  <path fill="none" stroke="white" stroke-width="1.5" d="M0,-3.0v7 M-2.5,-0.5L0,-3.0L2.5,-0.5"/>
                </g>
                <g id="arrowRight" xlink:href="#dirArrow" transform="rotate(90) translate(36 -43)" onmousedown="handlePan(1,0)">
                  <use xlink:href="#rim" fill="#404040">
                        <set attributeName="fill" to="#808080" begin="arrowRight.mouseover" end="arrowRight.mouseout"/>
                  </use>
                  <path fill="none" stroke="white" stroke-width="1.5" d="M0,-3.0v7 M-2.5,-0.5L0,-3.0L2.5,-0.5"/>
                </g>
                <g id="arrowDown" xlink:href="#dirArrow" transform="rotate(180) translate(-30 -48)" onmousedown="handlePan(0,1)">
                  <use xlink:href="#rim" fill="#404040">
                        <set attributeName="fill" to="#808080" begin="arrowDown.mouseover" end="arrowDown.mouseout"/>
                  </use>
                  <path fill="none" stroke="white" stroke-width="1.5" d="M0,-3.0v7 M-2.5,-0.5L0,-3.0L2.5,-0.5"/>
                </g>
                <g id="arrowLeft" xlink:href="#dirArrow" transform="rotate(270) translate(-36 17)" onmousedown="handlePan(-1,0)">
                  <use xlink:href="#rim" fill="#404040">
                        <set attributeName="fill" to="#808080" begin="arrowLeft.mouseover" end="arrowLeft.mouseout"/>
                  </use>
                  <path fill="none" stroke="white" stroke-width="1.5" d="M0,-3.0v7 M-2.5,-0.5L0,-3.0L2.5,-0.5"/>
                </g>
        </g>
        <svg viewBox="0 0 15 15" width="100%" height="30px" preserveAspectRatio="xMaxYMin meet">
         <g id="arrow_out" transform="scale(0.3 0.3)">
          <a xlink:href="classpkgAcqMetaClearSig__coll__graph_org.svg" target="_base">
           <rect id="button" ry="5" rx="5" y="6" x="6" height="38" width="38"
                fill="#f2f5e9" fill-opacity="0.5" stroke="#606060" stroke-width="1.0"/>
           <path id="arrow"
             d="M 11.500037,31.436501 C 11.940474,20.09759 22.043105,11.32322 32.158766,21.979434 L 37.068811,17.246167 C 37.068811,17.246167 37.088388,32 37.088388,32 L 22.160133,31.978069 C 22.160133,31.978069 26.997745,27.140456 26.997745,27.140456 C 18.528582,18.264221 13.291696,25.230495 11.500037,31.436501 z"
             style="fill:#404040;"/>
          </a>
         </g>
        </svg>
</svg>
