<?xml version="1.0" encoding="UTF-8" standalone="no"?>
<!DOCTYPE svg PUBLIC "-//W3C//DTD SVG 1.1//EN"
 "http://www.w3.org/Graphics/SVG/1.1/DTD/svg11.dtd">
<!-- Generated by graphviz version 2.36.0 (20140111.2315)
 -->
<!-- Title: pkgCache::DescIterator Pages: 1 -->
<!--zoomable 613 -->
<svg id="main" version="1.1" xmlns="http://www.w3.org/2000/svg" xmlns:xlink="http://www.w3.org/1999/xlink" xml:space="preserve" onload="init(evt)">
<style type="text/css"><![CDATA[
.edge:hover path { stroke: red; }
.edge:hover polygon { stroke: red; fill: red; }
]]></style>
<script type="text/javascript"><![CDATA[
var edges = document.getElementsByTagName('g');
if (edges && edges.length) {
  for (var i=0;i<edges.length;i++) {
    if (edges[i].id.substr(0,4)=='edge') {
      edges[i].setAttribute('class','edge');
    }
  }
}
]]></script>
        <defs>
                <circle id="rim" cx="0" cy="0" r="7"/>
                <circle id="rim2" cx="0" cy="0" r="3.5"/>
                <g id="zoomPlus">
                        <use xlink:href="#rim" fill="#404040">
                                <set attributeName="fill" to="#808080" begin="zoomplus.mouseover" end="zoomplus.mouseout"/>
                        </use>
                        <path d="M-4,0h8M0,-4v8" fill="none" stroke="white" stroke-width="1.5" pointer-events="none"/>
                </g>
                <g id="zoomMin">
                        <use xlink:href="#rim" fill="#404040">
                                <set attributeName="fill" to="#808080" begin="zoomminus.mouseover" end="zoomminus.mouseout"/>
                        </use>
                        <path d="M-4,0h8" fill="none" stroke="white" stroke-width="1.5" pointer-events="none"/>
                </g>
                <g id="dirArrow">
                        <path fill="none" stroke="white" stroke-width="1.5" d="M0,-3.0v7 M-2.5,-0.5L0,-3.0L2.5,-0.5"/>
                </g>
               <g id="resetDef">
                       <use xlink:href="#rim2" fill="#404040">
                               <set attributeName="fill" to="#808080" begin="reset.mouseover" end="reset.mouseout"/>
                       </use>
               </g>
        </defs>

<script type="text/javascript">
var viewWidth = 1130;
var viewHeight = 613;
var sectionId = 'dynsection-1';
</script>
<script xlink:href="svgpan.js"/>
<svg id="graph" class="graph">
<g id="viewport">
<title>pkgCache::DescIterator</title>
<polygon fill="white" stroke="none" points="-4,4 -4,-609 1126,-609 1126,4 -4,4"/>
<!-- Node1 -->
<g id="node1" class="node"><title>Node1</title>
<polygon fill="#bfbfbf" stroke="black" points="1000.5,-535.5 1000.5,-554.5 1121.5,-554.5 1121.5,-535.5 1000.5,-535.5"/>
<text text-anchor="middle" x="1061" y="-542.5" font-family="Helvetica,sans-Serif" font-size="10.00">pkgCache::DescIterator</text>
</g>
<!-- Node2 -->
<g id="node2" class="node"><title>Node2</title>
<g id="a_node2"><a xlink:href="classpkgCache_1_1Iterator.xhtml" target="_top" xlink:title="Iterator\&lt; Description,\l DescIterator \&gt;">
<polygon fill="white" stroke="black" points="852.5,-530 852.5,-560 961.5,-560 961.5,-530 852.5,-530"/>
<text text-anchor="start" x="860.5" y="-548" font-family="Helvetica,sans-Serif" font-size="10.00">Iterator&lt; Description,</text>
<text text-anchor="middle" x="907" y="-537" font-family="Helvetica,sans-Serif" font-size="10.00"> DescIterator &gt;</text>
</a>
</g>
</g>
<!-- Node2&#45;&gt;Node1 -->
<g id="edge1" class="edge"><title>Node2&#45;&gt;Node1</title>
<path fill="none" stroke="midnightblue" d="M971.763,-545C981.259,-545 991.018,-545 1000.42,-545"/>
<polygon fill="midnightblue" stroke="midnightblue" points="971.59,-541.5 961.59,-545 971.589,-548.5 971.59,-541.5"/>
</g>
<!-- Node3 -->
<g id="node3" class="node"><title>Node3</title>
<polygon fill="white" stroke="#bfbfbf" points="648.5,-575 648.5,-605 783.5,-605 783.5,-575 648.5,-575"/>
<text text-anchor="start" x="656.5" y="-593" font-family="Helvetica,sans-Serif" font-size="10.00">iterator&lt; std::forward</text>
<text text-anchor="middle" x="716" y="-582" font-family="Helvetica,sans-Serif" font-size="10.00">_iterator_tag, Description &gt;</text>
</g>
<!-- Node3&#45;&gt;Node2 -->
<g id="edge2" class="edge"><title>Node3&#45;&gt;Node2</title>
<path fill="none" stroke="midnightblue" d="M789.937,-572.634C810.705,-567.689 832.942,-562.395 852.337,-557.777"/>
<polygon fill="midnightblue" stroke="midnightblue" points="789.114,-569.232 780.197,-574.953 790.736,-576.042 789.114,-569.232"/>
</g>
<!-- Node4 -->
<g id="node4" class="node"><title>Node4</title>
<g id="a_node4"><a xlink:href="structpkgCache_1_1Description.xhtml" target="_top" xlink:title="datamember of a linked list of available description for a version ">
<polygon fill="white" stroke="black" points="467,-529.5 467,-548.5 533,-548.5 533,-529.5 467,-529.5"/>
<text text-anchor="middle" x="500" y="-536.5" font-family="Helvetica,sans-Serif" font-size="10.00">Description</text>
</a>
</g>
</g>
<!-- Node4&#45;&gt;Node2 -->
<g id="edge3" class="edge"><title>Node4&#45;&gt;Node2</title>
<path fill="none" stroke="#9a32cd" stroke-dasharray="5,2" d="M543.474,-539.629C617.662,-540.728 770.697,-542.996 852.184,-544.203"/>
<polygon fill="#9a32cd" stroke="#9a32cd" points="543.169,-536.124 533.118,-539.476 543.065,-543.124 543.169,-536.124"/>
<text text-anchor="middle" x="716" y="-546" font-family="Helvetica,sans-Serif" font-size="10.00"> S</text>
</g>
<!-- Node5 -->
<g id="node5" class="node"><title>Node5</title>
<g id="a_node5"><a xlink:href="classpkgCache.xhtml" target="_top" xlink:title="pkgCache">
<polygon fill="white" stroke="black" points="685.5,-295.5 685.5,-314.5 746.5,-314.5 746.5,-295.5 685.5,-295.5"/>
<text text-anchor="middle" x="716" y="-302.5" font-family="Helvetica,sans-Serif" font-size="10.00">pkgCache</text>
</a>
</g>
</g>
<!-- Node4&#45;&gt;Node5 -->
<g id="edge6" class="edge"><title>Node4&#45;&gt;Node5</title>
<path fill="none" stroke="#9a32cd" stroke-dasharray="5,2" d="M543.038,-527.168C578.062,-517.008 623.277,-503.069 630,-497 687.903,-444.722 708.397,-345.678 713.563,-314.587"/>
<polygon fill="#9a32cd" stroke="#9a32cd" points="541.652,-523.925 533.01,-530.055 543.589,-530.652 541.652,-523.925"/>
<text text-anchor="middle" x="602" y="-520" font-family="Helvetica,sans-Serif" font-size="10.00"> DescP</text>
</g>
<!-- Node5&#45;&gt;Node2 -->
<g id="edge4" class="edge"><title>Node5&#45;&gt;Node2</title>
<path fill="none" stroke="#9a32cd" stroke-dasharray="5,2" d="M730.97,-322.74C766.677,-368.081 860.806,-487.611 894.113,-529.906"/>
<polygon fill="#9a32cd" stroke="#9a32cd" points="733.58,-320.396 724.643,-314.706 728.08,-324.727 733.58,-320.396"/>
<text text-anchor="middle" x="818" y="-457" font-family="Helvetica,sans-Serif" font-size="10.00"> Owner</text>
</g>
<!-- Node6 -->
<g id="node6" class="node"><title>Node6</title>
<g id="a_node6"><a xlink:href="structpkgCache_1_1Dependency.xhtml" target="_top" xlink:title="information for a single dependency record ">
<polygon fill="white" stroke="black" points="464.5,-485.5 464.5,-504.5 535.5,-504.5 535.5,-485.5 464.5,-485.5"/>
<text text-anchor="middle" x="500" y="-492.5" font-family="Helvetica,sans-Serif" font-size="10.00">Dependency</text>
</a>
</g>
</g>
<!-- Node6&#45;&gt;Node5 -->
<g id="edge5" class="edge"><title>Node6&#45;&gt;Node5</title>
<path fill="none" stroke="#9a32cd" stroke-dasharray="5,2" d="M545.451,-490.436C572.309,-485.746 605.893,-476.244 630,-457 679.385,-417.577 704.788,-341.213 712.451,-314.503"/>
<polygon fill="#9a32cd" stroke="#9a32cd" points="544.85,-486.988 535.521,-492.008 545.945,-493.901 544.85,-486.988"/>
<text text-anchor="middle" x="602" y="-486" font-family="Helvetica,sans-Serif" font-size="10.00"> DepP</text>
</g>
<!-- Node7 -->
<g id="node7" class="node"><title>Node7</title>
<g id="a_node7"><a xlink:href="structpkgCache_1_1Header.xhtml" target="_top" xlink:title="Header">
<polygon fill="white" stroke="black" points="476,-447.5 476,-466.5 524,-466.5 524,-447.5 476,-447.5"/>
<text text-anchor="middle" x="500" y="-454.5" font-family="Helvetica,sans-Serif" font-size="10.00">Header</text>
</a>
</g>
</g>
<!-- Node7&#45;&gt;Node5 -->
<g id="edge7" class="edge"><title>Node7&#45;&gt;Node5</title>
<path fill="none" stroke="#9a32cd" stroke-dasharray="5,2" d="M534.28,-452.141C561.903,-446.838 601.186,-436.246 630,-416 669.719,-388.091 699.257,-336.041 710.279,-314.604"/>
<polygon fill="#9a32cd" stroke="#9a32cd" points="533.539,-448.718 524.311,-453.924 534.771,-455.609 533.539,-448.718"/>
<text text-anchor="middle" x="602" y="-445" font-family="Helvetica,sans-Serif" font-size="10.00"> HeaderP</text>
</g>
<!-- Node8 -->
<g id="node8" class="node"><title>Node8</title>
<g id="a_node8"><a xlink:href="structDynamicMMap_1_1Pool.xhtml" target="_top" xlink:title="Pool">
<polygon fill="white" stroke="black" points="318,-447.5 318,-466.5 354,-466.5 354,-447.5 318,-447.5"/>
<text text-anchor="middle" x="336" y="-454.5" font-family="Helvetica,sans-Serif" font-size="10.00">Pool</text>
</a>
</g>
</g>
<!-- Node8&#45;&gt;Node7 -->
<g id="edge8" class="edge"><title>Node8&#45;&gt;Node7</title>
<path fill="none" stroke="#9a32cd" stroke-dasharray="5,2" d="M364.236,-457C395.589,-457 446.538,-457 475.988,-457"/>
<polygon fill="#9a32cd" stroke="#9a32cd" points="364.031,-453.5 354.031,-457 364.031,-460.5 364.031,-453.5"/>
<text text-anchor="middle" x="401" y="-460" font-family="Helvetica,sans-Serif" font-size="10.00"> Pools</text>
</g>
<!-- Node9 -->
<g id="node9" class="node"><title>Node9</title>
<g id="a_node9"><a xlink:href="structpkgCache_1_1PackageFile.xhtml" target="_top" xlink:title="stores information about the files used to generate the cache ">
<polygon fill="white" stroke="black" points="464.5,-409.5 464.5,-428.5 535.5,-428.5 535.5,-409.5 464.5,-409.5"/>
<text text-anchor="middle" x="500" y="-416.5" font-family="Helvetica,sans-Serif" font-size="10.00">PackageFile</text>
</a>
</g>
</g>
<!-- Node9&#45;&gt;Node5 -->
<g id="edge9" class="edge"><title>Node9&#45;&gt;Node5</title>
<path fill="none" stroke="#9a32cd" stroke-dasharray="5,2" d="M545.526,-409.556C571.252,-402.971 603.636,-392.701 630,-378 661.261,-360.569 691.495,-330.483 706.029,-314.939"/>
<polygon fill="#9a32cd" stroke="#9a32cd" points="544.536,-406.195 535.663,-411.985 546.21,-412.992 544.536,-406.195"/>
<text text-anchor="middle" x="602" y="-404" font-family="Helvetica,sans-Serif" font-size="10.00"> PkgFileP</text>
</g>
<!-- Node10 -->
<g id="node10" class="node"><title>Node10</title>
<g id="a_node10"><a xlink:href="structpkgCache_1_1DescFile.xhtml" target="_top" xlink:title="associates a description with a Translation file ">
<polygon fill="white" stroke="black" points="472,-371.5 472,-390.5 528,-390.5 528,-371.5 472,-371.5"/>
<text text-anchor="middle" x="500" y="-378.5" font-family="Helvetica,sans-Serif" font-size="10.00">DescFile</text>
</a>
</g>
</g>
<!-- Node10&#45;&gt;Node5 -->
<g id="edge10" class="edge"><title>Node10&#45;&gt;Node5</title>
<path fill="none" stroke="#9a32cd" stroke-dasharray="5,2" d="M537.951,-372.441C564.032,-365.977 599.601,-356.303 630,-345 653.694,-336.19 679.857,-323.384 696.812,-314.652"/>
<polygon fill="#9a32cd" stroke="#9a32cd" points="536.988,-369.073 528.101,-374.841 538.645,-375.874 536.988,-369.073"/>
<text text-anchor="middle" x="602" y="-366" font-family="Helvetica,sans-Serif" font-size="10.00"> DescFileP</text>
</g>
<!-- Node11 -->
<g id="node11" class="node"><title>Node11</title>
<g id="a_node11"><a xlink:href="structpkgCache_1_1StringItem.xhtml" target="_top" xlink:title="used for generating single instances of strings ">
<polygon fill="white" stroke="black" points="469,-333.5 469,-352.5 531,-352.5 531,-333.5 469,-333.5"/>
<text text-anchor="middle" x="500" y="-340.5" font-family="Helvetica,sans-Serif" font-size="10.00">StringItem</text>
</a>
</g>
</g>
<!-- Node11&#45;&gt;Node5 -->
<g id="edge11" class="edge"><title>Node11&#45;&gt;Node5</title>
<path fill="none" stroke="#9a32cd" stroke-dasharray="5,2" d="M541.076,-335.884C582.974,-328.444 647.744,-316.943 685.291,-310.275"/>
<polygon fill="#9a32cd" stroke="#9a32cd" points="540.441,-332.442 531.207,-337.636 541.665,-339.334 540.441,-332.442"/>
<text text-anchor="middle" x="602" y="-333" font-family="Helvetica,sans-Serif" font-size="10.00"> StringItemP</text>
</g>
<!-- Node12 -->
<g id="node12" class="node"><title>Node12</title>
<g id="a_node12"><a xlink:href="structpkgCache_1_1Provides.xhtml" target="_top" xlink:title="handles virtual packages ">
<polygon fill="white" stroke="black" points="472.5,-295.5 472.5,-314.5 527.5,-314.5 527.5,-295.5 472.5,-295.5"/>
<text text-anchor="middle" x="500" y="-302.5" font-family="Helvetica,sans-Serif" font-size="10.00">Provides</text>
</a>
</g>
</g>
<!-- Node12&#45;&gt;Node5 -->
<g id="edge12" class="edge"><title>Node12&#45;&gt;Node5</title>
<path fill="none" stroke="#9a32cd" stroke-dasharray="5,2" d="M537.689,-305C579.389,-305 646.657,-305 685.239,-305"/>
<polygon fill="#9a32cd" stroke="#9a32cd" points="537.671,-301.5 527.671,-305 537.671,-308.5 537.671,-301.5"/>
<text text-anchor="middle" x="602" y="-308" font-family="Helvetica,sans-Serif" font-size="10.00"> ProvideP</text>
</g>
<!-- Node13 -->
<g id="node13" class="node"><title>Node13</title>
<g id="a_node13"><a xlink:title="STL class. ">
<polygon fill="white" stroke="#bfbfbf" points="144.5,-238.5 144.5,-257.5 185.5,-257.5 185.5,-238.5 144.5,-238.5"/>
<text text-anchor="middle" x="165" y="-245.5" font-family="Helvetica,sans-Serif" font-size="10.00">string</text>
</a>
</g>
</g>
<!-- Node13&#45;&gt;Node5 -->
<g id="edge13" class="edge"><title>Node13&#45;&gt;Node5</title>
<path fill="none" stroke="#9a32cd" stroke-dasharray="5,2" d="M195.697,-252.016C198.502,-252.362 201.303,-252.696 204,-253 360.143,-270.586 399.755,-269.343 556,-286 601.198,-290.818 653.519,-297.232 685.428,-301.238"/>
<polygon fill="#9a32cd" stroke="#9a32cd" points="196.07,-248.535 185.706,-250.735 195.179,-255.478 196.07,-248.535"/>
<text text-anchor="middle" x="401" y="-277" font-family="Helvetica,sans-Serif" font-size="10.00"> CacheFile</text>
</g>
<!-- Node21 -->
<g id="node21" class="node"><title>Node21</title>
<g id="a_node21"><a xlink:href="classFileFd.xhtml" target="_top" xlink:title="FileFd">
<polygon fill="white" stroke="black" points="314,-219.5 314,-238.5 358,-238.5 358,-219.5 314,-219.5"/>
<text text-anchor="middle" x="336" y="-226.5" font-family="Helvetica,sans-Serif" font-size="10.00">FileFd</text>
</a>
</g>
</g>
<!-- Node13&#45;&gt;Node21 -->
<g id="edge23" class="edge"><title>Node13&#45;&gt;Node21</title>
<path fill="none" stroke="#9a32cd" stroke-dasharray="5,2" d="M192.707,-234.457C196.422,-233.048 200.251,-231.83 204,-231 241.975,-222.589 287.668,-224.522 313.824,-226.733"/>
<polygon fill="#9a32cd" stroke="#9a32cd" points="191.089,-231.342 183.274,-238.496 193.844,-237.777 191.089,-231.342"/>
<text text-anchor="middle" x="250" y="-245" font-family="Helvetica,sans-Serif" font-size="10.00"> TemporaryFileName</text>
<text text-anchor="middle" x="250" y="-234" font-family="Helvetica,sans-Serif" font-size="10.00">FileName</text>
</g>
<!-- Node14 -->
<g id="node14" class="node"><title>Node14</title>
<g id="a_node14"><a xlink:title="STL class. ">
<polygon fill="white" stroke="#bfbfbf" points="0,-238.5 0,-257.5 106,-257.5 106,-238.5 0,-238.5"/>
<text text-anchor="middle" x="53" y="-245.5" font-family="Helvetica,sans-Serif" font-size="10.00">basic_string&lt; char &gt;</text>
</a>
</g>
</g>
<!-- Node14&#45;&gt;Node13 -->
<g id="edge14" class="edge"><title>Node14&#45;&gt;Node13</title>
<path fill="none" stroke="midnightblue" d="M116.338,-248C126.515,-248 136.35,-248 144.416,-248"/>
<polygon fill="midnightblue" stroke="midnightblue" points="116.101,-244.5 106.101,-248 116.101,-251.5 116.101,-244.5"/>
</g>
<!-- Node15 -->
<g id="node15" class="node"><title>Node15</title>
<g id="a_node15"><a xlink:href="structpkgCache_1_1Group.xhtml" target="_top" xlink:title="groups architecture depending packages together ">
<polygon fill="white" stroke="black" points="478.5,-181.5 478.5,-200.5 521.5,-200.5 521.5,-181.5 478.5,-181.5"/>
<text text-anchor="middle" x="500" y="-188.5" font-family="Helvetica,sans-Serif" font-size="10.00">Group</text>
</a>
</g>
</g>
<!-- Node15&#45;&gt;Node5 -->
<g id="edge15" class="edge"><title>Node15&#45;&gt;Node5</title>
<path fill="none" stroke="#9a32cd" stroke-dasharray="5,2" d="M531.655,-191.411C558.976,-192.965 599.274,-198.256 630,-215 666.611,-234.951 696.547,-276.349 708.9,-295.231"/>
<polygon fill="#9a32cd" stroke="#9a32cd" points="531.656,-187.908 521.514,-190.972 531.353,-194.901 531.656,-187.908"/>
<text text-anchor="middle" x="602" y="-218" font-family="Helvetica,sans-Serif" font-size="10.00"> GrpP</text>
</g>
<!-- Node16 -->
<g id="node16" class="node"><title>Node16</title>
<g id="a_node16"><a xlink:href="classpkgVersioningSystem.xhtml" target="_top" xlink:title="pkgVersioningSystem">
<polygon fill="white" stroke="black" points="444,-114.5 444,-133.5 556,-133.5 556,-114.5 444,-114.5"/>
<text text-anchor="middle" x="500" y="-121.5" font-family="Helvetica,sans-Serif" font-size="10.00">pkgVersioningSystem</text>
</a>
</g>
</g>
<!-- Node16&#45;&gt;Node5 -->
<g id="edge16" class="edge"><title>Node16&#45;&gt;Node5</title>
<path fill="none" stroke="#9a32cd" stroke-dasharray="5,2" d="M544.252,-136.798C570.988,-146.231 604.874,-161.08 630,-182 670.295,-215.55 699.922,-272.736 710.628,-295.369"/>
<polygon fill="#9a32cd" stroke="#9a32cd" points="545.349,-133.474 534.754,-133.566 543.094,-140.101 545.349,-133.474"/>
<text text-anchor="middle" x="602" y="-185" font-family="Helvetica,sans-Serif" font-size="10.00"> VS</text>
</g>
<!-- Node16&#45;&gt;Node16 -->
<g id="edge17" class="edge"><title>Node16&#45;&gt;Node16</title>
<path fill="none" stroke="#9a32cd" stroke-dasharray="5,2" d="M481.853,-143.4C483.065,-148.315 489.114,-152 500,-152 517.418,-152 522.453,-142.565 515.105,-133.757"/>
<polygon fill="#9a32cd" stroke="#9a32cd" points="485.224,-144.347 484.895,-133.757 478.548,-142.24 485.224,-144.347"/>
<text text-anchor="middle" x="500" y="-155" font-family="Helvetica,sans-Serif" font-size="10.00"> GlobalList</text>
</g>
<!-- Node17 -->
<g id="node17" class="node"><title>Node17</title>
<g id="a_node17"><a xlink:href="structpkgCache_1_1Version.xhtml" target="_top" xlink:title="information for a single version of a package ">
<polygon fill="white" stroke="black" points="475,-76.5 475,-95.5 525,-95.5 525,-76.5 475,-76.5"/>
<text text-anchor="middle" x="500" y="-83.5" font-family="Helvetica,sans-Serif" font-size="10.00">Version</text>
</a>
</g>
</g>
<!-- Node17&#45;&gt;Node5 -->
<g id="edge18" class="edge"><title>Node17&#45;&gt;Node5</title>
<path fill="none" stroke="#9a32cd" stroke-dasharray="5,2" d="M534.941,-91.8522C563.386,-98.3146 603.488,-111.264 630,-136 680.429,-183.05 705.32,-266.631 712.638,-295.149"/>
<polygon fill="#9a32cd" stroke="#9a32cd" points="535.543,-88.4023 525.035,-89.7551 534.093,-95.2505 535.543,-88.4023"/>
<text text-anchor="middle" x="602" y="-139" font-family="Helvetica,sans-Serif" font-size="10.00"> VerP</text>
</g>
<!-- Node18 -->
<g id="node18" class="node"><title>Node18</title>
<g id="a_node18"><a xlink:href="structpkgCache_1_1VerFile.xhtml" target="_top" xlink:title="associates a version with a PackageFile ">
<polygon fill="white" stroke="black" points="476.5,-38.5 476.5,-57.5 523.5,-57.5 523.5,-38.5 476.5,-38.5"/>
<text text-anchor="middle" x="500" y="-45.5" font-family="Helvetica,sans-Serif" font-size="10.00">VerFile</text>
</a>
</g>
</g>
<!-- Node18&#45;&gt;Node5 -->
<g id="edge19" class="edge"><title>Node18&#45;&gt;Node5</title>
<path fill="none" stroke="#9a32cd" stroke-dasharray="5,2" d="M533.484,-50.5626C562.211,-54.4573 603.552,-64.2713 630,-89 693.583,-148.449 710.382,-261.351 714.08,-295.182"/>
<polygon fill="#9a32cd" stroke="#9a32cd" points="533.866,-47.0834 523.523,-49.3789 533.04,-54.0345 533.866,-47.0834"/>
<text text-anchor="middle" x="602" y="-92" font-family="Helvetica,sans-Serif" font-size="10.00"> VerFileP</text>
</g>
<!-- Node19 -->
<g id="node19" class="node"><title>Node19</title>
<g id="a_node19"><a xlink:href="structpkgCache_1_1Package.xhtml" target="_top" xlink:title="contains information for a single unique package ">
<polygon fill="white" stroke="black" points="472.5,-0.5 472.5,-19.5 527.5,-19.5 527.5,-0.5 472.5,-0.5"/>
<text text-anchor="middle" x="500" y="-7.5" font-family="Helvetica,sans-Serif" font-size="10.00">Package</text>
</a>
</g>
</g>
<!-- Node19&#45;&gt;Node5 -->
<g id="edge20" class="edge"><title>Node19&#45;&gt;Node5</title>
<path fill="none" stroke="#9a32cd" stroke-dasharray="5,2" d="M537.563,-10.8315C566.197,-13.4063 605.205,-21.4386 630,-45 705.738,-116.968 714.076,-257.258 714.923,-295.291"/>
<polygon fill="#9a32cd" stroke="#9a32cd" points="537.753,-7.33624 527.528,-10.1111 537.252,-14.3183 537.753,-7.33624"/>
<text text-anchor="middle" x="602" y="-48" font-family="Helvetica,sans-Serif" font-size="10.00"> PkgP</text>
</g>
<!-- Node20 -->
<g id="node20" class="node"><title>Node20</title>
<g id="a_node20"><a xlink:href="classMMap.xhtml" target="_top" xlink:title="MMap">
<polygon fill="white" stroke="black" points="478,-219.5 478,-238.5 522,-238.5 522,-219.5 478,-219.5"/>
<text text-anchor="middle" x="500" y="-226.5" font-family="Helvetica,sans-Serif" font-size="10.00">MMap</text>
</a>
</g>
</g>
<!-- Node20&#45;&gt;Node5 -->
<g id="edge21" class="edge"><title>Node20&#45;&gt;Node5</title>
<path fill="none" stroke="#9a32cd" stroke-dasharray="5,2" d="M532.682,-227.576C559.482,-227.439 598.449,-229.794 630,-242 661.179,-254.062 690.987,-280.816 705.615,-295.275"/>
<polygon fill="#9a32cd" stroke="#9a32cd" points="532.286,-224.082 522.348,-227.755 532.407,-231.081 532.286,-224.082"/>
<text text-anchor="middle" x="602" y="-245" font-family="Helvetica,sans-Serif" font-size="10.00"> Map</text>
</g>
<!-- Node21&#45;&gt;Node20 -->
<g id="edge22" class="edge"><title>Node21&#45;&gt;Node20</title>
<path fill="none" stroke="#9a32cd" stroke-dasharray="5,2" d="M368.403,-229C400.64,-229 449.92,-229 477.816,-229"/>
<polygon fill="#9a32cd" stroke="#9a32cd" points="368.179,-225.5 358.179,-229 368.179,-232.5 368.179,-225.5"/>
<text text-anchor="middle" x="401" y="-232" font-family="Helvetica,sans-Serif" font-size="10.00"> SyncToFd</text>
</g>
</g>
</svg>
        <g id="navigator" transform="translate(0 0)" fill="#404254">
                <rect fill="#f2f5e9" fill-opacity="0.5" stroke="#606060" stroke-width=".5" x="0" y="0" width="60" height="60"/>
                <use id="zoomplus" xlink:href="#zoomPlus" x="17" y="9" onmousedown="handleZoom(evt,'in')"/>
                <use id="zoomminus" xlink:href="#zoomMin" x="42" y="9" onmousedown="handleZoom(evt,'out')"/>
                <use id="reset" xlink:href="#resetDef" x="30" y="36" onmousedown="handleReset()"/>
                <g id="arrowUp" xlink:href="#dirArrow" transform="translate(30 24)" onmousedown="handlePan(0,-1)">
                  <use xlink:href="#rim" fill="#404040">
                        <set attributeName="fill" to="#808080" begin="arrowUp.mouseover" end="arrowUp.mouseout"/>
                  </use>
                  <path fill="none" stroke="white" stroke-width="1.5" d="M0,-3.0v7 M-2.5,-0.5L0,-3.0L2.5,-0.5"/>
                </g>
                <g id="arrowRight" xlink:href="#dirArrow" transform="rotate(90) translate(36 -43)" onmousedown="handlePan(1,0)">
                  <use xlink:href="#rim" fill="#404040">
                        <set attributeName="fill" to="#808080" begin="arrowRight.mouseover" end="arrowRight.mouseout"/>
                  </use>
                  <path fill="none" stroke="white" stroke-width="1.5" d="M0,-3.0v7 M-2.5,-0.5L0,-3.0L2.5,-0.5"/>
                </g>
                <g id="arrowDown" xlink:href="#dirArrow" transform="rotate(180) translate(-30 -48)" onmousedown="handlePan(0,1)">
                  <use xlink:href="#rim" fill="#404040">
                        <set attributeName="fill" to="#808080" begin="arrowDown.mouseover" end="arrowDown.mouseout"/>
                  </use>
                  <path fill="none" stroke="white" stroke-width="1.5" d="M0,-3.0v7 M-2.5,-0.5L0,-3.0L2.5,-0.5"/>
                </g>
                <g id="arrowLeft" xlink:href="#dirArrow" transform="rotate(270) translate(-36 17)" onmousedown="handlePan(-1,0)">
                  <use xlink:href="#rim" fill="#404040">
                        <set attributeName="fill" to="#808080" begin="arrowLeft.mouseover" end="arrowLeft.mouseout"/>
                  </use>
                  <path fill="none" stroke="white" stroke-width="1.5" d="M0,-3.0v7 M-2.5,-0.5L0,-3.0L2.5,-0.5"/>
                </g>
        </g>
        <svg viewBox="0 0 15 15" width="100%" height="30px" preserveAspectRatio="xMaxYMin meet">
         <g id="arrow_out" transform="scale(0.3 0.3)">
          <a xlink:href="classpkgCache_1_1DescIterator__coll__graph_org.svg" target="_base">
           <rect id="button" ry="5" rx="5" y="6" x="6" height="38" width="38"
                fill="#f2f5e9" fill-opacity="0.5" stroke="#606060" stroke-width="1.0"/>
           <path id="arrow"
             d="M 11.500037,31.436501 C 11.940474,20.09759 22.043105,11.32322 32.158766,21.979434 L 37.068811,17.246167 C 37.068811,17.246167 37.088388,32 37.088388,32 L 22.160133,31.978069 C 22.160133,31.978069 26.997745,27.140456 26.997745,27.140456 C 18.528582,18.264221 13.291696,25.230495 11.500037,31.436501 z"
             style="fill:#404040;"/>
          </a>
         </g>
        </svg>
</svg>
