<?xml version="1.0" encoding="UTF-8" standalone="no"?>
<!DOCTYPE svg PUBLIC "-//W3C//DTD SVG 1.1//EN"
 "http://www.w3.org/Graphics/SVG/1.1/DTD/svg11.dtd">
<!-- Generated by graphviz version 2.36.0 (20140111.2315)
 -->
<!-- Title: debTranslationsParser Pages: 1 -->
<svg width="435pt" height="280pt"
 viewBox="0.00 0.00 435.00 280.00" xmlns="http://www.w3.org/2000/svg" xmlns:xlink="http://www.w3.org/1999/xlink">
<g id="graph0" class="graph" transform="scale(1 1) rotate(0) translate(4 276)">
<title>debTranslationsParser</title>
<polygon fill="white" stroke="none" points="-4,4 -4,-276 431,-276 431,4 -4,4"/>
<!-- Node1 -->
<g id="node1" class="node"><title>Node1</title>
<polygon fill="#bfbfbf" stroke="black" points="140,-0.5 140,-19.5 254,-19.5 254,-0.5 140,-0.5"/>
<text text-anchor="middle" x="197" y="-7.5" font-family="Helvetica,sans-Serif" font-size="10.00">debTranslationsParser</text>
</g>
<!-- Node2 -->
<g id="node2" class="node"><title>Node2</title>
<g id="a_node2"><a xlink:href="classdebListParser.xhtml" target="_top" xlink:title="debListParser">
<polygon fill="white" stroke="black" points="158.5,-58.5 158.5,-77.5 235.5,-77.5 235.5,-58.5 158.5,-58.5"/>
<text text-anchor="middle" x="197" y="-65.5" font-family="Helvetica,sans-Serif" font-size="10.00">debListParser</text>
</a>
</g>
</g>
<!-- Node2&#45;&gt;Node1 -->
<g id="edge1" class="edge"><title>Node2&#45;&gt;Node1</title>
<path fill="none" stroke="midnightblue" d="M197,-47.953C197,-38.2875 197,-27.0312 197,-19.5052"/>
<polygon fill="midnightblue" stroke="midnightblue" points="193.5,-48.25 197,-58.25 200.5,-48.25 193.5,-48.25"/>
</g>
<!-- Node3 -->
<g id="node3" class="node"><title>Node3</title>
<g id="a_node3"><a xlink:href="classpkgCacheGenerator_1_1ListParser.xhtml" target="_top" xlink:title="ListParser">
<polygon fill="white" stroke="black" points="-0.5,-126.5 -0.5,-145.5 60.5,-145.5 60.5,-126.5 -0.5,-126.5"/>
<text text-anchor="middle" x="30" y="-133.5" font-family="Helvetica,sans-Serif" font-size="10.00">ListParser</text>
</a>
</g>
</g>
<!-- Node3&#45;&gt;Node2 -->
<g id="edge2" class="edge"><title>Node3&#45;&gt;Node2</title>
<path fill="none" stroke="midnightblue" d="M61.5374,-122.536C94.8502,-109.371 146.477,-88.9673 175.427,-77.5259"/>
<polygon fill="midnightblue" stroke="midnightblue" points="59.846,-119.441 51.8323,-126.372 62.4188,-125.951 59.846,-119.441"/>
</g>
<!-- Node4 -->
<g id="node4" class="node"><title>Node4</title>
<g id="a_node4"><a xlink:href="classpkgTagSection.xhtml" target="_top" xlink:title="pkgTagSection">
<polygon fill="white" stroke="black" points="79,-126.5 79,-145.5 161,-145.5 161,-126.5 79,-126.5"/>
<text text-anchor="middle" x="120" y="-133.5" font-family="Helvetica,sans-Serif" font-size="10.00">pkgTagSection</text>
</a>
</g>
</g>
<!-- Node4&#45;&gt;Node2 -->
<g id="edge3" class="edge"><title>Node4&#45;&gt;Node2</title>
<path fill="none" stroke="#9a32cd" stroke-dasharray="5,2" d="M129.244,-117.27C133.624,-110.046 139.359,-102.002 146,-96 154.548,-88.2753 165.708,-82.0423 175.408,-77.5195"/>
<polygon fill="#9a32cd" stroke="#9a32cd" points="125.994,-115.91 124.151,-126.343 132.098,-119.336 125.994,-115.91"/>
<text text-anchor="middle" x="164.5" y="-99.5" font-family="Helvetica,sans-Serif" font-size="10.00"> Section</text>
</g>
<!-- Node5 -->
<g id="node5" class="node"><title>Node5</title>
<g id="a_node5"><a xlink:title="STL class. ">
<polygon fill="white" stroke="#bfbfbf" points="208.5,-194.5 208.5,-213.5 249.5,-213.5 249.5,-194.5 208.5,-194.5"/>
<text text-anchor="middle" x="229" y="-201.5" font-family="Helvetica,sans-Serif" font-size="10.00">string</text>
</a>
</g>
</g>
<!-- Node5&#45;&gt;Node2 -->
<g id="edge4" class="edge"><title>Node5&#45;&gt;Node2</title>
<path fill="none" stroke="#9a32cd" stroke-dasharray="5,2" d="M220.302,-185.024C215.34,-174.007 209.44,-159.477 206,-146 199.808,-121.744 197.863,-92.0872 197.262,-77.6823"/>
<polygon fill="#9a32cd" stroke="#9a32cd" points="217.26,-186.781 224.662,-194.361 223.603,-183.819 217.26,-186.781"/>
<text text-anchor="middle" x="218" y="-133.5" font-family="Helvetica,sans-Serif" font-size="10.00"> Arch</text>
</g>
<!-- Node8 -->
<g id="node8" class="node"><title>Node8</title>
<polygon fill="white" stroke="#bfbfbf" points="239.5,-126.5 239.5,-145.5 344.5,-145.5 344.5,-126.5 239.5,-126.5"/>
<text text-anchor="middle" x="292" y="-133.5" font-family="Helvetica,sans-Serif" font-size="10.00">vector&lt; std::string &gt;</text>
</g>
<!-- Node5&#45;&gt;Node8 -->
<g id="edge8" class="edge"><title>Node5&#45;&gt;Node8</title>
<path fill="none" stroke="#9a32cd" stroke-dasharray="5,2" d="M244.227,-187.047C256.576,-174.111 273.523,-156.357 283.561,-145.841"/>
<polygon fill="#9a32cd" stroke="#9a32cd" points="241.609,-184.721 237.236,-194.372 246.673,-189.555 241.609,-184.721"/>
<text text-anchor="middle" x="288.5" y="-167.5" font-family="Helvetica,sans-Serif" font-size="10.00"> elements</text>
</g>
<!-- Node6 -->
<g id="node6" class="node"><title>Node6</title>
<g id="a_node6"><a xlink:title="STL class. ">
<polygon fill="white" stroke="#bfbfbf" points="176,-252.5 176,-271.5 282,-271.5 282,-252.5 176,-252.5"/>
<text text-anchor="middle" x="229" y="-259.5" font-family="Helvetica,sans-Serif" font-size="10.00">basic_string&lt; char &gt;</text>
</a>
</g>
</g>
<!-- Node6&#45;&gt;Node5 -->
<g id="edge5" class="edge"><title>Node6&#45;&gt;Node5</title>
<path fill="none" stroke="midnightblue" d="M229,-241.953C229,-232.287 229,-221.031 229,-213.505"/>
<polygon fill="midnightblue" stroke="midnightblue" points="225.5,-242.25 229,-252.25 232.5,-242.25 225.5,-242.25"/>
</g>
<!-- Node7 -->
<g id="node7" class="node"><title>Node7</title>
<g id="a_node7"><a xlink:href="classpkgTagFile.xhtml" target="_top" xlink:title="pkgTagFile">
<polygon fill="white" stroke="black" points="362.5,-126.5 362.5,-145.5 427.5,-145.5 427.5,-126.5 362.5,-126.5"/>
<text text-anchor="middle" x="395" y="-133.5" font-family="Helvetica,sans-Serif" font-size="10.00">pkgTagFile</text>
</a>
</g>
</g>
<!-- Node7&#45;&gt;Node2 -->
<g id="edge6" class="edge"><title>Node7&#45;&gt;Node2</title>
<path fill="none" stroke="#9a32cd" stroke-dasharray="5,2" d="M372.04,-121.254C357.312,-112.937 337.54,-102.683 319,-96 291.858,-86.2164 259.989,-79.3109 235.63,-74.9337"/>
<polygon fill="#9a32cd" stroke="#9a32cd" points="370.516,-124.415 380.926,-126.382 374.015,-118.352 370.516,-124.415"/>
<text text-anchor="middle" x="357.5" y="-99.5" font-family="Helvetica,sans-Serif" font-size="10.00"> Tags</text>
</g>
<!-- Node8&#45;&gt;Node2 -->
<g id="edge7" class="edge"><title>Node8&#45;&gt;Node2</title>
<path fill="none" stroke="#9a32cd" stroke-dasharray="5,2" d="M271.321,-120.634C252.438,-107.515 225.142,-88.551 209.423,-77.6305"/>
<polygon fill="#9a32cd" stroke="#9a32cd" points="269.371,-123.54 279.58,-126.372 273.365,-117.792 269.371,-123.54"/>
<text text-anchor="middle" x="284.5" y="-99.5" font-family="Helvetica,sans-Serif" font-size="10.00"> Architectures</text>
</g>
</g>
</svg>
