<?xml version="1.0" encoding="UTF-8" standalone="no"?>
<!DOCTYPE svg PUBLIC "-//W3C//DTD SVG 1.1//EN"
 "http://www.w3.org/Graphics/SVG/1.1/DTD/svg11.dtd">
<!-- Generated by graphviz version 2.36.0 (20140111.2315)
 -->
<!-- Title: pkgOrderList Pages: 1 -->
<!--zoomable 590 -->
<svg id="main" version="1.1" xmlns="http://www.w3.org/2000/svg" xmlns:xlink="http://www.w3.org/1999/xlink" xml:space="preserve" onload="init(evt)">
<style type="text/css"><![CDATA[
.edge:hover path { stroke: red; }
.edge:hover polygon { stroke: red; fill: red; }
]]></style>
<script type="text/javascript"><![CDATA[
var edges = document.getElementsByTagName('g');
if (edges && edges.length) {
  for (var i=0;i<edges.length;i++) {
    if (edges[i].id.substr(0,4)=='edge') {
      edges[i].setAttribute('class','edge');
    }
  }
}
]]></script>
        <defs>
                <circle id="rim" cx="0" cy="0" r="7"/>
                <circle id="rim2" cx="0" cy="0" r="3.5"/>
                <g id="zoomPlus">
                        <use xlink:href="#rim" fill="#404040">
                                <set attributeName="fill" to="#808080" begin="zoomplus.mouseover" end="zoomplus.mouseout"/>
                        </use>
                        <path d="M-4,0h8M0,-4v8" fill="none" stroke="white" stroke-width="1.5" pointer-events="none"/>
                </g>
                <g id="zoomMin">
                        <use xlink:href="#rim" fill="#404040">
                                <set attributeName="fill" to="#808080" begin="zoomminus.mouseover" end="zoomminus.mouseout"/>
                        </use>
                        <path d="M-4,0h8" fill="none" stroke="white" stroke-width="1.5" pointer-events="none"/>
                </g>
                <g id="dirArrow">
                        <path fill="none" stroke="white" stroke-width="1.5" d="M0,-3.0v7 M-2.5,-0.5L0,-3.0L2.5,-0.5"/>
                </g>
               <g id="resetDef">
                       <use xlink:href="#rim2" fill="#404040">
                               <set attributeName="fill" to="#808080" begin="reset.mouseover" end="reset.mouseout"/>
                       </use>
               </g>
        </defs>

<script type="text/javascript">
var viewWidth = 1046;
var viewHeight = 590;
var sectionId = 'dynsection-1';
</script>
<script xlink:href="svgpan.js"/>
<svg id="graph" class="graph">
<g id="viewport">
<title>pkgOrderList</title>
<polygon fill="white" stroke="none" points="-4,4 -4,-586 1042,-586 1042,4 -4,4"/>
<!-- Node1 -->
<g id="node1" class="node"><title>Node1</title>
<polygon fill="#bfbfbf" stroke="black" points="966,-350.5 966,-369.5 1038,-369.5 1038,-350.5 966,-350.5"/>
<text text-anchor="middle" x="1002" y="-357.5" font-family="Helvetica,sans-Serif" font-size="10.00">pkgOrderList</text>
</g>
<!-- Node1&#45;&gt;Node1 -->
<g id="edge2" class="edge"><title>Node1&#45;&gt;Node1</title>
<path fill="none" stroke="#9a32cd" stroke-dasharray="5,2" d="M989.109,-379.766C990.122,-384.497 994.419,-388 1002,-388 1014.44,-388 1018.04,-378.565 1012.79,-369.757"/>
<polygon fill="#9a32cd" stroke="#9a32cd" points="992.581,-380.263 991.211,-369.757 985.73,-378.824 992.581,-380.263"/>
<text text-anchor="middle" x="1002" y="-391" font-family="Helvetica,sans-Serif" font-size="10.00"> Me</text>
</g>
<!-- Node2 -->
<g id="node2" class="node"><title>Node2</title>
<g id="a_node2"><a xlink:href="classpkgCache_1_1Namespace.xhtml" target="_top" xlink:title="Namespace">
<polygon fill="white" stroke="black" points="648.5,-342.5 648.5,-361.5 717.5,-361.5 717.5,-342.5 648.5,-342.5"/>
<text text-anchor="middle" x="683" y="-349.5" font-family="Helvetica,sans-Serif" font-size="10.00">Namespace</text>
</a>
</g>
</g>
<!-- Node2&#45;&gt;Node1 -->
<g id="edge1" class="edge"><title>Node2&#45;&gt;Node1</title>
<path fill="none" stroke="darkgreen" d="M727.709,-353.103C791.152,-354.704 907.519,-357.641 965.795,-359.112"/>
<polygon fill="darkgreen" stroke="darkgreen" points="727.71,-349.602 717.624,-352.849 727.533,-356.6 727.71,-349.602"/>
</g>
<!-- Node3 -->
<g id="node3" class="node"><title>Node3</title>
<g id="a_node3"><a xlink:href="classpkgDepCache.xhtml" target="_top" xlink:title="pkgDepCache">
<polygon fill="white" stroke="black" points="818.5,-299.5 818.5,-318.5 897.5,-318.5 897.5,-299.5 818.5,-299.5"/>
<text text-anchor="middle" x="858" y="-306.5" font-family="Helvetica,sans-Serif" font-size="10.00">pkgDepCache</text>
</a>
</g>
</g>
<!-- Node2&#45;&gt;Node3 -->
<g id="edge4" class="edge"><title>Node2&#45;&gt;Node3</title>
<path fill="none" stroke="darkgreen" d="M727.677,-341.144C755.644,-334.193 791.597,-325.256 818.493,-318.571"/>
<polygon fill="darkgreen" stroke="darkgreen" points="726.627,-337.798 717.767,-343.607 728.316,-344.592 726.627,-337.798"/>
</g>
<!-- Node3&#45;&gt;Node1 -->
<g id="edge3" class="edge"><title>Node3&#45;&gt;Node1</title>
<path fill="none" stroke="#9a32cd" stroke-dasharray="5,2" d="M906.33,-321.337C919.927,-325.28 934.677,-329.947 948,-335 959.796,-339.473 972.599,-345.479 982.666,-350.482"/>
<polygon fill="#9a32cd" stroke="#9a32cd" points="907.245,-317.958 896.67,-318.597 905.336,-324.693 907.245,-317.958"/>
<text text-anchor="middle" x="932" y="-338" font-family="Helvetica,sans-Serif" font-size="10.00"> Cache</text>
</g>
<!-- Node4 -->
<g id="node4" class="node"><title>Node4</title>
<g id="a_node4"><a xlink:href="classpkgDepCache_1_1Policy.xhtml" target="_top" xlink:title="Policy">
<polygon fill="white" stroke="black" points="661,-254.5 661,-273.5 705,-273.5 705,-254.5 661,-254.5"/>
<text text-anchor="middle" x="683" y="-261.5" font-family="Helvetica,sans-Serif" font-size="10.00">Policy</text>
</a>
</g>
</g>
<!-- Node4&#45;&gt;Node3 -->
<g id="edge5" class="edge"><title>Node4&#45;&gt;Node3</title>
<path fill="none" stroke="#9a32cd" stroke-dasharray="5,2" d="M715.561,-265.964C739.226,-268.071 772.186,-272.364 800,-281 814.32,-285.446 829.512,-293.071 840.608,-299.242"/>
<polygon fill="#9a32cd" stroke="#9a32cd" points="715.643,-262.459 705.394,-265.142 715.079,-269.437 715.643,-262.459"/>
<text text-anchor="middle" x="768" y="-295" font-family="Helvetica,sans-Serif" font-size="10.00"> LocalPolicy</text>
<text text-anchor="middle" x="768" y="-284" font-family="Helvetica,sans-Serif" font-size="10.00">delLocalPolicy</text>
</g>
<!-- Node5 -->
<g id="node5" class="node"><title>Node5</title>
<g id="a_node5"><a xlink:href="classpkgCache.xhtml" target="_top" xlink:title="pkgCache">
<polygon fill="white" stroke="black" points="652.5,-295.5 652.5,-314.5 713.5,-314.5 713.5,-295.5 652.5,-295.5"/>
<text text-anchor="middle" x="683" y="-302.5" font-family="Helvetica,sans-Serif" font-size="10.00">pkgCache</text>
</a>
</g>
</g>
<!-- Node5&#45;&gt;Node3 -->
<g id="edge6" class="edge"><title>Node5&#45;&gt;Node3</title>
<path fill="none" stroke="#9a32cd" stroke-dasharray="5,2" d="M724.098,-305.927C752.436,-306.582 790.212,-307.456 818.245,-308.104"/>
<polygon fill="#9a32cd" stroke="#9a32cd" points="723.818,-302.42 713.74,-305.688 723.656,-309.418 723.818,-302.42"/>
<text text-anchor="middle" x="768" y="-311" font-family="Helvetica,sans-Serif" font-size="10.00"> Cache</text>
</g>
<!-- Node6 -->
<g id="node6" class="node"><title>Node6</title>
<g id="a_node6"><a xlink:href="structpkgCache_1_1Dependency.xhtml" target="_top" xlink:title="information for a single dependency record ">
<polygon fill="white" stroke="black" points="464.5,-523.5 464.5,-542.5 535.5,-542.5 535.5,-523.5 464.5,-523.5"/>
<text text-anchor="middle" x="500" y="-530.5" font-family="Helvetica,sans-Serif" font-size="10.00">Dependency</text>
</a>
</g>
</g>
<!-- Node6&#45;&gt;Node5 -->
<g id="edge7" class="edge"><title>Node6&#45;&gt;Node5</title>
<path fill="none" stroke="#9a32cd" stroke-dasharray="5,2" d="M545.737,-537.144C574.007,-537.122 609.037,-531.757 630,-509 656.637,-480.084 629.432,-367.654 648,-333 651.973,-325.586 658.809,-319.374 665.314,-314.699"/>
<polygon fill="#9a32cd" stroke="#9a32cd" points="545.737,-533.643 535.666,-536.933 545.59,-540.642 545.737,-533.643"/>
<text text-anchor="middle" x="602" y="-538" font-family="Helvetica,sans-Serif" font-size="10.00"> DepP</text>
</g>
<!-- Node7 -->
<g id="node7" class="node"><title>Node7</title>
<g id="a_node7"><a xlink:href="structpkgCache_1_1Description.xhtml" target="_top" xlink:title="datamember of a linked list of available description for a version ">
<polygon fill="white" stroke="black" points="467,-485.5 467,-504.5 533,-504.5 533,-485.5 467,-485.5"/>
<text text-anchor="middle" x="500" y="-492.5" font-family="Helvetica,sans-Serif" font-size="10.00">Description</text>
</a>
</g>
</g>
<!-- Node7&#45;&gt;Node5 -->
<g id="edge8" class="edge"><title>Node7&#45;&gt;Node5</title>
<path fill="none" stroke="#9a32cd" stroke-dasharray="5,2" d="M543.159,-497.484C571.79,-496.727 608.268,-490.549 630,-467 670.753,-422.84 618.786,-385.511 648,-333 652.164,-325.516 659.192,-319.221 665.781,-314.507"/>
<polygon fill="#9a32cd" stroke="#9a32cd" points="542.988,-493.984 533.007,-497.539 543.026,-500.984 542.988,-493.984"/>
<text text-anchor="middle" x="602" y="-497" font-family="Helvetica,sans-Serif" font-size="10.00"> DescP</text>
</g>
<!-- Node8 -->
<g id="node8" class="node"><title>Node8</title>
<g id="a_node8"><a xlink:href="structpkgCache_1_1Header.xhtml" target="_top" xlink:title="Header">
<polygon fill="white" stroke="black" points="476,-447.5 476,-466.5 524,-466.5 524,-447.5 476,-447.5"/>
<text text-anchor="middle" x="500" y="-454.5" font-family="Helvetica,sans-Serif" font-size="10.00">Header</text>
</a>
</g>
</g>
<!-- Node8&#45;&gt;Node5 -->
<g id="edge9" class="edge"><title>Node8&#45;&gt;Node5</title>
<path fill="none" stroke="#9a32cd" stroke-dasharray="5,2" d="M534.409,-458.071C563.759,-457.103 605.496,-450.76 630,-425 658.716,-394.813 626.667,-368.788 648,-333 652.385,-325.643 659.441,-319.365 665.992,-314.628"/>
<polygon fill="#9a32cd" stroke="#9a32cd" points="534.162,-454.574 524.211,-458.211 534.258,-461.574 534.162,-454.574"/>
<text text-anchor="middle" x="602" y="-455" font-family="Helvetica,sans-Serif" font-size="10.00"> HeaderP</text>
</g>
<!-- Node9 -->
<g id="node9" class="node"><title>Node9</title>
<g id="a_node9"><a xlink:href="structDynamicMMap_1_1Pool.xhtml" target="_top" xlink:title="Pool">
<polygon fill="white" stroke="black" points="318,-447.5 318,-466.5 354,-466.5 354,-447.5 318,-447.5"/>
<text text-anchor="middle" x="336" y="-454.5" font-family="Helvetica,sans-Serif" font-size="10.00">Pool</text>
</a>
</g>
</g>
<!-- Node9&#45;&gt;Node8 -->
<g id="edge10" class="edge"><title>Node9&#45;&gt;Node8</title>
<path fill="none" stroke="#9a32cd" stroke-dasharray="5,2" d="M364.236,-457C395.589,-457 446.538,-457 475.988,-457"/>
<polygon fill="#9a32cd" stroke="#9a32cd" points="364.031,-453.5 354.031,-457 364.031,-460.5 364.031,-453.5"/>
<text text-anchor="middle" x="401" y="-460" font-family="Helvetica,sans-Serif" font-size="10.00"> Pools</text>
</g>
<!-- Node10 -->
<g id="node10" class="node"><title>Node10</title>
<g id="a_node10"><a xlink:href="structpkgCache_1_1PackageFile.xhtml" target="_top" xlink:title="stores information about the files used to generate the cache ">
<polygon fill="white" stroke="black" points="464.5,-409.5 464.5,-428.5 535.5,-428.5 535.5,-409.5 464.5,-409.5"/>
<text text-anchor="middle" x="500" y="-416.5" font-family="Helvetica,sans-Serif" font-size="10.00">PackageFile</text>
</a>
</g>
</g>
<!-- Node10&#45;&gt;Node5 -->
<g id="edge11" class="edge"><title>Node10&#45;&gt;Node5</title>
<path fill="none" stroke="#9a32cd" stroke-dasharray="5,2" d="M545.728,-416.236C573.144,-412.325 607.23,-403.172 630,-382 646.991,-366.202 634.577,-351.923 648,-333 653.043,-325.89 660.337,-319.56 666.877,-314.725"/>
<polygon fill="#9a32cd" stroke="#9a32cd" points="545.078,-412.79 535.585,-417.493 545.939,-419.737 545.078,-412.79"/>
<text text-anchor="middle" x="602" y="-413" font-family="Helvetica,sans-Serif" font-size="10.00"> PkgFileP</text>
</g>
<!-- Node11 -->
<g id="node11" class="node"><title>Node11</title>
<g id="a_node11"><a xlink:href="structpkgCache_1_1DescFile.xhtml" target="_top" xlink:title="associates a description with a Translation file ">
<polygon fill="white" stroke="black" points="472,-371.5 472,-390.5 528,-390.5 528,-371.5 472,-371.5"/>
<text text-anchor="middle" x="500" y="-378.5" font-family="Helvetica,sans-Serif" font-size="10.00">DescFile</text>
</a>
</g>
</g>
<!-- Node11&#45;&gt;Node5 -->
<g id="edge12" class="edge"><title>Node11&#45;&gt;Node5</title>
<path fill="none" stroke="#9a32cd" stroke-dasharray="5,2" d="M538.122,-375.041C564.707,-369.809 600.813,-360.69 630,-346 634.416,-343.777 656.371,-326.033 670.304,-314.628"/>
<polygon fill="#9a32cd" stroke="#9a32cd" points="537.262,-371.641 528.078,-376.923 538.551,-378.522 537.262,-371.641"/>
<text text-anchor="middle" x="602" y="-370" font-family="Helvetica,sans-Serif" font-size="10.00"> DescFileP</text>
</g>
<!-- Node12 -->
<g id="node12" class="node"><title>Node12</title>
<g id="a_node12"><a xlink:href="structpkgCache_1_1StringItem.xhtml" target="_top" xlink:title="used for generating single instances of strings ">
<polygon fill="white" stroke="black" points="469,-333.5 469,-352.5 531,-352.5 531,-333.5 469,-333.5"/>
<text text-anchor="middle" x="500" y="-340.5" font-family="Helvetica,sans-Serif" font-size="10.00">StringItem</text>
</a>
</g>
</g>
<!-- Node12&#45;&gt;Node5 -->
<g id="edge13" class="edge"><title>Node12&#45;&gt;Node5</title>
<path fill="none" stroke="#9a32cd" stroke-dasharray="5,2" d="M541.225,-336.937C566.785,-332.812 600.497,-326.866 630,-320 637.321,-318.296 645.145,-316.193 652.442,-314.105"/>
<polygon fill="#9a32cd" stroke="#9a32cd" points="540.484,-333.511 531.157,-338.536 541.582,-340.424 540.484,-333.511"/>
<text text-anchor="middle" x="602" y="-334" font-family="Helvetica,sans-Serif" font-size="10.00"> StringItemP</text>
</g>
<!-- Node13 -->
<g id="node13" class="node"><title>Node13</title>
<g id="a_node13"><a xlink:href="structpkgCache_1_1Provides.xhtml" target="_top" xlink:title="handles virtual packages ">
<polygon fill="white" stroke="black" points="472.5,-295.5 472.5,-314.5 527.5,-314.5 527.5,-295.5 472.5,-295.5"/>
<text text-anchor="middle" x="500" y="-302.5" font-family="Helvetica,sans-Serif" font-size="10.00">Provides</text>
</a>
</g>
</g>
<!-- Node13&#45;&gt;Node5 -->
<g id="edge14" class="edge"><title>Node13&#45;&gt;Node5</title>
<path fill="none" stroke="#9a32cd" stroke-dasharray="5,2" d="M538.103,-305C571.931,-305 621.254,-305 652.475,-305"/>
<polygon fill="#9a32cd" stroke="#9a32cd" points="537.707,-301.5 527.707,-305 537.707,-308.5 537.707,-301.5"/>
<text text-anchor="middle" x="602" y="-308" font-family="Helvetica,sans-Serif" font-size="10.00"> ProvideP</text>
</g>
<!-- Node14 -->
<g id="node14" class="node"><title>Node14</title>
<g id="a_node14"><a xlink:title="STL class. ">
<polygon fill="white" stroke="#bfbfbf" points="144.5,-219.5 144.5,-238.5 185.5,-238.5 185.5,-219.5 144.5,-219.5"/>
<text text-anchor="middle" x="165" y="-226.5" font-family="Helvetica,sans-Serif" font-size="10.00">string</text>
</a>
</g>
</g>
<!-- Node14&#45;&gt;Node1 -->
<g id="edge27" class="edge"><title>Node14&#45;&gt;Node1</title>
<path fill="none" stroke="#9a32cd" stroke-dasharray="5,2" d="M166.489,-248.571C169.434,-321.184 190.095,-571 335,-571 335,-571 335,-571 859,-571 957.466,-571 992.136,-410.892 999.438,-369.615"/>
<polygon fill="#9a32cd" stroke="#9a32cd" points="169.985,-248.381 166.152,-238.504 162.989,-248.615 169.985,-248.381"/>
<text text-anchor="middle" x="602" y="-574" font-family="Helvetica,sans-Serif" font-size="10.00"> FileList</text>
</g>
<!-- Node14&#45;&gt;Node5 -->
<g id="edge15" class="edge"><title>Node14&#45;&gt;Node5</title>
<path fill="none" stroke="#9a32cd" stroke-dasharray="5,2" d="M195.825,-227.315C261.646,-224.275 423.98,-220.522 556,-248 598.545,-256.855 643.915,-281.682 666.848,-295.47"/>
<polygon fill="#9a32cd" stroke="#9a32cd" points="195.567,-223.823 185.751,-227.81 195.911,-230.815 195.567,-223.823"/>
<text text-anchor="middle" x="401" y="-234" font-family="Helvetica,sans-Serif" font-size="10.00"> CacheFile</text>
</g>
<!-- Node22 -->
<g id="node22" class="node"><title>Node22</title>
<g id="a_node22"><a xlink:href="classFileFd.xhtml" target="_top" xlink:title="FileFd">
<polygon fill="white" stroke="black" points="314,-181.5 314,-200.5 358,-200.5 358,-181.5 314,-181.5"/>
<text text-anchor="middle" x="336" y="-188.5" font-family="Helvetica,sans-Serif" font-size="10.00">FileFd</text>
</a>
</g>
</g>
<!-- Node14&#45;&gt;Node22 -->
<g id="edge25" class="edge"><title>Node14&#45;&gt;Node22</title>
<path fill="none" stroke="#9a32cd" stroke-dasharray="5,2" d="M179.575,-211.311C186.103,-204.227 194.563,-196.844 204,-193 240.232,-178.241 286.913,-182.412 313.646,-186.738"/>
<polygon fill="#9a32cd" stroke="#9a32cd" points="176.638,-209.364 172.855,-219.26 181.984,-213.883 176.638,-209.364"/>
<text text-anchor="middle" x="250" y="-207" font-family="Helvetica,sans-Serif" font-size="10.00"> TemporaryFileName</text>
<text text-anchor="middle" x="250" y="-196" font-family="Helvetica,sans-Serif" font-size="10.00">FileName</text>
</g>
<!-- Node15 -->
<g id="node15" class="node"><title>Node15</title>
<g id="a_node15"><a xlink:title="STL class. ">
<polygon fill="white" stroke="#bfbfbf" points="0,-219.5 0,-238.5 106,-238.5 106,-219.5 0,-219.5"/>
<text text-anchor="middle" x="53" y="-226.5" font-family="Helvetica,sans-Serif" font-size="10.00">basic_string&lt; char &gt;</text>
</a>
</g>
</g>
<!-- Node15&#45;&gt;Node14 -->
<g id="edge16" class="edge"><title>Node15&#45;&gt;Node14</title>
<path fill="none" stroke="midnightblue" d="M116.338,-229C126.515,-229 136.35,-229 144.416,-229"/>
<polygon fill="midnightblue" stroke="midnightblue" points="116.101,-225.5 106.101,-229 116.101,-232.5 116.101,-225.5"/>
</g>
<!-- Node16 -->
<g id="node16" class="node"><title>Node16</title>
<g id="a_node16"><a xlink:href="structpkgCache_1_1Group.xhtml" target="_top" xlink:title="groups architecture depending packages together ">
<polygon fill="white" stroke="black" points="478.5,-143.5 478.5,-162.5 521.5,-162.5 521.5,-143.5 478.5,-143.5"/>
<text text-anchor="middle" x="500" y="-150.5" font-family="Helvetica,sans-Serif" font-size="10.00">Group</text>
</a>
</g>
</g>
<!-- Node16&#45;&gt;Node5 -->
<g id="edge17" class="edge"><title>Node16&#45;&gt;Node5</title>
<path fill="none" stroke="#9a32cd" stroke-dasharray="5,2" d="M531.678,-147.375C560.95,-143.923 604.286,-144.126 630,-169 666.868,-204.664 620.038,-239.997 648,-283 651.296,-288.069 656.215,-292.215 661.294,-295.486"/>
<polygon fill="#9a32cd" stroke="#9a32cd" points="531.013,-143.933 521.588,-148.773 531.974,-150.867 531.013,-143.933"/>
<text text-anchor="middle" x="602" y="-172" font-family="Helvetica,sans-Serif" font-size="10.00"> GrpP</text>
</g>
<!-- Node17 -->
<g id="node17" class="node"><title>Node17</title>
<g id="a_node17"><a xlink:href="classpkgVersioningSystem.xhtml" target="_top" xlink:title="pkgVersioningSystem">
<polygon fill="white" stroke="black" points="444,-76.5 444,-95.5 556,-95.5 556,-76.5 444,-76.5"/>
<text text-anchor="middle" x="500" y="-83.5" font-family="Helvetica,sans-Serif" font-size="10.00">pkgVersioningSystem</text>
</a>
</g>
</g>
<!-- Node17&#45;&gt;Node5 -->
<g id="edge18" class="edge"><title>Node17&#45;&gt;Node5</title>
<path fill="none" stroke="#9a32cd" stroke-dasharray="5,2" d="M566.152,-94.6829C589.725,-101.146 614.364,-112.403 630,-132 672.153,-184.83 612.238,-225.65 648,-283 651.125,-288.011 655.86,-292.103 660.812,-295.338"/>
<polygon fill="#9a32cd" stroke="#9a32cd" points="566.693,-91.2108 556.144,-92.1961 565.005,-98.0043 566.693,-91.2108"/>
<text text-anchor="middle" x="602" y="-135" font-family="Helvetica,sans-Serif" font-size="10.00"> VS</text>
</g>
<!-- Node17&#45;&gt;Node17 -->
<g id="edge19" class="edge"><title>Node17&#45;&gt;Node17</title>
<path fill="none" stroke="#9a32cd" stroke-dasharray="5,2" d="M481.853,-105.4C483.065,-110.315 489.114,-114 500,-114 517.418,-114 522.453,-104.565 515.105,-95.7571"/>
<polygon fill="#9a32cd" stroke="#9a32cd" points="485.224,-106.347 484.895,-95.7571 478.548,-104.24 485.224,-106.347"/>
<text text-anchor="middle" x="500" y="-117" font-family="Helvetica,sans-Serif" font-size="10.00"> GlobalList</text>
</g>
<!-- Node18 -->
<g id="node18" class="node"><title>Node18</title>
<g id="a_node18"><a xlink:href="structpkgCache_1_1Version.xhtml" target="_top" xlink:title="information for a single version of a package ">
<polygon fill="white" stroke="black" points="475,-38.5 475,-57.5 525,-57.5 525,-38.5 475,-38.5"/>
<text text-anchor="middle" x="500" y="-45.5" font-family="Helvetica,sans-Serif" font-size="10.00">Version</text>
</a>
</g>
</g>
<!-- Node18&#45;&gt;Node5 -->
<g id="edge20" class="edge"><title>Node18&#45;&gt;Node5</title>
<path fill="none" stroke="#9a32cd" stroke-dasharray="5,2" d="M535.396,-47.2094C565.22,-48.5473 607.093,-55.6821 630,-83 658.673,-117.193 624.938,-244.797 648,-283 651.052,-288.056 655.762,-292.163 660.713,-295.399"/>
<polygon fill="#9a32cd" stroke="#9a32cd" points="535.094,-43.7009 525.01,-46.9521 534.921,-50.6987 535.094,-43.7009"/>
<text text-anchor="middle" x="602" y="-86" font-family="Helvetica,sans-Serif" font-size="10.00"> VerP</text>
</g>
<!-- Node19 -->
<g id="node19" class="node"><title>Node19</title>
<g id="a_node19"><a xlink:href="structpkgCache_1_1VerFile.xhtml" target="_top" xlink:title="associates a version with a PackageFile ">
<polygon fill="white" stroke="black" points="476.5,-0.5 476.5,-19.5 523.5,-19.5 523.5,-0.5 476.5,-0.5"/>
<text text-anchor="middle" x="500" y="-7.5" font-family="Helvetica,sans-Serif" font-size="10.00">VerFile</text>
</a>
</g>
</g>
<!-- Node19&#45;&gt;Node5 -->
<g id="edge21" class="edge"><title>Node19&#45;&gt;Node5</title>
<path fill="none" stroke="#9a32cd" stroke-dasharray="5,2" d="M534.022,-7.12252C563.859,-6.52415 606.577,-11.0336 630,-38 665.799,-79.2144 620.171,-236.035 648,-283 651.011,-288.081 655.706,-292.196 660.657,-295.432"/>
<polygon fill="#9a32cd" stroke="#9a32cd" points="533.522,-3.63981 523.672,-7.54193 533.806,-10.6341 533.522,-3.63981"/>
<text text-anchor="middle" x="602" y="-41" font-family="Helvetica,sans-Serif" font-size="10.00"> VerFileP</text>
</g>
<!-- Node20 -->
<g id="node20" class="node"><title>Node20</title>
<g id="a_node20"><a xlink:href="structpkgCache_1_1Package.xhtml" target="_top" xlink:title="contains information for a single unique package ">
<polygon fill="white" stroke="black" points="472.5,-257.5 472.5,-276.5 527.5,-276.5 527.5,-257.5 472.5,-257.5"/>
<text text-anchor="middle" x="500" y="-264.5" font-family="Helvetica,sans-Serif" font-size="10.00">Package</text>
</a>
</g>
</g>
<!-- Node20&#45;&gt;Node5 -->
<g id="edge22" class="edge"><title>Node20&#45;&gt;Node5</title>
<path fill="none" stroke="#9a32cd" stroke-dasharray="5,2" d="M537.981,-272.542C563.885,-276.68 599.231,-282.84 630,-290 637.321,-291.704 645.145,-293.807 652.442,-295.895"/>
<polygon fill="#9a32cd" stroke="#9a32cd" points="538.271,-269.045 527.849,-270.949 537.184,-275.96 538.271,-269.045"/>
<text text-anchor="middle" x="602" y="-293" font-family="Helvetica,sans-Serif" font-size="10.00"> PkgP</text>
</g>
<!-- Node21 -->
<g id="node21" class="node"><title>Node21</title>
<g id="a_node21"><a xlink:href="classMMap.xhtml" target="_top" xlink:title="MMap">
<polygon fill="white" stroke="black" points="478,-181.5 478,-200.5 522,-200.5 522,-181.5 478,-181.5"/>
<text text-anchor="middle" x="500" y="-188.5" font-family="Helvetica,sans-Serif" font-size="10.00">MMap</text>
</a>
</g>
</g>
<!-- Node21&#45;&gt;Node5 -->
<g id="edge23" class="edge"><title>Node21&#45;&gt;Node5</title>
<path fill="none" stroke="#9a32cd" stroke-dasharray="5,2" d="M532.211,-184.813C561.133,-181.012 603.558,-180.639 630,-204 656.987,-227.843 627.363,-253.489 648,-283 651.465,-287.955 656.439,-292.064 661.517,-295.335"/>
<polygon fill="#9a32cd" stroke="#9a32cd" points="531.582,-181.368 522.221,-186.331 532.634,-188.289 531.582,-181.368"/>
<text text-anchor="middle" x="602" y="-207" font-family="Helvetica,sans-Serif" font-size="10.00"> Map</text>
</g>
<!-- Node22&#45;&gt;Node21 -->
<g id="edge24" class="edge"><title>Node22&#45;&gt;Node21</title>
<path fill="none" stroke="#9a32cd" stroke-dasharray="5,2" d="M368.403,-191C400.64,-191 449.92,-191 477.816,-191"/>
<polygon fill="#9a32cd" stroke="#9a32cd" points="368.179,-187.5 358.179,-191 368.179,-194.5 368.179,-187.5"/>
<text text-anchor="middle" x="401" y="-194" font-family="Helvetica,sans-Serif" font-size="10.00"> SyncToFd</text>
</g>
<!-- Node23 -->
<g id="node23" class="node"><title>Node23</title>
<g id="a_node23"><a xlink:href="structpkgDepCache_1_1StateCache.xhtml" target="_top" xlink:title="StateCache">
<polygon fill="white" stroke="black" points="649,-216.5 649,-235.5 717,-235.5 717,-216.5 649,-216.5"/>
<text text-anchor="middle" x="683" y="-223.5" font-family="Helvetica,sans-Serif" font-size="10.00">StateCache</text>
</a>
</g>
</g>
<!-- Node23&#45;&gt;Node3 -->
<g id="edge26" class="edge"><title>Node23&#45;&gt;Node3</title>
<path fill="none" stroke="#9a32cd" stroke-dasharray="5,2" d="M727.233,-230.874C749.95,-234.775 777.639,-241.72 800,-254 820.973,-265.518 839.769,-286.787 849.657,-299.231"/>
<polygon fill="#9a32cd" stroke="#9a32cd" points="727.605,-227.39 717.182,-229.288 726.514,-234.304 727.605,-227.39"/>
<text text-anchor="middle" x="768" y="-257" font-family="Helvetica,sans-Serif" font-size="10.00"> PkgState</text>
</g>
</g>
</svg>
        <g id="navigator" transform="translate(0 0)" fill="#404254">
                <rect fill="#f2f5e9" fill-opacity="0.5" stroke="#606060" stroke-width=".5" x="0" y="0" width="60" height="60"/>
                <use id="zoomplus" xlink:href="#zoomPlus" x="17" y="9" onmousedown="handleZoom(evt,'in')"/>
                <use id="zoomminus" xlink:href="#zoomMin" x="42" y="9" onmousedown="handleZoom(evt,'out')"/>
                <use id="reset" xlink:href="#resetDef" x="30" y="36" onmousedown="handleReset()"/>
                <g id="arrowUp" xlink:href="#dirArrow" transform="translate(30 24)" onmousedown="handlePan(0,-1)">
                  <use xlink:href="#rim" fill="#404040">
                        <set attributeName="fill" to="#808080" begin="arrowUp.mouseover" end="arrowUp.mouseout"/>
                  </use>
                  <path fill="none" stroke="white" stroke-width="1.5" d="M0,-3.0v7 M-2.5,-0.5L0,-3.0L2.5,-0.5"/>
                </g>
                <g id="arrowRight" xlink:href="#dirArrow" transform="rotate(90) translate(36 -43)" onmousedown="handlePan(1,0)">
                  <use xlink:href="#rim" fill="#404040">
                        <set attributeName="fill" to="#808080" begin="arrowRight.mouseover" end="arrowRight.mouseout"/>
                  </use>
                  <path fill="none" stroke="white" stroke-width="1.5" d="M0,-3.0v7 M-2.5,-0.5L0,-3.0L2.5,-0.5"/>
                </g>
                <g id="arrowDown" xlink:href="#dirArrow" transform="rotate(180) translate(-30 -48)" onmousedown="handlePan(0,1)">
                  <use xlink:href="#rim" fill="#404040">
                        <set attributeName="fill" to="#808080" begin="arrowDown.mouseover" end="arrowDown.mouseout"/>
                  </use>
                  <path fill="none" stroke="white" stroke-width="1.5" d="M0,-3.0v7 M-2.5,-0.5L0,-3.0L2.5,-0.5"/>
                </g>
                <g id="arrowLeft" xlink:href="#dirArrow" transform="rotate(270) translate(-36 17)" onmousedown="handlePan(-1,0)">
                  <use xlink:href="#rim" fill="#404040">
                        <set attributeName="fill" to="#808080" begin="arrowLeft.mouseover" end="arrowLeft.mouseout"/>
                  </use>
                  <path fill="none" stroke="white" stroke-width="1.5" d="M0,-3.0v7 M-2.5,-0.5L0,-3.0L2.5,-0.5"/>
                </g>
        </g>
        <svg viewBox="0 0 15 15" width="100%" height="30px" preserveAspectRatio="xMaxYMin meet">
         <g id="arrow_out" transform="scale(0.3 0.3)">
          <a xlink:href="classpkgOrderList__coll__graph_org.svg" target="_base">
           <rect id="button" ry="5" rx="5" y="6" x="6" height="38" width="38"
                fill="#f2f5e9" fill-opacity="0.5" stroke="#606060" stroke-width="1.0"/>
           <path id="arrow"
             d="M 11.500037,31.436501 C 11.940474,20.09759 22.043105,11.32322 32.158766,21.979434 L 37.068811,17.246167 C 37.068811,17.246167 37.088388,32 37.088388,32 L 22.160133,31.978069 C 22.160133,31.978069 26.997745,27.140456 26.997745,27.140456 C 18.528582,18.264221 13.291696,25.230495 11.500037,31.436501 z"
             style="fill:#404040;"/>
          </a>
         </g>
        </svg>
</svg>
