<?xml version="1.0" encoding="UTF-8" standalone="no"?>
<!DOCTYPE svg PUBLIC "-//W3C//DTD SVG 1.1//EN"
 "http://www.w3.org/Graphics/SVG/1.1/DTD/svg11.dtd">
<!-- Generated by graphviz version 2.36.0 (20140111.2315)
 -->
<!-- Title: pkgAcqMethod Pages: 1 -->
<svg width="299pt" height="256pt"
 viewBox="0.00 0.00 299.09 256.00" xmlns="http://www.w3.org/2000/svg" xmlns:xlink="http://www.w3.org/1999/xlink">
<g id="graph0" class="graph" transform="scale(1 1) rotate(0) translate(4 252)">
<title>pkgAcqMethod</title>
<polygon fill="white" stroke="none" points="-4,4 -4,-252 295.086,-252 295.086,4 -4,4"/>
<!-- Node1 -->
<g id="node1" class="node"><title>Node1</title>
<polygon fill="#bfbfbf" stroke="black" points="54.0865,-0.5 54.0865,-19.5 136.086,-19.5 136.086,-0.5 54.0865,-0.5"/>
<text text-anchor="middle" x="95.0865" y="-7.5" font-family="Helvetica,sans-Serif" font-size="10.00">pkgAcqMethod</text>
</g>
<!-- Node2 -->
<g id="node2" class="node"><title>Node2</title>
<g id="a_node2"><a xlink:href="structpkgAcqMethod_1_1FetchItem.xhtml" target="_top" xlink:title="FetchItem">
<polygon fill="white" stroke="black" points="64.5865,-85.5 64.5865,-104.5 125.586,-104.5 125.586,-85.5 64.5865,-85.5"/>
<text text-anchor="middle" x="95.0865" y="-92.5" font-family="Helvetica,sans-Serif" font-size="10.00">FetchItem</text>
</a>
</g>
</g>
<!-- Node2&#45;&gt;Node1 -->
<g id="edge1" class="edge"><title>Node2&#45;&gt;Node1</title>
<path fill="none" stroke="#9a32cd" stroke-dasharray="5,2" d="M95.0865,-75.3206C95.0865,-57.9169 95.0865,-32.7424 95.0865,-19.6476"/>
<polygon fill="#9a32cd" stroke="#9a32cd" points="91.5866,-75.4301 95.0865,-85.4302 98.5866,-75.4302 91.5866,-75.4301"/>
<text text-anchor="middle" x="122.586" y="-52" font-family="Helvetica,sans-Serif" font-size="10.00"> QueueBack</text>
<text text-anchor="middle" x="122.586" y="-41" font-family="Helvetica,sans-Serif" font-size="10.00">Queue</text>
</g>
<!-- Node2&#45;&gt;Node2 -->
<g id="edge2" class="edge"><title>Node2&#45;&gt;Node2</title>
<path fill="none" stroke="#9a32cd" stroke-dasharray="5,2" d="M135.957,-102.177C140.299,-100.787 143.086,-98.3944 143.086,-95 143.086,-89.4297 135.579,-86.5575 126.018,-86.3834"/>
<polygon fill="#9a32cd" stroke="#9a32cd" points="135.413,-98.7196 126.018,-103.617 136.416,-105.647 135.413,-98.7196"/>
<text text-anchor="middle" x="155.586" y="-92.5" font-family="Helvetica,sans-Serif" font-size="10.00"> Next</text>
</g>
<!-- Node3 -->
<g id="node3" class="node"><title>Node3</title>
<g id="a_node3"><a xlink:title="STL class. ">
<polygon fill="white" stroke="#bfbfbf" points="74.5865,-170.5 74.5865,-189.5 115.586,-189.5 115.586,-170.5 74.5865,-170.5"/>
<text text-anchor="middle" x="95.0865" y="-177.5" font-family="Helvetica,sans-Serif" font-size="10.00">string</text>
</a>
</g>
</g>
<!-- Node3&#45;&gt;Node1 -->
<g id="edge5" class="edge"><title>Node3&#45;&gt;Node1</title>
<path fill="none" stroke="#9a32cd" stroke-dasharray="5,2" d="M65.3059,-165.932C44.2376,-154.903 17.5957,-136.907 5.08648,-112 -1.69549,-98.4963 -1.69549,-91.5037 5.08648,-78 19.4241,-49.4521 52.3277,-29.9844 74.1254,-19.6789"/>
<polygon fill="#9a32cd" stroke="#9a32cd" points="64.0097,-169.196 74.5229,-170.509 67.123,-162.926 64.0097,-169.196"/>
<text text-anchor="middle" x="30.0865" y="-103.5" font-family="Helvetica,sans-Serif" font-size="10.00"> IP</text>
<text text-anchor="middle" x="30.0865" y="-92.5" font-family="Helvetica,sans-Serif" font-size="10.00">UsedMirror</text>
<text text-anchor="middle" x="30.0865" y="-81.5" font-family="Helvetica,sans-Serif" font-size="10.00">FailReason</text>
</g>
<!-- Node3&#45;&gt;Node2 -->
<g id="edge3" class="edge"><title>Node3&#45;&gt;Node2</title>
<path fill="none" stroke="#9a32cd" stroke-dasharray="5,2" d="M95.0865,-160.321C95.0865,-142.917 95.0865,-117.742 95.0865,-104.648"/>
<polygon fill="#9a32cd" stroke="#9a32cd" points="91.5866,-160.43 95.0865,-170.43 98.5866,-160.43 91.5866,-160.43"/>
<text text-anchor="middle" x="115.086" y="-144" font-family="Helvetica,sans-Serif" font-size="10.00"> DestFile</text>
<text text-anchor="middle" x="115.086" y="-133" font-family="Helvetica,sans-Serif" font-size="10.00">Uri</text>
</g>
<!-- Node5 -->
<g id="node5" class="node"><title>Node5</title>
<polygon fill="white" stroke="#bfbfbf" points="186.586,-85.5 186.586,-104.5 291.586,-104.5 291.586,-85.5 186.586,-85.5"/>
<text text-anchor="middle" x="239.086" y="-92.5" font-family="Helvetica,sans-Serif" font-size="10.00">vector&lt; std::string &gt;</text>
</g>
<!-- Node3&#45;&gt;Node5 -->
<g id="edge7" class="edge"><title>Node3&#45;&gt;Node5</title>
<path fill="none" stroke="#9a32cd" stroke-dasharray="5,2" d="M118.875,-165.289C148.744,-148.073 199.093,-119.052 224.083,-104.648"/>
<polygon fill="#9a32cd" stroke="#9a32cd" points="116.871,-162.404 109.955,-170.43 120.366,-168.469 116.871,-162.404"/>
<text text-anchor="middle" x="201.586" y="-138.5" font-family="Helvetica,sans-Serif" font-size="10.00"> elements</text>
</g>
<!-- Node4 -->
<g id="node4" class="node"><title>Node4</title>
<g id="a_node4"><a xlink:title="STL class. ">
<polygon fill="white" stroke="#bfbfbf" points="42.0865,-228.5 42.0865,-247.5 148.086,-247.5 148.086,-228.5 42.0865,-228.5"/>
<text text-anchor="middle" x="95.0865" y="-235.5" font-family="Helvetica,sans-Serif" font-size="10.00">basic_string&lt; char &gt;</text>
</a>
</g>
</g>
<!-- Node4&#45;&gt;Node3 -->
<g id="edge4" class="edge"><title>Node4&#45;&gt;Node3</title>
<path fill="none" stroke="midnightblue" d="M95.0865,-217.953C95.0865,-208.287 95.0865,-197.031 95.0865,-189.505"/>
<polygon fill="midnightblue" stroke="midnightblue" points="91.5866,-218.25 95.0865,-228.25 98.5866,-218.25 91.5866,-218.25"/>
</g>
<!-- Node5&#45;&gt;Node1 -->
<g id="edge6" class="edge"><title>Node5&#45;&gt;Node1</title>
<path fill="none" stroke="#9a32cd" stroke-dasharray="5,2" d="M218.853,-79.396C201.967,-67.5231 177.042,-50.7162 154.086,-38 141.769,-31.1769 127.414,-24.5797 115.947,-19.6145"/>
<polygon fill="#9a32cd" stroke="#9a32cd" points="217.164,-82.4891 227.343,-85.4271 221.217,-76.7824 217.164,-82.4891"/>
<text text-anchor="middle" x="214.586" y="-46.5" font-family="Helvetica,sans-Serif" font-size="10.00"> Messages</text>
</g>
</g>
</svg>
