<?xml version="1.0" encoding="UTF-8" standalone="no"?>
<!DOCTYPE svg PUBLIC "-//W3C//DTD SVG 1.1//EN"
 "http://www.w3.org/Graphics/SVG/1.1/DTD/svg11.dtd">
<!-- Generated by graphviz version 2.36.0 (20140111.2315)
 -->
<!-- Title: pkgAcqMetaIndex Pages: 1 -->
<svg width="1090pt" height="628pt"
 viewBox="0.00 0.00 1090.19 628.00" xmlns="http://www.w3.org/2000/svg" xmlns:xlink="http://www.w3.org/1999/xlink">
<g id="graph0" class="graph" transform="scale(1 1) rotate(0) translate(4 624)">
<title>pkgAcqMetaIndex</title>
<polygon fill="white" stroke="none" points="-4,4 -4,-624 1086.19,-624 1086.19,4 -4,4"/>
<!-- Node1 -->
<g id="node1" class="node"><title>Node1</title>
<polygon fill="#bfbfbf" stroke="black" points="718.685,-69.5 718.685,-88.5 813.685,-88.5 813.685,-69.5 718.685,-69.5"/>
<text text-anchor="middle" x="766.185" y="-76.5" font-family="Helvetica,sans-Serif" font-size="10.00">pkgAcqMetaIndex</text>
</g>
<!-- Node2 -->
<g id="node2" class="node"><title>Node2</title>
<g id="a_node2"><a xlink:href="classpkgAcquire_1_1Item.xhtml" target="_top" xlink:title="Represents the process by which a pkgAcquire object should {{{ retrieve a file or a collection of fil...">
<polygon fill="white" stroke="black" points="190.185,-435.5 190.185,-454.5 226.185,-454.5 226.185,-435.5 190.185,-435.5"/>
<text text-anchor="middle" x="208.185" y="-442.5" font-family="Helvetica,sans-Serif" font-size="10.00">Item</text>
</a>
</g>
</g>
<!-- Node2&#45;&gt;Node1 -->
<g id="edge1" class="edge"><title>Node2&#45;&gt;Node1</title>
<path fill="none" stroke="midnightblue" d="M236.115,-436.372C279.766,-424.719 366.957,-402.522 442.185,-390 480.531,-383.617 584.807,-394.946 616.185,-372 661.974,-338.516 688.478,-186.324 718.185,-138 729.822,-119.071 747.171,-99.7053 757.514,-88.8302"/>
<polygon fill="midnightblue" stroke="midnightblue" points="234.985,-433.051 226.237,-439.028 236.803,-439.811 234.985,-433.051"/>
</g>
<!-- Node7 -->
<g id="node7" class="node"><title>Node7</title>
<g id="a_node7"><a xlink:href="structpkgAcquire_1_1ItemDesc.xhtml" target="_top" xlink:title="Represents a single download source from which an item should be downloaded. ">
<polygon fill="white" stroke="black" points="250.685,-340.5 250.685,-359.5 309.685,-359.5 309.685,-340.5 250.685,-340.5"/>
<text text-anchor="middle" x="280.185" y="-347.5" font-family="Helvetica,sans-Serif" font-size="10.00">ItemDesc</text>
</a>
</g>
</g>
<!-- Node2&#45;&gt;Node7 -->
<g id="edge11" class="edge"><title>Node2&#45;&gt;Node7</title>
<path fill="none" stroke="#9a32cd" stroke-dasharray="5,2" d="M217.218,-426.146C223.101,-415.243 231.313,-401.279 240.185,-390 249.18,-378.565 261.367,-367.141 269.917,-359.641"/>
<polygon fill="#9a32cd" stroke="#9a32cd" points="214.051,-424.649 212.517,-435.132 220.254,-427.893 214.051,-424.649"/>
<text text-anchor="middle" x="256.185" y="-397.5" font-family="Helvetica,sans-Serif" font-size="10.00"> Owner</text>
</g>
<!-- Node14 -->
<g id="node14" class="node"><title>Node14</title>
<polygon fill="white" stroke="#bfbfbf" points="46.6855,-177 46.6855,-207 147.685,-207 147.685,-177 46.6855,-177"/>
<text text-anchor="start" x="54.6855" y="-195" font-family="Helvetica,sans-Serif" font-size="10.00">vector&lt; pkgAcquire</text>
<text text-anchor="middle" x="97.1855" y="-184" font-family="Helvetica,sans-Serif" font-size="10.00">::Item * &gt;</text>
</g>
<!-- Node2&#45;&gt;Node14 -->
<g id="edge30" class="edge"><title>Node2&#45;&gt;Node14</title>
<path fill="none" stroke="#9a32cd" stroke-dasharray="5,2" d="M200.237,-426.027C179.2,-378.456 122.383,-249.978 103.433,-207.127"/>
<polygon fill="#9a32cd" stroke="#9a32cd" points="197.119,-427.63 204.365,-435.36 203.521,-424.799 197.119,-427.63"/>
<text text-anchor="middle" x="198.685" y="-347.5" font-family="Helvetica,sans-Serif" font-size="10.00"> elements</text>
</g>
<!-- Node3 -->
<g id="node3" class="node"><title>Node3</title>
<g id="a_node3"><a xlink:href="classWeakPointable.xhtml" target="_top" xlink:title="WeakPointable">
<polygon fill="white" stroke="black" points="108.685,-542.5 108.685,-561.5 191.685,-561.5 191.685,-542.5 108.685,-542.5"/>
<text text-anchor="middle" x="150.185" y="-549.5" font-family="Helvetica,sans-Serif" font-size="10.00">WeakPointable</text>
</a>
</g>
</g>
<!-- Node3&#45;&gt;Node2 -->
<g id="edge2" class="edge"><title>Node3&#45;&gt;Node2</title>
<path fill="none" stroke="midnightblue" d="M159.856,-533.494C172.412,-510.763 193.845,-471.962 203.374,-454.711"/>
<polygon fill="midnightblue" stroke="midnightblue" points="156.703,-531.962 154.932,-542.407 162.831,-535.346 156.703,-531.962"/>
</g>
<!-- Node3&#45;&gt;Node7 -->
<g id="edge8" class="edge"><title>Node3&#45;&gt;Node7</title>
<path fill="none" stroke="midnightblue" d="M151.192,-532.014C153.343,-506.477 160.081,-460.519 181.185,-428 201.929,-396.036 240.575,-371.791 262.954,-359.648"/>
<polygon fill="midnightblue" stroke="midnightblue" points="147.687,-531.972 150.492,-542.189 154.671,-532.453 147.687,-531.972"/>
</g>
<!-- Node10 -->
<g id="node10" class="node"><title>Node10</title>
<g id="a_node10"><a xlink:href="classpkgAcquire_1_1Worker.xhtml" target="_top" xlink:title="A fetch subprocess. ">
<polygon fill="white" stroke="black" points="225.185,-69.5 225.185,-88.5 273.185,-88.5 273.185,-69.5 225.185,-69.5"/>
<text text-anchor="middle" x="249.185" y="-76.5" font-family="Helvetica,sans-Serif" font-size="10.00">Worker</text>
</a>
</g>
</g>
<!-- Node3&#45;&gt;Node10 -->
<g id="edge14" class="edge"><title>Node3&#45;&gt;Node10</title>
<path fill="none" stroke="midnightblue" d="M148.625,-532.382C148.443,-529.575 148.286,-526.713 148.185,-524 147.463,-504.458 147.8,-499.552 148.185,-480 151.521,-310.92 149.495,-257.69 228.185,-108 231.805,-101.116 237.055,-94.1155 241.4,-88.8366"/>
<polygon fill="midnightblue" stroke="midnightblue" points="145.146,-532.791 149.394,-542.497 152.126,-532.26 145.146,-532.791"/>
</g>
<!-- Node4 -->
<g id="node4" class="node"><title>Node4</title>
<g id="a_node4"><a xlink:href="classpkgAcquire.xhtml" target="_top" xlink:title="The core download scheduler. {{{. ">
<polygon fill="white" stroke="black" points="216.685,-0.5 216.685,-19.5 281.685,-19.5 281.685,-0.5 216.685,-0.5"/>
<text text-anchor="middle" x="249.185" y="-7.5" font-family="Helvetica,sans-Serif" font-size="10.00">pkgAcquire</text>
</a>
</g>
</g>
<!-- Node4&#45;&gt;Node2 -->
<g id="edge3" class="edge"><title>Node4&#45;&gt;Node2</title>
<path fill="none" stroke="#9a32cd" stroke-dasharray="5,2" d="M206.304,-19.017C185.169,-23.5505 159.494,-29.9373 137.185,-38 57.3651,-66.8488 29.519,-94.6893 5.18549,-176 -31.0445,-297.063 139.194,-405.037 192.59,-435.474"/>
<polygon fill="#9a32cd" stroke="#9a32cd" points="207.203,-22.405 216.28,-16.9412 205.777,-15.5518 207.203,-22.405"/>
<text text-anchor="middle" x="21.1855" y="-189.5" font-family="Helvetica,sans-Serif" font-size="10.00"> Owner</text>
</g>
<!-- Node5 -->
<g id="node5" class="node"><title>Node5</title>
<g id="a_node5"><a xlink:href="classpkgAcquire_1_1Queue.xhtml" target="_top" xlink:title="A single download queue in a pkgAcquire object. {{{. ">
<polygon fill="white" stroke="black" points="401.685,-138.5 401.685,-157.5 446.685,-157.5 446.685,-138.5 401.685,-138.5"/>
<text text-anchor="middle" x="424.185" y="-145.5" font-family="Helvetica,sans-Serif" font-size="10.00">Queue</text>
</a>
</g>
</g>
<!-- Node4&#45;&gt;Node5 -->
<g id="edge5" class="edge"><title>Node4&#45;&gt;Node5</title>
<path fill="none" stroke="#9a32cd" stroke-dasharray="5,2" d="M291.882,-10.5534C335.592,-12.6919 401.475,-23.6875 433.185,-68 448.529,-89.4412 435.967,-122.864 428.599,-138.454"/>
<polygon fill="#9a32cd" stroke="#9a32cd" points="291.944,-7.0535 281.826,-10.1973 291.696,-14.0491 291.944,-7.0535"/>
<text text-anchor="middle" x="457.185" y="-76.5" font-family="Helvetica,sans-Serif" font-size="10.00"> Owner</text>
</g>
<!-- Node5&#45;&gt;Node4 -->
<g id="edge4" class="edge"><title>Node5&#45;&gt;Node4</title>
<path fill="none" stroke="#9a32cd" stroke-dasharray="5,2" d="M420.525,-128.333C418.55,-121.481 415.582,-113.953 411.185,-108 376.617,-61.1952 312.104,-32.663 275.79,-19.5657"/>
<polygon fill="#9a32cd" stroke="#9a32cd" points="417.157,-129.298 422.874,-138.218 423.967,-127.679 417.157,-129.298"/>
<text text-anchor="middle" x="413.685" y="-76.5" font-family="Helvetica,sans-Serif" font-size="10.00"> Queues</text>
</g>
<!-- Node5&#45;&gt;Node10 -->
<g id="edge15" class="edge"><title>Node5&#45;&gt;Node10</title>
<path fill="none" stroke="#9a32cd" stroke-dasharray="5,2" d="M397.863,-133.654C389.342,-129.317 379.855,-124.47 371.185,-120 360.937,-114.716 358.9,-112.258 348.185,-108 323.287,-98.1054 293.577,-90.193 273.243,-85.337"/>
<polygon fill="#9a32cd" stroke="#9a32cd" points="396.478,-136.876 406.978,-138.287 399.65,-130.636 396.478,-136.876"/>
<text text-anchor="middle" x="391.185" y="-111.5" font-family="Helvetica,sans-Serif" font-size="10.00"> OwnerQ</text>
</g>
<!-- Node6 -->
<g id="node6" class="node"><title>Node6</title>
<g id="a_node6"><a xlink:href="structpkgAcquire_1_1Queue_1_1QItem.xhtml" target="_top" xlink:title="A single item placed in this queue. ">
<polygon fill="white" stroke="black" points="258.185,-232.5 258.185,-251.5 302.185,-251.5 302.185,-232.5 258.185,-232.5"/>
<text text-anchor="middle" x="280.185" y="-239.5" font-family="Helvetica,sans-Serif" font-size="10.00">QItem</text>
</a>
</g>
</g>
<!-- Node6&#45;&gt;Node5 -->
<g id="edge6" class="edge"><title>Node6&#45;&gt;Node5</title>
<path fill="none" stroke="#9a32cd" stroke-dasharray="5,2" d="M302.303,-226.869C332.48,-207.59 385.645,-173.623 410.569,-157.699"/>
<polygon fill="#9a32cd" stroke="#9a32cd" points="300.275,-224.011 293.733,-232.345 304.044,-229.91 300.275,-224.011"/>
<text text-anchor="middle" x="396.185" y="-189.5" font-family="Helvetica,sans-Serif" font-size="10.00"> Items</text>
</g>
<!-- Node6&#45;&gt;Node6 -->
<g id="edge12" class="edge"><title>Node6&#45;&gt;Node6</title>
<path fill="none" stroke="#9a32cd" stroke-dasharray="5,2" d="M312.297,-250.223C316.444,-248.8 319.185,-246.059 319.185,-242 319.185,-235.164 311.41,-232.067 302.237,-232.707"/>
<polygon fill="#9a32cd" stroke="#9a32cd" points="311.81,-246.755 302.237,-251.293 312.551,-253.715 311.81,-246.755"/>
<text text-anchor="middle" x="331.685" y="-239.5" font-family="Helvetica,sans-Serif" font-size="10.00"> Next</text>
</g>
<!-- Node6&#45;&gt;Node10 -->
<g id="edge19" class="edge"><title>Node6&#45;&gt;Node10</title>
<path fill="none" stroke="#9a32cd" stroke-dasharray="5,2" d="M279.141,-222.348C277.717,-201.571 274.574,-167.079 268.185,-138 266.094,-128.479 257.193,-102.681 252.352,-88.9236"/>
<polygon fill="#9a32cd" stroke="#9a32cd" points="275.649,-222.595 279.765,-232.358 282.636,-222.159 275.649,-222.595"/>
<text text-anchor="middle" x="299.685" y="-145.5" font-family="Helvetica,sans-Serif" font-size="10.00"> CurrentItem</text>
</g>
<!-- Node7&#45;&gt;Node1 -->
<g id="edge45" class="edge"><title>Node7&#45;&gt;Node1</title>
<path fill="none" stroke="#9a32cd" stroke-dasharray="5,2" d="M319.841,-339.796C349.219,-332.626 390.074,-321.912 425.185,-310 482.555,-290.537 502.411,-293.932 551.185,-258 568.652,-245.132 658.127,-120.023 676.185,-108 689.67,-99.022 706.185,-92.8005 721.37,-88.5462"/>
<polygon fill="#9a32cd" stroke="#9a32cd" points="318.857,-336.433 309.957,-342.181 320.499,-343.238 318.857,-336.433"/>
<text text-anchor="middle" x="632.685" y="-189.5" font-family="Helvetica,sans-Serif" font-size="10.00"> Desc</text>
</g>
<!-- Node7&#45;&gt;Node6 -->
<g id="edge7" class="edge"><title>Node7&#45;&gt;Node6</title>
<path fill="none" stroke="midnightblue" d="M280.185,-330.077C280.185,-306.981 280.185,-268.897 280.185,-251.794"/>
<polygon fill="midnightblue" stroke="midnightblue" points="276.686,-330.326 280.185,-340.326 283.686,-330.326 276.686,-330.326"/>
</g>
<!-- Node8 -->
<g id="node8" class="node"><title>Node8</title>
<g id="a_node8"><a xlink:title="STL class. ">
<polygon fill="white" stroke="#bfbfbf" points="604.685,-542.5 604.685,-561.5 645.685,-561.5 645.685,-542.5 604.685,-542.5"/>
<text text-anchor="middle" x="625.185" y="-549.5" font-family="Helvetica,sans-Serif" font-size="10.00">string</text>
</a>
</g>
</g>
<!-- Node8&#45;&gt;Node1 -->
<g id="edge41" class="edge"><title>Node8&#45;&gt;Node1</title>
<path fill="none" stroke="#9a32cd" stroke-dasharray="5,2" d="M655.816,-550.314C738.649,-548.24 962.781,-541.095 991.185,-524 1026.26,-502.889 1040.19,-486.94 1040.19,-446 1040.19,-446 1040.19,-446 1040.19,-147 1040.19,-100.967 892.415,-86.4116 813.913,-81.9268"/>
<polygon fill="#9a32cd" stroke="#9a32cd" points="655.678,-546.816 645.766,-550.558 655.848,-553.814 655.678,-546.816"/>
<text text-anchor="middle" x="1061.19" y="-296" font-family="Helvetica,sans-Serif" font-size="10.00"> RealURI</text>
<text text-anchor="middle" x="1061.19" y="-285" font-family="Helvetica,sans-Serif" font-size="10.00">SigFile</text>
</g>
<!-- Node8&#45;&gt;Node2 -->
<g id="edge32" class="edge"><title>Node8&#45;&gt;Node2</title>
<path fill="none" stroke="#9a32cd" stroke-dasharray="5,2" d="M594.452,-551.055C505.237,-550.926 250.788,-548.403 223.185,-524 203.349,-506.464 204.83,-471.357 206.81,-454.899"/>
<polygon fill="#9a32cd" stroke="#9a32cd" points="594.485,-554.555 604.487,-551.06 594.489,-547.555 594.485,-554.555"/>
<text text-anchor="middle" x="247.685" y="-510.5" font-family="Helvetica,sans-Serif" font-size="10.00"> DestFile</text>
<text text-anchor="middle" x="247.685" y="-499.5" font-family="Helvetica,sans-Serif" font-size="10.00">ErrorText</text>
<text text-anchor="middle" x="247.685" y="-488.5" font-family="Helvetica,sans-Serif" font-size="10.00">UsedMirror</text>
</g>
<!-- Node8&#45;&gt;Node5 -->
<g id="edge25" class="edge"><title>Node8&#45;&gt;Node5</title>
<path fill="none" stroke="#9a32cd" stroke-dasharray="5,2" d="M597.205,-537.968C556.516,-517.313 482.366,-472.857 450.185,-410 426.84,-364.4 424.447,-197.34 424.21,-157.549"/>
<polygon fill="#9a32cd" stroke="#9a32cd" points="595.793,-541.174 606.308,-542.473 598.898,-534.9 595.793,-541.174"/>
<text text-anchor="middle" x="454.185" y="-347.5" font-family="Helvetica,sans-Serif" font-size="10.00"> Name</text>
</g>
<!-- Node8&#45;&gt;Node7 -->
<g id="edge9" class="edge"><title>Node8&#45;&gt;Node7</title>
<path fill="none" stroke="#9a32cd" stroke-dasharray="5,2" d="M594.163,-550.712C533.007,-549.683 399.336,-545.022 359.185,-524 295.71,-490.766 283.082,-389.57 280.708,-359.508"/>
<polygon fill="#9a32cd" stroke="#9a32cd" points="594.308,-554.214 604.358,-550.86 594.41,-547.215 594.308,-554.214"/>
<text text-anchor="middle" x="332.685" y="-453.5" font-family="Helvetica,sans-Serif" font-size="10.00"> Description</text>
<text text-anchor="middle" x="332.685" y="-442.5" font-family="Helvetica,sans-Serif" font-size="10.00">URI</text>
<text text-anchor="middle" x="332.685" y="-431.5" font-family="Helvetica,sans-Serif" font-size="10.00">ShortDesc</text>
</g>
<!-- Node8&#45;&gt;Node10 -->
<g id="edge20" class="edge"><title>Node8&#45;&gt;Node10</title>
<path fill="none" stroke="#9a32cd" stroke-dasharray="5,2" d="M594.157,-551.732C526.799,-551.545 373.185,-540.731 373.185,-446 373.185,-446 373.185,-446 373.185,-191 373.185,-160.945 355.138,-156.154 331.185,-138 314.674,-125.486 305.317,-131.651 288.185,-120 275.193,-111.164 263.027,-97.4929 255.844,-88.6446"/>
<polygon fill="#9a32cd" stroke="#9a32cd" points="594.582,-555.23 604.563,-551.678 594.545,-548.23 594.582,-555.23"/>
<text text-anchor="middle" x="397.185" y="-301.5" font-family="Helvetica,sans-Serif" font-size="10.00"> OutQueue</text>
<text text-anchor="middle" x="397.185" y="-290.5" font-family="Helvetica,sans-Serif" font-size="10.00">Access</text>
<text text-anchor="middle" x="397.185" y="-279.5" font-family="Helvetica,sans-Serif" font-size="10.00">Status</text>
</g>
<!-- Node11 -->
<g id="node11" class="node"><title>Node11</title>
<g id="a_node11"><a xlink:href="structpkgAcquire_1_1MethodConfig.xhtml" target="_top" xlink:title="Information about the properties of a single acquire method. {{{. ">
<polygon fill="white" stroke="black" points="503.685,-138.5 503.685,-157.5 580.685,-157.5 580.685,-138.5 503.685,-138.5"/>
<text text-anchor="middle" x="542.185" y="-145.5" font-family="Helvetica,sans-Serif" font-size="10.00">MethodConfig</text>
</a>
</g>
</g>
<!-- Node8&#45;&gt;Node11 -->
<g id="edge18" class="edge"><title>Node8&#45;&gt;Node11</title>
<path fill="none" stroke="#9a32cd" stroke-dasharray="5,2" d="M611.585,-534.415C596.779,-514.636 575.185,-479.967 575.185,-446 575.185,-446 575.185,-446 575.185,-241 575.185,-208.59 556.816,-173.329 547.488,-157.513"/>
<polygon fill="#9a32cd" stroke="#9a32cd" points="608.9,-536.664 617.808,-542.399 614.421,-532.361 608.9,-536.664"/>
<text text-anchor="middle" x="593.685" y="-353" font-family="Helvetica,sans-Serif" font-size="10.00"> Access</text>
<text text-anchor="middle" x="593.685" y="-342" font-family="Helvetica,sans-Serif" font-size="10.00">Version</text>
</g>
<!-- Node13 -->
<g id="node13" class="node"><title>Node13</title>
<polygon fill="white" stroke="#bfbfbf" points="451.685,-390.5 451.685,-409.5 556.685,-409.5 556.685,-390.5 451.685,-390.5"/>
<text text-anchor="middle" x="504.185" y="-397.5" font-family="Helvetica,sans-Serif" font-size="10.00">vector&lt; std::string &gt;</text>
</g>
<!-- Node8&#45;&gt;Node13 -->
<g id="edge23" class="edge"><title>Node8&#45;&gt;Node13</title>
<path fill="none" stroke="#9a32cd" stroke-dasharray="5,2" d="M594.443,-547.155C566.492,-542.993 528.138,-535.382 518.185,-524 489.184,-490.832 497.653,-431.911 502.178,-409.751"/>
<polygon fill="#9a32cd" stroke="#9a32cd" points="594.174,-550.652 604.565,-548.583 595.151,-543.721 594.174,-550.652"/>
<text text-anchor="middle" x="539.685" y="-499.5" font-family="Helvetica,sans-Serif" font-size="10.00"> elements</text>
</g>
<!-- Node15 -->
<g id="node15" class="node"><title>Node15</title>
<g id="a_node15"><a xlink:href="classindexRecords.xhtml" target="_top" xlink:title="indexRecords">
<polygon fill="white" stroke="black" points="727.685,-138.5 727.685,-157.5 804.685,-157.5 804.685,-138.5 727.685,-138.5"/>
<text text-anchor="middle" x="766.185" y="-145.5" font-family="Helvetica,sans-Serif" font-size="10.00">indexRecords</text>
</a>
</g>
</g>
<!-- Node8&#45;&gt;Node15 -->
<g id="edge40" class="edge"><title>Node8&#45;&gt;Node15</title>
<path fill="none" stroke="#9a32cd" stroke-dasharray="5,2" d="M627.374,-532.041C633.863,-480.579 655.902,-334.843 708.185,-226 721.374,-198.544 745.125,-171.208 757.754,-157.7"/>
<polygon fill="#9a32cd" stroke="#9a32cd" points="623.861,-531.94 626.134,-542.288 630.81,-532.781 623.861,-531.94"/>
<text text-anchor="middle" x="699.185" y="-364" font-family="Helvetica,sans-Serif" font-size="10.00"> Dist</text>
<text text-anchor="middle" x="699.185" y="-353" font-family="Helvetica,sans-Serif" font-size="10.00">Suite</text>
<text text-anchor="middle" x="699.185" y="-342" font-family="Helvetica,sans-Serif" font-size="10.00">ErrorText</text>
<text text-anchor="middle" x="699.185" y="-331" font-family="Helvetica,sans-Serif" font-size="10.00">ExpectedDist</text>
</g>
<!-- Node16 -->
<g id="node16" class="node"><title>Node16</title>
<polygon fill="white" stroke="#bfbfbf" points="717.185,-227 717.185,-257 871.185,-257 871.185,-227 717.185,-227"/>
<text text-anchor="start" x="725.185" y="-245" font-family="Helvetica,sans-Serif" font-size="10.00">map&lt; std::string, indexRecords</text>
<text text-anchor="middle" x="794.185" y="-234" font-family="Helvetica,sans-Serif" font-size="10.00">::checkSum * &gt;</text>
</g>
<!-- Node8&#45;&gt;Node16 -->
<g id="edge35" class="edge"><title>Node8&#45;&gt;Node16</title>
<path fill="none" stroke="#9a32cd" stroke-dasharray="5,2" d="M655.511,-543.957C667.591,-539.85 680.819,-533.534 690.185,-524 710.19,-503.637 772.348,-311.61 789.666,-257.266"/>
<polygon fill="#9a32cd" stroke="#9a32cd" points="654.303,-540.666 645.744,-546.91 656.329,-547.366 654.303,-540.666"/>
<text text-anchor="middle" x="758.685" y="-397.5" font-family="Helvetica,sans-Serif" font-size="10.00"> keys</text>
</g>
<!-- Node17 -->
<g id="node17" class="node"><title>Node17</title>
<g id="a_node17"><a xlink:href="structindexRecords_1_1checkSum.xhtml" target="_top" xlink:title="checkSum">
<polygon fill="white" stroke="black" points="802.685,-340.5 802.685,-359.5 865.685,-359.5 865.685,-340.5 802.685,-340.5"/>
<text text-anchor="middle" x="834.185" y="-347.5" font-family="Helvetica,sans-Serif" font-size="10.00">checkSum</text>
</a>
</g>
</g>
<!-- Node8&#45;&gt;Node17 -->
<g id="edge37" class="edge"><title>Node8&#45;&gt;Node17</title>
<path fill="none" stroke="#9a32cd" stroke-dasharray="5,2" d="M656.152,-549.464C698.051,-546.804 769.903,-540.002 790.185,-524 842.496,-482.73 837.976,-388.757 835.187,-359.715"/>
<polygon fill="#9a32cd" stroke="#9a32cd" points="655.721,-545.984 645.945,-550.068 656.134,-552.971 655.721,-545.984"/>
<text text-anchor="middle" x="875.185" y="-442.5" font-family="Helvetica,sans-Serif" font-size="10.00"> MetaKeyFilename</text>
</g>
<!-- Node18 -->
<g id="node18" class="node"><title>Node18</title>
<g id="a_node18"><a xlink:href="classHashString.xhtml" target="_top" xlink:title="HashString">
<polygon fill="white" stroke="black" points="742.685,-435.5 742.685,-454.5 807.685,-454.5 807.685,-435.5 742.685,-435.5"/>
<text text-anchor="middle" x="775.185" y="-442.5" font-family="Helvetica,sans-Serif" font-size="10.00">HashString</text>
</a>
</g>
</g>
<!-- Node8&#45;&gt;Node18 -->
<g id="edge39" class="edge"><title>Node8&#45;&gt;Node18</title>
<path fill="none" stroke="#9a32cd" stroke-dasharray="5,2" d="M655.861,-549.051C677.86,-546.296 707.198,-539.705 728.185,-524 752.489,-505.813 766.775,-471.031 772.399,-454.777"/>
<polygon fill="#9a32cd" stroke="#9a32cd" points="655.299,-545.591 645.72,-550.118 656.031,-552.552 655.299,-545.591"/>
<text text-anchor="middle" x="773.685" y="-505" font-family="Helvetica,sans-Serif" font-size="10.00"> Type</text>
<text text-anchor="middle" x="773.685" y="-494" font-family="Helvetica,sans-Serif" font-size="10.00">Hash</text>
</g>
<!-- Node20 -->
<g id="node20" class="node"><title>Node20</title>
<g id="a_node20"><a xlink:href="classIndexTarget.xhtml" target="_top" xlink:title="Information about an index file. ">
<polygon fill="white" stroke="black" points="944.185,-435.5 944.185,-454.5 1012.19,-454.5 1012.19,-435.5 944.185,-435.5"/>
<text text-anchor="middle" x="978.185" y="-442.5" font-family="Helvetica,sans-Serif" font-size="10.00">IndexTarget</text>
</a>
</g>
</g>
<!-- Node8&#45;&gt;Node20 -->
<g id="edge44" class="edge"><title>Node8&#45;&gt;Node20</title>
<path fill="none" stroke="#9a32cd" stroke-dasharray="5,2" d="M655.965,-551.842C701.538,-552.122 789.024,-548.923 858.185,-524 903.535,-507.658 949.065,-471.291 968.459,-454.634"/>
<polygon fill="#9a32cd" stroke="#9a32cd" points="655.886,-548.341 645.844,-551.717 655.8,-555.34 655.886,-548.341"/>
<text text-anchor="middle" x="960.685" y="-516" font-family="Helvetica,sans-Serif" font-size="10.00"> Description</text>
<text text-anchor="middle" x="960.685" y="-505" font-family="Helvetica,sans-Serif" font-size="10.00">URI</text>
<text text-anchor="middle" x="960.685" y="-494" font-family="Helvetica,sans-Serif" font-size="10.00">ShortDesc</text>
<text text-anchor="middle" x="960.685" y="-483" font-family="Helvetica,sans-Serif" font-size="10.00">MetaKey</text>
</g>
<!-- Node9 -->
<g id="node9" class="node"><title>Node9</title>
<g id="a_node9"><a xlink:title="STL class. ">
<polygon fill="white" stroke="#bfbfbf" points="572.185,-600.5 572.185,-619.5 678.185,-619.5 678.185,-600.5 572.185,-600.5"/>
<text text-anchor="middle" x="625.185" y="-607.5" font-family="Helvetica,sans-Serif" font-size="10.00">basic_string&lt; char &gt;</text>
</a>
</g>
</g>
<!-- Node9&#45;&gt;Node8 -->
<g id="edge10" class="edge"><title>Node9&#45;&gt;Node8</title>
<path fill="none" stroke="midnightblue" d="M625.185,-589.953C625.185,-580.287 625.185,-569.031 625.185,-561.505"/>
<polygon fill="midnightblue" stroke="midnightblue" points="621.686,-590.25 625.185,-600.25 628.686,-590.25 621.686,-590.25"/>
</g>
<!-- Node10&#45;&gt;Node4 -->
<g id="edge31" class="edge"><title>Node10&#45;&gt;Node4</title>
<path fill="none" stroke="#9a32cd" stroke-dasharray="5,2" d="M249.185,-59.0183C249.185,-46.034 249.185,-29.4419 249.185,-19.5494"/>
<polygon fill="#9a32cd" stroke="#9a32cd" points="245.686,-59.2409 249.185,-69.2409 252.686,-59.241 245.686,-59.2409"/>
<text text-anchor="middle" x="269.185" y="-41.5" font-family="Helvetica,sans-Serif" font-size="10.00"> Workers</text>
</g>
<!-- Node10&#45;&gt;Node5 -->
<g id="edge26" class="edge"><title>Node10&#45;&gt;Node5</title>
<path fill="none" stroke="#9a32cd" stroke-dasharray="5,2" d="M268.252,-95.1673C280.957,-105.017 296.656,-116.627 304.185,-120 338.633,-135.432 350.4,-129.539 387.185,-138 391.824,-139.067 396.78,-140.246 401.509,-141.389"/>
<polygon fill="#9a32cd" stroke="#9a32cd" points="270.1,-92.169 260.071,-88.7528 265.781,-97.6775 270.1,-92.169"/>
<text text-anchor="middle" x="324.185" y="-111.5" font-family="Helvetica,sans-Serif" font-size="10.00"> Workers</text>
</g>
<!-- Node10&#45;&gt;Node6 -->
<g id="edge13" class="edge"><title>Node10&#45;&gt;Node6</title>
<path fill="none" stroke="#9a32cd" stroke-dasharray="5,2" d="M238.911,-97.9604C237.428,-101.215 236.097,-104.643 235.185,-108 229.358,-129.463 227.519,-136.494 233.185,-158 241.033,-187.784 262.288,-218.103 273.325,-232.457"/>
<polygon fill="#9a32cd" stroke="#9a32cd" points="242.077,-99.4564 243.553,-88.9648 235.857,-96.2466 242.077,-99.4564"/>
<text text-anchor="middle" x="250.685" y="-145.5" font-family="Helvetica,sans-Serif" font-size="10.00"> Worker</text>
</g>
<!-- Node10&#45;&gt;Node10 -->
<g id="edge24" class="edge"><title>Node10&#45;&gt;Node10</title>
<path fill="none" stroke="#9a32cd" stroke-dasharray="5,2" d="M283.61,-84.6249C288.164,-83.6671 291.185,-81.7922 291.185,-79 291.185,-74.418 283.049,-72.3059 273.355,-72.6639"/>
<polygon fill="#9a32cd" stroke="#9a32cd" points="283.089,-81.1525 273.355,-85.3361 283.573,-88.1358 283.089,-81.1525"/>
<text text-anchor="middle" x="318.685" y="-82" font-family="Helvetica,sans-Serif" font-size="10.00"> NextQueue</text>
<text text-anchor="middle" x="318.685" y="-71" font-family="Helvetica,sans-Serif" font-size="10.00">NextAcquire</text>
</g>
<!-- Node11&#45;&gt;Node4 -->
<g id="edge27" class="edge"><title>Node11&#45;&gt;Node4</title>
<path fill="none" stroke="#9a32cd" stroke-dasharray="5,2" d="M545.26,-127.998C545.453,-121.296 544.585,-113.953 541.185,-108 510.754,-54.717 480.293,-57.7141 422.185,-38 374.975,-21.983 317.254,-15.407 281.864,-12.7491"/>
<polygon fill="#9a32cd" stroke="#9a32cd" points="541.74,-128.008 544.191,-138.315 548.703,-128.729 541.74,-128.008"/>
<text text-anchor="middle" x="547.685" y="-76.5" font-family="Helvetica,sans-Serif" font-size="10.00"> Configs</text>
</g>
<!-- Node11&#45;&gt;Node10 -->
<g id="edge16" class="edge"><title>Node11&#45;&gt;Node10</title>
<path fill="none" stroke="#9a32cd" stroke-dasharray="5,2" d="M524.849,-131.563C514.39,-123.153 500.376,-113.389 486.185,-108 466.577,-100.553 329.698,-87.3676 273.343,-82.1818"/>
<polygon fill="#9a32cd" stroke="#9a32cd" points="522.817,-134.427 532.724,-138.182 527.321,-129.069 522.817,-134.427"/>
<text text-anchor="middle" x="524.185" y="-111.5" font-family="Helvetica,sans-Serif" font-size="10.00"> Config</text>
</g>
<!-- Node11&#45;&gt;Node11 -->
<g id="edge17" class="edge"><title>Node11&#45;&gt;Node11</title>
<path fill="none" stroke="#9a32cd" stroke-dasharray="5,2" d="M591.057,-153.042C595.436,-151.987 598.185,-150.307 598.185,-148 598.185,-144.215 590.782,-142.115 580.921,-141.701"/>
<polygon fill="#9a32cd" stroke="#9a32cd" points="590.414,-149.595 580.921,-154.299 591.275,-156.542 590.414,-149.595"/>
<text text-anchor="middle" x="610.685" y="-145.5" font-family="Helvetica,sans-Serif" font-size="10.00"> Next</text>
</g>
<!-- Node12 -->
<g id="node12" class="node"><title>Node12</title>
<g id="a_node12"><a xlink:href="classpkgAcquireStatus.xhtml" target="_top" xlink:title="A monitor object for downloads controlled by the pkgAcquire class. {{{. ">
<polygon fill="white" stroke="black" points="51.1855,-138.5 51.1855,-157.5 145.185,-157.5 145.185,-138.5 51.1855,-138.5"/>
<text text-anchor="middle" x="98.1855" y="-145.5" font-family="Helvetica,sans-Serif" font-size="10.00">pkgAcquireStatus</text>
</a>
</g>
</g>
<!-- Node12&#45;&gt;Node4 -->
<g id="edge28" class="edge"><title>Node12&#45;&gt;Node4</title>
<path fill="none" stroke="#9a32cd" stroke-dasharray="5,2" d="M106.382,-128.935C110.034,-121.97 114.745,-114.205 120.185,-108 154.915,-68.3896 208.206,-34.6442 234.067,-19.5118"/>
<polygon fill="#9a32cd" stroke="#9a32cd" points="103.058,-127.767 101.829,-138.29 109.352,-130.83 103.058,-127.767"/>
<text text-anchor="middle" x="171.685" y="-76.5" font-family="Helvetica,sans-Serif" font-size="10.00"> Log</text>
</g>
<!-- Node12&#45;&gt;Node10 -->
<g id="edge21" class="edge"><title>Node12&#45;&gt;Node10</title>
<path fill="none" stroke="#9a32cd" stroke-dasharray="5,2" d="M112.235,-130.566C119.784,-122.686 129.686,-113.735 140.185,-108 167.106,-93.2962 202.004,-86.0963 224.968,-82.7267"/>
<polygon fill="#9a32cd" stroke="#9a32cd" points="109.424,-128.456 105.293,-138.212 114.606,-133.161 109.424,-128.456"/>
<text text-anchor="middle" x="149.685" y="-111.5" font-family="Helvetica,sans-Serif" font-size="10.00"> Log</text>
</g>
<!-- Node13&#45;&gt;Node10 -->
<g id="edge22" class="edge"><title>Node13&#45;&gt;Node10</title>
<path fill="none" stroke="#9a32cd" stroke-dasharray="5,2" d="M502.424,-380.111C497.217,-327.238 480.654,-178.946 455.185,-138 443.449,-119.13 435.607,-116.762 415.185,-108 367.646,-87.6027 306.489,-82.0258 273.272,-80.5263"/>
<polygon fill="#9a32cd" stroke="#9a32cd" points="498.97,-380.763 503.409,-390.383 505.938,-380.094 498.97,-380.763"/>
<text text-anchor="middle" x="523.185" y="-239.5" font-family="Helvetica,sans-Serif" font-size="10.00"> MessageQueue</text>
</g>
<!-- Node14&#45;&gt;Node4 -->
<g id="edge29" class="edge"><title>Node14&#45;&gt;Node4</title>
<path fill="none" stroke="#9a32cd" stroke-dasharray="5,2" d="M53.1502,-170.833C48.7928,-167.162 44.963,-162.906 42.1855,-158 37.8059,-150.265 38.3091,-145.999 42.1855,-138 75.833,-68.5666 167.152,-33.5041 216.497,-19.1534"/>
<polygon fill="#9a32cd" stroke="#9a32cd" points="51.293,-173.809 61.4498,-176.824 55.3902,-168.133 51.293,-173.809"/>
<text text-anchor="middle" x="76.1855" y="-111.5" font-family="Helvetica,sans-Serif" font-size="10.00"> Items</text>
</g>
<!-- Node15&#45;&gt;Node1 -->
<g id="edge33" class="edge"><title>Node15&#45;&gt;Node1</title>
<path fill="none" stroke="#9a32cd" stroke-dasharray="5,2" d="M766.185,-128.018C766.185,-115.034 766.185,-98.4419 766.185,-88.5494"/>
<polygon fill="#9a32cd" stroke="#9a32cd" points="762.686,-128.241 766.185,-138.241 769.686,-128.241 762.686,-128.241"/>
<text text-anchor="middle" x="805.185" y="-111.5" font-family="Helvetica,sans-Serif" font-size="10.00"> MetaIndexParser</text>
</g>
<!-- Node16&#45;&gt;Node15 -->
<g id="edge34" class="edge"><title>Node16&#45;&gt;Node15</title>
<path fill="none" stroke="#9a32cd" stroke-dasharray="5,2" d="M786.855,-216.913C780.935,-197.463 772.94,-171.193 768.845,-157.738"/>
<polygon fill="#9a32cd" stroke="#9a32cd" points="783.55,-218.077 789.81,-226.625 790.247,-216.039 783.55,-218.077"/>
<text text-anchor="middle" x="801.185" y="-189.5" font-family="Helvetica,sans-Serif" font-size="10.00"> Entries</text>
</g>
<!-- Node17&#45;&gt;Node16 -->
<g id="edge36" class="edge"><title>Node17&#45;&gt;Node16</title>
<path fill="none" stroke="#9a32cd" stroke-dasharray="5,2" d="M825.418,-331.142C822.331,-324.567 818.945,-317.013 816.185,-310 809.103,-291.999 802.383,-270.696 798.276,-257.025"/>
<polygon fill="#9a32cd" stroke="#9a32cd" points="822.406,-332.953 829.892,-340.449 828.715,-329.92 822.406,-332.953"/>
<text text-anchor="middle" x="837.685" y="-290.5" font-family="Helvetica,sans-Serif" font-size="10.00"> elements</text>
</g>
<!-- Node18&#45;&gt;Node17 -->
<g id="edge38" class="edge"><title>Node18&#45;&gt;Node17</title>
<path fill="none" stroke="#9a32cd" stroke-dasharray="5,2" d="M783.391,-426.091C788.578,-415.339 795.7,-401.551 803.185,-390 810.335,-378.967 819.923,-367.287 826.534,-359.617"/>
<polygon fill="#9a32cd" stroke="#9a32cd" points="780.15,-424.758 779.061,-435.297 786.484,-427.738 780.15,-424.758"/>
<text text-anchor="middle" x="816.685" y="-397.5" font-family="Helvetica,sans-Serif" font-size="10.00"> Hash</text>
</g>
<!-- Node19 -->
<g id="node19" class="node"><title>Node19</title>
<polygon fill="white" stroke="#bfbfbf" points="868.185,-283.5 868.185,-302.5 1016.19,-302.5 1016.19,-283.5 868.185,-283.5"/>
<text text-anchor="middle" x="942.185" y="-290.5" font-family="Helvetica,sans-Serif" font-size="10.00">vector&lt; struct IndexTarget * &gt;</text>
</g>
<!-- Node19&#45;&gt;Node1 -->
<g id="edge42" class="edge"><title>Node19&#45;&gt;Node1</title>
<path fill="none" stroke="#9a32cd" stroke-dasharray="5,2" d="M937.7,-273.349C927.881,-236.451 901.018,-153.759 848.185,-108 837.724,-98.9393 824.191,-92.7748 811.146,-88.595"/>
<polygon fill="#9a32cd" stroke="#9a32cd" points="934.358,-274.407 940.211,-283.238 941.143,-272.685 934.358,-274.407"/>
<text text-anchor="middle" x="944.685" y="-189.5" font-family="Helvetica,sans-Serif" font-size="10.00"> IndexTargets</text>
</g>
<!-- Node20&#45;&gt;Node19 -->
<g id="edge43" class="edge"><title>Node20&#45;&gt;Node19</title>
<path fill="none" stroke="#9a32cd" stroke-dasharray="5,2" d="M973.62,-424.978C965.755,-392.206 949.948,-326.344 944.273,-302.699"/>
<polygon fill="#9a32cd" stroke="#9a32cd" points="970.304,-426.159 976.041,-435.066 977.111,-424.525 970.304,-426.159"/>
<text text-anchor="middle" x="990.685" y="-397.5" font-family="Helvetica,sans-Serif" font-size="10.00"> elements</text>
</g>
</g>
</svg>
