<?xml version="1.0" encoding="UTF-8" standalone="no"?>
<!DOCTYPE svg PUBLIC "-//W3C//DTD SVG 1.1//EN"
 "http://www.w3.org/Graphics/SVG/1.1/DTD/svg11.dtd">
<!-- Generated by graphviz version 2.36.0 (20140111.2315)
 -->
<!-- Title: pkgSimulate Pages: 1 -->
<!--zoomable 664 -->
<svg id="main" version="1.1" xmlns="http://www.w3.org/2000/svg" xmlns:xlink="http://www.w3.org/1999/xlink" xml:space="preserve" onload="init(evt)">
<style type="text/css"><![CDATA[
.edge:hover path { stroke: red; }
.edge:hover polygon { stroke: red; fill: red; }
]]></style>
<script type="text/javascript"><![CDATA[
var edges = document.getElementsByTagName('g');
if (edges && edges.length) {
  for (var i=0;i<edges.length;i++) {
    if (edges[i].id.substr(0,4)=='edge') {
      edges[i].setAttribute('class','edge');
    }
  }
}
]]></script>
        <defs>
                <circle id="rim" cx="0" cy="0" r="7"/>
                <circle id="rim2" cx="0" cy="0" r="3.5"/>
                <g id="zoomPlus">
                        <use xlink:href="#rim" fill="#404040">
                                <set attributeName="fill" to="#808080" begin="zoomplus.mouseover" end="zoomplus.mouseout"/>
                        </use>
                        <path d="M-4,0h8M0,-4v8" fill="none" stroke="white" stroke-width="1.5" pointer-events="none"/>
                </g>
                <g id="zoomMin">
                        <use xlink:href="#rim" fill="#404040">
                                <set attributeName="fill" to="#808080" begin="zoomminus.mouseover" end="zoomminus.mouseout"/>
                        </use>
                        <path d="M-4,0h8" fill="none" stroke="white" stroke-width="1.5" pointer-events="none"/>
                </g>
                <g id="dirArrow">
                        <path fill="none" stroke="white" stroke-width="1.5" d="M0,-3.0v7 M-2.5,-0.5L0,-3.0L2.5,-0.5"/>
                </g>
               <g id="resetDef">
                       <use xlink:href="#rim2" fill="#404040">
                               <set attributeName="fill" to="#808080" begin="reset.mouseover" end="reset.mouseout"/>
                       </use>
               </g>
        </defs>

<script type="text/javascript">
var viewWidth = 1430;
var viewHeight = 664;
var sectionId = 'dynsection-1';
</script>
<script xlink:href="svgpan.js"/>
<svg id="graph" class="graph">
<g id="viewport">
<title>pkgSimulate</title>
<polygon fill="white" stroke="none" points="-4,4 -4,-660 1426,-660 1426,4 -4,4"/>
<!-- Node1 -->
<g id="node1" class="node"><title>Node1</title>
<polygon fill="#bfbfbf" stroke="black" points="1350.5,-319.5 1350.5,-338.5 1421.5,-338.5 1421.5,-319.5 1350.5,-319.5"/>
<text text-anchor="middle" x="1386" y="-326.5" font-family="Helvetica,sans-Serif" font-size="10.00">pkgSimulate</text>
</g>
<!-- Node2 -->
<g id="node2" class="node"><title>Node2</title>
<g id="a_node2"><a xlink:href="classpkgPackageManager.xhtml" target="_top" xlink:title="pkgPackageManager">
<polygon fill="white" stroke="black" points="1178,-344.5 1178,-363.5 1286,-363.5 1286,-344.5 1178,-344.5"/>
<text text-anchor="middle" x="1232" y="-351.5" font-family="Helvetica,sans-Serif" font-size="10.00">pkgPackageManager</text>
</a>
</g>
</g>
<!-- Node2&#45;&gt;Node1 -->
<g id="edge1" class="edge"><title>Node2&#45;&gt;Node1</title>
<path fill="none" stroke="midnightblue" d="M1296.28,-343.592C1314.73,-340.558 1334.21,-337.354 1350.2,-334.724"/>
<polygon fill="midnightblue" stroke="midnightblue" points="1295.46,-340.18 1286.16,-345.256 1296.6,-347.087 1295.46,-340.18"/>
</g>
<!-- Node3 -->
<g id="node3" class="node"><title>Node3</title>
<g id="a_node3"><a xlink:href="classpkgCache_1_1Namespace.xhtml" target="_top" xlink:title="Namespace">
<polygon fill="white" stroke="black" points="690.5,-229.5 690.5,-248.5 759.5,-248.5 759.5,-229.5 690.5,-229.5"/>
<text text-anchor="middle" x="725" y="-236.5" font-family="Helvetica,sans-Serif" font-size="10.00">Namespace</text>
</a>
</g>
</g>
<!-- Node3&#45;&gt;Node2 -->
<g id="edge2" class="edge"><title>Node3&#45;&gt;Node2</title>
<path fill="none" stroke="darkgreen" d="M769.735,-227.575C841.976,-210.75 989.976,-184.98 1108,-221 1134.65,-229.132 1141.72,-234.975 1160,-256 1172,-269.802 1167.92,-277.744 1178,-293 1191,-312.662 1209.76,-332.788 1221.12,-344.302"/>
<polygon fill="darkgreen" stroke="darkgreen" points="768.554,-224.258 759.639,-229.984 770.178,-231.067 768.554,-224.258"/>
</g>
<!-- Node4 -->
<g id="node4" class="node"><title>Node4</title>
<g id="a_node4"><a xlink:href="classpkgOrderList.xhtml" target="_top" xlink:title="pkgOrderList">
<polygon fill="white" stroke="black" points="1036,-230.5 1036,-249.5 1108,-249.5 1108,-230.5 1036,-230.5"/>
<text text-anchor="middle" x="1072" y="-237.5" font-family="Helvetica,sans-Serif" font-size="10.00">pkgOrderList</text>
</a>
</g>
</g>
<!-- Node3&#45;&gt;Node4 -->
<g id="edge4" class="edge"><title>Node3&#45;&gt;Node4</title>
<path fill="none" stroke="darkgreen" d="M769.851,-239.127C839.117,-239.328 972.478,-239.714 1035.87,-239.898"/>
<polygon fill="darkgreen" stroke="darkgreen" points="769.718,-235.627 759.708,-239.098 769.698,-242.627 769.718,-235.627"/>
</g>
<!-- Node5 -->
<g id="node5" class="node"><title>Node5</title>
<g id="a_node5"><a xlink:href="classpkgDepCache.xhtml" target="_top" xlink:title="pkgDepCache">
<polygon fill="white" stroke="black" points="876.5,-302.5 876.5,-321.5 955.5,-321.5 955.5,-302.5 876.5,-302.5"/>
<text text-anchor="middle" x="916" y="-309.5" font-family="Helvetica,sans-Serif" font-size="10.00">pkgDepCache</text>
</a>
</g>
</g>
<!-- Node3&#45;&gt;Node5 -->
<g id="edge7" class="edge"><title>Node3&#45;&gt;Node5</title>
<path fill="none" stroke="darkgreen" d="M761.508,-252.215C788.126,-262.178 825.418,-276.257 858,-289 869.131,-293.353 881.432,-298.3 891.749,-302.487"/>
<polygon fill="darkgreen" stroke="darkgreen" points="762.454,-248.832 751.862,-248.609 760.004,-255.389 762.454,-248.832"/>
</g>
<!-- Node4&#45;&gt;Node2 -->
<g id="edge3" class="edge"><title>Node4&#45;&gt;Node2</title>
<path fill="none" stroke="#9a32cd" stroke-dasharray="5,2" d="M1111.06,-253.28C1126.95,-259.759 1145.13,-268.45 1160,-279 1186.91,-298.091 1211.81,-328.484 1223.7,-344.07"/>
<polygon fill="#9a32cd" stroke="#9a32cd" points="1112.11,-249.929 1101.52,-249.535 1109.55,-256.446 1112.11,-249.929"/>
<text text-anchor="middle" x="1143" y="-282" font-family="Helvetica,sans-Serif" font-size="10.00"> List</text>
</g>
<!-- Node4&#45;&gt;Node4 -->
<g id="edge5" class="edge"><title>Node4&#45;&gt;Node4</title>
<path fill="none" stroke="#9a32cd" stroke-dasharray="5,2" d="M1059.11,-259.766C1060.12,-264.497 1064.42,-268 1072,-268 1084.44,-268 1088.04,-258.565 1082.79,-249.757"/>
<polygon fill="#9a32cd" stroke="#9a32cd" points="1062.58,-260.263 1061.21,-249.757 1055.73,-258.824 1062.58,-260.263"/>
<text text-anchor="middle" x="1072" y="-271" font-family="Helvetica,sans-Serif" font-size="10.00"> Me</text>
</g>
<!-- Node5&#45;&gt;Node1 -->
<g id="edge35" class="edge"><title>Node5&#45;&gt;Node1</title>
<path fill="none" stroke="#9a32cd" stroke-dasharray="5,2" d="M965.893,-313.776C1060.88,-317.226 1268.23,-324.758 1350.43,-327.744"/>
<polygon fill="#9a32cd" stroke="#9a32cd" points="965.817,-310.271 955.697,-313.406 965.563,-317.266 965.817,-310.271"/>
<text text-anchor="middle" x="1143" y="-323" font-family="Helvetica,sans-Serif" font-size="10.00"> Sim</text>
</g>
<!-- Node5&#45;&gt;Node2 -->
<g id="edge31" class="edge"><title>Node5&#45;&gt;Node2</title>
<path fill="none" stroke="#9a32cd" stroke-dasharray="5,2" d="M962.727,-323.791C966.528,-324.601 970.322,-325.351 974,-326 1043.83,-338.325 1125.36,-346.102 1177.55,-350.25"/>
<polygon fill="#9a32cd" stroke="#9a32cd" points="963.25,-320.322 952.726,-321.541 961.714,-327.151 963.25,-320.322"/>
<text text-anchor="middle" x="1072" y="-346" font-family="Helvetica,sans-Serif" font-size="10.00"> Cache</text>
</g>
<!-- Node5&#45;&gt;Node4 -->
<g id="edge6" class="edge"><title>Node5&#45;&gt;Node4</title>
<path fill="none" stroke="#9a32cd" stroke-dasharray="5,2" d="M946.737,-298.097C977.229,-283.841 1023.84,-262.047 1050.47,-249.601"/>
<polygon fill="#9a32cd" stroke="#9a32cd" points="945.026,-295.033 937.45,-302.439 947.991,-301.374 945.026,-295.033"/>
<text text-anchor="middle" x="996" y="-287" font-family="Helvetica,sans-Serif" font-size="10.00"> Cache</text>
</g>
<!-- Node6 -->
<g id="node6" class="node"><title>Node6</title>
<g id="a_node6"><a xlink:href="classpkgDepCache_1_1Policy.xhtml" target="_top" xlink:title="Policy">
<polygon fill="white" stroke="black" points="703,-378.5 703,-397.5 747,-397.5 747,-378.5 703,-378.5"/>
<text text-anchor="middle" x="725" y="-385.5" font-family="Helvetica,sans-Serif" font-size="10.00">Policy</text>
</a>
</g>
</g>
<!-- Node6&#45;&gt;Node5 -->
<g id="edge8" class="edge"><title>Node6&#45;&gt;Node5</title>
<path fill="none" stroke="#9a32cd" stroke-dasharray="5,2" d="M756.323,-374.586C763.386,-371.625 770.914,-368.599 778,-366 812.973,-353.172 823.5,-355.051 858,-341 871.882,-335.346 886.974,-327.591 898.139,-321.523"/>
<polygon fill="#9a32cd" stroke="#9a32cd" points="754.889,-371.393 747.066,-378.537 757.637,-377.831 754.889,-371.393"/>
<text text-anchor="middle" x="818" y="-380" font-family="Helvetica,sans-Serif" font-size="10.00"> LocalPolicy</text>
<text text-anchor="middle" x="818" y="-369" font-family="Helvetica,sans-Serif" font-size="10.00">delLocalPolicy</text>
</g>
<!-- Node27 -->
<g id="node27" class="node"><title>Node27</title>
<g id="a_node27"><a xlink:href="classpkgSimulate_1_1Policy.xhtml" target="_top" xlink:title="Policy">
<polygon fill="white" stroke="black" points="974,-391.5 974,-410.5 1018,-410.5 1018,-391.5 974,-391.5"/>
<text text-anchor="middle" x="996" y="-398.5" font-family="Helvetica,sans-Serif" font-size="10.00">Policy</text>
</a>
</g>
</g>
<!-- Node6&#45;&gt;Node27 -->
<g id="edge37" class="edge"><title>Node6&#45;&gt;Node27</title>
<path fill="none" stroke="midnightblue" d="M757.391,-389.517C812.897,-392.199 926.94,-397.711 973.99,-399.985"/>
<polygon fill="midnightblue" stroke="midnightblue" points="757.265,-386.007 747.108,-389.02 756.927,-392.999 757.265,-386.007"/>
</g>
<!-- Node7 -->
<g id="node7" class="node"><title>Node7</title>
<g id="a_node7"><a xlink:href="classpkgCache.xhtml" target="_top" xlink:title="pkgCache">
<polygon fill="white" stroke="black" points="694.5,-323.5 694.5,-342.5 755.5,-342.5 755.5,-323.5 694.5,-323.5"/>
<text text-anchor="middle" x="725" y="-330.5" font-family="Helvetica,sans-Serif" font-size="10.00">pkgCache</text>
</a>
</g>
</g>
<!-- Node7&#45;&gt;Node5 -->
<g id="edge9" class="edge"><title>Node7&#45;&gt;Node5</title>
<path fill="none" stroke="#9a32cd" stroke-dasharray="5,2" d="M765.586,-328.602C798.096,-324.989 843.884,-319.902 876.183,-316.313"/>
<polygon fill="#9a32cd" stroke="#9a32cd" points="765.084,-325.136 755.531,-329.719 765.857,-332.093 765.084,-325.136"/>
<text text-anchor="middle" x="818" y="-329" font-family="Helvetica,sans-Serif" font-size="10.00"> Cache</text>
</g>
<!-- Node8 -->
<g id="node8" class="node"><title>Node8</title>
<g id="a_node8"><a xlink:href="structpkgCache_1_1Dependency.xhtml" target="_top" xlink:title="information for a single dependency record ">
<polygon fill="white" stroke="black" points="506.5,-513.5 506.5,-532.5 577.5,-532.5 577.5,-513.5 506.5,-513.5"/>
<text text-anchor="middle" x="542" y="-520.5" font-family="Helvetica,sans-Serif" font-size="10.00">Dependency</text>
</a>
</g>
</g>
<!-- Node8&#45;&gt;Node7 -->
<g id="edge10" class="edge"><title>Node8&#45;&gt;Node7</title>
<path fill="none" stroke="#9a32cd" stroke-dasharray="5,2" d="M587.625,-524.576C615.848,-523.034 650.868,-515.994 672,-493 709.683,-451.997 665.753,-419.133 690,-369 695.016,-358.63 704.096,-349.252 711.612,-342.67"/>
<polygon fill="#9a32cd" stroke="#9a32cd" points="587.449,-521.08 577.572,-524.914 587.685,-528.076 587.449,-521.08"/>
<text text-anchor="middle" x="644" y="-524" font-family="Helvetica,sans-Serif" font-size="10.00"> DepP</text>
</g>
<!-- Node9 -->
<g id="node9" class="node"><title>Node9</title>
<g id="a_node9"><a xlink:href="structpkgCache_1_1Description.xhtml" target="_top" xlink:title="datamember of a linked list of available description for a version ">
<polygon fill="white" stroke="black" points="509,-475.5 509,-494.5 575,-494.5 575,-475.5 509,-475.5"/>
<text text-anchor="middle" x="542" y="-482.5" font-family="Helvetica,sans-Serif" font-size="10.00">Description</text>
</a>
</g>
</g>
<!-- Node9&#45;&gt;Node7 -->
<g id="edge11" class="edge"><title>Node9&#45;&gt;Node7</title>
<path fill="none" stroke="#9a32cd" stroke-dasharray="5,2" d="M585.286,-484.366C613.641,-481.636 649.736,-473.319 672,-450 697.467,-423.327 672.717,-401.578 690,-369 695.479,-358.672 704.732,-349.157 712.203,-342.506"/>
<polygon fill="#9a32cd" stroke="#9a32cd" points="584.933,-480.882 575.23,-485.136 585.468,-487.862 584.933,-480.882"/>
<text text-anchor="middle" x="644" y="-481" font-family="Helvetica,sans-Serif" font-size="10.00"> DescP</text>
</g>
<!-- Node10 -->
<g id="node10" class="node"><title>Node10</title>
<g id="a_node10"><a xlink:href="structpkgCache_1_1Header.xhtml" target="_top" xlink:title="Header">
<polygon fill="white" stroke="black" points="518,-437.5 518,-456.5 566,-456.5 566,-437.5 518,-437.5"/>
<text text-anchor="middle" x="542" y="-444.5" font-family="Helvetica,sans-Serif" font-size="10.00">Header</text>
</a>
</g>
</g>
<!-- Node10&#45;&gt;Node7 -->
<g id="edge12" class="edge"><title>Node10&#45;&gt;Node7</title>
<path fill="none" stroke="#9a32cd" stroke-dasharray="5,2" d="M576.496,-444.45C604.92,-440.669 645.235,-431.286 672,-408 686.403,-395.47 679.306,-384.814 690,-369 696.646,-359.173 706.007,-349.479 713.224,-342.631"/>
<polygon fill="#9a32cd" stroke="#9a32cd" points="575.767,-441.011 566.238,-445.642 576.575,-447.964 575.767,-441.011"/>
<text text-anchor="middle" x="644" y="-438" font-family="Helvetica,sans-Serif" font-size="10.00"> HeaderP</text>
</g>
<!-- Node11 -->
<g id="node11" class="node"><title>Node11</title>
<g id="a_node11"><a xlink:href="structDynamicMMap_1_1Pool.xhtml" target="_top" xlink:title="Pool">
<polygon fill="white" stroke="black" points="318,-437.5 318,-456.5 354,-456.5 354,-437.5 318,-437.5"/>
<text text-anchor="middle" x="336" y="-444.5" font-family="Helvetica,sans-Serif" font-size="10.00">Pool</text>
</a>
</g>
</g>
<!-- Node11&#45;&gt;Node10 -->
<g id="edge13" class="edge"><title>Node11&#45;&gt;Node10</title>
<path fill="none" stroke="#9a32cd" stroke-dasharray="5,2" d="M364.221,-447C404.612,-447 479.722,-447 517.711,-447"/>
<polygon fill="#9a32cd" stroke="#9a32cd" points="364.042,-443.5 354.042,-447 364.042,-450.5 364.042,-443.5"/>
<text text-anchor="middle" x="422" y="-450" font-family="Helvetica,sans-Serif" font-size="10.00"> Pools</text>
</g>
<!-- Node12 -->
<g id="node12" class="node"><title>Node12</title>
<g id="a_node12"><a xlink:href="structpkgCache_1_1PackageFile.xhtml" target="_top" xlink:title="stores information about the files used to generate the cache ">
<polygon fill="white" stroke="black" points="506.5,-399.5 506.5,-418.5 577.5,-418.5 577.5,-399.5 506.5,-399.5"/>
<text text-anchor="middle" x="542" y="-406.5" font-family="Helvetica,sans-Serif" font-size="10.00">PackageFile</text>
</a>
</g>
</g>
<!-- Node12&#45;&gt;Node7 -->
<g id="edge14" class="edge"><title>Node12&#45;&gt;Node7</title>
<path fill="none" stroke="#9a32cd" stroke-dasharray="5,2" d="M587.533,-400.989C613.13,-395.318 645.382,-386.318 672,-373 688.094,-364.948 704.13,-351.598 714.049,-342.557"/>
<polygon fill="#9a32cd" stroke="#9a32cd" points="586.775,-397.572 577.72,-403.073 588.229,-404.419 586.775,-397.572"/>
<text text-anchor="middle" x="644" y="-396" font-family="Helvetica,sans-Serif" font-size="10.00"> PkgFileP</text>
</g>
<!-- Node13 -->
<g id="node13" class="node"><title>Node13</title>
<g id="a_node13"><a xlink:href="structpkgCache_1_1DescFile.xhtml" target="_top" xlink:title="associates a description with a Translation file ">
<polygon fill="white" stroke="black" points="514,-361.5 514,-380.5 570,-380.5 570,-361.5 514,-361.5"/>
<text text-anchor="middle" x="542" y="-368.5" font-family="Helvetica,sans-Serif" font-size="10.00">DescFile</text>
</a>
</g>
</g>
<!-- Node13&#45;&gt;Node7 -->
<g id="edge15" class="edge"><title>Node13&#45;&gt;Node7</title>
<path fill="none" stroke="#9a32cd" stroke-dasharray="5,2" d="M580.474,-365.379C606.332,-361.242 641.426,-355.115 672,-348 679.321,-346.296 687.145,-344.193 694.442,-342.105"/>
<polygon fill="#9a32cd" stroke="#9a32cd" points="579.682,-361.961 570.348,-366.973 580.771,-368.876 579.682,-361.961"/>
<text text-anchor="middle" x="644" y="-361" font-family="Helvetica,sans-Serif" font-size="10.00"> DescFileP</text>
</g>
<!-- Node14 -->
<g id="node14" class="node"><title>Node14</title>
<g id="a_node14"><a xlink:href="structpkgCache_1_1StringItem.xhtml" target="_top" xlink:title="used for generating single instances of strings ">
<polygon fill="white" stroke="black" points="511,-323.5 511,-342.5 573,-342.5 573,-323.5 511,-323.5"/>
<text text-anchor="middle" x="542" y="-330.5" font-family="Helvetica,sans-Serif" font-size="10.00">StringItem</text>
</a>
</g>
</g>
<!-- Node14&#45;&gt;Node7 -->
<g id="edge16" class="edge"><title>Node14&#45;&gt;Node7</title>
<path fill="none" stroke="#9a32cd" stroke-dasharray="5,2" d="M583.685,-333C617.238,-333 664.062,-333 694.208,-333"/>
<polygon fill="#9a32cd" stroke="#9a32cd" points="583.295,-329.5 573.295,-333 583.295,-336.5 583.295,-329.5"/>
<text text-anchor="middle" x="644" y="-336" font-family="Helvetica,sans-Serif" font-size="10.00"> StringItemP</text>
</g>
<!-- Node15 -->
<g id="node15" class="node"><title>Node15</title>
<g id="a_node15"><a xlink:href="structpkgCache_1_1Provides.xhtml" target="_top" xlink:title="handles virtual packages ">
<polygon fill="white" stroke="black" points="514.5,-285.5 514.5,-304.5 569.5,-304.5 569.5,-285.5 514.5,-285.5"/>
<text text-anchor="middle" x="542" y="-292.5" font-family="Helvetica,sans-Serif" font-size="10.00">Provides</text>
</a>
</g>
</g>
<!-- Node15&#45;&gt;Node7 -->
<g id="edge17" class="edge"><title>Node15&#45;&gt;Node7</title>
<path fill="none" stroke="#9a32cd" stroke-dasharray="5,2" d="M579.981,-300.542C605.885,-304.68 641.231,-310.84 672,-318 679.321,-319.704 687.145,-321.807 694.442,-323.895"/>
<polygon fill="#9a32cd" stroke="#9a32cd" points="580.271,-297.045 569.849,-298.949 579.184,-303.96 580.271,-297.045"/>
<text text-anchor="middle" x="644" y="-321" font-family="Helvetica,sans-Serif" font-size="10.00"> ProvideP</text>
</g>
<!-- Node16 -->
<g id="node16" class="node"><title>Node16</title>
<g id="a_node16"><a xlink:title="STL class. ">
<polygon fill="white" stroke="#bfbfbf" points="144.5,-209.5 144.5,-228.5 185.5,-228.5 185.5,-209.5 144.5,-209.5"/>
<text text-anchor="middle" x="165" y="-216.5" font-family="Helvetica,sans-Serif" font-size="10.00">string</text>
</a>
</g>
</g>
<!-- Node16&#45;&gt;Node2 -->
<g id="edge34" class="edge"><title>Node16&#45;&gt;Node2</title>
<path fill="none" stroke="#9a32cd" stroke-dasharray="5,2" d="M166.104,-238.633C166.959,-280.774 172.427,-382.367 204,-460 241.955,-553.326 234.251,-645 335,-645 335,-645 335,-645 1073,-645 1204.07,-645 1227,-414.175 1230.45,-363.682"/>
<polygon fill="#9a32cd" stroke="#9a32cd" points="169.604,-238.557 165.969,-228.605 162.604,-238.652 169.604,-238.557"/>
<text text-anchor="middle" x="725" y="-648" font-family="Helvetica,sans-Serif" font-size="10.00"> FileNames</text>
</g>
<!-- Node16&#45;&gt;Node4 -->
<g id="edge30" class="edge"><title>Node16&#45;&gt;Node4</title>
<path fill="none" stroke="#9a32cd" stroke-dasharray="5,2" d="M170.92,-199.302C185.663,-145.491 234.791,-0 335,-0 335,-0 335,-0 917,-0 1028.39,-0 1062.94,-185.394 1069.67,-230.294"/>
<polygon fill="#9a32cd" stroke="#9a32cd" points="167.447,-198.746 168.29,-209.307 174.217,-200.526 167.447,-198.746"/>
<text text-anchor="middle" x="644" y="-3" font-family="Helvetica,sans-Serif" font-size="10.00"> FileList</text>
</g>
<!-- Node16&#45;&gt;Node7 -->
<g id="edge18" class="edge"><title>Node16&#45;&gt;Node7</title>
<path fill="none" stroke="#9a32cd" stroke-dasharray="5,2" d="M196.01,-217.204C266.816,-213.639 449.498,-208.375 598,-238 632.333,-244.849 647.217,-240.272 672,-265 688.423,-281.387 674.936,-296.355 690,-314 693.161,-317.703 697.233,-320.826 701.455,-323.402"/>
<polygon fill="#9a32cd" stroke="#9a32cd" points="195.43,-213.73 185.63,-217.756 195.801,-220.72 195.43,-213.73"/>
<text text-anchor="middle" x="422" y="-224" font-family="Helvetica,sans-Serif" font-size="10.00"> CacheFile</text>
</g>
<!-- Node24 -->
<g id="node24" class="node"><title>Node24</title>
<g id="a_node24"><a xlink:href="classFileFd.xhtml" target="_top" xlink:title="FileFd">
<polygon fill="white" stroke="black" points="314,-171.5 314,-190.5 358,-190.5 358,-171.5 314,-171.5"/>
<text text-anchor="middle" x="336" y="-178.5" font-family="Helvetica,sans-Serif" font-size="10.00">FileFd</text>
</a>
</g>
</g>
<!-- Node16&#45;&gt;Node24 -->
<g id="edge28" class="edge"><title>Node16&#45;&gt;Node24</title>
<path fill="none" stroke="#9a32cd" stroke-dasharray="5,2" d="M179.575,-201.311C186.103,-194.227 194.563,-186.844 204,-183 240.232,-168.241 286.913,-172.412 313.646,-176.738"/>
<polygon fill="#9a32cd" stroke="#9a32cd" points="176.638,-199.364 172.855,-209.26 181.984,-203.883 176.638,-199.364"/>
<text text-anchor="middle" x="250" y="-197" font-family="Helvetica,sans-Serif" font-size="10.00"> TemporaryFileName</text>
<text text-anchor="middle" x="250" y="-186" font-family="Helvetica,sans-Serif" font-size="10.00">FileName</text>
</g>
<!-- Node26 -->
<g id="node26" class="node"><title>Node26</title>
<polygon fill="white" stroke="#bfbfbf" points="376,-532.5 376,-551.5 468,-551.5 468,-532.5 376,-532.5"/>
<text text-anchor="middle" x="422" y="-539.5" font-family="Helvetica,sans-Serif" font-size="10.00">set&lt; std::string &gt;</text>
</g>
<!-- Node16&#45;&gt;Node26 -->
<g id="edge33" class="edge"><title>Node16&#45;&gt;Node26</title>
<path fill="none" stroke="#9a32cd" stroke-dasharray="5,2" d="M174.14,-238.16C193.497,-282.154 245.801,-392.279 314,-466 340.769,-494.936 380.223,-519.471 402.992,-532.338"/>
<polygon fill="#9a32cd" stroke="#9a32cd" points="177.318,-236.689 170.129,-228.907 170.895,-239.474 177.318,-236.689"/>
<text text-anchor="middle" x="250" y="-448" font-family="Helvetica,sans-Serif" font-size="10.00"> keys</text>
</g>
<!-- Node17 -->
<g id="node17" class="node"><title>Node17</title>
<g id="a_node17"><a xlink:title="STL class. ">
<polygon fill="white" stroke="#bfbfbf" points="0,-209.5 0,-228.5 106,-228.5 106,-209.5 0,-209.5"/>
<text text-anchor="middle" x="53" y="-216.5" font-family="Helvetica,sans-Serif" font-size="10.00">basic_string&lt; char &gt;</text>
</a>
</g>
</g>
<!-- Node17&#45;&gt;Node16 -->
<g id="edge19" class="edge"><title>Node17&#45;&gt;Node16</title>
<path fill="none" stroke="midnightblue" d="M116.338,-219C126.515,-219 136.35,-219 144.416,-219"/>
<polygon fill="midnightblue" stroke="midnightblue" points="116.101,-215.5 106.101,-219 116.101,-222.5 116.101,-215.5"/>
</g>
<!-- Node18 -->
<g id="node18" class="node"><title>Node18</title>
<g id="a_node18"><a xlink:href="structpkgCache_1_1Group.xhtml" target="_top" xlink:title="groups architecture depending packages together ">
<polygon fill="white" stroke="black" points="520.5,-95.5 520.5,-114.5 563.5,-114.5 563.5,-95.5 520.5,-95.5"/>
<text text-anchor="middle" x="542" y="-102.5" font-family="Helvetica,sans-Serif" font-size="10.00">Group</text>
</a>
</g>
</g>
<!-- Node18&#45;&gt;Node7 -->
<g id="edge20" class="edge"><title>Node18&#45;&gt;Node7</title>
<path fill="none" stroke="#9a32cd" stroke-dasharray="5,2" d="M574.027,-99.0244C603.562,-95.31 647.09,-95.3206 672,-121 701.992,-151.918 666.498,-277.901 690,-314 692.435,-317.74 695.874,-320.815 699.638,-323.318"/>
<polygon fill="#9a32cd" stroke="#9a32cd" points="573.225,-95.6047 563.84,-100.521 574.242,-102.53 573.225,-95.6047"/>
<text text-anchor="middle" x="644" y="-124" font-family="Helvetica,sans-Serif" font-size="10.00"> GrpP</text>
</g>
<!-- Node19 -->
<g id="node19" class="node"><title>Node19</title>
<g id="a_node19"><a xlink:href="classpkgVersioningSystem.xhtml" target="_top" xlink:title="pkgVersioningSystem">
<polygon fill="white" stroke="black" points="486,-28.5 486,-47.5 598,-47.5 598,-28.5 486,-28.5"/>
<text text-anchor="middle" x="542" y="-35.5" font-family="Helvetica,sans-Serif" font-size="10.00">pkgVersioningSystem</text>
</a>
</g>
</g>
<!-- Node19&#45;&gt;Node7 -->
<g id="edge21" class="edge"><title>Node19&#45;&gt;Node7</title>
<path fill="none" stroke="#9a32cd" stroke-dasharray="5,2" d="M607.927,-45.669C631.738,-51.8718 656.605,-63.0178 672,-83 703.425,-123.787 662.237,-270.637 690,-314 692.406,-317.759 695.832,-320.842 699.591,-323.349"/>
<polygon fill="#9a32cd" stroke="#9a32cd" points="608.708,-42.2572 598.172,-43.3764 607.106,-49.0716 608.708,-42.2572"/>
<text text-anchor="middle" x="644" y="-86" font-family="Helvetica,sans-Serif" font-size="10.00"> VS</text>
</g>
<!-- Node19&#45;&gt;Node19 -->
<g id="edge22" class="edge"><title>Node19&#45;&gt;Node19</title>
<path fill="none" stroke="#9a32cd" stroke-dasharray="5,2" d="M523.112,-57.4C524.373,-62.3146 530.669,-66 542,-66 560.129,-66 565.369,-56.5653 557.721,-47.7571"/>
<polygon fill="#9a32cd" stroke="#9a32cd" points="526.484,-58.3499 526.279,-47.7571 519.833,-56.1658 526.484,-58.3499"/>
<text text-anchor="middle" x="542" y="-69" font-family="Helvetica,sans-Serif" font-size="10.00"> GlobalList</text>
</g>
<!-- Node20 -->
<g id="node20" class="node"><title>Node20</title>
<g id="a_node20"><a xlink:href="structpkgCache_1_1Version.xhtml" target="_top" xlink:title="information for a single version of a package ">
<polygon fill="white" stroke="black" points="517,-551.5 517,-570.5 567,-570.5 567,-551.5 517,-551.5"/>
<text text-anchor="middle" x="542" y="-558.5" font-family="Helvetica,sans-Serif" font-size="10.00">Version</text>
</a>
</g>
</g>
<!-- Node20&#45;&gt;Node7 -->
<g id="edge23" class="edge"><title>Node20&#45;&gt;Node7</title>
<path fill="none" stroke="#9a32cd" stroke-dasharray="5,2" d="M577.522,-564.599C607.054,-565.593 648.418,-561.652 672,-536 697.261,-508.521 674.369,-402.895 690,-369 694.824,-358.539 703.914,-349.166 711.481,-342.608"/>
<polygon fill="#9a32cd" stroke="#9a32cd" points="577.407,-561.088 567.232,-564.041 577.027,-568.078 577.407,-561.088"/>
<text text-anchor="middle" x="644" y="-565" font-family="Helvetica,sans-Serif" font-size="10.00"> VerP</text>
</g>
<!-- Node21 -->
<g id="node21" class="node"><title>Node21</title>
<g id="a_node21"><a xlink:href="structpkgCache_1_1VerFile.xhtml" target="_top" xlink:title="associates a version with a PackageFile ">
<polygon fill="white" stroke="black" points="518.5,-247.5 518.5,-266.5 565.5,-266.5 565.5,-247.5 518.5,-247.5"/>
<text text-anchor="middle" x="542" y="-254.5" font-family="Helvetica,sans-Serif" font-size="10.00">VerFile</text>
</a>
</g>
</g>
<!-- Node21&#45;&gt;Node7 -->
<g id="edge24" class="edge"><title>Node21&#45;&gt;Node7</title>
<path fill="none" stroke="#9a32cd" stroke-dasharray="5,2" d="M575.603,-260.237C603.132,-264.221 642.645,-272.976 672,-292 682.602,-298.871 680.316,-305.887 690,-314 694.147,-317.474 699.022,-320.632 703.766,-323.333"/>
<polygon fill="#9a32cd" stroke="#9a32cd" points="576.056,-256.767 565.685,-258.932 575.143,-263.707 576.056,-256.767"/>
<text text-anchor="middle" x="644" y="-295" font-family="Helvetica,sans-Serif" font-size="10.00"> VerFileP</text>
</g>
<!-- Node22 -->
<g id="node22" class="node"><title>Node22</title>
<g id="a_node22"><a xlink:href="structpkgCache_1_1Package.xhtml" target="_top" xlink:title="contains information for a single unique package ">
<polygon fill="white" stroke="black" points="514.5,-133.5 514.5,-152.5 569.5,-152.5 569.5,-133.5 514.5,-133.5"/>
<text text-anchor="middle" x="542" y="-140.5" font-family="Helvetica,sans-Serif" font-size="10.00">Package</text>
</a>
</g>
</g>
<!-- Node22&#45;&gt;Node7 -->
<g id="edge25" class="edge"><title>Node22&#45;&gt;Node7</title>
<path fill="none" stroke="#9a32cd" stroke-dasharray="5,2" d="M579.743,-136.171C608.83,-133.064 648.369,-134.348 672,-158 696.665,-182.687 670.642,-284.965 690,-314 692.551,-317.826 696.145,-320.96 700.049,-323.499"/>
<polygon fill="#9a32cd" stroke="#9a32cd" points="579.02,-132.735 569.548,-137.48 579.912,-139.677 579.02,-132.735"/>
<text text-anchor="middle" x="644" y="-161" font-family="Helvetica,sans-Serif" font-size="10.00"> PkgP</text>
</g>
<!-- Node23 -->
<g id="node23" class="node"><title>Node23</title>
<g id="a_node23"><a xlink:href="classMMap.xhtml" target="_top" xlink:title="MMap">
<polygon fill="white" stroke="black" points="520,-171.5 520,-190.5 564,-190.5 564,-171.5 520,-171.5"/>
<text text-anchor="middle" x="542" y="-178.5" font-family="Helvetica,sans-Serif" font-size="10.00">MMap</text>
</a>
</g>
</g>
<!-- Node23&#45;&gt;Node7 -->
<g id="edge26" class="edge"><title>Node23&#45;&gt;Node7</title>
<path fill="none" stroke="#9a32cd" stroke-dasharray="5,2" d="M574.119,-174.443C603.343,-170.263 646.309,-169.524 672,-194 711.047,-231.199 659.325,-269.644 690,-314 692.615,-317.782 696.24,-320.895 700.154,-323.428"/>
<polygon fill="#9a32cd" stroke="#9a32cd" points="573.332,-171.025 564.031,-176.099 574.466,-177.933 573.332,-171.025"/>
<text text-anchor="middle" x="644" y="-197" font-family="Helvetica,sans-Serif" font-size="10.00"> Map</text>
</g>
<!-- Node24&#45;&gt;Node23 -->
<g id="edge27" class="edge"><title>Node24&#45;&gt;Node23</title>
<path fill="none" stroke="#9a32cd" stroke-dasharray="5,2" d="M368.26,-181C410.222,-181 483.653,-181 519.746,-181"/>
<polygon fill="#9a32cd" stroke="#9a32cd" points="368.063,-177.5 358.063,-181 368.063,-184.5 368.063,-177.5"/>
<text text-anchor="middle" x="422" y="-184" font-family="Helvetica,sans-Serif" font-size="10.00"> SyncToFd</text>
</g>
<!-- Node25 -->
<g id="node25" class="node"><title>Node25</title>
<g id="a_node25"><a xlink:href="structpkgDepCache_1_1StateCache.xhtml" target="_top" xlink:title="StateCache">
<polygon fill="white" stroke="black" points="691,-285.5 691,-304.5 759,-304.5 759,-285.5 691,-285.5"/>
<text text-anchor="middle" x="725" y="-292.5" font-family="Helvetica,sans-Serif" font-size="10.00">StateCache</text>
</a>
</g>
</g>
<!-- Node25&#45;&gt;Node5 -->
<g id="edge29" class="edge"><title>Node25&#45;&gt;Node5</title>
<path fill="none" stroke="#9a32cd" stroke-dasharray="5,2" d="M769.464,-293.615C795.295,-293.381 828.641,-294.108 858,-298 865.677,-299.018 873.82,-300.665 881.475,-302.478"/>
<polygon fill="#9a32cd" stroke="#9a32cd" points="769.194,-290.118 759.245,-293.76 769.294,-297.117 769.194,-290.118"/>
<text text-anchor="middle" x="818" y="-301" font-family="Helvetica,sans-Serif" font-size="10.00"> PkgState</text>
</g>
<!-- Node26&#45;&gt;Node2 -->
<g id="edge32" class="edge"><title>Node26&#45;&gt;Node2</title>
<path fill="none" stroke="#9a32cd" stroke-dasharray="5,2" d="M443.492,-557.41C455.306,-565.487 470.794,-574.764 486,-580 552.458,-602.882 572.713,-599 643,-599 643,-599 643,-599 1073,-599 1187.13,-599 1222.79,-408.901 1229.67,-363.604"/>
<polygon fill="#9a32cd" stroke="#9a32cd" points="445.42,-554.487 435.239,-551.554 441.37,-560.195 445.42,-554.487"/>
<text text-anchor="middle" x="818" y="-602" font-family="Helvetica,sans-Serif" font-size="10.00"> disappearedPkgs</text>
</g>
<!-- Node27&#45;&gt;Node1 -->
<g id="edge36" class="edge"><title>Node27&#45;&gt;Node1</title>
<path fill="none" stroke="#9a32cd" stroke-dasharray="5,2" d="M1028.24,-400.967C1081.79,-400.251 1194.25,-395.856 1286,-373 1316.48,-365.407 1349.32,-348.996 1368.47,-338.503"/>
<polygon fill="#9a32cd" stroke="#9a32cd" points="1028,-397.469 1018.03,-401.067 1028.07,-404.469 1028,-397.469"/>
<text text-anchor="middle" x="1143" y="-399" font-family="Helvetica,sans-Serif" font-size="10.00"> iPolicy</text>
</g>
<!-- Node28 -->
<g id="node28" class="node"><title>Node28</title>
<g id="a_node28"><a xlink:href="classpkgDepCache_1_1ActionGroup.xhtml" target="_top" xlink:title="Represents an active action group. ">
<polygon fill="white" stroke="black" points="1196.5,-264.5 1196.5,-283.5 1267.5,-283.5 1267.5,-264.5 1196.5,-264.5"/>
<text text-anchor="middle" x="1232" y="-271.5" font-family="Helvetica,sans-Serif" font-size="10.00">ActionGroup</text>
</a>
</g>
</g>
<!-- Node28&#45;&gt;Node1 -->
<g id="edge38" class="edge"><title>Node28&#45;&gt;Node1</title>
<path fill="none" stroke="#9a32cd" stroke-dasharray="5,2" d="M1277.63,-274.776C1295.13,-276.368 1315.05,-279.827 1332,-287 1349.52,-294.412 1366.09,-309.263 1375.89,-319.169"/>
<polygon fill="#9a32cd" stroke="#9a32cd" points="1277.87,-271.284 1267.64,-274.04 1277.35,-278.265 1277.87,-271.284"/>
<text text-anchor="middle" x="1318" y="-290" font-family="Helvetica,sans-Serif" font-size="10.00"> group</text>
</g>
</g>
</svg>
        <g id="navigator" transform="translate(0 0)" fill="#404254">
                <rect fill="#f2f5e9" fill-opacity="0.5" stroke="#606060" stroke-width=".5" x="0" y="0" width="60" height="60"/>
                <use id="zoomplus" xlink:href="#zoomPlus" x="17" y="9" onmousedown="handleZoom(evt,'in')"/>
                <use id="zoomminus" xlink:href="#zoomMin" x="42" y="9" onmousedown="handleZoom(evt,'out')"/>
                <use id="reset" xlink:href="#resetDef" x="30" y="36" onmousedown="handleReset()"/>
                <g id="arrowUp" xlink:href="#dirArrow" transform="translate(30 24)" onmousedown="handlePan(0,-1)">
                  <use xlink:href="#rim" fill="#404040">
                        <set attributeName="fill" to="#808080" begin="arrowUp.mouseover" end="arrowUp.mouseout"/>
                  </use>
                  <path fill="none" stroke="white" stroke-width="1.5" d="M0,-3.0v7 M-2.5,-0.5L0,-3.0L2.5,-0.5"/>
                </g>
                <g id="arrowRight" xlink:href="#dirArrow" transform="rotate(90) translate(36 -43)" onmousedown="handlePan(1,0)">
                  <use xlink:href="#rim" fill="#404040">
                        <set attributeName="fill" to="#808080" begin="arrowRight.mouseover" end="arrowRight.mouseout"/>
                  </use>
                  <path fill="none" stroke="white" stroke-width="1.5" d="M0,-3.0v7 M-2.5,-0.5L0,-3.0L2.5,-0.5"/>
                </g>
                <g id="arrowDown" xlink:href="#dirArrow" transform="rotate(180) translate(-30 -48)" onmousedown="handlePan(0,1)">
                  <use xlink:href="#rim" fill="#404040">
                        <set attributeName="fill" to="#808080" begin="arrowDown.mouseover" end="arrowDown.mouseout"/>
                  </use>
                  <path fill="none" stroke="white" stroke-width="1.5" d="M0,-3.0v7 M-2.5,-0.5L0,-3.0L2.5,-0.5"/>
                </g>
                <g id="arrowLeft" xlink:href="#dirArrow" transform="rotate(270) translate(-36 17)" onmousedown="handlePan(-1,0)">
                  <use xlink:href="#rim" fill="#404040">
                        <set attributeName="fill" to="#808080" begin="arrowLeft.mouseover" end="arrowLeft.mouseout"/>
                  </use>
                  <path fill="none" stroke="white" stroke-width="1.5" d="M0,-3.0v7 M-2.5,-0.5L0,-3.0L2.5,-0.5"/>
                </g>
        </g>
        <svg viewBox="0 0 15 15" width="100%" height="30px" preserveAspectRatio="xMaxYMin meet">
         <g id="arrow_out" transform="scale(0.3 0.3)">
          <a xlink:href="classpkgSimulate__coll__graph_org.svg" target="_base">
           <rect id="button" ry="5" rx="5" y="6" x="6" height="38" width="38"
                fill="#f2f5e9" fill-opacity="0.5" stroke="#606060" stroke-width="1.0"/>
           <path id="arrow"
             d="M 11.500037,31.436501 C 11.940474,20.09759 22.043105,11.32322 32.158766,21.979434 L 37.068811,17.246167 C 37.068811,17.246167 37.088388,32 37.088388,32 L 22.160133,31.978069 C 22.160133,31.978069 26.997745,27.140456 26.997745,27.140456 C 18.528582,18.264221 13.291696,25.230495 11.500037,31.436501 z"
             style="fill:#404040;"/>
          </a>
         </g>
        </svg>
</svg>
