<?xml version="1.0" encoding="UTF-8" standalone="no"?>
<!DOCTYPE svg PUBLIC "-//W3C//DTD SVG 1.1//EN"
 "http://www.w3.org/Graphics/SVG/1.1/DTD/svg11.dtd">
<!-- Generated by graphviz version 2.36.0 (20140111.2315)
 -->
<!-- Title: pkgDPkgPM Pages: 1 -->
<svg width="1736pt" height="824pt"
 viewBox="0.00 0.00 1736.00 824.00" xmlns="http://www.w3.org/2000/svg" xmlns:xlink="http://www.w3.org/1999/xlink">
<g id="graph0" class="graph" transform="scale(1 1) rotate(0) translate(4 820)">
<title>pkgDPkgPM</title>
<polygon fill="white" stroke="none" points="-4,4 -4,-820 1732,-820 1732,4 -4,4"/>
<!-- Node1 -->
<g id="node1" class="node"><title>Node1</title>
<polygon fill="#bfbfbf" stroke="black" points="1656,-99.5 1656,-118.5 1728,-118.5 1728,-99.5 1656,-99.5"/>
<text text-anchor="middle" x="1692" y="-106.5" font-family="Helvetica,sans-Serif" font-size="10.00">pkgDPkgPM</text>
</g>
<!-- Node2 -->
<g id="node2" class="node"><title>Node2</title>
<g id="a_node2"><a xlink:href="classpkgPackageManager.xhtml" target="_top" xlink:title="pkgPackageManager">
<polygon fill="white" stroke="black" points="1510,-226.5 1510,-245.5 1618,-245.5 1618,-226.5 1510,-226.5"/>
<text text-anchor="middle" x="1564" y="-233.5" font-family="Helvetica,sans-Serif" font-size="10.00">pkgPackageManager</text>
</a>
</g>
</g>
<!-- Node2&#45;&gt;Node1 -->
<g id="edge1" class="edge"><title>Node2&#45;&gt;Node1</title>
<path fill="none" stroke="midnightblue" d="M1581.6,-219.267C1608.33,-192.326 1660.06,-140.183 1681.42,-118.656"/>
<polygon fill="midnightblue" stroke="midnightblue" points="1579.03,-216.89 1574.47,-226.454 1584,-221.82 1579.03,-216.89"/>
</g>
<!-- Node3 -->
<g id="node3" class="node"><title>Node3</title>
<g id="a_node3"><a xlink:href="classpkgCache_1_1Namespace.xhtml" target="_top" xlink:title="Namespace">
<polygon fill="white" stroke="black" points="982.5,-249.5 982.5,-268.5 1051.5,-268.5 1051.5,-249.5 982.5,-249.5"/>
<text text-anchor="middle" x="1017" y="-256.5" font-family="Helvetica,sans-Serif" font-size="10.00">Namespace</text>
</a>
</g>
</g>
<!-- Node3&#45;&gt;Node2 -->
<g id="edge2" class="edge"><title>Node3&#45;&gt;Node2</title>
<path fill="none" stroke="darkgreen" d="M1061.76,-257.176C1125.58,-254.514 1247.91,-249.401 1352,-245 1405.67,-242.731 1467.01,-240.111 1509.67,-238.286"/>
<polygon fill="darkgreen" stroke="darkgreen" points="1061.51,-253.684 1051.66,-257.597 1061.8,-260.677 1061.51,-253.684"/>
</g>
<!-- Node4 -->
<g id="node4" class="node"><title>Node4</title>
<g id="a_node4"><a xlink:href="classpkgOrderList.xhtml" target="_top" xlink:title="pkgOrderList">
<polygon fill="white" stroke="black" points="1376,-182.5 1376,-201.5 1448,-201.5 1448,-182.5 1376,-182.5"/>
<text text-anchor="middle" x="1412" y="-189.5" font-family="Helvetica,sans-Serif" font-size="10.00">pkgOrderList</text>
</a>
</g>
</g>
<!-- Node3&#45;&gt;Node4 -->
<g id="edge4" class="edge"><title>Node3&#45;&gt;Node4</title>
<path fill="none" stroke="darkgreen" d="M1060.91,-247.055C1063.98,-246.322 1067.03,-245.628 1070,-245 1180.78,-221.551 1313.85,-203.838 1375.92,-196.172"/>
<polygon fill="darkgreen" stroke="darkgreen" points="1060.01,-243.674 1051.16,-249.496 1061.71,-250.464 1060.01,-243.674"/>
</g>
<!-- Node5 -->
<g id="node5" class="node"><title>Node5</title>
<g id="a_node5"><a xlink:href="classpkgDepCache.xhtml" target="_top" xlink:title="pkgDepCache">
<polygon fill="white" stroke="black" points="1222.5,-304.5 1222.5,-323.5 1301.5,-323.5 1301.5,-304.5 1222.5,-304.5"/>
<text text-anchor="middle" x="1262" y="-311.5" font-family="Helvetica,sans-Serif" font-size="10.00">pkgDepCache</text>
</a>
</g>
</g>
<!-- Node3&#45;&gt;Node5 -->
<g id="edge7" class="edge"><title>Node3&#45;&gt;Node5</title>
<path fill="none" stroke="darkgreen" d="M1061.44,-268.831C1107.12,-279.171 1178.34,-295.291 1222.2,-305.217"/>
<polygon fill="darkgreen" stroke="darkgreen" points="1062.06,-265.384 1051.53,-266.59 1060.51,-272.211 1062.06,-265.384"/>
</g>
<!-- Node4&#45;&gt;Node2 -->
<g id="edge3" class="edge"><title>Node4&#45;&gt;Node2</title>
<path fill="none" stroke="#9a32cd" stroke-dasharray="5,2" d="M1455.39,-204.435C1479.23,-211.426 1508.51,-220.018 1530.52,-226.471"/>
<polygon fill="#9a32cd" stroke="#9a32cd" points="1456.13,-201.004 1445.55,-201.547 1454.16,-207.721 1456.13,-201.004"/>
<text text-anchor="middle" x="1482" y="-217" font-family="Helvetica,sans-Serif" font-size="10.00"> List</text>
</g>
<!-- Node4&#45;&gt;Node4 -->
<g id="edge5" class="edge"><title>Node4&#45;&gt;Node4</title>
<path fill="none" stroke="#9a32cd" stroke-dasharray="5,2" d="M1399.11,-211.766C1400.12,-216.497 1404.42,-220 1412,-220 1424.44,-220 1428.04,-210.565 1422.79,-201.757"/>
<polygon fill="#9a32cd" stroke="#9a32cd" points="1402.58,-212.263 1401.21,-201.757 1395.73,-210.824 1402.58,-212.263"/>
<text text-anchor="middle" x="1412" y="-223" font-family="Helvetica,sans-Serif" font-size="10.00"> Me</text>
</g>
<!-- Node5&#45;&gt;Node2 -->
<g id="edge31" class="edge"><title>Node5&#45;&gt;Node2</title>
<path fill="none" stroke="#9a32cd" stroke-dasharray="5,2" d="M1311.8,-309.592C1358.91,-304.337 1431.76,-293.551 1492,-273 1512.26,-266.088 1533.84,-254.103 1547.82,-245.649"/>
<polygon fill="#9a32cd" stroke="#9a32cd" points="1311.14,-306.143 1301.57,-310.692 1311.89,-313.103 1311.14,-306.143"/>
<text text-anchor="middle" x="1412" y="-305" font-family="Helvetica,sans-Serif" font-size="10.00"> Cache</text>
</g>
<!-- Node5&#45;&gt;Node4 -->
<g id="edge6" class="edge"><title>Node5&#45;&gt;Node4</title>
<path fill="none" stroke="#9a32cd" stroke-dasharray="5,2" d="M1282.62,-297.826C1313.92,-272.022 1374.2,-222.334 1399.44,-201.529"/>
<polygon fill="#9a32cd" stroke="#9a32cd" points="1280.1,-295.365 1274.61,-304.427 1284.56,-300.767 1280.1,-295.365"/>
<text text-anchor="middle" x="1336" y="-267" font-family="Helvetica,sans-Serif" font-size="10.00"> Cache</text>
</g>
<!-- Node6 -->
<g id="node6" class="node"><title>Node6</title>
<g id="a_node6"><a xlink:href="classpkgDepCache_1_1Policy.xhtml" target="_top" xlink:title="Policy">
<polygon fill="white" stroke="black" points="995,-410.5 995,-429.5 1039,-429.5 1039,-410.5 995,-410.5"/>
<text text-anchor="middle" x="1017" y="-417.5" font-family="Helvetica,sans-Serif" font-size="10.00">Policy</text>
</a>
</g>
</g>
<!-- Node6&#45;&gt;Node5 -->
<g id="edge8" class="edge"><title>Node6&#45;&gt;Node5</title>
<path fill="none" stroke="#9a32cd" stroke-dasharray="5,2" d="M1049.36,-420.297C1088.3,-419.305 1155.5,-413.025 1204,-384 1228.74,-369.191 1247.36,-339.508 1255.88,-323.983"/>
<polygon fill="#9a32cd" stroke="#9a32cd" points="1049.11,-416.8 1039.17,-420.451 1049.22,-423.799 1049.11,-416.8"/>
<text text-anchor="middle" x="1137" y="-434" font-family="Helvetica,sans-Serif" font-size="10.00"> LocalPolicy</text>
<text text-anchor="middle" x="1137" y="-423" font-family="Helvetica,sans-Serif" font-size="10.00">delLocalPolicy</text>
</g>
<!-- Node7 -->
<g id="node7" class="node"><title>Node7</title>
<g id="a_node7"><a xlink:href="classpkgCache.xhtml" target="_top" xlink:title="pkgCache">
<polygon fill="white" stroke="black" points="986.5,-372.5 986.5,-391.5 1047.5,-391.5 1047.5,-372.5 986.5,-372.5"/>
<text text-anchor="middle" x="1017" y="-379.5" font-family="Helvetica,sans-Serif" font-size="10.00">pkgCache</text>
</a>
</g>
</g>
<!-- Node7&#45;&gt;Node5 -->
<g id="edge9" class="edge"><title>Node7&#45;&gt;Node5</title>
<path fill="none" stroke="#9a32cd" stroke-dasharray="5,2" d="M1057.83,-371.826C1095.59,-362.055 1153.83,-346.657 1204,-332 1212.97,-329.381 1222.67,-326.379 1231.49,-323.586"/>
<polygon fill="#9a32cd" stroke="#9a32cd" points="1056.56,-368.54 1047.75,-374.427 1058.3,-375.318 1056.56,-368.54"/>
<text text-anchor="middle" x="1137" y="-372" font-family="Helvetica,sans-Serif" font-size="10.00"> Cache</text>
</g>
<!-- Node8 -->
<g id="node8" class="node"><title>Node8</title>
<g id="a_node8"><a xlink:href="structpkgCache_1_1Dependency.xhtml" target="_top" xlink:title="information for a single dependency record ">
<polygon fill="white" stroke="black" points="740.5,-315.5 740.5,-334.5 811.5,-334.5 811.5,-315.5 740.5,-315.5"/>
<text text-anchor="middle" x="776" y="-322.5" font-family="Helvetica,sans-Serif" font-size="10.00">Dependency</text>
</a>
</g>
</g>
<!-- Node8&#45;&gt;Node7 -->
<g id="edge10" class="edge"><title>Node8&#45;&gt;Node7</title>
<path fill="none" stroke="#9a32cd" stroke-dasharray="5,2" d="M822.03,-327.202C860.589,-330.149 917.14,-337.018 964,-353 977.697,-357.671 991.965,-365.906 1002.08,-372.41"/>
<polygon fill="#9a32cd" stroke="#9a32cd" points="821.876,-323.683 811.655,-326.471 821.384,-330.666 821.876,-323.683"/>
<text text-anchor="middle" x="907" y="-356" font-family="Helvetica,sans-Serif" font-size="10.00"> DepP</text>
</g>
<!-- Node9 -->
<g id="node9" class="node"><title>Node9</title>
<g id="a_node9"><a xlink:href="structpkgCache_1_1Description.xhtml" target="_top" xlink:title="datamember of a linked list of available description for a version ">
<polygon fill="white" stroke="black" points="743,-277.5 743,-296.5 809,-296.5 809,-277.5 743,-277.5"/>
<text text-anchor="middle" x="776" y="-284.5" font-family="Helvetica,sans-Serif" font-size="10.00">Description</text>
</a>
</g>
</g>
<!-- Node9&#45;&gt;Node7 -->
<g id="edge11" class="edge"><title>Node9&#45;&gt;Node7</title>
<path fill="none" stroke="#9a32cd" stroke-dasharray="5,2" d="M819.307,-284.984C859.24,-284.973 919.47,-289.988 964,-316 970.046,-319.532 996.273,-354.891 1009.01,-372.35"/>
<polygon fill="#9a32cd" stroke="#9a32cd" points="819.074,-281.487 809.113,-285.097 819.151,-288.486 819.074,-281.487"/>
<text text-anchor="middle" x="907" y="-319" font-family="Helvetica,sans-Serif" font-size="10.00"> DescP</text>
</g>
<!-- Node10 -->
<g id="node10" class="node"><title>Node10</title>
<g id="a_node10"><a xlink:href="structpkgCache_1_1Header.xhtml" target="_top" xlink:title="Header">
<polygon fill="white" stroke="black" points="752,-239.5 752,-258.5 800,-258.5 800,-239.5 752,-239.5"/>
<text text-anchor="middle" x="776" y="-246.5" font-family="Helvetica,sans-Serif" font-size="10.00">Header</text>
</a>
</g>
</g>
<!-- Node10&#45;&gt;Node7 -->
<g id="edge12" class="edge"><title>Node10&#45;&gt;Node7</title>
<path fill="none" stroke="#9a32cd" stroke-dasharray="5,2" d="M810.053,-243.011C851.18,-237.578 921.195,-235.245 964,-272 986.418,-291.249 969.006,-309.463 982,-336 988.726,-349.735 999.663,-363.592 1007.31,-372.453"/>
<polygon fill="#9a32cd" stroke="#9a32cd" points="809.397,-239.57 800.007,-244.477 810.407,-246.497 809.397,-239.57"/>
<text text-anchor="middle" x="907" y="-275" font-family="Helvetica,sans-Serif" font-size="10.00"> HeaderP</text>
</g>
<!-- Node11 -->
<g id="node11" class="node"><title>Node11</title>
<g id="a_node11"><a xlink:href="structDynamicMMap_1_1Pool.xhtml" target="_top" xlink:title="Pool">
<polygon fill="white" stroke="black" points="503,-239.5 503,-258.5 539,-258.5 539,-239.5 503,-239.5"/>
<text text-anchor="middle" x="521" y="-246.5" font-family="Helvetica,sans-Serif" font-size="10.00">Pool</text>
</a>
</g>
</g>
<!-- Node11&#45;&gt;Node10 -->
<g id="edge13" class="edge"><title>Node11&#45;&gt;Node10</title>
<path fill="none" stroke="#9a32cd" stroke-dasharray="5,2" d="M549.484,-249C599.602,-249 704.98,-249 751.768,-249"/>
<polygon fill="#9a32cd" stroke="#9a32cd" points="549.39,-245.5 539.39,-249 549.39,-252.5 549.39,-245.5"/>
<text text-anchor="middle" x="656" y="-252" font-family="Helvetica,sans-Serif" font-size="10.00"> Pools</text>
</g>
<!-- Node12 -->
<g id="node12" class="node"><title>Node12</title>
<g id="a_node12"><a xlink:href="structpkgCache_1_1PackageFile.xhtml" target="_top" xlink:title="stores information about the files used to generate the cache ">
<polygon fill="white" stroke="black" points="740.5,-201.5 740.5,-220.5 811.5,-220.5 811.5,-201.5 740.5,-201.5"/>
<text text-anchor="middle" x="776" y="-208.5" font-family="Helvetica,sans-Serif" font-size="10.00">PackageFile</text>
</a>
</g>
</g>
<!-- Node12&#45;&gt;Node7 -->
<g id="edge14" class="edge"><title>Node12&#45;&gt;Node7</title>
<path fill="none" stroke="#9a32cd" stroke-dasharray="5,2" d="M821.588,-200.292C863.768,-193.042 926.103,-190.231 964,-225 1000.83,-258.787 962.601,-289.941 982,-336 987.859,-349.911 998.747,-363.52 1006.63,-372.281"/>
<polygon fill="#9a32cd" stroke="#9a32cd" points="820.778,-196.883 811.59,-202.158 822.062,-203.764 820.778,-196.883"/>
<text text-anchor="middle" x="907" y="-228" font-family="Helvetica,sans-Serif" font-size="10.00"> PkgFileP</text>
</g>
<!-- Node13 -->
<g id="node13" class="node"><title>Node13</title>
<g id="a_node13"><a xlink:href="structpkgCache_1_1DescFile.xhtml" target="_top" xlink:title="associates a description with a Translation file ">
<polygon fill="white" stroke="black" points="748,-163.5 748,-182.5 804,-182.5 804,-163.5 748,-163.5"/>
<text text-anchor="middle" x="776" y="-170.5" font-family="Helvetica,sans-Serif" font-size="10.00">DescFile</text>
</a>
</g>
</g>
<!-- Node13&#45;&gt;Node7 -->
<g id="edge15" class="edge"><title>Node13&#45;&gt;Node7</title>
<path fill="none" stroke="#9a32cd" stroke-dasharray="5,2" d="M814.17,-161.951C856.241,-151.968 924.095,-143.901 964,-181 989.396,-204.61 969.265,-303.747 982,-336 987.544,-350.04 998.491,-363.624 1006.47,-372.344"/>
<polygon fill="#9a32cd" stroke="#9a32cd" points="813.159,-158.596 804.319,-164.435 814.871,-165.384 813.159,-158.596"/>
<text text-anchor="middle" x="907" y="-184" font-family="Helvetica,sans-Serif" font-size="10.00"> DescFileP</text>
</g>
<!-- Node14 -->
<g id="node14" class="node"><title>Node14</title>
<g id="a_node14"><a xlink:href="structpkgCache_1_1StringItem.xhtml" target="_top" xlink:title="used for generating single instances of strings ">
<polygon fill="white" stroke="black" points="745,-686.5 745,-705.5 807,-705.5 807,-686.5 745,-686.5"/>
<text text-anchor="middle" x="776" y="-693.5" font-family="Helvetica,sans-Serif" font-size="10.00">StringItem</text>
</a>
</g>
</g>
<!-- Node14&#45;&gt;Node7 -->
<g id="edge16" class="edge"><title>Node14&#45;&gt;Node7</title>
<path fill="none" stroke="#9a32cd" stroke-dasharray="5,2" d="M817.442,-704.526C860.359,-710.954 926.977,-712.972 964,-674 1005.87,-629.921 949.524,-452.398 982,-401 984.384,-397.227 987.799,-394.137 991.554,-391.628"/>
<polygon fill="#9a32cd" stroke="#9a32cd" points="817.775,-701.034 807.34,-702.866 816.64,-707.941 817.775,-701.034"/>
<text text-anchor="middle" x="907" y="-712" font-family="Helvetica,sans-Serif" font-size="10.00"> StringItemP</text>
</g>
<!-- Node15 -->
<g id="node15" class="node"><title>Node15</title>
<g id="a_node15"><a xlink:href="structpkgCache_1_1Provides.xhtml" target="_top" xlink:title="handles virtual packages ">
<polygon fill="white" stroke="black" points="748.5,-648.5 748.5,-667.5 803.5,-667.5 803.5,-648.5 748.5,-648.5"/>
<text text-anchor="middle" x="776" y="-655.5" font-family="Helvetica,sans-Serif" font-size="10.00">Provides</text>
</a>
</g>
</g>
<!-- Node15&#45;&gt;Node7 -->
<g id="edge17" class="edge"><title>Node15&#45;&gt;Node7</title>
<path fill="none" stroke="#9a32cd" stroke-dasharray="5,2" d="M813.699,-658.97C862.229,-659.397 943.962,-656.87 964,-636 1000.27,-598.22 953.788,-445.128 982,-401 984.404,-397.24 987.828,-394.156 991.587,-391.649"/>
<polygon fill="#9a32cd" stroke="#9a32cd" points="813.637,-655.469 803.591,-658.834 813.543,-662.468 813.637,-655.469"/>
<text text-anchor="middle" x="907" y="-662" font-family="Helvetica,sans-Serif" font-size="10.00"> ProvideP</text>
</g>
<!-- Node16 -->
<g id="node16" class="node"><title>Node16</title>
<g id="a_node16"><a xlink:title="STL class. ">
<polygon fill="white" stroke="#bfbfbf" points="233.5,-181.5 233.5,-200.5 274.5,-200.5 274.5,-181.5 233.5,-181.5"/>
<text text-anchor="middle" x="254" y="-188.5" font-family="Helvetica,sans-Serif" font-size="10.00">string</text>
</a>
</g>
</g>
<!-- Node16&#45;&gt;Node2 -->
<g id="edge34" class="edge"><title>Node16&#45;&gt;Node2</title>
<path fill="none" stroke="#9a32cd" stroke-dasharray="5,2" d="M255.28,-210.93C257.791,-308.819 282.373,-734 520,-734 520,-734 520,-734 1413,-734 1519.1,-734 1556.81,-314.352 1562.28,-245.504"/>
<polygon fill="#9a32cd" stroke="#9a32cd" points="258.778,-210.814 255.073,-200.888 251.78,-210.958 258.778,-210.814"/>
<text text-anchor="middle" x="1017" y="-737" font-family="Helvetica,sans-Serif" font-size="10.00"> FileNames</text>
</g>
<!-- Node16&#45;&gt;Node4 -->
<g id="edge30" class="edge"><title>Node16&#45;&gt;Node4</title>
<path fill="none" stroke="#9a32cd" stroke-dasharray="5,2" d="M284.154,-180.673C332.509,-164.494 432.638,-135 520,-135 520,-135 520,-135 1263,-135 1315.04,-135 1370.91,-166.068 1396.59,-182.331"/>
<polygon fill="#9a32cd" stroke="#9a32cd" points="282.985,-177.373 274.645,-183.908 285.24,-184 282.985,-177.373"/>
<text text-anchor="middle" x="907" y="-138" font-family="Helvetica,sans-Serif" font-size="10.00"> FileList</text>
</g>
<!-- Node16&#45;&gt;Node7 -->
<g id="edge18" class="edge"><title>Node16&#45;&gt;Node7</title>
<path fill="none" stroke="#9a32cd" stroke-dasharray="5,2" d="M264.592,-209.769C278.189,-234.63 305.319,-278.323 340,-304 381.809,-334.955 399.542,-331.343 450,-344 623.429,-387.503 671.231,-383.563 850,-387 900.657,-387.974 913.392,-389.428 964,-387 971.247,-386.652 979.043,-386.034 986.337,-385.347"/>
<polygon fill="#9a32cd" stroke="#9a32cd" points="267.538,-207.854 259.758,-200.662 261.355,-211.136 267.538,-207.854"/>
<text text-anchor="middle" x="656" y="-387" font-family="Helvetica,sans-Serif" font-size="10.00"> CacheFile</text>
</g>
<!-- Node24 -->
<g id="node24" class="node"><title>Node24</title>
<g id="a_node24"><a xlink:href="classFileFd.xhtml" target="_top" xlink:title="FileFd">
<polygon fill="white" stroke="black" points="499,-315.5 499,-334.5 543,-334.5 543,-315.5 499,-315.5"/>
<text text-anchor="middle" x="521" y="-322.5" font-family="Helvetica,sans-Serif" font-size="10.00">FileFd</text>
</a>
</g>
</g>
<!-- Node16&#45;&gt;Node24 -->
<g id="edge28" class="edge"><title>Node16&#45;&gt;Node24</title>
<path fill="none" stroke="#9a32cd" stroke-dasharray="5,2" d="M283.112,-205.215C337.359,-232.646 455.169,-292.218 501.115,-315.45"/>
<polygon fill="#9a32cd" stroke="#9a32cd" points="284.562,-202.026 274.058,-200.637 281.403,-208.273 284.562,-202.026"/>
<text text-anchor="middle" x="386" y="-292" font-family="Helvetica,sans-Serif" font-size="10.00"> TemporaryFileName</text>
<text text-anchor="middle" x="386" y="-281" font-family="Helvetica,sans-Serif" font-size="10.00">FileName</text>
</g>
<!-- Node26 -->
<g id="node26" class="node"><title>Node26</title>
<polygon fill="white" stroke="#bfbfbf" points="610,-87.5 610,-106.5 702,-106.5 702,-87.5 610,-87.5"/>
<text text-anchor="middle" x="656" y="-94.5" font-family="Helvetica,sans-Serif" font-size="10.00">set&lt; std::string &gt;</text>
</g>
<!-- Node16&#45;&gt;Node26 -->
<g id="edge33" class="edge"><title>Node16&#45;&gt;Node26</title>
<path fill="none" stroke="#9a32cd" stroke-dasharray="5,2" d="M267.217,-173.387C281.922,-153.849 308.593,-123.326 340,-110 429.561,-71.9992 546.614,-80.5017 609.803,-89.25"/>
<polygon fill="#9a32cd" stroke="#9a32cd" points="264.377,-171.343 261.33,-181.49 270.039,-175.457 264.377,-171.343"/>
<text text-anchor="middle" x="386" y="-113" font-family="Helvetica,sans-Serif" font-size="10.00"> keys</text>
</g>
<!-- Node28 -->
<g id="node28" class="node"><title>Node28</title>
<g id="a_node28"><a xlink:href="structpkgDPkgPM_1_1Item.xhtml" target="_top" xlink:title="Item">
<polygon fill="white" stroke="black" points="503,-10.5 503,-29.5 539,-29.5 539,-10.5 503,-10.5"/>
<text text-anchor="middle" x="521" y="-17.5" font-family="Helvetica,sans-Serif" font-size="10.00">Item</text>
</a>
</g>
</g>
<!-- Node16&#45;&gt;Node28 -->
<g id="edge37" class="edge"><title>Node16&#45;&gt;Node28</title>
<path fill="none" stroke="#9a32cd" stroke-dasharray="5,2" d="M259.136,-171.686C267.619,-137.319 290.512,-66.148 340,-34 391.256,-0.703571 468.866,-10.0092 502.941,-16.3343"/>
<polygon fill="#9a32cd" stroke="#9a32cd" points="255.72,-170.923 256.872,-181.455 262.539,-172.503 255.72,-170.923"/>
<text text-anchor="middle" x="386" y="-37" font-family="Helvetica,sans-Serif" font-size="10.00"> File</text>
</g>
<!-- Node29 -->
<g id="node29" class="node"><title>Node29</title>
<polygon fill="white" stroke="#bfbfbf" points="450,-762.5 450,-803.5 592,-803.5 592,-762.5 450,-762.5"/>
<text text-anchor="start" x="458" y="-791.5" font-family="Helvetica,sans-Serif" font-size="10.00">map&lt; std::string, std</text>
<text text-anchor="start" x="458" y="-780.5" font-family="Helvetica,sans-Serif" font-size="10.00">::vector&lt; struct pkgDPkgPM</text>
<text text-anchor="middle" x="521" y="-769.5" font-family="Helvetica,sans-Serif" font-size="10.00">::DpkgState &gt; &gt;</text>
</g>
<!-- Node16&#45;&gt;Node29 -->
<g id="edge39" class="edge"><title>Node16&#45;&gt;Node29</title>
<path fill="none" stroke="#9a32cd" stroke-dasharray="5,2" d="M255.14,-210.884C256.188,-300.482 265.06,-665.756 340,-745 355.087,-760.954 405.895,-770.732 449.699,-776.366"/>
<polygon fill="#9a32cd" stroke="#9a32cd" points="258.638,-210.704 255.042,-200.738 251.639,-210.772 258.638,-210.704"/>
<text text-anchor="middle" x="386" y="-776" font-family="Helvetica,sans-Serif" font-size="10.00"> keys</text>
</g>
<!-- Node32 -->
<g id="node32" class="node"><title>Node32</title>
<polygon fill="white" stroke="#bfbfbf" points="1070.5,-43 1070.5,-73 1203.5,-73 1203.5,-43 1070.5,-43"/>
<text text-anchor="start" x="1078.5" y="-61" font-family="Helvetica,sans-Serif" font-size="10.00">map&lt; std::string, unsigned</text>
<text text-anchor="middle" x="1137" y="-50" font-family="Helvetica,sans-Serif" font-size="10.00"> int &gt;</text>
</g>
<!-- Node16&#45;&gt;Node32 -->
<g id="edge43" class="edge"><title>Node16&#45;&gt;Node32</title>
<path fill="none" stroke="#9a32cd" stroke-dasharray="5,2" d="M263.881,-172.326C276.826,-147.374 303.384,-103.882 340,-83 410.109,-43.0183 439.292,-59 520,-59 520,-59 520,-59 908,-59 962.626,-59 1024.61,-58.7094 1070.15,-58.4415"/>
<polygon fill="#9a32cd" stroke="#9a32cd" points="260.649,-170.966 259.315,-181.477 266.912,-174.092 260.649,-170.966"/>
<text text-anchor="middle" x="656" y="-62" font-family="Helvetica,sans-Serif" font-size="10.00"> keys</text>
</g>
<!-- Node17 -->
<g id="node17" class="node"><title>Node17</title>
<g id="a_node17"><a xlink:title="STL class. ">
<polygon fill="white" stroke="#bfbfbf" points="0,-181.5 0,-200.5 106,-200.5 106,-181.5 0,-181.5"/>
<text text-anchor="middle" x="53" y="-188.5" font-family="Helvetica,sans-Serif" font-size="10.00">basic_string&lt; char &gt;</text>
</a>
</g>
</g>
<!-- Node17&#45;&gt;Node16 -->
<g id="edge19" class="edge"><title>Node17&#45;&gt;Node16</title>
<path fill="none" stroke="midnightblue" d="M116.042,-191C156.332,-191 206.217,-191 233.281,-191"/>
<polygon fill="midnightblue" stroke="midnightblue" points="116.025,-187.5 106.025,-191 116.025,-194.5 116.025,-187.5"/>
</g>
<!-- Node18 -->
<g id="node18" class="node"><title>Node18</title>
<g id="a_node18"><a xlink:href="structpkgCache_1_1Group.xhtml" target="_top" xlink:title="groups architecture depending packages together ">
<polygon fill="white" stroke="black" points="754.5,-610.5 754.5,-629.5 797.5,-629.5 797.5,-610.5 754.5,-610.5"/>
<text text-anchor="middle" x="776" y="-617.5" font-family="Helvetica,sans-Serif" font-size="10.00">Group</text>
</a>
</g>
</g>
<!-- Node18&#45;&gt;Node7 -->
<g id="edge20" class="edge"><title>Node18&#45;&gt;Node7</title>
<path fill="none" stroke="#9a32cd" stroke-dasharray="5,2" d="M807.863,-623.221C849.992,-625.724 924.742,-623.056 964,-579 990.45,-549.317 960.179,-434.234 982,-401 984.449,-397.269 987.896,-394.2 991.662,-391.698"/>
<polygon fill="#9a32cd" stroke="#9a32cd" points="807.876,-619.713 797.648,-622.474 807.366,-626.694 807.876,-619.713"/>
<text text-anchor="middle" x="907" y="-627" font-family="Helvetica,sans-Serif" font-size="10.00"> GrpP</text>
</g>
<!-- Node19 -->
<g id="node19" class="node"><title>Node19</title>
<g id="a_node19"><a xlink:href="classpkgVersioningSystem.xhtml" target="_top" xlink:title="pkgVersioningSystem">
<polygon fill="white" stroke="black" points="720,-543.5 720,-562.5 832,-562.5 832,-543.5 720,-543.5"/>
<text text-anchor="middle" x="776" y="-550.5" font-family="Helvetica,sans-Serif" font-size="10.00">pkgVersioningSystem</text>
</a>
</g>
</g>
<!-- Node19&#45;&gt;Node7 -->
<g id="edge21" class="edge"><title>Node19&#45;&gt;Node7</title>
<path fill="none" stroke="#9a32cd" stroke-dasharray="5,2" d="M842.137,-562.818C882.585,-565.002 932.661,-559.963 964,-529 1004.87,-488.623 949.54,-448.4 982,-401 984.598,-397.206 988.215,-394.087 992.126,-391.552"/>
<polygon fill="#9a32cd" stroke="#9a32cd" points="842.297,-559.32 832.078,-562.118 841.811,-566.304 842.297,-559.32"/>
<text text-anchor="middle" x="907" y="-567" font-family="Helvetica,sans-Serif" font-size="10.00"> VS</text>
</g>
<!-- Node19&#45;&gt;Node19 -->
<g id="edge22" class="edge"><title>Node19&#45;&gt;Node19</title>
<path fill="none" stroke="#9a32cd" stroke-dasharray="5,2" d="M753.679,-572.029C754.896,-577.128 762.337,-581 776,-581 797.328,-581 803.493,-571.565 794.495,-562.757"/>
<polygon fill="#9a32cd" stroke="#9a32cd" points="756.926,-573.336 757.505,-562.757 750.455,-570.666 756.926,-573.336"/>
<text text-anchor="middle" x="776" y="-584" font-family="Helvetica,sans-Serif" font-size="10.00"> GlobalList</text>
</g>
<!-- Node20 -->
<g id="node20" class="node"><title>Node20</title>
<g id="a_node20"><a xlink:href="structpkgCache_1_1Version.xhtml" target="_top" xlink:title="information for a single version of a package ">
<polygon fill="white" stroke="black" points="751,-505.5 751,-524.5 801,-524.5 801,-505.5 751,-505.5"/>
<text text-anchor="middle" x="776" y="-512.5" font-family="Helvetica,sans-Serif" font-size="10.00">Version</text>
</a>
</g>
</g>
<!-- Node20&#45;&gt;Node7 -->
<g id="edge23" class="edge"><title>Node20&#45;&gt;Node7</title>
<path fill="none" stroke="#9a32cd" stroke-dasharray="5,2" d="M811.417,-515.218C859.288,-514.771 942.524,-511.028 964,-491 993.833,-463.179 957.991,-433.978 982,-401 984.706,-397.283 988.374,-394.2 992.301,-391.676"/>
<polygon fill="#9a32cd" stroke="#9a32cd" points="811.187,-511.719 801.204,-515.269 811.222,-518.719 811.187,-511.719"/>
<text text-anchor="middle" x="907" y="-517" font-family="Helvetica,sans-Serif" font-size="10.00"> VerP</text>
</g>
<!-- Node21 -->
<g id="node21" class="node"><title>Node21</title>
<g id="a_node21"><a xlink:href="structpkgCache_1_1VerFile.xhtml" target="_top" xlink:title="associates a version with a PackageFile ">
<polygon fill="white" stroke="black" points="752.5,-467.5 752.5,-486.5 799.5,-486.5 799.5,-467.5 752.5,-467.5"/>
<text text-anchor="middle" x="776" y="-474.5" font-family="Helvetica,sans-Serif" font-size="10.00">VerFile</text>
</a>
</g>
</g>
<!-- Node21&#45;&gt;Node7 -->
<g id="edge24" class="edge"><title>Node21&#45;&gt;Node7</title>
<path fill="none" stroke="#9a32cd" stroke-dasharray="5,2" d="M809.607,-477.047C856.796,-476.455 940.999,-472.71 964,-454 983.298,-438.302 966.082,-420.118 982,-401 985.115,-397.258 989.167,-394.119 993.383,-391.538"/>
<polygon fill="#9a32cd" stroke="#9a32cd" points="809.548,-473.548 799.578,-477.133 809.608,-480.547 809.548,-473.548"/>
<text text-anchor="middle" x="907" y="-479" font-family="Helvetica,sans-Serif" font-size="10.00"> VerFileP</text>
</g>
<!-- Node22 -->
<g id="node22" class="node"><title>Node22</title>
<g id="a_node22"><a xlink:href="structpkgCache_1_1Package.xhtml" target="_top" xlink:title="contains information for a single unique package ">
<polygon fill="white" stroke="black" points="748.5,-429.5 748.5,-448.5 803.5,-448.5 803.5,-429.5 748.5,-429.5"/>
<text text-anchor="middle" x="776" y="-436.5" font-family="Helvetica,sans-Serif" font-size="10.00">Package</text>
</a>
</g>
</g>
<!-- Node22&#45;&gt;Node7 -->
<g id="edge25" class="edge"><title>Node22&#45;&gt;Node7</title>
<path fill="none" stroke="#9a32cd" stroke-dasharray="5,2" d="M813.816,-439.913C852.627,-439.608 914.832,-435.461 964,-415 973.357,-411.106 973.552,-406.599 982,-401 986.96,-397.713 992.528,-394.44 997.699,-391.561"/>
<polygon fill="#9a32cd" stroke="#9a32cd" points="813.522,-436.413 803.521,-439.908 813.519,-443.413 813.522,-436.413"/>
<text text-anchor="middle" x="907" y="-442" font-family="Helvetica,sans-Serif" font-size="10.00"> PkgP</text>
</g>
<!-- Node23 -->
<g id="node23" class="node"><title>Node23</title>
<g id="a_node23"><a xlink:href="classMMap.xhtml" target="_top" xlink:title="MMap">
<polygon fill="white" stroke="black" points="754,-353.5 754,-372.5 798,-372.5 798,-353.5 754,-353.5"/>
<text text-anchor="middle" x="776" y="-360.5" font-family="Helvetica,sans-Serif" font-size="10.00">MMap</text>
</a>
</g>
</g>
<!-- Node23&#45;&gt;Node7 -->
<g id="edge26" class="edge"><title>Node23&#45;&gt;Node7</title>
<path fill="none" stroke="#9a32cd" stroke-dasharray="5,2" d="M808.247,-364.737C845.406,-366.903 909.288,-370.944 964,-376 971.239,-376.669 979.032,-377.506 986.326,-378.34"/>
<polygon fill="#9a32cd" stroke="#9a32cd" points="808.243,-361.231 798.058,-364.151 807.841,-368.219 808.243,-361.231"/>
<text text-anchor="middle" x="907" y="-379" font-family="Helvetica,sans-Serif" font-size="10.00"> Map</text>
</g>
<!-- Node24&#45;&gt;Node23 -->
<g id="edge27" class="edge"><title>Node24&#45;&gt;Node23</title>
<path fill="none" stroke="#9a32cd" stroke-dasharray="5,2" d="M553.151,-329.679C605.335,-337.517 709.089,-353.1 753.747,-359.808"/>
<polygon fill="#9a32cd" stroke="#9a32cd" points="553.544,-326.199 543.135,-328.174 552.505,-333.121 553.544,-326.199"/>
<text text-anchor="middle" x="656" y="-355" font-family="Helvetica,sans-Serif" font-size="10.00"> SyncToFd</text>
</g>
<!-- Node25 -->
<g id="node25" class="node"><title>Node25</title>
<g id="a_node25"><a xlink:href="structpkgDepCache_1_1StateCache.xhtml" target="_top" xlink:title="StateCache">
<polygon fill="white" stroke="black" points="983,-307.5 983,-326.5 1051,-326.5 1051,-307.5 983,-307.5"/>
<text text-anchor="middle" x="1017" y="-314.5" font-family="Helvetica,sans-Serif" font-size="10.00">StateCache</text>
</a>
</g>
</g>
<!-- Node25&#45;&gt;Node5 -->
<g id="edge29" class="edge"><title>Node25&#45;&gt;Node5</title>
<path fill="none" stroke="#9a32cd" stroke-dasharray="5,2" d="M1061.22,-316.466C1106.98,-315.901 1178.53,-315.018 1222.43,-314.476"/>
<polygon fill="#9a32cd" stroke="#9a32cd" points="1060.98,-312.969 1051.02,-316.592 1061.07,-319.968 1060.98,-312.969"/>
<text text-anchor="middle" x="1137" y="-320" font-family="Helvetica,sans-Serif" font-size="10.00"> PkgState</text>
</g>
<!-- Node26&#45;&gt;Node2 -->
<g id="edge32" class="edge"><title>Node26&#45;&gt;Node2</title>
<path fill="none" stroke="#9a32cd" stroke-dasharray="5,2" d="M712.483,-97C762.944,-97 839.471,-97 906,-97 906,-97 906,-97 1413,-97 1489.33,-97 1543.25,-195.042 1558.56,-226.446"/>
<polygon fill="#9a32cd" stroke="#9a32cd" points="712.437,-93.5001 702.437,-97 712.437,-100.5 712.437,-93.5001"/>
<text text-anchor="middle" x="1137" y="-100" font-family="Helvetica,sans-Serif" font-size="10.00"> disappearedPkgs</text>
</g>
<!-- Node27 -->
<g id="node27" class="node"><title>Node27</title>
<polygon fill="white" stroke="#bfbfbf" points="850,-0 850,-30 964,-30 964,-0 850,-0"/>
<text text-anchor="start" x="858" y="-18" font-family="Helvetica,sans-Serif" font-size="10.00">vector&lt; pkgDPkgPM::</text>
<text text-anchor="middle" x="907" y="-7" font-family="Helvetica,sans-Serif" font-size="10.00">Item &gt;</text>
</g>
<!-- Node27&#45;&gt;Node1 -->
<g id="edge35" class="edge"><title>Node27&#45;&gt;Node1</title>
<path fill="none" stroke="#9a32cd" stroke-dasharray="5,2" d="M974.25,-13.6683C1019.75,-12.8666 1081.53,-12 1136,-12 1136,-12 1136,-12 1565,-12 1621.87,-12 1668.8,-74.8096 1684.97,-99.3446"/>
<polygon fill="#9a32cd" stroke="#9a32cd" points="974.152,-10.1694 964.216,-13.8487 974.278,-17.1683 974.152,-10.1694"/>
<text text-anchor="middle" x="1336" y="-15" font-family="Helvetica,sans-Serif" font-size="10.00"> List</text>
</g>
<!-- Node28&#45;&gt;Node27 -->
<g id="edge36" class="edge"><title>Node28&#45;&gt;Node27</title>
<path fill="none" stroke="#9a32cd" stroke-dasharray="5,2" d="M549.493,-19.642C612.077,-18.8271 766.202,-16.8203 849.836,-15.7313"/>
<polygon fill="#9a32cd" stroke="#9a32cd" points="549.199,-16.1454 539.246,-19.7754 549.29,-23.1449 549.199,-16.1454"/>
<text text-anchor="middle" x="656" y="-22" font-family="Helvetica,sans-Serif" font-size="10.00"> elements</text>
</g>
<!-- Node29&#45;&gt;Node1 -->
<g id="edge38" class="edge"><title>Node29&#45;&gt;Node1</title>
<path fill="none" stroke="#9a32cd" stroke-dasharray="5,2" d="M602.126,-782.043C651.885,-781.529 717.16,-781 775,-781 775,-781 775,-781 1565,-781 1635.55,-781 1683.73,-201.397 1690.25,-118.759"/>
<polygon fill="#9a32cd" stroke="#9a32cd" points="602.033,-778.544 592.071,-782.149 602.107,-785.543 602.033,-778.544"/>
<text text-anchor="middle" x="1262" y="-784" font-family="Helvetica,sans-Serif" font-size="10.00"> PackageOps</text>
</g>
<!-- Node30 -->
<g id="node30" class="node"><title>Node30</title>
<polygon fill="white" stroke="#bfbfbf" points="186,-786 186,-816 322,-816 322,-786 186,-786"/>
<text text-anchor="start" x="194" y="-804" font-family="Helvetica,sans-Serif" font-size="10.00">vector&lt; struct pkgDPkgPM</text>
<text text-anchor="middle" x="254" y="-793" font-family="Helvetica,sans-Serif" font-size="10.00">::DpkgState &gt;</text>
</g>
<!-- Node30&#45;&gt;Node29 -->
<g id="edge40" class="edge"><title>Node30&#45;&gt;Node29</title>
<path fill="none" stroke="#9a32cd" stroke-dasharray="5,2" d="M332.464,-795.738C369.51,-793.222 413.535,-790.232 449.617,-787.781"/>
<polygon fill="#9a32cd" stroke="#9a32cd" points="331.953,-792.265 322.213,-796.435 332.427,-799.249 331.953,-792.265"/>
<text text-anchor="middle" x="386" y="-798" font-family="Helvetica,sans-Serif" font-size="10.00"> elements</text>
</g>
<!-- Node31 -->
<g id="node31" class="node"><title>Node31</title>
<g id="a_node31"><a xlink:href="structpkgDPkgPM_1_1DpkgState.xhtml" target="_top" xlink:title="DpkgState">
<polygon fill="white" stroke="black" points="21.5,-791.5 21.5,-810.5 84.5,-810.5 84.5,-791.5 21.5,-791.5"/>
<text text-anchor="middle" x="53" y="-798.5" font-family="Helvetica,sans-Serif" font-size="10.00">DpkgState</text>
</a>
</g>
</g>
<!-- Node31&#45;&gt;Node30 -->
<g id="edge41" class="edge"><title>Node31&#45;&gt;Node30</title>
<path fill="none" stroke="#9a32cd" stroke-dasharray="5,2" d="M94.9434,-801C121.06,-801 155.532,-801 185.617,-801"/>
<polygon fill="#9a32cd" stroke="#9a32cd" points="94.6577,-797.5 84.6576,-801 94.6576,-804.5 94.6577,-797.5"/>
<text text-anchor="middle" x="146" y="-804" font-family="Helvetica,sans-Serif" font-size="10.00"> elements</text>
</g>
<!-- Node32&#45;&gt;Node1 -->
<g id="edge42" class="edge"><title>Node32&#45;&gt;Node1</title>
<path fill="none" stroke="#9a32cd" stroke-dasharray="5,2" d="M1213.77,-58C1250.4,-58 1294.98,-58 1335,-58 1335,-58 1335,-58 1565,-58 1608.66,-58 1655.02,-84.6338 1677.37,-99.4073"/>
<polygon fill="#9a32cd" stroke="#9a32cd" points="1213.67,-54.5001 1203.67,-58 1213.67,-61.5001 1213.67,-54.5001"/>
<text text-anchor="middle" x="1412" y="-61" font-family="Helvetica,sans-Serif" font-size="10.00"> PackageOpsDone</text>
</g>
</g>
</svg>
