<?xml version="1.0" encoding="UTF-8" standalone="no"?>
<!DOCTYPE svg PUBLIC "-//W3C//DTD SVG 1.1//EN"
 "http://www.w3.org/Graphics/SVG/1.1/DTD/svg11.dtd">
<!-- Generated by graphviz version 2.36.0 (20140111.2315)
 -->
<!-- Title: IndexTarget Pages: 1 -->
<svg width="225pt" height="140pt"
 viewBox="0.00 0.00 225.00 140.00" xmlns="http://www.w3.org/2000/svg" xmlns:xlink="http://www.w3.org/1999/xlink">
<g id="graph0" class="graph" transform="scale(1 1) rotate(0) translate(4 136)">
<title>IndexTarget</title>
<polygon fill="white" stroke="none" points="-4,4 -4,-136 221,-136 221,4 -4,4"/>
<!-- Node1 -->
<g id="node1" class="node"><title>Node1</title>
<polygon fill="#bfbfbf" stroke="black" points="83,-112.5 83,-131.5 151,-131.5 151,-112.5 83,-112.5"/>
<text text-anchor="middle" x="117" y="-119.5" font-family="Helvetica,sans-Serif" font-size="10.00">IndexTarget</text>
</g>
<!-- Node2 -->
<g id="node2" class="node"><title>Node2</title>
<g id="a_node2"><a xlink:href="classOptionalIndexTarget.xhtml" target="_top" xlink:title="Information about an optional index file. ">
<polygon fill="white" stroke="black" points="9,-56.5 9,-75.5 113,-75.5 113,-56.5 9,-56.5"/>
<text text-anchor="middle" x="61" y="-63.5" font-family="Helvetica,sans-Serif" font-size="10.00">OptionalIndexTarget</text>
</a>
</g>
</g>
<!-- Node1&#45;&gt;Node2 -->
<g id="edge1" class="edge"><title>Node1&#45;&gt;Node2</title>
<path fill="none" stroke="midnightblue" d="M100.67,-105.253C90.735,-95.6731 78.4125,-83.7906 70.1611,-75.8339"/>
<polygon fill="midnightblue" stroke="midnightblue" points="98.3747,-107.902 108.003,-112.324 103.234,-102.863 98.3747,-107.902"/>
</g>
<!-- Node4 -->
<g id="node4" class="node"><title>Node4</title>
<g id="a_node4"><a xlink:href="classSubIndexTarget.xhtml" target="_top" xlink:title="Information about an subindex index file. ">
<polygon fill="white" stroke="black" points="131,-56.5 131,-75.5 217,-75.5 217,-56.5 131,-56.5"/>
<text text-anchor="middle" x="174" y="-63.5" font-family="Helvetica,sans-Serif" font-size="10.00">SubIndexTarget</text>
</a>
</g>
</g>
<!-- Node1&#45;&gt;Node4 -->
<g id="edge3" class="edge"><title>Node1&#45;&gt;Node4</title>
<path fill="none" stroke="midnightblue" d="M133.621,-105.253C143.734,-95.6731 156.277,-83.7906 164.675,-75.8339"/>
<polygon fill="midnightblue" stroke="midnightblue" points="131.01,-102.906 126.158,-112.324 135.825,-107.987 131.01,-102.906"/>
</g>
<!-- Node3 -->
<g id="node3" class="node"><title>Node3</title>
<g id="a_node3"><a xlink:href="classOptionalSubIndexTarget.xhtml" target="_top" xlink:title="Information about an subindex index file. ">
<polygon fill="white" stroke="black" points="0,-0.5 0,-19.5 122,-19.5 122,-0.5 0,-0.5"/>
<text text-anchor="middle" x="61" y="-7.5" font-family="Helvetica,sans-Serif" font-size="10.00">OptionalSubIndexTarget</text>
</a>
</g>
</g>
<!-- Node2&#45;&gt;Node3 -->
<g id="edge2" class="edge"><title>Node2&#45;&gt;Node3</title>
<path fill="none" stroke="midnightblue" d="M61,-45.8045C61,-36.9102 61,-26.7798 61,-19.7511"/>
<polygon fill="midnightblue" stroke="midnightblue" points="57.5001,-46.083 61,-56.083 64.5001,-46.083 57.5001,-46.083"/>
</g>
</g>
</svg>
