<?xml version="1.0" encoding="UTF-8" standalone="no"?>
<!DOCTYPE svg PUBLIC "-//W3C//DTD SVG 1.1//EN"
 "http://www.w3.org/Graphics/SVG/1.1/DTD/svg11.dtd">
<!-- Generated by graphviz version 2.36.0 (20140111.2315)
 -->
<!-- Title: pkgSystem Pages: 1 -->
<svg width="184pt" height="96pt"
 viewBox="0.00 0.00 184.00 96.00" xmlns="http://www.w3.org/2000/svg" xmlns:xlink="http://www.w3.org/1999/xlink">
<g id="graph0" class="graph" transform="scale(1 1) rotate(0) translate(4 92)">
<title>pkgSystem</title>
<polygon fill="white" stroke="none" points="-4,4 -4,-92 180,-92 180,4 -4,4"/>
<!-- Node1 -->
<g id="node1" class="node"><title>Node1</title>
<polygon fill="#bfbfbf" stroke="black" points="22,-0.5 22,-19.5 88,-19.5 88,-0.5 22,-0.5"/>
<text text-anchor="middle" x="55" y="-7.5" font-family="Helvetica,sans-Serif" font-size="10.00">pkgSystem</text>
</g>
<!-- Node1&#45;&gt;Node1 -->
<g id="edge1" class="edge"><title>Node1&#45;&gt;Node1</title>
<path fill="none" stroke="#9a32cd" stroke-dasharray="5,2" d="M98.6469,-15.2548C103.133,-14.22 106,-12.4684 106,-10 106,-5.94922 98.2782,-3.82889 88.3545,-3.63901"/>
<polygon fill="#9a32cd" stroke="#9a32cd" points="97.9232,-11.8123 88.3545,-16.361 98.6713,-18.7722 97.9232,-11.8123"/>
<text text-anchor="middle" x="129.5" y="-7.5" font-family="Helvetica,sans-Serif" font-size="10.00"> GlobalList</text>
</g>
<!-- Node2 -->
<g id="node2" class="node"><title>Node2</title>
<g id="a_node2"><a xlink:href="classpkgVersioningSystem.xhtml" target="_top" xlink:title="pkgVersioningSystem">
<polygon fill="white" stroke="black" points="-1,-68.5 -1,-87.5 111,-87.5 111,-68.5 -1,-68.5"/>
<text text-anchor="middle" x="55" y="-75.5" font-family="Helvetica,sans-Serif" font-size="10.00">pkgVersioningSystem</text>
</a>
</g>
</g>
<!-- Node2&#45;&gt;Node1 -->
<g id="edge2" class="edge"><title>Node2&#45;&gt;Node1</title>
<path fill="none" stroke="#9a32cd" stroke-dasharray="5,2" d="M55,-58.0413C55,-45.4724 55,-29.5631 55,-19.8411"/>
<polygon fill="#9a32cd" stroke="#9a32cd" points="51.5001,-58.3716 55,-68.3717 58.5001,-58.3717 51.5001,-58.3716"/>
<text text-anchor="middle" x="63.5" y="-41.5" font-family="Helvetica,sans-Serif" font-size="10.00"> VS</text>
</g>
<!-- Node2&#45;&gt;Node2 -->
<g id="edge3" class="edge"><title>Node2&#45;&gt;Node2</title>
<path fill="none" stroke="#9a32cd" stroke-dasharray="5,2" d="M121.115,-82.5284C125.405,-81.4721 128,-79.9626 128,-78 128,-74.7793 121.013,-72.7789 111.01,-71.9989"/>
<polygon fill="#9a32cd" stroke="#9a32cd" points="120.401,-79.0954 111.01,-84.0011 121.41,-86.0222 120.401,-79.0954"/>
<text text-anchor="middle" x="151.5" y="-75.5" font-family="Helvetica,sans-Serif" font-size="10.00"> GlobalList</text>
</g>
</g>
</svg>
