<?xml version="1.0" encoding="UTF-8" standalone="no"?>
<!DOCTYPE svg PUBLIC "-//W3C//DTD SVG 1.1//EN"
 "http://www.w3.org/Graphics/SVG/1.1/DTD/svg11.dtd">
<!-- Generated by graphviz version 2.36.0 (20140111.2315)
 -->
<!-- Title: pkgIndexFile Pages: 1 -->
<svg width="450pt" height="140pt"
 viewBox="0.00 0.00 450.00 140.00" xmlns="http://www.w3.org/2000/svg" xmlns:xlink="http://www.w3.org/1999/xlink">
<g id="graph0" class="graph" transform="scale(1 1) rotate(0) translate(4 136)">
<title>pkgIndexFile</title>
<polygon fill="white" stroke="none" points="-4,4 -4,-136 446,-136 446,4 -4,4"/>
<!-- Node1 -->
<g id="node1" class="node"><title>Node1</title>
<polygon fill="#bfbfbf" stroke="black" points="181,-112.5 181,-131.5 253,-131.5 253,-112.5 181,-112.5"/>
<text text-anchor="middle" x="217" y="-119.5" font-family="Helvetica,sans-Serif" font-size="10.00">pkgIndexFile</text>
</g>
<!-- Node2 -->
<g id="node2" class="node"><title>Node2</title>
<g id="a_node2"><a xlink:href="classdebPackagesIndex.xhtml" target="_top" xlink:title="debPackagesIndex">
<polygon fill="white" stroke="black" points="0,-56.5 0,-75.5 100,-75.5 100,-56.5 0,-56.5"/>
<text text-anchor="middle" x="50" y="-63.5" font-family="Helvetica,sans-Serif" font-size="10.00">debPackagesIndex</text>
</a>
</g>
</g>
<!-- Node1&#45;&gt;Node2 -->
<g id="edge1" class="edge"><title>Node1&#45;&gt;Node2</title>
<path fill="none" stroke="midnightblue" d="M180.83,-109.304C149.363,-99.1294 104.506,-84.6246 76.3378,-75.5164"/>
<polygon fill="midnightblue" stroke="midnightblue" points="179.947,-112.697 190.538,-112.444 182.1,-106.037 179.947,-112.697"/>
</g>
<!-- Node3 -->
<g id="node3" class="node"><title>Node3</title>
<g id="a_node3"><a xlink:href="classdebSourcesIndex.xhtml" target="_top" xlink:title="debSourcesIndex">
<polygon fill="white" stroke="black" points="118,-56.5 118,-75.5 210,-75.5 210,-56.5 118,-56.5"/>
<text text-anchor="middle" x="164" y="-63.5" font-family="Helvetica,sans-Serif" font-size="10.00">debSourcesIndex</text>
</a>
</g>
</g>
<!-- Node1&#45;&gt;Node3 -->
<g id="edge2" class="edge"><title>Node1&#45;&gt;Node3</title>
<path fill="none" stroke="midnightblue" d="M201.019,-104.718C191.678,-95.1997 180.254,-83.5608 172.589,-75.7511"/>
<polygon fill="midnightblue" stroke="midnightblue" points="198.746,-107.398 208.248,-112.083 203.741,-102.494 198.746,-107.398"/>
</g>
<!-- Node4 -->
<g id="node4" class="node"><title>Node4</title>
<g id="a_node4"><a xlink:href="classdebStatusIndex.xhtml" target="_top" xlink:title="debStatusIndex">
<polygon fill="white" stroke="black" points="228.5,-56.5 228.5,-75.5 313.5,-75.5 313.5,-56.5 228.5,-56.5"/>
<text text-anchor="middle" x="271" y="-63.5" font-family="Helvetica,sans-Serif" font-size="10.00">debStatusIndex</text>
</a>
</g>
</g>
<!-- Node1&#45;&gt;Node4 -->
<g id="edge3" class="edge"><title>Node1&#45;&gt;Node4</title>
<path fill="none" stroke="midnightblue" d="M232.998,-105.002C242.567,-95.4329 254.361,-83.6389 262.249,-75.7511"/>
<polygon fill="midnightblue" stroke="midnightblue" points="230.513,-102.537 225.917,-112.083 235.463,-107.487 230.513,-102.537"/>
</g>
<!-- Node6 -->
<g id="node6" class="node"><title>Node6</title>
<g id="a_node6"><a xlink:href="classdebTranslationsIndex.xhtml" target="_top" xlink:title="debTranslationsIndex">
<polygon fill="white" stroke="black" points="332,-56.5 332,-75.5 442,-75.5 442,-56.5 332,-56.5"/>
<text text-anchor="middle" x="387" y="-63.5" font-family="Helvetica,sans-Serif" font-size="10.00">debTranslationsIndex</text>
</a>
</g>
</g>
<!-- Node1&#45;&gt;Node6 -->
<g id="edge5" class="edge"><title>Node1&#45;&gt;Node6</title>
<path fill="none" stroke="midnightblue" d="M253.819,-109.304C285.852,-99.1294 331.515,-84.6246 360.189,-75.5164"/>
<polygon fill="midnightblue" stroke="midnightblue" points="252.408,-106.08 243.937,-112.444 254.527,-112.752 252.408,-106.08"/>
</g>
<!-- Node5 -->
<g id="node5" class="node"><title>Node5</title>
<g id="a_node5"><a xlink:href="classedspIndex.xhtml" target="_top" xlink:title="edspIndex">
<polygon fill="white" stroke="black" points="240,-0.5 240,-19.5 302,-19.5 302,-0.5 240,-0.5"/>
<text text-anchor="middle" x="271" y="-7.5" font-family="Helvetica,sans-Serif" font-size="10.00">edspIndex</text>
</a>
</g>
</g>
<!-- Node4&#45;&gt;Node5 -->
<g id="edge4" class="edge"><title>Node4&#45;&gt;Node5</title>
<path fill="none" stroke="midnightblue" d="M271,-45.8045C271,-36.9102 271,-26.7798 271,-19.7511"/>
<polygon fill="midnightblue" stroke="midnightblue" points="267.5,-46.083 271,-56.083 274.5,-46.083 267.5,-46.083"/>
</g>
</g>
</svg>
