<?xml version="1.0" encoding="UTF-8" standalone="no"?>
<!DOCTYPE svg PUBLIC "-//W3C//DTD SVG 1.1//EN"
 "http://www.w3.org/Graphics/SVG/1.1/DTD/svg11.dtd">
<!-- Generated by graphviz version 2.36.0 (20140111.2315)
 -->
<!-- Title: PackageManagerText Pages: 1 -->
<svg width="121pt" height="212pt"
 viewBox="0.00 0.00 121.00 212.00" xmlns="http://www.w3.org/2000/svg" xmlns:xlink="http://www.w3.org/1999/xlink">
<g id="graph0" class="graph" transform="scale(1 1) rotate(0) translate(4 208)">
<title>PackageManagerText</title>
<polygon fill="white" stroke="none" points="-4,4 -4,-208 117,-208 117,4 -4,4"/>
<!-- Node1 -->
<g id="node1" class="node"><title>Node1</title>
<polygon fill="#bfbfbf" stroke="black" points="-1,-0.5 -1,-19.5 111,-19.5 111,-0.5 -1,-0.5"/>
<text text-anchor="middle" x="55" y="-7.5" font-family="Helvetica,sans-Serif" font-size="10.00">PackageManagerText</text>
</g>
<!-- Node2 -->
<g id="node2" class="node"><title>Node2</title>
<g id="a_node2"><a xlink:href="classAPT_1_1Progress_1_1PackageManager.xhtml" target="_top" xlink:title="PackageManager">
<polygon fill="white" stroke="black" points="9,-58.5 9,-77.5 101,-77.5 101,-58.5 9,-58.5"/>
<text text-anchor="middle" x="55" y="-65.5" font-family="Helvetica,sans-Serif" font-size="10.00">PackageManager</text>
</a>
</g>
</g>
<!-- Node2&#45;&gt;Node1 -->
<g id="edge1" class="edge"><title>Node2&#45;&gt;Node1</title>
<path fill="none" stroke="midnightblue" d="M55,-47.953C55,-38.2875 55,-27.0312 55,-19.5052"/>
<polygon fill="midnightblue" stroke="midnightblue" points="51.5001,-48.25 55,-58.25 58.5001,-48.25 51.5001,-48.25"/>
</g>
<!-- Node3 -->
<g id="node3" class="node"><title>Node3</title>
<g id="a_node3"><a xlink:title="STL class. ">
<polygon fill="white" stroke="#bfbfbf" points="34.5,-126.5 34.5,-145.5 75.5,-145.5 75.5,-126.5 34.5,-126.5"/>
<text text-anchor="middle" x="55" y="-133.5" font-family="Helvetica,sans-Serif" font-size="10.00">string</text>
</a>
</g>
</g>
<!-- Node3&#45;&gt;Node2 -->
<g id="edge2" class="edge"><title>Node3&#45;&gt;Node2</title>
<path fill="none" stroke="#9a32cd" stroke-dasharray="5,2" d="M55,-116.041C55,-103.472 55,-87.5631 55,-77.8411"/>
<polygon fill="#9a32cd" stroke="#9a32cd" points="51.5001,-116.372 55,-126.372 58.5001,-116.372 51.5001,-116.372"/>
<text text-anchor="middle" x="84" y="-99.5" font-family="Helvetica,sans-Serif" font-size="10.00"> progress_str</text>
</g>
<!-- Node4 -->
<g id="node4" class="node"><title>Node4</title>
<g id="a_node4"><a xlink:title="STL class. ">
<polygon fill="white" stroke="#bfbfbf" points="2,-184.5 2,-203.5 108,-203.5 108,-184.5 2,-184.5"/>
<text text-anchor="middle" x="55" y="-191.5" font-family="Helvetica,sans-Serif" font-size="10.00">basic_string&lt; char &gt;</text>
</a>
</g>
</g>
<!-- Node4&#45;&gt;Node3 -->
<g id="edge3" class="edge"><title>Node4&#45;&gt;Node3</title>
<path fill="none" stroke="midnightblue" d="M55,-173.953C55,-164.287 55,-153.031 55,-145.505"/>
<polygon fill="midnightblue" stroke="midnightblue" points="51.5001,-174.25 55,-184.25 58.5001,-174.25 51.5001,-174.25"/>
</g>
</g>
</svg>
