<?xml version="1.0" encoding="UTF-8" standalone="no"?>
<!DOCTYPE svg PUBLIC "-//W3C//DTD SVG 1.1//EN"
 "http://www.w3.org/Graphics/SVG/1.1/DTD/svg11.dtd">
<!-- Generated by graphviz version 2.36.0 (20140111.2315)
 -->
<!-- Title: pkgCacheGenerator Pages: 1 -->
<svg width="930pt" height="728pt"
 viewBox="0.00 0.00 930.00 728.44" xmlns="http://www.w3.org/2000/svg" xmlns:xlink="http://www.w3.org/1999/xlink">
<g id="graph0" class="graph" transform="scale(1 1) rotate(0) translate(4 724.442)">
<title>pkgCacheGenerator</title>
<polygon fill="white" stroke="none" points="-4,4 -4,-724.442 926,-724.442 926,4 -4,4"/>
<!-- Node1 -->
<g id="node1" class="node"><title>Node1</title>
<polygon fill="#bfbfbf" stroke="black" points="818,-602.942 818,-621.942 922,-621.942 922,-602.942 818,-602.942"/>
<text text-anchor="middle" x="870" y="-609.942" font-family="Helvetica,sans-Serif" font-size="10.00">pkgCacheGenerator</text>
</g>
<!-- Node2 -->
<g id="node2" class="node"><title>Node2</title>
<g id="a_node2"><a xlink:href="classOpProgress.xhtml" target="_top" xlink:title="OpProgress">
<polygon fill="white" stroke="black" points="376,-679.942 376,-698.942 444,-698.942 444,-679.942 376,-679.942"/>
<text text-anchor="middle" x="410" y="-686.942" font-family="Helvetica,sans-Serif" font-size="10.00">OpProgress</text>
</a>
</g>
</g>
<!-- Node2&#45;&gt;Node1 -->
<g id="edge1" class="edge"><title>Node2&#45;&gt;Node1</title>
<path fill="none" stroke="#9a32cd" stroke-dasharray="5,2" d="M454.379,-694.788C528.087,-702.144 681.322,-709.883 800,-665.442 824.897,-656.119 848.174,-634.564 860.291,-622.003"/>
<polygon fill="#9a32cd" stroke="#9a32cd" points="454.404,-691.271 444.094,-693.711 453.676,-698.233 454.404,-691.271"/>
<text text-anchor="middle" x="620" y="-702.442" font-family="Helvetica,sans-Serif" font-size="10.00"> Progress</text>
</g>
<!-- Node3 -->
<g id="node3" class="node"><title>Node3</title>
<g id="a_node3"><a xlink:title="STL class. ">
<polygon fill="white" stroke="#bfbfbf" points="144.5,-523.942 144.5,-542.942 185.5,-542.942 185.5,-523.942 144.5,-523.942"/>
<text text-anchor="middle" x="165" y="-530.942" font-family="Helvetica,sans-Serif" font-size="10.00">string</text>
</a>
</g>
</g>
<!-- Node3&#45;&gt;Node1 -->
<g id="edge28" class="edge"><title>Node3&#45;&gt;Node1</title>
<path fill="none" stroke="#9a32cd" stroke-dasharray="5,2" d="M179.173,-551.432C205.036,-584.466 265.983,-651.442 335,-651.442 335,-651.442 335,-651.442 709,-651.442 758.606,-651.442 814.464,-633.528 845.315,-621.982"/>
<polygon fill="#9a32cd" stroke="#9a32cd" points="181.672,-548.936 172.831,-543.098 176.102,-553.175 181.672,-548.936"/>
<text text-anchor="middle" x="518" y="-654.442" font-family="Helvetica,sans-Serif" font-size="10.00"> PkgFileName</text>
</g>
<!-- Node3&#45;&gt;Node2 -->
<g id="edge2" class="edge"><title>Node3&#45;&gt;Node2</title>
<path fill="none" stroke="#9a32cd" stroke-dasharray="5,2" d="M165.394,-553.184C165.667,-582.577 170.928,-637.386 204,-665.442 252.229,-706.356 331.401,-702.261 375.922,-695.773"/>
<polygon fill="#9a32cd" stroke="#9a32cd" points="168.896,-552.978 165.495,-542.944 161.896,-552.909 168.896,-552.978"/>
<text text-anchor="middle" x="250" y="-712.442" font-family="Helvetica,sans-Serif" font-size="10.00"> SubOp</text>
<text text-anchor="middle" x="250" y="-701.442" font-family="Helvetica,sans-Serif" font-size="10.00">Op</text>
</g>
<!-- Node5 -->
<g id="node5" class="node"><title>Node5</title>
<g id="a_node5"><a xlink:href="classpkgCache.xhtml" target="_top" xlink:title="pkgCache">
<polygon fill="white" stroke="black" points="677.5,-367.942 677.5,-386.942 738.5,-386.942 738.5,-367.942 677.5,-367.942"/>
<text text-anchor="middle" x="708" y="-374.942" font-family="Helvetica,sans-Serif" font-size="10.00">pkgCache</text>
</a>
</g>
</g>
<!-- Node3&#45;&gt;Node5 -->
<g id="edge13" class="edge"><title>Node3&#45;&gt;Node5</title>
<path fill="none" stroke="#9a32cd" stroke-dasharray="5,2" d="M195.236,-522.57C248.011,-503.191 362.923,-462.121 462,-434.442 543.623,-411.639 565.592,-412.218 648,-392.442 657.558,-390.148 667.958,-387.541 677.326,-385.152"/>
<polygon fill="#9a32cd" stroke="#9a32cd" points="193.705,-519.404 185.533,-526.146 196.126,-525.972 193.705,-519.404"/>
<text text-anchor="middle" x="410" y="-463.442" font-family="Helvetica,sans-Serif" font-size="10.00"> CacheFile</text>
</g>
<!-- Node20 -->
<g id="node20" class="node"><title>Node20</title>
<g id="a_node20"><a xlink:href="classFileFd.xhtml" target="_top" xlink:title="FileFd">
<polygon fill="white" stroke="black" points="314,-25.9416 314,-44.9416 358,-44.9416 358,-25.9416 314,-25.9416"/>
<text text-anchor="middle" x="336" y="-32.9416" font-family="Helvetica,sans-Serif" font-size="10.00">FileFd</text>
</a>
</g>
</g>
<!-- Node3&#45;&gt;Node20 -->
<g id="edge22" class="edge"><title>Node3&#45;&gt;Node20</title>
<path fill="none" stroke="#9a32cd" stroke-dasharray="5,2" d="M170.057,-513.729C176.308,-484.232 189.142,-426.988 204,-379.442 246.222,-244.333 313.451,-85.4968 330.804,-45.1392"/>
<polygon fill="#9a32cd" stroke="#9a32cd" points="166.614,-513.093 167.993,-523.598 173.466,-514.526 166.614,-513.093"/>
<text text-anchor="middle" x="250" y="-393.442" font-family="Helvetica,sans-Serif" font-size="10.00"> TemporaryFileName</text>
<text text-anchor="middle" x="250" y="-382.442" font-family="Helvetica,sans-Serif" font-size="10.00">FileName</text>
</g>
<!-- Node4 -->
<g id="node4" class="node"><title>Node4</title>
<g id="a_node4"><a xlink:title="STL class. ">
<polygon fill="white" stroke="#bfbfbf" points="0,-523.942 0,-542.942 106,-542.942 106,-523.942 0,-523.942"/>
<text text-anchor="middle" x="53" y="-530.942" font-family="Helvetica,sans-Serif" font-size="10.00">basic_string&lt; char &gt;</text>
</a>
</g>
</g>
<!-- Node4&#45;&gt;Node3 -->
<g id="edge3" class="edge"><title>Node4&#45;&gt;Node3</title>
<path fill="none" stroke="midnightblue" d="M116.338,-533.442C126.515,-533.442 136.35,-533.442 144.416,-533.442"/>
<polygon fill="midnightblue" stroke="midnightblue" points="116.101,-529.942 106.101,-533.442 116.101,-536.942 116.101,-529.942"/>
</g>
<!-- Node5&#45;&gt;Node1 -->
<g id="edge4" class="edge"><title>Node5&#45;&gt;Node1</title>
<path fill="none" stroke="#9a32cd" stroke-dasharray="5,2" d="M721.284,-395.484C753.246,-442.427 838.194,-567.195 862.449,-602.82"/>
<polygon fill="#9a32cd" stroke="#9a32cd" points="723.991,-393.241 715.47,-386.945 718.205,-397.181 723.991,-393.241"/>
<text text-anchor="middle" x="784" y="-512.442" font-family="Helvetica,sans-Serif" font-size="10.00"> Cache</text>
</g>
<!-- Node6 -->
<g id="node6" class="node"><title>Node6</title>
<g id="a_node6"><a xlink:href="structpkgCache_1_1Dependency.xhtml" target="_top" xlink:title="information for a single dependency record ">
<polygon fill="white" stroke="black" points="482.5,-481.942 482.5,-500.942 553.5,-500.942 553.5,-481.942 482.5,-481.942"/>
<text text-anchor="middle" x="518" y="-488.942" font-family="Helvetica,sans-Serif" font-size="10.00">Dependency</text>
</a>
</g>
</g>
<!-- Node6&#45;&gt;Node5 -->
<g id="edge5" class="edge"><title>Node6&#45;&gt;Node5</title>
<path fill="none" stroke="#9a32cd" stroke-dasharray="5,2" d="M563.849,-488.959C590.233,-485.658 623.179,-478.186 648,-461.442 676.365,-442.306 695.37,-404.624 703.1,-386.979"/>
<polygon fill="#9a32cd" stroke="#9a32cd" points="563.284,-485.499 553.723,-490.064 564.044,-492.458 563.284,-485.499"/>
<text text-anchor="middle" x="620" y="-486.442" font-family="Helvetica,sans-Serif" font-size="10.00"> DepP</text>
</g>
<!-- Node7 -->
<g id="node7" class="node"><title>Node7</title>
<g id="a_node7"><a xlink:href="structpkgCache_1_1Description.xhtml" target="_top" xlink:title="datamember of a linked list of available description for a version ">
<polygon fill="white" stroke="black" points="485,-443.942 485,-462.942 551,-462.942 551,-443.942 485,-443.942"/>
<text text-anchor="middle" x="518" y="-450.942" font-family="Helvetica,sans-Serif" font-size="10.00">Description</text>
</a>
</g>
</g>
<!-- Node7&#45;&gt;Node5 -->
<g id="edge6" class="edge"><title>Node7&#45;&gt;Node5</title>
<path fill="none" stroke="#9a32cd" stroke-dasharray="5,2" d="M561.163,-450.815C587.248,-447.872 620.826,-441.639 648,-428.442 668.948,-418.268 688.381,-398.743 698.878,-387.025"/>
<polygon fill="#9a32cd" stroke="#9a32cd" points="560.8,-447.334 551.203,-451.822 561.504,-454.298 560.8,-447.334"/>
<text text-anchor="middle" x="620" y="-449.442" font-family="Helvetica,sans-Serif" font-size="10.00"> DescP</text>
</g>
<!-- Node8 -->
<g id="node8" class="node"><title>Node8</title>
<g id="a_node8"><a xlink:href="structpkgCache_1_1Header.xhtml" target="_top" xlink:title="Header">
<polygon fill="white" stroke="black" points="494,-215.942 494,-234.942 542,-234.942 542,-215.942 494,-215.942"/>
<text text-anchor="middle" x="518" y="-222.942" font-family="Helvetica,sans-Serif" font-size="10.00">Header</text>
</a>
</g>
</g>
<!-- Node8&#45;&gt;Node5 -->
<g id="edge7" class="edge"><title>Node8&#45;&gt;Node5</title>
<path fill="none" stroke="#9a32cd" stroke-dasharray="5,2" d="M552.217,-228.321C580.463,-232.311 620.675,-241.816 648,-264.442 682.092,-292.671 698.926,-345.762 704.66,-367.638"/>
<polygon fill="#9a32cd" stroke="#9a32cd" points="552.386,-224.815 542.029,-227.046 551.517,-231.761 552.386,-224.815"/>
<text text-anchor="middle" x="620" y="-267.442" font-family="Helvetica,sans-Serif" font-size="10.00"> HeaderP</text>
</g>
<!-- Node9 -->
<g id="node9" class="node"><title>Node9</title>
<g id="a_node9"><a xlink:href="structDynamicMMap_1_1Pool.xhtml" target="_top" xlink:title="Pool">
<polygon fill="white" stroke="black" points="318,-143.942 318,-162.942 354,-162.942 354,-143.942 318,-143.942"/>
<text text-anchor="middle" x="336" y="-150.942" font-family="Helvetica,sans-Serif" font-size="10.00">Pool</text>
</a>
</g>
</g>
<!-- Node9&#45;&gt;Node8 -->
<g id="edge8" class="edge"><title>Node9&#45;&gt;Node8</title>
<path fill="none" stroke="#9a32cd" stroke-dasharray="5,2" d="M363.482,-165.293C388.638,-176.402 427.618,-193.232 462,-206.442 472.373,-210.427 483.987,-214.496 493.859,-217.84"/>
<polygon fill="#9a32cd" stroke="#9a32cd" points="364.798,-162.048 354.238,-161.193 361.96,-168.447 364.798,-162.048"/>
<text text-anchor="middle" x="410" y="-201.442" font-family="Helvetica,sans-Serif" font-size="10.00"> Pools</text>
</g>
<!-- Node21 -->
<g id="node21" class="node"><title>Node21</title>
<g id="a_node21"><a xlink:href="classDynamicMMap.xhtml" target="_top" xlink:title="DynamicMMap">
<polygon fill="white" stroke="black" points="666.5,-54.9416 666.5,-73.9416 749.5,-73.9416 749.5,-54.9416 666.5,-54.9416"/>
<text text-anchor="middle" x="708" y="-61.9416" font-family="Helvetica,sans-Serif" font-size="10.00">DynamicMMap</text>
</a>
</g>
</g>
<!-- Node9&#45;&gt;Node21 -->
<g id="edge26" class="edge"><title>Node9&#45;&gt;Node21</title>
<path fill="none" stroke="#9a32cd" stroke-dasharray="5,2" d="M360.186,-138.524C384.514,-123.665 424.377,-101.517 462,-90.4416 499.237,-79.4801 606.825,-70.9926 666.29,-66.9809"/>
<polygon fill="#9a32cd" stroke="#9a32cd" points="358.305,-135.572 351.66,-143.824 362.001,-141.517 358.305,-135.572"/>
<text text-anchor="middle" x="518" y="-93.4416" font-family="Helvetica,sans-Serif" font-size="10.00"> Pools</text>
</g>
<!-- Node10 -->
<g id="node10" class="node"><title>Node10</title>
<g id="a_node10"><a xlink:href="structpkgCache_1_1PackageFile.xhtml" target="_top" xlink:title="stores information about the files used to generate the cache ">
<polygon fill="white" stroke="black" points="482.5,-595.942 482.5,-614.942 553.5,-614.942 553.5,-595.942 482.5,-595.942"/>
<text text-anchor="middle" x="518" y="-602.942" font-family="Helvetica,sans-Serif" font-size="10.00">PackageFile</text>
</a>
</g>
</g>
<!-- Node10&#45;&gt;Node1 -->
<g id="edge23" class="edge"><title>Node10&#45;&gt;Node1</title>
<path fill="none" stroke="#9a32cd" stroke-dasharray="5,2" d="M563.863,-606.339C629.001,-607.642 749.436,-610.05 817.907,-611.42"/>
<polygon fill="#9a32cd" stroke="#9a32cd" points="563.585,-602.833 553.517,-606.132 563.445,-609.831 563.585,-602.833"/>
<text text-anchor="middle" x="708" y="-612.442" font-family="Helvetica,sans-Serif" font-size="10.00"> CurrentFile</text>
</g>
<!-- Node10&#45;&gt;Node5 -->
<g id="edge9" class="edge"><title>Node10&#45;&gt;Node5</title>
<path fill="none" stroke="#9a32cd" stroke-dasharray="5,2" d="M563.711,-593.417C598.455,-583.714 641.768,-570.687 648,-564.442 699.219,-513.114 706.051,-417.743 706.901,-387.153"/>
<polygon fill="#9a32cd" stroke="#9a32cd" points="562.42,-590.143 553.717,-596.184 564.288,-596.889 562.42,-590.143"/>
<text text-anchor="middle" x="620" y="-587.442" font-family="Helvetica,sans-Serif" font-size="10.00"> PkgFileP</text>
</g>
<!-- Node11 -->
<g id="node11" class="node"><title>Node11</title>
<g id="a_node11"><a xlink:href="structpkgCache_1_1DescFile.xhtml" target="_top" xlink:title="associates a description with a Translation file ">
<polygon fill="white" stroke="black" points="490,-367.942 490,-386.942 546,-386.942 546,-367.942 490,-367.942"/>
<text text-anchor="middle" x="518" y="-374.942" font-family="Helvetica,sans-Serif" font-size="10.00">DescFile</text>
</a>
</g>
</g>
<!-- Node11&#45;&gt;Node5 -->
<g id="edge10" class="edge"><title>Node11&#45;&gt;Node5</title>
<path fill="none" stroke="#9a32cd" stroke-dasharray="5,2" d="M556.787,-377.442C592.348,-377.442 644.872,-377.442 677.459,-377.442"/>
<polygon fill="#9a32cd" stroke="#9a32cd" points="556.337,-373.942 546.337,-377.442 556.337,-380.942 556.337,-373.942"/>
<text text-anchor="middle" x="620" y="-380.442" font-family="Helvetica,sans-Serif" font-size="10.00"> DescFileP</text>
</g>
<!-- Node12 -->
<g id="node12" class="node"><title>Node12</title>
<g id="a_node12"><a xlink:href="structpkgCache_1_1StringItem.xhtml" target="_top" xlink:title="used for generating single instances of strings ">
<polygon fill="white" stroke="black" points="487,-329.942 487,-348.942 549,-348.942 549,-329.942 487,-329.942"/>
<text text-anchor="middle" x="518" y="-336.942" font-family="Helvetica,sans-Serif" font-size="10.00">StringItem</text>
</a>
</g>
</g>
<!-- Node12&#45;&gt;Node5 -->
<g id="edge11" class="edge"><title>Node12&#45;&gt;Node5</title>
<path fill="none" stroke="#9a32cd" stroke-dasharray="5,2" d="M559.152,-345.83C584.684,-350.082 618.391,-356.047 648,-362.442 657.608,-364.517 668.021,-367.064 677.387,-369.466"/>
<polygon fill="#9a32cd" stroke="#9a32cd" points="559.533,-342.346 549.097,-344.173 558.395,-349.252 559.533,-342.346"/>
<text text-anchor="middle" x="620" y="-365.442" font-family="Helvetica,sans-Serif" font-size="10.00"> StringItemP</text>
</g>
<!-- Node13 -->
<g id="node13" class="node"><title>Node13</title>
<g id="a_node13"><a xlink:href="structpkgCache_1_1Provides.xhtml" target="_top" xlink:title="handles virtual packages ">
<polygon fill="white" stroke="black" points="490.5,-291.942 490.5,-310.942 545.5,-310.942 545.5,-291.942 490.5,-291.942"/>
<text text-anchor="middle" x="518" y="-298.942" font-family="Helvetica,sans-Serif" font-size="10.00">Provides</text>
</a>
</g>
</g>
<!-- Node13&#45;&gt;Node5 -->
<g id="edge12" class="edge"><title>Node13&#45;&gt;Node5</title>
<path fill="none" stroke="#9a32cd" stroke-dasharray="5,2" d="M555.559,-308.333C582.014,-314.102 618.201,-323.632 648,-337.442 665.516,-345.559 683.593,-358.637 695.043,-367.615"/>
<polygon fill="#9a32cd" stroke="#9a32cd" points="556.083,-304.866 545.576,-306.233 554.642,-311.717 556.083,-304.866"/>
<text text-anchor="middle" x="620" y="-340.442" font-family="Helvetica,sans-Serif" font-size="10.00"> ProvideP</text>
</g>
<!-- Node14 -->
<g id="node14" class="node"><title>Node14</title>
<g id="a_node14"><a xlink:href="structpkgCache_1_1Group.xhtml" target="_top" xlink:title="groups architecture depending packages together ">
<polygon fill="white" stroke="black" points="496.5,-253.942 496.5,-272.942 539.5,-272.942 539.5,-253.942 496.5,-253.942"/>
<text text-anchor="middle" x="518" y="-260.942" font-family="Helvetica,sans-Serif" font-size="10.00">Group</text>
</a>
</g>
</g>
<!-- Node14&#45;&gt;Node5 -->
<g id="edge14" class="edge"><title>Node14&#45;&gt;Node5</title>
<path fill="none" stroke="#9a32cd" stroke-dasharray="5,2" d="M549.761,-267.705C577.403,-272.7 618.125,-283.039 648,-303.442 673.237,-320.677 692.947,-351.932 701.839,-367.735"/>
<polygon fill="#9a32cd" stroke="#9a32cd" points="550.298,-264.246 539.857,-266.042 549.14,-271.149 550.298,-264.246"/>
<text text-anchor="middle" x="620" y="-306.442" font-family="Helvetica,sans-Serif" font-size="10.00"> GrpP</text>
</g>
<!-- Node15 -->
<g id="node15" class="node"><title>Node15</title>
<g id="a_node15"><a xlink:href="classpkgVersioningSystem.xhtml" target="_top" xlink:title="pkgVersioningSystem">
<polygon fill="white" stroke="black" points="462,-148.942 462,-167.942 574,-167.942 574,-148.942 462,-148.942"/>
<text text-anchor="middle" x="518" y="-155.942" font-family="Helvetica,sans-Serif" font-size="10.00">pkgVersioningSystem</text>
</a>
</g>
</g>
<!-- Node15&#45;&gt;Node5 -->
<g id="edge15" class="edge"><title>Node15&#45;&gt;Node5</title>
<path fill="none" stroke="#9a32cd" stroke-dasharray="5,2" d="M563.879,-171.382C591.404,-181.361 625.554,-197.71 648,-222.442 688.249,-266.79 702.043,-341.397 705.8,-367.815"/>
<polygon fill="#9a32cd" stroke="#9a32cd" points="564.667,-167.951 554.072,-167.99 562.379,-174.566 564.667,-167.951"/>
<text text-anchor="middle" x="620" y="-225.442" font-family="Helvetica,sans-Serif" font-size="10.00"> VS</text>
</g>
<!-- Node15&#45;&gt;Node15 -->
<g id="edge16" class="edge"><title>Node15&#45;&gt;Node15</title>
<path fill="none" stroke="#9a32cd" stroke-dasharray="5,2" d="M499.112,-177.842C500.373,-182.756 506.669,-186.442 518,-186.442 536.129,-186.442 541.369,-177.007 533.721,-168.199"/>
<polygon fill="#9a32cd" stroke="#9a32cd" points="502.484,-178.792 502.279,-168.199 495.833,-176.607 502.484,-178.792"/>
<text text-anchor="middle" x="518" y="-189.442" font-family="Helvetica,sans-Serif" font-size="10.00"> GlobalList</text>
</g>
<!-- Node16 -->
<g id="node16" class="node"><title>Node16</title>
<g id="a_node16"><a xlink:href="structpkgCache_1_1Version.xhtml" target="_top" xlink:title="information for a single version of a package ">
<polygon fill="white" stroke="black" points="493,-110.942 493,-129.942 543,-129.942 543,-110.942 493,-110.942"/>
<text text-anchor="middle" x="518" y="-117.942" font-family="Helvetica,sans-Serif" font-size="10.00">Version</text>
</a>
</g>
</g>
<!-- Node16&#45;&gt;Node5 -->
<g id="edge17" class="edge"><title>Node16&#45;&gt;Node5</title>
<path fill="none" stroke="#9a32cd" stroke-dasharray="5,2" d="M553.364,-124.677C582.609,-130.092 623.641,-142.278 648,-169.442 701.879,-229.524 706.873,-335.397 707.091,-367.768"/>
<polygon fill="#9a32cd" stroke="#9a32cd" points="553.615,-121.171 543.175,-122.973 552.461,-128.075 553.615,-121.171"/>
<text text-anchor="middle" x="620" y="-172.442" font-family="Helvetica,sans-Serif" font-size="10.00"> VerP</text>
</g>
<!-- Node17 -->
<g id="node17" class="node"><title>Node17</title>
<g id="a_node17"><a xlink:href="structpkgCache_1_1VerFile.xhtml" target="_top" xlink:title="associates a version with a PackageFile ">
<polygon fill="white" stroke="black" points="494.5,-557.942 494.5,-576.942 541.5,-576.942 541.5,-557.942 494.5,-557.942"/>
<text text-anchor="middle" x="518" y="-564.942" font-family="Helvetica,sans-Serif" font-size="10.00">VerFile</text>
</a>
</g>
</g>
<!-- Node17&#45;&gt;Node5 -->
<g id="edge18" class="edge"><title>Node17&#45;&gt;Node5</title>
<path fill="none" stroke="#9a32cd" stroke-dasharray="5,2" d="M551.959,-561.455C585.331,-554.801 633.963,-543.285 648,-530.442 691.898,-490.276 703.443,-413.716 706.203,-386.958"/>
<polygon fill="#9a32cd" stroke="#9a32cd" points="550.874,-558.1 541.723,-563.44 552.207,-564.972 550.874,-558.1"/>
<text text-anchor="middle" x="620" y="-554.442" font-family="Helvetica,sans-Serif" font-size="10.00"> VerFileP</text>
</g>
<!-- Node18 -->
<g id="node18" class="node"><title>Node18</title>
<g id="a_node18"><a xlink:href="structpkgCache_1_1Package.xhtml" target="_top" xlink:title="contains information for a single unique package ">
<polygon fill="white" stroke="black" points="490.5,-519.942 490.5,-538.942 545.5,-538.942 545.5,-519.942 490.5,-519.942"/>
<text text-anchor="middle" x="518" y="-526.942" font-family="Helvetica,sans-Serif" font-size="10.00">Package</text>
</a>
</g>
</g>
<!-- Node18&#45;&gt;Node5 -->
<g id="edge19" class="edge"><title>Node18&#45;&gt;Node5</title>
<path fill="none" stroke="#9a32cd" stroke-dasharray="5,2" d="M555.906,-523.526C588.828,-517.629 633.935,-507.827 648,-496.442 684.206,-467.135 700.009,-409.986 705.065,-387.18"/>
<polygon fill="#9a32cd" stroke="#9a32cd" points="554.953,-520.139 545.7,-525.3 556.152,-527.035 554.953,-520.139"/>
<text text-anchor="middle" x="620" y="-519.442" font-family="Helvetica,sans-Serif" font-size="10.00"> PkgP</text>
</g>
<!-- Node19 -->
<g id="node19" class="node"><title>Node19</title>
<g id="a_node19"><a xlink:href="classMMap.xhtml" target="_top" xlink:title="MMap">
<polygon fill="white" stroke="black" points="496,-25.9416 496,-44.9416 540,-44.9416 540,-25.9416 496,-25.9416"/>
<text text-anchor="middle" x="518" y="-32.9416" font-family="Helvetica,sans-Serif" font-size="10.00">MMap</text>
</a>
</g>
</g>
<!-- Node19&#45;&gt;Node5 -->
<g id="edge20" class="edge"><title>Node19&#45;&gt;Node5</title>
<path fill="none" stroke="#9a32cd" stroke-dasharray="5,2" d="M549.458,-46.7915C579.876,-59.8483 625.278,-84.377 648,-121.442 699.967,-206.209 706.212,-332.248 706.921,-367.798"/>
<polygon fill="#9a32cd" stroke="#9a32cd" points="550.736,-43.5324 540.157,-42.954 548.066,-50.0033 550.736,-43.5324"/>
<text text-anchor="middle" x="620" y="-124.442" font-family="Helvetica,sans-Serif" font-size="10.00"> Map</text>
</g>
<!-- Node19&#45;&gt;Node21 -->
<g id="edge25" class="edge"><title>Node19&#45;&gt;Node21</title>
<path fill="none" stroke="midnightblue" d="M550.275,-40.266C582.118,-45.1779 631.624,-52.8145 666.458,-58.1878"/>
<polygon fill="midnightblue" stroke="midnightblue" points="550.617,-36.7775 540.201,-38.7119 549.55,-43.6956 550.617,-36.7775"/>
</g>
<!-- Node20&#45;&gt;Node19 -->
<g id="edge21" class="edge"><title>Node20&#45;&gt;Node19</title>
<path fill="none" stroke="#9a32cd" stroke-dasharray="5,2" d="M368.098,-35.4416C404.641,-35.4416 464.285,-35.4416 495.855,-35.4416"/>
<polygon fill="#9a32cd" stroke="#9a32cd" points="368.001,-31.9417 358.001,-35.4416 368.001,-38.9417 368.001,-31.9417"/>
<text text-anchor="middle" x="410" y="-38.4416" font-family="Helvetica,sans-Serif" font-size="10.00"> SyncToFd</text>
</g>
<!-- Node20&#45;&gt;Node21 -->
<g id="edge27" class="edge"><title>Node20&#45;&gt;Node21</title>
<path fill="none" stroke="#9a32cd" stroke-dasharray="5,2" d="M367.679,-25.0717C413.118,-11.1712 500.822,10.0612 574,-5.44165 618.976,-14.9697 667.224,-40.7705 691.36,-54.8905"/>
<polygon fill="#9a32cd" stroke="#9a32cd" points="366.607,-21.7398 358.119,-28.0808 368.709,-28.4169 366.607,-21.7398"/>
<text text-anchor="middle" x="518" y="-8.44165" font-family="Helvetica,sans-Serif" font-size="10.00"> Fd</text>
</g>
<!-- Node21&#45;&gt;Node1 -->
<g id="edge24" class="edge"><title>Node21&#45;&gt;Node1</title>
<path fill="none" stroke="#9a32cd" stroke-dasharray="5,2" d="M714.637,-83.7494C740.493,-172.306 847.283,-538.061 866.146,-602.668"/>
<polygon fill="#9a32cd" stroke="#9a32cd" points="717.94,-82.5715 711.777,-73.9532 711.22,-84.5334 717.94,-82.5715"/>
<text text-anchor="middle" x="784" y="-374.442" font-family="Helvetica,sans-Serif" font-size="10.00"> Map</text>
</g>
</g>
</svg>
