<?xml version="1.0" encoding="UTF-8" standalone="no"?>
<!DOCTYPE svg PUBLIC "-//W3C//DTD SVG 1.1//EN"
 "http://www.w3.org/Graphics/SVG/1.1/DTD/svg11.dtd">
<!-- Generated by graphviz version 2.36.0 (20140111.2315)
 -->
<!-- Title: indexRecords Pages: 1 -->
<svg width="311pt" height="404pt"
 viewBox="0.00 0.00 311.00 404.00" xmlns="http://www.w3.org/2000/svg" xmlns:xlink="http://www.w3.org/1999/xlink">
<g id="graph0" class="graph" transform="scale(1 1) rotate(0) translate(4 400)">
<title>indexRecords</title>
<polygon fill="white" stroke="none" points="-4,4 -4,-400 307,-400 307,4 -4,4"/>
<!-- Node1 -->
<g id="node1" class="node"><title>Node1</title>
<polygon fill="#bfbfbf" stroke="black" points="-0.5,-0.5 -0.5,-19.5 76.5,-19.5 76.5,-0.5 -0.5,-0.5"/>
<text text-anchor="middle" x="38" y="-7.5" font-family="Helvetica,sans-Serif" font-size="10.00">indexRecords</text>
</g>
<!-- Node2 -->
<g id="node2" class="node"><title>Node2</title>
<polygon fill="white" stroke="#bfbfbf" points="32,-69 32,-99 186,-99 186,-69 32,-69"/>
<text text-anchor="start" x="40" y="-87" font-family="Helvetica,sans-Serif" font-size="10.00">map&lt; std::string, indexRecords</text>
<text text-anchor="middle" x="109" y="-76" font-family="Helvetica,sans-Serif" font-size="10.00">::checkSum * &gt;</text>
</g>
<!-- Node2&#45;&gt;Node1 -->
<g id="edge1" class="edge"><title>Node2&#45;&gt;Node1</title>
<path fill="none" stroke="#9a32cd" stroke-dasharray="5,2" d="M87.7432,-61.4438C73.976,-47.4827 56.7828,-30.0473 46.6372,-19.7589"/>
<polygon fill="#9a32cd" stroke="#9a32cd" points="85.4591,-64.1123 94.9727,-68.7751 90.4433,-59.1972 85.4591,-64.1123"/>
<text text-anchor="middle" x="93" y="-41.5" font-family="Helvetica,sans-Serif" font-size="10.00"> Entries</text>
</g>
<!-- Node3 -->
<g id="node3" class="node"><title>Node3</title>
<g id="a_node3"><a xlink:title="STL class. ">
<polygon fill="white" stroke="#bfbfbf" points="94.5,-318.5 94.5,-337.5 135.5,-337.5 135.5,-318.5 94.5,-318.5"/>
<text text-anchor="middle" x="115" y="-325.5" font-family="Helvetica,sans-Serif" font-size="10.00">string</text>
</a>
</g>
</g>
<!-- Node3&#45;&gt;Node1 -->
<g id="edge8" class="edge"><title>Node3&#45;&gt;Node1</title>
<path fill="none" stroke="#9a32cd" stroke-dasharray="5,2" d="M84.3071,-320.038C51.4542,-310.555 4,-290.093 4,-251 4,-251 4,-251 4,-83 4,-58.1175 20.8091,-32.6303 30.7895,-19.6903"/>
<polygon fill="#9a32cd" stroke="#9a32cd" points="83.8165,-323.53 94.3819,-322.74 85.6302,-316.769 83.8165,-323.53"/>
<text text-anchor="middle" x="34" y="-184" font-family="Helvetica,sans-Serif" font-size="10.00"> Dist</text>
<text text-anchor="middle" x="34" y="-173" font-family="Helvetica,sans-Serif" font-size="10.00">Suite</text>
<text text-anchor="middle" x="34" y="-162" font-family="Helvetica,sans-Serif" font-size="10.00">ErrorText</text>
<text text-anchor="middle" x="34" y="-151" font-family="Helvetica,sans-Serif" font-size="10.00">ExpectedDist</text>
</g>
<!-- Node3&#45;&gt;Node2 -->
<g id="edge2" class="edge"><title>Node3&#45;&gt;Node2</title>
<path fill="none" stroke="#9a32cd" stroke-dasharray="5,2" d="M114.377,-308.178C113.529,-282.092 112.002,-233.468 111,-192 110.197,-158.752 109.539,-119.686 109.216,-99.1937"/>
<polygon fill="#9a32cd" stroke="#9a32cd" points="110.889,-308.592 114.715,-318.472 117.885,-308.362 110.889,-308.592"/>
<text text-anchor="middle" x="124.5" y="-213.5" font-family="Helvetica,sans-Serif" font-size="10.00"> keys</text>
</g>
<!-- Node5 -->
<g id="node5" class="node"><title>Node5</title>
<g id="a_node5"><a xlink:href="structindexRecords_1_1checkSum.xhtml" target="_top" xlink:title="checkSum">
<polygon fill="white" stroke="black" points="120.5,-160.5 120.5,-179.5 183.5,-179.5 183.5,-160.5 120.5,-160.5"/>
<text text-anchor="middle" x="152" y="-167.5" font-family="Helvetica,sans-Serif" font-size="10.00">checkSum</text>
</a>
</g>
</g>
<!-- Node3&#45;&gt;Node5 -->
<g id="edge5" class="edge"><title>Node3&#45;&gt;Node5</title>
<path fill="none" stroke="#9a32cd" stroke-dasharray="5,2" d="M119.464,-308.179C127.5,-274.298 144.105,-204.287 149.928,-179.737"/>
<polygon fill="#9a32cd" stroke="#9a32cd" points="115.998,-307.628 117.095,-318.166 122.809,-309.243 115.998,-307.628"/>
<text text-anchor="middle" x="177" y="-247.5" font-family="Helvetica,sans-Serif" font-size="10.00"> MetaKeyFilename</text>
</g>
<!-- Node6 -->
<g id="node6" class="node"><title>Node6</title>
<g id="a_node6"><a xlink:href="classHashString.xhtml" target="_top" xlink:title="HashString">
<polygon fill="white" stroke="black" points="238.5,-240.5 238.5,-259.5 303.5,-259.5 303.5,-240.5 238.5,-240.5"/>
<text text-anchor="middle" x="271" y="-247.5" font-family="Helvetica,sans-Serif" font-size="10.00">HashString</text>
</a>
</g>
</g>
<!-- Node3&#45;&gt;Node6 -->
<g id="edge7" class="edge"><title>Node3&#45;&gt;Node6</title>
<path fill="none" stroke="#9a32cd" stroke-dasharray="5,2" d="M141.776,-313.955C173.647,-298.428 225.973,-272.936 253.233,-259.656"/>
<polygon fill="#9a32cd" stroke="#9a32cd" points="140.049,-310.903 132.592,-318.43 143.115,-317.196 140.049,-310.903"/>
<text text-anchor="middle" x="224.5" y="-292" font-family="Helvetica,sans-Serif" font-size="10.00"> Type</text>
<text text-anchor="middle" x="224.5" y="-281" font-family="Helvetica,sans-Serif" font-size="10.00">Hash</text>
</g>
<!-- Node4 -->
<g id="node4" class="node"><title>Node4</title>
<g id="a_node4"><a xlink:title="STL class. ">
<polygon fill="white" stroke="#bfbfbf" points="62,-376.5 62,-395.5 168,-395.5 168,-376.5 62,-376.5"/>
<text text-anchor="middle" x="115" y="-383.5" font-family="Helvetica,sans-Serif" font-size="10.00">basic_string&lt; char &gt;</text>
</a>
</g>
</g>
<!-- Node4&#45;&gt;Node3 -->
<g id="edge3" class="edge"><title>Node4&#45;&gt;Node3</title>
<path fill="none" stroke="midnightblue" d="M115,-365.953C115,-356.287 115,-345.031 115,-337.505"/>
<polygon fill="midnightblue" stroke="midnightblue" points="111.5,-366.25 115,-376.25 118.5,-366.25 111.5,-366.25"/>
</g>
<!-- Node5&#45;&gt;Node2 -->
<g id="edge4" class="edge"><title>Node5&#45;&gt;Node2</title>
<path fill="none" stroke="#9a32cd" stroke-dasharray="5,2" d="M142.903,-151.23C134.941,-135.675 123.529,-113.382 116.19,-99.0464"/>
<polygon fill="#9a32cd" stroke="#9a32cd" points="139.888,-153.02 147.56,-160.327 146.119,-149.831 139.888,-153.02"/>
<text text-anchor="middle" x="153.5" y="-121.5" font-family="Helvetica,sans-Serif" font-size="10.00"> elements</text>
</g>
<!-- Node6&#45;&gt;Node5 -->
<g id="edge6" class="edge"><title>Node6&#45;&gt;Node5</title>
<path fill="none" stroke="#9a32cd" stroke-dasharray="5,2" d="M249.186,-234.702C224.645,-218.616 185.568,-193.003 165.249,-179.684"/>
<polygon fill="#9a32cd" stroke="#9a32cd" points="247.528,-237.8 257.81,-240.355 251.365,-231.945 247.528,-237.8"/>
<text text-anchor="middle" x="242.5" y="-213.5" font-family="Helvetica,sans-Serif" font-size="10.00"> Hash</text>
</g>
</g>
</svg>
