<?xml version="1.0" encoding="UTF-8" standalone="no"?>
<!DOCTYPE svg PUBLIC "-//W3C//DTD SVG 1.1//EN"
 "http://www.w3.org/Graphics/SVG/1.1/DTD/svg11.dtd">
<!-- Generated by graphviz version 2.36.0 (20140111.2315)
 -->
<!-- Title: pkgCache::PkgFileIterator Pages: 1 -->
<svg width="148pt" height="164pt"
 viewBox="0.00 0.00 148.00 164.00" xmlns="http://www.w3.org/2000/svg" xmlns:xlink="http://www.w3.org/1999/xlink">
<g id="graph0" class="graph" transform="scale(1 1) rotate(0) translate(4 160)">
<title>pkgCache::PkgFileIterator</title>
<polygon fill="white" stroke="none" points="-4,4 -4,-160 144,-160 144,4 -4,4"/>
<!-- Node1 -->
<g id="node1" class="node"><title>Node1</title>
<polygon fill="#bfbfbf" stroke="black" points="4.5,-0.5 4.5,-19.5 135.5,-19.5 135.5,-0.5 4.5,-0.5"/>
<text text-anchor="middle" x="70" y="-7.5" font-family="Helvetica,sans-Serif" font-size="10.00">pkgCache::PkgFileIterator</text>
</g>
<!-- Node2 -->
<g id="node2" class="node"><title>Node2</title>
<g id="a_node2"><a xlink:href="classpkgCache_1_1Iterator.xhtml" target="_top" xlink:title="Iterator\&lt; PackageFile,\l PkgFileIterator \&gt;">
<polygon fill="white" stroke="black" points="13.5,-57 13.5,-87 126.5,-87 126.5,-57 13.5,-57"/>
<text text-anchor="start" x="21.5" y="-75" font-family="Helvetica,sans-Serif" font-size="10.00">Iterator&lt; PackageFile,</text>
<text text-anchor="middle" x="70" y="-64" font-family="Helvetica,sans-Serif" font-size="10.00"> PkgFileIterator &gt;</text>
</a>
</g>
</g>
<!-- Node2&#45;&gt;Node1 -->
<g id="edge1" class="edge"><title>Node2&#45;&gt;Node1</title>
<path fill="none" stroke="midnightblue" d="M70,-46.5858C70,-37.0743 70,-26.7864 70,-19.7305"/>
<polygon fill="midnightblue" stroke="midnightblue" points="66.5001,-46.7808 70,-56.7808 73.5001,-46.7809 66.5001,-46.7808"/>
</g>
<!-- Node3 -->
<g id="node3" class="node"><title>Node3</title>
<polygon fill="white" stroke="#bfbfbf" points="0,-125 0,-155 140,-155 140,-125 0,-125"/>
<text text-anchor="start" x="8" y="-143" font-family="Helvetica,sans-Serif" font-size="10.00">iterator&lt; std::forward</text>
<text text-anchor="middle" x="70" y="-132" font-family="Helvetica,sans-Serif" font-size="10.00">_iterator_tag, PackageFile &gt;</text>
</g>
<!-- Node3&#45;&gt;Node2 -->
<g id="edge2" class="edge"><title>Node3&#45;&gt;Node2</title>
<path fill="none" stroke="midnightblue" d="M70,-114.532C70,-105.361 70,-95.2449 70,-87.2931"/>
<polygon fill="midnightblue" stroke="midnightblue" points="66.5001,-114.679 70,-124.679 73.5001,-114.679 66.5001,-114.679"/>
</g>
</g>
</svg>
