<?xml version="1.0" encoding="UTF-8" standalone="no"?>
<!DOCTYPE svg PUBLIC "-//W3C//DTD SVG 1.1//EN"
 "http://www.w3.org/Graphics/SVG/1.1/DTD/svg11.dtd">
<!-- Generated by graphviz version 2.36.0 (20140111.2315)
 -->
<!-- Title: pkgCache::PkgIterator Pages: 1 -->
<svg width="130pt" height="164pt"
 viewBox="0.00 0.00 130.00 164.00" xmlns="http://www.w3.org/2000/svg" xmlns:xlink="http://www.w3.org/1999/xlink">
<g id="graph0" class="graph" transform="scale(1 1) rotate(0) translate(4 160)">
<title>pkgCache::PkgIterator</title>
<polygon fill="white" stroke="none" points="-4,4 -4,-160 126,-160 126,4 -4,4"/>
<!-- Node1 -->
<g id="node1" class="node"><title>Node1</title>
<polygon fill="#bfbfbf" stroke="black" points="3.5,-0.5 3.5,-19.5 118.5,-19.5 118.5,-0.5 3.5,-0.5"/>
<text text-anchor="middle" x="61" y="-7.5" font-family="Helvetica,sans-Serif" font-size="10.00">pkgCache::PkgIterator</text>
</g>
<!-- Node2 -->
<g id="node2" class="node"><title>Node2</title>
<g id="a_node2"><a xlink:href="classpkgCache_1_1Iterator.xhtml" target="_top" xlink:title="Iterator\&lt; Package,\l PkgIterator \&gt;">
<polygon fill="white" stroke="black" points="12,-57 12,-87 110,-87 110,-57 12,-57"/>
<text text-anchor="start" x="20" y="-75" font-family="Helvetica,sans-Serif" font-size="10.00">Iterator&lt; Package,</text>
<text text-anchor="middle" x="61" y="-64" font-family="Helvetica,sans-Serif" font-size="10.00"> PkgIterator &gt;</text>
</a>
</g>
</g>
<!-- Node2&#45;&gt;Node1 -->
<g id="edge1" class="edge"><title>Node2&#45;&gt;Node1</title>
<path fill="none" stroke="midnightblue" d="M61,-46.5858C61,-37.0743 61,-26.7864 61,-19.7305"/>
<polygon fill="midnightblue" stroke="midnightblue" points="57.5001,-46.7808 61,-56.7808 64.5001,-46.7809 57.5001,-46.7808"/>
</g>
<!-- Node3 -->
<g id="node3" class="node"><title>Node3</title>
<polygon fill="white" stroke="#bfbfbf" points="-1,-125 -1,-155 123,-155 123,-125 -1,-125"/>
<text text-anchor="start" x="7" y="-143" font-family="Helvetica,sans-Serif" font-size="10.00">iterator&lt; std::forward</text>
<text text-anchor="middle" x="61" y="-132" font-family="Helvetica,sans-Serif" font-size="10.00">_iterator_tag, Package &gt;</text>
</g>
<!-- Node3&#45;&gt;Node2 -->
<g id="edge2" class="edge"><title>Node3&#45;&gt;Node2</title>
<path fill="none" stroke="midnightblue" d="M61,-114.532C61,-105.361 61,-95.2449 61,-87.2931"/>
<polygon fill="midnightblue" stroke="midnightblue" points="57.5001,-114.679 61,-124.679 64.5001,-114.679 57.5001,-114.679"/>
</g>
</g>
</svg>
