<?xml version="1.0" encoding="UTF-8" standalone="no"?>
<!DOCTYPE svg PUBLIC "-//W3C//DTD SVG 1.1//EN"
 "http://www.w3.org/Graphics/SVG/1.1/DTD/svg11.dtd">
<!-- Generated by graphviz version 2.36.0 (20140111.2315)
 -->
<!-- Title: debSrcRecordParser Pages: 1 -->
<svg width="114pt" height="154pt"
 viewBox="0.00 0.00 114.00 154.00" xmlns="http://www.w3.org/2000/svg" xmlns:xlink="http://www.w3.org/1999/xlink">
<g id="graph0" class="graph" transform="scale(1 1) rotate(0) translate(4 150)">
<title>debSrcRecordParser</title>
<polygon fill="white" stroke="none" points="-4,4 -4,-150 110,-150 110,4 -4,4"/>
<!-- Node1 -->
<g id="node1" class="node"><title>Node1</title>
<polygon fill="#bfbfbf" stroke="black" points="-0.5,-0.5 -0.5,-19.5 106.5,-19.5 106.5,-0.5 -0.5,-0.5"/>
<text text-anchor="middle" x="53" y="-7.5" font-family="Helvetica,sans-Serif" font-size="10.00">debSrcRecordParser</text>
</g>
<!-- Node2 -->
<g id="node2" class="node"><title>Node2</title>
<g id="a_node2"><a xlink:href="classpkgSrcRecords_1_1Parser.xhtml" target="_top" xlink:title="Parser">
<polygon fill="white" stroke="black" points="30.5,-58.5 30.5,-77.5 75.5,-77.5 75.5,-58.5 30.5,-58.5"/>
<text text-anchor="middle" x="53" y="-65.5" font-family="Helvetica,sans-Serif" font-size="10.00">Parser</text>
</a>
</g>
</g>
<!-- Node2&#45;&gt;Node1 -->
<g id="edge1" class="edge"><title>Node2&#45;&gt;Node1</title>
<path fill="none" stroke="midnightblue" d="M53,-47.953C53,-38.2875 53,-27.0312 53,-19.5052"/>
<polygon fill="midnightblue" stroke="midnightblue" points="49.5001,-48.25 53,-58.25 56.5001,-48.25 49.5001,-48.25"/>
</g>
<!-- Node3 -->
<g id="node3" class="node"><title>Node3</title>
<g id="a_node3"><a xlink:href="classpkgIndexFile.xhtml" target="_top" xlink:title="pkgIndexFile">
<polygon fill="white" stroke="black" points="17,-126.5 17,-145.5 89,-145.5 89,-126.5 17,-126.5"/>
<text text-anchor="middle" x="53" y="-133.5" font-family="Helvetica,sans-Serif" font-size="10.00">pkgIndexFile</text>
</a>
</g>
</g>
<!-- Node3&#45;&gt;Node2 -->
<g id="edge2" class="edge"><title>Node3&#45;&gt;Node2</title>
<path fill="none" stroke="#9a32cd" stroke-dasharray="5,2" d="M53,-116.041C53,-103.472 53,-87.5631 53,-77.8411"/>
<polygon fill="#9a32cd" stroke="#9a32cd" points="49.5001,-116.372 53,-126.372 56.5001,-116.372 49.5001,-116.372"/>
<text text-anchor="middle" x="68" y="-99.5" font-family="Helvetica,sans-Serif" font-size="10.00"> iIndex</text>
</g>
</g>
</svg>
