<?xml version="1.0" encoding="UTF-8" standalone="no"?>
<!DOCTYPE svg PUBLIC "-//W3C//DTD SVG 1.1//EN"
 "http://www.w3.org/Graphics/SVG/1.1/DTD/svg11.dtd">
<!-- Generated by graphviz version 2.36.0 (20140111.2315)
 -->
<!-- Title: pkgCache::PrvIterator Pages: 1 -->
<svg width="1098pt" height="616pt"
 viewBox="0.00 0.00 1098.00 616.00" xmlns="http://www.w3.org/2000/svg" xmlns:xlink="http://www.w3.org/1999/xlink">
<g id="graph0" class="graph" transform="scale(1 1) rotate(0) translate(4 612)">
<title>pkgCache::PrvIterator</title>
<polygon fill="white" stroke="none" points="-4,4 -4,-612 1094,-612 1094,4 -4,4"/>
<!-- Node1 -->
<g id="node1" class="node"><title>Node1</title>
<polygon fill="#bfbfbf" stroke="black" points="976.5,-538.5 976.5,-557.5 1089.5,-557.5 1089.5,-538.5 976.5,-538.5"/>
<text text-anchor="middle" x="1033" y="-545.5" font-family="Helvetica,sans-Serif" font-size="10.00">pkgCache::PrvIterator</text>
</g>
<!-- Node2 -->
<g id="node2" class="node"><title>Node2</title>
<g id="a_node2"><a xlink:href="classpkgCache_1_1Iterator.xhtml" target="_top" xlink:title="Iterator\&lt; Provides,\l PrvIterator \&gt;">
<polygon fill="white" stroke="black" points="840,-533 840,-563 938,-563 938,-533 840,-533"/>
<text text-anchor="start" x="848" y="-551" font-family="Helvetica,sans-Serif" font-size="10.00">Iterator&lt; Provides,</text>
<text text-anchor="middle" x="889" y="-540" font-family="Helvetica,sans-Serif" font-size="10.00"> PrvIterator &gt;</text>
</a>
</g>
</g>
<!-- Node2&#45;&gt;Node1 -->
<g id="edge1" class="edge"><title>Node2&#45;&gt;Node1</title>
<path fill="none" stroke="midnightblue" d="M948.301,-548C957.499,-548 966.991,-548 976.133,-548"/>
<polygon fill="midnightblue" stroke="midnightblue" points="948.075,-544.5 938.075,-548 948.075,-551.5 948.075,-544.5"/>
</g>
<!-- Node3 -->
<g id="node3" class="node"><title>Node3</title>
<polygon fill="white" stroke="#bfbfbf" points="648,-578 648,-608 772,-608 772,-578 648,-578"/>
<text text-anchor="start" x="656" y="-596" font-family="Helvetica,sans-Serif" font-size="10.00">iterator&lt; std::forward</text>
<text text-anchor="middle" x="710" y="-585" font-family="Helvetica,sans-Serif" font-size="10.00">_iterator_tag, Provides &gt;</text>
</g>
<!-- Node3&#45;&gt;Node2 -->
<g id="edge2" class="edge"><title>Node3&#45;&gt;Node2</title>
<path fill="none" stroke="midnightblue" d="M780.386,-575.359C800.298,-570.297 821.565,-564.89 839.891,-560.231"/>
<polygon fill="midnightblue" stroke="midnightblue" points="779.26,-572.034 770.431,-577.89 780.985,-578.818 779.26,-572.034"/>
</g>
<!-- Node4 -->
<g id="node4" class="node"><title>Node4</title>
<g id="a_node4"><a xlink:href="classpkgCache.xhtml" target="_top" xlink:title="pkgCache">
<polygon fill="white" stroke="black" points="679.5,-295.5 679.5,-314.5 740.5,-314.5 740.5,-295.5 679.5,-295.5"/>
<text text-anchor="middle" x="710" y="-302.5" font-family="Helvetica,sans-Serif" font-size="10.00">pkgCache</text>
</a>
</g>
</g>
<!-- Node4&#45;&gt;Node2 -->
<g id="edge3" class="edge"><title>Node4&#45;&gt;Node2</title>
<path fill="none" stroke="#9a32cd" stroke-dasharray="5,2" d="M723.827,-322.61C757.138,-368.341 845.954,-490.276 877.057,-532.977"/>
<polygon fill="#9a32cd" stroke="#9a32cd" points="726.655,-320.548 717.939,-314.526 720.997,-324.67 726.655,-320.548"/>
<text text-anchor="middle" x="806" y="-459" font-family="Helvetica,sans-Serif" font-size="10.00"> Owner</text>
</g>
<!-- Node5 -->
<g id="node5" class="node"><title>Node5</title>
<g id="a_node5"><a xlink:href="structpkgCache_1_1Dependency.xhtml" target="_top" xlink:title="information for a single dependency record ">
<polygon fill="white" stroke="black" points="464.5,-485.5 464.5,-504.5 535.5,-504.5 535.5,-485.5 464.5,-485.5"/>
<text text-anchor="middle" x="500" y="-492.5" font-family="Helvetica,sans-Serif" font-size="10.00">Dependency</text>
</a>
</g>
</g>
<!-- Node5&#45;&gt;Node4 -->
<g id="edge4" class="edge"><title>Node5&#45;&gt;Node4</title>
<path fill="none" stroke="#9a32cd" stroke-dasharray="5,2" d="M545.667,-491.514C572.606,-487.387 606.2,-478.423 630,-459 678.656,-419.292 700.521,-341.776 706.909,-314.651"/>
<polygon fill="#9a32cd" stroke="#9a32cd" points="545.139,-488.053 535.702,-492.87 546.083,-494.989 545.139,-488.053"/>
<text text-anchor="middle" x="602" y="-489" font-family="Helvetica,sans-Serif" font-size="10.00"> DepP</text>
</g>
<!-- Node6 -->
<g id="node6" class="node"><title>Node6</title>
<g id="a_node6"><a xlink:href="structpkgCache_1_1Description.xhtml" target="_top" xlink:title="datamember of a linked list of available description for a version ">
<polygon fill="white" stroke="black" points="467,-447.5 467,-466.5 533,-466.5 533,-447.5 467,-447.5"/>
<text text-anchor="middle" x="500" y="-454.5" font-family="Helvetica,sans-Serif" font-size="10.00">Description</text>
</a>
</g>
</g>
<!-- Node6&#45;&gt;Node4 -->
<g id="edge5" class="edge"><title>Node6&#45;&gt;Node4</title>
<path fill="none" stroke="#9a32cd" stroke-dasharray="5,2" d="M542.939,-451.546C569.835,-446.4 604.382,-436.566 630,-418 668.764,-389.907 695.177,-336.739 704.878,-314.823"/>
<polygon fill="#9a32cd" stroke="#9a32cd" points="542.278,-448.109 533.04,-453.298 543.497,-455.002 542.278,-448.109"/>
<text text-anchor="middle" x="602" y="-447" font-family="Helvetica,sans-Serif" font-size="10.00"> DescP</text>
</g>
<!-- Node7 -->
<g id="node7" class="node"><title>Node7</title>
<g id="a_node7"><a xlink:href="structpkgCache_1_1Header.xhtml" target="_top" xlink:title="Header">
<polygon fill="white" stroke="black" points="476,-409.5 476,-428.5 524,-428.5 524,-409.5 476,-409.5"/>
<text text-anchor="middle" x="500" y="-416.5" font-family="Helvetica,sans-Serif" font-size="10.00">Header</text>
</a>
</g>
</g>
<!-- Node7&#45;&gt;Node4 -->
<g id="edge6" class="edge"><title>Node7&#45;&gt;Node4</title>
<path fill="none" stroke="#9a32cd" stroke-dasharray="5,2" d="M534.317,-413.001C561.41,-407.133 599.937,-396.481 630,-379 660.217,-361.429 688.228,-330.327 701.288,-314.631"/>
<polygon fill="#9a32cd" stroke="#9a32cd" points="533.266,-409.644 524.178,-415.089 534.679,-416.5 533.266,-409.644"/>
<text text-anchor="middle" x="602" y="-406" font-family="Helvetica,sans-Serif" font-size="10.00"> HeaderP</text>
</g>
<!-- Node8 -->
<g id="node8" class="node"><title>Node8</title>
<g id="a_node8"><a xlink:href="structDynamicMMap_1_1Pool.xhtml" target="_top" xlink:title="Pool">
<polygon fill="white" stroke="black" points="318,-409.5 318,-428.5 354,-428.5 354,-409.5 318,-409.5"/>
<text text-anchor="middle" x="336" y="-416.5" font-family="Helvetica,sans-Serif" font-size="10.00">Pool</text>
</a>
</g>
</g>
<!-- Node8&#45;&gt;Node7 -->
<g id="edge7" class="edge"><title>Node8&#45;&gt;Node7</title>
<path fill="none" stroke="#9a32cd" stroke-dasharray="5,2" d="M364.236,-419C395.589,-419 446.538,-419 475.988,-419"/>
<polygon fill="#9a32cd" stroke="#9a32cd" points="364.031,-415.5 354.031,-419 364.031,-422.5 364.031,-415.5"/>
<text text-anchor="middle" x="401" y="-422" font-family="Helvetica,sans-Serif" font-size="10.00"> Pools</text>
</g>
<!-- Node9 -->
<g id="node9" class="node"><title>Node9</title>
<g id="a_node9"><a xlink:href="structpkgCache_1_1PackageFile.xhtml" target="_top" xlink:title="stores information about the files used to generate the cache ">
<polygon fill="white" stroke="black" points="464.5,-371.5 464.5,-390.5 535.5,-390.5 535.5,-371.5 464.5,-371.5"/>
<text text-anchor="middle" x="500" y="-378.5" font-family="Helvetica,sans-Serif" font-size="10.00">PackageFile</text>
</a>
</g>
</g>
<!-- Node9&#45;&gt;Node4 -->
<g id="edge8" class="edge"><title>Node9&#45;&gt;Node4</title>
<path fill="none" stroke="#9a32cd" stroke-dasharray="5,2" d="M545.548,-370.867C570.73,-364.572 602.568,-355.653 630,-345 652.356,-336.318 676.801,-323.364 692.488,-314.568"/>
<polygon fill="#9a32cd" stroke="#9a32cd" points="544.427,-367.538 535.547,-373.317 546.093,-374.337 544.427,-367.538"/>
<text text-anchor="middle" x="602" y="-367" font-family="Helvetica,sans-Serif" font-size="10.00"> PkgFileP</text>
</g>
<!-- Node10 -->
<g id="node10" class="node"><title>Node10</title>
<g id="a_node10"><a xlink:href="structpkgCache_1_1DescFile.xhtml" target="_top" xlink:title="associates a description with a Translation file ">
<polygon fill="white" stroke="black" points="472,-333.5 472,-352.5 528,-352.5 528,-333.5 472,-333.5"/>
<text text-anchor="middle" x="500" y="-340.5" font-family="Helvetica,sans-Serif" font-size="10.00">DescFile</text>
</a>
</g>
</g>
<!-- Node10&#45;&gt;Node4 -->
<g id="edge9" class="edge"><title>Node10&#45;&gt;Node4</title>
<path fill="none" stroke="#9a32cd" stroke-dasharray="5,2" d="M538.284,-336.466C564.057,-331.922 599.128,-325.683 630,-320 646.338,-316.992 664.557,-313.54 679.378,-310.706"/>
<polygon fill="#9a32cd" stroke="#9a32cd" points="537.437,-333.061 528.196,-338.242 538.651,-339.955 537.437,-333.061"/>
<text text-anchor="middle" x="602" y="-333" font-family="Helvetica,sans-Serif" font-size="10.00"> DescFileP</text>
</g>
<!-- Node11 -->
<g id="node11" class="node"><title>Node11</title>
<g id="a_node11"><a xlink:href="structpkgCache_1_1StringItem.xhtml" target="_top" xlink:title="used for generating single instances of strings ">
<polygon fill="white" stroke="black" points="469,-295.5 469,-314.5 531,-314.5 531,-295.5 469,-295.5"/>
<text text-anchor="middle" x="500" y="-302.5" font-family="Helvetica,sans-Serif" font-size="10.00">StringItem</text>
</a>
</g>
</g>
<!-- Node11&#45;&gt;Node4 -->
<g id="edge10" class="edge"><title>Node11&#45;&gt;Node4</title>
<path fill="none" stroke="#9a32cd" stroke-dasharray="5,2" d="M541.31,-305C581.788,-305 643.2,-305 679.392,-305"/>
<polygon fill="#9a32cd" stroke="#9a32cd" points="541.245,-301.5 531.245,-305 541.245,-308.5 541.245,-301.5"/>
<text text-anchor="middle" x="602" y="-308" font-family="Helvetica,sans-Serif" font-size="10.00"> StringItemP</text>
</g>
<!-- Node12 -->
<g id="node12" class="node"><title>Node12</title>
<g id="a_node12"><a xlink:href="structpkgCache_1_1Provides.xhtml" target="_top" xlink:title="handles virtual packages ">
<polygon fill="white" stroke="black" points="472.5,-530.5 472.5,-549.5 527.5,-549.5 527.5,-530.5 472.5,-530.5"/>
<text text-anchor="middle" x="500" y="-537.5" font-family="Helvetica,sans-Serif" font-size="10.00">Provides</text>
</a>
</g>
</g>
<!-- Node12&#45;&gt;Node2 -->
<g id="edge23" class="edge"><title>Node12&#45;&gt;Node2</title>
<path fill="none" stroke="#9a32cd" stroke-dasharray="5,2" d="M537.743,-540.76C608.013,-542.212 761.414,-545.383 839.801,-547.004"/>
<polygon fill="#9a32cd" stroke="#9a32cd" points="537.67,-537.257 527.6,-540.55 537.526,-544.256 537.67,-537.257"/>
<text text-anchor="middle" x="710" y="-548" font-family="Helvetica,sans-Serif" font-size="10.00"> S</text>
</g>
<!-- Node12&#45;&gt;Node4 -->
<g id="edge11" class="edge"><title>Node12&#45;&gt;Node4</title>
<path fill="none" stroke="#9a32cd" stroke-dasharray="5,2" d="M537.873,-530.301C573.482,-520.658 623.028,-506.408 630,-500 687.551,-447.104 704.089,-346.379 707.966,-314.753"/>
<polygon fill="#9a32cd" stroke="#9a32cd" points="536.539,-527.035 527.789,-533.009 538.355,-533.795 536.539,-527.035"/>
<text text-anchor="middle" x="602" y="-523" font-family="Helvetica,sans-Serif" font-size="10.00"> ProvideP</text>
</g>
<!-- Node13 -->
<g id="node13" class="node"><title>Node13</title>
<g id="a_node13"><a xlink:title="STL class. ">
<polygon fill="white" stroke="#bfbfbf" points="144.5,-200.5 144.5,-219.5 185.5,-219.5 185.5,-200.5 144.5,-200.5"/>
<text text-anchor="middle" x="165" y="-207.5" font-family="Helvetica,sans-Serif" font-size="10.00">string</text>
</a>
</g>
</g>
<!-- Node13&#45;&gt;Node4 -->
<g id="edge12" class="edge"><title>Node13&#45;&gt;Node4</title>
<path fill="none" stroke="#9a32cd" stroke-dasharray="5,2" d="M195.697,-214.016C198.502,-214.362 201.303,-214.696 204,-215 360.143,-232.586 402.832,-212.936 556,-248 605.183,-259.259 659.94,-282.418 688.742,-295.486"/>
<polygon fill="#9a32cd" stroke="#9a32cd" points="196.07,-210.535 185.706,-212.735 195.179,-217.478 196.07,-210.535"/>
<text text-anchor="middle" x="401" y="-231" font-family="Helvetica,sans-Serif" font-size="10.00"> CacheFile</text>
</g>
<!-- Node21 -->
<g id="node21" class="node"><title>Node21</title>
<g id="a_node21"><a xlink:href="classFileFd.xhtml" target="_top" xlink:title="FileFd">
<polygon fill="white" stroke="black" points="314,-181.5 314,-200.5 358,-200.5 358,-181.5 314,-181.5"/>
<text text-anchor="middle" x="336" y="-188.5" font-family="Helvetica,sans-Serif" font-size="10.00">FileFd</text>
</a>
</g>
</g>
<!-- Node13&#45;&gt;Node21 -->
<g id="edge22" class="edge"><title>Node13&#45;&gt;Node21</title>
<path fill="none" stroke="#9a32cd" stroke-dasharray="5,2" d="M192.707,-196.457C196.422,-195.048 200.251,-193.83 204,-193 241.975,-184.589 287.668,-186.522 313.824,-188.733"/>
<polygon fill="#9a32cd" stroke="#9a32cd" points="191.089,-193.342 183.274,-200.496 193.844,-199.777 191.089,-193.342"/>
<text text-anchor="middle" x="250" y="-207" font-family="Helvetica,sans-Serif" font-size="10.00"> TemporaryFileName</text>
<text text-anchor="middle" x="250" y="-196" font-family="Helvetica,sans-Serif" font-size="10.00">FileName</text>
</g>
<!-- Node14 -->
<g id="node14" class="node"><title>Node14</title>
<g id="a_node14"><a xlink:title="STL class. ">
<polygon fill="white" stroke="#bfbfbf" points="0,-200.5 0,-219.5 106,-219.5 106,-200.5 0,-200.5"/>
<text text-anchor="middle" x="53" y="-207.5" font-family="Helvetica,sans-Serif" font-size="10.00">basic_string&lt; char &gt;</text>
</a>
</g>
</g>
<!-- Node14&#45;&gt;Node13 -->
<g id="edge13" class="edge"><title>Node14&#45;&gt;Node13</title>
<path fill="none" stroke="midnightblue" d="M116.338,-210C126.515,-210 136.35,-210 144.416,-210"/>
<polygon fill="midnightblue" stroke="midnightblue" points="116.101,-206.5 106.101,-210 116.101,-213.5 116.101,-206.5"/>
</g>
<!-- Node15 -->
<g id="node15" class="node"><title>Node15</title>
<g id="a_node15"><a xlink:href="structpkgCache_1_1Group.xhtml" target="_top" xlink:title="groups architecture depending packages together ">
<polygon fill="white" stroke="black" points="478.5,-143.5 478.5,-162.5 521.5,-162.5 521.5,-143.5 478.5,-143.5"/>
<text text-anchor="middle" x="500" y="-150.5" font-family="Helvetica,sans-Serif" font-size="10.00">Group</text>
</a>
</g>
</g>
<!-- Node15&#45;&gt;Node4 -->
<g id="edge14" class="edge"><title>Node15&#45;&gt;Node4</title>
<path fill="none" stroke="#9a32cd" stroke-dasharray="5,2" d="M531.696,-151.026C559.63,-150.744 600.836,-154.271 630,-174 675.316,-204.655 698.856,-270.8 706.322,-295.468"/>
<polygon fill="#9a32cd" stroke="#9a32cd" points="531.595,-147.527 521.693,-151.294 531.783,-154.525 531.595,-147.527"/>
<text text-anchor="middle" x="602" y="-177" font-family="Helvetica,sans-Serif" font-size="10.00"> GrpP</text>
</g>
<!-- Node16 -->
<g id="node16" class="node"><title>Node16</title>
<g id="a_node16"><a xlink:href="classpkgVersioningSystem.xhtml" target="_top" xlink:title="pkgVersioningSystem">
<polygon fill="white" stroke="black" points="444,-76.5 444,-95.5 556,-95.5 556,-76.5 444,-76.5"/>
<text text-anchor="middle" x="500" y="-83.5" font-family="Helvetica,sans-Serif" font-size="10.00">pkgVersioningSystem</text>
</a>
</g>
</g>
<!-- Node16&#45;&gt;Node4 -->
<g id="edge15" class="edge"><title>Node16&#45;&gt;Node4</title>
<path fill="none" stroke="#9a32cd" stroke-dasharray="5,2" d="M555.052,-98.5022C580.299,-106.59 609.281,-119.378 630,-139 678.664,-185.088 700.649,-267.266 706.978,-295.311"/>
<polygon fill="#9a32cd" stroke="#9a32cd" points="555.809,-95.0745 545.224,-95.5249 553.78,-101.774 555.809,-95.0745"/>
<text text-anchor="middle" x="602" y="-142" font-family="Helvetica,sans-Serif" font-size="10.00"> VS</text>
</g>
<!-- Node16&#45;&gt;Node16 -->
<g id="edge16" class="edge"><title>Node16&#45;&gt;Node16</title>
<path fill="none" stroke="#9a32cd" stroke-dasharray="5,2" d="M481.853,-105.4C483.065,-110.315 489.114,-114 500,-114 517.418,-114 522.453,-104.565 515.105,-95.7571"/>
<polygon fill="#9a32cd" stroke="#9a32cd" points="485.224,-106.347 484.895,-95.7571 478.548,-104.24 485.224,-106.347"/>
<text text-anchor="middle" x="500" y="-117" font-family="Helvetica,sans-Serif" font-size="10.00"> GlobalList</text>
</g>
<!-- Node17 -->
<g id="node17" class="node"><title>Node17</title>
<g id="a_node17"><a xlink:href="structpkgCache_1_1Version.xhtml" target="_top" xlink:title="information for a single version of a package ">
<polygon fill="white" stroke="black" points="475,-38.5 475,-57.5 525,-57.5 525,-38.5 475,-38.5"/>
<text text-anchor="middle" x="500" y="-45.5" font-family="Helvetica,sans-Serif" font-size="10.00">Version</text>
</a>
</g>
</g>
<!-- Node17&#45;&gt;Node4 -->
<g id="edge17" class="edge"><title>Node17&#45;&gt;Node4</title>
<path fill="none" stroke="#9a32cd" stroke-dasharray="5,2" d="M535.148,-51.215C563.898,-55.6385 604.326,-66.1321 630,-91 691.445,-150.516 705.443,-261.948 708.317,-295.318"/>
<polygon fill="#9a32cd" stroke="#9a32cd" points="535.516,-47.7327 525.134,-49.8445 534.567,-54.6681 535.516,-47.7327"/>
<text text-anchor="middle" x="602" y="-94" font-family="Helvetica,sans-Serif" font-size="10.00"> VerP</text>
</g>
<!-- Node18 -->
<g id="node18" class="node"><title>Node18</title>
<g id="a_node18"><a xlink:href="structpkgCache_1_1VerFile.xhtml" target="_top" xlink:title="associates a version with a PackageFile ">
<polygon fill="white" stroke="black" points="476.5,-0.5 476.5,-19.5 523.5,-19.5 523.5,-0.5 476.5,-0.5"/>
<text text-anchor="middle" x="500" y="-7.5" font-family="Helvetica,sans-Serif" font-size="10.00">VerFile</text>
</a>
</g>
</g>
<!-- Node18&#45;&gt;Node4 -->
<g id="edge18" class="edge"><title>Node18&#45;&gt;Node4</title>
<path fill="none" stroke="#9a32cd" stroke-dasharray="5,2" d="M533.872,-10.6738C562.859,-13.0304 604.366,-20.9721 630,-46 704,-118.252 709.156,-257.599 709.143,-295.361"/>
<polygon fill="#9a32cd" stroke="#9a32cd" points="534.012,-7.17578 523.811,-10.037 533.57,-14.1618 534.012,-7.17578"/>
<text text-anchor="middle" x="602" y="-49" font-family="Helvetica,sans-Serif" font-size="10.00"> VerFileP</text>
</g>
<!-- Node19 -->
<g id="node19" class="node"><title>Node19</title>
<g id="a_node19"><a xlink:href="structpkgCache_1_1Package.xhtml" target="_top" xlink:title="contains information for a single unique package ">
<polygon fill="white" stroke="black" points="472.5,-257.5 472.5,-276.5 527.5,-276.5 527.5,-257.5 472.5,-257.5"/>
<text text-anchor="middle" x="500" y="-264.5" font-family="Helvetica,sans-Serif" font-size="10.00">Package</text>
</a>
</g>
</g>
<!-- Node19&#45;&gt;Node4 -->
<g id="edge19" class="edge"><title>Node19&#45;&gt;Node4</title>
<path fill="none" stroke="#9a32cd" stroke-dasharray="5,2" d="M537.793,-273.447C563.61,-277.999 598.931,-284.281 630,-290 646.338,-293.008 664.557,-296.46 679.378,-299.294"/>
<polygon fill="#9a32cd" stroke="#9a32cd" points="538.154,-269.957 527.698,-271.67 536.94,-276.851 538.154,-269.957"/>
<text text-anchor="middle" x="602" y="-293" font-family="Helvetica,sans-Serif" font-size="10.00"> PkgP</text>
</g>
<!-- Node20 -->
<g id="node20" class="node"><title>Node20</title>
<g id="a_node20"><a xlink:href="classMMap.xhtml" target="_top" xlink:title="MMap">
<polygon fill="white" stroke="black" points="478,-181.5 478,-200.5 522,-200.5 522,-181.5 478,-181.5"/>
<text text-anchor="middle" x="500" y="-188.5" font-family="Helvetica,sans-Serif" font-size="10.00">MMap</text>
</a>
</g>
</g>
<!-- Node20&#45;&gt;Node4 -->
<g id="edge20" class="edge"><title>Node20&#45;&gt;Node4</title>
<path fill="none" stroke="#9a32cd" stroke-dasharray="5,2" d="M532.343,-187.538C559.795,-185.985 599.892,-187.406 630,-204 668.798,-225.383 695.014,-274.553 704.765,-295.389"/>
<polygon fill="#9a32cd" stroke="#9a32cd" points="531.851,-184.065 522.133,-188.286 532.362,-191.046 531.851,-184.065"/>
<text text-anchor="middle" x="602" y="-207" font-family="Helvetica,sans-Serif" font-size="10.00"> Map</text>
</g>
<!-- Node21&#45;&gt;Node20 -->
<g id="edge21" class="edge"><title>Node21&#45;&gt;Node20</title>
<path fill="none" stroke="#9a32cd" stroke-dasharray="5,2" d="M368.403,-191C400.64,-191 449.92,-191 477.816,-191"/>
<polygon fill="#9a32cd" stroke="#9a32cd" points="368.179,-187.5 358.179,-191 368.179,-194.5 368.179,-187.5"/>
<text text-anchor="middle" x="401" y="-194" font-family="Helvetica,sans-Serif" font-size="10.00"> SyncToFd</text>
</g>
</g>
</svg>
