<?xml version="1.0" encoding="UTF-8" standalone="no"?>
<!DOCTYPE svg PUBLIC "-//W3C//DTD SVG 1.1//EN"
 "http://www.w3.org/Graphics/SVG/1.1/DTD/svg11.dtd">
<!-- Generated by graphviz version 2.36.0 (20140111.2315)
 -->
<!-- Title: pkgDPkgPMPrivate Pages: 1 -->
<svg width="203pt" height="222pt"
 viewBox="0.00 0.00 203.00 222.00" xmlns="http://www.w3.org/2000/svg" xmlns:xlink="http://www.w3.org/1999/xlink">
<g id="graph0" class="graph" transform="scale(1 1) rotate(0) translate(4 218)">
<title>pkgDPkgPMPrivate</title>
<polygon fill="white" stroke="none" points="-4,4 -4,-218 199,-218 199,4 -4,4"/>
<!-- Node1 -->
<g id="node1" class="node"><title>Node1</title>
<polygon fill="#bfbfbf" stroke="black" points="20.5,-0.5 20.5,-19.5 123.5,-19.5 123.5,-0.5 20.5,-0.5"/>
<text text-anchor="middle" x="72" y="-7.5" font-family="Helvetica,sans-Serif" font-size="10.00">pkgDPkgPMPrivate</text>
</g>
<!-- Node2 -->
<g id="node2" class="node"><title>Node2</title>
<g id="a_node2"><a xlink:href="classAPT_1_1Progress_1_1PackageManager.xhtml" target="_top" xlink:title="PackageManager">
<polygon fill="white" stroke="black" points="103,-68.5 103,-87.5 195,-87.5 195,-68.5 103,-68.5"/>
<text text-anchor="middle" x="149" y="-75.5" font-family="Helvetica,sans-Serif" font-size="10.00">PackageManager</text>
</a>
</g>
</g>
<!-- Node2&#45;&gt;Node1 -->
<g id="edge1" class="edge"><title>Node2&#45;&gt;Node1</title>
<path fill="none" stroke="#9a32cd" stroke-dasharray="5,2" d="M131.237,-61.7744C116.081,-48.7837 94.8143,-30.5551 82.3146,-19.8411"/>
<polygon fill="#9a32cd" stroke="#9a32cd" points="129.063,-64.5211 138.934,-68.3717 133.619,-59.2063 129.063,-64.5211"/>
<text text-anchor="middle" x="137.5" y="-41.5" font-family="Helvetica,sans-Serif" font-size="10.00"> progress</text>
</g>
<!-- Node3 -->
<g id="node3" class="node"><title>Node3</title>
<g id="a_node3"><a xlink:title="STL class. ">
<polygon fill="white" stroke="#bfbfbf" points="31.5,-136.5 31.5,-155.5 72.5,-155.5 72.5,-136.5 31.5,-136.5"/>
<text text-anchor="middle" x="52" y="-143.5" font-family="Helvetica,sans-Serif" font-size="10.00">string</text>
</a>
</g>
</g>
<!-- Node3&#45;&gt;Node1 -->
<g id="edge4" class="edge"><title>Node3&#45;&gt;Node1</title>
<path fill="none" stroke="#9a32cd" stroke-dasharray="5,2" d="M47.0993,-126.329C43.7314,-110.603 40.5923,-87.6013 45,-68 49.0839,-49.8387 59.6503,-30.6621 66.2887,-19.8273"/>
<polygon fill="#9a32cd" stroke="#9a32cd" points="43.7627,-127.426 49.4875,-136.341 50.5717,-125.802 43.7627,-127.426"/>
<text text-anchor="middle" x="69.5" y="-75.5" font-family="Helvetica,sans-Serif" font-size="10.00"> dpkg_error</text>
</g>
<!-- Node3&#45;&gt;Node2 -->
<g id="edge2" class="edge"><title>Node3&#45;&gt;Node2</title>
<path fill="none" stroke="#9a32cd" stroke-dasharray="5,2" d="M73.1143,-130.634C92.3953,-117.515 120.266,-98.551 136.316,-87.6305"/>
<polygon fill="#9a32cd" stroke="#9a32cd" points="70.9798,-127.852 64.6811,-136.372 74.9177,-133.64 70.9798,-127.852"/>
<text text-anchor="middle" x="138" y="-109.5" font-family="Helvetica,sans-Serif" font-size="10.00"> progress_str</text>
</g>
<!-- Node4 -->
<g id="node4" class="node"><title>Node4</title>
<g id="a_node4"><a xlink:title="STL class. ">
<polygon fill="white" stroke="#bfbfbf" points="-1,-194.5 -1,-213.5 105,-213.5 105,-194.5 -1,-194.5"/>
<text text-anchor="middle" x="52" y="-201.5" font-family="Helvetica,sans-Serif" font-size="10.00">basic_string&lt; char &gt;</text>
</a>
</g>
</g>
<!-- Node4&#45;&gt;Node3 -->
<g id="edge3" class="edge"><title>Node4&#45;&gt;Node3</title>
<path fill="none" stroke="midnightblue" d="M52,-183.953C52,-174.287 52,-163.031 52,-155.505"/>
<polygon fill="midnightblue" stroke="midnightblue" points="48.5001,-184.25 52,-194.25 55.5001,-184.25 48.5001,-184.25"/>
</g>
</g>
</svg>
