<?xml version="1.0" encoding="UTF-8" standalone="no"?>
<!DOCTYPE svg PUBLIC "-//W3C//DTD SVG 1.1//EN"
 "http://www.w3.org/Graphics/SVG/1.1/DTD/svg11.dtd">
<!-- Generated by graphviz version 2.36.0 (20140111.2315)
 -->
<!-- Title: debSLTypeDebian Pages: 1 -->
<svg width="140pt" height="86pt"
 viewBox="0.00 0.00 140.00 86.00" xmlns="http://www.w3.org/2000/svg" xmlns:xlink="http://www.w3.org/1999/xlink">
<g id="graph0" class="graph" transform="scale(1 1) rotate(0) translate(4 82)">
<title>debSLTypeDebian</title>
<polygon fill="white" stroke="none" points="-4,4 -4,-82 136,-82 136,4 -4,4"/>
<!-- Node1 -->
<g id="node1" class="node"><title>Node1</title>
<polygon fill="#bfbfbf" stroke="black" points="-0.5,-0.5 -0.5,-19.5 96.5,-19.5 96.5,-0.5 -0.5,-0.5"/>
<text text-anchor="middle" x="48" y="-7.5" font-family="Helvetica,sans-Serif" font-size="10.00">debSLTypeDebian</text>
</g>
<!-- Node2 -->
<g id="node2" class="node"><title>Node2</title>
<g id="a_node2"><a xlink:href="classpkgSourceList_1_1Type.xhtml" target="_top" xlink:title="Type">
<polygon fill="white" stroke="black" points="29,-58.5 29,-77.5 67,-77.5 67,-58.5 29,-58.5"/>
<text text-anchor="middle" x="48" y="-65.5" font-family="Helvetica,sans-Serif" font-size="10.00">Type</text>
</a>
</g>
</g>
<!-- Node2&#45;&gt;Node1 -->
<g id="edge1" class="edge"><title>Node2&#45;&gt;Node1</title>
<path fill="none" stroke="midnightblue" d="M48,-47.953C48,-38.2875 48,-27.0312 48,-19.5052"/>
<polygon fill="midnightblue" stroke="midnightblue" points="44.5001,-48.25 48,-58.25 51.5001,-48.25 44.5001,-48.25"/>
</g>
<!-- Node2&#45;&gt;Node2 -->
<g id="edge2" class="edge"><title>Node2&#45;&gt;Node2</title>
<path fill="none" stroke="#9a32cd" stroke-dasharray="5,2" d="M77.2501,-72.8209C81.8553,-72.1064 85,-70.4994 85,-68 85,-63.8984 76.5314,-62.2001 67.0372,-62.9051"/>
<polygon fill="#9a32cd" stroke="#9a32cd" points="76.9397,-69.3279 67.0372,-73.0949 77.1276,-76.3254 76.9397,-69.3279"/>
<text text-anchor="middle" x="108.5" y="-65.5" font-family="Helvetica,sans-Serif" font-size="10.00"> GlobalList</text>
</g>
</g>
</svg>
