<?xml version="1.0" encoding="UTF-8" standalone="no"?>
<!DOCTYPE svg PUBLIC "-//W3C//DTD SVG 1.1//EN"
 "http://www.w3.org/Graphics/SVG/1.1/DTD/svg11.dtd">
<!-- Generated by graphviz version 2.36.0 (20140111.2315)
 -->
<!-- Title: pkgAcquire::Item Pages: 1 -->
<svg width="830pt" height="564pt"
 viewBox="0.00 0.00 830.00 564.00" xmlns="http://www.w3.org/2000/svg" xmlns:xlink="http://www.w3.org/1999/xlink">
<g id="graph0" class="graph" transform="scale(1 1) rotate(0) translate(4 560)">
<title>pkgAcquire::Item</title>
<polygon fill="white" stroke="none" points="-4,4 -4,-560 826,-560 826,4 -4,4"/>
<!-- Node1 -->
<g id="node1" class="node"><title>Node1</title>
<polygon fill="#bfbfbf" stroke="black" points="76.5,-381.5 76.5,-400.5 167.5,-400.5 167.5,-381.5 76.5,-381.5"/>
<text text-anchor="middle" x="122" y="-388.5" font-family="Helvetica,sans-Serif" font-size="10.00">pkgAcquire::Item</text>
</g>
<!-- Node6 -->
<g id="node6" class="node"><title>Node6</title>
<g id="a_node6"><a xlink:href="structpkgAcquire_1_1ItemDesc.xhtml" target="_top" xlink:title="Represents a single download source from which an item should be downloaded. ">
<polygon fill="white" stroke="black" points="227.5,-297.5 227.5,-316.5 286.5,-316.5 286.5,-297.5 227.5,-297.5"/>
<text text-anchor="middle" x="257" y="-304.5" font-family="Helvetica,sans-Serif" font-size="10.00">ItemDesc</text>
</a>
</g>
</g>
<!-- Node1&#45;&gt;Node6 -->
<g id="edge10" class="edge"><title>Node1&#45;&gt;Node6</title>
<path fill="none" stroke="#9a32cd" stroke-dasharray="5,2" d="M138.218,-374.375C150.979,-362.688 169.619,-346.909 188,-336 201.341,-328.082 217.336,-321.435 230.565,-316.607"/>
<polygon fill="#9a32cd" stroke="#9a32cd" points="135.652,-371.983 130.743,-381.372 140.436,-377.093 135.652,-371.983"/>
<text text-anchor="middle" x="204" y="-343.5" font-family="Helvetica,sans-Serif" font-size="10.00"> Owner</text>
</g>
<!-- Node13 -->
<g id="node13" class="node"><title>Node13</title>
<polygon fill="white" stroke="#bfbfbf" points="-0.5,-246 -0.5,-276 100.5,-276 100.5,-246 -0.5,-246"/>
<text text-anchor="start" x="7.5" y="-264" font-family="Helvetica,sans-Serif" font-size="10.00">vector&lt; pkgAcquire</text>
<text text-anchor="middle" x="50" y="-253" font-family="Helvetica,sans-Serif" font-size="10.00">::Item * &gt;</text>
</g>
<!-- Node1&#45;&gt;Node13 -->
<g id="edge29" class="edge"><title>Node1&#45;&gt;Node13</title>
<path fill="none" stroke="#9a32cd" stroke-dasharray="5,2" d="M83.9952,-377.05C74.3595,-371.966 65.0393,-365.105 59,-356 42.8694,-331.682 44.8193,-295.736 47.505,-276.089"/>
<polygon fill="#9a32cd" stroke="#9a32cd" points="82.6949,-380.306 93.2336,-381.396 85.6746,-373.972 82.6949,-380.306"/>
<text text-anchor="middle" x="80.5" y="-343.5" font-family="Helvetica,sans-Serif" font-size="10.00"> elements</text>
</g>
<!-- Node2 -->
<g id="node2" class="node"><title>Node2</title>
<g id="a_node2"><a xlink:href="classWeakPointable.xhtml" target="_top" xlink:title="WeakPointable">
<polygon fill="white" stroke="black" points="154.5,-478.5 154.5,-497.5 237.5,-497.5 237.5,-478.5 154.5,-478.5"/>
<text text-anchor="middle" x="196" y="-485.5" font-family="Helvetica,sans-Serif" font-size="10.00">WeakPointable</text>
</a>
</g>
</g>
<!-- Node2&#45;&gt;Node1 -->
<g id="edge1" class="edge"><title>Node2&#45;&gt;Node1</title>
<path fill="none" stroke="midnightblue" d="M182.895,-470.176C167.078,-449.871 141.08,-416.495 128.813,-400.746"/>
<polygon fill="midnightblue" stroke="midnightblue" points="180.265,-472.495 189.171,-478.233 185.787,-468.193 180.265,-472.495"/>
</g>
<!-- Node2&#45;&gt;Node6 -->
<g id="edge7" class="edge"><title>Node2&#45;&gt;Node6</title>
<path fill="none" stroke="midnightblue" d="M205.795,-469.202C207.296,-466.174 208.758,-463.029 210,-460 231.691,-407.098 249.033,-340.367 254.878,-316.76"/>
<polygon fill="midnightblue" stroke="midnightblue" points="202.626,-467.709 201.077,-478.19 208.824,-470.962 202.626,-467.709"/>
</g>
<!-- Node9 -->
<g id="node9" class="node"><title>Node9</title>
<g id="a_node9"><a xlink:href="classpkgAcquire_1_1Worker.xhtml" target="_top" xlink:title="A fetch subprocess. ">
<polygon fill="white" stroke="black" points="409,-69.5 409,-88.5 457,-88.5 457,-69.5 409,-69.5"/>
<text text-anchor="middle" x="433" y="-76.5" font-family="Helvetica,sans-Serif" font-size="10.00">Worker</text>
</a>
</g>
</g>
<!-- Node2&#45;&gt;Node9 -->
<g id="edge13" class="edge"><title>Node2&#45;&gt;Node9</title>
<path fill="none" stroke="midnightblue" d="M196,-468.283C196,-449.123 196,-418.485 196,-392 196,-392 196,-392 196,-147 196,-103.066 348.719,-86.4929 408.971,-81.6641"/>
<polygon fill="midnightblue" stroke="midnightblue" points="192.5,-468.355 196,-478.355 199.5,-468.355 192.5,-468.355"/>
</g>
<!-- Node3 -->
<g id="node3" class="node"><title>Node3</title>
<g id="a_node3"><a xlink:href="classpkgAcquire.xhtml" target="_top" xlink:title="The core download scheduler. {{{. ">
<polygon fill="white" stroke="black" points="546.5,-0.5 546.5,-19.5 611.5,-19.5 611.5,-0.5 546.5,-0.5"/>
<text text-anchor="middle" x="579" y="-7.5" font-family="Helvetica,sans-Serif" font-size="10.00">pkgAcquire</text>
</a>
</g>
</g>
<!-- Node3&#45;&gt;Node1 -->
<g id="edge2" class="edge"><title>Node3&#45;&gt;Node1</title>
<path fill="none" stroke="#9a32cd" stroke-dasharray="5,2" d="M536.282,-12.7283C421.671,-17.9307 116,-35.7647 116,-78 116,-308 116,-308 116,-308 116,-334.835 119.236,-366.479 120.955,-381.397"/>
<polygon fill="#9a32cd" stroke="#9a32cd" points="536.608,-16.2174 546.443,-12.2776 536.297,-9.22425 536.608,-16.2174"/>
<text text-anchor="middle" x="132" y="-179.5" font-family="Helvetica,sans-Serif" font-size="10.00"> Owner</text>
</g>
<!-- Node4 -->
<g id="node4" class="node"><title>Node4</title>
<g id="a_node4"><a xlink:href="classpkgAcquire_1_1Queue.xhtml" target="_top" xlink:title="A single download queue in a pkgAcquire object. {{{. ">
<polygon fill="white" stroke="black" points="495.5,-138.5 495.5,-157.5 540.5,-157.5 540.5,-138.5 495.5,-138.5"/>
<text text-anchor="middle" x="518" y="-145.5" font-family="Helvetica,sans-Serif" font-size="10.00">Queue</text>
</a>
</g>
</g>
<!-- Node3&#45;&gt;Node4 -->
<g id="edge4" class="edge"><title>Node3&#45;&gt;Node4</title>
<path fill="none" stroke="#9a32cd" stroke-dasharray="5,2" d="M598.491,-26.2707C610.06,-36.6337 623.669,-51.4307 630,-68 638.465,-90.1565 635.761,-104.28 618,-120 594.59,-140.721 580.16,-129.768 550,-138 546.994,-138.821 543.832,-139.696 540.714,-140.565"/>
<polygon fill="#9a32cd" stroke="#9a32cd" points="600.452,-23.3445 590.561,-19.5466 595.925,-28.6835 600.452,-23.3445"/>
<text text-anchor="middle" x="650" y="-76.5" font-family="Helvetica,sans-Serif" font-size="10.00"> Owner</text>
</g>
<!-- Node4&#45;&gt;Node3 -->
<g id="edge3" class="edge"><title>Node4&#45;&gt;Node3</title>
<path fill="none" stroke="#9a32cd" stroke-dasharray="5,2" d="M550.193,-137.733C573.543,-130.858 601.32,-122.296 603,-120 611.299,-108.657 597.704,-103.244 593,-90 584.236,-65.3235 580.794,-34.2854 579.584,-19.5375"/>
<polygon fill="#9a32cd" stroke="#9a32cd" points="549.162,-134.387 540.546,-140.552 551.126,-141.106 549.162,-134.387"/>
<text text-anchor="middle" x="611.5" y="-76.5" font-family="Helvetica,sans-Serif" font-size="10.00"> Queues</text>
</g>
<!-- Node4&#45;&gt;Node9 -->
<g id="edge14" class="edge"><title>Node4&#45;&gt;Node9</title>
<path fill="none" stroke="#9a32cd" stroke-dasharray="5,2" d="M510.371,-129.047C506.589,-121.786 501.437,-113.773 495,-108 484.185,-98.3007 469.45,-91.458 457.058,-86.966"/>
<polygon fill="#9a32cd" stroke="#9a32cd" points="507.253,-130.64 514.673,-138.203 513.588,-127.664 507.253,-130.64"/>
<text text-anchor="middle" x="525" y="-111.5" font-family="Helvetica,sans-Serif" font-size="10.00"> OwnerQ</text>
</g>
<!-- Node5 -->
<g id="node5" class="node"><title>Node5</title>
<g id="a_node5"><a xlink:href="structpkgAcquire_1_1Queue_1_1QItem.xhtml" target="_top" xlink:title="A single item placed in this queue. ">
<polygon fill="white" stroke="black" points="244,-206.5 244,-225.5 288,-225.5 288,-206.5 244,-206.5"/>
<text text-anchor="middle" x="266" y="-213.5" font-family="Helvetica,sans-Serif" font-size="10.00">QItem</text>
</a>
</g>
</g>
<!-- Node5&#45;&gt;Node4 -->
<g id="edge5" class="edge"><title>Node5&#45;&gt;Node4</title>
<path fill="none" stroke="#9a32cd" stroke-dasharray="5,2" d="M298.345,-206.529C350.146,-192.962 450.44,-166.694 495.325,-154.939"/>
<polygon fill="#9a32cd" stroke="#9a32cd" points="297.15,-203.223 288.363,-209.143 298.924,-209.995 297.15,-203.223"/>
<text text-anchor="middle" x="429" y="-179.5" font-family="Helvetica,sans-Serif" font-size="10.00"> Items</text>
</g>
<!-- Node5&#45;&gt;Node5 -->
<g id="edge11" class="edge"><title>Node5&#45;&gt;Node5</title>
<path fill="none" stroke="#9a32cd" stroke-dasharray="5,2" d="M298.111,-221.591C302.259,-220.624 305,-218.76 305,-216 305,-211.352 297.224,-209.245 288.051,-209.681"/>
<polygon fill="#9a32cd" stroke="#9a32cd" points="297.772,-218.107 288.051,-222.319 298.277,-225.088 297.772,-218.107"/>
<text text-anchor="middle" x="317.5" y="-213.5" font-family="Helvetica,sans-Serif" font-size="10.00"> Next</text>
</g>
<!-- Node5&#45;&gt;Node9 -->
<g id="edge18" class="edge"><title>Node5&#45;&gt;Node9</title>
<path fill="none" stroke="#9a32cd" stroke-dasharray="5,2" d="M259.761,-196.657C255.266,-179.812 251.888,-154.962 264,-138 297.349,-91.2971 370.755,-81.805 408.908,-80.1323"/>
<polygon fill="#9a32cd" stroke="#9a32cd" points="256.468,-197.858 262.726,-206.408 263.166,-195.822 256.468,-197.858"/>
<text text-anchor="middle" x="291.5" y="-145.5" font-family="Helvetica,sans-Serif" font-size="10.00"> CurrentItem</text>
</g>
<!-- Node6&#45;&gt;Node5 -->
<g id="edge6" class="edge"><title>Node6&#45;&gt;Node5</title>
<path fill="none" stroke="midnightblue" d="M258.886,-287.349C260.804,-268.383 263.692,-239.828 265.126,-225.639"/>
<polygon fill="midnightblue" stroke="midnightblue" points="255.387,-287.165 257.863,-297.466 262.351,-287.869 255.387,-287.165"/>
</g>
<!-- Node7 -->
<g id="node7" class="node"><title>Node7</title>
<g id="a_node7"><a xlink:title="STL class. ">
<polygon fill="white" stroke="#bfbfbf" points="418.5,-478.5 418.5,-497.5 459.5,-497.5 459.5,-478.5 418.5,-478.5"/>
<text text-anchor="middle" x="439" y="-485.5" font-family="Helvetica,sans-Serif" font-size="10.00">string</text>
</a>
</g>
</g>
<!-- Node7&#45;&gt;Node1 -->
<g id="edge31" class="edge"><title>Node7&#45;&gt;Node1</title>
<path fill="none" stroke="#9a32cd" stroke-dasharray="5,2" d="M408.433,-484.824C373.581,-481.744 315.195,-474.756 267,-460 217.018,-444.697 162.248,-415.197 136.677,-400.605"/>
<polygon fill="#9a32cd" stroke="#9a32cd" points="408.201,-488.316 418.457,-485.658 408.782,-481.34 408.201,-488.316"/>
<text text-anchor="middle" x="291.5" y="-451.5" font-family="Helvetica,sans-Serif" font-size="10.00"> DestFile</text>
<text text-anchor="middle" x="291.5" y="-440.5" font-family="Helvetica,sans-Serif" font-size="10.00">ErrorText</text>
<text text-anchor="middle" x="291.5" y="-429.5" font-family="Helvetica,sans-Serif" font-size="10.00">UsedMirror</text>
</g>
<!-- Node7&#45;&gt;Node4 -->
<g id="edge24" class="edge"><title>Node7&#45;&gt;Node4</title>
<path fill="none" stroke="#9a32cd" stroke-dasharray="5,2" d="M466.255,-473.514C493.382,-457.947 531,-429.584 531,-392 531,-392 531,-392 531,-215 531,-194.212 524.715,-170.424 520.885,-157.858"/>
<polygon fill="#9a32cd" stroke="#9a32cd" points="464.269,-470.61 457.176,-478.48 467.629,-476.752 464.269,-470.61"/>
<text text-anchor="middle" x="546" y="-304.5" font-family="Helvetica,sans-Serif" font-size="10.00"> Name</text>
</g>
<!-- Node7&#45;&gt;Node6 -->
<g id="edge8" class="edge"><title>Node7&#45;&gt;Node6</title>
<path fill="none" stroke="#9a32cd" stroke-dasharray="5,2" d="M415.56,-472.916C409.381,-468.94 402.818,-464.473 397,-460 337.272,-414.079 281.327,-341.214 263.151,-316.511"/>
<polygon fill="#9a32cd" stroke="#9a32cd" points="413.874,-475.99 424.206,-478.334 417.591,-470.058 413.874,-475.99"/>
<text text-anchor="middle" x="365.5" y="-399.5" font-family="Helvetica,sans-Serif" font-size="10.00"> Description</text>
<text text-anchor="middle" x="365.5" y="-388.5" font-family="Helvetica,sans-Serif" font-size="10.00">URI</text>
<text text-anchor="middle" x="365.5" y="-377.5" font-family="Helvetica,sans-Serif" font-size="10.00">ShortDesc</text>
</g>
<!-- Node7&#45;&gt;Node9 -->
<g id="edge19" class="edge"><title>Node7&#45;&gt;Node9</title>
<path fill="none" stroke="#9a32cd" stroke-dasharray="5,2" d="M449.795,-469.354C451.368,-466.308 452.844,-463.117 454,-460 464.727,-431.069 468,-422.856 468,-392 468,-392 468,-392 468,-260 468,-196.457 450.162,-182.555 439,-120 437.076,-109.216 435.269,-96.7213 434.15,-88.6056"/>
<polygon fill="#9a32cd" stroke="#9a32cd" points="446.596,-467.901 444.71,-478.327 452.686,-471.353 446.596,-467.901"/>
<text text-anchor="middle" x="492" y="-269.5" font-family="Helvetica,sans-Serif" font-size="10.00"> OutQueue</text>
<text text-anchor="middle" x="492" y="-258.5" font-family="Helvetica,sans-Serif" font-size="10.00">Access</text>
<text text-anchor="middle" x="492" y="-247.5" font-family="Helvetica,sans-Serif" font-size="10.00">Status</text>
</g>
<!-- Node10 -->
<g id="node10" class="node"><title>Node10</title>
<g id="a_node10"><a xlink:href="structpkgAcquire_1_1MethodConfig.xhtml" target="_top" xlink:title="Information about the properties of a single acquire method. {{{. ">
<polygon fill="white" stroke="black" points="558.5,-138.5 558.5,-157.5 635.5,-157.5 635.5,-138.5 558.5,-138.5"/>
<text text-anchor="middle" x="597" y="-145.5" font-family="Helvetica,sans-Serif" font-size="10.00">MethodConfig</text>
</a>
</g>
</g>
<!-- Node7&#45;&gt;Node10 -->
<g id="edge17" class="edge"><title>Node7&#45;&gt;Node10</title>
<path fill="none" stroke="#9a32cd" stroke-dasharray="5,2" d="M469.695,-482.616C515.651,-474.126 597,-450.794 597,-392 597,-392 597,-392 597,-215 597,-194.375 597,-170.125 597,-157.544"/>
<polygon fill="#9a32cd" stroke="#9a32cd" points="468.919,-479.198 459.656,-484.339 470.104,-486.097 468.919,-479.198"/>
<text text-anchor="middle" x="615.5" y="-310" font-family="Helvetica,sans-Serif" font-size="10.00"> Access</text>
<text text-anchor="middle" x="615.5" y="-299" font-family="Helvetica,sans-Serif" font-size="10.00">Version</text>
</g>
<!-- Node12 -->
<g id="node12" class="node"><title>Node12</title>
<polygon fill="white" stroke="#bfbfbf" points="346.5,-336.5 346.5,-355.5 451.5,-355.5 451.5,-336.5 346.5,-336.5"/>
<text text-anchor="middle" x="399" y="-343.5" font-family="Helvetica,sans-Serif" font-size="10.00">vector&lt; std::string &gt;</text>
</g>
<!-- Node7&#45;&gt;Node12 -->
<g id="edge22" class="edge"><title>Node7&#45;&gt;Node12</title>
<path fill="none" stroke="#9a32cd" stroke-dasharray="5,2" d="M419.335,-471.584C416.056,-468.119 413.058,-464.209 411,-460 393.671,-424.552 396.094,-375.522 397.984,-355.767"/>
<polygon fill="#9a32cd" stroke="#9a32cd" points="416.985,-474.179 426.703,-478.4 421.739,-469.04 416.985,-474.179"/>
<text text-anchor="middle" x="432.5" y="-440.5" font-family="Helvetica,sans-Serif" font-size="10.00"> elements</text>
</g>
<!-- Node8 -->
<g id="node8" class="node"><title>Node8</title>
<g id="a_node8"><a xlink:title="STL class. ">
<polygon fill="white" stroke="#bfbfbf" points="386,-536.5 386,-555.5 492,-555.5 492,-536.5 386,-536.5"/>
<text text-anchor="middle" x="439" y="-543.5" font-family="Helvetica,sans-Serif" font-size="10.00">basic_string&lt; char &gt;</text>
</a>
</g>
</g>
<!-- Node8&#45;&gt;Node7 -->
<g id="edge9" class="edge"><title>Node8&#45;&gt;Node7</title>
<path fill="none" stroke="midnightblue" d="M439,-525.953C439,-516.287 439,-505.031 439,-497.505"/>
<polygon fill="midnightblue" stroke="midnightblue" points="435.5,-526.25 439,-536.25 442.5,-526.25 435.5,-526.25"/>
</g>
<!-- Node9&#45;&gt;Node3 -->
<g id="edge30" class="edge"><title>Node9&#45;&gt;Node3</title>
<path fill="none" stroke="#9a32cd" stroke-dasharray="5,2" d="M461.035,-65.1348C490.227,-51.7381 535.135,-31.1298 560.284,-19.5888"/>
<polygon fill="#9a32cd" stroke="#9a32cd" points="459.417,-62.0262 451.788,-69.3781 462.337,-68.3882 459.417,-62.0262"/>
<text text-anchor="middle" x="540" y="-41.5" font-family="Helvetica,sans-Serif" font-size="10.00"> Workers</text>
</g>
<!-- Node9&#45;&gt;Node4 -->
<g id="edge25" class="edge"><title>Node9&#45;&gt;Node4</title>
<path fill="none" stroke="#9a32cd" stroke-dasharray="5,2" d="M437.984,-98.5051C440.779,-105.978 444.954,-114.19 451,-120 463.207,-131.731 481.172,-138.598 495.427,-142.469"/>
<polygon fill="#9a32cd" stroke="#9a32cd" points="441.255,-97.2391 434.901,-88.7611 434.581,-99.3512 441.255,-97.2391"/>
<text text-anchor="middle" x="471" y="-111.5" font-family="Helvetica,sans-Serif" font-size="10.00"> Workers</text>
</g>
<!-- Node9&#45;&gt;Node5 -->
<g id="edge12" class="edge"><title>Node9&#45;&gt;Node5</title>
<path fill="none" stroke="#9a32cd" stroke-dasharray="5,2" d="M406.056,-93.4451C398.105,-97.7679 389.522,-102.795 382,-108 336.941,-139.182 291.486,-186.95 273.755,-206.356"/>
<polygon fill="#9a32cd" stroke="#9a32cd" points="407.789,-96.4882 414.999,-88.7252 404.521,-90.2976 407.789,-96.4882"/>
<text text-anchor="middle" x="360.5" y="-145.5" font-family="Helvetica,sans-Serif" font-size="10.00"> Worker</text>
</g>
<!-- Node9&#45;&gt;Node9 -->
<g id="edge23" class="edge"><title>Node9&#45;&gt;Node9</title>
<path fill="none" stroke="#9a32cd" stroke-dasharray="5,2" d="M467.425,-84.6249C471.979,-83.6671 475,-81.7922 475,-79 475,-74.418 466.864,-72.3059 457.17,-72.6639"/>
<polygon fill="#9a32cd" stroke="#9a32cd" points="466.904,-81.1525 457.17,-85.3361 467.388,-88.1358 466.904,-81.1525"/>
<text text-anchor="middle" x="502.5" y="-82" font-family="Helvetica,sans-Serif" font-size="10.00"> NextQueue</text>
<text text-anchor="middle" x="502.5" y="-71" font-family="Helvetica,sans-Serif" font-size="10.00">NextAcquire</text>
</g>
<!-- Node10&#45;&gt;Node3 -->
<g id="edge26" class="edge"><title>Node10&#45;&gt;Node3</title>
<path fill="none" stroke="#9a32cd" stroke-dasharray="5,2" d="M639.176,-134.853C648.551,-131.003 658.053,-126.111 666,-120 685.893,-104.703 695.807,-91.8489 688,-68 682.856,-52.2863 679.462,-47.6001 666,-38 650.034,-26.6139 629.123,-19.9234 611.804,-16.051"/>
<polygon fill="#9a32cd" stroke="#9a32cd" points="637.644,-131.69 629.523,-138.494 640.115,-138.239 637.644,-131.69"/>
<text text-anchor="middle" x="708.5" y="-76.5" font-family="Helvetica,sans-Serif" font-size="10.00"> Configs</text>
</g>
<!-- Node10&#45;&gt;Node9 -->
<g id="edge15" class="edge"><title>Node10&#45;&gt;Node9</title>
<path fill="none" stroke="#9a32cd" stroke-dasharray="5,2" d="M581.4,-131.303C572.573,-123.245 560.936,-113.907 549,-108 519.292,-93.2966 481.406,-86.0349 457.17,-82.6564"/>
<polygon fill="#9a32cd" stroke="#9a32cd" points="578.99,-133.841 588.643,-138.208 583.82,-128.774 578.99,-133.841"/>
<text text-anchor="middle" x="583" y="-111.5" font-family="Helvetica,sans-Serif" font-size="10.00"> Config</text>
</g>
<!-- Node10&#45;&gt;Node10 -->
<g id="edge16" class="edge"><title>Node10&#45;&gt;Node10</title>
<path fill="none" stroke="#9a32cd" stroke-dasharray="5,2" d="M645.872,-153.042C650.251,-151.987 653,-150.307 653,-148 653,-144.215 645.597,-142.115 635.735,-141.701"/>
<polygon fill="#9a32cd" stroke="#9a32cd" points="645.229,-149.595 635.735,-154.299 646.09,-156.542 645.229,-149.595"/>
<text text-anchor="middle" x="665.5" y="-145.5" font-family="Helvetica,sans-Serif" font-size="10.00"> Next</text>
</g>
<!-- Node11 -->
<g id="node11" class="node"><title>Node11</title>
<g id="a_node11"><a xlink:href="classpkgAcquireStatus.xhtml" target="_top" xlink:title="A monitor object for downloads controlled by the pkgAcquire class. {{{. ">
<polygon fill="white" stroke="black" points="728,-138.5 728,-157.5 822,-157.5 822,-138.5 728,-138.5"/>
<text text-anchor="middle" x="775" y="-145.5" font-family="Helvetica,sans-Serif" font-size="10.00">pkgAcquireStatus</text>
</a>
</g>
</g>
<!-- Node11&#45;&gt;Node3 -->
<g id="edge27" class="edge"><title>Node11&#45;&gt;Node3</title>
<path fill="none" stroke="#9a32cd" stroke-dasharray="5,2" d="M767.898,-128.931C760.536,-111.832 747.756,-86.1497 731,-68 699.647,-34.0389 646.084,-20.1976 611.635,-14.6353"/>
<polygon fill="#9a32cd" stroke="#9a32cd" points="764.723,-130.413 771.769,-138.325 771.195,-127.746 764.723,-130.413"/>
<text text-anchor="middle" x="756.5" y="-76.5" font-family="Helvetica,sans-Serif" font-size="10.00"> Log</text>
</g>
<!-- Node11&#45;&gt;Node9 -->
<g id="edge20" class="edge"><title>Node11&#45;&gt;Node9</title>
<path fill="none" stroke="#9a32cd" stroke-dasharray="5,2" d="M730.403,-136.119C695.772,-127.856 646.487,-116.504 603,-108 551.187,-97.8684 490.011,-88.3976 457.011,-83.4925"/>
<polygon fill="#9a32cd" stroke="#9a32cd" points="729.67,-139.542 740.21,-138.47 731.302,-132.735 729.67,-139.542"/>
<text text-anchor="middle" x="668.5" y="-111.5" font-family="Helvetica,sans-Serif" font-size="10.00"> Log</text>
</g>
<!-- Node12&#45;&gt;Node9 -->
<g id="edge21" class="edge"><title>Node12&#45;&gt;Node9</title>
<path fill="none" stroke="#9a32cd" stroke-dasharray="5,2" d="M393.813,-326.495C385.825,-295.121 372.662,-229.663 385,-176 392.215,-144.619 394.001,-135.944 410,-108 414.001,-101.012 419.751,-94.012 424.501,-88.759"/>
<polygon fill="#9a32cd" stroke="#9a32cd" points="390.503,-327.669 396.465,-336.427 397.266,-325.863 390.503,-327.669"/>
<text text-anchor="middle" x="417" y="-213.5" font-family="Helvetica,sans-Serif" font-size="10.00"> MessageQueue</text>
</g>
<!-- Node13&#45;&gt;Node3 -->
<g id="edge28" class="edge"><title>Node13&#45;&gt;Node3</title>
<path fill="none" stroke="#9a32cd" stroke-dasharray="5,2" d="M52.3838,-235.74C53.6713,-220.593 55,-200.679 55,-183 55,-183 55,-183 55,-78 55,-50.5702 76.5353,-48.1954 102,-38 142.956,-21.6024 445.28,-13.8118 546.263,-11.6475"/>
<polygon fill="#9a32cd" stroke="#9a32cd" points="48.8866,-235.552 51.4731,-245.826 55.8582,-236.181 48.8866,-235.552"/>
<text text-anchor="middle" x="69" y="-145.5" font-family="Helvetica,sans-Serif" font-size="10.00"> Items</text>
</g>
</g>
</svg>
