<?xml version="1.0" encoding="UTF-8" standalone="no"?>
<!DOCTYPE svg PUBLIC "-//W3C//DTD SVG 1.1//EN"
 "http://www.w3.org/Graphics/SVG/1.1/DTD/svg11.dtd">
<!-- Generated by graphviz version 2.36.0 (20140111.2315)
 -->
<!-- Title: pkgIndexFile::Type Pages: 1 -->
<svg width="383pt" height="140pt"
 viewBox="0.00 0.00 383.00 140.00" xmlns="http://www.w3.org/2000/svg" xmlns:xlink="http://www.w3.org/1999/xlink">
<g id="graph0" class="graph" transform="scale(1 1) rotate(0) translate(4 136)">
<title>pkgIndexFile::Type</title>
<polygon fill="white" stroke="none" points="-4,4 -4,-136 379,-136 379,4 -4,4"/>
<!-- Node1 -->
<g id="node1" class="node"><title>Node1</title>
<polygon fill="#bfbfbf" stroke="black" points="141,-112.5 141,-131.5 241,-131.5 241,-112.5 141,-112.5"/>
<text text-anchor="middle" x="191" y="-119.5" font-family="Helvetica,sans-Serif" font-size="10.00">pkgIndexFile::Type</text>
</g>
<!-- Node2 -->
<g id="node2" class="node"><title>Node2</title>
<g id="a_node2"><a xlink:href="classdebIFTypePkg.xhtml" target="_top" xlink:title="debIFTypePkg">
<polygon fill="white" stroke="black" points="3,-56.5 3,-75.5 83,-75.5 83,-56.5 3,-56.5"/>
<text text-anchor="middle" x="43" y="-63.5" font-family="Helvetica,sans-Serif" font-size="10.00">debIFTypePkg</text>
</a>
</g>
</g>
<!-- Node1&#45;&gt;Node2 -->
<g id="edge1" class="edge"><title>Node1&#45;&gt;Node2</title>
<path fill="none" stroke="midnightblue" d="M157.853,-108.906C130.028,-98.7536 90.9802,-84.5063 66.3413,-75.5164"/>
<polygon fill="midnightblue" stroke="midnightblue" points="156.955,-112.304 167.549,-112.444 159.354,-105.728 156.955,-112.304"/>
</g>
<!-- Node4 -->
<g id="node4" class="node"><title>Node4</title>
<g id="a_node4"><a xlink:href="classdebIFTypeSrc.xhtml" target="_top" xlink:title="debIFTypeSrc">
<polygon fill="white" stroke="black" points="101,-56.5 101,-75.5 179,-75.5 179,-56.5 101,-56.5"/>
<text text-anchor="middle" x="140" y="-63.5" font-family="Helvetica,sans-Serif" font-size="10.00">debIFTypeSrc</text>
</a>
</g>
</g>
<!-- Node1&#45;&gt;Node4 -->
<g id="edge3" class="edge"><title>Node1&#45;&gt;Node4</title>
<path fill="none" stroke="midnightblue" d="M175.622,-104.718C166.633,-95.1997 155.641,-83.5608 148.265,-75.7511"/>
<polygon fill="midnightblue" stroke="midnightblue" points="173.168,-107.216 182.578,-112.083 178.257,-102.41 173.168,-107.216"/>
</g>
<!-- Node5 -->
<g id="node5" class="node"><title>Node5</title>
<g id="a_node5"><a xlink:href="classdebIFTypeStatus.xhtml" target="_top" xlink:title="debIFTypeStatus">
<polygon fill="white" stroke="black" points="197,-56.5 197,-75.5 289,-75.5 289,-56.5 197,-56.5"/>
<text text-anchor="middle" x="243" y="-63.5" font-family="Helvetica,sans-Serif" font-size="10.00">debIFTypeStatus</text>
</a>
</g>
</g>
<!-- Node1&#45;&gt;Node5 -->
<g id="edge4" class="edge"><title>Node1&#45;&gt;Node5</title>
<path fill="none" stroke="midnightblue" d="M206.679,-104.718C215.845,-95.1997 227.053,-83.5608 234.573,-75.7511"/>
<polygon fill="midnightblue" stroke="midnightblue" points="204.002,-102.452 199.587,-112.083 209.044,-107.308 204.002,-102.452"/>
</g>
<!-- Node6 -->
<g id="node6" class="node"><title>Node6</title>
<g id="a_node6"><a xlink:href="classedspIFType.xhtml" target="_top" xlink:title="edspIFType">
<polygon fill="white" stroke="black" points="307,-56.5 307,-75.5 375,-75.5 375,-56.5 307,-56.5"/>
<text text-anchor="middle" x="341" y="-63.5" font-family="Helvetica,sans-Serif" font-size="10.00">edspIFType</text>
</a>
</g>
</g>
<!-- Node1&#45;&gt;Node6 -->
<g id="edge5" class="edge"><title>Node1&#45;&gt;Node6</title>
<path fill="none" stroke="midnightblue" d="M224.225,-109.039C252.448,-98.8786 292.262,-84.5457 317.343,-75.5164"/>
<polygon fill="midnightblue" stroke="midnightblue" points="222.991,-105.763 214.768,-112.444 225.362,-112.349 222.991,-105.763"/>
</g>
<!-- Node3 -->
<g id="node3" class="node"><title>Node3</title>
<g id="a_node3"><a xlink:href="classdebIFTypeTrans.xhtml" target="_top" xlink:title="debIFTypeTrans">
<polygon fill="white" stroke="black" points="-1,-0.5 -1,-19.5 87,-19.5 87,-0.5 -1,-0.5"/>
<text text-anchor="middle" x="43" y="-7.5" font-family="Helvetica,sans-Serif" font-size="10.00">debIFTypeTrans</text>
</a>
</g>
</g>
<!-- Node2&#45;&gt;Node3 -->
<g id="edge2" class="edge"><title>Node2&#45;&gt;Node3</title>
<path fill="none" stroke="midnightblue" d="M43,-45.8045C43,-36.9102 43,-26.7798 43,-19.7511"/>
<polygon fill="midnightblue" stroke="midnightblue" points="39.5001,-46.083 43,-56.083 46.5001,-46.083 39.5001,-46.083"/>
</g>
</g>
</svg>
