<?xml version="1.0" encoding="UTF-8" standalone="no"?>
<!DOCTYPE svg PUBLIC "-//W3C//DTD SVG 1.1//EN"
 "http://www.w3.org/Graphics/SVG/1.1/DTD/svg11.dtd">
<!-- Generated by graphviz version 2.36.0 (20140111.2315)
 -->
<!-- Title: IndexCopy Pages: 1 -->
<svg width="175pt" height="84pt"
 viewBox="0.00 0.00 175.00 84.00" xmlns="http://www.w3.org/2000/svg" xmlns:xlink="http://www.w3.org/1999/xlink">
<g id="graph0" class="graph" transform="scale(1 1) rotate(0) translate(4 80)">
<title>IndexCopy</title>
<polygon fill="white" stroke="none" points="-4,4 -4,-80 171,-80 171,4 -4,4"/>
<!-- Node1 -->
<g id="node1" class="node"><title>Node1</title>
<polygon fill="#bfbfbf" stroke="black" points="53,-56.5 53,-75.5 117,-75.5 117,-56.5 53,-56.5"/>
<text text-anchor="middle" x="85" y="-63.5" font-family="Helvetica,sans-Serif" font-size="10.00">IndexCopy</text>
</g>
<!-- Node2 -->
<g id="node2" class="node"><title>Node2</title>
<g id="a_node2"><a xlink:href="classPackageCopy.xhtml" target="_top" xlink:title="PackageCopy">
<polygon fill="white" stroke="black" points="0,-0.5 0,-19.5 78,-19.5 78,-0.5 0,-0.5"/>
<text text-anchor="middle" x="39" y="-7.5" font-family="Helvetica,sans-Serif" font-size="10.00">PackageCopy</text>
</a>
</g>
</g>
<!-- Node1&#45;&gt;Node2 -->
<g id="edge1" class="edge"><title>Node1&#45;&gt;Node2</title>
<path fill="none" stroke="midnightblue" d="M70.886,-48.4314C62.824,-38.9673 53.0408,-27.4827 46.4546,-19.7511"/>
<polygon fill="midnightblue" stroke="midnightblue" points="68.255,-50.7402 77.404,-56.083 73.5837,-46.2009 68.255,-50.7402"/>
</g>
<!-- Node3 -->
<g id="node3" class="node"><title>Node3</title>
<g id="a_node3"><a xlink:href="classSourceCopy.xhtml" target="_top" xlink:title="SourceCopy">
<polygon fill="white" stroke="black" points="96.5,-0.5 96.5,-19.5 167.5,-19.5 167.5,-0.5 96.5,-0.5"/>
<text text-anchor="middle" x="132" y="-7.5" font-family="Helvetica,sans-Serif" font-size="10.00">SourceCopy</text>
</a>
</g>
</g>
<!-- Node1&#45;&gt;Node3 -->
<g id="edge2" class="edge"><title>Node1&#45;&gt;Node3</title>
<path fill="none" stroke="midnightblue" d="M99.4208,-48.4314C107.658,-38.9673 117.654,-27.4827 124.383,-19.7511"/>
<polygon fill="midnightblue" stroke="midnightblue" points="96.6863,-46.2421 92.7611,-56.083 101.966,-50.8378 96.6863,-46.2421"/>
</g>
</g>
</svg>
