<?xml version="1.0" encoding="UTF-8" standalone="no"?>
<!DOCTYPE svg PUBLIC "-//W3C//DTD SVG 1.1//EN"
 "http://www.w3.org/Graphics/SVG/1.1/DTD/svg11.dtd">
<!-- Generated by graphviz version 2.36.0 (20140111.2315)
 -->
<!-- Title: SummationImplementation Pages: 1 -->
<svg width="392pt" height="140pt"
 viewBox="0.00 0.00 392.00 140.00" xmlns="http://www.w3.org/2000/svg" xmlns:xlink="http://www.w3.org/1999/xlink">
<g id="graph0" class="graph" transform="scale(1 1) rotate(0) translate(4 136)">
<title>SummationImplementation</title>
<polygon fill="white" stroke="none" points="-4,4 -4,-136 388,-136 388,4 -4,4"/>
<!-- Node1 -->
<g id="node1" class="node"><title>Node1</title>
<polygon fill="#bfbfbf" stroke="black" points="84.5,-112.5 84.5,-131.5 217.5,-131.5 217.5,-112.5 84.5,-112.5"/>
<text text-anchor="middle" x="151" y="-119.5" font-family="Helvetica,sans-Serif" font-size="10.00">SummationImplementation</text>
</g>
<!-- Node2 -->
<g id="node2" class="node"><title>Node2</title>
<g id="a_node2"><a xlink:href="classMD5Summation.xhtml" target="_top" xlink:title="MD5Summation">
<polygon fill="white" stroke="black" points="-0.5,-56.5 -0.5,-75.5 86.5,-75.5 86.5,-56.5 -0.5,-56.5"/>
<text text-anchor="middle" x="43" y="-63.5" font-family="Helvetica,sans-Serif" font-size="10.00">MD5Summation</text>
</a>
</g>
</g>
<!-- Node1&#45;&gt;Node2 -->
<g id="edge1" class="edge"><title>Node1&#45;&gt;Node2</title>
<path fill="none" stroke="midnightblue" d="M124.452,-107.726C104.454,-97.7271 77.613,-84.3065 60.309,-75.6545"/>
<polygon fill="midnightblue" stroke="midnightblue" points="123.138,-110.982 133.648,-112.324 126.269,-104.721 123.138,-110.982"/>
</g>
<!-- Node3 -->
<g id="node3" class="node"><title>Node3</title>
<g id="a_node3"><a xlink:href="classSHA1Summation.xhtml" target="_top" xlink:title="SHA1Summation">
<polygon fill="white" stroke="black" points="105,-56.5 105,-75.5 197,-75.5 197,-56.5 105,-56.5"/>
<text text-anchor="middle" x="151" y="-63.5" font-family="Helvetica,sans-Serif" font-size="10.00">SHA1Summation</text>
</a>
</g>
</g>
<!-- Node1&#45;&gt;Node3 -->
<g id="edge2" class="edge"><title>Node1&#45;&gt;Node3</title>
<path fill="none" stroke="midnightblue" d="M151,-101.805C151,-92.9102 151,-82.7798 151,-75.7511"/>
<polygon fill="midnightblue" stroke="midnightblue" points="147.5,-102.083 151,-112.083 154.5,-102.083 147.5,-102.083"/>
</g>
<!-- Node4 -->
<g id="node4" class="node"><title>Node4</title>
<g id="a_node4"><a xlink:href="classSHA2SummationBase.xhtml" target="_top" xlink:title="SHA2SummationBase">
<polygon fill="white" stroke="black" points="215.5,-56.5 215.5,-75.5 330.5,-75.5 330.5,-56.5 215.5,-56.5"/>
<text text-anchor="middle" x="273" y="-63.5" font-family="Helvetica,sans-Serif" font-size="10.00">SHA2SummationBase</text>
</a>
</g>
</g>
<!-- Node1&#45;&gt;Node4 -->
<g id="edge3" class="edge"><title>Node1&#45;&gt;Node4</title>
<path fill="none" stroke="midnightblue" d="M179.539,-108.368C202.386,-98.2553 233.805,-84.3486 253.759,-75.5164"/>
<polygon fill="midnightblue" stroke="midnightblue" points="178.059,-105.196 170.331,-112.444 180.892,-111.597 178.059,-105.196"/>
</g>
<!-- Node5 -->
<g id="node5" class="node"><title>Node5</title>
<g id="a_node5"><a xlink:href="classSHA256Summation.xhtml" target="_top" xlink:title="SHA256Summation">
<polygon fill="white" stroke="black" points="160.5,-0.5 160.5,-19.5 263.5,-19.5 263.5,-0.5 160.5,-0.5"/>
<text text-anchor="middle" x="212" y="-7.5" font-family="Helvetica,sans-Serif" font-size="10.00">SHA256Summation</text>
</a>
</g>
</g>
<!-- Node4&#45;&gt;Node5 -->
<g id="edge4" class="edge"><title>Node4&#45;&gt;Node5</title>
<path fill="none" stroke="midnightblue" d="M255.533,-49.5372C244.656,-39.9087 231.056,-27.8694 221.979,-19.8339"/>
<polygon fill="midnightblue" stroke="midnightblue" points="253.392,-52.3162 263.199,-56.324 258.032,-47.0749 253.392,-52.3162"/>
</g>
<!-- Node6 -->
<g id="node6" class="node"><title>Node6</title>
<g id="a_node6"><a xlink:href="classSHA512Summation.xhtml" target="_top" xlink:title="SHA512Summation">
<polygon fill="white" stroke="black" points="281.5,-0.5 281.5,-19.5 384.5,-19.5 384.5,-0.5 281.5,-0.5"/>
<text text-anchor="middle" x="333" y="-7.5" font-family="Helvetica,sans-Serif" font-size="10.00">SHA512Summation</text>
</a>
</g>
</g>
<!-- Node4&#45;&gt;Node6 -->
<g id="edge5" class="edge"><title>Node4&#45;&gt;Node6</title>
<path fill="none" stroke="midnightblue" d="M290.181,-49.5372C300.879,-39.9087 314.256,-27.8694 323.185,-19.8339"/>
<polygon fill="midnightblue" stroke="midnightblue" points="287.732,-47.0327 282.64,-56.324 292.414,-52.2358 287.732,-47.0327"/>
</g>
</g>
</svg>
