<?xml version="1.0" encoding="UTF-8" standalone="no"?>
<!DOCTYPE svg PUBLIC "-//W3C//DTD SVG 1.1//EN"
 "http://www.w3.org/Graphics/SVG/1.1/DTD/svg11.dtd">
<!-- Generated by graphviz version 2.36.0 (20140111.2315)
 -->
<!-- Title: pkgCache::GrpIterator Pages: 1 -->
<!--zoomable 561 -->
<svg id="main" version="1.1" xmlns="http://www.w3.org/2000/svg" xmlns:xlink="http://www.w3.org/1999/xlink" xml:space="preserve" onload="init(evt)">
<style type="text/css"><![CDATA[
.edge:hover path { stroke: red; }
.edge:hover polygon { stroke: red; fill: red; }
]]></style>
<script type="text/javascript"><![CDATA[
var edges = document.getElementsByTagName('g');
if (edges && edges.length) {
  for (var i=0;i<edges.length;i++) {
    if (edges[i].id.substr(0,4)=='edge') {
      edges[i].setAttribute('class','edge');
    }
  }
}
]]></script>
        <defs>
                <circle id="rim" cx="0" cy="0" r="7"/>
                <circle id="rim2" cx="0" cy="0" r="3.5"/>
                <g id="zoomPlus">
                        <use xlink:href="#rim" fill="#404040">
                                <set attributeName="fill" to="#808080" begin="zoomplus.mouseover" end="zoomplus.mouseout"/>
                        </use>
                        <path d="M-4,0h8M0,-4v8" fill="none" stroke="white" stroke-width="1.5" pointer-events="none"/>
                </g>
                <g id="zoomMin">
                        <use xlink:href="#rim" fill="#404040">
                                <set attributeName="fill" to="#808080" begin="zoomminus.mouseover" end="zoomminus.mouseout"/>
                        </use>
                        <path d="M-4,0h8" fill="none" stroke="white" stroke-width="1.5" pointer-events="none"/>
                </g>
                <g id="dirArrow">
                        <path fill="none" stroke="white" stroke-width="1.5" d="M0,-3.0v7 M-2.5,-0.5L0,-3.0L2.5,-0.5"/>
                </g>
               <g id="resetDef">
                       <use xlink:href="#rim2" fill="#404040">
                               <set attributeName="fill" to="#808080" begin="reset.mouseover" end="reset.mouseout"/>
                       </use>
               </g>
        </defs>

<script type="text/javascript">
var viewWidth = 1132;
var viewHeight = 561;
var sectionId = 'dynsection-1';
</script>
<script xlink:href="svgpan.js"/>
<svg id="graph" class="graph">
<g id="viewport">
<title>pkgCache::GrpIterator</title>
<polygon fill="white" stroke="none" points="-4,4 -4,-557 1128,-557 1128,4 -4,4"/>
<!-- Node1 -->
<g id="node1" class="node"><title>Node1</title>
<polygon fill="#bfbfbf" stroke="black" points="1010.5,-263.5 1010.5,-282.5 1123.5,-282.5 1123.5,-263.5 1010.5,-263.5"/>
<text text-anchor="middle" x="1067" y="-270.5" font-family="Helvetica,sans-Serif" font-size="10.00">pkgCache::GrpIterator</text>
</g>
<!-- Node2 -->
<g id="node2" class="node"><title>Node2</title>
<g id="a_node2"><a xlink:href="classpkgCache_1_1Iterator.xhtml" target="_top" xlink:title="Iterator\&lt; Group, GrpIterator \&gt;">
<polygon fill="white" stroke="black" points="828,-263.5 828,-282.5 972,-282.5 972,-263.5 828,-263.5"/>
<text text-anchor="middle" x="900" y="-270.5" font-family="Helvetica,sans-Serif" font-size="10.00">Iterator&lt; Group, GrpIterator &gt;</text>
</a>
</g>
</g>
<!-- Node2&#45;&gt;Node1 -->
<g id="edge1" class="edge"><title>Node2&#45;&gt;Node1</title>
<path fill="none" stroke="midnightblue" d="M982.597,-273C992.011,-273 1001.44,-273 1010.4,-273"/>
<polygon fill="midnightblue" stroke="midnightblue" points="982.412,-269.5 972.412,-273 982.412,-276.5 982.412,-269.5"/>
</g>
<!-- Node3 -->
<g id="node3" class="node"><title>Node3</title>
<polygon fill="white" stroke="#bfbfbf" points="648,-302 648,-332 760,-332 760,-302 648,-302"/>
<text text-anchor="start" x="656" y="-320" font-family="Helvetica,sans-Serif" font-size="10.00">iterator&lt; std::forward</text>
<text text-anchor="middle" x="704" y="-309" font-family="Helvetica,sans-Serif" font-size="10.00">_iterator_tag, Group &gt;</text>
</g>
<!-- Node3&#45;&gt;Node2 -->
<g id="edge2" class="edge"><title>Node3&#45;&gt;Node2</title>
<path fill="none" stroke="midnightblue" d="M770.035,-302.25C798.747,-295.738 831.665,-288.272 857.058,-282.513"/>
<polygon fill="midnightblue" stroke="midnightblue" points="769.052,-298.884 760.074,-304.509 770.6,-305.71 769.052,-298.884"/>
</g>
<!-- Node4 -->
<g id="node4" class="node"><title>Node4</title>
<g id="a_node4"><a xlink:href="classpkgCache.xhtml" target="_top" xlink:title="pkgCache">
<polygon fill="white" stroke="black" points="673.5,-263.5 673.5,-282.5 734.5,-282.5 734.5,-263.5 673.5,-263.5"/>
<text text-anchor="middle" x="704" y="-270.5" font-family="Helvetica,sans-Serif" font-size="10.00">pkgCache</text>
</a>
</g>
</g>
<!-- Node4&#45;&gt;Node2 -->
<g id="edge3" class="edge"><title>Node4&#45;&gt;Node2</title>
<path fill="none" stroke="#9a32cd" stroke-dasharray="5,2" d="M745.002,-273C768.92,-273 800.004,-273 827.976,-273"/>
<polygon fill="#9a32cd" stroke="#9a32cd" points="744.887,-269.5 734.887,-273 744.887,-276.5 744.887,-269.5"/>
<text text-anchor="middle" x="794" y="-276" font-family="Helvetica,sans-Serif" font-size="10.00"> Owner</text>
</g>
<!-- Node5 -->
<g id="node5" class="node"><title>Node5</title>
<g id="a_node5"><a xlink:href="structpkgCache_1_1Dependency.xhtml" target="_top" xlink:title="information for a single dependency record ">
<polygon fill="white" stroke="black" points="464.5,-453.5 464.5,-472.5 535.5,-472.5 535.5,-453.5 464.5,-453.5"/>
<text text-anchor="middle" x="500" y="-460.5" font-family="Helvetica,sans-Serif" font-size="10.00">Dependency</text>
</a>
</g>
</g>
<!-- Node5&#45;&gt;Node4 -->
<g id="edge4" class="edge"><title>Node5&#45;&gt;Node4</title>
<path fill="none" stroke="#9a32cd" stroke-dasharray="5,2" d="M545.617,-466.619C573.838,-466.302 608.857,-460.649 630,-438 674.614,-390.208 606.868,-342.82 648,-292 654.292,-284.226 663.943,-279.623 673.414,-276.901"/>
<polygon fill="#9a32cd" stroke="#9a32cd" points="545.602,-463.118 535.566,-466.515 545.53,-470.118 545.602,-463.118"/>
<text text-anchor="middle" x="602" y="-468" font-family="Helvetica,sans-Serif" font-size="10.00"> DepP</text>
</g>
<!-- Node6 -->
<g id="node6" class="node"><title>Node6</title>
<g id="a_node6"><a xlink:href="structpkgCache_1_1Description.xhtml" target="_top" xlink:title="datamember of a linked list of available description for a version ">
<polygon fill="white" stroke="black" points="467,-415.5 467,-434.5 533,-434.5 533,-415.5 467,-415.5"/>
<text text-anchor="middle" x="500" y="-422.5" font-family="Helvetica,sans-Serif" font-size="10.00">Description</text>
</a>
</g>
</g>
<!-- Node6&#45;&gt;Node4 -->
<g id="edge5" class="edge"><title>Node6&#45;&gt;Node4</title>
<path fill="none" stroke="#9a32cd" stroke-dasharray="5,2" d="M543.208,-426.49C571.693,-425.105 607.975,-418.282 630,-395 661.936,-361.241 617.864,-327.375 648,-292 654.42,-284.464 663.985,-279.913 673.346,-277.166"/>
<polygon fill="#9a32cd" stroke="#9a32cd" points="543.004,-422.994 533.107,-426.774 543.201,-429.991 543.004,-422.994"/>
<text text-anchor="middle" x="602" y="-426" font-family="Helvetica,sans-Serif" font-size="10.00"> DescP</text>
</g>
<!-- Node7 -->
<g id="node7" class="node"><title>Node7</title>
<g id="a_node7"><a xlink:href="structpkgCache_1_1Header.xhtml" target="_top" xlink:title="Header">
<polygon fill="white" stroke="black" points="476,-377.5 476,-396.5 524,-396.5 524,-377.5 476,-377.5"/>
<text text-anchor="middle" x="500" y="-384.5" font-family="Helvetica,sans-Serif" font-size="10.00">Header</text>
</a>
</g>
</g>
<!-- Node7&#45;&gt;Node4 -->
<g id="edge6" class="edge"><title>Node7&#45;&gt;Node4</title>
<path fill="none" stroke="#9a32cd" stroke-dasharray="5,2" d="M534.375,-386.284C563.338,-383.877 604.514,-375.882 630,-351 649.617,-331.848 628.971,-311.736 648,-292 654.731,-285.018 664.149,-280.601 673.291,-277.807"/>
<polygon fill="#9a32cd" stroke="#9a32cd" points="534.061,-382.797 524.309,-386.94 534.515,-389.783 534.061,-382.797"/>
<text text-anchor="middle" x="602" y="-383" font-family="Helvetica,sans-Serif" font-size="10.00"> HeaderP</text>
</g>
<!-- Node8 -->
<g id="node8" class="node"><title>Node8</title>
<g id="a_node8"><a xlink:href="structDynamicMMap_1_1Pool.xhtml" target="_top" xlink:title="Pool">
<polygon fill="white" stroke="black" points="318,-377.5 318,-396.5 354,-396.5 354,-377.5 318,-377.5"/>
<text text-anchor="middle" x="336" y="-384.5" font-family="Helvetica,sans-Serif" font-size="10.00">Pool</text>
</a>
</g>
</g>
<!-- Node8&#45;&gt;Node7 -->
<g id="edge7" class="edge"><title>Node8&#45;&gt;Node7</title>
<path fill="none" stroke="#9a32cd" stroke-dasharray="5,2" d="M364.236,-387C395.589,-387 446.538,-387 475.988,-387"/>
<polygon fill="#9a32cd" stroke="#9a32cd" points="364.031,-383.5 354.031,-387 364.031,-390.5 364.031,-383.5"/>
<text text-anchor="middle" x="401" y="-390" font-family="Helvetica,sans-Serif" font-size="10.00"> Pools</text>
</g>
<!-- Node9 -->
<g id="node9" class="node"><title>Node9</title>
<g id="a_node9"><a xlink:href="structpkgCache_1_1PackageFile.xhtml" target="_top" xlink:title="stores information about the files used to generate the cache ">
<polygon fill="white" stroke="black" points="464.5,-339.5 464.5,-358.5 535.5,-358.5 535.5,-339.5 464.5,-339.5"/>
<text text-anchor="middle" x="500" y="-346.5" font-family="Helvetica,sans-Serif" font-size="10.00">PackageFile</text>
</a>
</g>
</g>
<!-- Node9&#45;&gt;Node4 -->
<g id="edge8" class="edge"><title>Node9&#45;&gt;Node4</title>
<path fill="none" stroke="#9a32cd" stroke-dasharray="5,2" d="M545.597,-343.198C571.753,-338.237 604.55,-329.211 630,-313 640.368,-306.396 637.836,-298.915 648,-292 655.601,-286.829 664.748,-282.933 673.381,-280.06"/>
<polygon fill="#9a32cd" stroke="#9a32cd" points="544.806,-339.783 535.565,-344.965 546.021,-346.677 544.806,-339.783"/>
<text text-anchor="middle" x="602" y="-339" font-family="Helvetica,sans-Serif" font-size="10.00"> PkgFileP</text>
</g>
<!-- Node10 -->
<g id="node10" class="node"><title>Node10</title>
<g id="a_node10"><a xlink:href="structpkgCache_1_1DescFile.xhtml" target="_top" xlink:title="associates a description with a Translation file ">
<polygon fill="white" stroke="black" points="472,-301.5 472,-320.5 528,-320.5 528,-301.5 472,-301.5"/>
<text text-anchor="middle" x="500" y="-308.5" font-family="Helvetica,sans-Serif" font-size="10.00">DescFile</text>
</a>
</g>
</g>
<!-- Node10&#45;&gt;Node4 -->
<g id="edge9" class="edge"><title>Node10&#45;&gt;Node4</title>
<path fill="none" stroke="#9a32cd" stroke-dasharray="5,2" d="M538.312,-304.614C564.097,-300.135 599.171,-293.915 630,-288 644.231,-285.27 659.983,-282.057 673.201,-279.307"/>
<polygon fill="#9a32cd" stroke="#9a32cd" points="537.475,-301.207 528.218,-306.361 538.668,-308.104 537.475,-301.207"/>
<text text-anchor="middle" x="602" y="-301" font-family="Helvetica,sans-Serif" font-size="10.00"> DescFileP</text>
</g>
<!-- Node11 -->
<g id="node11" class="node"><title>Node11</title>
<g id="a_node11"><a xlink:href="structpkgCache_1_1StringItem.xhtml" target="_top" xlink:title="used for generating single instances of strings ">
<polygon fill="white" stroke="black" points="469,-263.5 469,-282.5 531,-282.5 531,-263.5 469,-263.5"/>
<text text-anchor="middle" x="500" y="-270.5" font-family="Helvetica,sans-Serif" font-size="10.00">StringItem</text>
</a>
</g>
</g>
<!-- Node11&#45;&gt;Node4 -->
<g id="edge10" class="edge"><title>Node11&#45;&gt;Node4</title>
<path fill="none" stroke="#9a32cd" stroke-dasharray="5,2" d="M541.686,-273C580.612,-273 638.399,-273 673.211,-273"/>
<polygon fill="#9a32cd" stroke="#9a32cd" points="541.241,-269.5 531.241,-273 541.241,-276.5 541.241,-269.5"/>
<text text-anchor="middle" x="602" y="-276" font-family="Helvetica,sans-Serif" font-size="10.00"> StringItemP</text>
</g>
<!-- Node12 -->
<g id="node12" class="node"><title>Node12</title>
<g id="a_node12"><a xlink:href="structpkgCache_1_1Provides.xhtml" target="_top" xlink:title="handles virtual packages ">
<polygon fill="white" stroke="black" points="472.5,-225.5 472.5,-244.5 527.5,-244.5 527.5,-225.5 472.5,-225.5"/>
<text text-anchor="middle" x="500" y="-232.5" font-family="Helvetica,sans-Serif" font-size="10.00">Provides</text>
</a>
</g>
</g>
<!-- Node12&#45;&gt;Node4 -->
<g id="edge11" class="edge"><title>Node12&#45;&gt;Node4</title>
<path fill="none" stroke="#9a32cd" stroke-dasharray="5,2" d="M537.82,-241.301C563.65,-245.785 598.975,-252.048 630,-258 644.231,-260.73 659.983,-263.943 673.201,-266.693"/>
<polygon fill="#9a32cd" stroke="#9a32cd" points="538.171,-237.809 527.72,-239.554 536.978,-244.707 538.171,-237.809"/>
<text text-anchor="middle" x="602" y="-261" font-family="Helvetica,sans-Serif" font-size="10.00"> ProvideP</text>
</g>
<!-- Node13 -->
<g id="node13" class="node"><title>Node13</title>
<g id="a_node13"><a xlink:title="STL class. ">
<polygon fill="white" stroke="#bfbfbf" points="144.5,-257.5 144.5,-276.5 185.5,-276.5 185.5,-257.5 144.5,-257.5"/>
<text text-anchor="middle" x="165" y="-264.5" font-family="Helvetica,sans-Serif" font-size="10.00">string</text>
</a>
</g>
</g>
<!-- Node13&#45;&gt;Node4 -->
<g id="edge12" class="edge"><title>Node13&#45;&gt;Node4</title>
<path fill="none" stroke="#9a32cd" stroke-dasharray="5,2" d="M195.198,-256.931C260.312,-235.84 422.205,-190.968 556,-216 604.43,-225.061 657.43,-249.56 684.63,-263.307"/>
<polygon fill="#9a32cd" stroke="#9a32cd" points="193.999,-253.641 185.598,-260.097 196.191,-260.289 193.999,-253.641"/>
<text text-anchor="middle" x="401" y="-218" font-family="Helvetica,sans-Serif" font-size="10.00"> CacheFile</text>
</g>
<!-- Node21 -->
<g id="node21" class="node"><title>Node21</title>
<g id="a_node21"><a xlink:href="classFileFd.xhtml" target="_top" xlink:title="FileFd">
<polygon fill="white" stroke="black" points="314,-434.5 314,-453.5 358,-453.5 358,-434.5 314,-434.5"/>
<text text-anchor="middle" x="336" y="-441.5" font-family="Helvetica,sans-Serif" font-size="10.00">FileFd</text>
</a>
</g>
</g>
<!-- Node13&#45;&gt;Node21 -->
<g id="edge22" class="edge"><title>Node13&#45;&gt;Node21</title>
<path fill="none" stroke="#9a32cd" stroke-dasharray="5,2" d="M182.162,-283.927C217.062,-320.48 298.529,-405.802 325.869,-434.437"/>
<polygon fill="#9a32cd" stroke="#9a32cd" points="184.523,-281.332 175.086,-276.516 179.461,-286.166 184.523,-281.332"/>
<text text-anchor="middle" x="250" y="-416" font-family="Helvetica,sans-Serif" font-size="10.00"> TemporaryFileName</text>
<text text-anchor="middle" x="250" y="-405" font-family="Helvetica,sans-Serif" font-size="10.00">FileName</text>
</g>
<!-- Node14 -->
<g id="node14" class="node"><title>Node14</title>
<g id="a_node14"><a xlink:title="STL class. ">
<polygon fill="white" stroke="#bfbfbf" points="0,-257.5 0,-276.5 106,-276.5 106,-257.5 0,-257.5"/>
<text text-anchor="middle" x="53" y="-264.5" font-family="Helvetica,sans-Serif" font-size="10.00">basic_string&lt; char &gt;</text>
</a>
</g>
</g>
<!-- Node14&#45;&gt;Node13 -->
<g id="edge13" class="edge"><title>Node14&#45;&gt;Node13</title>
<path fill="none" stroke="midnightblue" d="M116.338,-267C126.515,-267 136.35,-267 144.416,-267"/>
<polygon fill="midnightblue" stroke="midnightblue" points="116.101,-263.5 106.101,-267 116.101,-270.5 116.101,-263.5"/>
</g>
<!-- Node15 -->
<g id="node15" class="node"><title>Node15</title>
<g id="a_node15"><a xlink:href="structpkgCache_1_1Group.xhtml" target="_top" xlink:title="groups architecture depending packages together ">
<polygon fill="white" stroke="black" points="478.5,-0.5 478.5,-19.5 521.5,-19.5 521.5,-0.5 478.5,-0.5"/>
<text text-anchor="middle" x="500" y="-7.5" font-family="Helvetica,sans-Serif" font-size="10.00">Group</text>
</a>
</g>
</g>
<!-- Node15&#45;&gt;Node2 -->
<g id="edge23" class="edge"><title>Node15&#45;&gt;Node2</title>
<path fill="none" stroke="#9a32cd" stroke-dasharray="5,2" d="M531.675,-5.56171C558.69,-2.99089 598.522,-2.52295 630,-16 761.518,-72.3091 866.83,-223.575 892.826,-263.323"/>
<polygon fill="#9a32cd" stroke="#9a32cd" points="531.199,-2.09285 521.643,-6.66895 531.967,-9.0506 531.199,-2.09285"/>
<text text-anchor="middle" x="704" y="-107" font-family="Helvetica,sans-Serif" font-size="10.00"> S</text>
</g>
<!-- Node15&#45;&gt;Node4 -->
<g id="edge14" class="edge"><title>Node15&#45;&gt;Node4</title>
<path fill="none" stroke="#9a32cd" stroke-dasharray="5,2" d="M531.815,-11.1509C560.815,-13.8668 603.623,-22.3322 630,-48 693.867,-110.149 701.912,-228.603 702.88,-263.252"/>
<polygon fill="#9a32cd" stroke="#9a32cd" points="532.048,-7.65857 521.811,-10.3892 531.516,-14.6384 532.048,-7.65857"/>
<text text-anchor="middle" x="602" y="-51" font-family="Helvetica,sans-Serif" font-size="10.00"> GrpP</text>
</g>
<!-- Node16 -->
<g id="node16" class="node"><title>Node16</title>
<g id="a_node16"><a xlink:href="classpkgVersioningSystem.xhtml" target="_top" xlink:title="pkgVersioningSystem">
<polygon fill="white" stroke="black" points="444,-120.5 444,-139.5 556,-139.5 556,-120.5 444,-120.5"/>
<text text-anchor="middle" x="500" y="-127.5" font-family="Helvetica,sans-Serif" font-size="10.00">pkgVersioningSystem</text>
</a>
</g>
</g>
<!-- Node16&#45;&gt;Node4 -->
<g id="edge15" class="edge"><title>Node16&#45;&gt;Node4</title>
<path fill="none" stroke="#9a32cd" stroke-dasharray="5,2" d="M564.433,-142.127C586.619,-148.486 610.767,-157.981 630,-172 664.443,-197.105 689.105,-243.382 698.643,-263.379"/>
<polygon fill="#9a32cd" stroke="#9a32cd" points="565.301,-138.736 554.734,-139.506 563.475,-145.494 565.301,-138.736"/>
<text text-anchor="middle" x="602" y="-175" font-family="Helvetica,sans-Serif" font-size="10.00"> VS</text>
</g>
<!-- Node16&#45;&gt;Node16 -->
<g id="edge16" class="edge"><title>Node16&#45;&gt;Node16</title>
<path fill="none" stroke="#9a32cd" stroke-dasharray="5,2" d="M481.853,-149.4C483.065,-154.315 489.114,-158 500,-158 517.418,-158 522.453,-148.565 515.105,-139.757"/>
<polygon fill="#9a32cd" stroke="#9a32cd" points="485.224,-150.347 484.895,-139.757 478.548,-148.24 485.224,-150.347"/>
<text text-anchor="middle" x="500" y="-161" font-family="Helvetica,sans-Serif" font-size="10.00"> GlobalList</text>
</g>
<!-- Node17 -->
<g id="node17" class="node"><title>Node17</title>
<g id="a_node17"><a xlink:href="structpkgCache_1_1Version.xhtml" target="_top" xlink:title="information for a single version of a package ">
<polygon fill="white" stroke="black" points="475,-82.5 475,-101.5 525,-101.5 525,-82.5 475,-82.5"/>
<text text-anchor="middle" x="500" y="-89.5" font-family="Helvetica,sans-Serif" font-size="10.00">Version</text>
</a>
</g>
</g>
<!-- Node17&#45;&gt;Node4 -->
<g id="edge17" class="edge"><title>Node17&#45;&gt;Node4</title>
<path fill="none" stroke="#9a32cd" stroke-dasharray="5,2" d="M535.244,-95.2962C563.452,-99.5921 603.054,-109.448 630,-132 673.546,-168.446 694.279,-237.537 700.717,-263.136"/>
<polygon fill="#9a32cd" stroke="#9a32cd" points="535.422,-91.7882 525.041,-93.9071 534.477,-98.7242 535.422,-91.7882"/>
<text text-anchor="middle" x="602" y="-135" font-family="Helvetica,sans-Serif" font-size="10.00"> VerP</text>
</g>
<!-- Node18 -->
<g id="node18" class="node"><title>Node18</title>
<g id="a_node18"><a xlink:href="structpkgCache_1_1VerFile.xhtml" target="_top" xlink:title="associates a version with a PackageFile ">
<polygon fill="white" stroke="black" points="476.5,-44.5 476.5,-63.5 523.5,-63.5 523.5,-44.5 476.5,-44.5"/>
<text text-anchor="middle" x="500" y="-51.5" font-family="Helvetica,sans-Serif" font-size="10.00">VerFile</text>
</a>
</g>
</g>
<!-- Node18&#45;&gt;Node4 -->
<g id="edge18" class="edge"><title>Node18&#45;&gt;Node4</title>
<path fill="none" stroke="#9a32cd" stroke-dasharray="5,2" d="M534.261,-55.277C562.881,-58.067 603.614,-66.3067 630,-90 684.209,-138.678 698.747,-233.039 702.101,-263.365"/>
<polygon fill="#9a32cd" stroke="#9a32cd" points="534.188,-51.7601 523.941,-54.4537 533.631,-58.7379 534.188,-51.7601"/>
<text text-anchor="middle" x="602" y="-93" font-family="Helvetica,sans-Serif" font-size="10.00"> VerFileP</text>
</g>
<!-- Node19 -->
<g id="node19" class="node"><title>Node19</title>
<g id="a_node19"><a xlink:href="structpkgCache_1_1Package.xhtml" target="_top" xlink:title="contains information for a single unique package ">
<polygon fill="white" stroke="black" points="472.5,-529.5 472.5,-548.5 527.5,-548.5 527.5,-529.5 472.5,-529.5"/>
<text text-anchor="middle" x="500" y="-536.5" font-family="Helvetica,sans-Serif" font-size="10.00">Package</text>
</a>
</g>
</g>
<!-- Node19&#45;&gt;Node4 -->
<g id="edge19" class="edge"><title>Node19&#45;&gt;Node4</title>
<path fill="none" stroke="#9a32cd" stroke-dasharray="5,2" d="M537.953,-543.782C567.344,-545.321 607.194,-541.934 630,-517 663.854,-479.988 617.286,-331.656 648,-292 654.124,-284.093 663.737,-279.46 673.224,-276.751"/>
<polygon fill="#9a32cd" stroke="#9a32cd" points="537.879,-540.267 527.649,-543.023 537.364,-547.249 537.879,-540.267"/>
<text text-anchor="middle" x="602" y="-545" font-family="Helvetica,sans-Serif" font-size="10.00"> PkgP</text>
</g>
<!-- Node20 -->
<g id="node20" class="node"><title>Node20</title>
<g id="a_node20"><a xlink:href="classMMap.xhtml" target="_top" xlink:title="MMap">
<polygon fill="white" stroke="black" points="478,-491.5 478,-510.5 522,-510.5 522,-491.5 478,-491.5"/>
<text text-anchor="middle" x="500" y="-498.5" font-family="Helvetica,sans-Serif" font-size="10.00">MMap</text>
</a>
</g>
</g>
<!-- Node20&#45;&gt;Node4 -->
<g id="edge20" class="edge"><title>Node20&#45;&gt;Node4</title>
<path fill="none" stroke="#9a32cd" stroke-dasharray="5,2" d="M532.75,-504.817C562.438,-506.443 605.735,-503.472 630,-477 657.91,-446.551 622.428,-324.438 648,-292 654.192,-284.146 663.82,-279.525 673.301,-276.811"/>
<polygon fill="#9a32cd" stroke="#9a32cd" points="532.723,-501.306 522.488,-504.046 532.198,-508.286 532.723,-501.306"/>
<text text-anchor="middle" x="602" y="-507" font-family="Helvetica,sans-Serif" font-size="10.00"> Map</text>
</g>
<!-- Node21&#45;&gt;Node20 -->
<g id="edge21" class="edge"><title>Node21&#45;&gt;Node20</title>
<path fill="none" stroke="#9a32cd" stroke-dasharray="5,2" d="M367.821,-455.025C389.186,-462.648 418.302,-472.998 444,-482 455.155,-485.908 467.602,-490.212 477.83,-493.734"/>
<polygon fill="#9a32cd" stroke="#9a32cd" points="368.892,-451.691 358.297,-451.624 366.538,-458.283 368.892,-451.691"/>
<text text-anchor="middle" x="401" y="-478" font-family="Helvetica,sans-Serif" font-size="10.00"> SyncToFd</text>
</g>
</g>
</svg>
        <g id="navigator" transform="translate(0 0)" fill="#404254">
                <rect fill="#f2f5e9" fill-opacity="0.5" stroke="#606060" stroke-width=".5" x="0" y="0" width="60" height="60"/>
                <use id="zoomplus" xlink:href="#zoomPlus" x="17" y="9" onmousedown="handleZoom(evt,'in')"/>
                <use id="zoomminus" xlink:href="#zoomMin" x="42" y="9" onmousedown="handleZoom(evt,'out')"/>
                <use id="reset" xlink:href="#resetDef" x="30" y="36" onmousedown="handleReset()"/>
                <g id="arrowUp" xlink:href="#dirArrow" transform="translate(30 24)" onmousedown="handlePan(0,-1)">
                  <use xlink:href="#rim" fill="#404040">
                        <set attributeName="fill" to="#808080" begin="arrowUp.mouseover" end="arrowUp.mouseout"/>
                  </use>
                  <path fill="none" stroke="white" stroke-width="1.5" d="M0,-3.0v7 M-2.5,-0.5L0,-3.0L2.5,-0.5"/>
                </g>
                <g id="arrowRight" xlink:href="#dirArrow" transform="rotate(90) translate(36 -43)" onmousedown="handlePan(1,0)">
                  <use xlink:href="#rim" fill="#404040">
                        <set attributeName="fill" to="#808080" begin="arrowRight.mouseover" end="arrowRight.mouseout"/>
                  </use>
                  <path fill="none" stroke="white" stroke-width="1.5" d="M0,-3.0v7 M-2.5,-0.5L0,-3.0L2.5,-0.5"/>
                </g>
                <g id="arrowDown" xlink:href="#dirArrow" transform="rotate(180) translate(-30 -48)" onmousedown="handlePan(0,1)">
                  <use xlink:href="#rim" fill="#404040">
                        <set attributeName="fill" to="#808080" begin="arrowDown.mouseover" end="arrowDown.mouseout"/>
                  </use>
                  <path fill="none" stroke="white" stroke-width="1.5" d="M0,-3.0v7 M-2.5,-0.5L0,-3.0L2.5,-0.5"/>
                </g>
                <g id="arrowLeft" xlink:href="#dirArrow" transform="rotate(270) translate(-36 17)" onmousedown="handlePan(-1,0)">
                  <use xlink:href="#rim" fill="#404040">
                        <set attributeName="fill" to="#808080" begin="arrowLeft.mouseover" end="arrowLeft.mouseout"/>
                  </use>
                  <path fill="none" stroke="white" stroke-width="1.5" d="M0,-3.0v7 M-2.5,-0.5L0,-3.0L2.5,-0.5"/>
                </g>
        </g>
        <svg viewBox="0 0 15 15" width="100%" height="30px" preserveAspectRatio="xMaxYMin meet">
         <g id="arrow_out" transform="scale(0.3 0.3)">
          <a xlink:href="classpkgCache_1_1GrpIterator__coll__graph_org.svg" target="_base">
           <rect id="button" ry="5" rx="5" y="6" x="6" height="38" width="38"
                fill="#f2f5e9" fill-opacity="0.5" stroke="#606060" stroke-width="1.0"/>
           <path id="arrow"
             d="M 11.500037,31.436501 C 11.940474,20.09759 22.043105,11.32322 32.158766,21.979434 L 37.068811,17.246167 C 37.068811,17.246167 37.088388,32 37.088388,32 L 22.160133,31.978069 C 22.160133,31.978069 26.997745,27.140456 26.997745,27.140456 C 18.528582,18.264221 13.291696,25.230495 11.500037,31.436501 z"
             style="fill:#404040;"/>
          </a>
         </g>
        </svg>
</svg>
