<?xml version="1.0" encoding="UTF-8" standalone="no"?>
<!DOCTYPE svg PUBLIC "-//W3C//DTD SVG 1.1//EN"
 "http://www.w3.org/Graphics/SVG/1.1/DTD/svg11.dtd">
<!-- Generated by graphviz version 2.36.0 (20140111.2315)
 -->
<!-- Title: edspIFType Pages: 1 -->
<svg width="126pt" height="86pt"
 viewBox="0.00 0.00 126.00 86.00" xmlns="http://www.w3.org/2000/svg" xmlns:xlink="http://www.w3.org/1999/xlink">
<g id="graph0" class="graph" transform="scale(1 1) rotate(0) translate(4 82)">
<title>edspIFType</title>
<polygon fill="white" stroke="none" points="-4,4 -4,-82 122,-82 122,4 -4,4"/>
<!-- Node1 -->
<g id="node1" class="node"><title>Node1</title>
<polygon fill="#bfbfbf" stroke="black" points="0,-0.5 0,-19.5 68,-19.5 68,-0.5 0,-0.5"/>
<text text-anchor="middle" x="34" y="-7.5" font-family="Helvetica,sans-Serif" font-size="10.00">edspIFType</text>
</g>
<!-- Node2 -->
<g id="node2" class="node"><title>Node2</title>
<g id="a_node2"><a xlink:href="classpkgIndexFile_1_1Type.xhtml" target="_top" xlink:title="Type">
<polygon fill="white" stroke="black" points="15,-58.5 15,-77.5 53,-77.5 53,-58.5 15,-58.5"/>
<text text-anchor="middle" x="34" y="-65.5" font-family="Helvetica,sans-Serif" font-size="10.00">Type</text>
</a>
</g>
</g>
<!-- Node2&#45;&gt;Node1 -->
<g id="edge1" class="edge"><title>Node2&#45;&gt;Node1</title>
<path fill="none" stroke="midnightblue" d="M34,-47.953C34,-38.2875 34,-27.0312 34,-19.5052"/>
<polygon fill="midnightblue" stroke="midnightblue" points="30.5001,-48.25 34,-58.25 37.5001,-48.25 30.5001,-48.25"/>
</g>
<!-- Node2&#45;&gt;Node2 -->
<g id="edge2" class="edge"><title>Node2&#45;&gt;Node2</title>
<path fill="none" stroke="#9a32cd" stroke-dasharray="5,2" d="M63.2501,-72.8209C67.8553,-72.1064 71,-70.4994 71,-68 71,-63.8984 62.5314,-62.2001 53.0372,-62.9051"/>
<polygon fill="#9a32cd" stroke="#9a32cd" points="62.9397,-69.3279 53.0372,-73.0949 63.1276,-76.3254 62.9397,-69.3279"/>
<text text-anchor="middle" x="94.5" y="-65.5" font-family="Helvetica,sans-Serif" font-size="10.00"> GlobalList</text>
</g>
</g>
</svg>
