<?xml version="1.0" encoding="UTF-8" standalone="no"?>
<!DOCTYPE svg PUBLIC "-//W3C//DTD SVG 1.1//EN"
 "http://www.w3.org/Graphics/SVG/1.1/DTD/svg11.dtd">
<!-- Generated by graphviz version 2.36.0 (20140111.2315)
 -->
<!-- Title: pkgCache Pages: 1 -->
<!--zoomable 551 -->
<svg id="main" version="1.1" xmlns="http://www.w3.org/2000/svg" xmlns:xlink="http://www.w3.org/1999/xlink" xml:space="preserve" onload="init(evt)">
<style type="text/css"><![CDATA[
.edge:hover path { stroke: red; }
.edge:hover polygon { stroke: red; fill: red; }
]]></style>
<script type="text/javascript"><![CDATA[
var edges = document.getElementsByTagName('g');
if (edges && edges.length) {
  for (var i=0;i<edges.length;i++) {
    if (edges[i].id.substr(0,4)=='edge') {
      edges[i].setAttribute('class','edge');
    }
  }
}
]]></script>
        <defs>
                <circle id="rim" cx="0" cy="0" r="7"/>
                <circle id="rim2" cx="0" cy="0" r="3.5"/>
                <g id="zoomPlus">
                        <use xlink:href="#rim" fill="#404040">
                                <set attributeName="fill" to="#808080" begin="zoomplus.mouseover" end="zoomplus.mouseout"/>
                        </use>
                        <path d="M-4,0h8M0,-4v8" fill="none" stroke="white" stroke-width="1.5" pointer-events="none"/>
                </g>
                <g id="zoomMin">
                        <use xlink:href="#rim" fill="#404040">
                                <set attributeName="fill" to="#808080" begin="zoomminus.mouseover" end="zoomminus.mouseout"/>
                        </use>
                        <path d="M-4,0h8" fill="none" stroke="white" stroke-width="1.5" pointer-events="none"/>
                </g>
                <g id="dirArrow">
                        <path fill="none" stroke="white" stroke-width="1.5" d="M0,-3.0v7 M-2.5,-0.5L0,-3.0L2.5,-0.5"/>
                </g>
               <g id="resetDef">
                       <use xlink:href="#rim2" fill="#404040">
                               <set attributeName="fill" to="#808080" begin="reset.mouseover" end="reset.mouseout"/>
                       </use>
               </g>
        </defs>

<script type="text/javascript">
var viewWidth = 718;
var viewHeight = 551;
var sectionId = 'dynsection-0';
</script>
<script xlink:href="svgpan.js"/>
<svg id="graph" class="graph">
<g id="viewport">
<title>pkgCache</title>
<polygon fill="white" stroke="none" points="-4,4 -4,-547 714,-547 714,4 -4,4"/>
<!-- Node1 -->
<g id="node1" class="node"><title>Node1</title>
<polygon fill="#bfbfbf" stroke="black" points="648.5,-276.5 648.5,-295.5 709.5,-295.5 709.5,-276.5 648.5,-276.5"/>
<text text-anchor="middle" x="679" y="-283.5" font-family="Helvetica,sans-Serif" font-size="10.00">pkgCache</text>
</g>
<!-- Node2 -->
<g id="node2" class="node"><title>Node2</title>
<g id="a_node2"><a xlink:href="structpkgCache_1_1Dependency.xhtml" target="_top" xlink:title="information for a single dependency record ">
<polygon fill="white" stroke="black" points="464.5,-523.5 464.5,-542.5 535.5,-542.5 535.5,-523.5 464.5,-523.5"/>
<text text-anchor="middle" x="500" y="-530.5" font-family="Helvetica,sans-Serif" font-size="10.00">Dependency</text>
</a>
</g>
</g>
<!-- Node2&#45;&gt;Node1 -->
<g id="edge1" class="edge"><title>Node2&#45;&gt;Node1</title>
<path fill="none" stroke="#9a32cd" stroke-dasharray="5,2" d="M545.948,-534.774C573.765,-533.381 608.208,-526.747 630,-505 660.375,-474.687 674.035,-334.12 677.239,-295.717"/>
<polygon fill="#9a32cd" stroke="#9a32cd" points="545.546,-531.284 535.652,-535.072 545.749,-538.281 545.546,-531.284"/>
<text text-anchor="middle" x="602" y="-533" font-family="Helvetica,sans-Serif" font-size="10.00"> DepP</text>
</g>
<!-- Node3 -->
<g id="node3" class="node"><title>Node3</title>
<g id="a_node3"><a xlink:href="structpkgCache_1_1Description.xhtml" target="_top" xlink:title="datamember of a linked list of available description for a version ">
<polygon fill="white" stroke="black" points="467,-485.5 467,-504.5 533,-504.5 533,-485.5 467,-485.5"/>
<text text-anchor="middle" x="500" y="-492.5" font-family="Helvetica,sans-Serif" font-size="10.00">Description</text>
</a>
</g>
</g>
<!-- Node3&#45;&gt;Node1 -->
<g id="edge2" class="edge"><title>Node3&#45;&gt;Node1</title>
<path fill="none" stroke="#9a32cd" stroke-dasharray="5,2" d="M543.505,-495.435C571.57,-493.429 607.235,-486.146 630,-464 678.637,-416.686 679.637,-325.665 678.544,-295.774"/>
<polygon fill="#9a32cd" stroke="#9a32cd" points="542.971,-491.958 533.164,-495.966 543.33,-498.949 542.971,-491.958"/>
<text text-anchor="middle" x="602" y="-493" font-family="Helvetica,sans-Serif" font-size="10.00"> DescP</text>
</g>
<!-- Node4 -->
<g id="node4" class="node"><title>Node4</title>
<g id="a_node4"><a xlink:href="structpkgCache_1_1Header.xhtml" target="_top" xlink:title="Header">
<polygon fill="white" stroke="black" points="476,-447.5 476,-466.5 524,-466.5 524,-447.5 476,-447.5"/>
<text text-anchor="middle" x="500" y="-454.5" font-family="Helvetica,sans-Serif" font-size="10.00">Header</text>
</a>
</g>
</g>
<!-- Node4&#45;&gt;Node1 -->
<g id="edge3" class="edge"><title>Node4&#45;&gt;Node1</title>
<path fill="none" stroke="#9a32cd" stroke-dasharray="5,2" d="M534.097,-456.602C562.875,-454.511 603.938,-447.073 630,-423 668.137,-387.773 675.978,-320.529 677.587,-295.606"/>
<polygon fill="#9a32cd" stroke="#9a32cd" points="533.893,-453.107 524.1,-457.151 534.277,-460.097 533.893,-453.107"/>
<text text-anchor="middle" x="602" y="-452" font-family="Helvetica,sans-Serif" font-size="10.00"> HeaderP</text>
</g>
<!-- Node5 -->
<g id="node5" class="node"><title>Node5</title>
<g id="a_node5"><a xlink:href="structDynamicMMap_1_1Pool.xhtml" target="_top" xlink:title="Pool">
<polygon fill="white" stroke="black" points="318,-447.5 318,-466.5 354,-466.5 354,-447.5 318,-447.5"/>
<text text-anchor="middle" x="336" y="-454.5" font-family="Helvetica,sans-Serif" font-size="10.00">Pool</text>
</a>
</g>
</g>
<!-- Node5&#45;&gt;Node4 -->
<g id="edge4" class="edge"><title>Node5&#45;&gt;Node4</title>
<path fill="none" stroke="#9a32cd" stroke-dasharray="5,2" d="M364.236,-457C395.589,-457 446.538,-457 475.988,-457"/>
<polygon fill="#9a32cd" stroke="#9a32cd" points="364.031,-453.5 354.031,-457 364.031,-460.5 364.031,-453.5"/>
<text text-anchor="middle" x="401" y="-460" font-family="Helvetica,sans-Serif" font-size="10.00"> Pools</text>
</g>
<!-- Node6 -->
<g id="node6" class="node"><title>Node6</title>
<g id="a_node6"><a xlink:href="structpkgCache_1_1PackageFile.xhtml" target="_top" xlink:title="stores information about the files used to generate the cache ">
<polygon fill="white" stroke="black" points="464.5,-409.5 464.5,-428.5 535.5,-428.5 535.5,-409.5 464.5,-409.5"/>
<text text-anchor="middle" x="500" y="-416.5" font-family="Helvetica,sans-Serif" font-size="10.00">PackageFile</text>
</a>
</g>
</g>
<!-- Node6&#45;&gt;Node1 -->
<g id="edge5" class="edge"><title>Node6&#45;&gt;Node1</title>
<path fill="none" stroke="#9a32cd" stroke-dasharray="5,2" d="M545.739,-414.789C572.705,-410.233 606.302,-400.747 630,-381 657.682,-357.933 671.043,-314.886 675.838,-295.682"/>
<polygon fill="#9a32cd" stroke="#9a32cd" points="545.123,-411.342 535.763,-416.305 546.175,-418.263 545.123,-411.342"/>
<text text-anchor="middle" x="602" y="-411" font-family="Helvetica,sans-Serif" font-size="10.00"> PkgFileP</text>
</g>
<!-- Node7 -->
<g id="node7" class="node"><title>Node7</title>
<g id="a_node7"><a xlink:href="structpkgCache_1_1DescFile.xhtml" target="_top" xlink:title="associates a description with a Translation file ">
<polygon fill="white" stroke="black" points="472,-371.5 472,-390.5 528,-390.5 528,-371.5 472,-371.5"/>
<text text-anchor="middle" x="500" y="-378.5" font-family="Helvetica,sans-Serif" font-size="10.00">DescFile</text>
</a>
</g>
</g>
<!-- Node7&#45;&gt;Node1 -->
<g id="edge6" class="edge"><title>Node7&#45;&gt;Node1</title>
<path fill="none" stroke="#9a32cd" stroke-dasharray="5,2" d="M538.012,-375.973C565.197,-370.945 602.096,-361.23 630,-343 649.062,-330.547 664.601,-308.275 672.452,-295.572"/>
<polygon fill="#9a32cd" stroke="#9a32cd" points="537.369,-372.532 528.108,-377.678 538.557,-379.43 537.369,-372.532"/>
<text text-anchor="middle" x="602" y="-369" font-family="Helvetica,sans-Serif" font-size="10.00"> DescFileP</text>
</g>
<!-- Node8 -->
<g id="node8" class="node"><title>Node8</title>
<g id="a_node8"><a xlink:href="structpkgCache_1_1StringItem.xhtml" target="_top" xlink:title="used for generating single instances of strings ">
<polygon fill="white" stroke="black" points="469,-333.5 469,-352.5 531,-352.5 531,-333.5 469,-333.5"/>
<text text-anchor="middle" x="500" y="-340.5" font-family="Helvetica,sans-Serif" font-size="10.00">StringItem</text>
</a>
</g>
</g>
<!-- Node8&#45;&gt;Node1 -->
<g id="edge7" class="edge"><title>Node8&#45;&gt;Node1</title>
<path fill="none" stroke="#9a32cd" stroke-dasharray="5,2" d="M540.901,-335.654C566.772,-330.273 600.945,-321.992 630,-311 641.073,-306.811 652.874,-300.689 662.004,-295.552"/>
<polygon fill="#9a32cd" stroke="#9a32cd" points="540.176,-332.23 531.068,-337.643 541.564,-339.091 540.176,-332.23"/>
<text text-anchor="middle" x="602" y="-331" font-family="Helvetica,sans-Serif" font-size="10.00"> StringItemP</text>
</g>
<!-- Node9 -->
<g id="node9" class="node"><title>Node9</title>
<g id="a_node9"><a xlink:href="structpkgCache_1_1Provides.xhtml" target="_top" xlink:title="handles virtual packages ">
<polygon fill="white" stroke="black" points="472.5,-295.5 472.5,-314.5 527.5,-314.5 527.5,-295.5 472.5,-295.5"/>
<text text-anchor="middle" x="500" y="-302.5" font-family="Helvetica,sans-Serif" font-size="10.00">Provides</text>
</a>
</g>
</g>
<!-- Node9&#45;&gt;Node1 -->
<g id="edge8" class="edge"><title>Node9&#45;&gt;Node1</title>
<path fill="none" stroke="#9a32cd" stroke-dasharray="5,2" d="M537.992,-301.029C570.822,-297.505 618.156,-292.424 648.499,-289.167"/>
<polygon fill="#9a32cd" stroke="#9a32cd" points="537.452,-297.567 527.882,-302.114 538.199,-304.527 537.452,-297.567"/>
<text text-anchor="middle" x="602" y="-299" font-family="Helvetica,sans-Serif" font-size="10.00"> ProvideP</text>
</g>
<!-- Node10 -->
<g id="node10" class="node"><title>Node10</title>
<g id="a_node10"><a xlink:title="STL class. ">
<polygon fill="white" stroke="#bfbfbf" points="144.5,-238.5 144.5,-257.5 185.5,-257.5 185.5,-238.5 144.5,-238.5"/>
<text text-anchor="middle" x="165" y="-245.5" font-family="Helvetica,sans-Serif" font-size="10.00">string</text>
</a>
</g>
</g>
<!-- Node10&#45;&gt;Node1 -->
<g id="edge9" class="edge"><title>Node10&#45;&gt;Node1</title>
<path fill="none" stroke="#9a32cd" stroke-dasharray="5,2" d="M195.689,-252.084C198.496,-252.417 201.3,-252.729 204,-253 371.643,-269.849 573.51,-280.819 648.274,-284.565"/>
<polygon fill="#9a32cd" stroke="#9a32cd" points="196.055,-248.603 185.696,-250.825 195.18,-255.548 196.055,-248.603"/>
<text text-anchor="middle" x="401" y="-274" font-family="Helvetica,sans-Serif" font-size="10.00"> CacheFile</text>
</g>
<!-- Node18 -->
<g id="node18" class="node"><title>Node18</title>
<g id="a_node18"><a xlink:href="classFileFd.xhtml" target="_top" xlink:title="FileFd">
<polygon fill="white" stroke="black" points="314,-219.5 314,-238.5 358,-238.5 358,-219.5 314,-219.5"/>
<text text-anchor="middle" x="336" y="-226.5" font-family="Helvetica,sans-Serif" font-size="10.00">FileFd</text>
</a>
</g>
</g>
<!-- Node10&#45;&gt;Node18 -->
<g id="edge19" class="edge"><title>Node10&#45;&gt;Node18</title>
<path fill="none" stroke="#9a32cd" stroke-dasharray="5,2" d="M192.707,-234.457C196.422,-233.048 200.251,-231.83 204,-231 241.975,-222.589 287.668,-224.522 313.824,-226.733"/>
<polygon fill="#9a32cd" stroke="#9a32cd" points="191.089,-231.342 183.274,-238.496 193.844,-237.777 191.089,-231.342"/>
<text text-anchor="middle" x="250" y="-245" font-family="Helvetica,sans-Serif" font-size="10.00"> TemporaryFileName</text>
<text text-anchor="middle" x="250" y="-234" font-family="Helvetica,sans-Serif" font-size="10.00">FileName</text>
</g>
<!-- Node11 -->
<g id="node11" class="node"><title>Node11</title>
<g id="a_node11"><a xlink:title="STL class. ">
<polygon fill="white" stroke="#bfbfbf" points="0,-238.5 0,-257.5 106,-257.5 106,-238.5 0,-238.5"/>
<text text-anchor="middle" x="53" y="-245.5" font-family="Helvetica,sans-Serif" font-size="10.00">basic_string&lt; char &gt;</text>
</a>
</g>
</g>
<!-- Node11&#45;&gt;Node10 -->
<g id="edge10" class="edge"><title>Node11&#45;&gt;Node10</title>
<path fill="none" stroke="midnightblue" d="M116.338,-248C126.515,-248 136.35,-248 144.416,-248"/>
<polygon fill="midnightblue" stroke="midnightblue" points="116.101,-244.5 106.101,-248 116.101,-251.5 116.101,-244.5"/>
</g>
<!-- Node12 -->
<g id="node12" class="node"><title>Node12</title>
<g id="a_node12"><a xlink:href="structpkgCache_1_1Group.xhtml" target="_top" xlink:title="groups architecture depending packages together ">
<polygon fill="white" stroke="black" points="478.5,-181.5 478.5,-200.5 521.5,-200.5 521.5,-181.5 478.5,-181.5"/>
<text text-anchor="middle" x="500" y="-188.5" font-family="Helvetica,sans-Serif" font-size="10.00">Group</text>
</a>
</g>
</g>
<!-- Node12&#45;&gt;Node1 -->
<g id="edge11" class="edge"><title>Node12&#45;&gt;Node1</title>
<path fill="none" stroke="#9a32cd" stroke-dasharray="5,2" d="M531.892,-189.901C559.7,-190.358 600.595,-194.751 630,-214 653.505,-229.387 668.283,-260.713 674.541,-276.481"/>
<polygon fill="#9a32cd" stroke="#9a32cd" points="531.567,-186.401 521.567,-189.902 531.568,-193.401 531.567,-186.401"/>
<text text-anchor="middle" x="602" y="-217" font-family="Helvetica,sans-Serif" font-size="10.00"> GrpP</text>
</g>
<!-- Node13 -->
<g id="node13" class="node"><title>Node13</title>
<g id="a_node13"><a xlink:href="classpkgVersioningSystem.xhtml" target="_top" xlink:title="pkgVersioningSystem">
<polygon fill="white" stroke="black" points="444,-114.5 444,-133.5 556,-133.5 556,-114.5 444,-114.5"/>
<text text-anchor="middle" x="500" y="-121.5" font-family="Helvetica,sans-Serif" font-size="10.00">pkgVersioningSystem</text>
</a>
</g>
</g>
<!-- Node13&#45;&gt;Node1 -->
<g id="edge12" class="edge"><title>Node13&#45;&gt;Node1</title>
<path fill="none" stroke="#9a32cd" stroke-dasharray="5,2" d="M552.069,-136.62C578.078,-145.224 608.633,-158.964 630,-180 658.504,-208.062 671.63,-256.125 676.114,-276.464"/>
<polygon fill="#9a32cd" stroke="#9a32cd" points="552.941,-133.225 542.352,-133.57 550.845,-139.904 552.941,-133.225"/>
<text text-anchor="middle" x="602" y="-183" font-family="Helvetica,sans-Serif" font-size="10.00"> VS</text>
</g>
<!-- Node13&#45;&gt;Node13 -->
<g id="edge13" class="edge"><title>Node13&#45;&gt;Node13</title>
<path fill="none" stroke="#9a32cd" stroke-dasharray="5,2" d="M481.853,-143.4C483.065,-148.315 489.114,-152 500,-152 517.418,-152 522.453,-142.565 515.105,-133.757"/>
<polygon fill="#9a32cd" stroke="#9a32cd" points="485.224,-144.347 484.895,-133.757 478.548,-142.24 485.224,-144.347"/>
<text text-anchor="middle" x="500" y="-155" font-family="Helvetica,sans-Serif" font-size="10.00"> GlobalList</text>
</g>
<!-- Node14 -->
<g id="node14" class="node"><title>Node14</title>
<g id="a_node14"><a xlink:href="structpkgCache_1_1Version.xhtml" target="_top" xlink:title="information for a single version of a package ">
<polygon fill="white" stroke="black" points="475,-76.5 475,-95.5 525,-95.5 525,-76.5 475,-76.5"/>
<text text-anchor="middle" x="500" y="-83.5" font-family="Helvetica,sans-Serif" font-size="10.00">Version</text>
</a>
</g>
</g>
<!-- Node14&#45;&gt;Node1 -->
<g id="edge14" class="edge"><title>Node14&#45;&gt;Node1</title>
<path fill="none" stroke="#9a32cd" stroke-dasharray="5,2" d="M535.274,-89.4025C564.281,-94.0583 605.014,-105.057 630,-131 670.647,-173.204 676.93,-249.151 677.857,-276.147"/>
<polygon fill="#9a32cd" stroke="#9a32cd" points="535.563,-85.9083 525.168,-87.9583 534.573,-92.8379 535.563,-85.9083"/>
<text text-anchor="middle" x="602" y="-134" font-family="Helvetica,sans-Serif" font-size="10.00"> VerP</text>
</g>
<!-- Node15 -->
<g id="node15" class="node"><title>Node15</title>
<g id="a_node15"><a xlink:href="structpkgCache_1_1VerFile.xhtml" target="_top" xlink:title="associates a version with a PackageFile ">
<polygon fill="white" stroke="black" points="476.5,-38.5 476.5,-57.5 523.5,-57.5 523.5,-38.5 476.5,-38.5"/>
<text text-anchor="middle" x="500" y="-45.5" font-family="Helvetica,sans-Serif" font-size="10.00">VerFile</text>
</a>
</g>
</g>
<!-- Node15&#45;&gt;Node1 -->
<g id="edge15" class="edge"><title>Node15&#45;&gt;Node1</title>
<path fill="none" stroke="#9a32cd" stroke-dasharray="5,2" d="M533.759,-48.5456C563.035,-50.8426 605.049,-58.9025 630,-85 657.148,-113.396 672.975,-240.305 676.983,-276.397"/>
<polygon fill="#9a32cd" stroke="#9a32cd" points="533.796,-45.0416 523.604,-47.9374 533.377,-52.0291 533.796,-45.0416"/>
<text text-anchor="middle" x="602" y="-88" font-family="Helvetica,sans-Serif" font-size="10.00"> VerFileP</text>
</g>
<!-- Node16 -->
<g id="node16" class="node"><title>Node16</title>
<g id="a_node16"><a xlink:href="structpkgCache_1_1Package.xhtml" target="_top" xlink:title="contains information for a single unique package ">
<polygon fill="white" stroke="black" points="472.5,-0.5 472.5,-19.5 527.5,-19.5 527.5,-0.5 472.5,-0.5"/>
<text text-anchor="middle" x="500" y="-7.5" font-family="Helvetica,sans-Serif" font-size="10.00">Package</text>
</a>
</g>
</g>
<!-- Node16&#45;&gt;Node1 -->
<g id="edge16" class="edge"><title>Node16&#45;&gt;Node1</title>
<path fill="none" stroke="#9a32cd" stroke-dasharray="5,2" d="M537.741,-8.75005C566.827,-9.84875 606.365,-16.3418 630,-41 663.366,-75.811 674.992,-235.185 677.463,-276.3"/>
<polygon fill="#9a32cd" stroke="#9a32cd" points="537.608,-5.24717 527.546,-8.56568 537.481,-12.246 537.608,-5.24717"/>
<text text-anchor="middle" x="602" y="-44" font-family="Helvetica,sans-Serif" font-size="10.00"> PkgP</text>
</g>
<!-- Node17 -->
<g id="node17" class="node"><title>Node17</title>
<g id="a_node17"><a xlink:href="classMMap.xhtml" target="_top" xlink:title="MMap">
<polygon fill="white" stroke="black" points="478,-219.5 478,-238.5 522,-238.5 522,-219.5 478,-219.5"/>
<text text-anchor="middle" x="500" y="-226.5" font-family="Helvetica,sans-Serif" font-size="10.00">MMap</text>
</a>
</g>
</g>
<!-- Node17&#45;&gt;Node1 -->
<g id="edge17" class="edge"><title>Node17&#45;&gt;Node1</title>
<path fill="none" stroke="#9a32cd" stroke-dasharray="5,2" d="M532.196,-226.765C559.235,-226.055 598.808,-228.026 630,-242 647.126,-249.672 662.224,-265.895 670.724,-276.354"/>
<polygon fill="#9a32cd" stroke="#9a32cd" points="531.992,-223.27 522.14,-227.168 532.272,-230.265 531.992,-223.27"/>
<text text-anchor="middle" x="602" y="-245" font-family="Helvetica,sans-Serif" font-size="10.00"> Map</text>
</g>
<!-- Node18&#45;&gt;Node17 -->
<g id="edge18" class="edge"><title>Node18&#45;&gt;Node17</title>
<path fill="none" stroke="#9a32cd" stroke-dasharray="5,2" d="M368.403,-229C400.64,-229 449.92,-229 477.816,-229"/>
<polygon fill="#9a32cd" stroke="#9a32cd" points="368.179,-225.5 358.179,-229 368.179,-232.5 368.179,-225.5"/>
<text text-anchor="middle" x="401" y="-232" font-family="Helvetica,sans-Serif" font-size="10.00"> SyncToFd</text>
</g>
</g>
</svg>
        <g id="navigator" transform="translate(0 0)" fill="#404254">
                <rect fill="#f2f5e9" fill-opacity="0.5" stroke="#606060" stroke-width=".5" x="0" y="0" width="60" height="60"/>
                <use id="zoomplus" xlink:href="#zoomPlus" x="17" y="9" onmousedown="handleZoom(evt,'in')"/>
                <use id="zoomminus" xlink:href="#zoomMin" x="42" y="9" onmousedown="handleZoom(evt,'out')"/>
                <use id="reset" xlink:href="#resetDef" x="30" y="36" onmousedown="handleReset()"/>
                <g id="arrowUp" xlink:href="#dirArrow" transform="translate(30 24)" onmousedown="handlePan(0,-1)">
                  <use xlink:href="#rim" fill="#404040">
                        <set attributeName="fill" to="#808080" begin="arrowUp.mouseover" end="arrowUp.mouseout"/>
                  </use>
                  <path fill="none" stroke="white" stroke-width="1.5" d="M0,-3.0v7 M-2.5,-0.5L0,-3.0L2.5,-0.5"/>
                </g>
                <g id="arrowRight" xlink:href="#dirArrow" transform="rotate(90) translate(36 -43)" onmousedown="handlePan(1,0)">
                  <use xlink:href="#rim" fill="#404040">
                        <set attributeName="fill" to="#808080" begin="arrowRight.mouseover" end="arrowRight.mouseout"/>
                  </use>
                  <path fill="none" stroke="white" stroke-width="1.5" d="M0,-3.0v7 M-2.5,-0.5L0,-3.0L2.5,-0.5"/>
                </g>
                <g id="arrowDown" xlink:href="#dirArrow" transform="rotate(180) translate(-30 -48)" onmousedown="handlePan(0,1)">
                  <use xlink:href="#rim" fill="#404040">
                        <set attributeName="fill" to="#808080" begin="arrowDown.mouseover" end="arrowDown.mouseout"/>
                  </use>
                  <path fill="none" stroke="white" stroke-width="1.5" d="M0,-3.0v7 M-2.5,-0.5L0,-3.0L2.5,-0.5"/>
                </g>
                <g id="arrowLeft" xlink:href="#dirArrow" transform="rotate(270) translate(-36 17)" onmousedown="handlePan(-1,0)">
                  <use xlink:href="#rim" fill="#404040">
                        <set attributeName="fill" to="#808080" begin="arrowLeft.mouseover" end="arrowLeft.mouseout"/>
                  </use>
                  <path fill="none" stroke="white" stroke-width="1.5" d="M0,-3.0v7 M-2.5,-0.5L0,-3.0L2.5,-0.5"/>
                </g>
        </g>
        <svg viewBox="0 0 15 15" width="100%" height="30px" preserveAspectRatio="xMaxYMin meet">
         <g id="arrow_out" transform="scale(0.3 0.3)">
          <a xlink:href="classpkgCache__coll__graph_org.svg" target="_base">
           <rect id="button" ry="5" rx="5" y="6" x="6" height="38" width="38"
                fill="#f2f5e9" fill-opacity="0.5" stroke="#606060" stroke-width="1.0"/>
           <path id="arrow"
             d="M 11.500037,31.436501 C 11.940474,20.09759 22.043105,11.32322 32.158766,21.979434 L 37.068811,17.246167 C 37.068811,17.246167 37.088388,32 37.088388,32 L 22.160133,31.978069 C 22.160133,31.978069 26.997745,27.140456 26.997745,27.140456 C 18.528582,18.264221 13.291696,25.230495 11.500037,31.436501 z"
             style="fill:#404040;"/>
          </a>
         </g>
        </svg>
</svg>
