<?xml version="1.0" encoding="UTF-8" standalone="no"?>
<!DOCTYPE svg PUBLIC "-//W3C//DTD SVG 1.1//EN"
 "http://www.w3.org/Graphics/SVG/1.1/DTD/svg11.dtd">
<!-- Generated by graphviz version 2.36.0 (20140111.2315)
 -->
<!-- Title: VersionContainer&lt; Container &gt;::const_iterator Pages: 1 -->
<svg width="221pt" height="118pt"
 viewBox="0.00 0.00 221.00 118.00" xmlns="http://www.w3.org/2000/svg" xmlns:xlink="http://www.w3.org/1999/xlink">
<g id="graph0" class="graph" transform="scale(1 1) rotate(0) translate(4 114)">
<title>VersionContainer&lt; Container &gt;::const_iterator</title>
<polygon fill="white" stroke="none" points="-4,4 -4,-114 217,-114 217,4 -4,4"/>
<!-- Node1 -->
<g id="node1" class="node"><title>Node1</title>
<polygon fill="#bfbfbf" stroke="black" points="24.5,-1 24.5,-31 167.5,-31 167.5,-1 24.5,-1"/>
<text text-anchor="start" x="32.5" y="-19" font-family="Helvetica,sans-Serif" font-size="10.00">VersionContainer&lt; Container</text>
<text text-anchor="middle" x="96" y="-8" font-family="Helvetica,sans-Serif" font-size="10.00"> &gt;::const_iterator</text>
</g>
<!-- Node2 -->
<g id="node2" class="node"><title>Node2</title>
<g id="a_node2"><a xlink:href="classAPT_1_1VersionContainerInterface_1_1const__iterator.xhtml" target="_top" xlink:title="smell like a pkgCache::VerIterator ">
<polygon fill="white" stroke="black" points="0,-79.5 0,-98.5 76,-98.5 76,-79.5 0,-79.5"/>
<text text-anchor="middle" x="38" y="-86.5" font-family="Helvetica,sans-Serif" font-size="10.00">const_iterator</text>
</a>
</g>
</g>
<!-- Node2&#45;&gt;Node1 -->
<g id="edge1" class="edge"><title>Node2&#45;&gt;Node1</title>
<path fill="none" stroke="midnightblue" d="M51.6627,-71.275C61.6255,-59.0791 74.979,-42.7326 84.4196,-31.176"/>
<polygon fill="midnightblue" stroke="midnightblue" points="48.7279,-69.3353 45.1119,-79.294 54.149,-73.7638 48.7279,-69.3353"/>
</g>
<!-- Node3 -->
<g id="node3" class="node"><title>Node3</title>
<polygon fill="white" stroke="#bfbfbf" points="94.5,-68.5 94.5,-109.5 213.5,-109.5 213.5,-68.5 94.5,-68.5"/>
<text text-anchor="start" x="102.5" y="-97.5" font-family="Helvetica,sans-Serif" font-size="10.00">iterator&lt; std::forward</text>
<text text-anchor="start" x="102.5" y="-86.5" font-family="Helvetica,sans-Serif" font-size="10.00">_iterator_tag, Container</text>
<text text-anchor="middle" x="154" y="-75.5" font-family="Helvetica,sans-Serif" font-size="10.00">::const_iterator &gt;</text>
</g>
<!-- Node3&#45;&gt;Node1 -->
<g id="edge2" class="edge"><title>Node3&#45;&gt;Node1</title>
<path fill="none" stroke="midnightblue" d="M131.471,-60.4215C123.263,-50.3737 114.326,-39.4338 107.476,-31.0485"/>
<polygon fill="midnightblue" stroke="midnightblue" points="128.807,-62.6924 137.844,-68.2225 134.228,-58.2638 128.807,-62.6924"/>
</g>
</g>
</svg>
