<?xml version="1.0" encoding="UTF-8" standalone="no"?>
<!DOCTYPE svg PUBLIC "-//W3C//DTD SVG 1.1//EN"
 "http://www.w3.org/Graphics/SVG/1.1/DTD/svg11.dtd">
<!-- Generated by graphviz version 2.36.0 (20140111.2315)
 -->
<!-- Title: pkgAcqDiffIndex Pages: 1 -->
<!--zoomable 578 -->
<svg id="main" version="1.1" xmlns="http://www.w3.org/2000/svg" xmlns:xlink="http://www.w3.org/1999/xlink" xml:space="preserve" onload="init(evt)">
<style type="text/css"><![CDATA[
.edge:hover path { stroke: red; }
.edge:hover polygon { stroke: red; fill: red; }
]]></style>
<script type="text/javascript"><![CDATA[
var edges = document.getElementsByTagName('g');
if (edges && edges.length) {
  for (var i=0;i<edges.length;i++) {
    if (edges[i].id.substr(0,4)=='edge') {
      edges[i].setAttribute('class','edge');
    }
  }
}
]]></script>
        <defs>
                <circle id="rim" cx="0" cy="0" r="7"/>
                <circle id="rim2" cx="0" cy="0" r="3.5"/>
                <g id="zoomPlus">
                        <use xlink:href="#rim" fill="#404040">
                                <set attributeName="fill" to="#808080" begin="zoomplus.mouseover" end="zoomplus.mouseout"/>
                        </use>
                        <path d="M-4,0h8M0,-4v8" fill="none" stroke="white" stroke-width="1.5" pointer-events="none"/>
                </g>
                <g id="zoomMin">
                        <use xlink:href="#rim" fill="#404040">
                                <set attributeName="fill" to="#808080" begin="zoomminus.mouseover" end="zoomminus.mouseout"/>
                        </use>
                        <path d="M-4,0h8" fill="none" stroke="white" stroke-width="1.5" pointer-events="none"/>
                </g>
                <g id="dirArrow">
                        <path fill="none" stroke="white" stroke-width="1.5" d="M0,-3.0v7 M-2.5,-0.5L0,-3.0L2.5,-0.5"/>
                </g>
               <g id="resetDef">
                       <use xlink:href="#rim2" fill="#404040">
                               <set attributeName="fill" to="#808080" begin="reset.mouseover" end="reset.mouseout"/>
                       </use>
               </g>
        </defs>

<script type="text/javascript">
var viewWidth = 796;
var viewHeight = 578;
var sectionId = 'dynsection-1';
</script>
<script xlink:href="svgpan.js"/>
<svg id="graph" class="graph">
<g id="viewport">
<title>pkgAcqDiffIndex</title>
<polygon fill="white" stroke="none" points="-4,4 -4,-574 792.351,-574 792.351,4 -4,4"/>
<!-- Node1 -->
<g id="node1" class="node"><title>Node1</title>
<polygon fill="#bfbfbf" stroke="black" points="295.851,-206.5 295.851,-225.5 384.851,-225.5 384.851,-206.5 295.851,-206.5"/>
<text text-anchor="middle" x="340.351" y="-213.5" font-family="Helvetica,sans-Serif" font-size="10.00">pkgAcqDiffIndex</text>
</g>
<!-- Node2 -->
<g id="node2" class="node"><title>Node2</title>
<g id="a_node2"><a xlink:href="classpkgAcquire_1_1Item.xhtml" target="_top" xlink:title="Represents the process by which a pkgAcquire object should {{{ retrieve a file or a collection of fil...">
<polygon fill="white" stroke="black" points="202.351,-395.5 202.351,-414.5 238.351,-414.5 238.351,-395.5 202.351,-395.5"/>
<text text-anchor="middle" x="220.351" y="-402.5" font-family="Helvetica,sans-Serif" font-size="10.00">Item</text>
</a>
</g>
</g>
<!-- Node2&#45;&gt;Node1 -->
<g id="edge1" class="edge"><title>Node2&#45;&gt;Node1</title>
<path fill="none" stroke="midnightblue" d="M238.728,-388.581C244.527,-383.114 250.642,-376.657 255.351,-370 290.952,-319.67 278.116,-294.586 313.351,-244 318.125,-237.146 324.74,-230.498 330.228,-225.514"/>
<polygon fill="midnightblue" stroke="midnightblue" points="236.289,-386.067 231.179,-395.348 240.961,-391.28 236.289,-386.067"/>
</g>
<!-- Node7 -->
<g id="node7" class="node"><title>Node7</title>
<g id="a_node7"><a xlink:href="structpkgAcquire_1_1ItemDesc.xhtml" target="_top" xlink:title="Represents a single download source from which an item should be downloaded. ">
<polygon fill="white" stroke="black" points="190.851,-297.5 190.851,-316.5 249.851,-316.5 249.851,-297.5 190.851,-297.5"/>
<text text-anchor="middle" x="220.351" y="-304.5" font-family="Helvetica,sans-Serif" font-size="10.00">ItemDesc</text>
</a>
</g>
</g>
<!-- Node2&#45;&gt;Node7 -->
<g id="edge11" class="edge"><title>Node2&#45;&gt;Node7</title>
<path fill="none" stroke="#9a32cd" stroke-dasharray="5,2" d="M220.351,-385.373C220.351,-364.65 220.351,-332.059 220.351,-316.638"/>
<polygon fill="#9a32cd" stroke="#9a32cd" points="216.851,-385.481 220.351,-395.481 223.851,-385.481 216.851,-385.481"/>
<text text-anchor="middle" x="236.351" y="-350.5" font-family="Helvetica,sans-Serif" font-size="10.00"> Owner</text>
</g>
<!-- Node14 -->
<g id="node14" class="node"><title>Node14</title>
<polygon fill="white" stroke="#bfbfbf" points="45.8511,-246 45.8511,-276 146.851,-276 146.851,-246 45.8511,-246"/>
<text text-anchor="start" x="53.8511" y="-264" font-family="Helvetica,sans-Serif" font-size="10.00">vector&lt; pkgAcquire</text>
<text text-anchor="middle" x="96.3511" y="-253" font-family="Helvetica,sans-Serif" font-size="10.00">::Item * &gt;</text>
</g>
<!-- Node2&#45;&gt;Node14 -->
<g id="edge30" class="edge"><title>Node2&#45;&gt;Node14</title>
<path fill="none" stroke="#9a32cd" stroke-dasharray="5,2" d="M191.929,-404.089C165.157,-402.501 126.145,-395.544 105.351,-370 83.3768,-343.005 88.4621,-298.625 92.9732,-276.085"/>
<polygon fill="#9a32cd" stroke="#9a32cd" points="192.094,-407.597 202.218,-404.474 192.356,-400.602 192.094,-407.597"/>
<text text-anchor="middle" x="126.851" y="-350.5" font-family="Helvetica,sans-Serif" font-size="10.00"> elements</text>
</g>
<!-- Node3 -->
<g id="node3" class="node"><title>Node3</title>
<g id="a_node3"><a xlink:href="classWeakPointable.xhtml" target="_top" xlink:title="WeakPointable">
<polygon fill="white" stroke="black" points="132.851,-492.5 132.851,-511.5 215.851,-511.5 215.851,-492.5 132.851,-492.5"/>
<text text-anchor="middle" x="174.351" y="-499.5" font-family="Helvetica,sans-Serif" font-size="10.00">WeakPointable</text>
</a>
</g>
</g>
<!-- Node3&#45;&gt;Node2 -->
<g id="edge2" class="edge"><title>Node3&#45;&gt;Node2</title>
<path fill="none" stroke="midnightblue" d="M183.032,-483.071C192.906,-462.679 208.627,-430.213 216.116,-414.746"/>
<polygon fill="midnightblue" stroke="midnightblue" points="179.804,-481.707 178.596,-492.233 186.105,-484.758 179.804,-481.707"/>
</g>
<!-- Node3&#45;&gt;Node7 -->
<g id="edge8" class="edge"><title>Node3&#45;&gt;Node7</title>
<path fill="none" stroke="midnightblue" d="M176.582,-482.201C179.474,-459.621 185.14,-420.696 193.351,-388 199.992,-361.556 211.236,-331.307 216.888,-316.742"/>
<polygon fill="midnightblue" stroke="midnightblue" points="173.075,-482.046 175.323,-492.399 180.022,-482.903 173.075,-482.046"/>
</g>
<!-- Node10 -->
<g id="node10" class="node"><title>Node10</title>
<g id="a_node10"><a xlink:href="classpkgAcquire_1_1Worker.xhtml" target="_top" xlink:title="A fetch subprocess. ">
<polygon fill="white" stroke="black" points="400.351,-69.5 400.351,-88.5 448.351,-88.5 448.351,-69.5 400.351,-69.5"/>
<text text-anchor="middle" x="424.351" y="-76.5" font-family="Helvetica,sans-Serif" font-size="10.00">Worker</text>
</a>
</g>
</g>
<!-- Node3&#45;&gt;Node10 -->
<g id="edge14" class="edge"><title>Node3&#45;&gt;Node10</title>
<path fill="none" stroke="midnightblue" d="M123.728,-489.661C82.2449,-477.029 30.3511,-452.028 30.3511,-406 30.3511,-406 30.3511,-406 30.3511,-260 30.3511,-230.576 -116.128,-242.493 236.351,-108 302.797,-82.6469 325.985,-105.686 395.351,-90 397.221,-89.5771 399.139,-89.0754 401.053,-88.5254"/>
<polygon fill="midnightblue" stroke="midnightblue" points="122.894,-493.063 133.472,-492.466 124.83,-486.336 122.894,-493.063"/>
</g>
<!-- Node4 -->
<g id="node4" class="node"><title>Node4</title>
<g id="a_node4"><a xlink:href="classpkgAcquire.xhtml" target="_top" xlink:title="The core download scheduler. {{{. ">
<polygon fill="white" stroke="black" points="391.851,-0.5 391.851,-19.5 456.851,-19.5 456.851,-0.5 391.851,-0.5"/>
<text text-anchor="middle" x="424.351" y="-7.5" font-family="Helvetica,sans-Serif" font-size="10.00">pkgAcquire</text>
</a>
</g>
</g>
<!-- Node4&#45;&gt;Node2 -->
<g id="edge3" class="edge"><title>Node4&#45;&gt;Node2</title>
<path fill="none" stroke="#9a32cd" stroke-dasharray="5,2" d="M381.718,-13.1283C307.49,-18.009 162.351,-33.2713 162.351,-78 162.351,-308 162.351,-308 162.351,-308 162.351,-344.803 193.965,-379.59 210.512,-395.277"/>
<polygon fill="#9a32cd" stroke="#9a32cd" points="381.935,-16.6216 391.698,-12.5065 381.5,-9.63516 381.935,-16.6216"/>
<text text-anchor="middle" x="178.351" y="-179.5" font-family="Helvetica,sans-Serif" font-size="10.00"> Owner</text>
</g>
<!-- Node5 -->
<g id="node5" class="node"><title>Node5</title>
<g id="a_node5"><a xlink:href="classpkgAcquire_1_1Queue.xhtml" target="_top" xlink:title="A single download queue in a pkgAcquire object. {{{. ">
<polygon fill="white" stroke="black" points="516.851,-138.5 516.851,-157.5 561.851,-157.5 561.851,-138.5 516.851,-138.5"/>
<text text-anchor="middle" x="539.351" y="-145.5" font-family="Helvetica,sans-Serif" font-size="10.00">Queue</text>
</a>
</g>
</g>
<!-- Node4&#45;&gt;Node5 -->
<g id="edge5" class="edge"><title>Node4&#45;&gt;Node5</title>
<path fill="none" stroke="#9a32cd" stroke-dasharray="5,2" d="M467.504,-13.3858C525.242,-19.2333 625.135,-39.3072 666.351,-108 669.095,-112.573 669.707,-115.855 666.351,-120 653.478,-135.898 595.021,-142.825 562.087,-145.51"/>
<polygon fill="#9a32cd" stroke="#9a32cd" points="467.513,-9.87221 457.237,-12.4509 466.879,-16.8434 467.513,-9.87221"/>
<text text-anchor="middle" x="668.351" y="-76.5" font-family="Helvetica,sans-Serif" font-size="10.00"> Owner</text>
</g>
<!-- Node5&#45;&gt;Node4 -->
<g id="edge4" class="edge"><title>Node5&#45;&gt;Node4</title>
<path fill="none" stroke="#9a32cd" stroke-dasharray="5,2" d="M553.197,-130.02C557.05,-123.319 559.631,-115.452 557.351,-108 551.077,-87.4895 546.259,-82.3866 530.351,-68 505.555,-45.5759 470.348,-28.9163 447.429,-19.575"/>
<polygon fill="#9a32cd" stroke="#9a32cd" points="550.291,-128.068 547.491,-138.287 556.052,-132.045 550.291,-128.068"/>
<text text-anchor="middle" x="568.851" y="-76.5" font-family="Helvetica,sans-Serif" font-size="10.00"> Queues</text>
</g>
<!-- Node5&#45;&gt;Node10 -->
<g id="edge15" class="edge"><title>Node5&#45;&gt;Node10</title>
<path fill="none" stroke="#9a32cd" stroke-dasharray="5,2" d="M506.8,-140.469C491.227,-136.305 472.861,-129.8 458.351,-120 445.964,-111.634 435.495,-97.5709 429.569,-88.5436"/>
<polygon fill="#9a32cd" stroke="#9a32cd" points="506.015,-143.88 516.563,-142.878 507.693,-137.084 506.015,-143.88"/>
<text text-anchor="middle" x="478.351" y="-111.5" font-family="Helvetica,sans-Serif" font-size="10.00"> OwnerQ</text>
</g>
<!-- Node6 -->
<g id="node6" class="node"><title>Node6</title>
<g id="a_node6"><a xlink:href="structpkgAcquire_1_1Queue_1_1QItem.xhtml" target="_top" xlink:title="A single item placed in this queue. ">
<polygon fill="white" stroke="black" points="190.351,-206.5 190.351,-225.5 234.351,-225.5 234.351,-206.5 190.351,-206.5"/>
<text text-anchor="middle" x="212.351" y="-213.5" font-family="Helvetica,sans-Serif" font-size="10.00">QItem</text>
</a>
</g>
</g>
<!-- Node6&#45;&gt;Node5 -->
<g id="edge6" class="edge"><title>Node6&#45;&gt;Node5</title>
<path fill="none" stroke="#9a32cd" stroke-dasharray="5,2" d="M244.431,-210.881C296.108,-204.204 393.61,-191.418 409.351,-188 447.575,-179.7 490.889,-165.765 516.619,-156.994"/>
<polygon fill="#9a32cd" stroke="#9a32cd" points="243.914,-207.418 234.444,-212.169 244.81,-214.361 243.914,-207.418"/>
<text text-anchor="middle" x="467.351" y="-179.5" font-family="Helvetica,sans-Serif" font-size="10.00"> Items</text>
</g>
<!-- Node6&#45;&gt;Node6 -->
<g id="edge12" class="edge"><title>Node6&#45;&gt;Node6</title>
<path fill="none" stroke="#9a32cd" stroke-dasharray="5,2" d="M244.462,-221.591C248.61,-220.624 251.351,-218.76 251.351,-216 251.351,-211.352 243.575,-209.245 234.402,-209.681"/>
<polygon fill="#9a32cd" stroke="#9a32cd" points="244.124,-218.107 234.402,-222.319 244.629,-225.088 244.124,-218.107"/>
<text text-anchor="middle" x="263.851" y="-213.5" font-family="Helvetica,sans-Serif" font-size="10.00"> Next</text>
</g>
<!-- Node6&#45;&gt;Node10 -->
<g id="edge19" class="edge"><title>Node6&#45;&gt;Node10</title>
<path fill="none" stroke="#9a32cd" stroke-dasharray="5,2" d="M244.692,-209.069C278.281,-201.645 331.045,-186.314 368.351,-158 393.846,-138.65 412.599,-104.45 420.381,-88.5593"/>
<polygon fill="#9a32cd" stroke="#9a32cd" points="243.571,-205.728 234.503,-211.208 245.009,-212.579 243.571,-205.728"/>
<text text-anchor="middle" x="415.851" y="-145.5" font-family="Helvetica,sans-Serif" font-size="10.00"> CurrentItem</text>
</g>
<!-- Node7&#45;&gt;Node1 -->
<g id="edge36" class="edge"><title>Node7&#45;&gt;Node1</title>
<path fill="none" stroke="#9a32cd" stroke-dasharray="5,2" d="M220.71,-287.2C221.986,-273.442 225.943,-255.281 237.351,-244 245.83,-235.616 271.917,-228.826 295.715,-224.152"/>
<polygon fill="#9a32cd" stroke="#9a32cd" points="217.2,-287.301 220.164,-297.472 224.19,-287.672 217.2,-287.301"/>
<text text-anchor="middle" x="250.851" y="-258.5" font-family="Helvetica,sans-Serif" font-size="10.00"> Desc</text>
</g>
<!-- Node7&#45;&gt;Node6 -->
<g id="edge7" class="edge"><title>Node7&#45;&gt;Node6</title>
<path fill="none" stroke="midnightblue" d="M218.251,-287.001C217.937,-283.991 217.626,-280.911 217.351,-278 215.591,-259.382 213.888,-237.531 212.995,-225.693"/>
<polygon fill="midnightblue" stroke="midnightblue" points="214.796,-287.611 219.349,-297.178 221.756,-286.86 214.796,-287.611"/>
</g>
<!-- Node8 -->
<g id="node8" class="node"><title>Node8</title>
<g id="a_node8"><a xlink:title="STL class. ">
<polygon fill="white" stroke="#bfbfbf" points="462.851,-492.5 462.851,-511.5 503.851,-511.5 503.851,-492.5 462.851,-492.5"/>
<text text-anchor="middle" x="483.351" y="-499.5" font-family="Helvetica,sans-Serif" font-size="10.00">string</text>
</a>
</g>
</g>
<!-- Node8&#45;&gt;Node1 -->
<g id="edge33" class="edge"><title>Node8&#45;&gt;Node1</title>
<path fill="none" stroke="#9a32cd" stroke-dasharray="5,2" d="M466.811,-485.153C436.223,-455.926 372.876,-395.796 361.351,-388 345.872,-377.529 333.344,-385.791 323.351,-370 293.481,-322.8 323.714,-250.691 335.822,-225.805"/>
<polygon fill="#9a32cd" stroke="#9a32cd" points="464.52,-487.805 474.166,-492.188 469.359,-482.747 464.52,-487.805"/>
<text text-anchor="middle" x="369.351" y="-361.5" font-family="Helvetica,sans-Serif" font-size="10.00"> Description</text>
<text text-anchor="middle" x="369.351" y="-350.5" font-family="Helvetica,sans-Serif" font-size="10.00">RealURI</text>
<text text-anchor="middle" x="369.351" y="-339.5" font-family="Helvetica,sans-Serif" font-size="10.00">CurrentPackagesFile</text>
</g>
<!-- Node8&#45;&gt;Node2 -->
<g id="edge32" class="edge"><title>Node8&#45;&gt;Node2</title>
<path fill="none" stroke="#9a32cd" stroke-dasharray="5,2" d="M452.248,-499.685C388.821,-496.714 249.167,-488.58 233.351,-474 216.737,-458.685 217.514,-429.191 219.099,-414.603"/>
<polygon fill="#9a32cd" stroke="#9a32cd" points="452.304,-503.191 462.452,-500.149 452.622,-496.198 452.304,-503.191"/>
<text text-anchor="middle" x="257.851" y="-465.5" font-family="Helvetica,sans-Serif" font-size="10.00"> DestFile</text>
<text text-anchor="middle" x="257.851" y="-454.5" font-family="Helvetica,sans-Serif" font-size="10.00">ErrorText</text>
<text text-anchor="middle" x="257.851" y="-443.5" font-family="Helvetica,sans-Serif" font-size="10.00">UsedMirror</text>
</g>
<!-- Node8&#45;&gt;Node5 -->
<g id="edge25" class="edge"><title>Node8&#45;&gt;Node5</title>
<path fill="none" stroke="#9a32cd" stroke-dasharray="5,2" d="M514.066,-500.298C536.841,-498.211 567.29,-491.911 587.351,-474 624.294,-441.018 618.31,-418.691 627.351,-370 643.485,-283.108 571.151,-187.056 546.983,-157.877"/>
<polygon fill="#9a32cd" stroke="#9a32cd" points="513.629,-496.82 503.895,-501.002 514.113,-503.803 513.629,-496.82"/>
<text text-anchor="middle" x="641.351" y="-304.5" font-family="Helvetica,sans-Serif" font-size="10.00"> Name</text>
</g>
<!-- Node8&#45;&gt;Node7 -->
<g id="edge9" class="edge"><title>Node8&#45;&gt;Node7</title>
<path fill="none" stroke="#9a32cd" stroke-dasharray="5,2" d="M452.443,-498.902C426.741,-496.081 389.885,-489.471 361.351,-474 293.601,-437.265 307.561,-393.594 256.351,-336 249.722,-328.544 240.897,-321.645 233.644,-316.56"/>
<polygon fill="#9a32cd" stroke="#9a32cd" points="452.428,-502.417 462.718,-499.895 453.101,-495.45 452.428,-502.417"/>
<text text-anchor="middle" x="334.851" y="-413.5" font-family="Helvetica,sans-Serif" font-size="10.00"> Description</text>
<text text-anchor="middle" x="334.851" y="-402.5" font-family="Helvetica,sans-Serif" font-size="10.00">URI</text>
<text text-anchor="middle" x="334.851" y="-391.5" font-family="Helvetica,sans-Serif" font-size="10.00">ShortDesc</text>
</g>
<!-- Node8&#45;&gt;Node10 -->
<g id="edge20" class="edge"><title>Node8&#45;&gt;Node10</title>
<path fill="none" stroke="#9a32cd" stroke-dasharray="5,2" d="M489.575,-482.566C490.311,-479.727 490.944,-476.806 491.351,-474 500.154,-413.302 493.646,-397.29 491.351,-336 487.978,-245.916 475.341,-223.691 447.351,-138 441.499,-120.083 432.977,-99.7276 428.117,-88.5254"/>
<polygon fill="#9a32cd" stroke="#9a32cd" points="486.223,-481.56 486.677,-492.145 492.923,-483.586 486.223,-481.56"/>
<text text-anchor="middle" x="511.351" y="-269.5" font-family="Helvetica,sans-Serif" font-size="10.00"> OutQueue</text>
<text text-anchor="middle" x="511.351" y="-258.5" font-family="Helvetica,sans-Serif" font-size="10.00">Access</text>
<text text-anchor="middle" x="511.351" y="-247.5" font-family="Helvetica,sans-Serif" font-size="10.00">Status</text>
</g>
<!-- Node11 -->
<g id="node11" class="node"><title>Node11</title>
<g id="a_node11"><a xlink:href="structpkgAcquire_1_1MethodConfig.xhtml" target="_top" xlink:title="Information about the properties of a single acquire method. {{{. ">
<polygon fill="white" stroke="black" points="668.851,-138.5 668.851,-157.5 745.851,-157.5 745.851,-138.5 668.851,-138.5"/>
<text text-anchor="middle" x="707.351" y="-145.5" font-family="Helvetica,sans-Serif" font-size="10.00">MethodConfig</text>
</a>
</g>
</g>
<!-- Node8&#45;&gt;Node11 -->
<g id="edge18" class="edge"><title>Node8&#45;&gt;Node11</title>
<path fill="none" stroke="#9a32cd" stroke-dasharray="5,2" d="M514.292,-501.438C575.753,-500.523 707.351,-488.886 707.351,-406 707.351,-406 707.351,-406 707.351,-215 707.351,-194.375 707.351,-170.125 707.351,-157.544"/>
<polygon fill="#9a32cd" stroke="#9a32cd" points="514.002,-497.939 504.023,-501.5 514.044,-504.939 514.002,-497.939"/>
<text text-anchor="middle" x="725.851" y="-310" font-family="Helvetica,sans-Serif" font-size="10.00"> Access</text>
<text text-anchor="middle" x="725.851" y="-299" font-family="Helvetica,sans-Serif" font-size="10.00">Version</text>
</g>
<!-- Node13 -->
<g id="node13" class="node"><title>Node13</title>
<polygon fill="white" stroke="#bfbfbf" points="520.851,-343.5 520.851,-362.5 625.851,-362.5 625.851,-343.5 520.851,-343.5"/>
<text text-anchor="middle" x="573.351" y="-350.5" font-family="Helvetica,sans-Serif" font-size="10.00">vector&lt; std::string &gt;</text>
</g>
<!-- Node8&#45;&gt;Node13 -->
<g id="edge23" class="edge"><title>Node8&#45;&gt;Node13</title>
<path fill="none" stroke="#9a32cd" stroke-dasharray="5,2" d="M506.4,-486.454C511.083,-482.786 515.689,-478.574 519.351,-474 548.334,-437.796 565.307,-383.553 571.093,-362.645"/>
<polygon fill="#9a32cd" stroke="#9a32cd" points="504.157,-483.756 498.076,-492.433 508.24,-489.442 504.157,-483.756"/>
<text text-anchor="middle" x="561.851" y="-454.5" font-family="Helvetica,sans-Serif" font-size="10.00"> elements</text>
</g>
<!-- Node15 -->
<g id="node15" class="node"><title>Node15</title>
<g id="a_node15"><a xlink:href="classHashString.xhtml" target="_top" xlink:title="HashString">
<polygon fill="white" stroke="black" points="424.851,-343.5 424.851,-362.5 489.851,-362.5 489.851,-343.5 424.851,-343.5"/>
<text text-anchor="middle" x="457.351" y="-350.5" font-family="Helvetica,sans-Serif" font-size="10.00">HashString</text>
</a>
</g>
</g>
<!-- Node8&#45;&gt;Node15 -->
<g id="edge35" class="edge"><title>Node8&#45;&gt;Node15</title>
<path fill="none" stroke="#9a32cd" stroke-dasharray="5,2" d="M470.712,-483.603C468.978,-480.527 467.426,-477.262 466.351,-474 453.206,-434.118 455.155,-382.887 456.599,-362.714"/>
<polygon fill="#9a32cd" stroke="#9a32cd" points="467.809,-485.56 476.168,-492.071 473.693,-481.769 467.809,-485.56"/>
<text text-anchor="middle" x="478.851" y="-460" font-family="Helvetica,sans-Serif" font-size="10.00"> Type</text>
<text text-anchor="middle" x="478.851" y="-449" font-family="Helvetica,sans-Serif" font-size="10.00">Hash</text>
</g>
<!-- Node9 -->
<g id="node9" class="node"><title>Node9</title>
<g id="a_node9"><a xlink:title="STL class. ">
<polygon fill="white" stroke="#bfbfbf" points="430.351,-550.5 430.351,-569.5 536.351,-569.5 536.351,-550.5 430.351,-550.5"/>
<text text-anchor="middle" x="483.351" y="-557.5" font-family="Helvetica,sans-Serif" font-size="10.00">basic_string&lt; char &gt;</text>
</a>
</g>
</g>
<!-- Node9&#45;&gt;Node8 -->
<g id="edge10" class="edge"><title>Node9&#45;&gt;Node8</title>
<path fill="none" stroke="midnightblue" d="M483.351,-539.953C483.351,-530.287 483.351,-519.031 483.351,-511.505"/>
<polygon fill="midnightblue" stroke="midnightblue" points="479.851,-540.25 483.351,-550.25 486.851,-540.25 479.851,-540.25"/>
</g>
<!-- Node10&#45;&gt;Node4 -->
<g id="edge31" class="edge"><title>Node10&#45;&gt;Node4</title>
<path fill="none" stroke="#9a32cd" stroke-dasharray="5,2" d="M424.351,-59.0183C424.351,-46.034 424.351,-29.4419 424.351,-19.5494"/>
<polygon fill="#9a32cd" stroke="#9a32cd" points="420.851,-59.2409 424.351,-69.2409 427.851,-59.241 420.851,-59.2409"/>
<text text-anchor="middle" x="444.351" y="-41.5" font-family="Helvetica,sans-Serif" font-size="10.00"> Workers</text>
</g>
<!-- Node10&#45;&gt;Node5 -->
<g id="edge26" class="edge"><title>Node10&#45;&gt;Node5</title>
<path fill="none" stroke="#9a32cd" stroke-dasharray="5,2" d="M458.105,-89.5963C471.221,-94.1223 486.025,-100.254 498.351,-108 511.66,-116.364 524.348,-129.507 531.993,-138.189"/>
<polygon fill="#9a32cd" stroke="#9a32cd" points="459.064,-86.2278 448.472,-86.448 456.89,-92.8815 459.064,-86.2278"/>
<text text-anchor="middle" x="533.351" y="-111.5" font-family="Helvetica,sans-Serif" font-size="10.00"> Workers</text>
</g>
<!-- Node10&#45;&gt;Node6 -->
<g id="edge13" class="edge"><title>Node10&#45;&gt;Node6</title>
<path fill="none" stroke="#9a32cd" stroke-dasharray="5,2" d="M390.475,-91.2278C315.011,-110.912 271.439,-79.6075 221.351,-138 204.614,-157.512 207.842,-190.771 210.56,-206.402"/>
<polygon fill="#9a32cd" stroke="#9a32cd" points="391.682,-94.5232 400.336,-88.4112 389.759,-87.7924 391.682,-94.5232"/>
<text text-anchor="middle" x="238.851" y="-145.5" font-family="Helvetica,sans-Serif" font-size="10.00"> Worker</text>
</g>
<!-- Node10&#45;&gt;Node10 -->
<g id="edge24" class="edge"><title>Node10&#45;&gt;Node10</title>
<path fill="none" stroke="#9a32cd" stroke-dasharray="5,2" d="M458.776,-84.6249C463.33,-83.6671 466.351,-81.7922 466.351,-79 466.351,-74.418 458.215,-72.3059 448.521,-72.6639"/>
<polygon fill="#9a32cd" stroke="#9a32cd" points="458.255,-81.1525 448.521,-85.3361 458.739,-88.1358 458.255,-81.1525"/>
<text text-anchor="middle" x="493.851" y="-82" font-family="Helvetica,sans-Serif" font-size="10.00"> NextQueue</text>
<text text-anchor="middle" x="493.851" y="-71" font-family="Helvetica,sans-Serif" font-size="10.00">NextAcquire</text>
</g>
<!-- Node11&#45;&gt;Node4 -->
<g id="edge27" class="edge"><title>Node11&#45;&gt;Node4</title>
<path fill="none" stroke="#9a32cd" stroke-dasharray="5,2" d="M707.699,-128.23C707.015,-110.579 703.26,-84.4728 688.351,-68 657.674,-34.1037 520.555,-18.774 456.95,-13.393"/>
<polygon fill="#9a32cd" stroke="#9a32cd" points="704.2,-128.453 707.79,-138.421 711.2,-128.39 704.2,-128.453"/>
<text text-anchor="middle" x="718.851" y="-76.5" font-family="Helvetica,sans-Serif" font-size="10.00"> Configs</text>
</g>
<!-- Node11&#45;&gt;Node10 -->
<g id="edge16" class="edge"><title>Node11&#45;&gt;Node10</title>
<path fill="none" stroke="#9a32cd" stroke-dasharray="5,2" d="M680.556,-134.109C661.625,-125.503 635.435,-114.594 611.351,-108 554.202,-92.3521 484.678,-84.8504 448.64,-81.7866"/>
<polygon fill="#9a32cd" stroke="#9a32cd" points="679.2,-137.338 689.745,-138.365 682.142,-130.986 679.2,-137.338"/>
<text text-anchor="middle" x="662.351" y="-111.5" font-family="Helvetica,sans-Serif" font-size="10.00"> Config</text>
</g>
<!-- Node11&#45;&gt;Node11 -->
<g id="edge17" class="edge"><title>Node11&#45;&gt;Node11</title>
<path fill="none" stroke="#9a32cd" stroke-dasharray="5,2" d="M756.223,-153.042C760.602,-151.987 763.351,-150.307 763.351,-148 763.351,-144.215 755.948,-142.115 746.086,-141.701"/>
<polygon fill="#9a32cd" stroke="#9a32cd" points="755.58,-149.595 746.086,-154.299 756.441,-156.542 755.58,-149.595"/>
<text text-anchor="middle" x="775.851" y="-145.5" font-family="Helvetica,sans-Serif" font-size="10.00"> Next</text>
</g>
<!-- Node12 -->
<g id="node12" class="node"><title>Node12</title>
<g id="a_node12"><a xlink:href="classpkgAcquireStatus.xhtml" target="_top" xlink:title="A monitor object for downloads controlled by the pkgAcquire class. {{{. ">
<polygon fill="white" stroke="black" points="265.351,-138.5 265.351,-157.5 359.351,-157.5 359.351,-138.5 265.351,-138.5"/>
<text text-anchor="middle" x="312.351" y="-145.5" font-family="Helvetica,sans-Serif" font-size="10.00">pkgAcquireStatus</text>
</a>
</g>
</g>
<!-- Node12&#45;&gt;Node4 -->
<g id="edge28" class="edge"><title>Node12&#45;&gt;Node4</title>
<path fill="none" stroke="#9a32cd" stroke-dasharray="5,2" d="M325,-129.835C330.056,-123.016 335.949,-115.115 341.351,-108 354.951,-90.0859 357.871,-85.2108 372.351,-68 387.184,-50.37 405.559,-30.6996 416.02,-19.689"/>
<polygon fill="#9a32cd" stroke="#9a32cd" points="321.881,-128.166 318.752,-138.289 327.511,-132.327 321.881,-128.166"/>
<text text-anchor="middle" x="381.851" y="-76.5" font-family="Helvetica,sans-Serif" font-size="10.00"> Log</text>
</g>
<!-- Node12&#45;&gt;Node10 -->
<g id="edge21" class="edge"><title>Node12&#45;&gt;Node10</title>
<path fill="none" stroke="#9a32cd" stroke-dasharray="5,2" d="M329.894,-131.641C339.161,-123.971 350.951,-114.885 362.351,-108 374.887,-100.429 389.826,-93.6229 401.898,-88.6172"/>
<polygon fill="#9a32cd" stroke="#9a32cd" points="327.542,-129.047 322.177,-138.183 332.068,-134.387 327.542,-129.047"/>
<text text-anchor="middle" x="371.851" y="-111.5" font-family="Helvetica,sans-Serif" font-size="10.00"> Log</text>
</g>
<!-- Node13&#45;&gt;Node10 -->
<g id="edge22" class="edge"><title>Node13&#45;&gt;Node10</title>
<path fill="none" stroke="#9a32cd" stroke-dasharray="5,2" d="M579.613,-333.718C594.315,-287.025 624.935,-163.179 557.351,-108 540.947,-94.6064 482.158,-86.2293 448.488,-82.4186"/>
<polygon fill="#9a32cd" stroke="#9a32cd" points="576.233,-332.793 576.443,-343.385 582.884,-334.974 576.233,-332.793"/>
<text text-anchor="middle" x="635.351" y="-213.5" font-family="Helvetica,sans-Serif" font-size="10.00"> MessageQueue</text>
</g>
<!-- Node14&#45;&gt;Node4 -->
<g id="edge29" class="edge"><title>Node14&#45;&gt;Node4</title>
<path fill="none" stroke="#9a32cd" stroke-dasharray="5,2" d="M83.1531,-236.82C75.8963,-221.93 68.3511,-201.903 68.3511,-183 68.3511,-183 68.3511,-183 68.3511,-78 68.3511,-12.5152 303.932,-9.23423 391.815,-10.2886"/>
<polygon fill="#9a32cd" stroke="#9a32cd" points="80.0948,-238.526 87.7981,-245.8 86.3123,-235.31 80.0948,-238.526"/>
<text text-anchor="middle" x="82.3511" y="-145.5" font-family="Helvetica,sans-Serif" font-size="10.00"> Items</text>
</g>
<!-- Node15&#45;&gt;Node1 -->
<g id="edge34" class="edge"><title>Node15&#45;&gt;Node1</title>
<path fill="none" stroke="#9a32cd" stroke-dasharray="5,2" d="M439.305,-336.46C433.096,-330.845 426.23,-324.327 420.351,-318 390.506,-285.883 359.467,-243.741 346.556,-225.751"/>
<polygon fill="#9a32cd" stroke="#9a32cd" points="437.403,-339.451 447.212,-343.455 442.042,-334.208 437.403,-339.451"/>
<text text-anchor="middle" x="454.351" y="-304.5" font-family="Helvetica,sans-Serif" font-size="10.00"> ExpectedHash</text>
</g>
</g>
</svg>
        <g id="navigator" transform="translate(0 0)" fill="#404254">
                <rect fill="#f2f5e9" fill-opacity="0.5" stroke="#606060" stroke-width=".5" x="0" y="0" width="60" height="60"/>
                <use id="zoomplus" xlink:href="#zoomPlus" x="17" y="9" onmousedown="handleZoom(evt,'in')"/>
                <use id="zoomminus" xlink:href="#zoomMin" x="42" y="9" onmousedown="handleZoom(evt,'out')"/>
                <use id="reset" xlink:href="#resetDef" x="30" y="36" onmousedown="handleReset()"/>
                <g id="arrowUp" xlink:href="#dirArrow" transform="translate(30 24)" onmousedown="handlePan(0,-1)">
                  <use xlink:href="#rim" fill="#404040">
                        <set attributeName="fill" to="#808080" begin="arrowUp.mouseover" end="arrowUp.mouseout"/>
                  </use>
                  <path fill="none" stroke="white" stroke-width="1.5" d="M0,-3.0v7 M-2.5,-0.5L0,-3.0L2.5,-0.5"/>
                </g>
                <g id="arrowRight" xlink:href="#dirArrow" transform="rotate(90) translate(36 -43)" onmousedown="handlePan(1,0)">
                  <use xlink:href="#rim" fill="#404040">
                        <set attributeName="fill" to="#808080" begin="arrowRight.mouseover" end="arrowRight.mouseout"/>
                  </use>
                  <path fill="none" stroke="white" stroke-width="1.5" d="M0,-3.0v7 M-2.5,-0.5L0,-3.0L2.5,-0.5"/>
                </g>
                <g id="arrowDown" xlink:href="#dirArrow" transform="rotate(180) translate(-30 -48)" onmousedown="handlePan(0,1)">
                  <use xlink:href="#rim" fill="#404040">
                        <set attributeName="fill" to="#808080" begin="arrowDown.mouseover" end="arrowDown.mouseout"/>
                  </use>
                  <path fill="none" stroke="white" stroke-width="1.5" d="M0,-3.0v7 M-2.5,-0.5L0,-3.0L2.5,-0.5"/>
                </g>
                <g id="arrowLeft" xlink:href="#dirArrow" transform="rotate(270) translate(-36 17)" onmousedown="handlePan(-1,0)">
                  <use xlink:href="#rim" fill="#404040">
                        <set attributeName="fill" to="#808080" begin="arrowLeft.mouseover" end="arrowLeft.mouseout"/>
                  </use>
                  <path fill="none" stroke="white" stroke-width="1.5" d="M0,-3.0v7 M-2.5,-0.5L0,-3.0L2.5,-0.5"/>
                </g>
        </g>
        <svg viewBox="0 0 15 15" width="100%" height="30px" preserveAspectRatio="xMaxYMin meet">
         <g id="arrow_out" transform="scale(0.3 0.3)">
          <a xlink:href="classpkgAcqDiffIndex__coll__graph_org.svg" target="_base">
           <rect id="button" ry="5" rx="5" y="6" x="6" height="38" width="38"
                fill="#f2f5e9" fill-opacity="0.5" stroke="#606060" stroke-width="1.0"/>
           <path id="arrow"
             d="M 11.500037,31.436501 C 11.940474,20.09759 22.043105,11.32322 32.158766,21.979434 L 37.068811,17.246167 C 37.068811,17.246167 37.088388,32 37.088388,32 L 22.160133,31.978069 C 22.160133,31.978069 26.997745,27.140456 26.997745,27.140456 C 18.528582,18.264221 13.291696,25.230495 11.500037,31.436501 z"
             style="fill:#404040;"/>
          </a>
         </g>
        </svg>
</svg>
