<?xml version="1.0" encoding="UTF-8" standalone="no"?>
<!DOCTYPE svg PUBLIC "-//W3C//DTD SVG 1.1//EN"
 "http://www.w3.org/Graphics/SVG/1.1/DTD/svg11.dtd">
<!-- Generated by graphviz version 2.36.0 (20140111.2315)
 -->
<!-- Title: debIFTypePkg Pages: 1 -->
<svg width="132pt" height="86pt"
 viewBox="0.00 0.00 132.00 86.00" xmlns="http://www.w3.org/2000/svg" xmlns:xlink="http://www.w3.org/1999/xlink">
<g id="graph0" class="graph" transform="scale(1 1) rotate(0) translate(4 82)">
<title>debIFTypePkg</title>
<polygon fill="white" stroke="none" points="-4,4 -4,-82 128,-82 128,4 -4,4"/>
<!-- Node1 -->
<g id="node1" class="node"><title>Node1</title>
<polygon fill="#bfbfbf" stroke="black" points="0,-0.5 0,-19.5 80,-19.5 80,-0.5 0,-0.5"/>
<text text-anchor="middle" x="40" y="-7.5" font-family="Helvetica,sans-Serif" font-size="10.00">debIFTypePkg</text>
</g>
<!-- Node2 -->
<g id="node2" class="node"><title>Node2</title>
<g id="a_node2"><a xlink:href="classpkgIndexFile_1_1Type.xhtml" target="_top" xlink:title="Type">
<polygon fill="white" stroke="black" points="21,-58.5 21,-77.5 59,-77.5 59,-58.5 21,-58.5"/>
<text text-anchor="middle" x="40" y="-65.5" font-family="Helvetica,sans-Serif" font-size="10.00">Type</text>
</a>
</g>
</g>
<!-- Node2&#45;&gt;Node1 -->
<g id="edge1" class="edge"><title>Node2&#45;&gt;Node1</title>
<path fill="none" stroke="midnightblue" d="M40,-47.953C40,-38.2875 40,-27.0312 40,-19.5052"/>
<polygon fill="midnightblue" stroke="midnightblue" points="36.5001,-48.25 40,-58.25 43.5001,-48.25 36.5001,-48.25"/>
</g>
<!-- Node2&#45;&gt;Node2 -->
<g id="edge2" class="edge"><title>Node2&#45;&gt;Node2</title>
<path fill="none" stroke="#9a32cd" stroke-dasharray="5,2" d="M69.2501,-72.8209C73.8553,-72.1064 77,-70.4994 77,-68 77,-63.8984 68.5314,-62.2001 59.0372,-62.9051"/>
<polygon fill="#9a32cd" stroke="#9a32cd" points="68.9397,-69.3279 59.0372,-73.0949 69.1276,-76.3254 68.9397,-69.3279"/>
<text text-anchor="middle" x="100.5" y="-65.5" font-family="Helvetica,sans-Serif" font-size="10.00"> GlobalList</text>
</g>
</g>
</svg>
