<?xml version="1.0" encoding="UTF-8" standalone="no"?>
<!DOCTYPE svg PUBLIC "-//W3C//DTD SVG 1.1//EN"
 "http://www.w3.org/Graphics/SVG/1.1/DTD/svg11.dtd">
<!-- Generated by graphviz version 2.36.0 (20140111.2315)
 -->
<!-- Title: FileFdPrivate Pages: 1 -->
<svg width="212pt" height="314pt"
 viewBox="0.00 0.00 212.00 314.00" xmlns="http://www.w3.org/2000/svg" xmlns:xlink="http://www.w3.org/1999/xlink">
<g id="graph0" class="graph" transform="scale(1 1) rotate(0) translate(4 310)">
<title>FileFdPrivate</title>
<polygon fill="white" stroke="none" points="-4,4 -4,-310 208,-310 208,4 -4,4"/>
<!-- Node1 -->
<g id="node1" class="node"><title>Node1</title>
<polygon fill="#bfbfbf" stroke="black" points="37,-0.5 37,-19.5 111,-19.5 111,-0.5 37,-0.5"/>
<text text-anchor="middle" x="74" y="-7.5" font-family="Helvetica,sans-Serif" font-size="10.00">FileFdPrivate</text>
</g>
<!-- Node2 -->
<g id="node2" class="node"><title>Node2</title>
<g id="a_node2"><a xlink:href="structAPT_1_1Configuration_1_1Compressor.xhtml" target="_top" xlink:title="Representation of supported compressors. ">
<polygon fill="white" stroke="black" points="39,-68.5 39,-87.5 109,-87.5 109,-68.5 39,-68.5"/>
<text text-anchor="middle" x="74" y="-75.5" font-family="Helvetica,sans-Serif" font-size="10.00">Compressor</text>
</a>
</g>
</g>
<!-- Node2&#45;&gt;Node1 -->
<g id="edge1" class="edge"><title>Node2&#45;&gt;Node1</title>
<path fill="none" stroke="#9a32cd" stroke-dasharray="5,2" d="M74,-58.0413C74,-45.4724 74,-29.5631 74,-19.8411"/>
<polygon fill="#9a32cd" stroke="#9a32cd" points="70.5001,-58.3716 74,-68.3717 77.5001,-58.3717 70.5001,-58.3716"/>
<text text-anchor="middle" x="101.5" y="-41.5" font-family="Helvetica,sans-Serif" font-size="10.00"> compressor</text>
</g>
<!-- Node3 -->
<g id="node3" class="node"><title>Node3</title>
<g id="a_node3"><a xlink:title="STL class. ">
<polygon fill="white" stroke="#bfbfbf" points="32.5,-228.5 32.5,-247.5 73.5,-247.5 73.5,-228.5 32.5,-228.5"/>
<text text-anchor="middle" x="53" y="-235.5" font-family="Helvetica,sans-Serif" font-size="10.00">string</text>
</a>
</g>
</g>
<!-- Node3&#45;&gt;Node2 -->
<g id="edge2" class="edge"><title>Node3&#45;&gt;Node2</title>
<path fill="none" stroke="#9a32cd" stroke-dasharray="5,2" d="M49.0044,-218.351C45.6828,-199.832 42.2076,-170.714 47,-146 51.2496,-124.085 62.643,-100.254 69.1914,-87.7662"/>
<polygon fill="#9a32cd" stroke="#9a32cd" points="45.6124,-219.241 50.9774,-228.377 52.4806,-217.889 45.6124,-219.241"/>
<text text-anchor="middle" x="69" y="-171.5" font-family="Helvetica,sans-Serif" font-size="10.00"> Name</text>
<text text-anchor="middle" x="69" y="-160.5" font-family="Helvetica,sans-Serif" font-size="10.00">Extension</text>
<text text-anchor="middle" x="69" y="-149.5" font-family="Helvetica,sans-Serif" font-size="10.00">Binary</text>
</g>
<!-- Node5 -->
<g id="node5" class="node"><title>Node5</title>
<polygon fill="white" stroke="#bfbfbf" points="99.5,-153.5 99.5,-172.5 204.5,-172.5 204.5,-153.5 99.5,-153.5"/>
<text text-anchor="middle" x="152" y="-160.5" font-family="Helvetica,sans-Serif" font-size="10.00">vector&lt; std::string &gt;</text>
</g>
<!-- Node3&#45;&gt;Node5 -->
<g id="edge5" class="edge"><title>Node3&#45;&gt;Node5</title>
<path fill="none" stroke="#9a32cd" stroke-dasharray="5,2" d="M72.9509,-222.289C93.1426,-207.4 123.681,-184.882 140.27,-172.649"/>
<polygon fill="#9a32cd" stroke="#9a32cd" points="70.7167,-219.587 64.7454,-228.339 74.8711,-225.221 70.7167,-219.587"/>
<text text-anchor="middle" x="126.5" y="-201.5" font-family="Helvetica,sans-Serif" font-size="10.00"> elements</text>
</g>
<!-- Node4 -->
<g id="node4" class="node"><title>Node4</title>
<g id="a_node4"><a xlink:title="STL class. ">
<polygon fill="white" stroke="#bfbfbf" points="0,-286.5 0,-305.5 106,-305.5 106,-286.5 0,-286.5"/>
<text text-anchor="middle" x="53" y="-293.5" font-family="Helvetica,sans-Serif" font-size="10.00">basic_string&lt; char &gt;</text>
</a>
</g>
</g>
<!-- Node4&#45;&gt;Node3 -->
<g id="edge3" class="edge"><title>Node4&#45;&gt;Node3</title>
<path fill="none" stroke="midnightblue" d="M53,-275.953C53,-266.287 53,-255.031 53,-247.505"/>
<polygon fill="midnightblue" stroke="midnightblue" points="49.5001,-276.25 53,-286.25 56.5001,-276.25 49.5001,-276.25"/>
</g>
<!-- Node5&#45;&gt;Node2 -->
<g id="edge4" class="edge"><title>Node5&#45;&gt;Node2</title>
<path fill="none" stroke="#9a32cd" stroke-dasharray="5,2" d="M136.731,-145.752C120.37,-128.342 95.0186,-101.366 82.1266,-87.6476"/>
<polygon fill="#9a32cd" stroke="#9a32cd" points="134.548,-148.54 143.946,-153.43 139.649,-143.746 134.548,-148.54"/>
<text text-anchor="middle" x="158.5" y="-120" font-family="Helvetica,sans-Serif" font-size="10.00"> UncompressArgs</text>
<text text-anchor="middle" x="158.5" y="-109" font-family="Helvetica,sans-Serif" font-size="10.00">CompressArgs</text>
</g>
</g>
</svg>
