<?xml version="1.0" encoding="UTF-8" standalone="no"?>
<!DOCTYPE svg PUBLIC "-//W3C//DTD SVG 1.1//EN"
 "http://www.w3.org/Graphics/SVG/1.1/DTD/svg11.dtd">
<!-- Generated by graphviz version 2.36.0 (20140111.2315)
 -->
<!-- Title: metaIndex Pages: 1 -->
<svg width="227pt" height="174pt"
 viewBox="0.00 0.00 227.00 174.00" xmlns="http://www.w3.org/2000/svg" xmlns:xlink="http://www.w3.org/1999/xlink">
<g id="graph0" class="graph" transform="scale(1 1) rotate(0) translate(4 170)">
<title>metaIndex</title>
<polygon fill="white" stroke="none" points="-4,4 -4,-170 223,-170 223,4 -4,4"/>
<!-- Node1 -->
<g id="node1" class="node"><title>Node1</title>
<polygon fill="#bfbfbf" stroke="black" points="88,-0.5 88,-19.5 150,-19.5 150,-0.5 88,-0.5"/>
<text text-anchor="middle" x="119" y="-7.5" font-family="Helvetica,sans-Serif" font-size="10.00">metaIndex</text>
</g>
<!-- Node2 -->
<g id="node2" class="node"><title>Node2</title>
<polygon fill="white" stroke="#bfbfbf" points="0,-78.5 0,-97.5 124,-97.5 124,-78.5 0,-78.5"/>
<text text-anchor="middle" x="62" y="-85.5" font-family="Helvetica,sans-Serif" font-size="10.00">vector&lt; pkgIndexFile * &gt;</text>
</g>
<!-- Node2&#45;&gt;Node1 -->
<g id="edge1" class="edge"><title>Node2&#45;&gt;Node1</title>
<path fill="none" stroke="#9a32cd" stroke-dasharray="5,2" d="M72.7597,-69.8258C78.9622,-60.2414 87.0801,-48.2116 95,-38 99.9198,-31.6565 105.92,-24.9065 110.69,-19.7424"/>
<polygon fill="#9a32cd" stroke="#9a32cd" points="69.6949,-68.1226 67.274,-78.4371 75.5987,-71.8835 69.6949,-68.1226"/>
<text text-anchor="middle" x="114" y="-46.5" font-family="Helvetica,sans-Serif" font-size="10.00"> Indexes</text>
</g>
<!-- Node3 -->
<g id="node3" class="node"><title>Node3</title>
<g id="a_node3"><a xlink:href="classpkgIndexFile.xhtml" target="_top" xlink:title="pkgIndexFile">
<polygon fill="white" stroke="black" points="24,-146.5 24,-165.5 96,-165.5 96,-146.5 24,-146.5"/>
<text text-anchor="middle" x="60" y="-153.5" font-family="Helvetica,sans-Serif" font-size="10.00">pkgIndexFile</text>
</a>
</g>
</g>
<!-- Node3&#45;&gt;Node2 -->
<g id="edge2" class="edge"><title>Node3&#45;&gt;Node2</title>
<path fill="none" stroke="#9a32cd" stroke-dasharray="5,2" d="M60.5745,-136.041C60.9554,-123.472 61.4375,-107.563 61.7321,-97.8411"/>
<polygon fill="#9a32cd" stroke="#9a32cd" points="57.0661,-136.27 60.2615,-146.372 64.0628,-136.482 57.0661,-136.27"/>
<text text-anchor="middle" x="83.5" y="-119.5" font-family="Helvetica,sans-Serif" font-size="10.00"> elements</text>
</g>
<!-- Node4 -->
<g id="node4" class="node"><title>Node4</title>
<g id="a_node4"><a xlink:title="STL class. ">
<polygon fill="white" stroke="#bfbfbf" points="145.5,-78.5 145.5,-97.5 186.5,-97.5 186.5,-78.5 145.5,-78.5"/>
<text text-anchor="middle" x="166" y="-85.5" font-family="Helvetica,sans-Serif" font-size="10.00">string</text>
</a>
</g>
</g>
<!-- Node4&#45;&gt;Node1 -->
<g id="edge3" class="edge"><title>Node4&#45;&gt;Node1</title>
<path fill="none" stroke="#9a32cd" stroke-dasharray="5,2" d="M155.218,-69.5654C145.56,-53.9486 131.801,-31.7002 124.329,-19.6165"/>
<polygon fill="#9a32cd" stroke="#9a32cd" points="152.372,-71.6177 160.609,-78.2818 158.326,-67.9359 152.372,-71.6177"/>
<text text-anchor="middle" x="160" y="-52" font-family="Helvetica,sans-Serif" font-size="10.00"> Dist</text>
<text text-anchor="middle" x="160" y="-41" font-family="Helvetica,sans-Serif" font-size="10.00">URI</text>
</g>
<!-- Node5 -->
<g id="node5" class="node"><title>Node5</title>
<g id="a_node5"><a xlink:title="STL class. ">
<polygon fill="white" stroke="#bfbfbf" points="114,-146.5 114,-165.5 220,-165.5 220,-146.5 114,-146.5"/>
<text text-anchor="middle" x="167" y="-153.5" font-family="Helvetica,sans-Serif" font-size="10.00">basic_string&lt; char &gt;</text>
</a>
</g>
</g>
<!-- Node5&#45;&gt;Node4 -->
<g id="edge4" class="edge"><title>Node5&#45;&gt;Node4</title>
<path fill="none" stroke="midnightblue" d="M166.713,-136.041C166.522,-123.472 166.281,-107.563 166.134,-97.8411"/>
<polygon fill="midnightblue" stroke="midnightblue" points="163.218,-136.426 166.869,-146.372 170.217,-136.32 163.218,-136.426"/>
</g>
</g>
</svg>
