<?xml version="1.0" encoding="UTF-8" standalone="no"?>
<!DOCTYPE svg PUBLIC "-//W3C//DTD SVG 1.1//EN"
 "http://www.w3.org/Graphics/SVG/1.1/DTD/svg11.dtd">
<!-- Generated by graphviz version 2.36.0 (20140111.2315)
 -->
<!-- Title: pkgCache::Namespace Pages: 1 -->
<svg width="329pt" height="140pt"
 viewBox="0.00 0.00 329.00 140.00" xmlns="http://www.w3.org/2000/svg" xmlns:xlink="http://www.w3.org/1999/xlink">
<g id="graph0" class="graph" transform="scale(1 1) rotate(0) translate(4 136)">
<title>pkgCache::Namespace</title>
<polygon fill="white" stroke="none" points="-4,4 -4,-136 325,-136 325,4 -4,4"/>
<!-- Node1 -->
<g id="node1" class="node"><title>Node1</title>
<polygon fill="#bfbfbf" stroke="black" points="73.5,-112.5 73.5,-131.5 192.5,-131.5 192.5,-112.5 73.5,-112.5"/>
<text text-anchor="middle" x="133" y="-119.5" font-family="Helvetica,sans-Serif" font-size="10.00">pkgCache::Namespace</text>
</g>
<!-- Node2 -->
<g id="node2" class="node"><title>Node2</title>
<g id="a_node2"><a xlink:href="classpkgDepCache.xhtml" target="_top" xlink:title="pkgDepCache">
<polygon fill="white" stroke="black" points="-0.5,-56.5 -0.5,-75.5 78.5,-75.5 78.5,-56.5 -0.5,-56.5"/>
<text text-anchor="middle" x="39" y="-63.5" font-family="Helvetica,sans-Serif" font-size="10.00">pkgDepCache</text>
</a>
</g>
</g>
<!-- Node1&#45;&gt;Node2 -->
<g id="edge1" class="edge"><title>Node1&#45;&gt;Node2</title>
<path fill="none" stroke="darkgreen" d="M108.938,-107.177C91.6411,-97.2407 68.8523,-84.1492 54.0652,-75.6545"/>
<polygon fill="darkgreen" stroke="darkgreen" points="107.483,-110.378 117.897,-112.324 110.97,-104.308 107.483,-110.378"/>
</g>
<!-- Node3 -->
<g id="node3" class="node"><title>Node3</title>
<g id="a_node3"><a xlink:href="classpkgOrderList.xhtml" target="_top" xlink:title="pkgOrderList">
<polygon fill="white" stroke="black" points="97,-56.5 97,-75.5 169,-75.5 169,-56.5 97,-56.5"/>
<text text-anchor="middle" x="133" y="-63.5" font-family="Helvetica,sans-Serif" font-size="10.00">pkgOrderList</text>
</a>
</g>
</g>
<!-- Node1&#45;&gt;Node3 -->
<g id="edge2" class="edge"><title>Node1&#45;&gt;Node3</title>
<path fill="none" stroke="darkgreen" d="M133,-101.805C133,-92.9102 133,-82.7798 133,-75.7511"/>
<polygon fill="darkgreen" stroke="darkgreen" points="129.5,-102.083 133,-112.083 136.5,-102.083 129.5,-102.083"/>
</g>
<!-- Node4 -->
<g id="node4" class="node"><title>Node4</title>
<g id="a_node4"><a xlink:href="classpkgPackageManager.xhtml" target="_top" xlink:title="pkgPackageManager">
<polygon fill="white" stroke="black" points="187,-56.5 187,-75.5 295,-75.5 295,-56.5 187,-56.5"/>
<text text-anchor="middle" x="241" y="-63.5" font-family="Helvetica,sans-Serif" font-size="10.00">pkgPackageManager</text>
</a>
</g>
</g>
<!-- Node1&#45;&gt;Node4 -->
<g id="edge3" class="edge"><title>Node1&#45;&gt;Node4</title>
<path fill="none" stroke="darkgreen" d="M159.548,-107.726C179.546,-97.7271 206.387,-84.3065 223.691,-75.6545"/>
<polygon fill="darkgreen" stroke="darkgreen" points="157.731,-104.721 150.352,-112.324 160.862,-110.982 157.731,-104.721"/>
</g>
<!-- Node5 -->
<g id="node5" class="node"><title>Node5</title>
<g id="a_node5"><a xlink:href="classpkgDPkgPM.xhtml" target="_top" xlink:title="pkgDPkgPM">
<polygon fill="white" stroke="black" points="160,-0.5 160,-19.5 232,-19.5 232,-0.5 160,-0.5"/>
<text text-anchor="middle" x="196" y="-7.5" font-family="Helvetica,sans-Serif" font-size="10.00">pkgDPkgPM</text>
</a>
</g>
</g>
<!-- Node4&#45;&gt;Node5 -->
<g id="edge4" class="edge"><title>Node4&#45;&gt;Node5</title>
<path fill="none" stroke="midnightblue" d="M226.953,-48.144C219.113,-38.7357 209.671,-27.4046 203.293,-19.7511"/>
<polygon fill="midnightblue" stroke="midnightblue" points="224.479,-50.6414 233.569,-56.083 229.856,-46.1601 224.479,-50.6414"/>
</g>
<!-- Node6 -->
<g id="node6" class="node"><title>Node6</title>
<g id="a_node6"><a xlink:href="classpkgSimulate.xhtml" target="_top" xlink:title="pkgSimulate">
<polygon fill="white" stroke="black" points="250.5,-0.5 250.5,-19.5 321.5,-19.5 321.5,-0.5 250.5,-0.5"/>
<text text-anchor="middle" x="286" y="-7.5" font-family="Helvetica,sans-Serif" font-size="10.00">pkgSimulate</text>
</a>
</g>
</g>
<!-- Node4&#45;&gt;Node6 -->
<g id="edge5" class="edge"><title>Node4&#45;&gt;Node6</title>
<path fill="none" stroke="midnightblue" d="M255.047,-48.144C262.887,-38.7357 272.329,-27.4046 278.707,-19.7511"/>
<polygon fill="midnightblue" stroke="midnightblue" points="252.144,-46.1601 248.431,-56.083 257.521,-50.6414 252.144,-46.1601"/>
</g>
</g>
</svg>
