<?xml version="1.0" encoding="UTF-8" standalone="no"?>
<!DOCTYPE svg PUBLIC "-//W3C//DTD SVG 1.1//EN"
 "http://www.w3.org/Graphics/SVG/1.1/DTD/svg11.dtd">
<!-- Generated by graphviz version 2.36.0 (20140111.2315)
 -->
<!-- Title: debSystemPrivate Pages: 1 -->
<svg width="172pt" height="222pt"
 viewBox="0.00 0.00 172.00 222.00" xmlns="http://www.w3.org/2000/svg" xmlns:xlink="http://www.w3.org/1999/xlink">
<g id="graph0" class="graph" transform="scale(1 1) rotate(0) translate(4 218)">
<title>debSystemPrivate</title>
<polygon fill="white" stroke="none" points="-4,4 -4,-218 168,-218 168,4 -4,4"/>
<!-- Node1 -->
<g id="node1" class="node"><title>Node1</title>
<polygon fill="#bfbfbf" stroke="black" points="14.5,-0.5 14.5,-19.5 111.5,-19.5 111.5,-0.5 14.5,-0.5"/>
<text text-anchor="middle" x="63" y="-7.5" font-family="Helvetica,sans-Serif" font-size="10.00">debSystemPrivate</text>
</g>
<!-- Node2 -->
<g id="node2" class="node"><title>Node2</title>
<g id="a_node2"><a xlink:href="classdebStatusIndex.xhtml" target="_top" xlink:title="debStatusIndex">
<polygon fill="white" stroke="black" points="20.5,-68.5 20.5,-87.5 105.5,-87.5 105.5,-68.5 20.5,-68.5"/>
<text text-anchor="middle" x="63" y="-75.5" font-family="Helvetica,sans-Serif" font-size="10.00">debStatusIndex</text>
</a>
</g>
</g>
<!-- Node2&#45;&gt;Node1 -->
<g id="edge1" class="edge"><title>Node2&#45;&gt;Node1</title>
<path fill="none" stroke="#9a32cd" stroke-dasharray="5,2" d="M63,-58.0413C63,-45.4724 63,-29.5631 63,-19.8411"/>
<polygon fill="#9a32cd" stroke="#9a32cd" points="59.5001,-58.3716 63,-68.3717 66.5001,-58.3717 59.5001,-58.3716"/>
<text text-anchor="middle" x="87" y="-41.5" font-family="Helvetica,sans-Serif" font-size="10.00"> StatusFile</text>
</g>
<!-- Node3 -->
<g id="node3" class="node"><title>Node3</title>
<g id="a_node3"><a xlink:href="classpkgIndexFile.xhtml" target="_top" xlink:title="pkgIndexFile">
<polygon fill="white" stroke="black" points="0,-136.5 0,-155.5 72,-155.5 72,-136.5 0,-136.5"/>
<text text-anchor="middle" x="36" y="-143.5" font-family="Helvetica,sans-Serif" font-size="10.00">pkgIndexFile</text>
</a>
</g>
</g>
<!-- Node3&#45;&gt;Node2 -->
<g id="edge2" class="edge"><title>Node3&#45;&gt;Node2</title>
<path fill="none" stroke="midnightblue" d="M43.4428,-126.807C48.6309,-114.124 55.3248,-97.7615 59.3832,-87.8411"/>
<polygon fill="midnightblue" stroke="midnightblue" points="40.0768,-125.791 39.5298,-136.372 46.5556,-128.441 40.0768,-125.791"/>
</g>
<!-- Node4 -->
<g id="node4" class="node"><title>Node4</title>
<g id="a_node4"><a xlink:title="STL class. ">
<polygon fill="white" stroke="#bfbfbf" points="90.5,-136.5 90.5,-155.5 131.5,-155.5 131.5,-136.5 90.5,-136.5"/>
<text text-anchor="middle" x="111" y="-143.5" font-family="Helvetica,sans-Serif" font-size="10.00">string</text>
</a>
</g>
</g>
<!-- Node4&#45;&gt;Node2 -->
<g id="edge3" class="edge"><title>Node4&#45;&gt;Node2</title>
<path fill="none" stroke="#9a32cd" stroke-dasharray="5,2" d="M98.5911,-127.938C89.2632,-115.112 76.8612,-98.0591 69.4299,-87.8411"/>
<polygon fill="#9a32cd" stroke="#9a32cd" points="96.0125,-130.343 104.725,-136.372 101.674,-126.226 96.0125,-130.343"/>
<text text-anchor="middle" x="100.5" y="-109.5" font-family="Helvetica,sans-Serif" font-size="10.00"> File</text>
</g>
<!-- Node5 -->
<g id="node5" class="node"><title>Node5</title>
<g id="a_node5"><a xlink:title="STL class. ">
<polygon fill="white" stroke="#bfbfbf" points="58,-194.5 58,-213.5 164,-213.5 164,-194.5 58,-194.5"/>
<text text-anchor="middle" x="111" y="-201.5" font-family="Helvetica,sans-Serif" font-size="10.00">basic_string&lt; char &gt;</text>
</a>
</g>
</g>
<!-- Node5&#45;&gt;Node4 -->
<g id="edge4" class="edge"><title>Node5&#45;&gt;Node4</title>
<path fill="none" stroke="midnightblue" d="M111,-183.953C111,-174.287 111,-163.031 111,-155.505"/>
<polygon fill="midnightblue" stroke="midnightblue" points="107.5,-184.25 111,-194.25 114.5,-184.25 107.5,-184.25"/>
</g>
</g>
</svg>
