<?xml version="1.0" encoding="UTF-8" standalone="no"?>
<!DOCTYPE svg PUBLIC "-//W3C//DTD SVG 1.1//EN"
 "http://www.w3.org/Graphics/SVG/1.1/DTD/svg11.dtd">
<!-- Generated by graphviz version 2.36.0 (20140111.2315)
 -->
<!-- Title: pkgAcqSubIndex Pages: 1 -->
<!--zoomable 564 -->
<svg id="main" version="1.1" xmlns="http://www.w3.org/2000/svg" xmlns:xlink="http://www.w3.org/1999/xlink" xml:space="preserve" onload="init(evt)">
<style type="text/css"><![CDATA[
.edge:hover path { stroke: red; }
.edge:hover polygon { stroke: red; fill: red; }
]]></style>
<script type="text/javascript"><![CDATA[
var edges = document.getElementsByTagName('g');
if (edges && edges.length) {
  for (var i=0;i<edges.length;i++) {
    if (edges[i].id.substr(0,4)=='edge') {
      edges[i].setAttribute('class','edge');
    }
  }
}
]]></script>
        <defs>
                <circle id="rim" cx="0" cy="0" r="7"/>
                <circle id="rim2" cx="0" cy="0" r="3.5"/>
                <g id="zoomPlus">
                        <use xlink:href="#rim" fill="#404040">
                                <set attributeName="fill" to="#808080" begin="zoomplus.mouseover" end="zoomplus.mouseout"/>
                        </use>
                        <path d="M-4,0h8M0,-4v8" fill="none" stroke="white" stroke-width="1.5" pointer-events="none"/>
                </g>
                <g id="zoomMin">
                        <use xlink:href="#rim" fill="#404040">
                                <set attributeName="fill" to="#808080" begin="zoomminus.mouseover" end="zoomminus.mouseout"/>
                        </use>
                        <path d="M-4,0h8" fill="none" stroke="white" stroke-width="1.5" pointer-events="none"/>
                </g>
                <g id="dirArrow">
                        <path fill="none" stroke="white" stroke-width="1.5" d="M0,-3.0v7 M-2.5,-0.5L0,-3.0L2.5,-0.5"/>
                </g>
               <g id="resetDef">
                       <use xlink:href="#rim2" fill="#404040">
                               <set attributeName="fill" to="#808080" begin="reset.mouseover" end="reset.mouseout"/>
                       </use>
               </g>
        </defs>

<script type="text/javascript">
var viewWidth = 752;
var viewHeight = 564;
var sectionId = 'dynsection-1';
</script>
<script xlink:href="svgpan.js"/>
<svg id="graph" class="graph">
<g id="viewport">
<title>pkgAcqSubIndex</title>
<polygon fill="white" stroke="none" points="-4,4 -4,-560 748,-560 748,4 -4,4"/>
<!-- Node1 -->
<g id="node1" class="node"><title>Node1</title>
<polygon fill="#bfbfbf" stroke="black" points="141.5,-206.5 141.5,-225.5 232.5,-225.5 232.5,-206.5 141.5,-206.5"/>
<text text-anchor="middle" x="187" y="-213.5" font-family="Helvetica,sans-Serif" font-size="10.00">pkgAcqSubIndex</text>
</g>
<!-- Node2 -->
<g id="node2" class="node"><title>Node2</title>
<g id="a_node2"><a xlink:href="classpkgAcquire_1_1Item.xhtml" target="_top" xlink:title="Represents the process by which a pkgAcquire object should {{{ retrieve a file or a collection of fil...">
<polygon fill="white" stroke="black" points="140,-381.5 140,-400.5 176,-400.5 176,-381.5 140,-381.5"/>
<text text-anchor="middle" x="158" y="-388.5" font-family="Helvetica,sans-Serif" font-size="10.00">Item</text>
</a>
</g>
</g>
<!-- Node2&#45;&gt;Node1 -->
<g id="edge1" class="edge"><title>Node2&#45;&gt;Node1</title>
<path fill="none" stroke="midnightblue" d="M161.157,-371.169C167.396,-333.945 181.092,-252.246 185.559,-225.594"/>
<polygon fill="midnightblue" stroke="midnightblue" points="157.679,-370.742 159.478,-381.183 164.583,-371.899 157.679,-370.742"/>
</g>
<!-- Node7 -->
<g id="node7" class="node"><title>Node7</title>
<g id="a_node7"><a xlink:href="structpkgAcquire_1_1ItemDesc.xhtml" target="_top" xlink:title="Represents a single download source from which an item should be downloaded. ">
<polygon fill="white" stroke="black" points="188.5,-297.5 188.5,-316.5 247.5,-316.5 247.5,-297.5 188.5,-297.5"/>
<text text-anchor="middle" x="218" y="-304.5" font-family="Helvetica,sans-Serif" font-size="10.00">ItemDesc</text>
</a>
</g>
</g>
<!-- Node2&#45;&gt;Node7 -->
<g id="edge11" class="edge"><title>Node2&#45;&gt;Node7</title>
<path fill="none" stroke="#9a32cd" stroke-dasharray="5,2" d="M167.978,-372.35C174.371,-361.524 183.111,-347.568 192,-336 197.173,-329.267 203.673,-322.267 208.88,-316.95"/>
<polygon fill="#9a32cd" stroke="#9a32cd" points="164.805,-370.845 162.83,-381.254 170.865,-374.349 164.805,-370.845"/>
<text text-anchor="middle" x="208" y="-343.5" font-family="Helvetica,sans-Serif" font-size="10.00"> Owner</text>
</g>
<!-- Node14 -->
<g id="node14" class="node"><title>Node14</title>
<polygon fill="white" stroke="#bfbfbf" points="62.5,-246 62.5,-276 163.5,-276 163.5,-246 62.5,-246"/>
<text text-anchor="start" x="70.5" y="-264" font-family="Helvetica,sans-Serif" font-size="10.00">vector&lt; pkgAcquire</text>
<text text-anchor="middle" x="113" y="-253" font-family="Helvetica,sans-Serif" font-size="10.00">::Item * &gt;</text>
</g>
<!-- Node2&#45;&gt;Node14 -->
<g id="edge30" class="edge"><title>Node2&#45;&gt;Node14</title>
<path fill="none" stroke="#9a32cd" stroke-dasharray="5,2" d="M130.278,-380.502C119.111,-375.153 107.381,-367.237 101,-356 86.62,-330.678 97.8613,-295.436 106.169,-276.096"/>
<polygon fill="#9a32cd" stroke="#9a32cd" points="129.226,-383.859 139.798,-384.561 131.971,-377.42 129.226,-383.859"/>
<text text-anchor="middle" x="122.5" y="-343.5" font-family="Helvetica,sans-Serif" font-size="10.00"> elements</text>
</g>
<!-- Node3 -->
<g id="node3" class="node"><title>Node3</title>
<g id="a_node3"><a xlink:href="classWeakPointable.xhtml" target="_top" xlink:title="WeakPointable">
<polygon fill="white" stroke="black" points="116.5,-478.5 116.5,-497.5 199.5,-497.5 199.5,-478.5 116.5,-478.5"/>
<text text-anchor="middle" x="158" y="-485.5" font-family="Helvetica,sans-Serif" font-size="10.00">WeakPointable</text>
</a>
</g>
</g>
<!-- Node3&#45;&gt;Node2 -->
<g id="edge2" class="edge"><title>Node3&#45;&gt;Node2</title>
<path fill="none" stroke="midnightblue" d="M158,-468.227C158,-447.793 158,-416.001 158,-400.746"/>
<polygon fill="midnightblue" stroke="midnightblue" points="154.5,-468.233 158,-478.233 161.5,-468.233 154.5,-468.233"/>
</g>
<!-- Node3&#45;&gt;Node7 -->
<g id="edge8" class="edge"><title>Node3&#45;&gt;Node7</title>
<path fill="none" stroke="midnightblue" d="M169.897,-469.989C185.919,-445.93 213.618,-399.98 224,-356 227.203,-342.432 223.729,-326.277 220.891,-316.596"/>
<polygon fill="midnightblue" stroke="midnightblue" points="166.935,-468.12 164.202,-478.357 172.722,-472.059 166.935,-468.12"/>
</g>
<!-- Node10 -->
<g id="node10" class="node"><title>Node10</title>
<g id="a_node10"><a xlink:href="classpkgAcquire_1_1Worker.xhtml" target="_top" xlink:title="A fetch subprocess. ">
<polygon fill="white" stroke="black" points="372,-69.5 372,-88.5 420,-88.5 420,-69.5 372,-69.5"/>
<text text-anchor="middle" x="396" y="-76.5" font-family="Helvetica,sans-Serif" font-size="10.00">Worker</text>
</a>
</g>
</g>
<!-- Node3&#45;&gt;Node10 -->
<g id="edge14" class="edge"><title>Node3&#45;&gt;Node10</title>
<path fill="none" stroke="midnightblue" d="M124.098,-474.603C91.4544,-460.222 47,-433.093 47,-392 47,-392 47,-392 47,-147 47,-80.7532 292.591,-78.5031 371.736,-79.4981"/>
<polygon fill="midnightblue" stroke="midnightblue" points="122.79,-477.85 133.366,-478.491 125.498,-471.395 122.79,-477.85"/>
</g>
<!-- Node4 -->
<g id="node4" class="node"><title>Node4</title>
<g id="a_node4"><a xlink:href="classpkgAcquire.xhtml" target="_top" xlink:title="The core download scheduler. {{{. ">
<polygon fill="white" stroke="black" points="525.5,-0.5 525.5,-19.5 590.5,-19.5 590.5,-0.5 525.5,-0.5"/>
<text text-anchor="middle" x="558" y="-7.5" font-family="Helvetica,sans-Serif" font-size="10.00">pkgAcquire</text>
</a>
</g>
</g>
<!-- Node4&#45;&gt;Node2 -->
<g id="edge3" class="edge"><title>Node4&#45;&gt;Node2</title>
<path fill="none" stroke="#9a32cd" stroke-dasharray="5,2" d="M515.133,-11.6564C384.462,-14.2199 0,-26.1666 0,-78 0,-308 0,-308 0,-308 0,-370.428 98.3739,-385.391 139.875,-388.927"/>
<polygon fill="#9a32cd" stroke="#9a32cd" points="515.245,-15.155 525.178,-11.4681 515.114,-8.15621 515.245,-15.155"/>
<text text-anchor="middle" x="16" y="-179.5" font-family="Helvetica,sans-Serif" font-size="10.00"> Owner</text>
</g>
<!-- Node5 -->
<g id="node5" class="node"><title>Node5</title>
<g id="a_node5"><a xlink:href="classpkgAcquire_1_1Queue.xhtml" target="_top" xlink:title="A single download queue in a pkgAcquire object. {{{. ">
<polygon fill="white" stroke="black" points="406.5,-138.5 406.5,-157.5 451.5,-157.5 451.5,-138.5 406.5,-138.5"/>
<text text-anchor="middle" x="429" y="-145.5" font-family="Helvetica,sans-Serif" font-size="10.00">Queue</text>
</a>
</g>
</g>
<!-- Node4&#45;&gt;Node5 -->
<g id="edge5" class="edge"><title>Node4&#45;&gt;Node5</title>
<path fill="none" stroke="#9a32cd" stroke-dasharray="5,2" d="M577.491,-26.2707C589.06,-36.6337 602.669,-51.4307 609,-68 617.255,-89.605 622.653,-102.974 607,-120 601.778,-125.681 498.67,-138.666 451.819,-144.305"/>
<polygon fill="#9a32cd" stroke="#9a32cd" points="579.452,-23.3445 569.561,-19.5466 574.925,-28.6835 579.452,-23.3445"/>
<text text-anchor="middle" x="632" y="-76.5" font-family="Helvetica,sans-Serif" font-size="10.00"> Owner</text>
</g>
<!-- Node5&#45;&gt;Node4 -->
<g id="edge4" class="edge"><title>Node5&#45;&gt;Node4</title>
<path fill="none" stroke="#9a32cd" stroke-dasharray="5,2" d="M461.764,-142.671C508.139,-136.386 587.805,-124.947 592,-120 595.449,-115.932 594.17,-112.872 592,-108 587.135,-97.0757 577.803,-100.456 572,-90 559.292,-67.1037 557.699,-35.2311 557.749,-19.9143"/>
<polygon fill="#9a32cd" stroke="#9a32cd" points="461.028,-139.238 451.584,-144.04 461.961,-146.175 461.028,-139.238"/>
<text text-anchor="middle" x="590.5" y="-76.5" font-family="Helvetica,sans-Serif" font-size="10.00"> Queues</text>
</g>
<!-- Node5&#45;&gt;Node10 -->
<g id="edge15" class="edge"><title>Node5&#45;&gt;Node10</title>
<path fill="none" stroke="#9a32cd" stroke-dasharray="5,2" d="M420.227,-129.188C413.754,-116.046 405.231,-98.7416 400.211,-88.5494"/>
<polygon fill="#9a32cd" stroke="#9a32cd" points="417.127,-130.817 424.686,-138.241 423.407,-127.724 417.127,-130.817"/>
<text text-anchor="middle" x="436" y="-111.5" font-family="Helvetica,sans-Serif" font-size="10.00"> OwnerQ</text>
</g>
<!-- Node6 -->
<g id="node6" class="node"><title>Node6</title>
<g id="a_node6"><a xlink:href="structpkgAcquire_1_1Queue_1_1QItem.xhtml" target="_top" xlink:title="A single item placed in this queue. ">
<polygon fill="white" stroke="black" points="251,-206.5 251,-225.5 295,-225.5 295,-206.5 251,-206.5"/>
<text text-anchor="middle" x="273" y="-213.5" font-family="Helvetica,sans-Serif" font-size="10.00">QItem</text>
</a>
</g>
</g>
<!-- Node6&#45;&gt;Node5 -->
<g id="edge6" class="edge"><title>Node6&#45;&gt;Node5</title>
<path fill="none" stroke="#9a32cd" stroke-dasharray="5,2" d="M302.836,-202.377C333.87,-189.247 381.621,-169.045 408.601,-157.63"/>
<polygon fill="#9a32cd" stroke="#9a32cd" points="301.24,-199.252 293.394,-206.372 303.968,-205.699 301.24,-199.252"/>
<text text-anchor="middle" x="379" y="-179.5" font-family="Helvetica,sans-Serif" font-size="10.00"> Items</text>
</g>
<!-- Node6&#45;&gt;Node6 -->
<g id="edge12" class="edge"><title>Node6&#45;&gt;Node6</title>
<path fill="none" stroke="#9a32cd" stroke-dasharray="5,2" d="M305.111,-221.591C309.259,-220.624 312,-218.76 312,-216 312,-211.352 304.224,-209.245 295.051,-209.681"/>
<polygon fill="#9a32cd" stroke="#9a32cd" points="304.772,-218.107 295.051,-222.319 305.277,-225.088 304.772,-218.107"/>
<text text-anchor="middle" x="324.5" y="-213.5" font-family="Helvetica,sans-Serif" font-size="10.00"> Next</text>
</g>
<!-- Node6&#45;&gt;Node10 -->
<g id="edge19" class="edge"><title>Node6&#45;&gt;Node10</title>
<path fill="none" stroke="#9a32cd" stroke-dasharray="5,2" d="M275.381,-196.122C279.558,-171.554 290.65,-129.259 319,-108 334.591,-96.3089 355.547,-89.112 371.661,-84.9473"/>
<polygon fill="#9a32cd" stroke="#9a32cd" points="271.876,-195.902 273.876,-206.307 278.8,-196.926 271.876,-195.902"/>
<text text-anchor="middle" x="321.5" y="-145.5" font-family="Helvetica,sans-Serif" font-size="10.00"> CurrentItem</text>
</g>
<!-- Node7&#45;&gt;Node1 -->
<g id="edge35" class="edge"><title>Node7&#45;&gt;Node1</title>
<path fill="none" stroke="#9a32cd" stroke-dasharray="5,2" d="M211.689,-287.881C205.085,-268.921 194.998,-239.961 190.009,-225.639"/>
<polygon fill="#9a32cd" stroke="#9a32cd" points="208.433,-289.174 215.028,-297.466 215.043,-286.871 208.433,-289.174"/>
<text text-anchor="middle" x="221.5" y="-258.5" font-family="Helvetica,sans-Serif" font-size="10.00"> Desc</text>
</g>
<!-- Node7&#45;&gt;Node6 -->
<g id="edge7" class="edge"><title>Node7&#45;&gt;Node6</title>
<path fill="none" stroke="midnightblue" d="M231.009,-289.422C233.744,-285.728 236.543,-281.784 239,-278 250.623,-260.104 262.334,-237.983 268.519,-225.905"/>
<polygon fill="midnightblue" stroke="midnightblue" points="228.213,-287.316 224.933,-297.391 233.78,-291.561 228.213,-287.316"/>
</g>
<!-- Node8 -->
<g id="node8" class="node"><title>Node8</title>
<g id="a_node8"><a xlink:title="STL class. ">
<polygon fill="white" stroke="#bfbfbf" points="363.5,-478.5 363.5,-497.5 404.5,-497.5 404.5,-478.5 363.5,-478.5"/>
<text text-anchor="middle" x="384" y="-485.5" font-family="Helvetica,sans-Serif" font-size="10.00">string</text>
</a>
</g>
</g>
<!-- Node8&#45;&gt;Node2 -->
<g id="edge32" class="edge"><title>Node8&#45;&gt;Node2</title>
<path fill="none" stroke="#9a32cd" stroke-dasharray="5,2" d="M352.958,-486.417C321.294,-484.714 271.485,-478.91 233,-460 203.344,-445.428 176.797,-415.586 164.787,-400.76"/>
<polygon fill="#9a32cd" stroke="#9a32cd" points="353.211,-489.931 363.352,-486.863 353.512,-482.938 353.211,-489.931"/>
<text text-anchor="middle" x="257.5" y="-451.5" font-family="Helvetica,sans-Serif" font-size="10.00"> DestFile</text>
<text text-anchor="middle" x="257.5" y="-440.5" font-family="Helvetica,sans-Serif" font-size="10.00">ErrorText</text>
<text text-anchor="middle" x="257.5" y="-429.5" font-family="Helvetica,sans-Serif" font-size="10.00">UsedMirror</text>
</g>
<!-- Node8&#45;&gt;Node5 -->
<g id="edge25" class="edge"><title>Node8&#45;&gt;Node5</title>
<path fill="none" stroke="#9a32cd" stroke-dasharray="5,2" d="M394.328,-469.39C395.765,-466.34 397.067,-463.138 398,-460 432.39,-344.272 430.418,-194.781 429.313,-157.638"/>
<polygon fill="#9a32cd" stroke="#9a32cd" points="391.163,-467.887 389.556,-478.359 397.343,-471.175 391.163,-467.887"/>
<text text-anchor="middle" x="441" y="-304.5" font-family="Helvetica,sans-Serif" font-size="10.00"> Name</text>
</g>
<!-- Node8&#45;&gt;Node7 -->
<g id="edge9" class="edge"><title>Node8&#45;&gt;Node7</title>
<path fill="none" stroke="#9a32cd" stroke-dasharray="5,2" d="M353.932,-474.563C345.001,-470.395 335.372,-465.416 327,-460 312.044,-450.326 276.231,-422.581 266,-408 246.371,-380.023 255.419,-365.974 239,-336 235.263,-329.179 230.013,-322.179 225.698,-316.884"/>
<polygon fill="#9a32cd" stroke="#9a32cd" points="352.701,-477.847 363.258,-478.749 355.568,-471.461 352.701,-477.847"/>
<text text-anchor="middle" x="292.5" y="-399.5" font-family="Helvetica,sans-Serif" font-size="10.00"> Description</text>
<text text-anchor="middle" x="292.5" y="-388.5" font-family="Helvetica,sans-Serif" font-size="10.00">URI</text>
<text text-anchor="middle" x="292.5" y="-377.5" font-family="Helvetica,sans-Serif" font-size="10.00">ShortDesc</text>
</g>
<!-- Node8&#45;&gt;Node10 -->
<g id="edge20" class="edge"><title>Node8&#45;&gt;Node10</title>
<path fill="none" stroke="#9a32cd" stroke-dasharray="5,2" d="M382.421,-468.397C377.938,-414.53 365.187,-253.756 361,-120 360.833,-114.669 358.69,-112.807 361,-108 364.91,-99.8643 372.463,-93.3525 379.555,-88.6635"/>
<polygon fill="#9a32cd" stroke="#9a32cd" points="378.943,-468.803 383.268,-478.474 385.918,-468.217 378.943,-468.803"/>
<text text-anchor="middle" x="393" y="-269.5" font-family="Helvetica,sans-Serif" font-size="10.00"> OutQueue</text>
<text text-anchor="middle" x="393" y="-258.5" font-family="Helvetica,sans-Serif" font-size="10.00">Access</text>
<text text-anchor="middle" x="393" y="-247.5" font-family="Helvetica,sans-Serif" font-size="10.00">Status</text>
</g>
<!-- Node11 -->
<g id="node11" class="node"><title>Node11</title>
<g id="a_node11"><a xlink:href="structpkgAcquire_1_1MethodConfig.xhtml" target="_top" xlink:title="Information about the properties of a single acquire method. {{{. ">
<polygon fill="white" stroke="black" points="624.5,-138.5 624.5,-157.5 701.5,-157.5 701.5,-138.5 624.5,-138.5"/>
<text text-anchor="middle" x="663" y="-145.5" font-family="Helvetica,sans-Serif" font-size="10.00">MethodConfig</text>
</a>
</g>
</g>
<!-- Node8&#45;&gt;Node11 -->
<g id="edge18" class="edge"><title>Node8&#45;&gt;Node11</title>
<path fill="none" stroke="#9a32cd" stroke-dasharray="5,2" d="M414.764,-483.512C441.241,-479.812 480.1,-472.695 512,-460 565.754,-438.607 623,-449.855 623,-392 623,-392 623,-392 623,-215 623,-191.687 641.479,-169.575 653.317,-157.801"/>
<polygon fill="#9a32cd" stroke="#9a32cd" points="414.035,-480.078 404.577,-484.852 414.948,-487.018 414.035,-480.078"/>
<text text-anchor="middle" x="641.5" y="-310" font-family="Helvetica,sans-Serif" font-size="10.00"> Access</text>
<text text-anchor="middle" x="641.5" y="-299" font-family="Helvetica,sans-Serif" font-size="10.00">Version</text>
</g>
<!-- Node13 -->
<g id="node13" class="node"><title>Node13</title>
<polygon fill="white" stroke="#bfbfbf" points="441.5,-336.5 441.5,-355.5 546.5,-355.5 546.5,-336.5 441.5,-336.5"/>
<text text-anchor="middle" x="494" y="-343.5" font-family="Helvetica,sans-Serif" font-size="10.00">vector&lt; std::string &gt;</text>
</g>
<!-- Node8&#45;&gt;Node13 -->
<g id="edge23" class="edge"><title>Node8&#45;&gt;Node13</title>
<path fill="none" stroke="#9a32cd" stroke-dasharray="5,2" d="M414,-477.013C423.184,-472.854 432.762,-467.263 440,-460 471.156,-428.735 486.856,-376 492.021,-355.505"/>
<polygon fill="#9a32cd" stroke="#9a32cd" points="412.606,-473.802 404.686,-480.839 415.266,-480.277 412.606,-473.802"/>
<text text-anchor="middle" x="486.5" y="-440.5" font-family="Helvetica,sans-Serif" font-size="10.00"> elements</text>
</g>
<!-- Node15 -->
<g id="node15" class="node"><title>Node15</title>
<g id="a_node15"><a xlink:href="classHashString.xhtml" target="_top" xlink:title="HashString">
<polygon fill="white" stroke="black" points="290.5,-336.5 290.5,-355.5 355.5,-355.5 355.5,-336.5 290.5,-336.5"/>
<text text-anchor="middle" x="323" y="-343.5" font-family="Helvetica,sans-Serif" font-size="10.00">HashString</text>
</a>
</g>
</g>
<!-- Node8&#45;&gt;Node15 -->
<g id="edge34" class="edge"><title>Node8&#45;&gt;Node15</title>
<path fill="none" stroke="#9a32cd" stroke-dasharray="5,2" d="M357.147,-472.595C352.498,-469.031 348.153,-464.826 345,-460 323.026,-426.37 321.996,-375.888 322.567,-355.749"/>
<polygon fill="#9a32cd" stroke="#9a32cd" points="355.4,-475.637 365.652,-478.311 359.305,-469.828 355.4,-475.637"/>
<text text-anchor="middle" x="357.5" y="-446" font-family="Helvetica,sans-Serif" font-size="10.00"> Type</text>
<text text-anchor="middle" x="357.5" y="-435" font-family="Helvetica,sans-Serif" font-size="10.00">Hash</text>
</g>
<!-- Node9 -->
<g id="node9" class="node"><title>Node9</title>
<g id="a_node9"><a xlink:title="STL class. ">
<polygon fill="white" stroke="#bfbfbf" points="331,-536.5 331,-555.5 437,-555.5 437,-536.5 331,-536.5"/>
<text text-anchor="middle" x="384" y="-543.5" font-family="Helvetica,sans-Serif" font-size="10.00">basic_string&lt; char &gt;</text>
</a>
</g>
</g>
<!-- Node9&#45;&gt;Node8 -->
<g id="edge10" class="edge"><title>Node9&#45;&gt;Node8</title>
<path fill="none" stroke="midnightblue" d="M384,-525.953C384,-516.287 384,-505.031 384,-497.505"/>
<polygon fill="midnightblue" stroke="midnightblue" points="380.5,-526.25 384,-536.25 387.5,-526.25 380.5,-526.25"/>
</g>
<!-- Node10&#45;&gt;Node4 -->
<g id="edge31" class="edge"><title>Node10&#45;&gt;Node4</title>
<path fill="none" stroke="#9a32cd" stroke-dasharray="5,2" d="M426.266,-65.4827C458.631,-52.0972 509.085,-31.2302 537.233,-19.5888"/>
<polygon fill="#9a32cd" stroke="#9a32cd" points="424.75,-62.3219 416.847,-69.3781 427.426,-68.7905 424.75,-62.3219"/>
<text text-anchor="middle" x="512" y="-41.5" font-family="Helvetica,sans-Serif" font-size="10.00"> Workers</text>
</g>
<!-- Node10&#45;&gt;Node5 -->
<g id="edge26" class="edge"><title>Node10&#45;&gt;Node5</title>
<path fill="none" stroke="#9a32cd" stroke-dasharray="5,2" d="M374.476,-95.4323C366.943,-102.762 361.57,-111.713 367,-120 375.686,-133.257 392.453,-140.041 406.362,-143.491"/>
<polygon fill="#9a32cd" stroke="#9a32cd" points="377.031,-97.856 382.409,-88.728 372.512,-92.5095 377.031,-97.856"/>
<text text-anchor="middle" x="387" y="-111.5" font-family="Helvetica,sans-Serif" font-size="10.00"> Workers</text>
</g>
<!-- Node10&#45;&gt;Node6 -->
<g id="edge13" class="edge"><title>Node10&#45;&gt;Node6</title>
<path fill="none" stroke="#9a32cd" stroke-dasharray="5,2" d="M361.738,-79.2563C319.697,-80.5131 250.93,-90.209 226,-138 212.599,-163.689 243.112,-192.461 261.067,-206.445"/>
<polygon fill="#9a32cd" stroke="#9a32cd" points="361.863,-82.7549 371.807,-79.1006 361.754,-75.7557 361.863,-82.7549"/>
<text text-anchor="middle" x="243.5" y="-145.5" font-family="Helvetica,sans-Serif" font-size="10.00"> Worker</text>
</g>
<!-- Node10&#45;&gt;Node10 -->
<g id="edge24" class="edge"><title>Node10&#45;&gt;Node10</title>
<path fill="none" stroke="#9a32cd" stroke-dasharray="5,2" d="M430.425,-84.6249C434.979,-83.6671 438,-81.7922 438,-79 438,-74.418 429.864,-72.3059 420.17,-72.6639"/>
<polygon fill="#9a32cd" stroke="#9a32cd" points="429.904,-81.1525 420.17,-85.3361 430.388,-88.1358 429.904,-81.1525"/>
<text text-anchor="middle" x="465.5" y="-82" font-family="Helvetica,sans-Serif" font-size="10.00"> NextQueue</text>
<text text-anchor="middle" x="465.5" y="-71" font-family="Helvetica,sans-Serif" font-size="10.00">NextAcquire</text>
</g>
<!-- Node11&#45;&gt;Node4 -->
<g id="edge27" class="edge"><title>Node11&#45;&gt;Node4</title>
<path fill="none" stroke="#9a32cd" stroke-dasharray="5,2" d="M676.666,-129.836C687.693,-113.797 700.139,-89.2086 692,-68 677.01,-28.9371 625.397,-16.5586 590.779,-12.6884"/>
<polygon fill="#9a32cd" stroke="#9a32cd" points="673.616,-128.074 670.503,-138.201 679.252,-132.226 673.616,-128.074"/>
<text text-anchor="middle" x="712.5" y="-76.5" font-family="Helvetica,sans-Serif" font-size="10.00"> Configs</text>
</g>
<!-- Node11&#45;&gt;Node10 -->
<g id="edge16" class="edge"><title>Node11&#45;&gt;Node10</title>
<path fill="none" stroke="#9a32cd" stroke-dasharray="5,2" d="M628.312,-135.194C603.157,-126.896 568.216,-115.908 537,-108 496.356,-97.704 448.333,-88.8629 420.121,-84.0013"/>
<polygon fill="#9a32cd" stroke="#9a32cd" points="627.523,-138.62 638.116,-138.456 629.732,-131.978 627.523,-138.62"/>
<text text-anchor="middle" x="594" y="-111.5" font-family="Helvetica,sans-Serif" font-size="10.00"> Config</text>
</g>
<!-- Node11&#45;&gt;Node11 -->
<g id="edge17" class="edge"><title>Node11&#45;&gt;Node11</title>
<path fill="none" stroke="#9a32cd" stroke-dasharray="5,2" d="M711.872,-153.042C716.251,-151.987 719,-150.307 719,-148 719,-144.215 711.597,-142.115 701.735,-141.701"/>
<polygon fill="#9a32cd" stroke="#9a32cd" points="711.229,-149.595 701.735,-154.299 712.09,-156.542 711.229,-149.595"/>
<text text-anchor="middle" x="731.5" y="-145.5" font-family="Helvetica,sans-Serif" font-size="10.00"> Next</text>
</g>
<!-- Node12 -->
<g id="node12" class="node"><title>Node12</title>
<g id="a_node12"><a xlink:href="classpkgAcquireStatus.xhtml" target="_top" xlink:title="A monitor object for downloads controlled by the pkgAcquire class. {{{. ">
<polygon fill="white" stroke="black" points="512,-138.5 512,-157.5 606,-157.5 606,-138.5 512,-138.5"/>
<text text-anchor="middle" x="559" y="-145.5" font-family="Helvetica,sans-Serif" font-size="10.00">pkgAcquireStatus</text>
</a>
</g>
</g>
<!-- Node12&#45;&gt;Node4 -->
<g id="edge28" class="edge"><title>Node12&#45;&gt;Node4</title>
<path fill="none" stroke="#9a32cd" stroke-dasharray="5,2" d="M614.577,-135.241C625.265,-131.451 635.939,-126.484 645,-120 665.407,-105.396 674.807,-91.8489 667,-68 661.856,-52.2863 658.462,-47.6001 645,-38 629.034,-26.6139 608.123,-19.9234 590.804,-16.051"/>
<polygon fill="#9a32cd" stroke="#9a32cd" points="613.241,-131.995 604.803,-138.402 615.394,-138.655 613.241,-131.995"/>
<text text-anchor="middle" x="678.5" y="-76.5" font-family="Helvetica,sans-Serif" font-size="10.00"> Log</text>
</g>
<!-- Node12&#45;&gt;Node10 -->
<g id="edge21" class="edge"><title>Node12&#45;&gt;Node10</title>
<path fill="none" stroke="#9a32cd" stroke-dasharray="5,2" d="M537.142,-132.805C522.129,-123.226 503.444,-111.685 495,-108 470.444,-97.2844 440.675,-89.5131 420.234,-84.9147"/>
<polygon fill="#9a32cd" stroke="#9a32cd" points="535.586,-135.966 545.891,-138.428 539.371,-130.077 535.586,-135.966"/>
<text text-anchor="middle" x="525.5" y="-111.5" font-family="Helvetica,sans-Serif" font-size="10.00"> Log</text>
</g>
<!-- Node13&#45;&gt;Node10 -->
<g id="edge22" class="edge"><title>Node13&#45;&gt;Node10</title>
<path fill="none" stroke="#9a32cd" stroke-dasharray="5,2" d="M490.432,-326.206C487.56,-309.433 484,-284.17 484,-262 484,-262 484,-262 484,-147 484,-114.741 446.102,-95.9673 420.046,-86.8724"/>
<polygon fill="#9a32cd" stroke="#9a32cd" points="487.037,-327.099 492.258,-336.318 493.925,-325.855 487.037,-327.099"/>
<text text-anchor="middle" x="520" y="-213.5" font-family="Helvetica,sans-Serif" font-size="10.00"> MessageQueue</text>
</g>
<!-- Node14&#45;&gt;Node4 -->
<g id="edge29" class="edge"><title>Node14&#45;&gt;Node4</title>
<path fill="none" stroke="#9a32cd" stroke-dasharray="5,2" d="M113,-235.713C113,-220.557 113,-200.642 113,-183 113,-183 113,-183 113,-78 113,-36.2993 422.511,-17.5536 525.278,-12.4787"/>
<polygon fill="#9a32cd" stroke="#9a32cd" points="109.5,-235.808 113,-245.808 116.5,-235.808 109.5,-235.808"/>
<text text-anchor="middle" x="127" y="-145.5" font-family="Helvetica,sans-Serif" font-size="10.00"> Items</text>
</g>
<!-- Node15&#45;&gt;Node1 -->
<g id="edge33" class="edge"><title>Node15&#45;&gt;Node1</title>
<path fill="none" stroke="#9a32cd" stroke-dasharray="5,2" d="M307.467,-328.612C304.288,-325.15 300.998,-321.488 298,-318 270.581,-286.102 271.486,-270.72 239,-244 229.808,-236.44 218.157,-230.15 208.214,-225.549"/>
<polygon fill="#9a32cd" stroke="#9a32cd" points="305.118,-331.225 314.498,-336.151 310.237,-326.45 305.118,-331.225"/>
<text text-anchor="middle" x="332" y="-304.5" font-family="Helvetica,sans-Serif" font-size="10.00"> ExpectedHash</text>
</g>
</g>
</svg>
        <g id="navigator" transform="translate(0 0)" fill="#404254">
                <rect fill="#f2f5e9" fill-opacity="0.5" stroke="#606060" stroke-width=".5" x="0" y="0" width="60" height="60"/>
                <use id="zoomplus" xlink:href="#zoomPlus" x="17" y="9" onmousedown="handleZoom(evt,'in')"/>
                <use id="zoomminus" xlink:href="#zoomMin" x="42" y="9" onmousedown="handleZoom(evt,'out')"/>
                <use id="reset" xlink:href="#resetDef" x="30" y="36" onmousedown="handleReset()"/>
                <g id="arrowUp" xlink:href="#dirArrow" transform="translate(30 24)" onmousedown="handlePan(0,-1)">
                  <use xlink:href="#rim" fill="#404040">
                        <set attributeName="fill" to="#808080" begin="arrowUp.mouseover" end="arrowUp.mouseout"/>
                  </use>
                  <path fill="none" stroke="white" stroke-width="1.5" d="M0,-3.0v7 M-2.5,-0.5L0,-3.0L2.5,-0.5"/>
                </g>
                <g id="arrowRight" xlink:href="#dirArrow" transform="rotate(90) translate(36 -43)" onmousedown="handlePan(1,0)">
                  <use xlink:href="#rim" fill="#404040">
                        <set attributeName="fill" to="#808080" begin="arrowRight.mouseover" end="arrowRight.mouseout"/>
                  </use>
                  <path fill="none" stroke="white" stroke-width="1.5" d="M0,-3.0v7 M-2.5,-0.5L0,-3.0L2.5,-0.5"/>
                </g>
                <g id="arrowDown" xlink:href="#dirArrow" transform="rotate(180) translate(-30 -48)" onmousedown="handlePan(0,1)">
                  <use xlink:href="#rim" fill="#404040">
                        <set attributeName="fill" to="#808080" begin="arrowDown.mouseover" end="arrowDown.mouseout"/>
                  </use>
                  <path fill="none" stroke="white" stroke-width="1.5" d="M0,-3.0v7 M-2.5,-0.5L0,-3.0L2.5,-0.5"/>
                </g>
                <g id="arrowLeft" xlink:href="#dirArrow" transform="rotate(270) translate(-36 17)" onmousedown="handlePan(-1,0)">
                  <use xlink:href="#rim" fill="#404040">
                        <set attributeName="fill" to="#808080" begin="arrowLeft.mouseover" end="arrowLeft.mouseout"/>
                  </use>
                  <path fill="none" stroke="white" stroke-width="1.5" d="M0,-3.0v7 M-2.5,-0.5L0,-3.0L2.5,-0.5"/>
                </g>
        </g>
        <svg viewBox="0 0 15 15" width="100%" height="30px" preserveAspectRatio="xMaxYMin meet">
         <g id="arrow_out" transform="scale(0.3 0.3)">
          <a xlink:href="classpkgAcqSubIndex__coll__graph_org.svg" target="_base">
           <rect id="button" ry="5" rx="5" y="6" x="6" height="38" width="38"
                fill="#f2f5e9" fill-opacity="0.5" stroke="#606060" stroke-width="1.0"/>
           <path id="arrow"
             d="M 11.500037,31.436501 C 11.940474,20.09759 22.043105,11.32322 32.158766,21.979434 L 37.068811,17.246167 C 37.068811,17.246167 37.088388,32 37.088388,32 L 22.160133,31.978069 C 22.160133,31.978069 26.997745,27.140456 26.997745,27.140456 C 18.528582,18.264221 13.291696,25.230495 11.500037,31.436501 z"
             style="fill:#404040;"/>
          </a>
         </g>
        </svg>
</svg>
