<?xml version="1.0" encoding="UTF-8" standalone="no"?>
<!DOCTYPE svg PUBLIC "-//W3C//DTD SVG 1.1//EN"
 "http://www.w3.org/Graphics/SVG/1.1/DTD/svg11.dtd">
<!-- Generated by graphviz version 2.36.0 (20140111.2315)
 -->
<!-- Title: pkgDepCache::DefaultRootSetFunc Pages: 1 -->
<svg width="213pt" height="96pt"
 viewBox="0.00 0.00 213.00 96.00" xmlns="http://www.w3.org/2000/svg" xmlns:xlink="http://www.w3.org/1999/xlink">
<g id="graph0" class="graph" transform="scale(1 1) rotate(0) translate(4 92)">
<title>pkgDepCache::DefaultRootSetFunc</title>
<polygon fill="white" stroke="none" points="-4,4 -4,-92 209,-92 209,4 -4,4"/>
<!-- Node1 -->
<g id="node1" class="node"><title>Node1</title>
<polygon fill="#bfbfbf" stroke="black" points="28.5,-1 28.5,-31 165.5,-31 165.5,-1 28.5,-1"/>
<text text-anchor="start" x="36.5" y="-19" font-family="Helvetica,sans-Serif" font-size="10.00">pkgDepCache::DefaultRoot</text>
<text text-anchor="middle" x="97" y="-8" font-family="Helvetica,sans-Serif" font-size="10.00">SetFunc</text>
</g>
<!-- Node2 -->
<g id="node2" class="node"><title>Node2</title>
<g id="a_node2"><a xlink:href="classpkgDepCache_1_1InRootSetFunc.xhtml" target="_top" xlink:title="An arbitrary predicate on packages. ">
<polygon fill="white" stroke="black" points="-0.5,-68.5 -0.5,-87.5 82.5,-87.5 82.5,-68.5 -0.5,-68.5"/>
<text text-anchor="middle" x="41" y="-75.5" font-family="Helvetica,sans-Serif" font-size="10.00">InRootSetFunc</text>
</a>
</g>
</g>
<!-- Node2&#45;&gt;Node1 -->
<g id="edge1" class="edge"><title>Node2&#45;&gt;Node1</title>
<path fill="none" stroke="midnightblue" d="M55.9736,-60.9569C64.642,-51.6693 75.4538,-40.0852 83.8019,-31.1408"/>
<polygon fill="midnightblue" stroke="midnightblue" points="53.2879,-58.7048 49.0234,-68.4035 58.4054,-63.481 53.2879,-58.7048"/>
</g>
<!-- Node3 -->
<g id="node3" class="node"><title>Node3</title>
<g id="a_node3"><a xlink:href="classConfiguration_1_1MatchAgainstConfig.xhtml" target="_top" xlink:title="match a string against a configurable list of patterns ">
<polygon fill="white" stroke="black" points="100.5,-68.5 100.5,-87.5 205.5,-87.5 205.5,-68.5 100.5,-68.5"/>
<text text-anchor="middle" x="153" y="-75.5" font-family="Helvetica,sans-Serif" font-size="10.00">MatchAgainstConfig</text>
</a>
</g>
</g>
<!-- Node3&#45;&gt;Node1 -->
<g id="edge2" class="edge"><title>Node3&#45;&gt;Node1</title>
<path fill="none" stroke="midnightblue" d="M138.026,-60.9569C129.358,-51.6693 118.546,-40.0852 110.198,-31.1408"/>
<polygon fill="midnightblue" stroke="midnightblue" points="135.595,-63.481 144.977,-68.4035 140.712,-58.7048 135.595,-63.481"/>
</g>
</g>
</svg>
