<?xml version="1.0" encoding="UTF-8" standalone="no"?>
<!DOCTYPE svg PUBLIC "-//W3C//DTD SVG 1.1//EN"
 "http://www.w3.org/Graphics/SVG/1.1/DTD/svg11.dtd">
<!-- Generated by graphviz version 2.36.0 (20140111.2315)
 -->
<!-- Title: pkgDepCache::Policy Pages: 1 -->
<svg width="129pt" height="84pt"
 viewBox="0.00 0.00 129.00 84.00" xmlns="http://www.w3.org/2000/svg" xmlns:xlink="http://www.w3.org/1999/xlink">
<g id="graph0" class="graph" transform="scale(1 1) rotate(0) translate(4 80)">
<title>pkgDepCache::Policy</title>
<polygon fill="white" stroke="none" points="-4,4 -4,-80 125,-80 125,4 -4,4"/>
<!-- Node1 -->
<g id="node1" class="node"><title>Node1</title>
<polygon fill="#bfbfbf" stroke="black" points="8,-56.5 8,-75.5 120,-75.5 120,-56.5 8,-56.5"/>
<text text-anchor="middle" x="64" y="-63.5" font-family="Helvetica,sans-Serif" font-size="10.00">pkgDepCache::Policy</text>
</g>
<!-- Node2 -->
<g id="node2" class="node"><title>Node2</title>
<g id="a_node2"><a xlink:href="classpkgPolicy.xhtml" target="_top" xlink:title="pkgPolicy">
<polygon fill="white" stroke="black" points="-0.5,-0.5 -0.5,-19.5 58.5,-19.5 58.5,-0.5 -0.5,-0.5"/>
<text text-anchor="middle" x="29" y="-7.5" font-family="Helvetica,sans-Serif" font-size="10.00">pkgPolicy</text>
</a>
</g>
</g>
<!-- Node1&#45;&gt;Node2 -->
<g id="edge1" class="edge"><title>Node1&#45;&gt;Node2</title>
<path fill="none" stroke="midnightblue" d="M52.6999,-47.5656C46.6781,-38.2747 39.5314,-27.2484 34.672,-19.7511"/>
<polygon fill="midnightblue" stroke="midnightblue" points="49.8444,-49.5951 58.2205,-56.083 55.7185,-45.7878 49.8444,-49.5951"/>
</g>
<!-- Node3 -->
<g id="node3" class="node"><title>Node3</title>
<g id="a_node3"><a xlink:href="classpkgSimulate_1_1Policy.xhtml" target="_top" xlink:title="Policy">
<polygon fill="white" stroke="black" points="77,-0.5 77,-19.5 121,-19.5 121,-0.5 77,-0.5"/>
<text text-anchor="middle" x="99" y="-7.5" font-family="Helvetica,sans-Serif" font-size="10.00">Policy</text>
</a>
</g>
</g>
<!-- Node1&#45;&gt;Node3 -->
<g id="edge2" class="edge"><title>Node1&#45;&gt;Node3</title>
<path fill="none" stroke="midnightblue" d="M75.3001,-47.5656C81.3219,-38.2747 88.4686,-27.2484 93.328,-19.7511"/>
<polygon fill="midnightblue" stroke="midnightblue" points="72.2815,-45.7878 69.7795,-56.083 78.1556,-49.5951 72.2815,-45.7878"/>
</g>
</g>
</svg>
