<?xml version="1.0" encoding="UTF-8" standalone="no"?>
<!DOCTYPE svg PUBLIC "-//W3C//DTD SVG 1.1//EN"
 "http://www.w3.org/Graphics/SVG/1.1/DTD/svg11.dtd">
<!-- Generated by graphviz version 2.36.0 (20140111.2315)
 -->
<!-- Title: apt&#45;pkg Pages: 1 -->
<svg width="310pt" height="76pt"
 viewBox="0.00 0.00 310.00 76.00" xmlns="http://www.w3.org/2000/svg" xmlns:xlink="http://www.w3.org/1999/xlink">
<g id="graph0" class="graph" transform="scale(1 1) rotate(0) translate(4 72)">
<title>apt&#45;pkg</title>
<polygon fill="white" stroke="none" points="-4,4 -4,-72 306,-72 306,4 -4,4"/>
<g id="clust1" class="cluster"><title>clusterdir_18f22d4be2ca84c350e120b6506056ca</title>
<g id="a_clust1"><a xlink:href="dir_18f22d4be2ca84c350e120b6506056ca.xhtml" target="_top">
<polygon fill="#eeeeff" stroke="black" points="8,-8 8,-60 294,-60 294,-8 8,-8"/>
</a>
</g>
</g>
<!-- dir_18f22d4be2ca84c350e120b6506056ca -->
<g id="node1" class="node"><title>dir_18f22d4be2ca84c350e120b6506056ca</title>
<text text-anchor="middle" x="259" y="-31.5" font-family="Helvetica,sans-Serif" font-size="10.00">apt&#45;pkg</text>
</g>
<!-- dir_c6ef23f15b074dcedf6810e24f2a7676 -->
<g id="node2" class="node"><title>dir_c6ef23f15b074dcedf6810e24f2a7676</title>
<g id="a_node2"><a xlink:href="dir_c6ef23f15b074dcedf6810e24f2a7676.xhtml" target="_top" xlink:title="contrib">
<polygon fill="white" stroke="black" points="214,-52 160,-52 160,-16 214,-16 214,-52"/>
<text text-anchor="middle" x="187" y="-31.5" font-family="Helvetica,sans-Serif" font-size="10.00">contrib</text>
</a>
</g>
</g>
<!-- dir_b856b2b7784a7c6bda5cb12e6897d9ab -->
<g id="node3" class="node"><title>dir_b856b2b7784a7c6bda5cb12e6897d9ab</title>
<g id="a_node3"><a xlink:href="dir_b856b2b7784a7c6bda5cb12e6897d9ab.xhtml" target="_top" xlink:title="deb">
<polygon fill="white" stroke="black" points="142,-52 88,-52 88,-16 142,-16 142,-52"/>
<text text-anchor="middle" x="115" y="-31.5" font-family="Helvetica,sans-Serif" font-size="10.00">deb</text>
</a>
</g>
</g>
<!-- dir_bd7d0b9c148e871156ef61b7c840fd65 -->
<g id="node4" class="node"><title>dir_bd7d0b9c148e871156ef61b7c840fd65</title>
<g id="a_node4"><a xlink:href="dir_bd7d0b9c148e871156ef61b7c840fd65.xhtml" target="_top" xlink:title="edsp">
<polygon fill="white" stroke="black" points="70,-52 16,-52 16,-16 70,-16 70,-52"/>
<text text-anchor="middle" x="43" y="-31.5" font-family="Helvetica,sans-Serif" font-size="10.00">edsp</text>
</a>
</g>
</g>
</g>
</svg>
