<?xml version="1.0" encoding="UTF-8" standalone="no"?>
<!DOCTYPE svg PUBLIC "-//W3C//DTD SVG 1.1//EN"
 "http://www.w3.org/Graphics/SVG/1.1/DTD/svg11.dtd">
<!-- Generated by graphviz version 2.36.0 (20140111.2315)
 -->
<!-- Title: Graphical Class Hierarchy Pages: 1 -->
<svg width="382pt" height="66pt"
 viewBox="0.00 0.00 382.00 66.00" xmlns="http://www.w3.org/2000/svg" xmlns:xlink="http://www.w3.org/1999/xlink">
<g id="graph0" class="graph" transform="scale(1 1) rotate(0) translate(4 62)">
<title>Graphical Class Hierarchy</title>
<polygon fill="white" stroke="none" points="-4,4 -4,-62 378,-62 378,4 -4,4"/>
<!-- Node1 -->
<g id="node1" class="node"><title>Node1</title>
<g id="a_node1"><a xlink:href="classpkgCacheGenerator_1_1ListParser.xhtml" target="_top" xlink:title="pkgCacheGenerator::\lListParser">
<polygon fill="white" stroke="black" points="0,-14 0,-44 110,-44 110,-14 0,-14"/>
<text text-anchor="start" x="8" y="-32" font-family="Helvetica,sans-Serif" font-size="10.00">pkgCacheGenerator::</text>
<text text-anchor="middle" x="55" y="-21" font-family="Helvetica,sans-Serif" font-size="10.00">ListParser</text>
</a>
</g>
</g>
<!-- Node2 -->
<g id="node2" class="node"><title>Node2</title>
<g id="a_node2"><a xlink:href="classdebListParser.xhtml" target="_top" xlink:title="debListParser">
<polygon fill="white" stroke="black" points="146.5,-19.5 146.5,-38.5 223.5,-38.5 223.5,-19.5 146.5,-19.5"/>
<text text-anchor="middle" x="185" y="-26.5" font-family="Helvetica,sans-Serif" font-size="10.00">debListParser</text>
</a>
</g>
</g>
<!-- Node1&#45;&gt;Node2 -->
<g id="edge1" class="edge"><title>Node1&#45;&gt;Node2</title>
<path fill="none" stroke="midnightblue" d="M120.303,-29C129.207,-29 138.103,-29 146.302,-29"/>
<polygon fill="midnightblue" stroke="midnightblue" points="120.284,-25.5001 110.284,-29 120.283,-32.5001 120.284,-25.5001"/>
</g>
<!-- Node3 -->
<g id="node3" class="node"><title>Node3</title>
<g id="a_node3"><a xlink:href="classdebTranslationsParser.xhtml" target="_top" xlink:title="debTranslationsParser">
<polygon fill="white" stroke="black" points="260,-38.5 260,-57.5 374,-57.5 374,-38.5 260,-38.5"/>
<text text-anchor="middle" x="317" y="-45.5" font-family="Helvetica,sans-Serif" font-size="10.00">debTranslationsParser</text>
</a>
</g>
</g>
<!-- Node2&#45;&gt;Node3 -->
<g id="edge2" class="edge"><title>Node2&#45;&gt;Node3</title>
<path fill="none" stroke="midnightblue" d="M233.649,-35.9641C242.093,-37.1982 250.958,-38.4938 259.615,-39.7591"/>
<polygon fill="midnightblue" stroke="midnightblue" points="234.002,-32.4786 223.601,-34.4956 232.99,-39.4051 234.002,-32.4786"/>
</g>
<!-- Node4 -->
<g id="node4" class="node"><title>Node4</title>
<g id="a_node4"><a xlink:href="classedspListParser.xhtml" target="_top" xlink:title="edspListParser">
<polygon fill="white" stroke="black" points="276,-0.5 276,-19.5 358,-19.5 358,-0.5 276,-0.5"/>
<text text-anchor="middle" x="317" y="-7.5" font-family="Helvetica,sans-Serif" font-size="10.00">edspListParser</text>
</a>
</g>
</g>
<!-- Node2&#45;&gt;Node4 -->
<g id="edge3" class="edge"><title>Node2&#45;&gt;Node4</title>
<path fill="none" stroke="midnightblue" d="M233.868,-22.0039C247.635,-19.9918 262.505,-17.8185 275.76,-15.8812"/>
<polygon fill="midnightblue" stroke="midnightblue" points="232.99,-18.5949 223.601,-23.5044 234.002,-25.5214 232.99,-18.5949"/>
</g>
</g>
</svg>
