<?xml version="1.0" encoding="UTF-8" standalone="no"?>
<!DOCTYPE svg PUBLIC "-//W3C//DTD SVG 1.1//EN"
 "http://www.w3.org/Graphics/SVG/1.1/DTD/svg11.dtd">
<!-- Generated by graphviz version 2.36.0 (20140111.2315)
 -->
<!-- Title: Graphical Class Hierarchy Pages: 1 -->
<svg width="260pt" height="66pt"
 viewBox="0.00 0.00 260.00 66.00" xmlns="http://www.w3.org/2000/svg" xmlns:xlink="http://www.w3.org/1999/xlink">
<g id="graph0" class="graph" transform="scale(1 1) rotate(0) translate(4 62)">
<title>Graphical Class Hierarchy</title>
<polygon fill="white" stroke="none" points="-4,4 -4,-62 256,-62 256,4 -4,4"/>
<!-- Node1 -->
<g id="node1" class="node"><title>Node1</title>
<g id="a_node1"><a xlink:href="classpkgDepCache_1_1Policy.xhtml" target="_top" xlink:title="pkgDepCache::Policy">
<polygon fill="white" stroke="black" points="0,-19.5 0,-38.5 112,-38.5 112,-19.5 0,-19.5"/>
<text text-anchor="middle" x="56" y="-26.5" font-family="Helvetica,sans-Serif" font-size="10.00">pkgDepCache::Policy</text>
</a>
</g>
</g>
<!-- Node2 -->
<g id="node2" class="node"><title>Node2</title>
<g id="a_node2"><a xlink:href="classpkgPolicy.xhtml" target="_top" xlink:title="pkgPolicy">
<polygon fill="white" stroke="black" points="170.5,-38.5 170.5,-57.5 229.5,-57.5 229.5,-38.5 170.5,-38.5"/>
<text text-anchor="middle" x="200" y="-45.5" font-family="Helvetica,sans-Serif" font-size="10.00">pkgPolicy</text>
</a>
</g>
</g>
<!-- Node1&#45;&gt;Node2 -->
<g id="edge1" class="edge"><title>Node1&#45;&gt;Node2</title>
<path fill="none" stroke="midnightblue" d="M122.625,-37.7808C139.331,-40.0162 156.437,-42.3049 170.213,-44.1483"/>
<polygon fill="midnightblue" stroke="midnightblue" points="122.683,-34.2575 112.308,-36.4003 121.755,-41.1957 122.683,-34.2575"/>
</g>
<!-- Node3 -->
<g id="node3" class="node"><title>Node3</title>
<g id="a_node3"><a xlink:href="classpkgSimulate_1_1Policy.xhtml" target="_top" xlink:title="pkgSimulate::Policy">
<polygon fill="white" stroke="black" points="148,-0.5 148,-19.5 252,-19.5 252,-0.5 148,-0.5"/>
<text text-anchor="middle" x="200" y="-7.5" font-family="Helvetica,sans-Serif" font-size="10.00">pkgSimulate::Policy</text>
</a>
</g>
</g>
<!-- Node1&#45;&gt;Node3 -->
<g id="edge2" class="edge"><title>Node1&#45;&gt;Node3</title>
<path fill="none" stroke="midnightblue" d="M122.275,-20.266C130.835,-19.1207 139.507,-17.9604 147.788,-16.8523"/>
<polygon fill="midnightblue" stroke="midnightblue" points="121.755,-16.8043 112.308,-21.5997 122.683,-23.7425 121.755,-16.8043"/>
</g>
</g>
</svg>
