<?xml version="1.0" encoding="UTF-8" standalone="no"?>
<!DOCTYPE svg PUBLIC "-//W3C//DTD SVG 1.1//EN"
 "http://www.w3.org/Graphics/SVG/1.1/DTD/svg11.dtd">
<!-- Generated by graphviz version 2.36.0 (20140111.2315)
 -->
<!-- Title: Graphical Class Hierarchy Pages: 1 -->
<svg width="186pt" height="66pt"
 viewBox="0.00 0.00 186.00 66.00" xmlns="http://www.w3.org/2000/svg" xmlns:xlink="http://www.w3.org/1999/xlink">
<g id="graph0" class="graph" transform="scale(1 1) rotate(0) translate(4 62)">
<title>Graphical Class Hierarchy</title>
<polygon fill="white" stroke="none" points="-4,4 -4,-62 182,-62 182,4 -4,4"/>
<!-- Node1 -->
<g id="node1" class="node"><title>Node1</title>
<g id="a_node1"><a xlink:href="classIndexCopy.xhtml" target="_top" xlink:title="IndexCopy">
<polygon fill="white" stroke="black" points="0,-19.5 0,-38.5 64,-38.5 64,-19.5 0,-19.5"/>
<text text-anchor="middle" x="32" y="-26.5" font-family="Helvetica,sans-Serif" font-size="10.00">IndexCopy</text>
</a>
</g>
</g>
<!-- Node2 -->
<g id="node2" class="node"><title>Node2</title>
<g id="a_node2"><a xlink:href="classPackageCopy.xhtml" target="_top" xlink:title="PackageCopy">
<polygon fill="white" stroke="black" points="100,-38.5 100,-57.5 178,-57.5 178,-38.5 100,-38.5"/>
<text text-anchor="middle" x="139" y="-45.5" font-family="Helvetica,sans-Serif" font-size="10.00">PackageCopy</text>
</a>
</g>
</g>
<!-- Node1&#45;&gt;Node2 -->
<g id="edge1" class="edge"><title>Node1&#45;&gt;Node2</title>
<path fill="none" stroke="midnightblue" d="M74.1882,-36.4531C82.5757,-37.9708 91.3676,-39.5618 99.6515,-41.0608"/>
<polygon fill="midnightblue" stroke="midnightblue" points="74.6826,-32.9858 64.2192,-34.6492 73.4361,-39.8739 74.6826,-32.9858"/>
</g>
<!-- Node3 -->
<g id="node3" class="node"><title>Node3</title>
<g id="a_node3"><a xlink:href="classSourceCopy.xhtml" target="_top" xlink:title="SourceCopy">
<polygon fill="white" stroke="black" points="103.5,-0.5 103.5,-19.5 174.5,-19.5 174.5,-0.5 103.5,-0.5"/>
<text text-anchor="middle" x="139" y="-7.5" font-family="Helvetica,sans-Serif" font-size="10.00">SourceCopy</text>
</a>
</g>
</g>
<!-- Node1&#45;&gt;Node3 -->
<g id="edge2" class="edge"><title>Node1&#45;&gt;Node3</title>
<path fill="none" stroke="midnightblue" d="M74.074,-21.5676C83.7777,-19.8117 94.0287,-17.9567 103.412,-16.2587"/>
<polygon fill="midnightblue" stroke="midnightblue" points="73.4361,-18.1261 64.2192,-23.3508 74.6826,-25.0142 73.4361,-18.1261"/>
</g>
</g>
</svg>
