<?xml version="1.0" encoding="UTF-8" standalone="no"?>
<!DOCTYPE svg PUBLIC "-//W3C//DTD SVG 1.1//EN"
 "http://www.w3.org/Graphics/SVG/1.1/DTD/svg11.dtd">
<!-- Generated by graphviz version 2.36.0 (20140111.2315)
 -->
<!-- Title: Graphical Class Hierarchy Pages: 1 -->
<svg width="360pt" height="142pt"
 viewBox="0.00 0.00 360.00 142.00" xmlns="http://www.w3.org/2000/svg" xmlns:xlink="http://www.w3.org/1999/xlink">
<g id="graph0" class="graph" transform="scale(1 1) rotate(0) translate(4 138)">
<title>Graphical Class Hierarchy</title>
<polygon fill="white" stroke="none" points="-4,4 -4,-138 356,-138 356,4 -4,4"/>
<!-- Node1 -->
<g id="node1" class="node"><title>Node1</title>
<g id="a_node1"><a xlink:href="classpkgIndexFile_1_1Type.xhtml" target="_top" xlink:title="pkgIndexFile::Type">
<polygon fill="white" stroke="black" points="0,-57.5 0,-76.5 100,-76.5 100,-57.5 0,-57.5"/>
<text text-anchor="middle" x="50" y="-64.5" font-family="Helvetica,sans-Serif" font-size="10.00">pkgIndexFile::Type</text>
</a>
</g>
</g>
<!-- Node2 -->
<g id="node2" class="node"><title>Node2</title>
<g id="a_node2"><a xlink:href="classdebIFTypePkg.xhtml" target="_top" xlink:title="debIFTypePkg">
<polygon fill="white" stroke="black" points="142,-114.5 142,-133.5 222,-133.5 222,-114.5 142,-114.5"/>
<text text-anchor="middle" x="182" y="-121.5" font-family="Helvetica,sans-Serif" font-size="10.00">debIFTypePkg</text>
</a>
</g>
</g>
<!-- Node1&#45;&gt;Node2 -->
<g id="edge1" class="edge"><title>Node1&#45;&gt;Node2</title>
<path fill="none" stroke="midnightblue" d="M81.7251,-80.9217C97.8489,-88.1804 117.953,-97.157 136,-105 143.155,-108.11 150.98,-111.438 158.068,-114.426"/>
<polygon fill="midnightblue" stroke="midnightblue" points="82.8089,-77.571 72.2542,-76.6497 79.9306,-83.9519 82.8089,-77.571"/>
</g>
<!-- Node4 -->
<g id="node4" class="node"><title>Node4</title>
<g id="a_node4"><a xlink:href="classdebIFTypeSrc.xhtml" target="_top" xlink:title="debIFTypeSrc">
<polygon fill="white" stroke="black" points="143,-76.5 143,-95.5 221,-95.5 221,-76.5 143,-76.5"/>
<text text-anchor="middle" x="182" y="-83.5" font-family="Helvetica,sans-Serif" font-size="10.00">debIFTypeSrc</text>
</a>
</g>
</g>
<!-- Node1&#45;&gt;Node4 -->
<g id="edge3" class="edge"><title>Node1&#45;&gt;Node4</title>
<path fill="none" stroke="midnightblue" d="M110.194,-75.6514C121.243,-77.2662 132.517,-78.914 142.726,-80.4061"/>
<polygon fill="midnightblue" stroke="midnightblue" points="110.548,-72.1661 100.147,-74.1831 109.536,-79.0926 110.548,-72.1661"/>
</g>
<!-- Node5 -->
<g id="node5" class="node"><title>Node5</title>
<g id="a_node5"><a xlink:href="classdebIFTypeStatus.xhtml" target="_top" xlink:title="debIFTypeStatus">
<polygon fill="white" stroke="black" points="136,-38.5 136,-57.5 228,-57.5 228,-38.5 136,-38.5"/>
<text text-anchor="middle" x="182" y="-45.5" font-family="Helvetica,sans-Serif" font-size="10.00">debIFTypeStatus</text>
</a>
</g>
</g>
<!-- Node1&#45;&gt;Node5 -->
<g id="edge4" class="edge"><title>Node1&#45;&gt;Node5</title>
<path fill="none" stroke="midnightblue" d="M110.111,-58.3607C118.683,-57.1078 127.393,-55.8349 135.638,-54.6299"/>
<polygon fill="midnightblue" stroke="midnightblue" points="109.536,-54.9074 100.147,-59.8169 110.548,-61.8339 109.536,-54.9074"/>
</g>
<!-- Node6 -->
<g id="node6" class="node"><title>Node6</title>
<g id="a_node6"><a xlink:href="classedspIFType.xhtml" target="_top" xlink:title="edspIFType">
<polygon fill="white" stroke="black" points="148,-0.5 148,-19.5 216,-19.5 216,-0.5 148,-0.5"/>
<text text-anchor="middle" x="182" y="-7.5" font-family="Helvetica,sans-Serif" font-size="10.00">edspIFType</text>
</a>
</g>
</g>
<!-- Node1&#45;&gt;Node6 -->
<g id="edge5" class="edge"><title>Node1&#45;&gt;Node6</title>
<path fill="none" stroke="midnightblue" d="M81.7251,-53.0783C97.8489,-45.8196 117.953,-36.843 136,-29 143.155,-25.8904 150.98,-22.5619 158.068,-19.5736"/>
<polygon fill="midnightblue" stroke="midnightblue" points="79.9306,-50.0481 72.2542,-57.3503 82.8089,-56.429 79.9306,-50.0481"/>
</g>
<!-- Node3 -->
<g id="node3" class="node"><title>Node3</title>
<g id="a_node3"><a xlink:href="classdebIFTypeTrans.xhtml" target="_top" xlink:title="debIFTypeTrans">
<polygon fill="white" stroke="black" points="264,-114.5 264,-133.5 352,-133.5 352,-114.5 264,-114.5"/>
<text text-anchor="middle" x="308" y="-121.5" font-family="Helvetica,sans-Serif" font-size="10.00">debIFTypeTrans</text>
</a>
</g>
</g>
<!-- Node2&#45;&gt;Node3 -->
<g id="edge2" class="edge"><title>Node2&#45;&gt;Node3</title>
<path fill="none" stroke="midnightblue" d="M232.387,-124C242.748,-124 253.6,-124 263.718,-124"/>
<polygon fill="midnightblue" stroke="midnightblue" points="232.234,-120.5 222.234,-124 232.234,-127.5 232.234,-120.5"/>
</g>
</g>
</svg>
