<?xml version="1.0" encoding="UTF-8" standalone="no"?>
<!DOCTYPE svg PUBLIC "-//W3C//DTD SVG 1.1//EN"
 "http://www.w3.org/Graphics/SVG/1.1/DTD/svg11.dtd">
<!-- Generated by graphviz version 2.36.0 (20140111.2315)
 -->
<!-- Title: Graphical Class Hierarchy Pages: 1 -->
<svg width="334pt" height="77pt"
 viewBox="0.00 0.00 334.00 77.00" xmlns="http://www.w3.org/2000/svg" xmlns:xlink="http://www.w3.org/1999/xlink">
<g id="graph0" class="graph" transform="scale(1 1) rotate(0) translate(4 73)">
<title>Graphical Class Hierarchy</title>
<polygon fill="white" stroke="none" points="-4,4 -4,-73 330,-73 330,4 -4,4"/>
<!-- Node1 -->
<g id="node1" class="node"><title>Node1</title>
<g id="a_node1"><a xlink:href="classpkgDepCache_1_1InRootSetFunc.xhtml" target="_top" xlink:title="An arbitrary predicate on packages. ">
<polygon fill="white" stroke="black" points="0.5,-49.5 0.5,-68.5 151.5,-68.5 151.5,-49.5 0.5,-49.5"/>
<text text-anchor="middle" x="76" y="-56.5" font-family="Helvetica,sans-Serif" font-size="10.00">pkgDepCache::InRootSetFunc</text>
</a>
</g>
</g>
<!-- Node2 -->
<g id="node2" class="node"><title>Node2</title>
<g id="a_node2"><a xlink:href="classpkgDepCache_1_1DefaultRootSetFunc.xhtml" target="_top" xlink:title="Returns true for packages matching a regular expression in APT::NeverAutoRemove. ">
<polygon fill="white" stroke="black" points="188.5,-22 188.5,-52 325.5,-52 325.5,-22 188.5,-22"/>
<text text-anchor="start" x="196.5" y="-40" font-family="Helvetica,sans-Serif" font-size="10.00">pkgDepCache::DefaultRoot</text>
<text text-anchor="middle" x="257" y="-29" font-family="Helvetica,sans-Serif" font-size="10.00">SetFunc</text>
</a>
</g>
</g>
<!-- Node1&#45;&gt;Node2 -->
<g id="edge1" class="edge"><title>Node1&#45;&gt;Node2</title>
<path fill="none" stroke="midnightblue" d="M161.676,-48.593C170.627,-47.4928 179.642,-46.3847 188.363,-45.3129"/>
<polygon fill="midnightblue" stroke="midnightblue" points="161.114,-45.1355 151.616,-49.8293 161.968,-52.0832 161.114,-45.1355"/>
</g>
<!-- Node3 -->
<g id="node3" class="node"><title>Node3</title>
<g id="a_node3"><a xlink:href="classConfiguration_1_1MatchAgainstConfig.xhtml" target="_top" xlink:title="match a string against a configurable list of patterns ">
<polygon fill="white" stroke="black" points="6,-0 6,-30 146,-30 146,-0 6,-0"/>
<text text-anchor="start" x="14" y="-18" font-family="Helvetica,sans-Serif" font-size="10.00">Configuration::MatchAgainst</text>
<text text-anchor="middle" x="76" y="-7" font-family="Helvetica,sans-Serif" font-size="10.00">Config</text>
</a>
</g>
</g>
<!-- Node3&#45;&gt;Node2 -->
<g id="edge2" class="edge"><title>Node3&#45;&gt;Node2</title>
<path fill="none" stroke="midnightblue" d="M156.385,-24.7568C167.086,-26.072 177.982,-27.4111 188.45,-28.6978"/>
<polygon fill="midnightblue" stroke="midnightblue" points="156.558,-21.2519 146.206,-23.5058 155.704,-28.1996 156.558,-21.2519"/>
</g>
</g>
</svg>
