<?xml version="1.0" encoding="UTF-8" standalone="no"?>
<!DOCTYPE svg PUBLIC "-//W3C//DTD SVG 1.1//EN"
 "http://www.w3.org/Graphics/SVG/1.1/DTD/svg11.dtd">
<!-- Generated by graphviz version 2.36.0 (20140111.2315)
 -->
<!-- Title: Graphical Class Hierarchy Pages: 1 -->
<svg width="380pt" height="123pt"
 viewBox="0.00 0.00 380.00 123.00" xmlns="http://www.w3.org/2000/svg" xmlns:xlink="http://www.w3.org/1999/xlink">
<g id="graph0" class="graph" transform="scale(1 1) rotate(0) translate(4 119)">
<title>Graphical Class Hierarchy</title>
<polygon fill="white" stroke="none" points="-4,4 -4,-119 376,-119 376,4 -4,4"/>
<!-- Node1 -->
<g id="node1" class="node"><title>Node1</title>
<g id="a_node1"><a xlink:href="classpkgCache_1_1Namespace.xhtml" target="_top" xlink:title="pkgCache::Namespace">
<polygon fill="white" stroke="black" points="0.5,-57.5 0.5,-76.5 119.5,-76.5 119.5,-57.5 0.5,-57.5"/>
<text text-anchor="middle" x="60" y="-64.5" font-family="Helvetica,sans-Serif" font-size="10.00">pkgCache::Namespace</text>
</a>
</g>
</g>
<!-- Node2 -->
<g id="node2" class="node"><title>Node2</title>
<g id="a_node2"><a xlink:href="classpkgDepCache.xhtml" target="_top" xlink:title="pkgDepCache">
<polygon fill="white" stroke="black" points="170.5,-95.5 170.5,-114.5 249.5,-114.5 249.5,-95.5 170.5,-95.5"/>
<text text-anchor="middle" x="210" y="-102.5" font-family="Helvetica,sans-Serif" font-size="10.00">pkgDepCache</text>
</a>
</g>
</g>
<!-- Node1&#45;&gt;Node2 -->
<g id="edge1" class="edge"><title>Node1&#45;&gt;Node2</title>
<path fill="none" stroke="darkgreen" d="M108.173,-79.1121C128.786,-84.4044 152.609,-90.5213 171.922,-95.4799"/>
<polygon fill="darkgreen" stroke="darkgreen" points="108.903,-75.6859 98.3466,-76.589 107.162,-82.466 108.903,-75.6859"/>
</g>
<!-- Node3 -->
<g id="node3" class="node"><title>Node3</title>
<g id="a_node3"><a xlink:href="classpkgOrderList.xhtml" target="_top" xlink:title="pkgOrderList">
<polygon fill="white" stroke="black" points="174,-57.5 174,-76.5 246,-76.5 246,-57.5 174,-57.5"/>
<text text-anchor="middle" x="210" y="-64.5" font-family="Helvetica,sans-Serif" font-size="10.00">pkgOrderList</text>
</a>
</g>
</g>
<!-- Node1&#45;&gt;Node3 -->
<g id="edge2" class="edge"><title>Node1&#45;&gt;Node3</title>
<path fill="none" stroke="darkgreen" d="M130.27,-67C145.326,-67 160.645,-67 173.719,-67"/>
<polygon fill="darkgreen" stroke="darkgreen" points="129.919,-63.5001 119.919,-67 129.919,-70.5001 129.919,-63.5001"/>
</g>
<!-- Node4 -->
<g id="node4" class="node"><title>Node4</title>
<g id="a_node4"><a xlink:href="classpkgPackageManager.xhtml" target="_top" xlink:title="pkgPackageManager">
<polygon fill="white" stroke="black" points="156,-19.5 156,-38.5 264,-38.5 264,-19.5 156,-19.5"/>
<text text-anchor="middle" x="210" y="-26.5" font-family="Helvetica,sans-Serif" font-size="10.00">pkgPackageManager</text>
</a>
</g>
</g>
<!-- Node1&#45;&gt;Node4 -->
<g id="edge3" class="edge"><title>Node1&#45;&gt;Node4</title>
<path fill="none" stroke="darkgreen" d="M108.173,-54.8879C128.786,-49.5956 152.609,-43.4787 171.922,-38.5201"/>
<polygon fill="darkgreen" stroke="darkgreen" points="107.162,-51.534 98.3466,-57.411 108.903,-58.3141 107.162,-51.534"/>
</g>
<!-- Node5 -->
<g id="node5" class="node"><title>Node5</title>
<g id="a_node5"><a xlink:href="classpkgDPkgPM.xhtml" target="_top" xlink:title="pkgDPkgPM">
<polygon fill="white" stroke="black" points="300,-38.5 300,-57.5 372,-57.5 372,-38.5 300,-38.5"/>
<text text-anchor="middle" x="336" y="-45.5" font-family="Helvetica,sans-Serif" font-size="10.00">pkgDPkgPM</text>
</a>
</g>
</g>
<!-- Node4&#45;&gt;Node5 -->
<g id="edge4" class="edge"><title>Node4&#45;&gt;Node5</title>
<path fill="none" stroke="midnightblue" d="M274.451,-38.7223C283.111,-40.0493 291.734,-41.3706 299.643,-42.5824"/>
<polygon fill="midnightblue" stroke="midnightblue" points="274.722,-35.223 264.307,-37.168 273.661,-42.1423 274.722,-35.223"/>
</g>
<!-- Node6 -->
<g id="node6" class="node"><title>Node6</title>
<g id="a_node6"><a xlink:href="classpkgSimulate.xhtml" target="_top" xlink:title="pkgSimulate">
<polygon fill="white" stroke="black" points="300.5,-0.5 300.5,-19.5 371.5,-19.5 371.5,-0.5 300.5,-0.5"/>
<text text-anchor="middle" x="336" y="-7.5" font-family="Helvetica,sans-Serif" font-size="10.00">pkgSimulate</text>
</a>
</g>
</g>
<!-- Node4&#45;&gt;Node6 -->
<g id="edge5" class="edge"><title>Node4&#45;&gt;Node6</title>
<path fill="none" stroke="midnightblue" d="M274.385,-19.2877C283.333,-17.9167 292.242,-16.5517 300.366,-15.3068"/>
<polygon fill="midnightblue" stroke="midnightblue" points="273.661,-15.8577 264.307,-20.832 274.722,-22.777 273.661,-15.8577"/>
</g>
</g>
</svg>
