<?xml version="1.0" encoding="UTF-8" standalone="no"?>
<!DOCTYPE svg PUBLIC "-//W3C//DTD SVG 1.1//EN"
 "http://www.w3.org/Graphics/SVG/1.1/DTD/svg11.dtd">
<!-- Generated by graphviz version 2.36.0 (20140111.2315)
 -->
<!-- Title: Graphical Class Hierarchy Pages: 1 -->
<svg width="512pt" height="675pt"
 viewBox="0.00 0.00 512.00 675.00" xmlns="http://www.w3.org/2000/svg" xmlns:xlink="http://www.w3.org/1999/xlink">
<g id="graph0" class="graph" transform="scale(1 1) rotate(0) translate(4 671)">
<title>Graphical Class Hierarchy</title>
<polygon fill="white" stroke="none" points="-4,4 -4,-671 508,-671 508,4 -4,4"/>
<!-- Node1 -->
<g id="node1" class="node"><title>Node1</title>
<g id="a_node1"><a xlink:href="classAPT_1_1PackageContainerInterface_1_1const__iterator.xhtml" target="_top" xlink:title="PackageContainerInterface\l::const_iterator">
<polygon fill="white" stroke="black" points="0.5,-612 0.5,-642 135.5,-642 135.5,-612 0.5,-612"/>
<text text-anchor="start" x="8.5" y="-630" font-family="Helvetica,sans-Serif" font-size="10.00">PackageContainerInterface</text>
<text text-anchor="middle" x="68" y="-619" font-family="Helvetica,sans-Serif" font-size="10.00">::const_iterator</text>
</a>
</g>
</g>
<!-- Node2 -->
<g id="node2" class="node"><title>Node2</title>
<g id="a_node2"><a xlink:href="classAPT_1_1PackageContainer_1_1const__iterator.xhtml" target="_top" xlink:title="smell like a pkgCache::PkgIterator ">
<polygon fill="white" stroke="black" points="177,-637 177,-667 325,-667 325,-637 177,-637"/>
<text text-anchor="start" x="185" y="-655" font-family="Helvetica,sans-Serif" font-size="10.00">PackageContainer&lt; Container</text>
<text text-anchor="middle" x="251" y="-644" font-family="Helvetica,sans-Serif" font-size="10.00"> &gt;::const_iterator</text>
</a>
</g>
</g>
<!-- Node1&#45;&gt;Node2 -->
<g id="edge1" class="edge"><title>Node1&#45;&gt;Node2</title>
<path fill="none" stroke="midnightblue" d="M145.802,-637.608C156.078,-639.027 166.596,-640.48 176.808,-641.891"/>
<polygon fill="midnightblue" stroke="midnightblue" points="146.011,-634.104 135.627,-636.203 145.054,-641.038 146.011,-634.104"/>
</g>
<!-- Node3 -->
<g id="node3" class="node"><title>Node3</title>
<g id="a_node3"><a xlink:href="classAPT_1_1PackageContainer_1_1iterator.xhtml" target="_top" xlink:title="PackageContainer\&lt; Container\l \&gt;::iterator">
<polygon fill="white" stroke="black" points="177,-588 177,-618 325,-618 325,-588 177,-588"/>
<text text-anchor="start" x="185" y="-606" font-family="Helvetica,sans-Serif" font-size="10.00">PackageContainer&lt; Container</text>
<text text-anchor="middle" x="251" y="-595" font-family="Helvetica,sans-Serif" font-size="10.00"> &gt;::iterator</text>
</a>
</g>
</g>
<!-- Node1&#45;&gt;Node3 -->
<g id="edge2" class="edge"><title>Node1&#45;&gt;Node3</title>
<path fill="none" stroke="midnightblue" d="M145.802,-616.816C156.078,-615.454 166.596,-614.059 176.808,-612.705"/>
<polygon fill="midnightblue" stroke="midnightblue" points="145.08,-613.381 135.627,-618.166 146,-620.321 145.08,-613.381"/>
</g>
<!-- Node4 -->
<g id="node4" class="node"><title>Node4</title>
<g id="a_node4"><a xlink:href="classAPT_1_1VersionContainerInterface_1_1const__iterator.xhtml" target="_top" xlink:title="smell like a pkgCache::VerIterator ">
<polygon fill="white" stroke="black" points="3,-514 3,-544 133,-544 133,-514 3,-514"/>
<text text-anchor="start" x="11" y="-532" font-family="Helvetica,sans-Serif" font-size="10.00">VersionContainerInterface</text>
<text text-anchor="middle" x="68" y="-521" font-family="Helvetica,sans-Serif" font-size="10.00">::const_iterator</text>
</a>
</g>
</g>
<!-- Node5 -->
<g id="node5" class="node"><title>Node5</title>
<g id="a_node5"><a xlink:href="classAPT_1_1VersionContainer_1_1const__iterator.xhtml" target="_top" xlink:title="smell like a pkgCache::VerIterator ">
<polygon fill="white" stroke="black" points="179.5,-539 179.5,-569 322.5,-569 322.5,-539 179.5,-539"/>
<text text-anchor="start" x="187.5" y="-557" font-family="Helvetica,sans-Serif" font-size="10.00">VersionContainer&lt; Container</text>
<text text-anchor="middle" x="251" y="-546" font-family="Helvetica,sans-Serif" font-size="10.00"> &gt;::const_iterator</text>
</a>
</g>
</g>
<!-- Node4&#45;&gt;Node5 -->
<g id="edge3" class="edge"><title>Node4&#45;&gt;Node5</title>
<path fill="none" stroke="midnightblue" d="M143.011,-539.223C154.982,-540.876 167.351,-542.584 179.243,-544.227"/>
<polygon fill="midnightblue" stroke="midnightblue" points="143.453,-535.75 133.069,-537.849 142.496,-542.685 143.453,-535.75"/>
</g>
<!-- Node6 -->
<g id="node6" class="node"><title>Node6</title>
<g id="a_node6"><a xlink:href="classAPT_1_1VersionContainer_1_1iterator.xhtml" target="_top" xlink:title="VersionContainer\&lt; Container\l \&gt;::iterator">
<polygon fill="white" stroke="black" points="179.5,-490 179.5,-520 322.5,-520 322.5,-490 179.5,-490"/>
<text text-anchor="start" x="187.5" y="-508" font-family="Helvetica,sans-Serif" font-size="10.00">VersionContainer&lt; Container</text>
<text text-anchor="middle" x="251" y="-497" font-family="Helvetica,sans-Serif" font-size="10.00"> &gt;::iterator</text>
</a>
</g>
</g>
<!-- Node4&#45;&gt;Node6 -->
<g id="edge4" class="edge"><title>Node4&#45;&gt;Node6</title>
<path fill="none" stroke="midnightblue" d="M143.011,-519.186C154.982,-517.599 167.351,-515.959 179.243,-514.382"/>
<polygon fill="midnightblue" stroke="midnightblue" points="142.522,-515.721 133.069,-520.505 143.442,-522.66 142.522,-515.721"/>
</g>
<!-- Node7 -->
<g id="node7" class="node"><title>Node7</title>
<polygon fill="white" stroke="#bfbfbf" points="44.5,-323.5 44.5,-342.5 91.5,-342.5 91.5,-323.5 44.5,-323.5"/>
<text text-anchor="middle" x="68" y="-330.5" font-family="Helvetica,sans-Serif" font-size="10.00">iterator</text>
</g>
<!-- Node7&#45;&gt;Node2 -->
<g id="edge5" class="edge"><title>Node7&#45;&gt;Node2</title>
<path fill="none" stroke="midnightblue" d="M76.9715,-351.907C90.0997,-383.372 116.733,-448.601 136,-505 154.276,-558.498 132.492,-586.563 172,-627 175.776,-630.865 180.15,-634.134 184.861,-636.897"/>
<polygon fill="midnightblue" stroke="midnightblue" points="80.1609,-350.462 73.0672,-342.593 73.7051,-353.168 80.1609,-350.462"/>
</g>
<!-- Node7&#45;&gt;Node3 -->
<g id="edge6" class="edge"><title>Node7&#45;&gt;Node3</title>
<path fill="none" stroke="midnightblue" d="M76.478,-351.986C98.6438,-408.097 163.009,-569.766 172,-578 176.195,-581.842 180.983,-585.093 186.077,-587.845"/>
<polygon fill="midnightblue" stroke="midnightblue" points="79.67,-350.54 72.7443,-342.522 73.1584,-353.109 79.67,-350.54"/>
</g>
<!-- Node7&#45;&gt;Node5 -->
<g id="edge7" class="edge"><title>Node7&#45;&gt;Node5</title>
<path fill="none" stroke="midnightblue" d="M73.8784,-352.503C84.6972,-391.751 114.42,-480.642 172,-529 176.574,-532.841 181.746,-536.095 187.197,-538.85"/>
<polygon fill="midnightblue" stroke="midnightblue" points="77.2595,-351.598 71.3208,-342.824 70.4919,-353.386 77.2595,-351.598"/>
</g>
<!-- Node7&#45;&gt;Node6 -->
<g id="edge8" class="edge"><title>Node7&#45;&gt;Node6</title>
<path fill="none" stroke="midnightblue" d="M77.2182,-351.811C91.7937,-383.016 125.114,-445.462 172,-480 177.267,-483.88 183.159,-487.172 189.282,-489.963"/>
<polygon fill="midnightblue" stroke="midnightblue" points="80.3188,-350.173 73.0013,-342.511 73.9436,-353.064 80.3188,-350.173"/>
</g>
<!-- Node8 -->
<g id="node8" class="node"><title>Node8</title>
<g id="a_node8"><a xlink:href="classpkgCache_1_1Iterator.xhtml" target="_top" xlink:title="pkgCache::Iterator\l\&lt; Dependency, DepIterator \&gt;">
<polygon fill="white" stroke="black" points="179,-343 179,-373 323,-373 323,-343 179,-343"/>
<text text-anchor="start" x="187" y="-361" font-family="Helvetica,sans-Serif" font-size="10.00">pkgCache::Iterator</text>
<text text-anchor="middle" x="251" y="-350" font-family="Helvetica,sans-Serif" font-size="10.00">&lt; Dependency, DepIterator &gt;</text>
</a>
</g>
</g>
<!-- Node7&#45;&gt;Node8 -->
<g id="edge9" class="edge"><title>Node7&#45;&gt;Node8</title>
<path fill="none" stroke="midnightblue" d="M101.491,-337.488C123.057,-340.466 152.219,-344.494 178.993,-348.192"/>
<polygon fill="midnightblue" stroke="midnightblue" points="101.943,-334.017 91.5578,-336.116 100.985,-340.951 101.943,-334.017"/>
</g>
<!-- Node10 -->
<g id="node10" class="node"><title>Node10</title>
<g id="a_node10"><a xlink:href="classpkgCache_1_1Iterator.xhtml" target="_top" xlink:title="pkgCache::Iterator\l\&lt; DescFile, DescFileIterator \&gt;">
<polygon fill="white" stroke="black" points="176.5,-294 176.5,-324 325.5,-324 325.5,-294 176.5,-294"/>
<text text-anchor="start" x="184.5" y="-312" font-family="Helvetica,sans-Serif" font-size="10.00">pkgCache::Iterator</text>
<text text-anchor="middle" x="251" y="-301" font-family="Helvetica,sans-Serif" font-size="10.00">&lt; DescFile, DescFileIterator &gt;</text>
</a>
</g>
</g>
<!-- Node7&#45;&gt;Node10 -->
<g id="edge11" class="edge"><title>Node7&#45;&gt;Node10</title>
<path fill="none" stroke="midnightblue" d="M101.741,-328.659C122.519,-325.904 150.276,-322.223 176.152,-318.792"/>
<polygon fill="midnightblue" stroke="midnightblue" points="101.011,-325.225 91.5578,-330.009 101.931,-332.164 101.011,-325.225"/>
</g>
<!-- Node12 -->
<g id="node12" class="node"><title>Node12</title>
<g id="a_node12"><a xlink:href="classpkgCache_1_1Iterator.xhtml" target="_top" xlink:title="pkgCache::Iterator\l\&lt; Description, DescIterator \&gt;">
<polygon fill="white" stroke="black" points="179,-245 179,-275 323,-275 323,-245 179,-245"/>
<text text-anchor="start" x="187" y="-263" font-family="Helvetica,sans-Serif" font-size="10.00">pkgCache::Iterator</text>
<text text-anchor="middle" x="251" y="-252" font-family="Helvetica,sans-Serif" font-size="10.00">&lt; Description, DescIterator &gt;</text>
</a>
</g>
</g>
<!-- Node7&#45;&gt;Node12 -->
<g id="edge13" class="edge"><title>Node7&#45;&gt;Node12</title>
<path fill="none" stroke="midnightblue" d="M96.3051,-318.67C116.792,-308.249 145.715,-294.233 172,-284 180.054,-280.864 188.698,-277.861 197.194,-275.104"/>
<polygon fill="midnightblue" stroke="midnightblue" points="94.546,-315.638 87.2499,-323.321 97.7443,-321.865 94.546,-315.638"/>
</g>
<!-- Node14 -->
<g id="node14" class="node"><title>Node14</title>
<g id="a_node14"><a xlink:href="classpkgCache_1_1Iterator.xhtml" target="_top" xlink:title="pkgCache::Iterator\l\&lt; Group, GrpIterator \&gt;">
<polygon fill="white" stroke="black" points="194.5,-196 194.5,-226 307.5,-226 307.5,-196 194.5,-196"/>
<text text-anchor="start" x="202.5" y="-214" font-family="Helvetica,sans-Serif" font-size="10.00">pkgCache::Iterator</text>
<text text-anchor="middle" x="251" y="-203" font-family="Helvetica,sans-Serif" font-size="10.00">&lt; Group, GrpIterator &gt;</text>
</a>
</g>
</g>
<!-- Node7&#45;&gt;Node14 -->
<g id="edge15" class="edge"><title>Node7&#45;&gt;Node14</title>
<path fill="none" stroke="midnightblue" d="M82.829,-315.589C101.053,-293.754 135.14,-256.573 172,-235 178.848,-230.992 186.432,-227.59 194.103,-224.719"/>
<polygon fill="midnightblue" stroke="midnightblue" points="80.062,-313.444 76.441,-323.401 85.4809,-317.875 80.062,-313.444"/>
</g>
<!-- Node16 -->
<g id="node16" class="node"><title>Node16</title>
<g id="a_node16"><a xlink:href="classpkgCache_1_1Iterator.xhtml" target="_top" xlink:title="pkgCache::Iterator\l\&lt; Package, PkgIterator \&gt;">
<polygon fill="white" stroke="black" points="187.5,-147 187.5,-177 314.5,-177 314.5,-147 187.5,-147"/>
<text text-anchor="start" x="195.5" y="-165" font-family="Helvetica,sans-Serif" font-size="10.00">pkgCache::Iterator</text>
<text text-anchor="middle" x="251" y="-154" font-family="Helvetica,sans-Serif" font-size="10.00">&lt; Package, PkgIterator &gt;</text>
</a>
</g>
</g>
<!-- Node7&#45;&gt;Node16 -->
<g id="edge17" class="edge"><title>Node7&#45;&gt;Node16</title>
<path fill="none" stroke="midnightblue" d="M77.1743,-314.129C91.6853,-282.836 124.913,-220.264 172,-186 176.697,-182.582 181.89,-179.643 187.3,-177.118"/>
<polygon fill="midnightblue" stroke="midnightblue" points="73.8891,-312.901 72.9777,-323.456 80.2727,-315.773 73.8891,-312.901"/>
</g>
<!-- Node18 -->
<g id="node18" class="node"><title>Node18</title>
<g id="a_node18"><a xlink:href="classpkgCache_1_1Iterator.xhtml" target="_top" xlink:title="pkgCache::Iterator\l\&lt; PackageFile, PkgFileIterator \&gt;">
<polygon fill="white" stroke="black" points="172,-98 172,-128 330,-128 330,-98 172,-98"/>
<text text-anchor="start" x="180" y="-116" font-family="Helvetica,sans-Serif" font-size="10.00">pkgCache::Iterator</text>
<text text-anchor="middle" x="251" y="-105" font-family="Helvetica,sans-Serif" font-size="10.00">&lt; PackageFile, PkgFileIterator &gt;</text>
</a>
</g>
</g>
<!-- Node7&#45;&gt;Node18 -->
<g id="edge19" class="edge"><title>Node7&#45;&gt;Node18</title>
<path fill="none" stroke="midnightblue" d="M73.8315,-313.441C84.5645,-274.09 114.138,-185.021 172,-137 176.143,-133.562 180.775,-130.615 185.659,-128.09"/>
<polygon fill="midnightblue" stroke="midnightblue" points="70.4374,-312.586 71.2959,-323.146 77.2101,-314.356 70.4374,-312.586"/>
</g>
<!-- Node20 -->
<g id="node20" class="node"><title>Node20</title>
<g id="a_node20"><a xlink:href="classpkgCache_1_1Iterator.xhtml" target="_top" xlink:title="pkgCache::Iterator\l\&lt; Provides, PrvIterator \&gt;">
<polygon fill="white" stroke="black" points="188.5,-49 188.5,-79 313.5,-79 313.5,-49 188.5,-49"/>
<text text-anchor="start" x="196.5" y="-67" font-family="Helvetica,sans-Serif" font-size="10.00">pkgCache::Iterator</text>
<text text-anchor="middle" x="251" y="-56" font-family="Helvetica,sans-Serif" font-size="10.00">&lt; Provides, PrvIterator &gt;</text>
</a>
</g>
</g>
<!-- Node7&#45;&gt;Node20 -->
<g id="edge21" class="edge"><title>Node7&#45;&gt;Node20</title>
<path fill="none" stroke="midnightblue" d="M71.558,-313.463C78.6423,-267.296 102.791,-150.646 172,-88 176.832,-83.6263 182.446,-80.0496 188.405,-77.1245"/>
<polygon fill="midnightblue" stroke="midnightblue" points="68.0916,-312.98 70.138,-323.375 75.0208,-313.973 68.0916,-312.98"/>
</g>
<!-- Node22 -->
<g id="node22" class="node"><title>Node22</title>
<g id="a_node22"><a xlink:href="classpkgCache_1_1Iterator.xhtml" target="_top" xlink:title="pkgCache::Iterator\l\&lt; VerFile, VerFileIterator \&gt;">
<polygon fill="white" stroke="black" points="184.5,-0 184.5,-30 317.5,-30 317.5,-0 184.5,-0"/>
<text text-anchor="start" x="192.5" y="-18" font-family="Helvetica,sans-Serif" font-size="10.00">pkgCache::Iterator</text>
<text text-anchor="middle" x="251" y="-7" font-family="Helvetica,sans-Serif" font-size="10.00">&lt; VerFile, VerFileIterator &gt;</text>
</a>
</g>
</g>
<!-- Node7&#45;&gt;Node22 -->
<g id="edge23" class="edge"><title>Node7&#45;&gt;Node22</title>
<path fill="none" stroke="midnightblue" d="M70.0192,-313.208C73.8042,-260.695 91.3977,-116.559 172,-39 175.675,-35.4634 179.859,-32.4469 184.337,-29.8741"/>
<polygon fill="midnightblue" stroke="midnightblue" points="66.5239,-313.025 69.3897,-323.225 73.5101,-313.464 66.5239,-313.025"/>
</g>
<!-- Node24 -->
<g id="node24" class="node"><title>Node24</title>
<g id="a_node24"><a xlink:href="classpkgCache_1_1Iterator.xhtml" target="_top" xlink:title="pkgCache::Iterator\l\&lt; Version, VerIterator \&gt;">
<polygon fill="white" stroke="black" points="191.5,-441 191.5,-471 310.5,-471 310.5,-441 191.5,-441"/>
<text text-anchor="start" x="199.5" y="-459" font-family="Helvetica,sans-Serif" font-size="10.00">pkgCache::Iterator</text>
<text text-anchor="middle" x="251" y="-448" font-family="Helvetica,sans-Serif" font-size="10.00">&lt; Version, VerIterator &gt;</text>
</a>
</g>
</g>
<!-- Node7&#45;&gt;Node24 -->
<g id="edge25" class="edge"><title>Node7&#45;&gt;Node24</title>
<path fill="none" stroke="midnightblue" d="M82.8688,-350.343C101.135,-372.107 135.267,-409.213 172,-431 178.36,-434.772 185.354,-438.044 192.463,-440.862"/>
<polygon fill="midnightblue" stroke="midnightblue" points="85.5209,-348.058 76.4647,-342.559 80.1153,-352.505 85.5209,-348.058"/>
</g>
<!-- Node26 -->
<g id="node26" class="node"><title>Node26</title>
<g id="a_node26"><a xlink:href="classpkgCache_1_1Iterator.xhtml" target="_top" xlink:title="pkgCache::Iterator\l\&lt; Str, Itr \&gt;">
<polygon fill="white" stroke="black" points="202,-392 202,-422 300,-422 300,-392 202,-392"/>
<text text-anchor="start" x="210" y="-410" font-family="Helvetica,sans-Serif" font-size="10.00">pkgCache::Iterator</text>
<text text-anchor="middle" x="251" y="-399" font-family="Helvetica,sans-Serif" font-size="10.00">&lt; Str, Itr &gt;</text>
</a>
</g>
</g>
<!-- Node7&#45;&gt;Node26 -->
<g id="edge27" class="edge"><title>Node7&#45;&gt;Node26</title>
<path fill="none" stroke="midnightblue" d="M96.3406,-347.24C116.846,-357.615 145.775,-371.613 172,-382 181.519,-385.77 191.854,-389.397 201.792,-392.663"/>
<polygon fill="midnightblue" stroke="midnightblue" points="97.7742,-344.042 87.2764,-342.612 94.591,-350.277 97.7742,-344.042"/>
</g>
<!-- Node9 -->
<g id="node9" class="node"><title>Node9</title>
<g id="a_node9"><a xlink:href="classpkgCache_1_1DepIterator.xhtml" target="_top" xlink:title="pkgCache::DepIterator">
<polygon fill="white" stroke="black" points="377,-348.5 377,-367.5 493,-367.5 493,-348.5 377,-348.5"/>
<text text-anchor="middle" x="435" y="-355.5" font-family="Helvetica,sans-Serif" font-size="10.00">pkgCache::DepIterator</text>
</a>
</g>
</g>
<!-- Node8&#45;&gt;Node9 -->
<g id="edge10" class="edge"><title>Node8&#45;&gt;Node9</title>
<path fill="none" stroke="midnightblue" d="M333.28,-358C348.022,-358 363.109,-358 376.968,-358"/>
<polygon fill="midnightblue" stroke="midnightblue" points="333.148,-354.5 323.148,-358 333.148,-361.5 333.148,-354.5"/>
</g>
<!-- Node11 -->
<g id="node11" class="node"><title>Node11</title>
<g id="a_node11"><a xlink:href="classpkgCache_1_1DescFileIterator.xhtml" target="_top" xlink:title="pkgCache::DescFileIterator">
<polygon fill="white" stroke="black" points="366.5,-299.5 366.5,-318.5 503.5,-318.5 503.5,-299.5 366.5,-299.5"/>
<text text-anchor="middle" x="435" y="-306.5" font-family="Helvetica,sans-Serif" font-size="10.00">pkgCache::DescFileIterator</text>
</a>
</g>
</g>
<!-- Node10&#45;&gt;Node11 -->
<g id="edge12" class="edge"><title>Node10&#45;&gt;Node11</title>
<path fill="none" stroke="midnightblue" d="M335.719,-309C345.998,-309 356.402,-309 366.401,-309"/>
<polygon fill="midnightblue" stroke="midnightblue" points="335.502,-305.5 325.502,-309 335.502,-312.5 335.502,-305.5"/>
</g>
<!-- Node13 -->
<g id="node13" class="node"><title>Node13</title>
<g id="a_node13"><a xlink:href="classpkgCache_1_1DescIterator.xhtml" target="_top" xlink:title="pkgCache::DescIterator">
<polygon fill="white" stroke="black" points="374.5,-250.5 374.5,-269.5 495.5,-269.5 495.5,-250.5 374.5,-250.5"/>
<text text-anchor="middle" x="435" y="-257.5" font-family="Helvetica,sans-Serif" font-size="10.00">pkgCache::DescIterator</text>
</a>
</g>
</g>
<!-- Node12&#45;&gt;Node13 -->
<g id="edge14" class="edge"><title>Node12&#45;&gt;Node13</title>
<path fill="none" stroke="midnightblue" d="M333.171,-260C347.036,-260 361.209,-260 374.382,-260"/>
<polygon fill="midnightblue" stroke="midnightblue" points="333.148,-256.5 323.148,-260 333.148,-263.5 333.148,-256.5"/>
</g>
<!-- Node15 -->
<g id="node15" class="node"><title>Node15</title>
<g id="a_node15"><a xlink:href="classpkgCache_1_1GrpIterator.xhtml" target="_top" xlink:title="pkgCache::GrpIterator">
<polygon fill="white" stroke="black" points="378.5,-201.5 378.5,-220.5 491.5,-220.5 491.5,-201.5 378.5,-201.5"/>
<text text-anchor="middle" x="435" y="-208.5" font-family="Helvetica,sans-Serif" font-size="10.00">pkgCache::GrpIterator</text>
</a>
</g>
</g>
<!-- Node14&#45;&gt;Node15 -->
<g id="edge16" class="edge"><title>Node14&#45;&gt;Node15</title>
<path fill="none" stroke="midnightblue" d="M317.807,-211C337.681,-211 359.295,-211 378.432,-211"/>
<polygon fill="midnightblue" stroke="midnightblue" points="317.595,-207.5 307.595,-211 317.595,-214.5 317.595,-207.5"/>
</g>
<!-- Node17 -->
<g id="node17" class="node"><title>Node17</title>
<g id="a_node17"><a xlink:href="classpkgCache_1_1PkgIterator.xhtml" target="_top" xlink:title="pkgCache::PkgIterator">
<polygon fill="white" stroke="black" points="377.5,-152.5 377.5,-171.5 492.5,-171.5 492.5,-152.5 377.5,-152.5"/>
<text text-anchor="middle" x="435" y="-159.5" font-family="Helvetica,sans-Serif" font-size="10.00">pkgCache::PkgIterator</text>
</a>
</g>
</g>
<!-- Node16&#45;&gt;Node17 -->
<g id="edge18" class="edge"><title>Node16&#45;&gt;Node17</title>
<path fill="none" stroke="midnightblue" d="M324.804,-162C342.295,-162 360.721,-162 377.353,-162"/>
<polygon fill="midnightblue" stroke="midnightblue" points="324.634,-158.5 314.634,-162 324.634,-165.5 324.634,-158.5"/>
</g>
<!-- Node19 -->
<g id="node19" class="node"><title>Node19</title>
<g id="a_node19"><a xlink:href="classpkgCache_1_1PkgFileIterator.xhtml" target="_top" xlink:title="pkgCache::PkgFileIterator">
<polygon fill="white" stroke="black" points="369.5,-103.5 369.5,-122.5 500.5,-122.5 500.5,-103.5 369.5,-103.5"/>
<text text-anchor="middle" x="435" y="-110.5" font-family="Helvetica,sans-Serif" font-size="10.00">pkgCache::PkgFileIterator</text>
</a>
</g>
</g>
<!-- Node18&#45;&gt;Node19 -->
<g id="edge20" class="edge"><title>Node18&#45;&gt;Node19</title>
<path fill="none" stroke="midnightblue" d="M340.352,-113C350.088,-113 359.863,-113 369.233,-113"/>
<polygon fill="midnightblue" stroke="midnightblue" points="340.241,-109.5 330.241,-113 340.241,-116.5 340.241,-109.5"/>
</g>
<!-- Node21 -->
<g id="node21" class="node"><title>Node21</title>
<g id="a_node21"><a xlink:href="classpkgCache_1_1PrvIterator.xhtml" target="_top" xlink:title="pkgCache::PrvIterator">
<polygon fill="white" stroke="black" points="378.5,-54.5 378.5,-73.5 491.5,-73.5 491.5,-54.5 378.5,-54.5"/>
<text text-anchor="middle" x="435" y="-61.5" font-family="Helvetica,sans-Serif" font-size="10.00">pkgCache::PrvIterator</text>
</a>
</g>
</g>
<!-- Node20&#45;&gt;Node21 -->
<g id="edge22" class="edge"><title>Node20&#45;&gt;Node21</title>
<path fill="none" stroke="midnightblue" d="M323.833,-64C341.929,-64 361.084,-64 378.258,-64"/>
<polygon fill="midnightblue" stroke="midnightblue" points="323.617,-60.5001 313.617,-64 323.617,-67.5001 323.617,-60.5001"/>
</g>
<!-- Node23 -->
<g id="node23" class="node"><title>Node23</title>
<g id="a_node23"><a xlink:href="classpkgCache_1_1VerFileIterator.xhtml" target="_top" xlink:title="pkgCache::VerFileIterator">
<polygon fill="white" stroke="black" points="371,-5.5 371,-24.5 499,-24.5 499,-5.5 371,-5.5"/>
<text text-anchor="middle" x="435" y="-12.5" font-family="Helvetica,sans-Serif" font-size="10.00">pkgCache::VerFileIterator</text>
</a>
</g>
</g>
<!-- Node22&#45;&gt;Node23 -->
<g id="edge24" class="edge"><title>Node22&#45;&gt;Node23</title>
<path fill="none" stroke="midnightblue" d="M327.979,-15C342.239,-15 357.005,-15 370.824,-15"/>
<polygon fill="midnightblue" stroke="midnightblue" points="327.706,-11.5001 317.706,-15 327.706,-18.5001 327.706,-11.5001"/>
</g>
<!-- Node25 -->
<g id="node25" class="node"><title>Node25</title>
<g id="a_node25"><a xlink:href="classpkgCache_1_1VerIterator.xhtml" target="_top" xlink:title="pkgCache::VerIterator">
<polygon fill="white" stroke="black" points="378.5,-446.5 378.5,-465.5 491.5,-465.5 491.5,-446.5 378.5,-446.5"/>
<text text-anchor="middle" x="435" y="-453.5" font-family="Helvetica,sans-Serif" font-size="10.00">pkgCache::VerIterator</text>
</a>
</g>
</g>
<!-- Node24&#45;&gt;Node25 -->
<g id="edge26" class="edge"><title>Node24&#45;&gt;Node25</title>
<path fill="none" stroke="midnightblue" d="M320.69,-456C339.715,-456 360.126,-456 378.31,-456"/>
<polygon fill="midnightblue" stroke="midnightblue" points="320.588,-452.5 310.588,-456 320.588,-459.5 320.588,-452.5"/>
</g>
</g>
</svg>
