<?xml version="1.0" encoding="UTF-8" standalone="no"?>
<!DOCTYPE svg PUBLIC "-//W3C//DTD SVG 1.1//EN"
 "http://www.w3.org/Graphics/SVG/1.1/DTD/svg11.dtd">
<!-- Generated by graphviz version 2.36.0 (20140111.2315)
 -->
<!-- Title: Graphical Class Hierarchy Pages: 1 -->
<svg width="182pt" height="66pt"
 viewBox="0.00 0.00 182.00 66.00" xmlns="http://www.w3.org/2000/svg" xmlns:xlink="http://www.w3.org/1999/xlink">
<g id="graph0" class="graph" transform="scale(1 1) rotate(0) translate(4 62)">
<title>Graphical Class Hierarchy</title>
<polygon fill="white" stroke="none" points="-4,4 -4,-62 178,-62 178,4 -4,4"/>
<!-- Node1 -->
<g id="node1" class="node"><title>Node1</title>
<g id="a_node1"><a xlink:href="classpkgSystem.xhtml" target="_top" xlink:title="pkgSystem">
<polygon fill="white" stroke="black" points="0,-19.5 0,-38.5 66,-38.5 66,-19.5 0,-19.5"/>
<text text-anchor="middle" x="33" y="-26.5" font-family="Helvetica,sans-Serif" font-size="10.00">pkgSystem</text>
</a>
</g>
</g>
<!-- Node2 -->
<g id="node2" class="node"><title>Node2</title>
<g id="a_node2"><a xlink:href="classdebSystem.xhtml" target="_top" xlink:title="debSystem">
<polygon fill="white" stroke="black" points="105,-38.5 105,-57.5 171,-57.5 171,-38.5 105,-38.5"/>
<text text-anchor="middle" x="138" y="-45.5" font-family="Helvetica,sans-Serif" font-size="10.00">debSystem</text>
</a>
</g>
</g>
<!-- Node1&#45;&gt;Node2 -->
<g id="edge1" class="edge"><title>Node1&#45;&gt;Node2</title>
<path fill="none" stroke="midnightblue" d="M75.9087,-36.7307C85.6147,-38.5212 95.7918,-40.3985 104.995,-42.0961"/>
<polygon fill="midnightblue" stroke="midnightblue" points="76.4943,-33.2798 66.0252,-34.9076 75.2244,-40.1636 76.4943,-33.2798"/>
</g>
<!-- Node3 -->
<g id="node3" class="node"><title>Node3</title>
<g id="a_node3"><a xlink:href="classedspSystem.xhtml" target="_top" xlink:title="edspSystem">
<polygon fill="white" stroke="black" points="102.5,-0.5 102.5,-19.5 173.5,-19.5 173.5,-0.5 102.5,-0.5"/>
<text text-anchor="middle" x="138" y="-7.5" font-family="Helvetica,sans-Serif" font-size="10.00">edspSystem</text>
</a>
</g>
</g>
<!-- Node1&#45;&gt;Node3 -->
<g id="edge2" class="edge"><title>Node1&#45;&gt;Node3</title>
<path fill="none" stroke="midnightblue" d="M76.0927,-21.2353C84.8708,-19.6161 94.0264,-17.9272 102.492,-16.3655"/>
<polygon fill="midnightblue" stroke="midnightblue" points="75.2244,-17.8364 66.0252,-23.0924 76.4943,-24.7202 75.2244,-17.8364"/>
</g>
</g>
</svg>
