<?xml version="1.0" encoding="UTF-8" standalone="no"?>
<!DOCTYPE svg PUBLIC "-//W3C//DTD SVG 1.1//EN"
 "http://www.w3.org/Graphics/SVG/1.1/DTD/svg11.dtd">
<!-- Generated by graphviz version 2.36.0 (20140111.2315)
 -->
<!-- Title: Graphical Class Hierarchy Pages: 1 -->
<svg width="546pt" height="381pt"
 viewBox="0.00 0.00 546.00 381.00" xmlns="http://www.w3.org/2000/svg" xmlns:xlink="http://www.w3.org/1999/xlink">
<g id="graph0" class="graph" transform="scale(1 1) rotate(0) translate(4 377)">
<title>Graphical Class Hierarchy</title>
<polygon fill="white" stroke="none" points="-4,4 -4,-377 542,-377 542,4 -4,4"/>
<!-- Node1 -->
<g id="node1" class="node"><title>Node1</title>
<g id="a_node1"><a xlink:href="classWeakPointable.xhtml" target="_top" xlink:title="WeakPointable">
<polygon fill="white" stroke="black" points="0.5,-84.5 0.5,-103.5 83.5,-103.5 83.5,-84.5 0.5,-84.5"/>
<text text-anchor="middle" x="42" y="-91.5" font-family="Helvetica,sans-Serif" font-size="10.00">WeakPointable</text>
</a>
</g>
</g>
<!-- Node2 -->
<g id="node2" class="node"><title>Node2</title>
<g id="a_node2"><a xlink:href="classpkgAcquire_1_1Item.xhtml" target="_top" xlink:title="Represents the process by which a pkgAcquire object should {{{ retrieve a file or a collection of fil...">
<polygon fill="white" stroke="black" points="131.5,-182.5 131.5,-201.5 222.5,-201.5 222.5,-182.5 131.5,-182.5"/>
<text text-anchor="middle" x="177" y="-189.5" font-family="Helvetica,sans-Serif" font-size="10.00">pkgAcquire::Item</text>
</a>
</g>
</g>
<!-- Node1&#45;&gt;Node2 -->
<g id="edge1" class="edge"><title>Node1&#45;&gt;Node2</title>
<path fill="none" stroke="midnightblue" d="M64.5136,-109.852C92.3099,-130.334 139.849,-165.362 162.815,-182.285"/>
<polygon fill="midnightblue" stroke="midnightblue" points="66.3656,-106.869 56.2388,-103.755 62.2132,-112.505 66.3656,-106.869"/>
</g>
<!-- Node14 -->
<g id="node14" class="node"><title>Node14</title>
<g id="a_node14"><a xlink:href="structpkgAcquire_1_1ItemDesc.xhtml" target="_top" xlink:title="Represents a single download source from which an item should be downloaded. ">
<polygon fill="white" stroke="black" points="120,-84.5 120,-103.5 234,-103.5 234,-84.5 120,-84.5"/>
<text text-anchor="middle" x="177" y="-91.5" font-family="Helvetica,sans-Serif" font-size="10.00">pkgAcquire::ItemDesc</text>
</a>
</g>
</g>
<!-- Node1&#45;&gt;Node14 -->
<g id="edge13" class="edge"><title>Node1&#45;&gt;Node14</title>
<path fill="none" stroke="midnightblue" d="M93.8275,-94C102.372,-94 111.283,-94 119.951,-94"/>
<polygon fill="midnightblue" stroke="midnightblue" points="93.6271,-90.5001 83.6271,-94 93.627,-97.5001 93.6271,-90.5001"/>
</g>
<!-- Node16 -->
<g id="node16" class="node"><title>Node16</title>
<g id="a_node16"><a xlink:href="classpkgAcquire_1_1Worker.xhtml" target="_top" xlink:title="A fetch subprocess. ">
<polygon fill="white" stroke="black" points="125.5,-46.5 125.5,-65.5 228.5,-65.5 228.5,-46.5 125.5,-46.5"/>
<text text-anchor="middle" x="177" y="-53.5" font-family="Helvetica,sans-Serif" font-size="10.00">pkgAcquire::Worker</text>
</a>
</g>
</g>
<!-- Node1&#45;&gt;Node16 -->
<g id="edge15" class="edge"><title>Node1&#45;&gt;Node16</title>
<path fill="none" stroke="midnightblue" d="M86.3669,-81.6094C104.581,-76.4055 125.439,-70.4459 142.449,-65.5859"/>
<polygon fill="midnightblue" stroke="midnightblue" points="85.2152,-78.2984 76.5615,-84.411 87.1383,-85.029 85.2152,-78.2984"/>
</g>
<!-- Node3 -->
<g id="node3" class="node"><title>Node3</title>
<g id="a_node3"><a xlink:href="classpkgAcqArchive.xhtml" target="_top" xlink:title="An item that is responsible for fetching a package file. {{{. ">
<polygon fill="white" stroke="black" points="289.5,-353.5 289.5,-372.5 372.5,-372.5 372.5,-353.5 289.5,-353.5"/>
<text text-anchor="middle" x="331" y="-360.5" font-family="Helvetica,sans-Serif" font-size="10.00">pkgAcqArchive</text>
</a>
</g>
</g>
<!-- Node2&#45;&gt;Node3 -->
<g id="edge2" class="edge"><title>Node2&#45;&gt;Node3</title>
<path fill="none" stroke="midnightblue" d="M184.591,-211.466C196.51,-243.755 224.696,-308.358 270,-344 275.668,-348.459 282.401,-351.882 289.274,-354.506"/>
<polygon fill="midnightblue" stroke="midnightblue" points="187.818,-210.094 181.172,-201.843 181.222,-212.438 187.818,-210.094"/>
</g>
<!-- Node4 -->
<g id="node4" class="node"><title>Node4</title>
<g id="a_node4"><a xlink:href="classpkgAcqDiffIndex.xhtml" target="_top" xlink:title="An item that is responsible for fetching an index file of {{{ package list diffs and starting the pac...">
<polygon fill="white" stroke="black" points="286.5,-315.5 286.5,-334.5 375.5,-334.5 375.5,-315.5 286.5,-315.5"/>
<text text-anchor="middle" x="331" y="-322.5" font-family="Helvetica,sans-Serif" font-size="10.00">pkgAcqDiffIndex</text>
</a>
</g>
</g>
<!-- Node2&#45;&gt;Node4 -->
<g id="edge3" class="edge"><title>Node2&#45;&gt;Node4</title>
<path fill="none" stroke="midnightblue" d="M188.145,-210.425C202.928,-235.608 232.734,-280.547 270,-306 275.594,-309.821 281.998,-312.905 288.491,-315.386"/>
<polygon fill="midnightblue" stroke="midnightblue" points="191.066,-208.483 183.069,-201.532 184.987,-211.952 191.066,-208.483"/>
</g>
<!-- Node5 -->
<g id="node5" class="node"><title>Node5</title>
<g id="a_node5"><a xlink:href="classpkgAcqFile.xhtml" target="_top" xlink:title="Retrieve an arbitrary file to the current directory. {{{. ">
<polygon fill="white" stroke="black" points="298.5,-277.5 298.5,-296.5 363.5,-296.5 363.5,-277.5 298.5,-277.5"/>
<text text-anchor="middle" x="331" y="-284.5" font-family="Helvetica,sans-Serif" font-size="10.00">pkgAcqFile</text>
</a>
</g>
</g>
<!-- Node2&#45;&gt;Node5 -->
<g id="edge4" class="edge"><title>Node2&#45;&gt;Node5</title>
<path fill="none" stroke="midnightblue" d="M194.128,-208.673C211.453,-225.727 240.494,-251.936 270,-268 278.733,-272.754 288.839,-276.53 298.238,-279.421"/>
<polygon fill="midnightblue" stroke="midnightblue" points="196.569,-206.164 187.032,-201.55 191.61,-211.105 196.569,-206.164"/>
</g>
<!-- Node6 -->
<g id="node6" class="node"><title>Node6</title>
<g id="a_node6"><a xlink:href="classpkgAcqIndex.xhtml" target="_top" xlink:title="An acquire item that is responsible for fetching an index {{{ file (e.g., Packages or Sources)...">
<polygon fill="white" stroke="black" points="294,-239.5 294,-258.5 368,-258.5 368,-239.5 294,-239.5"/>
<text text-anchor="middle" x="331" y="-246.5" font-family="Helvetica,sans-Serif" font-size="10.00">pkgAcqIndex</text>
</a>
</g>
</g>
<!-- Node2&#45;&gt;Node6 -->
<g id="edge5" class="edge"><title>Node2&#45;&gt;Node6</title>
<path fill="none" stroke="midnightblue" d="M209.013,-205.581C226.731,-213.145 249.449,-222.517 270,-230 279.035,-233.29 288.948,-236.563 298.068,-239.442"/>
<polygon fill="midnightblue" stroke="midnightblue" points="210.299,-202.324 199.729,-201.588 207.533,-208.755 210.299,-202.324"/>
</g>
<!-- Node8 -->
<g id="node8" class="node"><title>Node8</title>
<g id="a_node8"><a xlink:href="classpkgAcqIndexDiffs.xhtml" target="_top" xlink:title="An item that is responsible for fetching server&#45;merge patches {{{ that need to be applied to a given ...">
<polygon fill="white" stroke="black" points="283.5,-201.5 283.5,-220.5 378.5,-220.5 378.5,-201.5 283.5,-201.5"/>
<text text-anchor="middle" x="331" y="-208.5" font-family="Helvetica,sans-Serif" font-size="10.00">pkgAcqIndexDiffs</text>
</a>
</g>
</g>
<!-- Node2&#45;&gt;Node8 -->
<g id="edge7" class="edge"><title>Node2&#45;&gt;Node8</title>
<path fill="none" stroke="midnightblue" d="M232.877,-198.86C249.441,-200.93 267.459,-203.182 283.427,-205.178"/>
<polygon fill="midnightblue" stroke="midnightblue" points="233.14,-195.365 222.783,-197.598 232.272,-202.311 233.14,-195.365"/>
</g>
<!-- Node9 -->
<g id="node9" class="node"><title>Node9</title>
<g id="a_node9"><a xlink:href="classpkgAcqIndexMergeDiffs.xhtml" target="_top" xlink:title="An item that is responsible for fetching client&#45;merge patches {{{ that need to be applied to a given ...">
<polygon fill="white" stroke="black" points="270,-163.5 270,-182.5 392,-182.5 392,-163.5 270,-163.5"/>
<text text-anchor="middle" x="331" y="-170.5" font-family="Helvetica,sans-Serif" font-size="10.00">pkgAcqIndexMergeDiffs</text>
</a>
</g>
</g>
<!-- Node2&#45;&gt;Node9 -->
<g id="edge8" class="edge"><title>Node2&#45;&gt;Node9</title>
<path fill="none" stroke="midnightblue" d="M233.04,-185.12C244.969,-183.629 257.645,-182.044 269.762,-180.53"/>
<polygon fill="midnightblue" stroke="midnightblue" points="232.272,-181.689 222.783,-186.402 233.14,-188.635 232.272,-181.689"/>
</g>
<!-- Node10 -->
<g id="node10" class="node"><title>Node10</title>
<g id="a_node10"><a xlink:href="classpkgAcqMetaIndex.xhtml" target="_top" xlink:title="An item that is responsible for downloading the meta&#45;index {{{ file (i.e., Release) itself and verify...">
<polygon fill="white" stroke="black" points="283.5,-125.5 283.5,-144.5 378.5,-144.5 378.5,-125.5 283.5,-125.5"/>
<text text-anchor="middle" x="331" y="-132.5" font-family="Helvetica,sans-Serif" font-size="10.00">pkgAcqMetaIndex</text>
</a>
</g>
</g>
<!-- Node2&#45;&gt;Node10 -->
<g id="edge9" class="edge"><title>Node2&#45;&gt;Node10</title>
<path fill="none" stroke="midnightblue" d="M209.013,-178.419C226.731,-170.855 249.449,-161.483 270,-154 279.035,-150.71 288.948,-147.437 298.068,-144.558"/>
<polygon fill="midnightblue" stroke="midnightblue" points="207.533,-175.245 199.729,-182.412 210.299,-181.676 207.533,-175.245"/>
</g>
<!-- Node12 -->
<g id="node12" class="node"><title>Node12</title>
<g id="a_node12"><a xlink:href="classpkgAcqMetaSig.xhtml" target="_top" xlink:title="An acquire item that downloads the detached signature {{{ of a meta&#45;index (Release) file...">
<polygon fill="white" stroke="black" points="288,-87.5 288,-106.5 374,-106.5 374,-87.5 288,-87.5"/>
<text text-anchor="middle" x="331" y="-94.5" font-family="Helvetica,sans-Serif" font-size="10.00">pkgAcqMetaSig</text>
</a>
</g>
</g>
<!-- Node2&#45;&gt;Node12 -->
<g id="edge11" class="edge"><title>Node2&#45;&gt;Node12</title>
<path fill="none" stroke="midnightblue" d="M194.128,-175.327C211.453,-158.273 240.494,-132.064 270,-116 276.909,-112.238 284.678,-109.09 292.277,-106.507"/>
<polygon fill="midnightblue" stroke="midnightblue" points="191.61,-172.895 187.032,-182.45 196.569,-177.836 191.61,-172.895"/>
</g>
<!-- Node13 -->
<g id="node13" class="node"><title>Node13</title>
<g id="a_node13"><a xlink:href="classpkgAcqSubIndex.xhtml" target="_top" xlink:title="An item that is responsible for fetching a SubIndex {{{. ">
<polygon fill="white" stroke="black" points="285.5,-49.5 285.5,-68.5 376.5,-68.5 376.5,-49.5 285.5,-49.5"/>
<text text-anchor="middle" x="331" y="-56.5" font-family="Helvetica,sans-Serif" font-size="10.00">pkgAcqSubIndex</text>
</a>
</g>
</g>
<!-- Node2&#45;&gt;Node13 -->
<g id="edge12" class="edge"><title>Node2&#45;&gt;Node13</title>
<path fill="none" stroke="midnightblue" d="M190.532,-174.029C210.803,-145.407 250.481,-91.3318 270,-78 275.594,-74.1792 281.998,-71.0946 288.491,-68.6138"/>
<polygon fill="midnightblue" stroke="midnightblue" points="187.574,-172.151 184.682,-182.343 193.299,-176.178 187.574,-172.151"/>
</g>
<!-- Node7 -->
<g id="node7" class="node"><title>Node7</title>
<g id="a_node7"><a xlink:href="classpkgAcqIndexTrans.xhtml" target="_top" xlink:title="An acquire item that is responsible for fetching a {{{ translated index file. ">
<polygon fill="white" stroke="black" points="434,-239.5 434,-258.5 532,-258.5 532,-239.5 434,-239.5"/>
<text text-anchor="middle" x="483" y="-246.5" font-family="Helvetica,sans-Serif" font-size="10.00">pkgAcqIndexTrans</text>
</a>
</g>
</g>
<!-- Node6&#45;&gt;Node7 -->
<g id="edge6" class="edge"><title>Node6&#45;&gt;Node7</title>
<path fill="none" stroke="midnightblue" d="M378.357,-249C395.968,-249 416.058,-249 433.833,-249"/>
<polygon fill="midnightblue" stroke="midnightblue" points="378.311,-245.5 368.311,-249 378.311,-252.5 378.311,-245.5"/>
</g>
<!-- Node11 -->
<g id="node11" class="node"><title>Node11</title>
<g id="a_node11"><a xlink:href="classpkgAcqMetaClearSig.xhtml" target="_top" xlink:title="An item repsonsible for downloading clearsigned metaindexes {{{. ">
<polygon fill="white" stroke="black" points="428.5,-125.5 428.5,-144.5 537.5,-144.5 537.5,-125.5 428.5,-125.5"/>
<text text-anchor="middle" x="483" y="-132.5" font-family="Helvetica,sans-Serif" font-size="10.00">pkgAcqMetaClearSig</text>
</a>
</g>
</g>
<!-- Node10&#45;&gt;Node11 -->
<g id="edge10" class="edge"><title>Node10&#45;&gt;Node11</title>
<path fill="none" stroke="midnightblue" d="M388.827,-135C401.776,-135 415.495,-135 428.308,-135"/>
<polygon fill="midnightblue" stroke="midnightblue" points="388.639,-131.5 378.639,-135 388.639,-138.5 388.639,-131.5"/>
</g>
<!-- Node15 -->
<g id="node15" class="node"><title>Node15</title>
<g id="a_node15"><a xlink:href="structpkgAcquire_1_1Queue_1_1QItem.xhtml" target="_top" xlink:title="A single item placed in this queue. ">
<polygon fill="white" stroke="black" points="278,-0 278,-30 384,-30 384,-0 278,-0"/>
<text text-anchor="start" x="286" y="-18" font-family="Helvetica,sans-Serif" font-size="10.00">pkgAcquire::Queue::</text>
<text text-anchor="middle" x="331" y="-7" font-family="Helvetica,sans-Serif" font-size="10.00">QItem</text>
</a>
</g>
</g>
<!-- Node14&#45;&gt;Node15 -->
<g id="edge14" class="edge"><title>Node14&#45;&gt;Node15</title>
<path fill="none" stroke="midnightblue" d="M223.344,-80.5992C227.046,-78.9145 230.648,-77.0516 234,-75 253.034,-63.3511 251.371,-52.2863 270,-40 275.558,-36.3343 281.741,-33.0303 287.966,-30.1161"/>
<polygon fill="midnightblue" stroke="midnightblue" points="221.943,-77.3908 214.021,-84.426 224.601,-83.8665 221.943,-77.3908"/>
</g>
</g>
</svg>
