<?xml version="1.0" encoding="UTF-8" standalone="no"?>
<!DOCTYPE svg PUBLIC "-//W3C//DTD SVG 1.1//EN"
 "http://www.w3.org/Graphics/SVG/1.1/DTD/svg11.dtd">
<!-- Generated by graphviz version 2.36.0 (20140111.2315)
 -->
<!-- Title: Graphical Class Hierarchy Pages: 1 -->
<svg width="374pt" height="66pt"
 viewBox="0.00 0.00 374.00 66.00" xmlns="http://www.w3.org/2000/svg" xmlns:xlink="http://www.w3.org/1999/xlink">
<g id="graph0" class="graph" transform="scale(1 1) rotate(0) translate(4 62)">
<title>Graphical Class Hierarchy</title>
<polygon fill="white" stroke="none" points="-4,4 -4,-62 370,-62 370,4 -4,4"/>
<!-- Node1 -->
<g id="node1" class="node"><title>Node1</title>
<g id="a_node1"><a xlink:href="classIndexTarget.xhtml" target="_top" xlink:title="Information about an index file. ">
<polygon fill="white" stroke="black" points="0,-19.5 0,-38.5 68,-38.5 68,-19.5 0,-19.5"/>
<text text-anchor="middle" x="34" y="-26.5" font-family="Helvetica,sans-Serif" font-size="10.00">IndexTarget</text>
</a>
</g>
</g>
<!-- Node2 -->
<g id="node2" class="node"><title>Node2</title>
<g id="a_node2"><a xlink:href="classOptionalIndexTarget.xhtml" target="_top" xlink:title="Information about an optional index file. ">
<polygon fill="white" stroke="black" points="104,-38.5 104,-57.5 208,-57.5 208,-38.5 104,-38.5"/>
<text text-anchor="middle" x="156" y="-45.5" font-family="Helvetica,sans-Serif" font-size="10.00">OptionalIndexTarget</text>
</a>
</g>
</g>
<!-- Node1&#45;&gt;Node2 -->
<g id="edge1" class="edge"><title>Node1&#45;&gt;Node2</title>
<path fill="none" stroke="midnightblue" d="M78.2178,-35.8428C86.4327,-37.1435 95.1039,-38.5164 103.545,-39.8529"/>
<polygon fill="midnightblue" stroke="midnightblue" points="78.5325,-32.3491 68.1082,-34.2421 77.4378,-39.263 78.5325,-32.3491"/>
</g>
<!-- Node4 -->
<g id="node4" class="node"><title>Node4</title>
<g id="a_node4"><a xlink:href="classSubIndexTarget.xhtml" target="_top" xlink:title="Information about an subindex index file. ">
<polygon fill="white" stroke="black" points="113,-0.5 113,-19.5 199,-19.5 199,-0.5 113,-0.5"/>
<text text-anchor="middle" x="156" y="-7.5" font-family="Helvetica,sans-Serif" font-size="10.00">SubIndexTarget</text>
</a>
</g>
</g>
<!-- Node1&#45;&gt;Node4 -->
<g id="edge3" class="edge"><title>Node1&#45;&gt;Node4</title>
<path fill="none" stroke="midnightblue" d="M78.2109,-22.1583C89.5334,-20.3656 101.723,-18.4355 112.982,-16.6528"/>
<polygon fill="midnightblue" stroke="midnightblue" points="77.4378,-18.737 68.1082,-23.7579 78.5325,-25.6509 77.4378,-18.737"/>
</g>
<!-- Node3 -->
<g id="node3" class="node"><title>Node3</title>
<g id="a_node3"><a xlink:href="classOptionalSubIndexTarget.xhtml" target="_top" xlink:title="Information about an subindex index file. ">
<polygon fill="white" stroke="black" points="244,-38.5 244,-57.5 366,-57.5 366,-38.5 244,-38.5"/>
<text text-anchor="middle" x="305" y="-45.5" font-family="Helvetica,sans-Serif" font-size="10.00">OptionalSubIndexTarget</text>
</a>
</g>
</g>
<!-- Node2&#45;&gt;Node3 -->
<g id="edge2" class="edge"><title>Node2&#45;&gt;Node3</title>
<path fill="none" stroke="midnightblue" d="M218.244,-48C226.76,-48 235.501,-48 243.994,-48"/>
<polygon fill="midnightblue" stroke="midnightblue" points="218.001,-44.5001 208.001,-48 218.001,-51.5001 218.001,-44.5001"/>
</g>
</g>
</svg>
