<?xml version="1.0" encoding="UTF-8" standalone="no"?>
<!DOCTYPE svg PUBLIC "-//W3C//DTD SVG 1.1//EN"
 "http://www.w3.org/Graphics/SVG/1.1/DTD/svg11.dtd">
<!-- Generated by graphviz version 2.36.0 (20140111.2315)
 -->
<!-- Title: Graphical Class Hierarchy Pages: 1 -->
<svg width="324pt" height="142pt"
 viewBox="0.00 0.00 324.00 142.00" xmlns="http://www.w3.org/2000/svg" xmlns:xlink="http://www.w3.org/1999/xlink">
<g id="graph0" class="graph" transform="scale(1 1) rotate(0) translate(4 138)">
<title>Graphical Class Hierarchy</title>
<polygon fill="white" stroke="none" points="-4,4 -4,-138 320,-138 320,4 -4,4"/>
<!-- Node1 -->
<g id="node1" class="node"><title>Node1</title>
<g id="a_node1"><a xlink:href="classpkgIndexFile.xhtml" target="_top" xlink:title="pkgIndexFile">
<polygon fill="white" stroke="black" points="0,-57.5 0,-76.5 72,-76.5 72,-57.5 0,-57.5"/>
<text text-anchor="middle" x="36" y="-64.5" font-family="Helvetica,sans-Serif" font-size="10.00">pkgIndexFile</text>
</a>
</g>
</g>
<!-- Node2 -->
<g id="node2" class="node"><title>Node2</title>
<g id="a_node2"><a xlink:href="classdebPackagesIndex.xhtml" target="_top" xlink:title="debPackagesIndex">
<polygon fill="white" stroke="black" points="113,-114.5 113,-133.5 213,-133.5 213,-114.5 113,-114.5"/>
<text text-anchor="middle" x="163" y="-121.5" font-family="Helvetica,sans-Serif" font-size="10.00">debPackagesIndex</text>
</a>
</g>
</g>
<!-- Node1&#45;&gt;Node2 -->
<g id="edge1" class="edge"><title>Node1&#45;&gt;Node2</title>
<path fill="none" stroke="midnightblue" d="M62.3257,-81.7747C75.6697,-89.2447 92.4533,-98.1527 108,-105 115.731,-108.405 124.281,-111.644 132.255,-114.451"/>
<polygon fill="midnightblue" stroke="midnightblue" points="63.708,-78.5347 53.284,-76.6395 60.251,-84.6215 63.708,-78.5347"/>
</g>
<!-- Node3 -->
<g id="node3" class="node"><title>Node3</title>
<g id="a_node3"><a xlink:href="classdebSourcesIndex.xhtml" target="_top" xlink:title="debSourcesIndex">
<polygon fill="white" stroke="black" points="117,-76.5 117,-95.5 209,-95.5 209,-76.5 117,-76.5"/>
<text text-anchor="middle" x="163" y="-83.5" font-family="Helvetica,sans-Serif" font-size="10.00">debSourcesIndex</text>
</a>
</g>
</g>
<!-- Node1&#45;&gt;Node3 -->
<g id="edge2" class="edge"><title>Node1&#45;&gt;Node3</title>
<path fill="none" stroke="midnightblue" d="M82.2224,-73.8738C93.4875,-75.5861 105.565,-77.4219 116.828,-79.1338"/>
<polygon fill="midnightblue" stroke="midnightblue" points="82.5645,-70.3857 72.1521,-72.3431 81.5126,-77.3062 82.5645,-70.3857"/>
</g>
<!-- Node4 -->
<g id="node4" class="node"><title>Node4</title>
<g id="a_node4"><a xlink:href="classdebStatusIndex.xhtml" target="_top" xlink:title="debStatusIndex">
<polygon fill="white" stroke="black" points="120.5,-38.5 120.5,-57.5 205.5,-57.5 205.5,-38.5 120.5,-38.5"/>
<text text-anchor="middle" x="163" y="-45.5" font-family="Helvetica,sans-Serif" font-size="10.00">debStatusIndex</text>
</a>
</g>
</g>
<!-- Node1&#45;&gt;Node4 -->
<g id="edge3" class="edge"><title>Node1&#45;&gt;Node4</title>
<path fill="none" stroke="midnightblue" d="M82.3374,-60.1087C94.7964,-58.2149 108.242,-56.1713 120.474,-54.3119"/>
<polygon fill="midnightblue" stroke="midnightblue" points="81.5126,-56.6938 72.1521,-61.6569 82.5645,-63.6143 81.5126,-56.6938"/>
</g>
<!-- Node6 -->
<g id="node6" class="node"><title>Node6</title>
<g id="a_node6"><a xlink:href="classdebTranslationsIndex.xhtml" target="_top" xlink:title="debTranslationsIndex">
<polygon fill="white" stroke="black" points="108,-0.5 108,-19.5 218,-19.5 218,-0.5 108,-0.5"/>
<text text-anchor="middle" x="163" y="-7.5" font-family="Helvetica,sans-Serif" font-size="10.00">debTranslationsIndex</text>
</a>
</g>
</g>
<!-- Node1&#45;&gt;Node6 -->
<g id="edge5" class="edge"><title>Node1&#45;&gt;Node6</title>
<path fill="none" stroke="midnightblue" d="M62.3257,-52.2253C75.6697,-44.7553 92.4533,-35.8473 108,-29 115.731,-25.595 124.281,-22.3565 132.255,-19.5493"/>
<polygon fill="midnightblue" stroke="midnightblue" points="60.251,-49.3785 53.284,-57.3605 63.708,-55.4653 60.251,-49.3785"/>
</g>
<!-- Node5 -->
<g id="node5" class="node"><title>Node5</title>
<g id="a_node5"><a xlink:href="classedspIndex.xhtml" target="_top" xlink:title="edspIndex">
<polygon fill="white" stroke="black" points="254,-38.5 254,-57.5 316,-57.5 316,-38.5 254,-38.5"/>
<text text-anchor="middle" x="285" y="-45.5" font-family="Helvetica,sans-Serif" font-size="10.00">edspIndex</text>
</a>
</g>
</g>
<!-- Node4&#45;&gt;Node5 -->
<g id="edge4" class="edge"><title>Node4&#45;&gt;Node5</title>
<path fill="none" stroke="midnightblue" d="M215.862,-48C228.814,-48 242.28,-48 253.788,-48"/>
<polygon fill="midnightblue" stroke="midnightblue" points="215.633,-44.5001 205.633,-48 215.633,-51.5001 215.633,-44.5001"/>
</g>
</g>
</svg>
