<?xml version="1.0" encoding="UTF-8" standalone="no"?>
<!DOCTYPE svg PUBLIC "-//W3C//DTD SVG 1.1//EN"
 "http://www.w3.org/Graphics/SVG/1.1/DTD/svg11.dtd">
<!-- Generated by graphviz version 2.36.0 (20140111.2315)
 -->
<!-- Title: Graphical Class Hierarchy Pages: 1 -->
<svg width="434pt" height="123pt"
 viewBox="0.00 0.00 434.00 123.00" xmlns="http://www.w3.org/2000/svg" xmlns:xlink="http://www.w3.org/1999/xlink">
<g id="graph0" class="graph" transform="scale(1 1) rotate(0) translate(4 119)">
<title>Graphical Class Hierarchy</title>
<polygon fill="white" stroke="none" points="-4,4 -4,-119 430,-119 430,4 -4,4"/>
<!-- Node1 -->
<g id="node1" class="node"><title>Node1</title>
<g id="a_node1"><a xlink:href="classSummationImplementation.xhtml" target="_top" xlink:title="SummationImplementation">
<polygon fill="white" stroke="black" points="0.5,-57.5 0.5,-76.5 133.5,-76.5 133.5,-57.5 0.5,-57.5"/>
<text text-anchor="middle" x="67" y="-64.5" font-family="Helvetica,sans-Serif" font-size="10.00">SummationImplementation</text>
</a>
</g>
</g>
<!-- Node2 -->
<g id="node2" class="node"><title>Node2</title>
<g id="a_node2"><a xlink:href="classMD5Summation.xhtml" target="_top" xlink:title="MD5Summation">
<polygon fill="white" stroke="black" points="184.5,-95.5 184.5,-114.5 271.5,-114.5 271.5,-95.5 184.5,-95.5"/>
<text text-anchor="middle" x="228" y="-102.5" font-family="Helvetica,sans-Serif" font-size="10.00">MD5Summation</text>
</a>
</g>
</g>
<!-- Node1&#45;&gt;Node2 -->
<g id="edge1" class="edge"><title>Node1&#45;&gt;Node2</title>
<path fill="none" stroke="midnightblue" d="M118.077,-78.968C140.358,-84.2931 166.229,-90.4762 187.166,-95.4799"/>
<polygon fill="midnightblue" stroke="midnightblue" points="118.662,-75.5094 108.122,-76.589 117.035,-82.3177 118.662,-75.5094"/>
</g>
<!-- Node3 -->
<g id="node3" class="node"><title>Node3</title>
<g id="a_node3"><a xlink:href="classSHA1Summation.xhtml" target="_top" xlink:title="SHA1Summation">
<polygon fill="white" stroke="black" points="182,-57.5 182,-76.5 274,-76.5 274,-57.5 182,-57.5"/>
<text text-anchor="middle" x="228" y="-64.5" font-family="Helvetica,sans-Serif" font-size="10.00">SHA1Summation</text>
</a>
</g>
</g>
<!-- Node1&#45;&gt;Node3 -->
<g id="edge2" class="edge"><title>Node1&#45;&gt;Node3</title>
<path fill="none" stroke="midnightblue" d="M143.955,-67C156.947,-67 170.065,-67 181.919,-67"/>
<polygon fill="midnightblue" stroke="midnightblue" points="143.589,-63.5001 133.589,-67 143.589,-70.5001 143.589,-63.5001"/>
</g>
<!-- Node4 -->
<g id="node4" class="node"><title>Node4</title>
<g id="a_node4"><a xlink:href="classSHA2SummationBase.xhtml" target="_top" xlink:title="SHA2SummationBase">
<polygon fill="white" stroke="black" points="170.5,-19.5 170.5,-38.5 285.5,-38.5 285.5,-19.5 170.5,-19.5"/>
<text text-anchor="middle" x="228" y="-26.5" font-family="Helvetica,sans-Serif" font-size="10.00">SHA2SummationBase</text>
</a>
</g>
</g>
<!-- Node1&#45;&gt;Node4 -->
<g id="edge3" class="edge"><title>Node1&#45;&gt;Node4</title>
<path fill="none" stroke="midnightblue" d="M118.077,-55.032C140.358,-49.7069 166.229,-43.5238 187.166,-38.5201"/>
<polygon fill="midnightblue" stroke="midnightblue" points="117.035,-51.6823 108.122,-57.411 118.662,-58.4906 117.035,-51.6823"/>
</g>
<!-- Node5 -->
<g id="node5" class="node"><title>Node5</title>
<g id="a_node5"><a xlink:href="classSHA256Summation.xhtml" target="_top" xlink:title="SHA256Summation">
<polygon fill="white" stroke="black" points="322.5,-38.5 322.5,-57.5 425.5,-57.5 425.5,-38.5 322.5,-38.5"/>
<text text-anchor="middle" x="374" y="-45.5" font-family="Helvetica,sans-Serif" font-size="10.00">SHA256Summation</text>
</a>
</g>
</g>
<!-- Node4&#45;&gt;Node5 -->
<g id="edge4" class="edge"><title>Node4&#45;&gt;Node5</title>
<path fill="none" stroke="midnightblue" d="M296.102,-37.8537C304.845,-39.0074 313.686,-40.1738 322.104,-41.2846"/>
<polygon fill="midnightblue" stroke="midnightblue" points="296.285,-34.3476 285.913,-36.5093 295.369,-41.2874 296.285,-34.3476"/>
</g>
<!-- Node6 -->
<g id="node6" class="node"><title>Node6</title>
<g id="a_node6"><a xlink:href="classSHA512Summation.xhtml" target="_top" xlink:title="SHA512Summation">
<polygon fill="white" stroke="black" points="322.5,-0.5 322.5,-19.5 425.5,-19.5 425.5,-0.5 322.5,-0.5"/>
<text text-anchor="middle" x="374" y="-7.5" font-family="Helvetica,sans-Serif" font-size="10.00">SHA512Summation</text>
</a>
</g>
</g>
<!-- Node4&#45;&gt;Node6 -->
<g id="edge5" class="edge"><title>Node4&#45;&gt;Node6</title>
<path fill="none" stroke="midnightblue" d="M296.102,-20.1463C304.845,-18.9926 313.686,-17.8262 322.104,-16.7154"/>
<polygon fill="midnightblue" stroke="midnightblue" points="295.369,-16.7126 285.913,-21.4907 296.285,-23.6524 295.369,-16.7126"/>
</g>
</g>
</svg>
