<?xml version="1.0" encoding="UTF-8" standalone="no"?>
<!DOCTYPE svg PUBLIC "-//W3C//DTD SVG 1.1//EN"
 "http://www.w3.org/Graphics/SVG/1.1/DTD/svg11.dtd">
<!-- Generated by graphviz version 2.36.0 (20140111.2315)
 -->
<!-- Title: Graphical Class Hierarchy Pages: 1 -->
<svg width="386pt" height="66pt"
 viewBox="0.00 0.00 386.00 66.00" xmlns="http://www.w3.org/2000/svg" xmlns:xlink="http://www.w3.org/1999/xlink">
<g id="graph0" class="graph" transform="scale(1 1) rotate(0) translate(4 62)">
<title>Graphical Class Hierarchy</title>
<polygon fill="white" stroke="none" points="-4,4 -4,-62 382,-62 382,4 -4,4"/>
<!-- Node1 -->
<g id="node1" class="node"><title>Node1</title>
<g id="a_node1"><a xlink:href="classpkgSourceList_1_1Type.xhtml" target="_top" xlink:title="pkgSourceList::Type">
<polygon fill="white" stroke="black" points="0.5,-19.5 0.5,-38.5 107.5,-38.5 107.5,-19.5 0.5,-19.5"/>
<text text-anchor="middle" x="54" y="-26.5" font-family="Helvetica,sans-Serif" font-size="10.00">pkgSourceList::Type</text>
</a>
</g>
</g>
<!-- Node2 -->
<g id="node2" class="node"><title>Node2</title>
<g id="a_node2"><a xlink:href="classdebSLTypeDebian.xhtml" target="_top" xlink:title="debSLTypeDebian">
<polygon fill="white" stroke="black" points="144.5,-19.5 144.5,-38.5 241.5,-38.5 241.5,-19.5 144.5,-19.5"/>
<text text-anchor="middle" x="193" y="-26.5" font-family="Helvetica,sans-Serif" font-size="10.00">debSLTypeDebian</text>
</a>
</g>
</g>
<!-- Node1&#45;&gt;Node2 -->
<g id="edge1" class="edge"><title>Node1&#45;&gt;Node2</title>
<path fill="none" stroke="midnightblue" d="M117.604,-29C126.565,-29 135.663,-29 144.276,-29"/>
<polygon fill="midnightblue" stroke="midnightblue" points="117.576,-25.5001 107.576,-29 117.576,-32.5001 117.576,-25.5001"/>
</g>
<!-- Node3 -->
<g id="node3" class="node"><title>Node3</title>
<g id="a_node3"><a xlink:href="classdebSLTypeDeb.xhtml" target="_top" xlink:title="debSLTypeDeb">
<polygon fill="white" stroke="black" points="286,-38.5 286,-57.5 370,-57.5 370,-38.5 286,-38.5"/>
<text text-anchor="middle" x="328" y="-45.5" font-family="Helvetica,sans-Serif" font-size="10.00">debSLTypeDeb</text>
</a>
</g>
</g>
<!-- Node2&#45;&gt;Node3 -->
<g id="edge2" class="edge"><title>Node2&#45;&gt;Node3</title>
<path fill="none" stroke="midnightblue" d="M251.633,-37.2333C263.15,-38.8786 275.029,-40.5755 285.853,-42.1218"/>
<polygon fill="midnightblue" stroke="midnightblue" points="252.035,-33.7552 241.64,-35.8058 251.045,-40.6849 252.035,-33.7552"/>
</g>
<!-- Node4 -->
<g id="node4" class="node"><title>Node4</title>
<g id="a_node4"><a xlink:href="classdebSLTypeDebSrc.xhtml" target="_top" xlink:title="debSLTypeDebSrc">
<polygon fill="white" stroke="black" points="278.5,-0.5 278.5,-19.5 377.5,-19.5 377.5,-0.5 278.5,-0.5"/>
<text text-anchor="middle" x="328" y="-7.5" font-family="Helvetica,sans-Serif" font-size="10.00">debSLTypeDebSrc</text>
</a>
</g>
</g>
<!-- Node2&#45;&gt;Node4 -->
<g id="edge3" class="edge"><title>Node2&#45;&gt;Node4</title>
<path fill="none" stroke="midnightblue" d="M251.586,-20.7734C260.508,-19.4988 269.649,-18.1931 278.349,-16.9502"/>
<polygon fill="midnightblue" stroke="midnightblue" points="251.045,-17.3151 241.64,-22.1942 252.035,-24.2448 251.045,-17.3151"/>
</g>
</g>
</svg>
