<?xml version="1.0" encoding="UTF-8" standalone="no"?>
<!DOCTYPE svg PUBLIC "-//W3C//DTD SVG 1.1//EN"
 "http://www.w3.org/Graphics/SVG/1.1/DTD/svg11.dtd">
<!-- Generated by graphviz version 2.36.0 (20140111.2315)
 -->
<!-- Title: apt&#45;pkg/pkgcache.h Pages: 1 -->
<svg width="403pt" height="140pt"
 viewBox="0.00 0.00 403.00 140.00" xmlns="http://www.w3.org/2000/svg" xmlns:xlink="http://www.w3.org/1999/xlink">
<g id="graph0" class="graph" transform="scale(1 1) rotate(0) translate(4 136)">
<title>apt&#45;pkg/pkgcache.h</title>
<polygon fill="white" stroke="none" points="-4,4 -4,-136 399,-136 399,4 -4,4"/>
<!-- Node1 -->
<g id="node1" class="node"><title>Node1</title>
<polygon fill="#bfbfbf" stroke="black" points="146,-112.5 146,-131.5 248,-131.5 248,-112.5 146,-112.5"/>
<text text-anchor="middle" x="197" y="-119.5" font-family="Helvetica,sans-Serif" font-size="10.00">apt&#45;pkg/pkgcache.h</text>
</g>
<!-- Node2 -->
<g id="node2" class="node"><title>Node2</title>
<polygon fill="white" stroke="#bfbfbf" points="-0.5,-56.5 -0.5,-75.5 86.5,-75.5 86.5,-56.5 -0.5,-56.5"/>
<text text-anchor="middle" x="43" y="-63.5" font-family="Helvetica,sans-Serif" font-size="10.00">apt&#45;pkg/mmap.h</text>
</g>
<!-- Node1&#45;&gt;Node2 -->
<g id="edge1" class="edge"><title>Node1&#45;&gt;Node2</title>
<path fill="none" stroke="midnightblue" d="M172.598,-112.444C146.803,-103.399 105.923,-89.064 76.9822,-78.9158"/>
<polygon fill="midnightblue" stroke="midnightblue" points="77.8824,-75.5226 67.2876,-75.5164 75.5661,-82.1283 77.8824,-75.5226"/>
</g>
<!-- Node3 -->
<g id="node3" class="node"><title>Node3</title>
<polygon fill="white" stroke="#bfbfbf" points="49,-0.5 49,-19.5 141,-19.5 141,-0.5 49,-0.5"/>
<text text-anchor="middle" x="95" y="-7.5" font-family="Helvetica,sans-Serif" font-size="10.00">apt&#45;pkg/macros.h</text>
</g>
<!-- Node1&#45;&gt;Node3 -->
<g id="edge2" class="edge"><title>Node1&#45;&gt;Node3</title>
<path fill="none" stroke="midnightblue" d="M188.996,-112.368C171.94,-93.9744 131.786,-50.6712 109.884,-27.0519"/>
<polygon fill="midnightblue" stroke="midnightblue" points="112.332,-24.5443 102.967,-19.5914 107.2,-29.3039 112.332,-24.5443"/>
</g>
<!-- Node4 -->
<g id="node4" class="node"><title>Node4</title>
<polygon fill="white" stroke="#bfbfbf" points="159.5,-0.5 159.5,-19.5 200.5,-19.5 200.5,-0.5 159.5,-0.5"/>
<text text-anchor="middle" x="180" y="-7.5" font-family="Helvetica,sans-Serif" font-size="10.00">string</text>
</g>
<!-- Node1&#45;&gt;Node4 -->
<g id="edge3" class="edge"><title>Node1&#45;&gt;Node4</title>
<path fill="none" stroke="midnightblue" d="M190.371,-112.275C184.235,-103.607 175.542,-89.6693 172,-76 167.989,-60.5223 170.799,-42.4353 174.146,-29.276"/>
<polygon fill="midnightblue" stroke="midnightblue" points="177.544,-30.1246 176.946,-19.5466 170.817,-28.1885 177.544,-30.1246"/>
</g>
<!-- Node5 -->
<g id="node5" class="node"><title>Node5</title>
<polygon fill="white" stroke="#bfbfbf" points="321,-56.5 321,-75.5 365,-75.5 365,-56.5 321,-56.5"/>
<text text-anchor="middle" x="343" y="-63.5" font-family="Helvetica,sans-Serif" font-size="10.00">time.h</text>
</g>
<!-- Node1&#45;&gt;Node5 -->
<g id="edge4" class="edge"><title>Node1&#45;&gt;Node5</title>
<path fill="none" stroke="midnightblue" d="M220.134,-112.444C244.769,-103.332 283.916,-88.8531 311.386,-78.6929"/>
<polygon fill="midnightblue" stroke="midnightblue" points="312.765,-81.9146 320.93,-75.1629 310.337,-75.3493 312.765,-81.9146"/>
</g>
<!-- Node6 -->
<g id="node6" class="node"><title>Node6</title>
<g id="a_node6"><a xlink:href="cacheiterators_8h_source.xhtml" target="_top" xlink:title="apt&#45;pkg/cacheiterators.h">
<polygon fill="white" stroke="black" points="181,-56.5 181,-75.5 303,-75.5 303,-56.5 181,-56.5"/>
<text text-anchor="middle" x="242" y="-63.5" font-family="Helvetica,sans-Serif" font-size="10.00">apt&#45;pkg/cacheiterators.h</text>
</a>
</g>
</g>
<!-- Node1&#45;&gt;Node6 -->
<g id="edge5" class="edge"><title>Node1&#45;&gt;Node6</title>
<path fill="none" stroke="midnightblue" d="M199.265,-112.083C204.159,-104.22 213.512,-92.5688 222.366,-83.0813"/>
<polygon fill="midnightblue" stroke="midnightblue" points="225.059,-85.3345 229.576,-75.7511 220.068,-80.4255 225.059,-85.3345"/>
</g>
<!-- Node6&#45;&gt;Node1 -->
<g id="edge6" class="edge"><title>Node6&#45;&gt;Node1</title>
<path fill="none" stroke="midnightblue" d="M239.787,-75.8339C234.899,-83.7118 225.487,-95.4381 216.588,-104.968"/>
<polygon fill="midnightblue" stroke="midnightblue" points="213.867,-102.743 209.345,-112.324 218.855,-107.654 213.867,-102.743"/>
</g>
<!-- Node6&#45;&gt;Node3 -->
<g id="edge7" class="edge"><title>Node6&#45;&gt;Node3</title>
<path fill="none" stroke="midnightblue" d="M218.707,-56.4435C194.193,-47.4381 155.404,-33.1891 127.8,-23.049"/>
<polygon fill="midnightblue" stroke="midnightblue" points="128.777,-19.6793 118.184,-19.5164 126.363,-26.25 128.777,-19.6793"/>
</g>
<!-- Node6&#45;&gt;Node4 -->
<g id="edge10" class="edge"><title>Node6&#45;&gt;Node4</title>
<path fill="none" stroke="midnightblue" d="M232.039,-56.324C222.873,-48.3414 209.063,-36.3128 197.972,-26.6529"/>
<polygon fill="midnightblue" stroke="midnightblue" points="199.982,-23.7624 190.143,-19.8339 195.385,-29.041 199.982,-23.7624"/>
</g>
<!-- Node7 -->
<g id="node7" class="node"><title>Node7</title>
<polygon fill="white" stroke="#bfbfbf" points="218.5,-0.5 218.5,-19.5 265.5,-19.5 265.5,-0.5 218.5,-0.5"/>
<text text-anchor="middle" x="242" y="-7.5" font-family="Helvetica,sans-Serif" font-size="10.00">iterator</text>
</g>
<!-- Node6&#45;&gt;Node7 -->
<g id="edge8" class="edge"><title>Node6&#45;&gt;Node7</title>
<path fill="none" stroke="midnightblue" d="M242,-56.083C242,-49.0059 242,-38.8611 242,-29.9865"/>
<polygon fill="midnightblue" stroke="midnightblue" points="245.5,-29.751 242,-19.7511 238.5,-29.7511 245.5,-29.751"/>
</g>
<!-- Node8 -->
<g id="node8" class="node"><title>Node8</title>
<polygon fill="white" stroke="#bfbfbf" points="283.5,-0.5 283.5,-19.5 328.5,-19.5 328.5,-0.5 283.5,-0.5"/>
<text text-anchor="middle" x="306" y="-7.5" font-family="Helvetica,sans-Serif" font-size="10.00">iosfwd</text>
</g>
<!-- Node6&#45;&gt;Node8 -->
<g id="edge9" class="edge"><title>Node6&#45;&gt;Node8</title>
<path fill="none" stroke="midnightblue" d="M252.283,-56.324C261.836,-48.2631 276.28,-36.0765 287.784,-26.3695"/>
<polygon fill="midnightblue" stroke="midnightblue" points="290.144,-28.9577 295.53,-19.8339 285.63,-23.6076 290.144,-28.9577"/>
</g>
<!-- Node9 -->
<g id="node9" class="node"><title>Node9</title>
<polygon fill="white" stroke="#bfbfbf" points="346.5,-0.5 346.5,-19.5 395.5,-19.5 395.5,-0.5 346.5,-0.5"/>
<text text-anchor="middle" x="371" y="-7.5" font-family="Helvetica,sans-Serif" font-size="10.00">string.h</text>
</g>
<!-- Node6&#45;&gt;Node9 -->
<g id="edge11" class="edge"><title>Node6&#45;&gt;Node9</title>
<path fill="none" stroke="midnightblue" d="M262.44,-56.4435C283.67,-47.5566 317.099,-33.5632 341.255,-23.4514"/>
<polygon fill="midnightblue" stroke="midnightblue" points="342.782,-26.6064 350.655,-19.5164 340.079,-20.1493 342.782,-26.6064"/>
</g>
</g>
</svg>
