<?xml version="1.0" encoding="UTF-8" standalone="no"?>
<!DOCTYPE svg PUBLIC "-//W3C//DTD SVG 1.1//EN"
 "http://www.w3.org/Graphics/SVG/1.1/DTD/svg11.dtd">
<!-- Generated by graphviz version 2.36.0 (20140111.2315)
 -->
<!-- Title: pkgPolicy::PkgPin Pages: 1 -->
<svg width="115pt" height="212pt"
 viewBox="0.00 0.00 115.00 212.00" xmlns="http://www.w3.org/2000/svg" xmlns:xlink="http://www.w3.org/1999/xlink">
<g id="graph0" class="graph" transform="scale(1 1) rotate(0) translate(4 208)">
<title>pkgPolicy::PkgPin</title>
<polygon fill="white" stroke="none" points="-4,4 -4,-208 111,-208 111,4 -4,4"/>
<!-- Node1 -->
<g id="node1" class="node"><title>Node1</title>
<polygon fill="#bfbfbf" stroke="black" points="8.5,-0.5 8.5,-19.5 105.5,-19.5 105.5,-0.5 8.5,-0.5"/>
<text text-anchor="middle" x="57" y="-7.5" font-family="Helvetica,sans-Serif" font-size="10.00">pkgPolicy::PkgPin</text>
</g>
<!-- Node2 -->
<g id="node2" class="node"><title>Node2</title>
<g id="a_node2"><a xlink:href="structpkgPolicy_1_1Pin.xhtml" target="_top" xlink:title="Pin">
<polygon fill="white" stroke="black" points="76.5,-58.5 76.5,-77.5 107.5,-77.5 107.5,-58.5 76.5,-58.5"/>
<text text-anchor="middle" x="92" y="-65.5" font-family="Helvetica,sans-Serif" font-size="10.00">Pin</text>
</a>
</g>
</g>
<!-- Node2&#45;&gt;Node1 -->
<g id="edge1" class="edge"><title>Node2&#45;&gt;Node1</title>
<path fill="none" stroke="midnightblue" d="M81.0712,-49.514C74.8263,-39.522 67.2751,-27.4402 62.3157,-19.5052"/>
<polygon fill="midnightblue" stroke="midnightblue" points="78.2632,-51.625 86.5312,-58.25 84.1992,-47.915 78.2632,-51.625"/>
</g>
<!-- Node3 -->
<g id="node3" class="node"><title>Node3</title>
<g id="a_node3"><a xlink:title="STL class. ">
<polygon fill="white" stroke="#bfbfbf" points="32.5,-126.5 32.5,-145.5 73.5,-145.5 73.5,-126.5 32.5,-126.5"/>
<text text-anchor="middle" x="53" y="-133.5" font-family="Helvetica,sans-Serif" font-size="10.00">string</text>
</a>
</g>
</g>
<!-- Node3&#45;&gt;Node1 -->
<g id="edge4" class="edge"><title>Node3&#45;&gt;Node1</title>
<path fill="none" stroke="#9a32cd" stroke-dasharray="5,2" d="M49.1878,-116.513C46.4785,-100.899 43.6956,-77.9581 46,-58 47.5764,-44.3471 51.6474,-28.8982 54.3699,-19.5575"/>
<polygon fill="#9a32cd" stroke="#9a32cd" points="45.7687,-117.269 51.0738,-126.44 52.6457,-115.963 45.7687,-117.269"/>
<text text-anchor="middle" x="56.5" y="-65.5" font-family="Helvetica,sans-Serif" font-size="10.00"> Pkg</text>
</g>
<!-- Node3&#45;&gt;Node2 -->
<g id="edge2" class="edge"><title>Node3&#45;&gt;Node2</title>
<path fill="none" stroke="#9a32cd" stroke-dasharray="5,2" d="M63.3037,-117.563C70.8564,-104.781 80.7964,-87.9599 86.7757,-77.8411"/>
<polygon fill="#9a32cd" stroke="#9a32cd" points="60.1727,-115.982 58.0986,-126.372 66.1992,-119.543 60.1727,-115.982"/>
<text text-anchor="middle" x="88.5" y="-99.5" font-family="Helvetica,sans-Serif" font-size="10.00"> Data</text>
</g>
<!-- Node4 -->
<g id="node4" class="node"><title>Node4</title>
<g id="a_node4"><a xlink:title="STL class. ">
<polygon fill="white" stroke="#bfbfbf" points="0,-184.5 0,-203.5 106,-203.5 106,-184.5 0,-184.5"/>
<text text-anchor="middle" x="53" y="-191.5" font-family="Helvetica,sans-Serif" font-size="10.00">basic_string&lt; char &gt;</text>
</a>
</g>
</g>
<!-- Node4&#45;&gt;Node3 -->
<g id="edge3" class="edge"><title>Node4&#45;&gt;Node3</title>
<path fill="none" stroke="midnightblue" d="M53,-173.953C53,-164.287 53,-153.031 53,-145.505"/>
<polygon fill="midnightblue" stroke="midnightblue" points="49.5001,-174.25 53,-184.25 56.5001,-174.25 49.5001,-174.25"/>
</g>
</g>
</svg>
