<?xml version="1.0" encoding="UTF-8" standalone="no"?>
<!DOCTYPE svg PUBLIC "-//W3C//DTD SVG 1.1//EN"
 "http://www.w3.org/Graphics/SVG/1.1/DTD/svg11.dtd">
<!-- Generated by graphviz version 2.36.0 (20140111.2315)
 -->
<!-- Title: pkgAcquire::ItemDesc Pages: 1 -->
<!--zoomable 636 -->
<svg id="main" version="1.1" xmlns="http://www.w3.org/2000/svg" xmlns:xlink="http://www.w3.org/1999/xlink" xml:space="preserve" onload="init(evt)">
<style type="text/css"><![CDATA[
.edge:hover path { stroke: red; }
.edge:hover polygon { stroke: red; fill: red; }
]]></style>
<script type="text/javascript"><![CDATA[
var edges = document.getElementsByTagName('g');
if (edges && edges.length) {
  for (var i=0;i<edges.length;i++) {
    if (edges[i].id.substr(0,4)=='edge') {
      edges[i].setAttribute('class','edge');
    }
  }
}
]]></script>
        <defs>
                <circle id="rim" cx="0" cy="0" r="7"/>
                <circle id="rim2" cx="0" cy="0" r="3.5"/>
                <g id="zoomPlus">
                        <use xlink:href="#rim" fill="#404040">
                                <set attributeName="fill" to="#808080" begin="zoomplus.mouseover" end="zoomplus.mouseout"/>
                        </use>
                        <path d="M-4,0h8M0,-4v8" fill="none" stroke="white" stroke-width="1.5" pointer-events="none"/>
                </g>
                <g id="zoomMin">
                        <use xlink:href="#rim" fill="#404040">
                                <set attributeName="fill" to="#808080" begin="zoomminus.mouseover" end="zoomminus.mouseout"/>
                        </use>
                        <path d="M-4,0h8" fill="none" stroke="white" stroke-width="1.5" pointer-events="none"/>
                </g>
                <g id="dirArrow">
                        <path fill="none" stroke="white" stroke-width="1.5" d="M0,-3.0v7 M-2.5,-0.5L0,-3.0L2.5,-0.5"/>
                </g>
               <g id="resetDef">
                       <use xlink:href="#rim2" fill="#404040">
                               <set attributeName="fill" to="#808080" begin="reset.mouseover" end="reset.mouseout"/>
                       </use>
               </g>
        </defs>

<script type="text/javascript">
var viewWidth = 773;
var viewHeight = 636;
var sectionId = 'dynsection-1';
</script>
<script xlink:href="svgpan.js"/>
<svg id="graph" class="graph">
<g id="viewport">
<title>pkgAcquire::ItemDesc</title>
<polygon fill="white" stroke="none" points="-4,4 -4,-632 769,-632 769,4 -4,4"/>
<!-- Node1 -->
<g id="node1" class="node"><title>Node1</title>
<polygon fill="#bfbfbf" stroke="black" points="216,-460.5 216,-479.5 330,-479.5 330,-460.5 216,-460.5"/>
<text text-anchor="middle" x="273" y="-467.5" font-family="Helvetica,sans-Serif" font-size="10.00">pkgAcquire::ItemDesc</text>
</g>
<!-- Node8 -->
<g id="node8" class="node"><title>Node8</title>
<g id="a_node8"><a xlink:href="structpkgAcquire_1_1Queue_1_1QItem.xhtml" target="_top" xlink:title="A single item placed in this queue. ">
<polygon fill="white" stroke="black" points="253,-375.5 253,-394.5 297,-394.5 297,-375.5 253,-375.5"/>
<text text-anchor="middle" x="275" y="-382.5" font-family="Helvetica,sans-Serif" font-size="10.00">QItem</text>
</a>
</g>
</g>
<!-- Node1&#45;&gt;Node8 -->
<g id="edge10" class="edge"><title>Node1&#45;&gt;Node8</title>
<path fill="none" stroke="midnightblue" d="M273.45,-450.321C273.869,-432.917 274.476,-407.742 274.792,-394.648"/>
<polygon fill="midnightblue" stroke="midnightblue" points="269.949,-450.349 273.207,-460.43 276.946,-450.517 269.949,-450.349"/>
</g>
<!-- Node2 -->
<g id="node2" class="node"><title>Node2</title>
<g id="a_node2"><a xlink:href="classWeakPointable.xhtml" target="_top" xlink:title="WeakPointable">
<polygon fill="white" stroke="black" points="145.5,-550.5 145.5,-569.5 228.5,-569.5 228.5,-550.5 145.5,-550.5"/>
<text text-anchor="middle" x="187" y="-557.5" font-family="Helvetica,sans-Serif" font-size="10.00">WeakPointable</text>
</a>
</g>
</g>
<!-- Node2&#45;&gt;Node1 -->
<g id="edge1" class="edge"><title>Node2&#45;&gt;Node1</title>
<path fill="none" stroke="midnightblue" d="M202.579,-543.058C220.733,-524.483 250.074,-494.459 264.474,-479.724"/>
<polygon fill="midnightblue" stroke="midnightblue" points="200.047,-540.642 195.56,-550.241 205.053,-545.535 200.047,-540.642"/>
</g>
<!-- Node5 -->
<g id="node5" class="node"><title>Node5</title>
<g id="a_node5"><a xlink:href="classpkgAcquire_1_1Item.xhtml" target="_top" xlink:title="Represents the process by which a pkgAcquire object should {{{ retrieve a file or a collection of fil...">
<polygon fill="white" stroke="black" points="486,-80.5 486,-99.5 522,-99.5 522,-80.5 486,-80.5"/>
<text text-anchor="middle" x="504" y="-87.5" font-family="Helvetica,sans-Serif" font-size="10.00">Item</text>
</a>
</g>
</g>
<!-- Node2&#45;&gt;Node5 -->
<g id="edge5" class="edge"><title>Node2&#45;&gt;Node5</title>
<path fill="none" stroke="midnightblue" d="M135.476,-556.276C80.1227,-550.243 0,-531.125 0,-471 0,-471 0,-471 0,-157 0,-112.589 48.791,-128.263 92,-118 168.541,-99.8203 416.717,-92.9663 485.93,-91.3814"/>
<polygon fill="midnightblue" stroke="midnightblue" points="135.205,-559.766 145.499,-557.257 135.887,-552.799 135.205,-559.766"/>
</g>
<!-- Node9 -->
<g id="node9" class="node"><title>Node9</title>
<g id="a_node9"><a xlink:href="classpkgAcquire_1_1Worker.xhtml" target="_top" xlink:title="A fetch subprocess. ">
<polygon fill="white" stroke="black" points="308,-217.5 308,-236.5 356,-236.5 356,-217.5 308,-217.5"/>
<text text-anchor="middle" x="332" y="-224.5" font-family="Helvetica,sans-Serif" font-size="10.00">Worker</text>
</a>
</g>
</g>
<!-- Node2&#45;&gt;Node9 -->
<g id="edge13" class="edge"><title>Node2&#45;&gt;Node9</title>
<path fill="none" stroke="midnightblue" d="M188.164,-540.04C191.467,-494.659 203.108,-376.81 239,-286 244.801,-271.322 245.768,-265.973 258,-256 272.373,-244.283 292.165,-237.137 307.665,-233"/>
<polygon fill="midnightblue" stroke="midnightblue" points="184.662,-539.966 187.481,-550.179 191.646,-540.437 184.662,-539.966"/>
</g>
<!-- Node3 -->
<g id="node3" class="node"><title>Node3</title>
<g id="a_node3"><a xlink:title="STL class. ">
<polygon fill="white" stroke="#bfbfbf" points="487.5,-550.5 487.5,-569.5 528.5,-569.5 528.5,-550.5 487.5,-550.5"/>
<text text-anchor="middle" x="508" y="-557.5" font-family="Helvetica,sans-Serif" font-size="10.00">string</text>
</a>
</g>
</g>
<!-- Node3&#45;&gt;Node1 -->
<g id="edge2" class="edge"><title>Node3&#45;&gt;Node1</title>
<path fill="none" stroke="#9a32cd" stroke-dasharray="5,2" d="M477.067,-558.928C442.752,-557.741 386.495,-552.45 343,-532 316.159,-519.38 291.74,-493.389 280.127,-479.767"/>
<polygon fill="#9a32cd" stroke="#9a32cd" points="477.309,-562.435 487.393,-559.183 477.482,-555.437 477.309,-562.435"/>
<text text-anchor="middle" x="369.5" y="-523.5" font-family="Helvetica,sans-Serif" font-size="10.00"> Description</text>
<text text-anchor="middle" x="369.5" y="-512.5" font-family="Helvetica,sans-Serif" font-size="10.00">URI</text>
<text text-anchor="middle" x="369.5" y="-501.5" font-family="Helvetica,sans-Serif" font-size="10.00">ShortDesc</text>
</g>
<!-- Node3&#45;&gt;Node5 -->
<g id="edge31" class="edge"><title>Node3&#45;&gt;Node5</title>
<path fill="none" stroke="#9a32cd" stroke-dasharray="5,2" d="M538.754,-559.399C596.636,-558.374 716,-547.04 716,-471 716,-471 716,-471 716,-157 716,-116.525 573.343,-98.042 522.075,-92.7066"/>
<polygon fill="#9a32cd" stroke="#9a32cd" points="538.674,-555.9 528.704,-559.484 538.733,-562.9 538.674,-555.9"/>
<text text-anchor="middle" x="740.5" y="-311.5" font-family="Helvetica,sans-Serif" font-size="10.00"> DestFile</text>
<text text-anchor="middle" x="740.5" y="-300.5" font-family="Helvetica,sans-Serif" font-size="10.00">ErrorText</text>
<text text-anchor="middle" x="740.5" y="-289.5" font-family="Helvetica,sans-Serif" font-size="10.00">UsedMirror</text>
</g>
<!-- Node7 -->
<g id="node7" class="node"><title>Node7</title>
<g id="a_node7"><a xlink:href="classpkgAcquire_1_1Queue.xhtml" target="_top" xlink:title="A single download queue in a pkgAcquire object. {{{. ">
<polygon fill="white" stroke="black" points="449.5,-293.5 449.5,-312.5 494.5,-312.5 494.5,-293.5 449.5,-293.5"/>
<text text-anchor="middle" x="472" y="-300.5" font-family="Helvetica,sans-Serif" font-size="10.00">Queue</text>
</a>
</g>
</g>
<!-- Node3&#45;&gt;Node7 -->
<g id="edge24" class="edge"><title>Node3&#45;&gt;Node7</title>
<path fill="none" stroke="#9a32cd" stroke-dasharray="5,2" d="M503.684,-540.496C498.562,-517.543 490.299,-477.138 487,-442 482.679,-395.978 495.188,-383.302 486,-338 484.173,-328.991 479.971,-319.359 476.645,-312.656"/>
<polygon fill="#9a32cd" stroke="#9a32cd" points="500.276,-541.291 505.911,-550.263 507.101,-539.735 500.276,-541.291"/>
<text text-anchor="middle" x="502" y="-428.5" font-family="Helvetica,sans-Serif" font-size="10.00"> Name</text>
</g>
<!-- Node3&#45;&gt;Node9 -->
<g id="edge19" class="edge"><title>Node3&#45;&gt;Node9</title>
<path fill="none" stroke="#9a32cd" stroke-dasharray="5,2" d="M515.615,-540.935C522.311,-523.393 531,-495.846 531,-471 531,-471 531,-471 531,-302 531,-267.33 499.701,-270.037 468,-256 430.97,-239.602 383.971,-232.668 356.036,-229.838"/>
<polygon fill="#9a32cd" stroke="#9a32cd" points="512.272,-539.867 511.798,-550.451 518.769,-542.473 512.272,-539.867"/>
<text text-anchor="middle" x="555" y="-393.5" font-family="Helvetica,sans-Serif" font-size="10.00"> OutQueue</text>
<text text-anchor="middle" x="555" y="-382.5" font-family="Helvetica,sans-Serif" font-size="10.00">Access</text>
<text text-anchor="middle" x="555" y="-371.5" font-family="Helvetica,sans-Serif" font-size="10.00">Status</text>
</g>
<!-- Node10 -->
<g id="node10" class="node"><title>Node10</title>
<g id="a_node10"><a xlink:href="structpkgAcquire_1_1MethodConfig.xhtml" target="_top" xlink:title="Information about the properties of a single acquire method. {{{. ">
<polygon fill="white" stroke="black" points="559.5,-293.5 559.5,-312.5 636.5,-312.5 636.5,-293.5 559.5,-293.5"/>
<text text-anchor="middle" x="598" y="-300.5" font-family="Helvetica,sans-Serif" font-size="10.00">MethodConfig</text>
</a>
</g>
</g>
<!-- Node3&#45;&gt;Node10 -->
<g id="edge17" class="edge"><title>Node3&#45;&gt;Node10</title>
<path fill="none" stroke="#9a32cd" stroke-dasharray="5,2" d="M532.67,-544.542C537.282,-540.929 541.686,-536.718 545,-532 595.925,-459.507 598.552,-345.142 598.21,-312.788"/>
<polygon fill="#9a32cd" stroke="#9a32cd" points="530.519,-541.775 524.337,-550.379 534.535,-547.508 530.519,-541.775"/>
<text text-anchor="middle" x="607.5" y="-434" font-family="Helvetica,sans-Serif" font-size="10.00"> Access</text>
<text text-anchor="middle" x="607.5" y="-423" font-family="Helvetica,sans-Serif" font-size="10.00">Version</text>
</g>
<!-- Node12 -->
<g id="node12" class="node"><title>Node12</title>
<polygon fill="white" stroke="#bfbfbf" points="336.5,-421.5 336.5,-440.5 441.5,-440.5 441.5,-421.5 336.5,-421.5"/>
<text text-anchor="middle" x="389" y="-428.5" font-family="Helvetica,sans-Serif" font-size="10.00">vector&lt; std::string &gt;</text>
</g>
<!-- Node3&#45;&gt;Node12 -->
<g id="edge22" class="edge"><title>Node3&#45;&gt;Node12</title>
<path fill="none" stroke="#9a32cd" stroke-dasharray="5,2" d="M477.205,-555.008C460.795,-551.441 441.307,-544.704 428,-532 401.043,-506.264 392.403,-459.706 389.912,-440.568"/>
<polygon fill="#9a32cd" stroke="#9a32cd" points="476.975,-558.526 487.448,-556.926 478.263,-551.646 476.975,-558.526"/>
<text text-anchor="middle" x="449.5" y="-512.5" font-family="Helvetica,sans-Serif" font-size="10.00"> elements</text>
</g>
<!-- Node4 -->
<g id="node4" class="node"><title>Node4</title>
<g id="a_node4"><a xlink:title="STL class. ">
<polygon fill="white" stroke="#bfbfbf" points="455,-608.5 455,-627.5 561,-627.5 561,-608.5 455,-608.5"/>
<text text-anchor="middle" x="508" y="-615.5" font-family="Helvetica,sans-Serif" font-size="10.00">basic_string&lt; char &gt;</text>
</a>
</g>
</g>
<!-- Node4&#45;&gt;Node3 -->
<g id="edge3" class="edge"><title>Node4&#45;&gt;Node3</title>
<path fill="none" stroke="midnightblue" d="M508,-597.953C508,-588.287 508,-577.031 508,-569.505"/>
<polygon fill="midnightblue" stroke="midnightblue" points="504.5,-598.25 508,-608.25 511.5,-598.25 504.5,-598.25"/>
</g>
<!-- Node5&#45;&gt;Node1 -->
<g id="edge4" class="edge"><title>Node5&#45;&gt;Node1</title>
<path fill="none" stroke="#9a32cd" stroke-dasharray="5,2" d="M475.652,-92.0106C374.599,-95.9841 38,-112.555 38,-157 38,-263 38,-263 38,-263 38,-373.409 186.497,-438.456 247.404,-460.493"/>
<polygon fill="#9a32cd" stroke="#9a32cd" points="475.873,-95.5048 485.732,-91.6257 475.606,-88.5099 475.873,-95.5048"/>
<text text-anchor="middle" x="55" y="-259.5" font-family="Helvetica,sans-Serif" font-size="10.00"> Owner</text>
</g>
<!-- Node13 -->
<g id="node13" class="node"><title>Node13</title>
<polygon fill="white" stroke="#bfbfbf" points="616.5,-1 616.5,-31 717.5,-31 717.5,-1 616.5,-1"/>
<text text-anchor="start" x="624.5" y="-19" font-family="Helvetica,sans-Serif" font-size="10.00">vector&lt; pkgAcquire</text>
<text text-anchor="middle" x="667" y="-8" font-family="Helvetica,sans-Serif" font-size="10.00">::Item * &gt;</text>
</g>
<!-- Node5&#45;&gt;Node13 -->
<g id="edge29" class="edge"><title>Node5&#45;&gt;Node13</title>
<path fill="none" stroke="#9a32cd" stroke-dasharray="5,2" d="M531.472,-76.8651C560.116,-64.2125 604.963,-44.4029 635.141,-31.0727"/>
<polygon fill="#9a32cd" stroke="#9a32cd" points="529.8,-73.7775 522.067,-81.0196 532.628,-80.1806 529.8,-73.7775"/>
<text text-anchor="middle" x="612.5" y="-53.5" font-family="Helvetica,sans-Serif" font-size="10.00"> elements</text>
</g>
<!-- Node6 -->
<g id="node6" class="node"><title>Node6</title>
<g id="a_node6"><a xlink:href="classpkgAcquire.xhtml" target="_top" xlink:title="The core download scheduler. {{{. ">
<polygon fill="white" stroke="black" points="471.5,-148.5 471.5,-167.5 536.5,-167.5 536.5,-148.5 471.5,-148.5"/>
<text text-anchor="middle" x="504" y="-155.5" font-family="Helvetica,sans-Serif" font-size="10.00">pkgAcquire</text>
</a>
</g>
</g>
<!-- Node6&#45;&gt;Node5 -->
<g id="edge6" class="edge"><title>Node6&#45;&gt;Node5</title>
<path fill="none" stroke="#9a32cd" stroke-dasharray="5,2" d="M504,-138.041C504,-125.472 504,-109.563 504,-99.8411"/>
<polygon fill="#9a32cd" stroke="#9a32cd" points="500.5,-138.372 504,-148.372 507.5,-138.372 500.5,-138.372"/>
<text text-anchor="middle" x="520" y="-121.5" font-family="Helvetica,sans-Serif" font-size="10.00"> Owner</text>
</g>
<!-- Node6&#45;&gt;Node7 -->
<g id="edge8" class="edge"><title>Node6&#45;&gt;Node7</title>
<path fill="none" stroke="#9a32cd" stroke-dasharray="5,2" d="M512.199,-177.358C518.291,-193.592 524.516,-217.771 518,-238 510.701,-260.663 492.073,-282.085 480.889,-293.483"/>
<polygon fill="#9a32cd" stroke="#9a32cd" points="515.378,-175.886 508.349,-167.958 508.9,-178.539 515.378,-175.886"/>
<text text-anchor="middle" x="537" y="-224.5" font-family="Helvetica,sans-Serif" font-size="10.00"> Owner</text>
</g>
<!-- Node7&#45;&gt;Node6 -->
<g id="edge7" class="edge"><title>Node7&#45;&gt;Node6</title>
<path fill="none" stroke="#9a32cd" stroke-dasharray="5,2" d="M472.46,-283.24C473.243,-265.641 475.35,-238.705 481,-216 485.432,-198.189 494.291,-178.581 499.628,-167.631"/>
<polygon fill="#9a32cd" stroke="#9a32cd" points="468.96,-283.203 472.113,-293.318 475.955,-283.445 468.96,-283.203"/>
<text text-anchor="middle" x="499.5" y="-224.5" font-family="Helvetica,sans-Serif" font-size="10.00"> Queues</text>
</g>
<!-- Node7&#45;&gt;Node9 -->
<g id="edge14" class="edge"><title>Node7&#45;&gt;Node9</title>
<path fill="none" stroke="#9a32cd" stroke-dasharray="5,2" d="M439.387,-293.977C412.332,-286.916 376.367,-276.471 364,-268 351.967,-259.758 342.218,-245.66 336.766,-236.592"/>
<polygon fill="#9a32cd" stroke="#9a32cd" points="438.696,-297.413 449.252,-296.506 440.435,-290.632 438.696,-297.413"/>
<text text-anchor="middle" x="384" y="-259.5" font-family="Helvetica,sans-Serif" font-size="10.00"> OwnerQ</text>
</g>
<!-- Node8&#45;&gt;Node7 -->
<g id="edge9" class="edge"><title>Node8&#45;&gt;Node7</title>
<path fill="none" stroke="#9a32cd" stroke-dasharray="5,2" d="M307.471,-384.409C343.093,-383.351 400.569,-377.066 441,-350 454.765,-340.786 464.027,-323.188 468.623,-312.632"/>
<polygon fill="#9a32cd" stroke="#9a32cd" points="307.099,-380.915 297.161,-384.587 307.22,-387.914 307.099,-380.915"/>
<text text-anchor="middle" x="468" y="-341.5" font-family="Helvetica,sans-Serif" font-size="10.00"> Items</text>
</g>
<!-- Node8&#45;&gt;Node8 -->
<g id="edge11" class="edge"><title>Node8&#45;&gt;Node8</title>
<path fill="none" stroke="#9a32cd" stroke-dasharray="5,2" d="M307.111,-391.578C311.259,-390.44 314,-388.247 314,-385 314,-379.531 306.224,-377.053 297.051,-377.566"/>
<polygon fill="#9a32cd" stroke="#9a32cd" points="306.718,-388.099 297.051,-392.434 307.312,-395.074 306.718,-388.099"/>
<text text-anchor="middle" x="326.5" y="-382.5" font-family="Helvetica,sans-Serif" font-size="10.00"> Next</text>
</g>
<!-- Node8&#45;&gt;Node9 -->
<g id="edge18" class="edge"><title>Node8&#45;&gt;Node9</title>
<path fill="none" stroke="#9a32cd" stroke-dasharray="5,2" d="M280.684,-365.535C288.553,-340.456 303.552,-294.354 319,-256 321.643,-249.438 325.017,-242.198 327.665,-236.725"/>
<polygon fill="#9a32cd" stroke="#9a32cd" points="277.307,-364.606 277.68,-375.194 283.992,-366.684 277.307,-364.606"/>
<text text-anchor="middle" x="335.5" y="-300.5" font-family="Helvetica,sans-Serif" font-size="10.00"> CurrentItem</text>
</g>
<!-- Node9&#45;&gt;Node6 -->
<g id="edge30" class="edge"><title>Node9&#45;&gt;Node6</title>
<path fill="none" stroke="#9a32cd" stroke-dasharray="5,2" d="M356.561,-212.505C372.371,-204.163 393.531,-193.631 413,-186 431.872,-178.603 453.616,-172.081 471.116,-167.301"/>
<polygon fill="#9a32cd" stroke="#9a32cd" points="354.637,-209.565 347.472,-217.37 357.941,-215.736 354.637,-209.565"/>
<text text-anchor="middle" x="433" y="-189.5" font-family="Helvetica,sans-Serif" font-size="10.00"> Workers</text>
</g>
<!-- Node9&#45;&gt;Node7 -->
<g id="edge25" class="edge"><title>Node9&#45;&gt;Node7</title>
<path fill="none" stroke="#9a32cd" stroke-dasharray="5,2" d="M365.74,-239.34C378.05,-243.937 391.909,-249.662 404,-256 425.208,-267.117 447.866,-283.454 460.937,-293.371"/>
<polygon fill="#9a32cd" stroke="#9a32cd" points="366.858,-236.023 356.264,-235.905 364.473,-242.604 366.858,-236.023"/>
<text text-anchor="middle" x="444" y="-259.5" font-family="Helvetica,sans-Serif" font-size="10.00"> Workers</text>
</g>
<!-- Node9&#45;&gt;Node8 -->
<g id="edge12" class="edge"><title>Node9&#45;&gt;Node8</title>
<path fill="none" stroke="#9a32cd" stroke-dasharray="5,2" d="M299.838,-240.915C281.014,-250.353 258.868,-265.165 248,-286 232.002,-316.668 256.328,-357.821 268.609,-375.427"/>
<polygon fill="#9a32cd" stroke="#9a32cd" points="301.469,-244.015 309.025,-236.588 298.486,-237.683 301.469,-244.015"/>
<text text-anchor="middle" x="265.5" y="-300.5" font-family="Helvetica,sans-Serif" font-size="10.00"> Worker</text>
</g>
<!-- Node9&#45;&gt;Node9 -->
<g id="edge23" class="edge"><title>Node9&#45;&gt;Node9</title>
<path fill="none" stroke="#9a32cd" stroke-dasharray="5,2" d="M366.425,-232.625C370.979,-231.667 374,-229.792 374,-227 374,-222.418 365.864,-220.306 356.17,-220.664"/>
<polygon fill="#9a32cd" stroke="#9a32cd" points="365.904,-229.153 356.17,-233.336 366.388,-236.136 365.904,-229.153"/>
<text text-anchor="middle" x="401.5" y="-230" font-family="Helvetica,sans-Serif" font-size="10.00"> NextQueue</text>
<text text-anchor="middle" x="401.5" y="-219" font-family="Helvetica,sans-Serif" font-size="10.00">NextAcquire</text>
</g>
<!-- Node10&#45;&gt;Node6 -->
<g id="edge26" class="edge"><title>Node10&#45;&gt;Node6</title>
<path fill="none" stroke="#9a32cd" stroke-dasharray="5,2" d="M600.589,-283.339C601.042,-274.721 600.496,-264.532 597,-256 580.459,-215.63 538.46,-182.481 517.022,-167.543"/>
<polygon fill="#9a32cd" stroke="#9a32cd" points="597.086,-283.194 599.58,-293.491 604.052,-283.886 597.086,-283.194"/>
<text text-anchor="middle" x="605.5" y="-224.5" font-family="Helvetica,sans-Serif" font-size="10.00"> Configs</text>
</g>
<!-- Node10&#45;&gt;Node9 -->
<g id="edge15" class="edge"><title>Node10&#45;&gt;Node9</title>
<path fill="none" stroke="#9a32cd" stroke-dasharray="5,2" d="M583.21,-285.891C572.748,-275.575 557.815,-262.876 542,-256 525.219,-248.704 407.632,-235.832 356.101,-230.461"/>
<polygon fill="#9a32cd" stroke="#9a32cd" points="580.804,-288.438 590.279,-293.179 585.829,-283.564 580.804,-288.438"/>
<text text-anchor="middle" x="577" y="-259.5" font-family="Helvetica,sans-Serif" font-size="10.00"> Config</text>
</g>
<!-- Node10&#45;&gt;Node10 -->
<g id="edge16" class="edge"><title>Node10&#45;&gt;Node10</title>
<path fill="none" stroke="#9a32cd" stroke-dasharray="5,2" d="M646.872,-308.932C651.251,-307.691 654,-305.714 654,-303 654,-298.547 646.597,-296.077 636.735,-295.59"/>
<polygon fill="#9a32cd" stroke="#9a32cd" points="646.125,-305.503 636.735,-310.41 647.136,-312.43 646.125,-305.503"/>
<text text-anchor="middle" x="666.5" y="-300.5" font-family="Helvetica,sans-Serif" font-size="10.00"> Next</text>
</g>
<!-- Node11 -->
<g id="node11" class="node"><title>Node11</title>
<g id="a_node11"><a xlink:href="classpkgAcquireStatus.xhtml" target="_top" xlink:title="A monitor object for downloads controlled by the pkgAcquire class. {{{. ">
<polygon fill="white" stroke="black" points="66,-293.5 66,-312.5 160,-312.5 160,-293.5 66,-293.5"/>
<text text-anchor="middle" x="113" y="-300.5" font-family="Helvetica,sans-Serif" font-size="10.00">pkgAcquireStatus</text>
</a>
</g>
</g>
<!-- Node11&#45;&gt;Node6 -->
<g id="edge27" class="edge"><title>Node11&#45;&gt;Node6</title>
<path fill="none" stroke="#9a32cd" stroke-dasharray="5,2" d="M118.581,-283.746C122.362,-274.222 128.285,-263.107 137,-256 224.764,-184.431 272.22,-213.804 382,-186 412.072,-178.384 446.615,-170.852 471.251,-165.686"/>
<polygon fill="#9a32cd" stroke="#9a32cd" points="115.275,-282.596 115.288,-293.191 121.885,-284.9 115.275,-282.596"/>
<text text-anchor="middle" x="213.5" y="-224.5" font-family="Helvetica,sans-Serif" font-size="10.00"> Log</text>
</g>
<!-- Node11&#45;&gt;Node9 -->
<g id="edge20" class="edge"><title>Node11&#45;&gt;Node9</title>
<path fill="none" stroke="#9a32cd" stroke-dasharray="5,2" d="M124.222,-284.769C131.708,-274.728 142.461,-262.751 155,-256 181.024,-241.99 265.918,-233.352 307.961,-229.83"/>
<polygon fill="#9a32cd" stroke="#9a32cd" points="121.163,-283.037 118.308,-293.24 126.903,-287.044 121.163,-283.037"/>
<text text-anchor="middle" x="164.5" y="-259.5" font-family="Helvetica,sans-Serif" font-size="10.00"> Log</text>
</g>
<!-- Node12&#45;&gt;Node9 -->
<g id="edge21" class="edge"><title>Node12&#45;&gt;Node9</title>
<path fill="none" stroke="#9a32cd" stroke-dasharray="5,2" d="M381.819,-411.638C375.971,-395.644 368.182,-371.681 365,-350 360.867,-321.843 378.245,-312.143 367,-286 362.404,-275.314 354.534,-277.624 348,-268 341.362,-258.223 336.823,-245.278 334.321,-236.799"/>
<polygon fill="#9a32cd" stroke="#9a32cd" points="378.666,-413.196 385.477,-421.312 385.214,-410.721 378.666,-413.196"/>
<text text-anchor="middle" x="401" y="-341.5" font-family="Helvetica,sans-Serif" font-size="10.00"> MessageQueue</text>
</g>
<!-- Node13&#45;&gt;Node6 -->
<g id="edge28" class="edge"><title>Node13&#45;&gt;Node6</title>
<path fill="none" stroke="#9a32cd" stroke-dasharray="5,2" d="M654.35,-40.2932C649.744,-47.6749 644.144,-55.578 638,-62 601.136,-100.533 546.627,-133.462 519.922,-148.414"/>
<polygon fill="#9a32cd" stroke="#9a32cd" points="657.546,-41.7632 659.618,-31.3727 651.519,-38.2038 657.546,-41.7632"/>
<text text-anchor="middle" x="633" y="-87.5" font-family="Helvetica,sans-Serif" font-size="10.00"> Items</text>
</g>
</g>
</svg>
        <g id="navigator" transform="translate(0 0)" fill="#404254">
                <rect fill="#f2f5e9" fill-opacity="0.5" stroke="#606060" stroke-width=".5" x="0" y="0" width="60" height="60"/>
                <use id="zoomplus" xlink:href="#zoomPlus" x="17" y="9" onmousedown="handleZoom(evt,'in')"/>
                <use id="zoomminus" xlink:href="#zoomMin" x="42" y="9" onmousedown="handleZoom(evt,'out')"/>
                <use id="reset" xlink:href="#resetDef" x="30" y="36" onmousedown="handleReset()"/>
                <g id="arrowUp" xlink:href="#dirArrow" transform="translate(30 24)" onmousedown="handlePan(0,-1)">
                  <use xlink:href="#rim" fill="#404040">
                        <set attributeName="fill" to="#808080" begin="arrowUp.mouseover" end="arrowUp.mouseout"/>
                  </use>
                  <path fill="none" stroke="white" stroke-width="1.5" d="M0,-3.0v7 M-2.5,-0.5L0,-3.0L2.5,-0.5"/>
                </g>
                <g id="arrowRight" xlink:href="#dirArrow" transform="rotate(90) translate(36 -43)" onmousedown="handlePan(1,0)">
                  <use xlink:href="#rim" fill="#404040">
                        <set attributeName="fill" to="#808080" begin="arrowRight.mouseover" end="arrowRight.mouseout"/>
                  </use>
                  <path fill="none" stroke="white" stroke-width="1.5" d="M0,-3.0v7 M-2.5,-0.5L0,-3.0L2.5,-0.5"/>
                </g>
                <g id="arrowDown" xlink:href="#dirArrow" transform="rotate(180) translate(-30 -48)" onmousedown="handlePan(0,1)">
                  <use xlink:href="#rim" fill="#404040">
                        <set attributeName="fill" to="#808080" begin="arrowDown.mouseover" end="arrowDown.mouseout"/>
                  </use>
                  <path fill="none" stroke="white" stroke-width="1.5" d="M0,-3.0v7 M-2.5,-0.5L0,-3.0L2.5,-0.5"/>
                </g>
                <g id="arrowLeft" xlink:href="#dirArrow" transform="rotate(270) translate(-36 17)" onmousedown="handlePan(-1,0)">
                  <use xlink:href="#rim" fill="#404040">
                        <set attributeName="fill" to="#808080" begin="arrowLeft.mouseover" end="arrowLeft.mouseout"/>
                  </use>
                  <path fill="none" stroke="white" stroke-width="1.5" d="M0,-3.0v7 M-2.5,-0.5L0,-3.0L2.5,-0.5"/>
                </g>
        </g>
        <svg viewBox="0 0 15 15" width="100%" height="30px" preserveAspectRatio="xMaxYMin meet">
         <g id="arrow_out" transform="scale(0.3 0.3)">
          <a xlink:href="structpkgAcquire_1_1ItemDesc__coll__graph_org.svg" target="_base">
           <rect id="button" ry="5" rx="5" y="6" x="6" height="38" width="38"
                fill="#f2f5e9" fill-opacity="0.5" stroke="#606060" stroke-width="1.0"/>
           <path id="arrow"
             d="M 11.500037,31.436501 C 11.940474,20.09759 22.043105,11.32322 32.158766,21.979434 L 37.068811,17.246167 C 37.068811,17.246167 37.088388,32 37.088388,32 L 22.160133,31.978069 C 22.160133,31.978069 26.997745,27.140456 26.997745,27.140456 C 18.528582,18.264221 13.291696,25.230495 11.500037,31.436501 z"
             style="fill:#404040;"/>
          </a>
         </g>
        </svg>
</svg>
