<?xml version="1.0" encoding="UTF-8" standalone="no"?>
<!DOCTYPE svg PUBLIC "-//W3C//DTD SVG 1.1//EN"
 "http://www.w3.org/Graphics/SVG/1.1/DTD/svg11.dtd">
<!-- Generated by graphviz version 2.36.0 (20140111.2315)
 -->
<!-- Title: pkgSrcRecords::File Pages: 1 -->
<svg width="112pt" height="176pt"
 viewBox="0.00 0.00 112.00 176.00" xmlns="http://www.w3.org/2000/svg" xmlns:xlink="http://www.w3.org/1999/xlink">
<g id="graph0" class="graph" transform="scale(1 1) rotate(0) translate(4 172)">
<title>pkgSrcRecords::File</title>
<polygon fill="white" stroke="none" points="-4,4 -4,-172 108,-172 108,4 -4,4"/>
<!-- Node1 -->
<g id="node1" class="node"><title>Node1</title>
<polygon fill="#bfbfbf" stroke="black" points="-1,-0.5 -1,-19.5 105,-19.5 105,-0.5 -1,-0.5"/>
<text text-anchor="middle" x="52" y="-7.5" font-family="Helvetica,sans-Serif" font-size="10.00">pkgSrcRecords::File</text>
</g>
<!-- Node2 -->
<g id="node2" class="node"><title>Node2</title>
<g id="a_node2"><a xlink:title="STL class. ">
<polygon fill="white" stroke="#bfbfbf" points="31.5,-90.5 31.5,-109.5 72.5,-109.5 72.5,-90.5 31.5,-90.5"/>
<text text-anchor="middle" x="52" y="-97.5" font-family="Helvetica,sans-Serif" font-size="10.00">string</text>
</a>
</g>
</g>
<!-- Node2&#45;&gt;Node1 -->
<g id="edge1" class="edge"><title>Node2&#45;&gt;Node1</title>
<path fill="none" stroke="#9a32cd" stroke-dasharray="5,2" d="M52,-79.9784C52,-61.3096 52,-33.6696 52,-19.7241"/>
<polygon fill="#9a32cd" stroke="#9a32cd" points="48.5001,-80.2405 52,-90.2405 55.5001,-80.2405 48.5001,-80.2405"/>
<text text-anchor="middle" x="74.5" y="-63.5" font-family="Helvetica,sans-Serif" font-size="10.00"> Path</text>
<text text-anchor="middle" x="74.5" y="-52.5" font-family="Helvetica,sans-Serif" font-size="10.00">Type</text>
<text text-anchor="middle" x="74.5" y="-41.5" font-family="Helvetica,sans-Serif" font-size="10.00">MD5Hash</text>
</g>
<!-- Node3 -->
<g id="node3" class="node"><title>Node3</title>
<g id="a_node3"><a xlink:title="STL class. ">
<polygon fill="white" stroke="#bfbfbf" points="-1,-148.5 -1,-167.5 105,-167.5 105,-148.5 -1,-148.5"/>
<text text-anchor="middle" x="52" y="-155.5" font-family="Helvetica,sans-Serif" font-size="10.00">basic_string&lt; char &gt;</text>
</a>
</g>
</g>
<!-- Node3&#45;&gt;Node2 -->
<g id="edge2" class="edge"><title>Node3&#45;&gt;Node2</title>
<path fill="none" stroke="midnightblue" d="M52,-137.953C52,-128.287 52,-117.031 52,-109.505"/>
<polygon fill="midnightblue" stroke="midnightblue" points="48.5001,-138.25 52,-148.25 55.5001,-138.25 48.5001,-138.25"/>
</g>
</g>
</svg>
