<?xml version="1.0" encoding="UTF-8" standalone="no"?>
<!DOCTYPE svg PUBLIC "-//W3C//DTD SVG 1.1//EN"
 "http://www.w3.org/Graphics/SVG/1.1/DTD/svg11.dtd">
<!-- Generated by graphviz version 2.36.0 (20140111.2315)
 -->
<!-- Title: CompareProviders Pages: 1 -->
<!--zoomable 561 -->
<svg id="main" version="1.1" xmlns="http://www.w3.org/2000/svg" xmlns:xlink="http://www.w3.org/1999/xlink" xml:space="preserve" onload="init(evt)">
<style type="text/css"><![CDATA[
.edge:hover path { stroke: red; }
.edge:hover polygon { stroke: red; fill: red; }
]]></style>
<script type="text/javascript"><![CDATA[
var edges = document.getElementsByTagName('g');
if (edges && edges.length) {
  for (var i=0;i<edges.length;i++) {
    if (edges[i].id.substr(0,4)=='edge') {
      edges[i].setAttribute('class','edge');
    }
  }
}
]]></script>
        <defs>
                <circle id="rim" cx="0" cy="0" r="7"/>
                <circle id="rim2" cx="0" cy="0" r="3.5"/>
                <g id="zoomPlus">
                        <use xlink:href="#rim" fill="#404040">
                                <set attributeName="fill" to="#808080" begin="zoomplus.mouseover" end="zoomplus.mouseout"/>
                        </use>
                        <path d="M-4,0h8M0,-4v8" fill="none" stroke="white" stroke-width="1.5" pointer-events="none"/>
                </g>
                <g id="zoomMin">
                        <use xlink:href="#rim" fill="#404040">
                                <set attributeName="fill" to="#808080" begin="zoomminus.mouseover" end="zoomminus.mouseout"/>
                        </use>
                        <path d="M-4,0h8" fill="none" stroke="white" stroke-width="1.5" pointer-events="none"/>
                </g>
                <g id="dirArrow">
                        <path fill="none" stroke="white" stroke-width="1.5" d="M0,-3.0v7 M-2.5,-0.5L0,-3.0L2.5,-0.5"/>
                </g>
               <g id="resetDef">
                       <use xlink:href="#rim2" fill="#404040">
                               <set attributeName="fill" to="#808080" begin="reset.mouseover" end="reset.mouseout"/>
                       </use>
               </g>
        </defs>

<script type="text/javascript">
var viewWidth = 1206;
var viewHeight = 561;
var sectionId = 'dynsection-0';
</script>
<script xlink:href="svgpan.js"/>
<svg id="graph" class="graph">
<g id="viewport">
<title>CompareProviders</title>
<polygon fill="white" stroke="none" points="-4,4 -4,-557 1202,-557 1202,4 -4,4"/>
<!-- Node1 -->
<g id="node1" class="node"><title>Node1</title>
<polygon fill="#bfbfbf" stroke="black" points="1100,-263.5 1100,-282.5 1198,-282.5 1198,-263.5 1100,-263.5"/>
<text text-anchor="middle" x="1149" y="-270.5" font-family="Helvetica,sans-Serif" font-size="10.00">CompareProviders</text>
</g>
<!-- Node2 -->
<g id="node2" class="node"><title>Node2</title>
<g id="a_node2"><a xlink:href="classpkgCache_1_1PkgIterator.xhtml" target="_top" xlink:title="PkgIterator">
<polygon fill="white" stroke="black" points="976.5,-263.5 976.5,-282.5 1041.5,-282.5 1041.5,-263.5 976.5,-263.5"/>
<text text-anchor="middle" x="1009" y="-270.5" font-family="Helvetica,sans-Serif" font-size="10.00">PkgIterator</text>
</a>
</g>
</g>
<!-- Node2&#45;&gt;Node1 -->
<g id="edge1" class="edge"><title>Node2&#45;&gt;Node1</title>
<path fill="none" stroke="#9a32cd" stroke-dasharray="5,2" d="M1051.8,-273C1066.99,-273 1084.28,-273 1099.97,-273"/>
<polygon fill="#9a32cd" stroke="#9a32cd" points="1051.66,-269.5 1041.66,-273 1051.66,-276.5 1051.66,-269.5"/>
<text text-anchor="middle" x="1071" y="-276" font-family="Helvetica,sans-Serif" font-size="10.00"> Pkg</text>
</g>
<!-- Node3 -->
<g id="node3" class="node"><title>Node3</title>
<g id="a_node3"><a xlink:href="classpkgCache_1_1Iterator.xhtml" target="_top" xlink:title="Iterator\&lt; Package,\l PkgIterator \&gt;">
<polygon fill="white" stroke="black" points="840,-258 840,-288 938,-288 938,-258 840,-258"/>
<text text-anchor="start" x="848" y="-276" font-family="Helvetica,sans-Serif" font-size="10.00">Iterator&lt; Package,</text>
<text text-anchor="middle" x="889" y="-265" font-family="Helvetica,sans-Serif" font-size="10.00"> PkgIterator &gt;</text>
</a>
</g>
</g>
<!-- Node3&#45;&gt;Node2 -->
<g id="edge2" class="edge"><title>Node3&#45;&gt;Node2</title>
<path fill="none" stroke="midnightblue" d="M948.375,-273C958.059,-273 967.765,-273 976.45,-273"/>
<polygon fill="midnightblue" stroke="midnightblue" points="948.336,-269.5 938.336,-273 948.336,-276.5 948.336,-269.5"/>
</g>
<!-- Node4 -->
<g id="node4" class="node"><title>Node4</title>
<polygon fill="white" stroke="#bfbfbf" points="648,-302 648,-332 772,-332 772,-302 648,-302"/>
<text text-anchor="start" x="656" y="-320" font-family="Helvetica,sans-Serif" font-size="10.00">iterator&lt; std::forward</text>
<text text-anchor="middle" x="710" y="-309" font-family="Helvetica,sans-Serif" font-size="10.00">_iterator_tag, Package &gt;</text>
</g>
<!-- Node4&#45;&gt;Node3 -->
<g id="edge3" class="edge"><title>Node4&#45;&gt;Node3</title>
<path fill="none" stroke="midnightblue" d="M781.249,-299.537C800.895,-294.653 821.795,-289.458 839.847,-284.97"/>
<polygon fill="midnightblue" stroke="midnightblue" points="780.279,-296.172 771.418,-301.981 781.967,-302.965 780.279,-296.172"/>
</g>
<!-- Node5 -->
<g id="node5" class="node"><title>Node5</title>
<g id="a_node5"><a xlink:href="classpkgCache.xhtml" target="_top" xlink:title="pkgCache">
<polygon fill="white" stroke="black" points="679.5,-263.5 679.5,-282.5 740.5,-282.5 740.5,-263.5 679.5,-263.5"/>
<text text-anchor="middle" x="710" y="-270.5" font-family="Helvetica,sans-Serif" font-size="10.00">pkgCache</text>
</a>
</g>
</g>
<!-- Node5&#45;&gt;Node3 -->
<g id="edge4" class="edge"><title>Node5&#45;&gt;Node3</title>
<path fill="none" stroke="#9a32cd" stroke-dasharray="5,2" d="M750.658,-273C777.062,-273 811.911,-273 839.898,-273"/>
<polygon fill="#9a32cd" stroke="#9a32cd" points="750.626,-269.5 740.626,-273 750.626,-276.5 750.626,-269.5"/>
<text text-anchor="middle" x="806" y="-276" font-family="Helvetica,sans-Serif" font-size="10.00"> Owner</text>
</g>
<!-- Node6 -->
<g id="node6" class="node"><title>Node6</title>
<g id="a_node6"><a xlink:href="structpkgCache_1_1Dependency.xhtml" target="_top" xlink:title="information for a single dependency record ">
<polygon fill="white" stroke="black" points="464.5,-529.5 464.5,-548.5 535.5,-548.5 535.5,-529.5 464.5,-529.5"/>
<text text-anchor="middle" x="500" y="-536.5" font-family="Helvetica,sans-Serif" font-size="10.00">Dependency</text>
</a>
</g>
</g>
<!-- Node6&#45;&gt;Node5 -->
<g id="edge5" class="edge"><title>Node6&#45;&gt;Node5</title>
<path fill="none" stroke="#9a32cd" stroke-dasharray="5,2" d="M545.827,-544.061C574.135,-544.571 609.174,-539.769 630,-517 663.854,-479.988 616.681,-331.181 648,-292 655.549,-282.556 667.728,-277.71 679.226,-275.258"/>
<polygon fill="#9a32cd" stroke="#9a32cd" points="545.873,-540.56 535.741,-543.656 545.593,-547.554 545.873,-540.56"/>
<text text-anchor="middle" x="602" y="-545" font-family="Helvetica,sans-Serif" font-size="10.00"> DepP</text>
</g>
<!-- Node7 -->
<g id="node7" class="node"><title>Node7</title>
<g id="a_node7"><a xlink:href="structpkgCache_1_1Description.xhtml" target="_top" xlink:title="datamember of a linked list of available description for a version ">
<polygon fill="white" stroke="black" points="467,-491.5 467,-510.5 533,-510.5 533,-491.5 467,-491.5"/>
<text text-anchor="middle" x="500" y="-498.5" font-family="Helvetica,sans-Serif" font-size="10.00">Description</text>
</a>
</g>
</g>
<!-- Node7&#45;&gt;Node5 -->
<g id="edge6" class="edge"><title>Node7&#45;&gt;Node5</title>
<path fill="none" stroke="#9a32cd" stroke-dasharray="5,2" d="M543.223,-505.895C571.884,-506.681 608.371,-502.268 630,-479 658.424,-448.423 621.671,-324.399 648,-292 655.625,-282.617 667.815,-277.78 679.301,-275.318"/>
<polygon fill="#9a32cd" stroke="#9a32cd" points="543.219,-502.391 533.059,-505.395 542.876,-509.382 543.219,-502.391"/>
<text text-anchor="middle" x="602" y="-507" font-family="Helvetica,sans-Serif" font-size="10.00"> DescP</text>
</g>
<!-- Node8 -->
<g id="node8" class="node"><title>Node8</title>
<g id="a_node8"><a xlink:href="structpkgCache_1_1Header.xhtml" target="_top" xlink:title="Header">
<polygon fill="white" stroke="black" points="476,-453.5 476,-472.5 524,-472.5 524,-453.5 476,-453.5"/>
<text text-anchor="middle" x="500" y="-460.5" font-family="Helvetica,sans-Serif" font-size="10.00">Header</text>
</a>
</g>
</g>
<!-- Node8&#45;&gt;Node5 -->
<g id="edge7" class="edge"><title>Node8&#45;&gt;Node5</title>
<path fill="none" stroke="#9a32cd" stroke-dasharray="5,2" d="M534.4,-466.476C563.93,-467.537 605.945,-463.768 630,-438 674.614,-390.208 606.093,-342.184 648,-292 655.75,-282.72 667.959,-277.898 679.425,-275.42"/>
<polygon fill="#9a32cd" stroke="#9a32cd" points="534.323,-462.966 524.142,-465.899 533.929,-469.955 534.323,-462.966"/>
<text text-anchor="middle" x="602" y="-467" font-family="Helvetica,sans-Serif" font-size="10.00"> HeaderP</text>
</g>
<!-- Node9 -->
<g id="node9" class="node"><title>Node9</title>
<g id="a_node9"><a xlink:href="structDynamicMMap_1_1Pool.xhtml" target="_top" xlink:title="Pool">
<polygon fill="white" stroke="black" points="318,-453.5 318,-472.5 354,-472.5 354,-453.5 318,-453.5"/>
<text text-anchor="middle" x="336" y="-460.5" font-family="Helvetica,sans-Serif" font-size="10.00">Pool</text>
</a>
</g>
</g>
<!-- Node9&#45;&gt;Node8 -->
<g id="edge8" class="edge"><title>Node9&#45;&gt;Node8</title>
<path fill="none" stroke="#9a32cd" stroke-dasharray="5,2" d="M364.236,-463C395.589,-463 446.538,-463 475.988,-463"/>
<polygon fill="#9a32cd" stroke="#9a32cd" points="364.031,-459.5 354.031,-463 364.031,-466.5 364.031,-459.5"/>
<text text-anchor="middle" x="401" y="-466" font-family="Helvetica,sans-Serif" font-size="10.00"> Pools</text>
</g>
<!-- Node10 -->
<g id="node10" class="node"><title>Node10</title>
<g id="a_node10"><a xlink:href="structpkgCache_1_1PackageFile.xhtml" target="_top" xlink:title="stores information about the files used to generate the cache ">
<polygon fill="white" stroke="black" points="464.5,-415.5 464.5,-434.5 535.5,-434.5 535.5,-415.5 464.5,-415.5"/>
<text text-anchor="middle" x="500" y="-422.5" font-family="Helvetica,sans-Serif" font-size="10.00">PackageFile</text>
</a>
</g>
</g>
<!-- Node10&#45;&gt;Node5 -->
<g id="edge9" class="edge"><title>Node10&#45;&gt;Node5</title>
<path fill="none" stroke="#9a32cd" stroke-dasharray="5,2" d="M545.684,-426.356C573.768,-424.699 608.609,-417.613 630,-395 661.936,-361.241 617.325,-326.909 648,-292 655.907,-283.001 668,-278.213 679.338,-275.685"/>
<polygon fill="#9a32cd" stroke="#9a32cd" points="545.538,-422.859 535.68,-426.74 545.807,-429.854 545.538,-422.859"/>
<text text-anchor="middle" x="602" y="-426" font-family="Helvetica,sans-Serif" font-size="10.00"> PkgFileP</text>
</g>
<!-- Node11 -->
<g id="node11" class="node"><title>Node11</title>
<g id="a_node11"><a xlink:href="structpkgCache_1_1DescFile.xhtml" target="_top" xlink:title="associates a description with a Translation file ">
<polygon fill="white" stroke="black" points="472,-377.5 472,-396.5 528,-396.5 528,-377.5 472,-377.5"/>
<text text-anchor="middle" x="500" y="-384.5" font-family="Helvetica,sans-Serif" font-size="10.00">DescFile</text>
</a>
</g>
</g>
<!-- Node11&#45;&gt;Node5 -->
<g id="edge10" class="edge"><title>Node11&#45;&gt;Node5</title>
<path fill="none" stroke="#9a32cd" stroke-dasharray="5,2" d="M538.231,-385.937C566.899,-383.147 605.625,-374.797 630,-351 649.617,-331.848 628.671,-311.442 648,-292 656.29,-283.662 668.173,-278.971 679.252,-276.337"/>
<polygon fill="#9a32cd" stroke="#9a32cd" points="537.864,-382.455 528.17,-386.731 538.415,-389.433 537.864,-382.455"/>
<text text-anchor="middle" x="602" y="-383" font-family="Helvetica,sans-Serif" font-size="10.00"> DescFileP</text>
</g>
<!-- Node12 -->
<g id="node12" class="node"><title>Node12</title>
<g id="a_node12"><a xlink:href="structpkgCache_1_1StringItem.xhtml" target="_top" xlink:title="used for generating single instances of strings ">
<polygon fill="white" stroke="black" points="469,-339.5 469,-358.5 531,-358.5 531,-339.5 469,-339.5"/>
<text text-anchor="middle" x="500" y="-346.5" font-family="Helvetica,sans-Serif" font-size="10.00">StringItem</text>
</a>
</g>
</g>
<!-- Node12&#45;&gt;Node5 -->
<g id="edge11" class="edge"><title>Node12&#45;&gt;Node5</title>
<path fill="none" stroke="#9a32cd" stroke-dasharray="5,2" d="M541.388,-343.972C568.161,-339.199 603.165,-330.093 630,-313 640.368,-306.396 637.731,-298.758 648,-292 657.358,-285.841 668.827,-281.585 679.285,-278.688"/>
<polygon fill="#9a32cd" stroke="#9a32cd" points="540.497,-340.571 531.2,-345.652 541.636,-347.478 540.497,-340.571"/>
<text text-anchor="middle" x="602" y="-339" font-family="Helvetica,sans-Serif" font-size="10.00"> StringItemP</text>
</g>
<!-- Node13 -->
<g id="node13" class="node"><title>Node13</title>
<g id="a_node13"><a xlink:href="structpkgCache_1_1Provides.xhtml" target="_top" xlink:title="handles virtual packages ">
<polygon fill="white" stroke="black" points="472.5,-301.5 472.5,-320.5 527.5,-320.5 527.5,-301.5 472.5,-301.5"/>
<text text-anchor="middle" x="500" y="-308.5" font-family="Helvetica,sans-Serif" font-size="10.00">Provides</text>
</a>
</g>
</g>
<!-- Node13&#45;&gt;Node5 -->
<g id="edge12" class="edge"><title>Node13&#45;&gt;Node5</title>
<path fill="none" stroke="#9a32cd" stroke-dasharray="5,2" d="M537.728,-304.29C578.057,-296.922 642.028,-285.235 679.315,-278.423"/>
<polygon fill="#9a32cd" stroke="#9a32cd" points="536.975,-300.87 527.767,-306.11 538.233,-307.756 536.975,-300.87"/>
<text text-anchor="middle" x="602" y="-301" font-family="Helvetica,sans-Serif" font-size="10.00"> ProvideP</text>
</g>
<!-- Node14 -->
<g id="node14" class="node"><title>Node14</title>
<g id="a_node14"><a xlink:title="STL class. ">
<polygon fill="white" stroke="#bfbfbf" points="144.5,-244.5 144.5,-263.5 185.5,-263.5 185.5,-244.5 144.5,-244.5"/>
<text text-anchor="middle" x="165" y="-251.5" font-family="Helvetica,sans-Serif" font-size="10.00">string</text>
</a>
</g>
</g>
<!-- Node14&#45;&gt;Node5 -->
<g id="edge13" class="edge"><title>Node14&#45;&gt;Node5</title>
<path fill="none" stroke="#9a32cd" stroke-dasharray="5,2" d="M195.679,-258.204C198.487,-258.512 201.295,-258.785 204,-259 384.11,-273.308 601.354,-273.654 679.344,-273.244"/>
<polygon fill="#9a32cd" stroke="#9a32cd" points="196.033,-254.721 185.682,-256.982 195.183,-261.67 196.033,-254.721"/>
<text text-anchor="middle" x="401" y="-274" font-family="Helvetica,sans-Serif" font-size="10.00"> CacheFile</text>
</g>
<!-- Node22 -->
<g id="node22" class="node"><title>Node22</title>
<g id="a_node22"><a xlink:href="classFileFd.xhtml" target="_top" xlink:title="FileFd">
<polygon fill="white" stroke="black" points="314,-225.5 314,-244.5 358,-244.5 358,-225.5 314,-225.5"/>
<text text-anchor="middle" x="336" y="-232.5" font-family="Helvetica,sans-Serif" font-size="10.00">FileFd</text>
</a>
</g>
</g>
<!-- Node14&#45;&gt;Node22 -->
<g id="edge23" class="edge"><title>Node14&#45;&gt;Node22</title>
<path fill="none" stroke="#9a32cd" stroke-dasharray="5,2" d="M192.707,-240.457C196.422,-239.048 200.251,-237.83 204,-237 241.975,-228.589 287.668,-230.522 313.824,-232.733"/>
<polygon fill="#9a32cd" stroke="#9a32cd" points="191.089,-237.342 183.274,-244.496 193.844,-243.777 191.089,-237.342"/>
<text text-anchor="middle" x="250" y="-251" font-family="Helvetica,sans-Serif" font-size="10.00"> TemporaryFileName</text>
<text text-anchor="middle" x="250" y="-240" font-family="Helvetica,sans-Serif" font-size="10.00">FileName</text>
</g>
<!-- Node15 -->
<g id="node15" class="node"><title>Node15</title>
<g id="a_node15"><a xlink:title="STL class. ">
<polygon fill="white" stroke="#bfbfbf" points="0,-244.5 0,-263.5 106,-263.5 106,-244.5 0,-244.5"/>
<text text-anchor="middle" x="53" y="-251.5" font-family="Helvetica,sans-Serif" font-size="10.00">basic_string&lt; char &gt;</text>
</a>
</g>
</g>
<!-- Node15&#45;&gt;Node14 -->
<g id="edge14" class="edge"><title>Node15&#45;&gt;Node14</title>
<path fill="none" stroke="midnightblue" d="M116.338,-254C126.515,-254 136.35,-254 144.416,-254"/>
<polygon fill="midnightblue" stroke="midnightblue" points="116.101,-250.5 106.101,-254 116.101,-257.5 116.101,-250.5"/>
</g>
<!-- Node16 -->
<g id="node16" class="node"><title>Node16</title>
<g id="a_node16"><a xlink:href="structpkgCache_1_1Group.xhtml" target="_top" xlink:title="groups architecture depending packages together ">
<polygon fill="white" stroke="black" points="478.5,-187.5 478.5,-206.5 521.5,-206.5 521.5,-187.5 478.5,-187.5"/>
<text text-anchor="middle" x="500" y="-194.5" font-family="Helvetica,sans-Serif" font-size="10.00">Group</text>
</a>
</g>
</g>
<!-- Node16&#45;&gt;Node5 -->
<g id="edge15" class="edge"><title>Node16&#45;&gt;Node5</title>
<path fill="none" stroke="#9a32cd" stroke-dasharray="5,2" d="M531.604,-201.092C558.265,-205.306 597.617,-213.107 630,-226 654.761,-235.859 680.835,-252.856 695.972,-263.483"/>
<polygon fill="#9a32cd" stroke="#9a32cd" points="532.114,-197.63 521.704,-199.601 531.071,-204.552 532.114,-197.63"/>
<text text-anchor="middle" x="602" y="-229" font-family="Helvetica,sans-Serif" font-size="10.00"> GrpP</text>
</g>
<!-- Node17 -->
<g id="node17" class="node"><title>Node17</title>
<g id="a_node17"><a xlink:href="classpkgVersioningSystem.xhtml" target="_top" xlink:title="pkgVersioningSystem">
<polygon fill="white" stroke="black" points="444,-120.5 444,-139.5 556,-139.5 556,-120.5 444,-120.5"/>
<text text-anchor="middle" x="500" y="-127.5" font-family="Helvetica,sans-Serif" font-size="10.00">pkgVersioningSystem</text>
</a>
</g>
</g>
<!-- Node17&#45;&gt;Node5 -->
<g id="edge16" class="edge"><title>Node17&#45;&gt;Node5</title>
<path fill="none" stroke="#9a32cd" stroke-dasharray="5,2" d="M534.986,-143.631C561.992,-155.265 600.068,-173.5 630,-195 659.117,-215.914 687.627,-247.613 701.041,-263.385"/>
<polygon fill="#9a32cd" stroke="#9a32cd" points="536.146,-140.322 525.572,-139.65 533.419,-146.769 536.146,-140.322"/>
<text text-anchor="middle" x="602" y="-198" font-family="Helvetica,sans-Serif" font-size="10.00"> VS</text>
</g>
<!-- Node17&#45;&gt;Node17 -->
<g id="edge17" class="edge"><title>Node17&#45;&gt;Node17</title>
<path fill="none" stroke="#9a32cd" stroke-dasharray="5,2" d="M481.853,-149.4C483.065,-154.315 489.114,-158 500,-158 517.418,-158 522.453,-148.565 515.105,-139.757"/>
<polygon fill="#9a32cd" stroke="#9a32cd" points="485.224,-150.347 484.895,-139.757 478.548,-148.24 485.224,-150.347"/>
<text text-anchor="middle" x="500" y="-161" font-family="Helvetica,sans-Serif" font-size="10.00"> GlobalList</text>
</g>
<!-- Node18 -->
<g id="node18" class="node"><title>Node18</title>
<g id="a_node18"><a xlink:href="structpkgCache_1_1Version.xhtml" target="_top" xlink:title="information for a single version of a package ">
<polygon fill="white" stroke="black" points="475,-82.5 475,-101.5 525,-101.5 525,-82.5 475,-82.5"/>
<text text-anchor="middle" x="500" y="-89.5" font-family="Helvetica,sans-Serif" font-size="10.00">Version</text>
</a>
</g>
</g>
<!-- Node18&#45;&gt;Node5 -->
<g id="edge18" class="edge"><title>Node18&#45;&gt;Node5</title>
<path fill="none" stroke="#9a32cd" stroke-dasharray="5,2" d="M535.278,-100.277C563.419,-108.502 602.91,-123.492 630,-148 668.455,-182.791 695.41,-240.505 705.071,-263.305"/>
<polygon fill="#9a32cd" stroke="#9a32cd" points="536.04,-96.8558 525.467,-97.5472 534.163,-103.6 536.04,-96.8558"/>
<text text-anchor="middle" x="602" y="-151" font-family="Helvetica,sans-Serif" font-size="10.00"> VerP</text>
</g>
<!-- Node19 -->
<g id="node19" class="node"><title>Node19</title>
<g id="a_node19"><a xlink:href="structpkgCache_1_1VerFile.xhtml" target="_top" xlink:title="associates a version with a PackageFile ">
<polygon fill="white" stroke="black" points="476.5,-44.5 476.5,-63.5 523.5,-63.5 523.5,-44.5 476.5,-44.5"/>
<text text-anchor="middle" x="500" y="-51.5" font-family="Helvetica,sans-Serif" font-size="10.00">VerFile</text>
</a>
</g>
</g>
<!-- Node19&#45;&gt;Node5 -->
<g id="edge19" class="edge"><title>Node19&#45;&gt;Node5</title>
<path fill="none" stroke="#9a32cd" stroke-dasharray="5,2" d="M533.766,-58.3351C562.326,-63.6694 603.254,-75.2753 630,-100 681.158,-147.291 701.653,-234.151 707.277,-263.226"/>
<polygon fill="#9a32cd" stroke="#9a32cd" points="534.299,-54.8756 523.852,-56.641 533.12,-61.7756 534.299,-54.8756"/>
<text text-anchor="middle" x="602" y="-103" font-family="Helvetica,sans-Serif" font-size="10.00"> VerFileP</text>
</g>
<!-- Node20 -->
<g id="node20" class="node"><title>Node20</title>
<g id="a_node20"><a xlink:href="structpkgCache_1_1Package.xhtml" target="_top" xlink:title="contains information for a single unique package ">
<polygon fill="white" stroke="black" points="472.5,-0.5 472.5,-19.5 527.5,-19.5 527.5,-0.5 472.5,-0.5"/>
<text text-anchor="middle" x="500" y="-7.5" font-family="Helvetica,sans-Serif" font-size="10.00">Package</text>
</a>
</g>
</g>
<!-- Node20&#45;&gt;Node3 -->
<g id="edge24" class="edge"><title>Node20&#45;&gt;Node3</title>
<path fill="none" stroke="#9a32cd" stroke-dasharray="5,2" d="M537.609,-6.33624C564.377,-5.16814 600.933,-6.7924 630,-20 750.798,-74.8878 848.096,-211.77 878.273,-257.699"/>
<polygon fill="#9a32cd" stroke="#9a32cd" points="537.285,-2.84914 527.507,-6.92846 537.694,-9.83714 537.285,-2.84914"/>
<text text-anchor="middle" x="710" y="-126" font-family="Helvetica,sans-Serif" font-size="10.00"> S</text>
</g>
<!-- Node20&#45;&gt;Node5 -->
<g id="edge20" class="edge"><title>Node20&#45;&gt;Node5</title>
<path fill="none" stroke="#9a32cd" stroke-dasharray="5,2" d="M537.782,-14.2037C566.369,-19.3008 605.205,-30.5015 630,-55 691.853,-116.114 705.57,-229.295 708.347,-263.173"/>
<polygon fill="#9a32cd" stroke="#9a32cd" points="538.188,-10.7241 527.759,-12.5886 537.075,-17.6349 538.188,-10.7241"/>
<text text-anchor="middle" x="602" y="-58" font-family="Helvetica,sans-Serif" font-size="10.00"> PkgP</text>
</g>
<!-- Node21 -->
<g id="node21" class="node"><title>Node21</title>
<g id="a_node21"><a xlink:href="classMMap.xhtml" target="_top" xlink:title="MMap">
<polygon fill="white" stroke="black" points="478,-225.5 478,-244.5 522,-244.5 522,-225.5 478,-225.5"/>
<text text-anchor="middle" x="500" y="-232.5" font-family="Helvetica,sans-Serif" font-size="10.00">MMap</text>
</a>
</g>
</g>
<!-- Node21&#45;&gt;Node5 -->
<g id="edge21" class="edge"><title>Node21&#45;&gt;Node5</title>
<path fill="none" stroke="#9a32cd" stroke-dasharray="5,2" d="M532.336,-236.35C558.629,-237.913 597.062,-241.204 630,-248 648.175,-251.75 668.093,-258.068 683.382,-263.415"/>
<polygon fill="#9a32cd" stroke="#9a32cd" points="532.381,-232.847 522.205,-235.798 532,-239.837 532.381,-232.847"/>
<text text-anchor="middle" x="602" y="-251" font-family="Helvetica,sans-Serif" font-size="10.00"> Map</text>
</g>
<!-- Node22&#45;&gt;Node21 -->
<g id="edge22" class="edge"><title>Node22&#45;&gt;Node21</title>
<path fill="none" stroke="#9a32cd" stroke-dasharray="5,2" d="M368.403,-235C400.64,-235 449.92,-235 477.816,-235"/>
<polygon fill="#9a32cd" stroke="#9a32cd" points="368.179,-231.5 358.179,-235 368.179,-238.5 368.179,-231.5"/>
<text text-anchor="middle" x="401" y="-238" font-family="Helvetica,sans-Serif" font-size="10.00"> SyncToFd</text>
</g>
</g>
</svg>
        <g id="navigator" transform="translate(0 0)" fill="#404254">
                <rect fill="#f2f5e9" fill-opacity="0.5" stroke="#606060" stroke-width=".5" x="0" y="0" width="60" height="60"/>
                <use id="zoomplus" xlink:href="#zoomPlus" x="17" y="9" onmousedown="handleZoom(evt,'in')"/>
                <use id="zoomminus" xlink:href="#zoomMin" x="42" y="9" onmousedown="handleZoom(evt,'out')"/>
                <use id="reset" xlink:href="#resetDef" x="30" y="36" onmousedown="handleReset()"/>
                <g id="arrowUp" xlink:href="#dirArrow" transform="translate(30 24)" onmousedown="handlePan(0,-1)">
                  <use xlink:href="#rim" fill="#404040">
                        <set attributeName="fill" to="#808080" begin="arrowUp.mouseover" end="arrowUp.mouseout"/>
                  </use>
                  <path fill="none" stroke="white" stroke-width="1.5" d="M0,-3.0v7 M-2.5,-0.5L0,-3.0L2.5,-0.5"/>
                </g>
                <g id="arrowRight" xlink:href="#dirArrow" transform="rotate(90) translate(36 -43)" onmousedown="handlePan(1,0)">
                  <use xlink:href="#rim" fill="#404040">
                        <set attributeName="fill" to="#808080" begin="arrowRight.mouseover" end="arrowRight.mouseout"/>
                  </use>
                  <path fill="none" stroke="white" stroke-width="1.5" d="M0,-3.0v7 M-2.5,-0.5L0,-3.0L2.5,-0.5"/>
                </g>
                <g id="arrowDown" xlink:href="#dirArrow" transform="rotate(180) translate(-30 -48)" onmousedown="handlePan(0,1)">
                  <use xlink:href="#rim" fill="#404040">
                        <set attributeName="fill" to="#808080" begin="arrowDown.mouseover" end="arrowDown.mouseout"/>
                  </use>
                  <path fill="none" stroke="white" stroke-width="1.5" d="M0,-3.0v7 M-2.5,-0.5L0,-3.0L2.5,-0.5"/>
                </g>
                <g id="arrowLeft" xlink:href="#dirArrow" transform="rotate(270) translate(-36 17)" onmousedown="handlePan(-1,0)">
                  <use xlink:href="#rim" fill="#404040">
                        <set attributeName="fill" to="#808080" begin="arrowLeft.mouseover" end="arrowLeft.mouseout"/>
                  </use>
                  <path fill="none" stroke="white" stroke-width="1.5" d="M0,-3.0v7 M-2.5,-0.5L0,-3.0L2.5,-0.5"/>
                </g>
        </g>
        <svg viewBox="0 0 15 15" width="100%" height="30px" preserveAspectRatio="xMaxYMin meet">
         <g id="arrow_out" transform="scale(0.3 0.3)">
          <a xlink:href="structCompareProviders__coll__graph_org.svg" target="_base">
           <rect id="button" ry="5" rx="5" y="6" x="6" height="38" width="38"
                fill="#f2f5e9" fill-opacity="0.5" stroke="#606060" stroke-width="1.0"/>
           <path id="arrow"
             d="M 11.500037,31.436501 C 11.940474,20.09759 22.043105,11.32322 32.158766,21.979434 L 37.068811,17.246167 C 37.068811,17.246167 37.088388,32 37.088388,32 L 22.160133,31.978069 C 22.160133,31.978069 26.997745,27.140456 26.997745,27.140456 C 18.528582,18.264221 13.291696,25.230495 11.500037,31.436501 z"
             style="fill:#404040;"/>
          </a>
         </g>
        </svg>
</svg>
