<?xml version="1.0" encoding="UTF-8" standalone="no"?>
<!DOCTYPE svg PUBLIC "-//W3C//DTD SVG 1.1//EN"
 "http://www.w3.org/Graphics/SVG/1.1/DTD/svg11.dtd">
<!-- Generated by graphviz version 2.36.0 (20140111.2315)
 -->
<!-- Title: pkgAcqMethod::FetchResult Pages: 1 -->
<svg width="229pt" height="258pt"
 viewBox="0.00 0.00 229.00 258.00" xmlns="http://www.w3.org/2000/svg" xmlns:xlink="http://www.w3.org/1999/xlink">
<g id="graph0" class="graph" transform="scale(1 1) rotate(0) translate(4 254)">
<title>pkgAcqMethod::FetchResult</title>
<polygon fill="white" stroke="none" points="-4,4 -4,-254 225,-254 225,4 -4,4"/>
<!-- Node1 -->
<g id="node1" class="node"><title>Node1</title>
<polygon fill="#bfbfbf" stroke="black" points="7.5,-0.5 7.5,-19.5 148.5,-19.5 148.5,-0.5 7.5,-0.5"/>
<text text-anchor="middle" x="78" y="-7.5" font-family="Helvetica,sans-Serif" font-size="10.00">pkgAcqMethod::FetchResult</text>
</g>
<!-- Node2 -->
<g id="node2" class="node"><title>Node2</title>
<g id="a_node2"><a xlink:title="STL class. ">
<polygon fill="white" stroke="#bfbfbf" points="32.5,-172.5 32.5,-191.5 73.5,-191.5 73.5,-172.5 32.5,-172.5"/>
<text text-anchor="middle" x="53" y="-179.5" font-family="Helvetica,sans-Serif" font-size="10.00">string</text>
</a>
</g>
</g>
<!-- Node2&#45;&gt;Node1 -->
<g id="edge1" class="edge"><title>Node2&#45;&gt;Node1</title>
<path fill="none" stroke="#9a32cd" stroke-dasharray="5,2" d="M48.6555,-162.364C44.1299,-139.687 38.7562,-100.413 47,-68 51.7203,-49.4409 63.8418,-30.3948 71.4532,-19.6927"/>
<polygon fill="#9a32cd" stroke="#9a32cd" points="45.2742,-163.288 50.8069,-172.324 52.1164,-161.81 45.2742,-163.288"/>
<text text-anchor="middle" x="77.5" y="-115.5" font-family="Helvetica,sans-Serif" font-size="10.00"> SHA512Sum</text>
<text text-anchor="middle" x="77.5" y="-104.5" font-family="Helvetica,sans-Serif" font-size="10.00">Filename</text>
<text text-anchor="middle" x="77.5" y="-93.5" font-family="Helvetica,sans-Serif" font-size="10.00">SHA1Sum</text>
<text text-anchor="middle" x="77.5" y="-82.5" font-family="Helvetica,sans-Serif" font-size="10.00">SHA256Sum</text>
<text text-anchor="middle" x="77.5" y="-71.5" font-family="Helvetica,sans-Serif" font-size="10.00">MD5Sum</text>
</g>
<!-- Node4 -->
<g id="node4" class="node"><title>Node4</title>
<polygon fill="white" stroke="#bfbfbf" points="116.5,-86.5 116.5,-105.5 221.5,-105.5 221.5,-86.5 116.5,-86.5"/>
<text text-anchor="middle" x="169" y="-93.5" font-family="Helvetica,sans-Serif" font-size="10.00">vector&lt; std::string &gt;</text>
</g>
<!-- Node2&#45;&gt;Node4 -->
<g id="edge4" class="edge"><title>Node2&#45;&gt;Node4</title>
<path fill="none" stroke="#9a32cd" stroke-dasharray="5,2" d="M73.1548,-166.405C97.4661,-148.8 137.523,-119.794 157.261,-105.501"/>
<polygon fill="#9a32cd" stroke="#9a32cd" points="71.0238,-163.627 64.9771,-172.327 75.1294,-169.297 71.0238,-163.627"/>
<text text-anchor="middle" x="125.5" y="-145.5" font-family="Helvetica,sans-Serif" font-size="10.00"> elements</text>
</g>
<!-- Node3 -->
<g id="node3" class="node"><title>Node3</title>
<g id="a_node3"><a xlink:title="STL class. ">
<polygon fill="white" stroke="#bfbfbf" points="0,-230.5 0,-249.5 106,-249.5 106,-230.5 0,-230.5"/>
<text text-anchor="middle" x="53" y="-237.5" font-family="Helvetica,sans-Serif" font-size="10.00">basic_string&lt; char &gt;</text>
</a>
</g>
</g>
<!-- Node3&#45;&gt;Node2 -->
<g id="edge2" class="edge"><title>Node3&#45;&gt;Node2</title>
<path fill="none" stroke="midnightblue" d="M53,-219.953C53,-210.287 53,-199.031 53,-191.505"/>
<polygon fill="midnightblue" stroke="midnightblue" points="49.5001,-220.25 53,-230.25 56.5001,-220.25 49.5001,-220.25"/>
</g>
<!-- Node4&#45;&gt;Node1 -->
<g id="edge3" class="edge"><title>Node4&#45;&gt;Node1</title>
<path fill="none" stroke="#9a32cd" stroke-dasharray="5,2" d="M152.174,-79.4682C133.019,-61.7872 102.422,-33.5432 87.2092,-19.5008"/>
<polygon fill="#9a32cd" stroke="#9a32cd" points="149.882,-82.1159 159.604,-86.3269 154.63,-76.9723 149.882,-82.1159"/>
<text text-anchor="middle" x="148.5" y="-41.5" font-family="Helvetica,sans-Serif" font-size="10.00"> GPGVOutput</text>
</g>
</g>
</svg>
