<?xml version="1.0" encoding="UTF-8" standalone="no"?>
<!DOCTYPE svg PUBLIC "-//W3C//DTD SVG 1.1//EN"
 "http://www.w3.org/Graphics/SVG/1.1/DTD/svg11.dtd">
<!-- Generated by graphviz version 2.36.0 (20140111.2315)
 -->
<!-- Title: Configuration::Compressor Pages: 1 -->
<svg width="212pt" height="246pt"
 viewBox="0.00 0.00 212.00 246.00" xmlns="http://www.w3.org/2000/svg" xmlns:xlink="http://www.w3.org/1999/xlink">
<g id="graph0" class="graph" transform="scale(1 1) rotate(0) translate(4 242)">
<title>Configuration::Compressor</title>
<polygon fill="white" stroke="none" points="-4,4 -4,-242 208,-242 208,4 -4,4"/>
<!-- Node1 -->
<g id="node1" class="node"><title>Node1</title>
<polygon fill="#bfbfbf" stroke="black" points="7,-0.5 7,-19.5 141,-19.5 141,-0.5 7,-0.5"/>
<text text-anchor="middle" x="74" y="-7.5" font-family="Helvetica,sans-Serif" font-size="10.00">Configuration::Compressor</text>
</g>
<!-- Node2 -->
<g id="node2" class="node"><title>Node2</title>
<g id="a_node2"><a xlink:title="STL class. ">
<polygon fill="white" stroke="#bfbfbf" points="32.5,-160.5 32.5,-179.5 73.5,-179.5 73.5,-160.5 32.5,-160.5"/>
<text text-anchor="middle" x="53" y="-167.5" font-family="Helvetica,sans-Serif" font-size="10.00">string</text>
</a>
</g>
</g>
<!-- Node2&#45;&gt;Node1 -->
<g id="edge1" class="edge"><title>Node2&#45;&gt;Node1</title>
<path fill="none" stroke="#9a32cd" stroke-dasharray="5,2" d="M49.0044,-150.351C45.6828,-131.832 42.2076,-102.714 47,-78 51.2496,-56.0854 62.643,-32.254 69.1914,-19.7662"/>
<polygon fill="#9a32cd" stroke="#9a32cd" points="45.6124,-151.241 50.9774,-160.377 52.4806,-149.889 45.6124,-151.241"/>
<text text-anchor="middle" x="69" y="-103.5" font-family="Helvetica,sans-Serif" font-size="10.00"> Name</text>
<text text-anchor="middle" x="69" y="-92.5" font-family="Helvetica,sans-Serif" font-size="10.00">Extension</text>
<text text-anchor="middle" x="69" y="-81.5" font-family="Helvetica,sans-Serif" font-size="10.00">Binary</text>
</g>
<!-- Node4 -->
<g id="node4" class="node"><title>Node4</title>
<polygon fill="white" stroke="#bfbfbf" points="99.5,-85.5 99.5,-104.5 204.5,-104.5 204.5,-85.5 99.5,-85.5"/>
<text text-anchor="middle" x="152" y="-92.5" font-family="Helvetica,sans-Serif" font-size="10.00">vector&lt; std::string &gt;</text>
</g>
<!-- Node2&#45;&gt;Node4 -->
<g id="edge4" class="edge"><title>Node2&#45;&gt;Node4</title>
<path fill="none" stroke="#9a32cd" stroke-dasharray="5,2" d="M72.9509,-154.289C93.1426,-139.4 123.681,-116.882 140.27,-104.649"/>
<polygon fill="#9a32cd" stroke="#9a32cd" points="70.7167,-151.587 64.7454,-160.339 74.8711,-157.221 70.7167,-151.587"/>
<text text-anchor="middle" x="126.5" y="-133.5" font-family="Helvetica,sans-Serif" font-size="10.00"> elements</text>
</g>
<!-- Node3 -->
<g id="node3" class="node"><title>Node3</title>
<g id="a_node3"><a xlink:title="STL class. ">
<polygon fill="white" stroke="#bfbfbf" points="0,-218.5 0,-237.5 106,-237.5 106,-218.5 0,-218.5"/>
<text text-anchor="middle" x="53" y="-225.5" font-family="Helvetica,sans-Serif" font-size="10.00">basic_string&lt; char &gt;</text>
</a>
</g>
</g>
<!-- Node3&#45;&gt;Node2 -->
<g id="edge2" class="edge"><title>Node3&#45;&gt;Node2</title>
<path fill="none" stroke="midnightblue" d="M53,-207.953C53,-198.287 53,-187.031 53,-179.505"/>
<polygon fill="midnightblue" stroke="midnightblue" points="49.5001,-208.25 53,-218.25 56.5001,-208.25 49.5001,-208.25"/>
</g>
<!-- Node4&#45;&gt;Node1 -->
<g id="edge3" class="edge"><title>Node4&#45;&gt;Node1</title>
<path fill="none" stroke="#9a32cd" stroke-dasharray="5,2" d="M136.731,-77.7519C120.37,-60.3419 95.0186,-33.366 82.1266,-19.6476"/>
<polygon fill="#9a32cd" stroke="#9a32cd" points="134.548,-80.5398 143.946,-85.4302 139.649,-75.7461 134.548,-80.5398"/>
<text text-anchor="middle" x="158.5" y="-52" font-family="Helvetica,sans-Serif" font-size="10.00"> UncompressArgs</text>
<text text-anchor="middle" x="158.5" y="-41" font-family="Helvetica,sans-Serif" font-size="10.00">CompressArgs</text>
</g>
</g>
</svg>
