<?xml version="1.0" encoding="UTF-8" standalone="no"?>
<!DOCTYPE svg PUBLIC "-//W3C//DTD SVG 1.1//EN"
 "http://www.w3.org/Graphics/SVG/1.1/DTD/svg11.dtd">
<!-- Generated by graphviz version 2.36.0 (20140111.2315)
 -->
<!-- Title: pkgAcquire::Queue::QItem Pages: 1 -->
<!--zoomable 510 -->
<svg id="main" version="1.1" xmlns="http://www.w3.org/2000/svg" xmlns:xlink="http://www.w3.org/1999/xlink" xml:space="preserve" onload="init(evt)">
<style type="text/css"><![CDATA[
.edge:hover path { stroke: red; }
.edge:hover polygon { stroke: red; fill: red; }
]]></style>
<script type="text/javascript"><![CDATA[
var edges = document.getElementsByTagName('g');
if (edges && edges.length) {
  for (var i=0;i<edges.length;i++) {
    if (edges[i].id.substr(0,4)=='edge') {
      edges[i].setAttribute('class','edge');
    }
  }
}
]]></script>
        <defs>
                <circle id="rim" cx="0" cy="0" r="7"/>
                <circle id="rim2" cx="0" cy="0" r="3.5"/>
                <g id="zoomPlus">
                        <use xlink:href="#rim" fill="#404040">
                                <set attributeName="fill" to="#808080" begin="zoomplus.mouseover" end="zoomplus.mouseout"/>
                        </use>
                        <path d="M-4,0h8M0,-4v8" fill="none" stroke="white" stroke-width="1.5" pointer-events="none"/>
                </g>
                <g id="zoomMin">
                        <use xlink:href="#rim" fill="#404040">
                                <set attributeName="fill" to="#808080" begin="zoomminus.mouseover" end="zoomminus.mouseout"/>
                        </use>
                        <path d="M-4,0h8" fill="none" stroke="white" stroke-width="1.5" pointer-events="none"/>
                </g>
                <g id="dirArrow">
                        <path fill="none" stroke="white" stroke-width="1.5" d="M0,-3.0v7 M-2.5,-0.5L0,-3.0L2.5,-0.5"/>
                </g>
               <g id="resetDef">
                       <use xlink:href="#rim2" fill="#404040">
                               <set attributeName="fill" to="#808080" begin="reset.mouseover" end="reset.mouseout"/>
                       </use>
               </g>
        </defs>

<script type="text/javascript">
var viewWidth = 886;
var viewHeight = 510;
var sectionId = 'dynsection-1';
</script>
<script xlink:href="svgpan.js"/>
<svg id="graph" class="graph">
<g id="viewport">
<title>pkgAcquire::Queue::QItem</title>
<polygon fill="white" stroke="none" points="-4,4 -4,-506 882,-506 882,4 -4,4"/>
<!-- Node1 -->
<g id="node1" class="node"><title>Node1</title>
<polygon fill="#bfbfbf" stroke="black" points="729,-413 729,-443 835,-443 835,-413 729,-413"/>
<text text-anchor="start" x="737" y="-431" font-family="Helvetica,sans-Serif" font-size="10.00">pkgAcquire::Queue::</text>
<text text-anchor="middle" x="782" y="-420" font-family="Helvetica,sans-Serif" font-size="10.00">QItem</text>
</g>
<!-- Node1&#45;&gt;Node1 -->
<g id="edge30" class="edge"><title>Node1&#45;&gt;Node1</title>
<path fill="none" stroke="#9a32cd" stroke-dasharray="5,2" d="M845.141,-432.593C849.408,-431.534 852,-430.003 852,-428 852,-424.713 845.021,-422.697 835.111,-421.952"/>
<polygon fill="#9a32cd" stroke="#9a32cd" points="844.505,-429.149 835.111,-434.048 845.51,-436.076 844.505,-429.149"/>
<text text-anchor="middle" x="864.5" y="-425.5" font-family="Helvetica,sans-Serif" font-size="10.00"> Next</text>
</g>
<!-- Node8 -->
<g id="node8" class="node"><title>Node8</title>
<g id="a_node8"><a xlink:href="classpkgAcquire_1_1Queue.xhtml" target="_top" xlink:title="A single download queue in a pkgAcquire object. {{{. ">
<polygon fill="white" stroke="black" points="726.5,-327.5 726.5,-346.5 771.5,-346.5 771.5,-327.5 726.5,-327.5"/>
<text text-anchor="middle" x="749" y="-334.5" font-family="Helvetica,sans-Serif" font-size="10.00">Queue</text>
</a>
</g>
</g>
<!-- Node1&#45;&gt;Node8 -->
<g id="edge10" class="edge"><title>Node1&#45;&gt;Node8</title>
<path fill="none" stroke="#9a32cd" stroke-dasharray="5,2" d="M770.094,-403.585C768.637,-400.398 767.23,-397.142 766,-394 759.63,-377.726 754.146,-358.041 751.232,-346.875"/>
<polygon fill="#9a32cd" stroke="#9a32cd" points="767.013,-405.256 774.492,-412.761 773.326,-402.231 767.013,-405.256"/>
<text text-anchor="middle" x="780" y="-380.5" font-family="Helvetica,sans-Serif" font-size="10.00"> Items</text>
</g>
<!-- Node9 -->
<g id="node9" class="node"><title>Node9</title>
<g id="a_node9"><a xlink:href="classpkgAcquire_1_1Worker.xhtml" target="_top" xlink:title="A fetch subprocess. ">
<polygon fill="white" stroke="black" points="487,-245.5 487,-264.5 535,-264.5 535,-245.5 487,-245.5"/>
<text text-anchor="middle" x="511" y="-252.5" font-family="Helvetica,sans-Serif" font-size="10.00">Worker</text>
</a>
</g>
</g>
<!-- Node1&#45;&gt;Node9 -->
<g id="edge18" class="edge"><title>Node1&#45;&gt;Node9</title>
<path fill="none" stroke="#9a32cd" stroke-dasharray="5,2" d="M718.845,-418.138C700.726,-413.264 681.871,-405.709 667,-394 637.288,-370.605 650.153,-348.239 625,-320 609.982,-303.139 603.438,-301.488 584,-290 567.27,-280.112 547.186,-270.938 532.323,-264.618"/>
<polygon fill="#9a32cd" stroke="#9a32cd" points="718.26,-421.598 728.805,-420.579 719.926,-414.799 718.26,-421.598"/>
<text text-anchor="middle" x="670.5" y="-334.5" font-family="Helvetica,sans-Serif" font-size="10.00"> CurrentItem</text>
</g>
<!-- Node2 -->
<g id="node2" class="node"><title>Node2</title>
<g id="a_node2"><a xlink:href="structpkgAcquire_1_1ItemDesc.xhtml" target="_top" xlink:title="Represents a single download source from which an item should be downloaded. ">
<polygon fill="white" stroke="black" points="98.5,-6.5 98.5,-25.5 157.5,-25.5 157.5,-6.5 98.5,-6.5"/>
<text text-anchor="middle" x="128" y="-13.5" font-family="Helvetica,sans-Serif" font-size="10.00">ItemDesc</text>
</a>
</g>
</g>
<!-- Node2&#45;&gt;Node1 -->
<g id="edge1" class="edge"><title>Node2&#45;&gt;Node1</title>
<path fill="none" stroke="midnightblue" d="M159.91,-28.7079C163.945,-29.9423 168.045,-31.08 172,-32 248.822,-49.87 876,-44.127 876,-123 876,-338 876,-338 876,-338 876,-373.059 841.094,-398.439 813.824,-412.917"/>
<polygon fill="midnightblue" stroke="midnightblue" points="160.725,-25.2921 150.133,-25.5095 158.549,-31.9452 160.725,-25.2921"/>
</g>
<!-- Node3 -->
<g id="node3" class="node"><title>Node3</title>
<g id="a_node3"><a xlink:href="classWeakPointable.xhtml" target="_top" xlink:title="WeakPointable">
<polygon fill="white" stroke="black" points="74.5,-327.5 74.5,-346.5 157.5,-346.5 157.5,-327.5 74.5,-327.5"/>
<text text-anchor="middle" x="116" y="-334.5" font-family="Helvetica,sans-Serif" font-size="10.00">WeakPointable</text>
</a>
</g>
</g>
<!-- Node3&#45;&gt;Node2 -->
<g id="edge2" class="edge"><title>Node3&#45;&gt;Node2</title>
<path fill="none" stroke="midnightblue" d="M118.62,-316.861C120.607,-300.68 123,-276.867 123,-256 123,-256 123,-256 123,-89 123,-66.1952 125.527,-39.4249 126.988,-25.8538"/>
<polygon fill="midnightblue" stroke="midnightblue" points="115.101,-316.776 117.284,-327.143 122.043,-317.678 115.101,-316.776"/>
</g>
<!-- Node6 -->
<g id="node6" class="node"><title>Node6</title>
<g id="a_node6"><a xlink:href="classpkgAcquire_1_1Item.xhtml" target="_top" xlink:title="Represents the process by which a pkgAcquire object should {{{ retrieve a file or a collection of fil...">
<polygon fill="white" stroke="black" points="155,-80.5 155,-99.5 191,-99.5 191,-80.5 155,-80.5"/>
<text text-anchor="middle" x="173" y="-87.5" font-family="Helvetica,sans-Serif" font-size="10.00">Item</text>
</a>
</g>
</g>
<!-- Node3&#45;&gt;Node6 -->
<g id="edge6" class="edge"><title>Node3&#45;&gt;Node6</title>
<path fill="none" stroke="midnightblue" d="M128.392,-318.802C131.633,-313.613 134.824,-307.76 137,-302 165.231,-227.257 171.435,-129.233 172.698,-99.7514"/>
<polygon fill="midnightblue" stroke="midnightblue" points="125.381,-317.007 122.713,-327.261 131.193,-320.909 125.381,-317.007"/>
</g>
<!-- Node3&#45;&gt;Node9 -->
<g id="edge13" class="edge"><title>Node3&#45;&gt;Node9</title>
<path fill="none" stroke="midnightblue" d="M151.176,-324.434C156.454,-322.853 161.852,-321.322 167,-320 285.559,-289.557 430.602,-267.387 486.986,-259.328"/>
<polygon fill="midnightblue" stroke="midnightblue" points="149.793,-321.198 141.271,-327.494 151.859,-327.887 149.793,-321.198"/>
</g>
<!-- Node4 -->
<g id="node4" class="node"><title>Node4</title>
<g id="a_node4"><a xlink:title="STL class. ">
<polygon fill="white" stroke="#bfbfbf" points="381.5,-418.5 381.5,-437.5 422.5,-437.5 422.5,-418.5 381.5,-418.5"/>
<text text-anchor="middle" x="402" y="-425.5" font-family="Helvetica,sans-Serif" font-size="10.00">string</text>
</a>
</g>
</g>
<!-- Node4&#45;&gt;Node2 -->
<g id="edge3" class="edge"><title>Node4&#45;&gt;Node2</title>
<path fill="none" stroke="#9a32cd" stroke-dasharray="5,2" d="M371.2,-426.744C277.141,-425.141 0,-413.97 0,-338 0,-338 0,-338 0,-89 0,-44.126 60.5,-26.9225 98.3125,-20.5525"/>
<polygon fill="#9a32cd" stroke="#9a32cd" points="371.183,-430.244 381.233,-426.89 371.285,-423.245 371.183,-430.244"/>
<text text-anchor="middle" x="26.5" y="-211.5" font-family="Helvetica,sans-Serif" font-size="10.00"> Description</text>
<text text-anchor="middle" x="26.5" y="-200.5" font-family="Helvetica,sans-Serif" font-size="10.00">URI</text>
<text text-anchor="middle" x="26.5" y="-189.5" font-family="Helvetica,sans-Serif" font-size="10.00">ShortDesc</text>
</g>
<!-- Node4&#45;&gt;Node6 -->
<g id="edge29" class="edge"><title>Node4&#45;&gt;Node6</title>
<path fill="none" stroke="#9a32cd" stroke-dasharray="5,2" d="M371.177,-425.106C295.407,-419.743 103.419,-401.632 65,-354 -3.4846,-269.092 126.761,-134.781 163.655,-99.6425"/>
<polygon fill="#9a32cd" stroke="#9a32cd" points="371.266,-428.62 381.481,-425.807 371.741,-421.636 371.266,-428.62"/>
<text text-anchor="middle" x="83.5" y="-263.5" font-family="Helvetica,sans-Serif" font-size="10.00"> DestFile</text>
<text text-anchor="middle" x="83.5" y="-252.5" font-family="Helvetica,sans-Serif" font-size="10.00">ErrorText</text>
<text text-anchor="middle" x="83.5" y="-241.5" font-family="Helvetica,sans-Serif" font-size="10.00">UsedMirror</text>
</g>
<!-- Node4&#45;&gt;Node8 -->
<g id="edge11" class="edge"><title>Node4&#45;&gt;Node8</title>
<path fill="none" stroke="#9a32cd" stroke-dasharray="5,2" d="M432.686,-421.681C488.934,-411.514 611.961,-387.332 712,-354 718.241,-351.92 724.888,-349.211 730.8,-346.614"/>
<polygon fill="#9a32cd" stroke="#9a32cd" points="431.896,-418.267 422.667,-423.471 433.127,-425.158 431.896,-418.267"/>
<text text-anchor="middle" x="661" y="-380.5" font-family="Helvetica,sans-Serif" font-size="10.00"> Name</text>
</g>
<!-- Node4&#45;&gt;Node9 -->
<g id="edge19" class="edge"><title>Node4&#45;&gt;Node9</title>
<path fill="none" stroke="#9a32cd" stroke-dasharray="5,2" d="M409.024,-408.825C417.914,-386.856 434.448,-349.203 454,-320 468.404,-298.487 489.56,-276.652 501.635,-264.871"/>
<polygon fill="#9a32cd" stroke="#9a32cd" points="405.722,-407.658 405.294,-418.244 412.23,-410.235 405.722,-407.658"/>
<text text-anchor="middle" x="478" y="-345.5" font-family="Helvetica,sans-Serif" font-size="10.00"> OutQueue</text>
<text text-anchor="middle" x="478" y="-334.5" font-family="Helvetica,sans-Serif" font-size="10.00">Access</text>
<text text-anchor="middle" x="478" y="-323.5" font-family="Helvetica,sans-Serif" font-size="10.00">Status</text>
</g>
<!-- Node10 -->
<g id="node10" class="node"><title>Node10</title>
<g id="a_node10"><a xlink:href="structpkgAcquire_1_1MethodConfig.xhtml" target="_top" xlink:title="Information about the properties of a single acquire method. {{{. ">
<polygon fill="white" stroke="black" points="288.5,-327.5 288.5,-346.5 365.5,-346.5 365.5,-327.5 288.5,-327.5"/>
<text text-anchor="middle" x="327" y="-334.5" font-family="Helvetica,sans-Serif" font-size="10.00">MethodConfig</text>
</a>
</g>
</g>
<!-- Node4&#45;&gt;Node10 -->
<g id="edge17" class="edge"><title>Node4&#45;&gt;Node10</title>
<path fill="none" stroke="#9a32cd" stroke-dasharray="5,2" d="M388.264,-410.7C372.356,-391.822 346.742,-361.427 334.28,-346.639"/>
<polygon fill="#9a32cd" stroke="#9a32cd" points="385.688,-413.075 394.809,-418.466 391.041,-408.564 385.688,-413.075"/>
<text text-anchor="middle" x="392.5" y="-386" font-family="Helvetica,sans-Serif" font-size="10.00"> Access</text>
<text text-anchor="middle" x="392.5" y="-375" font-family="Helvetica,sans-Serif" font-size="10.00">Version</text>
</g>
<!-- Node12 -->
<g id="node12" class="node"><title>Node12</title>
<polygon fill="white" stroke="#bfbfbf" points="511.5,-327.5 511.5,-346.5 616.5,-346.5 616.5,-327.5 511.5,-327.5"/>
<text text-anchor="middle" x="564" y="-334.5" font-family="Helvetica,sans-Serif" font-size="10.00">vector&lt; std::string &gt;</text>
</g>
<!-- Node4&#45;&gt;Node12 -->
<g id="edge22" class="edge"><title>Node4&#45;&gt;Node12</title>
<path fill="none" stroke="#9a32cd" stroke-dasharray="5,2" d="M426.721,-413.418C460.479,-394.873 520.023,-362.16 548.276,-346.639"/>
<polygon fill="#9a32cd" stroke="#9a32cd" points="424.612,-410.584 417.533,-418.466 427.983,-416.719 424.612,-410.584"/>
<text text-anchor="middle" x="519.5" y="-380.5" font-family="Helvetica,sans-Serif" font-size="10.00"> elements</text>
</g>
<!-- Node5 -->
<g id="node5" class="node"><title>Node5</title>
<g id="a_node5"><a xlink:title="STL class. ">
<polygon fill="white" stroke="#bfbfbf" points="349,-482.5 349,-501.5 455,-501.5 455,-482.5 349,-482.5"/>
<text text-anchor="middle" x="402" y="-489.5" font-family="Helvetica,sans-Serif" font-size="10.00">basic_string&lt; char &gt;</text>
</a>
</g>
</g>
<!-- Node5&#45;&gt;Node4 -->
<g id="edge4" class="edge"><title>Node5&#45;&gt;Node4</title>
<path fill="none" stroke="midnightblue" d="M402,-472.037C402,-460.53 402,-446.403 402,-437.548"/>
<polygon fill="midnightblue" stroke="midnightblue" points="398.5,-472.379 402,-482.379 405.5,-472.379 398.5,-472.379"/>
</g>
<!-- Node6&#45;&gt;Node2 -->
<g id="edge5" class="edge"><title>Node6&#45;&gt;Node2</title>
<path fill="none" stroke="#9a32cd" stroke-dasharray="5,2" d="M162.281,-71.8488C153.156,-57.2504 140.433,-36.8922 133.332,-25.531"/>
<polygon fill="#9a32cd" stroke="#9a32cd" points="159.393,-73.8329 167.661,-80.4579 165.329,-70.1229 159.393,-73.8329"/>
<text text-anchor="middle" x="172" y="-53.5" font-family="Helvetica,sans-Serif" font-size="10.00"> Owner</text>
</g>
<!-- Node13 -->
<g id="node13" class="node"><title>Node13</title>
<polygon fill="white" stroke="#bfbfbf" points="181.5,-1 181.5,-31 282.5,-31 282.5,-1 181.5,-1"/>
<text text-anchor="start" x="189.5" y="-19" font-family="Helvetica,sans-Serif" font-size="10.00">vector&lt; pkgAcquire</text>
<text text-anchor="middle" x="232" y="-8" font-family="Helvetica,sans-Serif" font-size="10.00">::Item * &gt;</text>
</g>
<!-- Node6&#45;&gt;Node13 -->
<g id="edge27" class="edge"><title>Node6&#45;&gt;Node13</title>
<path fill="none" stroke="#9a32cd" stroke-dasharray="5,2" d="M186.387,-72.6634C196.613,-60.1839 210.566,-43.1565 220.338,-31.2316"/>
<polygon fill="#9a32cd" stroke="#9a32cd" points="183.631,-70.5047 180,-80.4579 189.045,-74.9415 183.631,-70.5047"/>
<text text-anchor="middle" x="226.5" y="-53.5" font-family="Helvetica,sans-Serif" font-size="10.00"> elements</text>
</g>
<!-- Node7 -->
<g id="node7" class="node"><title>Node7</title>
<g id="a_node7"><a xlink:href="classpkgAcquire.xhtml" target="_top" xlink:title="The core download scheduler. {{{. ">
<polygon fill="white" stroke="black" points="478.5,-148.5 478.5,-167.5 543.5,-167.5 543.5,-148.5 478.5,-148.5"/>
<text text-anchor="middle" x="511" y="-155.5" font-family="Helvetica,sans-Serif" font-size="10.00">pkgAcquire</text>
</a>
</g>
</g>
<!-- Node7&#45;&gt;Node6 -->
<g id="edge7" class="edge"><title>Node7&#45;&gt;Node6</title>
<path fill="none" stroke="#9a32cd" stroke-dasharray="5,2" d="M468.297,-148.662C393.809,-134.116 243.1,-104.688 191.114,-94.537"/>
<polygon fill="#9a32cd" stroke="#9a32cd" points="467.799,-152.13 478.284,-150.612 469.14,-145.26 467.799,-152.13"/>
<text text-anchor="middle" x="389" y="-121.5" font-family="Helvetica,sans-Serif" font-size="10.00"> Owner</text>
</g>
<!-- Node7&#45;&gt;Node8 -->
<g id="edge9" class="edge"><title>Node7&#45;&gt;Node8</title>
<path fill="none" stroke="#9a32cd" stroke-dasharray="5,2" d="M553.524,-166.11C617.914,-177.879 735.104,-203.571 758,-238 776.638,-266.027 761.261,-308.952 753.184,-327.249"/>
<polygon fill="#9a32cd" stroke="#9a32cd" points="554.126,-162.662 543.665,-164.341 552.89,-169.552 554.126,-162.662"/>
<text text-anchor="middle" x="783" y="-252.5" font-family="Helvetica,sans-Serif" font-size="10.00"> Owner</text>
</g>
<!-- Node8&#45;&gt;Node7 -->
<g id="edge8" class="edge"><title>Node8&#45;&gt;Node7</title>
<path fill="none" stroke="#9a32cd" stroke-dasharray="5,2" d="M746.574,-317.375C744.641,-308.36 741.18,-297.824 735,-290 682.363,-223.359 585.794,-183.832 538.529,-167.621"/>
<polygon fill="#9a32cd" stroke="#9a32cd" points="743.139,-318.054 748.256,-327.332 750.042,-316.888 743.139,-318.054"/>
<text text-anchor="middle" x="735.5" y="-252.5" font-family="Helvetica,sans-Serif" font-size="10.00"> Queues</text>
</g>
<!-- Node8&#45;&gt;Node9 -->
<g id="edge14" class="edge"><title>Node8&#45;&gt;Node9</title>
<path fill="none" stroke="#9a32cd" stroke-dasharray="5,2" d="M727.324,-321.954C708.704,-310.096 683.152,-294.368 672,-290 625.45,-271.767 567.307,-262.574 535.174,-258.581"/>
<polygon fill="#9a32cd" stroke="#9a32cd" points="725.507,-324.947 735.814,-327.398 729.285,-319.054 725.507,-324.947"/>
<text text-anchor="middle" x="715" y="-293.5" font-family="Helvetica,sans-Serif" font-size="10.00"> OwnerQ</text>
</g>
<!-- Node9&#45;&gt;Node1 -->
<g id="edge31" class="edge"><title>Node9&#45;&gt;Node1</title>
<path fill="none" stroke="#9a32cd" stroke-dasharray="5,2" d="M545.428,-259.095C600.235,-264.362 704.643,-275.883 739,-290 759.885,-298.582 767.231,-301.378 780,-320 793.535,-339.739 790.862,-348.273 794,-372 795.282,-381.693 795.696,-384.371 794,-394 792.879,-400.364 790.629,-407.116 788.377,-412.843"/>
<polygon fill="#9a32cd" stroke="#9a32cd" points="545.448,-255.581 535.164,-258.126 544.79,-262.55 545.448,-255.581"/>
<text text-anchor="middle" x="810.5" y="-334.5" font-family="Helvetica,sans-Serif" font-size="10.00"> Worker</text>
</g>
<!-- Node9&#45;&gt;Node7 -->
<g id="edge28" class="edge"><title>Node9&#45;&gt;Node7</title>
<path fill="none" stroke="#9a32cd" stroke-dasharray="5,2" d="M511,-235.227C511,-214.793 511,-183.001 511,-167.746"/>
<polygon fill="#9a32cd" stroke="#9a32cd" points="507.5,-235.233 511,-245.233 514.5,-235.233 507.5,-235.233"/>
<text text-anchor="middle" x="531" y="-200.5" font-family="Helvetica,sans-Serif" font-size="10.00"> Workers</text>
</g>
<!-- Node9&#45;&gt;Node8 -->
<g id="edge12" class="edge"><title>Node9&#45;&gt;Node8</title>
<path fill="none" stroke="#9a32cd" stroke-dasharray="5,2" d="M544.894,-266.398C563.985,-272.592 588.117,-280.987 609,-290 619.586,-294.569 621.173,-298.035 632,-302 666.221,-314.534 677.346,-308.718 712,-320 718.389,-322.08 725.189,-324.85 731.194,-327.5"/>
<polygon fill="#9a32cd" stroke="#9a32cd" points="545.729,-262.991 535.138,-263.282 543.598,-269.659 545.729,-262.991"/>
<text text-anchor="middle" x="652" y="-293.5" font-family="Helvetica,sans-Serif" font-size="10.00"> Workers</text>
</g>
<!-- Node9&#45;&gt;Node9 -->
<g id="edge23" class="edge"><title>Node9&#45;&gt;Node9</title>
<path fill="none" stroke="#9a32cd" stroke-dasharray="5,2" d="M545.425,-261.618C549.979,-260.491 553,-258.285 553,-255 553,-249.609 544.864,-247.125 535.17,-247.546"/>
<polygon fill="#9a32cd" stroke="#9a32cd" points="544.852,-258.153 535.17,-262.454 545.421,-265.129 544.852,-258.153"/>
<text text-anchor="middle" x="580.5" y="-258" font-family="Helvetica,sans-Serif" font-size="10.00"> NextQueue</text>
<text text-anchor="middle" x="580.5" y="-247" font-family="Helvetica,sans-Serif" font-size="10.00">NextAcquire</text>
</g>
<!-- Node10&#45;&gt;Node7 -->
<g id="edge24" class="edge"><title>Node10&#45;&gt;Node7</title>
<path fill="none" stroke="#9a32cd" stroke-dasharray="5,2" d="M328.09,-317.1C329.322,-308.302 331.854,-298.032 337,-290 376.469,-228.391 455.682,-185.074 492.008,-167.595"/>
<polygon fill="#9a32cd" stroke="#9a32cd" points="324.594,-316.889 327.125,-327.177 331.562,-317.556 324.594,-316.889"/>
<text text-anchor="middle" x="401.5" y="-252.5" font-family="Helvetica,sans-Serif" font-size="10.00"> Configs</text>
</g>
<!-- Node10&#45;&gt;Node9 -->
<g id="edge15" class="edge"><title>Node10&#45;&gt;Node9</title>
<path fill="none" stroke="#9a32cd" stroke-dasharray="5,2" d="M346.499,-321.46C360.527,-311.53 380.212,-298.654 399,-290 427.977,-276.653 463.537,-266.889 486.706,-261.333"/>
<polygon fill="#9a32cd" stroke="#9a32cd" points="344.216,-318.791 338.163,-327.486 348.317,-324.464 344.216,-318.791"/>
<text text-anchor="middle" x="415" y="-293.5" font-family="Helvetica,sans-Serif" font-size="10.00"> Config</text>
</g>
<!-- Node10&#45;&gt;Node10 -->
<g id="edge16" class="edge"><title>Node10&#45;&gt;Node10</title>
<path fill="none" stroke="#9a32cd" stroke-dasharray="5,2" d="M375.872,-342.932C380.251,-341.691 383,-339.714 383,-337 383,-332.547 375.597,-330.077 365.735,-329.59"/>
<polygon fill="#9a32cd" stroke="#9a32cd" points="375.125,-339.503 365.735,-344.41 376.136,-346.43 375.125,-339.503"/>
<text text-anchor="middle" x="395.5" y="-334.5" font-family="Helvetica,sans-Serif" font-size="10.00"> Next</text>
</g>
<!-- Node11 -->
<g id="node11" class="node"><title>Node11</title>
<g id="a_node11"><a xlink:href="classpkgAcquireStatus.xhtml" target="_top" xlink:title="A monitor object for downloads controlled by the pkgAcquire class. {{{. ">
<polygon fill="white" stroke="black" points="176,-327.5 176,-346.5 270,-346.5 270,-327.5 176,-327.5"/>
<text text-anchor="middle" x="223" y="-334.5" font-family="Helvetica,sans-Serif" font-size="10.00">pkgAcquireStatus</text>
</a>
</g>
</g>
<!-- Node11&#45;&gt;Node7 -->
<g id="edge25" class="edge"><title>Node11&#45;&gt;Node7</title>
<path fill="none" stroke="#9a32cd" stroke-dasharray="5,2" d="M236.912,-319.5C264.684,-287.788 330.508,-218.587 402,-186 426.481,-174.841 456.242,-167.867 478.477,-163.809"/>
<polygon fill="#9a32cd" stroke="#9a32cd" points="233.99,-317.529 230.114,-327.389 239.293,-322.098 233.99,-317.529"/>
<text text-anchor="middle" x="328.5" y="-252.5" font-family="Helvetica,sans-Serif" font-size="10.00"> Log</text>
</g>
<!-- Node11&#45;&gt;Node9 -->
<g id="edge20" class="edge"><title>Node11&#45;&gt;Node9</title>
<path fill="none" stroke="#9a32cd" stroke-dasharray="5,2" d="M254.933,-323.774C281.669,-313.825 320.966,-299.864 356,-290 401.744,-277.12 456.218,-266.16 486.887,-260.381"/>
<polygon fill="#9a32cd" stroke="#9a32cd" points="253.47,-320.585 245.337,-327.374 255.929,-327.139 253.47,-320.585"/>
<text text-anchor="middle" x="365.5" y="-293.5" font-family="Helvetica,sans-Serif" font-size="10.00"> Log</text>
</g>
<!-- Node12&#45;&gt;Node9 -->
<g id="edge21" class="edge"><title>Node12&#45;&gt;Node9</title>
<path fill="none" stroke="#9a32cd" stroke-dasharray="5,2" d="M532.794,-322.415C524.594,-317.259 516.728,-310.519 512,-302 505.565,-290.406 507.055,-274.506 508.898,-264.76"/>
<polygon fill="#9a32cd" stroke="#9a32cd" points="531.256,-325.565 541.691,-327.397 534.676,-319.457 531.256,-325.565"/>
<text text-anchor="middle" x="548" y="-293.5" font-family="Helvetica,sans-Serif" font-size="10.00"> MessageQueue</text>
</g>
<!-- Node13&#45;&gt;Node7 -->
<g id="edge26" class="edge"><title>Node13&#45;&gt;Node7</title>
<path fill="none" stroke="#9a32cd" stroke-dasharray="5,2" d="M269.195,-35.6641C330.338,-66.3453 449.72,-126.25 493.967,-148.453"/>
<polygon fill="#9a32cd" stroke="#9a32cd" points="270.41,-32.3578 259.902,-31.0011 267.27,-38.6144 270.41,-32.3578"/>
<text text-anchor="middle" x="409" y="-87.5" font-family="Helvetica,sans-Serif" font-size="10.00"> Items</text>
</g>
</g>
</svg>
        <g id="navigator" transform="translate(0 0)" fill="#404254">
                <rect fill="#f2f5e9" fill-opacity="0.5" stroke="#606060" stroke-width=".5" x="0" y="0" width="60" height="60"/>
                <use id="zoomplus" xlink:href="#zoomPlus" x="17" y="9" onmousedown="handleZoom(evt,'in')"/>
                <use id="zoomminus" xlink:href="#zoomMin" x="42" y="9" onmousedown="handleZoom(evt,'out')"/>
                <use id="reset" xlink:href="#resetDef" x="30" y="36" onmousedown="handleReset()"/>
                <g id="arrowUp" xlink:href="#dirArrow" transform="translate(30 24)" onmousedown="handlePan(0,-1)">
                  <use xlink:href="#rim" fill="#404040">
                        <set attributeName="fill" to="#808080" begin="arrowUp.mouseover" end="arrowUp.mouseout"/>
                  </use>
                  <path fill="none" stroke="white" stroke-width="1.5" d="M0,-3.0v7 M-2.5,-0.5L0,-3.0L2.5,-0.5"/>
                </g>
                <g id="arrowRight" xlink:href="#dirArrow" transform="rotate(90) translate(36 -43)" onmousedown="handlePan(1,0)">
                  <use xlink:href="#rim" fill="#404040">
                        <set attributeName="fill" to="#808080" begin="arrowRight.mouseover" end="arrowRight.mouseout"/>
                  </use>
                  <path fill="none" stroke="white" stroke-width="1.5" d="M0,-3.0v7 M-2.5,-0.5L0,-3.0L2.5,-0.5"/>
                </g>
                <g id="arrowDown" xlink:href="#dirArrow" transform="rotate(180) translate(-30 -48)" onmousedown="handlePan(0,1)">
                  <use xlink:href="#rim" fill="#404040">
                        <set attributeName="fill" to="#808080" begin="arrowDown.mouseover" end="arrowDown.mouseout"/>
                  </use>
                  <path fill="none" stroke="white" stroke-width="1.5" d="M0,-3.0v7 M-2.5,-0.5L0,-3.0L2.5,-0.5"/>
                </g>
                <g id="arrowLeft" xlink:href="#dirArrow" transform="rotate(270) translate(-36 17)" onmousedown="handlePan(-1,0)">
                  <use xlink:href="#rim" fill="#404040">
                        <set attributeName="fill" to="#808080" begin="arrowLeft.mouseover" end="arrowLeft.mouseout"/>
                  </use>
                  <path fill="none" stroke="white" stroke-width="1.5" d="M0,-3.0v7 M-2.5,-0.5L0,-3.0L2.5,-0.5"/>
                </g>
        </g>
        <svg viewBox="0 0 15 15" width="100%" height="30px" preserveAspectRatio="xMaxYMin meet">
         <g id="arrow_out" transform="scale(0.3 0.3)">
          <a xlink:href="structpkgAcquire_1_1Queue_1_1QItem__coll__graph_org.svg" target="_base">
           <rect id="button" ry="5" rx="5" y="6" x="6" height="38" width="38"
                fill="#f2f5e9" fill-opacity="0.5" stroke="#606060" stroke-width="1.0"/>
           <path id="arrow"
             d="M 11.500037,31.436501 C 11.940474,20.09759 22.043105,11.32322 32.158766,21.979434 L 37.068811,17.246167 C 37.068811,17.246167 37.088388,32 37.088388,32 L 22.160133,31.978069 C 22.160133,31.978069 26.997745,27.140456 26.997745,27.140456 C 18.528582,18.264221 13.291696,25.230495 11.500037,31.436501 z"
             style="fill:#404040;"/>
          </a>
         </g>
        </svg>
</svg>
