<?xml version="1.0" encoding="UTF-8" standalone="no"?>
<!DOCTYPE svg PUBLIC "-//W3C//DTD SVG 1.1//EN"
 "http://www.w3.org/Graphics/SVG/1.1/DTD/svg11.dtd">
<!-- Generated by graphviz version 2.36.0 (20140111.2315)
 -->
<!-- Title: pkgAcquire::MethodConfig Pages: 1 -->
<svg width="183pt" height="164pt"
 viewBox="0.00 0.00 183.00 164.00" xmlns="http://www.w3.org/2000/svg" xmlns:xlink="http://www.w3.org/1999/xlink">
<g id="graph0" class="graph" transform="scale(1 1) rotate(0) translate(4 160)">
<title>pkgAcquire::MethodConfig</title>
<polygon fill="white" stroke="none" points="-4,4 -4,-160 179,-160 179,4 -4,4"/>
<!-- Node1 -->
<g id="node1" class="node"><title>Node1</title>
<polygon fill="#bfbfbf" stroke="black" points="0,-0.5 0,-19.5 132,-19.5 132,-0.5 0,-0.5"/>
<text text-anchor="middle" x="66" y="-7.5" font-family="Helvetica,sans-Serif" font-size="10.00">pkgAcquire::MethodConfig</text>
</g>
<!-- Node1&#45;&gt;Node1 -->
<g id="edge1" class="edge"><title>Node1&#45;&gt;Node1</title>
<path fill="none" stroke="#9a32cd" stroke-dasharray="5,2" d="M142.12,-15.0508C147.032,-13.8707 150,-12.1871 150,-10 150,-6.58594 142.768,-4.3988 132.201,-3.4386"/>
<polygon fill="#9a32cd" stroke="#9a32cd" points="141.56,-11.5956 132.201,-16.5614 142.614,-18.5158 141.56,-11.5956"/>
<text text-anchor="middle" x="162.5" y="-7.5" font-family="Helvetica,sans-Serif" font-size="10.00"> Next</text>
</g>
<!-- Node2 -->
<g id="node2" class="node"><title>Node2</title>
<g id="a_node2"><a xlink:title="STL class. ">
<polygon fill="white" stroke="#bfbfbf" points="45.5,-78.5 45.5,-97.5 86.5,-97.5 86.5,-78.5 45.5,-78.5"/>
<text text-anchor="middle" x="66" y="-85.5" font-family="Helvetica,sans-Serif" font-size="10.00">string</text>
</a>
</g>
</g>
<!-- Node2&#45;&gt;Node1 -->
<g id="edge2" class="edge"><title>Node2&#45;&gt;Node1</title>
<path fill="none" stroke="#9a32cd" stroke-dasharray="5,2" d="M66,-68.2239C66,-52.6974 66,-31.3582 66,-19.6165"/>
<polygon fill="#9a32cd" stroke="#9a32cd" points="62.5001,-68.2818 66,-78.2818 69.5001,-68.2819 62.5001,-68.2818"/>
<text text-anchor="middle" x="84.5" y="-52" font-family="Helvetica,sans-Serif" font-size="10.00"> Access</text>
<text text-anchor="middle" x="84.5" y="-41" font-family="Helvetica,sans-Serif" font-size="10.00">Version</text>
</g>
<!-- Node3 -->
<g id="node3" class="node"><title>Node3</title>
<g id="a_node3"><a xlink:title="STL class. ">
<polygon fill="white" stroke="#bfbfbf" points="13,-136.5 13,-155.5 119,-155.5 119,-136.5 13,-136.5"/>
<text text-anchor="middle" x="66" y="-143.5" font-family="Helvetica,sans-Serif" font-size="10.00">basic_string&lt; char &gt;</text>
</a>
</g>
</g>
<!-- Node3&#45;&gt;Node2 -->
<g id="edge3" class="edge"><title>Node3&#45;&gt;Node2</title>
<path fill="none" stroke="midnightblue" d="M66,-125.953C66,-116.287 66,-105.031 66,-97.5052"/>
<polygon fill="midnightblue" stroke="midnightblue" points="62.5001,-126.25 66,-136.25 69.5001,-126.25 62.5001,-126.25"/>
</g>
</g>
</svg>
