<?xml version="1.0" encoding="UTF-8" standalone="no"?>
<!DOCTYPE svg PUBLIC "-//W3C//DTD SVG 1.1//EN"
 "http://www.w3.org/Graphics/SVG/1.1/DTD/svg11.dtd">
<!-- Generated by graphviz version 2.36.0 (20140111.2315)
 -->
<!-- Title: Configuration::Item Pages: 1 -->
<svg width="157pt" height="177pt"
 viewBox="0.00 0.00 157.00 176.50" xmlns="http://www.w3.org/2000/svg" xmlns:xlink="http://www.w3.org/1999/xlink">
<g id="graph0" class="graph" transform="scale(1 1) rotate(0) translate(4 172.5)">
<title>Configuration::Item</title>
<polygon fill="white" stroke="none" points="-4,4 -4,-172.5 153,-172.5 153,4 -4,4"/>
<!-- Node1 -->
<g id="node1" class="node"><title>Node1</title>
<polygon fill="#bfbfbf" stroke="black" points="2,-7 2,-26 102,-26 102,-7 2,-7"/>
<text text-anchor="middle" x="52" y="-14" font-family="Helvetica,sans-Serif" font-size="10.00">Configuration::Item</text>
</g>
<!-- Node1&#45;&gt;Node1 -->
<g id="edge3" class="edge"><title>Node1&#45;&gt;Node1</title>
<path fill="none" stroke="#9a32cd" stroke-dasharray="5,2" d="M111.987,-22.8532C116.929,-21.4805 120,-19.3628 120,-16.5 120,-12.0312 112.518,-9.37793 102.114,-8.54004"/>
<polygon fill="#9a32cd" stroke="#9a32cd" points="111.422,-19.3991 102.114,-24.46 112.546,-26.3082 111.422,-19.3991"/>
<text text-anchor="middle" x="134.5" y="-25" font-family="Helvetica,sans-Serif" font-size="10.00"> Next</text>
<text text-anchor="middle" x="134.5" y="-14" font-family="Helvetica,sans-Serif" font-size="10.00">Child</text>
<text text-anchor="middle" x="134.5" y="-3" font-family="Helvetica,sans-Serif" font-size="10.00">Parent</text>
</g>
<!-- Node2 -->
<g id="node2" class="node"><title>Node2</title>
<g id="a_node2"><a xlink:title="STL class. ">
<polygon fill="white" stroke="#bfbfbf" points="31.5,-91 31.5,-110 72.5,-110 72.5,-91 31.5,-91"/>
<text text-anchor="middle" x="52" y="-98" font-family="Helvetica,sans-Serif" font-size="10.00">string</text>
</a>
</g>
</g>
<!-- Node2&#45;&gt;Node1 -->
<g id="edge1" class="edge"><title>Node2&#45;&gt;Node1</title>
<path fill="none" stroke="#9a32cd" stroke-dasharray="5,2" d="M52,-80.2589C52,-63.1762 52,-38.9984 52,-26.2123"/>
<polygon fill="#9a32cd" stroke="#9a32cd" points="48.5001,-80.7245 52,-90.7246 55.5001,-80.7246 48.5001,-80.7245"/>
<text text-anchor="middle" x="64.5" y="-64.5" font-family="Helvetica,sans-Serif" font-size="10.00"> Tag</text>
<text text-anchor="middle" x="64.5" y="-53.5" font-family="Helvetica,sans-Serif" font-size="10.00">Value</text>
</g>
<!-- Node3 -->
<g id="node3" class="node"><title>Node3</title>
<g id="a_node3"><a xlink:title="STL class. ">
<polygon fill="white" stroke="#bfbfbf" points="-1,-149 -1,-168 105,-168 105,-149 -1,-149"/>
<text text-anchor="middle" x="52" y="-156" font-family="Helvetica,sans-Serif" font-size="10.00">basic_string&lt; char &gt;</text>
</a>
</g>
</g>
<!-- Node3&#45;&gt;Node2 -->
<g id="edge2" class="edge"><title>Node3&#45;&gt;Node2</title>
<path fill="none" stroke="midnightblue" d="M52,-138.453C52,-128.787 52,-117.531 52,-110.005"/>
<polygon fill="midnightblue" stroke="midnightblue" points="48.5001,-138.75 52,-148.75 55.5001,-138.75 48.5001,-138.75"/>
</g>
</g>
</svg>
