<?xml version="1.0" encoding="UTF-8" standalone="no"?>
<!DOCTYPE svg PUBLIC "-//W3C//DTD SVG 1.1//EN"
 "http://www.w3.org/Graphics/SVG/1.1/DTD/svg11.dtd">
<!-- Generated by graphviz version 2.36.0 (20140111.2315)
 -->
<!-- Title: indexRecords::checkSum Pages: 1 -->
<svg width="210pt" height="232pt"
 viewBox="0.00 0.00 210.00 232.00" xmlns="http://www.w3.org/2000/svg" xmlns:xlink="http://www.w3.org/1999/xlink">
<g id="graph0" class="graph" transform="scale(1 1) rotate(0) translate(4 228)">
<title>indexRecords::checkSum</title>
<polygon fill="white" stroke="none" points="-4,4 -4,-228 206,-228 206,4 -4,4"/>
<!-- Node1 -->
<g id="node1" class="node"><title>Node1</title>
<polygon fill="#bfbfbf" stroke="black" points="13.5,-0.5 13.5,-19.5 142.5,-19.5 142.5,-0.5 13.5,-0.5"/>
<text text-anchor="middle" x="78" y="-7.5" font-family="Helvetica,sans-Serif" font-size="10.00">indexRecords::checkSum</text>
</g>
<!-- Node2 -->
<g id="node2" class="node"><title>Node2</title>
<g id="a_node2"><a xlink:title="STL class. ">
<polygon fill="white" stroke="#bfbfbf" points="32.5,-146.5 32.5,-165.5 73.5,-165.5 73.5,-146.5 32.5,-146.5"/>
<text text-anchor="middle" x="53" y="-153.5" font-family="Helvetica,sans-Serif" font-size="10.00">string</text>
</a>
</g>
</g>
<!-- Node2&#45;&gt;Node1 -->
<g id="edge1" class="edge"><title>Node2&#45;&gt;Node1</title>
<path fill="none" stroke="#9a32cd" stroke-dasharray="5,2" d="M48.4031,-136.51C44.7446,-118.688 41.125,-91.0989 47,-68 51.7203,-49.4409 63.8418,-30.3948 71.4532,-19.6927"/>
<polygon fill="#9a32cd" stroke="#9a32cd" points="45.0306,-137.465 50.6574,-146.442 51.857,-135.915 45.0306,-137.465"/>
<text text-anchor="middle" x="88" y="-75.5" font-family="Helvetica,sans-Serif" font-size="10.00"> MetaKeyFilename</text>
</g>
<!-- Node4 -->
<g id="node4" class="node"><title>Node4</title>
<g id="a_node4"><a xlink:href="classHashString.xhtml" target="_top" xlink:title="HashString">
<polygon fill="white" stroke="black" points="137.5,-68.5 137.5,-87.5 202.5,-87.5 202.5,-68.5 137.5,-68.5"/>
<text text-anchor="middle" x="170" y="-75.5" font-family="Helvetica,sans-Serif" font-size="10.00">HashString</text>
</a>
</g>
</g>
<!-- Node2&#45;&gt;Node4 -->
<g id="edge4" class="edge"><title>Node2&#45;&gt;Node4</title>
<path fill="none" stroke="#9a32cd" stroke-dasharray="5,2" d="M74.8995,-140.775C98.9566,-125.148 136.816,-100.555 156.735,-87.6165"/>
<polygon fill="#9a32cd" stroke="#9a32cd" points="72.9009,-137.899 66.4214,-146.282 76.7141,-143.77 72.9009,-137.899"/>
<text text-anchor="middle" x="137.5" y="-120" font-family="Helvetica,sans-Serif" font-size="10.00"> Type</text>
<text text-anchor="middle" x="137.5" y="-109" font-family="Helvetica,sans-Serif" font-size="10.00">Hash</text>
</g>
<!-- Node3 -->
<g id="node3" class="node"><title>Node3</title>
<g id="a_node3"><a xlink:title="STL class. ">
<polygon fill="white" stroke="#bfbfbf" points="0,-204.5 0,-223.5 106,-223.5 106,-204.5 0,-204.5"/>
<text text-anchor="middle" x="53" y="-211.5" font-family="Helvetica,sans-Serif" font-size="10.00">basic_string&lt; char &gt;</text>
</a>
</g>
</g>
<!-- Node3&#45;&gt;Node2 -->
<g id="edge2" class="edge"><title>Node3&#45;&gt;Node2</title>
<path fill="none" stroke="midnightblue" d="M53,-193.953C53,-184.287 53,-173.031 53,-165.505"/>
<polygon fill="midnightblue" stroke="midnightblue" points="49.5001,-194.25 53,-204.25 56.5001,-194.25 49.5001,-194.25"/>
</g>
<!-- Node4&#45;&gt;Node1 -->
<g id="edge3" class="edge"><title>Node4&#45;&gt;Node1</title>
<path fill="none" stroke="#9a32cd" stroke-dasharray="5,2" d="M149.725,-62.4551C131.448,-49.3431 105.184,-30.5016 90.0303,-19.6305"/>
<polygon fill="#9a32cd" stroke="#9a32cd" points="147.807,-65.3864 157.973,-68.3717 151.887,-59.6986 147.807,-65.3864"/>
<text text-anchor="middle" x="145.5" y="-41.5" font-family="Helvetica,sans-Serif" font-size="10.00"> Hash</text>
</g>
</g>
</svg>
